<svg xmlns="http://www.w3.org/2000/svg" width="147" height="180" fill="none">
  <path fill="#080B0C" d="M13.9 177.3H6.7v-13.1H5V179h9v-1.7zm6.1.3c-1.3 0-2.2-.6-2.2-1.7s.7-1.7 2.4-1.8l3-.2v1c0 1.6-1.4 2.7-3.2 2.7zm-.3 1.6c1.5 0 2.7-.7 3.4-1.8h.1v1.6H25v-7.6c0-2.3-1.5-3.6-4.2-3.6-2.3 0-4 1.1-4.3 2.9h1.8c.2-.9 1.1-1.4 2.5-1.4 1.6 0 2.5.8 2.5 2.1v1l-3.2.2c-2.6.2-4 1.3-4 3.3 0 2 1.5 3.3 3.7 3.3zm14.6-15V179h5.1c4.4 0 7-2.7 7-7.4s-2.6-7.4-7-7.4h-5zm1.9 1.7h3c3.4 0 5.3 2.1 5.3 5.7s-2 5.7-5.2 5.7h-3.1V166zm16.6 11.7c-1.3 0-2.3-.6-2.3-1.7s.8-1.7 2.5-1.8l3-.2v1c0 1.6-1.4 2.7-3.2 2.7zm-.4 1.6c1.5 0 2.7-.7 3.5-1.8h.1v1.6h1.7v-7.6c0-2.3-1.5-3.6-4.2-3.6-2.4 0-4.1 1.1-4.3 2.9h1.7c.3-.9 1.2-1.4 2.5-1.4 1.7 0 2.5.8 2.5 2.1v1l-3.2.2c-2.5.2-4 1.3-4 3.3 0 2 1.6 3.3 3.7 3.3zm8.6-.2h1.7v-6.5c0-2 1.2-3.2 3-3.2 1.7 0 2.5 1 2.5 3v6.7H70v-7.2c0-2.6-1.4-4-3.9-4-1.7 0-2.7.7-3.3 1.9h-.2v-1.8H61V179zm12 0h8.5v-1.5H75v-.1l6.3-8.1v-1.4H73v1.5h6.3v.2l-6.3 8.1v1.3zm15-1.4c-1.3 0-2.3-.6-2.3-1.7s.8-1.7 2.4-1.8l3-.2v1c0 1.6-1.3 2.7-3.2 2.7zm-.4 1.6c1.5 0 2.7-.7 3.4-1.8h.2v1.6h1.7v-7.6c0-2.3-1.5-3.6-4.2-3.6-2.4 0-4.1 1.1-4.4 2.9h1.8c.3-.9 1.2-1.4 2.5-1.4 1.7 0 2.5.8 2.5 2.1v1l-3.2.2c-2.6.2-4 1.3-4 3.3 0 2 1.6 3.3 3.7 3.3zm18.5 0a4 4 0 0 0 3.6-2h.1v1.8h1.7v-15.4h-1.7v6h-.2c-.6-1.1-2-1.8-3.5-1.8-2.8 0-4.6 2.2-4.6 5.7 0 3.4 1.8 5.7 4.6 5.7zm.5-9.9c2 0 3.2 1.6 3.2 4.2 0 2.5-1.2 4.1-3.2 4.1s-3.3-1.5-3.3-4.1c0-2.6 1.2-4.2 3.3-4.2zm12.8 0c1.7 0 2.9 1.3 3 3.3h-6.2c.2-2 1.4-3.3 3.2-3.3zm2.9 6.8c-.5 1-1.4 1.5-2.9 1.5-1.8 0-3-1.3-3.2-3.5v-.1h8v-.7c0-3.4-1.8-5.5-4.8-5.5s-5 2.2-5 5.7 2 5.7 5 5.7c2.4 0 4.1-1.2 4.6-3h-1.7zm6.1 3c.7 0 1.3-.6 1.3-1.3a1.3 1.3 0 1 0-1.3 1.3zm6.2 0c.8 0 1.4-.6 1.4-1.3a1.3 1.3 0 1 0-1.4 1.3zm6.3 0c.7 0 1.3-.6 1.3-1.3 0-.8-.6-1.4-1.3-1.4-.8 0-1.4.6-1.4 1.4 0 .7.7 1.3 1.4 1.3z"/>
  <rect width="147" height="147" fill="#060809" rx="37"/>
  <path fill="#DD3814" d="M70.9 70.7h18v7H70.4v.5l.4 24.3h-8.3v-56h29v7.6l-20.3-.3h-.5v.5l-.3 16v.4h.5z"/>
</svg>