<?xml version="1.0" encoding="utf-8"?>
<!-- Generator: Adobe Illustrator 23.0.3, SVG Export Plug-In . SVG Version: 6.00 Build 0)  -->
<svg version="1.1" id="Layer_1" xmlns="http://www.w3.org/2000/svg" xmlns:xlink="http://www.w3.org/1999/xlink" x="0px" y="0px"
	 viewBox="0 0 1439 904" style="enable-background:new 0 0 1439 904;" xml:space="preserve">
<style type="text/css">
	.st0{fill:#DB1919;}
	.st1{fill:none;stroke:#000000;stroke-width:3;stroke-miterlimit:10;}
	.st2{fill:none;stroke:#000000;stroke-width:5;stroke-miterlimit:10;}
	.st3{fill:none;stroke:#160303;stroke-width:4.7;stroke-miterlimit:10;}
	.st4{fill:none;stroke:#2C0505;stroke-width:4.4;stroke-miterlimit:10;}
	.st5{fill:none;stroke:#420808;stroke-width:4.1;stroke-miterlimit:10;}
	.st6{fill:none;stroke:#580A0A;stroke-width:3.8;stroke-miterlimit:10;}
	.st7{fill:none;stroke:#6E0D0D;stroke-width:3.5;stroke-miterlimit:10;}
	.st8{fill:none;stroke:#830F0F;stroke-width:3.2;stroke-miterlimit:10;}
	.st9{fill:none;stroke:#991111;stroke-width:2.9;stroke-miterlimit:10;}
	.st10{fill:none;stroke:#AF1414;stroke-width:2.6;stroke-miterlimit:10;}
	.st11{fill:none;stroke:#C51616;stroke-width:2.3;stroke-miterlimit:10;}
	.st12{fill:none;stroke:#DB1919;stroke-width:2;stroke-miterlimit:10;}
	.st13{fill:#F4F4F4;}
</style>
<path class="st0" d="M1451.4,329.5C1330.5,599.3,1086,734.2,717.9,734.2c-234.9,0-478.4-24.5-730.2-73.4v310.1h1463.7V329.5z"/>
<path class="st1" d="M1451.4,339.7"/>
<g>
	<path class="st2" d="M1451.4,339.7C1330.5,609.5,1086,744.4,717.9,744.4c-234.9,0-478.4-24.5-730.2-73.4"/>
	<path class="st3" d="M1451.4,355.2C1330.5,625,1086,759.9,717.9,759.9c-234.9,0-478.4-24.5-730.2-73.4"/>
	<path class="st4" d="M1451.4,370.6C1330.5,640.4,1086,775.3,717.9,775.3c-234.9,0-478.4-24.5-730.2-73.4"/>
	<path class="st5" d="M1451.4,386.1C1330.5,655.9,1086,790.8,717.9,790.8c-234.9,0-478.4-24.5-730.2-73.4"/>
	<path class="st6" d="M1451.4,401.6C1330.5,671.4,1086,806.2,717.9,806.2c-234.9,0-478.4-24.5-730.2-73.4"/>
	<path class="st7" d="M1451.4,417C1330.5,686.8,1086,821.7,717.9,821.7c-234.9,0-478.4-24.5-730.2-73.4"/>
	<path class="st8" d="M1451.4,432.5C1330.5,702.3,1086,837.2,717.9,837.2c-234.9,0-478.4-24.5-730.2-73.4"/>
	<path class="st9" d="M1451.4,447.9C1330.5,717.7,1086,852.6,717.9,852.6c-234.9,0-478.4-24.5-730.2-73.4"/>
	<path class="st10" d="M1451.4,463.4C1330.5,733.2,1086,868.1,717.9,868.1c-234.9,0-478.4-24.5-730.2-73.4"/>
	<path class="st11" d="M1451.4,478.9C1330.5,748.7,1086,883.6,717.9,883.6c-234.9,0-478.4-24.5-730.2-73.4"/>
	<path class="st12" d="M1451.4,494.3C1330.5,764.1,1086,899,717.9,899c-234.9,0-478.4-24.5-730.2-73.4"/>
</g>
<rect x="1735.2" y="542.1" class="st13" width="106.1" height="173.9"/>
</svg>
