<?xml version="1.0" encoding="utf-8"?>
<!-- Generator: Adobe Illustrator 23.0.3, SVG Export Plug-In . SVG Version: 6.00 Build 0)  -->
<svg version="1.1" id="Layer_1" xmlns="http://www.w3.org/2000/svg" xmlns:xlink="http://www.w3.org/1999/xlink" x="0px" y="0px"
	 viewBox="0 0 860 180" style="enable-background:new 0 0 860 180;" xml:space="preserve">
<style type="text/css">
	.st0{fill:#FFFFFF;}
</style>
<path class="st0" d="M86.2,175.3V38.7H160v20.5l-51.1-0.6l-0.8,38.1h45.6v19.2h-45.6l1,59.4L86.2,175.3L86.2,175.3z M209.4,175.6
	l0.8-63l-0.8-73.9h23l-0.8,60.5l0.8,76.2h-23L209.4,175.6z M291.9,175.3V38.7h74v20l-51-0.6l-1.1,38.2h47.1v19.4h-47.1l1.1,40.1
	l50.9-0.3v20h-73.9V175.3z M465.5,36.2c31.4,0,47.1,14.6,47.1,43.9c0,21.6-9.5,35.1-28.6,40.4v1.1l31.8,53.8H489l-26.6-51.6
	l-21.5-0.9v52.6h-23l1.1-64.1l-0.7-72.3c14.6-1.9,30.3-2.8,47.1-2.8L465.5,36.2z M440.8,103.5c10.3,1.1,19.4,1.7,27,1.7
	c7.8,0,13.2-1.9,16.3-5.7c3.1-3.9,4.6-10.8,4.6-20.7c0-10.1-1.6-16.8-4.7-20.2c-2.7-2.9-8.3-4.4-16.8-4.4c-8.5,0-17.3,0.6-26.2,1.7
	v47.6H440.8z M550.2,175.3L589,38.7h27.7l38.8,136.7H632l-8.6-33.6h-40.7l-8.9,33.6H550.2L550.2,175.3z M586.9,122.7h32.1
	l-15.5-63.8h-1.1l-15.6,63.7L586.9,122.7z M733.3,157.3c11.5,0,17.3-6.3,17.3-18.8c0-5.4-2.2-9.9-6.5-13.5
	c-5.5-4.4-11.4-8-17.8-10.6c-6.5-2.9-12.8-5.9-19.1-9.3c-2.1-1.1-4.1-2.5-5.9-3.9l-4.7-4.5c-2-2.2-3.4-4.1-4.1-6.3
	c-2.2-5.6-3.4-11.1-3.4-16.4c0-11.2,3.8-20.2,11.4-27.2c9.1-7.6,20.7-11.4,32.5-10.6c10.3,0,20.4,1.5,30.5,4.3l5.3,1.5L765,60.9
	c-10.6-2.4-21.5-3.7-32.5-4c-7.4,0-12.7,1.1-15.6,3.6c-2.8,2.5-4.4,6.4-4.4,11.7c0,5.3,2,9.3,5.4,12.2c3.6,3,7.8,5.5,12.6,7.8
	c4.7,2.2,8.5,4,11.5,5.3l6.7,3c4.3,2.1,8.3,4.6,12.2,7.4l4.9,4.9c2,2.1,3.5,4.1,4.5,6.3c2.5,5,3.6,10.5,3.6,16.4
	c0,12.6-4.1,22.9-12.3,30.7c-8.7,8-20.3,12.1-32.1,11.7c-6.7,0-13.9-1.1-21.3-3c-5.7-1.5-11.4-3.4-16.8-5.8l-6.2-3
	c1.1-3.6,2.2-6.4,3-8.5l1.9-5.5l1.8-4.8C704.9,153.4,718.9,156.8,733.3,157.3L733.3,157.3z M86,24.1V2.4h2.7v19.4h7.1V24H86V24.1z
	 M104,4.5l-2.6,11.8h5L104,4.5L104,4.5z M108.1,24.1l-1.1-5.6h-6.2l-1.1,5.6h-2.8l5.3-21.7h3.5l5.2,21.9h-2.7V24.1z M131.2,13
	c0-1.9-0.1-3.4-0.3-4.5c0-1.1-0.3-2-0.6-2.7c-0.3-0.6-0.7-1-1.1-1.1c-0.3-0.2-0.8-0.3-1.1-0.3c-0.7,0-1.3,0-2,0h-1.1V22
	c0.7,0,1.3,0.1,2,0.1h1c0.4,0,0.9-0.1,1.2-0.3c0.4-0.3,0.8-0.8,1.1-1.5l0.6-2.8c0.2-1.1,0.3-2.6,0.3-4.3V13z M133.9,12.8
	c0,2.2-0.1,4.3-0.3,5.6c-0.1,1.2-0.6,2.5-1.1,3.6c-0.7,0.8-1.2,1.5-2,1.7c-0.8,0.3-1.7,0.6-2.8,0.6c-1.8,0-3.6-0.1-5.4-0.2V2.4
	c1.7,0,3.4-0.1,5-0.1c1.1,0,2,0,2.9,0.3c0.8,0.2,1.5,0.8,2,1.6c0.6,0.8,1,1.8,1.2,3.3C133.8,8.8,133.9,10.7,133.9,12.8L133.9,12.8z
	 M143.1,4.4l-2.6,11.8h5L143.1,4.4L143.1,4.4z M147.2,24l-1.1-5.6H140l-1.1,5.6h-2.8l5.2-21.7h3.6l5.2,22h-2.8V24z M160.7,24
	L156,4.7v19.4h-2.6V2.4h4.5l4.7,19.4V2.4h2.5v21.9h-4.5L160.7,24z M171.9,21.8h7.6V24h-10.4v-2.8l8-16.6h-7.3V2.4h10.1v2.8
	L171.9,21.8z M188.8,4.4l-2.5,11.8h5L188.8,4.4L188.8,4.4z M193,24l-1.1-5.6h-6.1l-1.1,5.6h-2.8L187,2.3h3.6l5.2,21.7
	C195.8,24,193,24,193,24z M216.1,13c0-1.9,0-3.4-0.2-4.5c-0.1-1.1-0.3-2-0.7-2.7c-0.2-0.6-0.6-1-1-1.1c-0.3-0.2-0.8-0.3-1.2-0.3
	c-0.7,0-1.2,0-1.9,0h-1.1V22c0.7,0,1.2,0.1,1.9,0.1h1.1c0.4,0,0.9-0.1,1.2-0.3c0.4-0.3,0.8-0.8,1.1-1.5l0.6-2.8
	c0.2-1.1,0.2-2.6,0.2-4.3V13z M218.9,12.8c0,2.2-0.1,4.3-0.4,5.6c-0.1,1.2-0.6,2.5-1.1,3.6c-0.6,0.8-1.1,1.5-2,1.7
	c-0.8,0.3-1.7,0.6-2.7,0.6c-1.8,0-3.6-0.1-5.4-0.2V2.4c1.7,0,3.4-0.1,5-0.1c1.1,0,2,0,2.8,0.3c0.9,0.2,1.6,0.8,2.1,1.6
	c0.6,0.8,1,1.8,1.2,3.3c0.3,1.3,0.4,3.3,0.4,5.5L218.9,12.8z M223.5,24V2.4h10.1v2.2h-7.4v7.3h6.7v2.2h-6.7V22h7.5v2.2h-10.1
	L223.5,24z M246.2,24V2.4h2.7v19.4h6.8V24H246.2z M263.9,4.5l-2.2,11.8h5L263.9,4.5z M268.2,24.1l-1.1-5.6h-6.2l-1.1,5.6H257
	l5.3-21.7h3.6l5,21.7h-2.5H268.2z M283.4,17.9c0,1.2,0,2.2-0.3,3.1c-0.2,0.8-0.7,1.3-1.2,1.9c-0.6,0.6-1.2,0.9-2,1.1
	c-1.5,0.3-2.8,0.3-4.3,0c-0.7,0-1.2-0.1-1.8-0.3v-2.2c1.2,0.3,2.6,0.4,3.9,0.4c1.1,0,1.8-0.2,2.2-0.9c0.6-0.6,0.8-1.6,0.8-2.8
	c0-0.8,0-1.5-0.2-1.9c-0.1-0.4-0.2-0.9-0.4-1.2l-0.8-0.8l-1.1-0.3l-2.2-0.7c-0.4-0.3-1-0.7-1.3-1.1c-0.4-0.4-0.7-1-0.9-1.7
	c-0.3-1.7-0.3-3.5,0.2-5.2c0.3-0.8,0.8-1.3,1.2-1.9c0.6-0.4,1.2-0.8,2-1c1.3-0.3,2.8-0.4,4.1-0.1c0.6,0,1.1,0.2,1.6,0.3v2.2
	c-1.2-0.2-2.4-0.4-3.6-0.4l-1.1,0.1l-1,0.7c-0.3,0.3-0.6,0.7-0.7,1l-0.2,1.6v1.6c0.1,0.4,0.2,0.8,0.4,1l0.7,0.7l1.2,0.3
	c0.8,0.1,1.5,0.3,2,0.7c0.6,0.2,1.1,0.6,1.6,1.1l0.9,1.8C283.3,15.8,283.4,16.8,283.4,17.9z"/>
</svg>
