<svg xmlns="http://www.w3.org/2000/svg" viewBox="0 0 1000 1000"><path fill="#060809" d="M0 0h1000v1000H0z"/><path fill="#c9201a" d="M568.4 157.4c402.9 0 604.4-219.8 604.4-659.4 0-187.7-75.5-345.7-226.7-473.9-151.1-128.1-360.6-253-628.4-374.3-267.9-121.3-421.3-192.3-460.2-212.9-38.9-20.6-108.8-58.4-209.5-113.3-100.8-54.9-170.6-100.7-209.5-137.4-39-36.6-93.9-90.4-164.8-161.4-71-70.9-120.2-143.1-147.7-216.4-77.9-196.8-116.8-389.1-116.8-576.9 0-389.1 133.9-708.5 401.8-958.1C-321.1-3976.2 60.1-4101 554.7-4101a3885 3885 0 0 1 1071.5 151.1l185.4 48.1-130.5 673.1C1181.9-3324.9 800.7-3373 537.5-3373c-263.4 0-445.4 42.4-546 127.1-100.8 84.8-151.1 219.8-151.1 405.2S-96.8-2511 29.2-2408c125.9 103 272.4 194.7 439.6 274.7A15684.4 15684.4 0 0 0 874-1944.4c103 45.8 180.8 81.3 233.5 106.5a3536.3 3536.3 0 0 1 216.3 116.8c91.5 52.7 162.5 100.8 212.9 144.2a2926.3 2926.3 0 0 1 178.6 171.7c68.7 71 119 143.2 151.1 216.4 86.9 178.6 130.5 370.9 130.5 576.9 0 444.2-144.2 803.6-432.7 1078.3C1275.8 741.2 898.1 878.5 431 878.5c-238.1 0-486.6-34.3-745.2-103-258.7-68.7-456.7-137.4-594.1-206.1l-212.9-109.9c41.2-123.6 75.5-223.2 103-298.8 27.5-75.6 50.3-139.6 68.7-192.3a5113.8 5113.8 0 0 1 61.8-168.3C-361.2 38.3 124.2 157.4 568.4 157.4z"/></svg>