<svg xmlns="http://www.w3.org/2000/svg" viewBox="0 0 860 180">
  <path fill="#fff" d="M86.2 175.3V38.7H160v20.5l-51.1-.6-.8 38.1h45.6v19.2h-45.6l1 59.4H86.2zm123.2.3l.8-63-.8-73.9h23l-.8 60.5.8 76.2h-23v.2zm82.5-.3V38.7h74v20l-51-.6-1.1 38.2h47.1v19.4h-47.1l1.1 40.1 50.9-.3v20h-73.9v-.2zM465.5 36.2c31.4 0 47.1 14.6 47.1 43.9 0 21.6-9.5 35.1-28.6 40.4v1.1l31.8 53.8H489l-26.6-51.6-21.5-.9v52.6h-23l1.1-64.1-.7-72.3a366 366 0 0 1 47.1-2.8l.1-.1zm-24.7 67.3c10.3 1.1 19.4 1.7 27 1.7 7.8 0 13.2-1.9 16.3-5.7 3.1-3.9 4.6-10.8 4.6-20.7 0-10.1-1.6-16.8-4.7-20.2-2.7-2.9-8.3-4.4-16.8-4.4s-17.3.6-26.2 1.7v47.6h-.2zm109.4 71.8L589 38.7h27.7l38.8 136.7H632l-8.6-33.6h-40.7l-8.9 33.6-23.6-.1zm36.7-52.6H619l-15.5-63.8h-1.1l-15.5 63.8zm146.4 34.6c11.5 0 17.3-6.3 17.3-18.8a17 17 0 0 0-6.5-13.5c-5.5-4.4-11.4-8-17.8-10.6-6.5-2.9-12.8-5.9-19.1-9.3a40.2 40.2 0 0 1-5.9-3.9l-4.7-4.5c-2-2.2-3.4-4.1-4.1-6.3a45 45 0 0 1-3.4-16.4c0-11.2 3.8-20.2 11.4-27.2A45.8 45.8 0 0 1 733 36.2c10.3 0 20.4 1.5 30.5 4.3l5.3 1.5-3.8 18.9a168 168 0 0 0-32.5-4c-7.4 0-12.7 1.1-15.6 3.6-2.8 2.5-4.4 6.4-4.4 11.7 0 5.3 2 9.3 5.4 12.2 3.6 3 7.8 5.5 12.6 7.8l11.5 5.3 6.7 3c4.3 2.1 8.3 4.6 12.2 7.4l4.9 4.9a23 23 0 0 1 4.5 6.3c2.5 5 3.6 10.5 3.6 16.4 0 12.6-4.1 22.9-12.3 30.7a45.1 45.1 0 0 1-32.1 11.7c-6.7 0-13.9-1.1-21.3-3-5.7-1.5-11.4-3.4-16.8-5.8l-6.2-3c1.1-3.6 2.2-6.4 3-8.5l1.9-5.5 1.8-4.8c13 6.1 27 9.5 41.4 10zM86 24.1V2.4h2.7v19.4h7.1V24H86v.1zm18-19.6l-2.6 11.8h5L104 4.5zm4.1 19.6l-1.1-5.6h-6.2l-1.1 5.6h-2.8l5.3-21.7h3.5l5.2 21.9h-2.7v-.2h-.1zM131.2 13a26.4 26.4 0 0 0-.9-7.2c-.3-.6-.7-1-1.1-1.1-.3-.2-.8-.3-1.1-.3H125V22l2 .1h1c.4 0 .9-.1 1.2-.3.4-.3.8-.8 1.1-1.5l.6-2.8c.2-1.1.3-2.6.3-4.3V13zm2.7-.2c0 2.2-.1 4.3-.3 5.6-.1 1.2-.6 2.5-1.1 3.6-.7.8-1.2 1.5-2 1.7-.8.3-1.7.6-2.8.6l-5.4-.2V2.4l5-.1c1.1 0 2 0 2.9.3.8.2 1.5.8 2 1.6.6.8 1 1.8 1.2 3.3.4 1.3.5 3.2.5 5.3zm9.2-8.4l-2.6 11.8h5l-2.4-11.8zm4.1 19.6l-1.1-5.6H140l-1.1 5.6h-2.8l5.2-21.7h3.6l5.2 22h-2.8l-.1-.3zm13.5 0L156 4.7v19.4h-2.6V2.4h4.5l4.7 19.4V2.4h2.5v21.9h-4.5l.1-.3zm11.2-2.2h7.6V24h-10.4v-2.8l8-16.6h-7.3V2.4h10.1v2.8l-8 16.6zm16.9-17.4l-2.5 11.8h5l-2.5-11.8zM193 24l-1.1-5.6h-6.1l-1.1 5.6h-2.8L187 2.3h3.6l5.2 21.7H193zm23.1-11c0-1.9 0-3.4-.2-4.5-.1-1.1-.3-2-.7-2.7-.2-.6-.6-1-1-1.1-.3-.2-.8-.3-1.2-.3h-3V22l1.9.1h1.1c.4 0 .9-.1 1.2-.3.4-.3.8-.8 1.1-1.5l.6-2.8c.2-1.1.2-2.6.2-4.3V13zm2.8-.2c0 2.2-.1 4.3-.4 5.6-.1 1.2-.6 2.5-1.1 3.6-.6.8-1.1 1.5-2 1.7-.8.3-1.7.6-2.7.6l-5.4-.2V2.4l5-.1c1.1 0 2 0 2.8.3.9.2 1.6.8 2.1 1.6.6.8 1 1.8 1.2 3.3.3 1.3.4 3.3.4 5.5l.1-.2zm4.6 11.2V2.4h10.1v2.2h-7.4v7.3h6.7v2.2h-6.7V22h7.5v2.2h-10.1l-.1-.2zm22.7 0V2.4h2.7v19.4h6.8V24h-9.5zm17.7-19.5l-2.2 11.8h5l-2.8-11.8zm4.3 19.6l-1.1-5.6h-6.2l-1.1 5.6H257l5.3-21.7h3.6l5 21.7h-2.7zm15.2-6.2c0 1.2 0 2.2-.3 3.1-.2.8-.7 1.3-1.2 1.9a4 4 0 0 1-2 1.1c-1.5.3-2.8.3-4.3 0-.7 0-1.2-.1-1.8-.3v-2.2c1.2.3 2.6.4 3.9.4 1.1 0 1.8-.2 2.2-.9.6-.6.8-1.6.8-2.8 0-.8 0-1.5-.2-1.9l-.4-1.2-.8-.8-1.1-.3-2.2-.7c-.4-.3-1-.7-1.3-1.1a4 4 0 0 1-.9-1.7c-.3-1.7-.3-3.5.2-5.2.3-.8.8-1.3 1.2-1.9.6-.4 1.2-.8 2-1 1.3-.3 2.8-.4 4.1-.1.6 0 1.1.2 1.6.3v2.2c-1.2-.2-2.4-.4-3.6-.4l-1.1.1-1 .7a3 3 0 0 0-.7 1l-.2 1.6v1.6c.1.4.2.8.4 1l.7.7 1.2.3a4 4 0 0 1 2 .7c.6.2 1.1.6 1.6 1.1l.9 1.8c.2.8.3 1.8.3 2.9z"/>
</svg>