<svg xmlns="http://www.w3.org/2000/svg" viewBox="0 0 50 50">
  <path d="M49.8 12.8c0-1.6-.2-3-.5-4.6-.7-2.6-2.1-4.7-4.6-6.3-1.2-.7-2.5-1.2-3.9-1.6-.8-.2-2.1-.2-3.2-.2H11.5C10 .2 8.4.3 7 1 4.4 2.1 2.3 4 1.2 6.8c-.5.9-.7 2-.9 2.8l-.2 2.5v26.4a16 16 0 0 0 1.1 4.9 10 10 0 0 0 6.7 5.8l2.6.5c1.2.2 2.3.2 3.5.2h22.9c1.1 0 2.1 0 3.2-.2 1.8-.2 3.3-.7 4.8-1.8 1.8-1.1 3-2.6 3.9-4.6.4-.9.5-1.8.7-2.8.2-1.4.4-2.8.4-4.2l-.1-23.5zm-13.4 8.3v11.8c0 .9-.2 1.8-.5 2.5-.5 1.2-1.6 1.9-2.8 2.3-.7.2-1.4.4-2.3.4a3.9 3.9 0 0 1-4.1-3.2c-.4-1.6.5-3.3 2.1-4.2.7-.4 1.4-.5 2.1-.7a19 19 0 0 1 2.3-.5c.5-.2.9-.5 1.1-1.1V28 16.8v-.4c0-.4-.4-.5-.7-.5L20 18.5c-.5.2-.7.4-.9 1.1v16.5c0 .9-.2 1.8-.5 2.5-.5 1.4-1.6 2.1-3 2.6-.7.2-1.4.4-2.3.4a4 4 0 0 1-4.1-3.2c-.2-1.9.7-3.7 2.6-4.4.7-.4 1.6-.5 2.3-.7l1.8-.4c.7-.2 1.2-.7 1.2-1.4v-.4-18.2-.7c.2-.5.5-.9 1.1-1.1 1.4-.4 16.9-3.3 17.4-3.3.7 0 1.1.4 1.2 1.1v.5c-.4 3.8-.4 7.6-.4 11.7z"/>
</svg>