<svg xmlns="http://www.w3.org/2000/svg" viewBox="0 0 1440 393">
    <path fill="#0C1112"
        d="M949 163c-15-12-29-19-46-14l-9 5c-8 8 1 20 11 24 19 9 35 14 51 28 9 9 15 18 25 23a6 6 0 008-7c-1-8-6-15-11-22-9-13-17-27-29-37zm-157 2c-16 4-30 12-46 17-9 2-27 2-32 11s4 19 12 21c9 2 19-4 27-8 15-8 31-17 49-19 16-3 29 4 43 12 9 6 7 4 16 1 8-2 16-3 22-6 16-10-3-15-13-18-27-7-49-17-78-11zm-107 57c-6-5-13-3-20-3-9-1-16-6-25-8-26-8-59 15-81 28-14 8-34 22-30 40 3 16 14 8 22 0 14-16 26-30 47-36 24-7 46 2 70-1 10-1 31-7 17-20zm59-71c-19-3-38 4-56 9-50 14-106-7-155 13-11 4-25 13-27 25-2 13 9 22 22 18s22-18 34-24c15-8 35-13 53-11 19 2 40 15 59 14 12-1 16-10 25-15 14-8 32-6 47-12 16-6 15-14-2-17zm-127-27l-52-9c-36-5-64 15-92 36-7 5-19 14-13 24 6 12 22 3 29-3 16-12 29-26 50-31 26-7 54-3 81-1 0 0 10 2 10-7-1-7-7-8-13-9zm542-2c-9-4-24-10-31 0-6 10 5 24 5 24 11 19 23 38 27 61 2 15 0 30 3 45 2 11 12 34 26 24 16-11 5-53 6-69 2-34-2-68-36-85zm-248 87c-5 5 3 17 10 14l2-1c2-2 3-6 2-9-1-6-10-10-14-5zm-477-29a7 7 0 00-8-7c-20 1-32 18-42 35-11 19-8 60-25 75-4 4-7-5-12-3-18 8-10 53 1 69 10 15 12 2 17-9l16-39c9-25 9-50 32-68 7-6 52-15 49-26-2-8-19-4-28-3a3 3 0 01-3-2v-1l3-21zm436-77c2 4 5 4 9 1 19-11-20-24-9-1zM733 237c-10-1-20 0-28 7-7 6-2 11 7 13 10 3 31 2 38 11 4 7 1 9 12 9 12 0 25-4 37-1 7 2 13 9 21 10 7 1 14-4 11-12-9-21-52-12-70-22-9-6-17-15-28-16zm112-19c-11 1-21 3-31 0-8-2-18-5-27-5-7 0-21 5-14 15 6 9 26 4 35 4 16 2 23 10 35 19 7 5 13 5 15-4 1-5 2-16 1-21-1-8-7-8-14-8zm268-53l-1 5c-3 12 5 25 13 10 3-7 1-18-7-19a5 5 0 00-5 4zm176 63c-7 18 9 35 21 46 8 8 16 15 22 25 4 6 7 18 14 21 5 3 13 2 18-2 8-7 5-16 1-24-9-15-35-34-30-53 6-22 34-38 31-63-3-17-60-86-65-43-1 10 1 21 6 30 5 8 16 17 18 26 3 15-30 21-36 37zM371 102c-3-9-17-11-25-9-27 8-13 50-23 70-12 28-42 43-53 72-13 36 32 41 48 14 9-16 15-30 29-44 14-11 22-16 19-36s-10-29-2-49c3-6 10-9 7-18zM0 220v48c15-14 38-22 43-43a7 7 0 00-7-8c-12-1-24 3-36 3zm0-41v21c30 4 7-32 0-21z" />
    <path fill="#0C1112"
        d="M1440 0H0v156l1-2c8-11 8-26 14-38 7-16 17-21 32-30 10-6 37-14 46-40 5-14 16-13 21-7 9 9-4 27-11 35-15 20-38 39-55 56-10 10-29 41-11 53 19 12 44-22 52-35 10-14 16-31 27-44 10-10 24-15 36-22 10-6 12-13 21-23 14-15 31 3 18 20-14 19-32 26-49 47-12 14-21 45-24 52-15 38-51 53-75 85-7 11-30 60-11 62 28 3 47-3 61-28 13-22 6-35 18-41 10-6 10 6 21 1 13-6-7-39 11-51 10-7 26 1 16 20-15 31 10 27 0 59s-16 85 5 103c12 11 23-10 10-21-21-18 16-60 23-82 10-29-11-59-3-88 5-19 15-16 30-22 21-8 27-21 22-40-10-35 13-42 16-17 3 18 1 32 9 50 35 5 33-59 40-79 9-26 42-26 48-53 5-21 19-23 29-14 7 6 4 21-4 31-14 19 18 19 33 14 12-4 21-14 30-22l4-3c16-10 73-17 108-17s48 10 23 20c-18 3-35 8-53 10-21 3-41 5-60 12-26 9-73 26-75 59-1 28 28 17 43 8 30-20 54-41 91-42 29-1 61 10 88 0 10-4 15-18 25-17 12 1 12 15 6 21-17 17 17 24 18 30 2 7-5 11-2 15 2 4 19 3 24 3 24-2 47-17 71-8 14 6 28 22 44 14 6-4 21-12 16-20-13-23-65-12-89-20a99 99 0 01-53-46c-7-18 18-21 23-9 6 15 23 40 83 38 26-1 45 15 64 36 6 6 29 25 31 6 0-10-13-12-23-24-19-19-36-40-82-44-10-1-13-15 4-17 12-2 32 3 47 13 9 6 25 21 31 17 8-5 3-12-4-21l-16-19c-1-1-4-5-4-9 1-3 11 0 20 5 24 14 41 37 47 65 3 13-1 23 13 29l30 9c12 5 22 13 32 20 6 5 17 21 24 18 7-2-8-22-14-37-7-16 11-20 15-14 7 10 3 21 7 32 4 12 13 14 25 17 11 2 70 30 67 10-2-16-34-35-46-42-15-10-24-57-59-89-15-13-30-14-30-27 0-28 27-7 46 13 33 33 38 76 52 76 9 0 9-8 6-16-2-31 28-8 28 2 1 11-9 24-7 34 4 10 14 11 21 3 8-10 2-27 12-35 20-15 31-28 31-48 0-15 23-15 22 1l-1 12c4 19 24 29 35 43 25 31 27 68 18 105-2 8-9 34 7 32 16-1 30-31 35-43 10-22 14-47 4-69-7-16-20-24-29-37-14-20 7-38 24-17 7 9 19 11 28 11 25 1 28-44 31-62 1-5 7-8 18-5 9 3 5 18 10 29 5 12 28 19 39 25 15 9 28 19 36 35 5 12 5 27 13 38V0z" />
    <path fill="#0C1112"
        d="M1440 185c-14-3-22-6-30-25-7-18-10-37-21-54-9-12-23-28-41-21-11 5-9 16-1 22 28 19 40 27 41 48 2 16-4 29-2 38 4 28 29 14 49 22l5 3v-33z" />
</svg>