<svg xmlns="http://www.w3.org/2000/svg" viewBox="0 0 1440 393">
  <path fill="#0D1111"
    d="M948.8 162.5c-14.5-11.6-28.9-18.5-46.1-13.5-2.3.7-6.8 3.1-8.5 4.9-7.7 8.4 1.3 20 10.8 24.4 19.4 9.1 35 13.2 51.1 27.9 9.4 8.5 14.7 18.2 25 22.4a6 6 0 0 0 8.2-6.3c-1.1-8.2-5.9-15-11-22.5-9-13.2-17-27.2-29.5-37.3zm-156.6 2.8c-16.3 3.4-30.5 12.1-46.4 16.3-9 2.4-27 2-31.9 11.6-4.4 8.3 3.9 18.3 11.9 20.5 9.6 2.6 18.9-3.9 27-7.8 15.5-7.5 31.6-16.6 48.9-19.2 16-2.3 29.6 4.1 43.2 12.4 9.6 5.7 7.3 4.2 16.6 1.1 7-2.3 15.5-2.8 21.8-6.5 15.3-9.3-3.3-14.5-13.7-17.4-26.4-7.6-49-17-77.4-11zm-107.3 57c-6-5.2-13-2.9-19.9-3.7-9-1-16.3-5.2-24.9-7.8-26.4-7.7-59.6 15.6-81.6 28.2-13.2 7.5-33.2 21.8-29.6 39.9 3.3 16.1 14.3 8 21.8-.2 14.3-15.6 26.4-29.7 47.6-35.5 23.9-6.7 46.1 1.6 69.7-1.1 10.2-1.4 31.1-7.4 16.9-19.8zm59.4-71.2c-19.4-2.9-38.3 3.9-56.5 9-50.2 14-105.6-6.7-154.8 12.4-10.8 4.1-24.6 13-26.9 25.3-2.6 13.4 9.3 22.3 21.7 18.3 12.7-4.2 22.5-18.3 34.5-24.4 15.1-8 35-12.7 52.3-10.9 19.5 2 39.9 15.6 59.6 13.9 11.4-1.1 15.8-9.9 25.1-15 14-7.5 31.9-5.7 46.8-11.4 15.5-6.1 15-14.7-1.8-17.2zM617 123.9c-17.3-2.1-34.2-6.2-51.6-8.6-36.5-5.1-64.7 15-92.4 36-6.7 5.1-19.5 13.9-13.5 23.8 6.8 11.4 22 2.8 29.3-2.9 16.3-12.5 29.2-26.2 49.8-31.6 26.2-6.7 54.6-2.8 81.1-.3 0 0 10.4 1.8 9.8-7.2-.5-6.8-7-8.6-12.5-9.2zm541.6-2.1c-8.3-4.1-24-9.5-30.6.3-6.5 9.8 4.6 23.8 4.6 23.8 11.9 18.9 23.5 38.3 27.1 60.6 2.4 15 .2 30.6 3.2 45.6 2.3 10.8 11.7 33.7 26.2 23.5 15.5-11.1 5.4-52.5 6-68.4 1.6-33.8-2.5-68.6-36.5-85.4zm-247.9 86.7c-4.6 5.9 3.1 17.3 10.4 14.3l1.5-.8c2.6-1.8 3.1-5.9 2.6-8.8-1-6.5-10-10.6-14.5-4.7zm-477.1-28.8a7 7 0 0 0-7.3-6.6c-19.9.8-32.1 18.4-41.8 34.8-11.4 19.2-8.5 60.6-25.7 75.1-3.5 3.6-6.7-5.3-12.1-2.8-17.6 8-9.9 52.5 1.3 68.8 10.4 15.2 12.5 1.5 17.1-8.8 5.7-13.2 11.2-25.9 16.1-39.4 9.1-24.9 9-50 31.4-68 7.8-6.2 52.9-14.7 49.5-26.2-2.2-7.8-19.4-3.9-27.7-2.5a3 3 0 0 1-3.5-2.5v-.4c0-7.3 3.1-14.4 2.7-21.5zm436.6-76.6c1.8 3.5 5 3.7 9.3 1.2 19-11.2-20.7-24-9.3-1.2zM732.9 236.5c-9.4-.2-20.2.5-27.5 7.2-7.3 6.8-2.8 10.9 6.2 13.4 10.3 2.8 31.3 1.8 38.1 11.2 4.7 6.5 1.5 9 12.4 9 12.1 0 25.1-4.7 37-1.3 7.3 2.1 12.7 9.1 20.5 9.9 7.5.7 14.5-4.2 11.1-12.1-9.1-20.7-52.1-11.9-69.4-22-9-5.4-17.3-15-28.4-15.3zM845 218.3c-10.8.2-20.9 2.8-31.4-.3-8.1-2.4-18.1-5.4-26.7-5.2-7.2.3-20.4 5.5-14.2 14.7 6 9 26.6 4.1 35.3 4.9 16.3 1.8 23 9.5 34.9 18.6 7 5.4 13 4.9 14.8-4.4 1-4.9 2.1-15.5 1.5-20.5-.8-8-7.2-8-14.2-7.8zm267.6-53.3l-.8 5.2c-2.8 11.7 5.7 24.8 12.9 9.8 3.2-6.7.9-18.1-6.5-19.3a5 5 0 0 0-5.6 4.3zm176.6 62.5c-6.7 18.1 8.5 35.2 20.4 46.6 8.1 8 16.5 15.3 22.6 25.1 3.9 6.2 6.7 17.3 13.5 21 5.4 2.9 13.8 1.3 18.4-2.6 8-6.8 4.7-15.3.5-23.5-8.3-15.6-34.9-33.7-29.7-53.1 5.7-21.7 33.9-38.1 30.8-62.6-2.3-17.6-59.3-86.2-64.7-43.7-1.2 10.4 1 21 6.2 30.1 4.4 8 15.6 16.8 17.4 25.7 3.2 15.2-29.7 21.4-35.4 37zM371.4 101.8c-3.1-8.8-17.8-11.2-25.4-9-27 8-13.5 50.4-22.8 70.6-12.5 27.4-41.9 42.4-52.8 71.5-13.4 36 31.9 41.6 47.4 14.3 9.4-16.6 15-30.3 29.6-43.7 13.2-11.7 21.8-16.9 18.6-36.2-3.4-20-9.9-29.7-2.1-48.9 2.8-6.9 10.6-9.7 7.5-18.6zM0 220v48.1c14.5-14.5 37.6-22.4 42.5-42.7a7 7 0 0 0-6.5-8.6c-12.2-.4-24 3.6-36 3.2zm0-40.7v21c29.7 4 7.4-32.8 0-21z" />
  <path fill="#0D1111"
    d="M1440 .1L0 0v155.7l1-1.3c8.1-11.2 8-26.2 13.5-38.6C21.7 100 32.3 94.7 47 86.2c10.4-6 36.5-14.7 45.7-40 5.3-14.5 15.9-12.9 21.2-7.2 8.7 9.4-4 26.7-10.7 35.4-15 19.6-37.8 38.3-54.9 55.4-10.3 10.4-29.6 41.1-10.9 53.1 18.9 12.2 43.5-22.2 51.8-34.5 9.6-14 15.5-31.9 27.2-44.5 9.9-10.4 23.9-14.7 35.7-22.3 9.9-5.7 11.5-12.4 21.2-23.1 13.3-14.6 30.5 3 17.4 20.8-13.4 18.2-31.4 25.8-48.4 46.2-12.3 14.8-21.7 45.5-24.6 52.7-15.1 38.1-51.1 53.1-74.4 85.2-7.5 10.4-30.5 59.8-11.2 61.9 28 3.1 46.6-3.5 60.7-28.1 12.9-22.6 6.2-35.3 17.8-41.3 10.7-5.5 10.7 5.8 21.3.9 13.1-6-7.4-39 10.9-51 10.3-6.8 25.8 1.6 16.6 20.4-15 30.7 9.4 26.8-.2 58.4-9.9 32.4-16.4 85.3 4.3 103.5 12.4 10.8 23.6-9.8 10.9-20.8-21.4-18.7 15.7-60.2 23-82.3 9.4-28.5-11.7-59.3-3.7-87.8 5.5-18.9 15.4-16.5 30.6-22.5 20.7-8.1 27-20.9 21.4-40.1-10.1-34.6 13.5-41.1 16.6-16.8 2.3 18.1.5 31.8 8.9 50.2 35 4.7 32.6-58.8 39.6-79 9-25.8 42-25.8 48.1-52.8 4.8-21.3 18.9-23.6 29-14.3 6.8 6.2 3.8 21.2-3.7 30.9-14.5 18.9 17.5 19.1 33.1 13.8 11.7-3.8 20.5-13.1 29.7-21.8l4-2.4c16.1-10.3 73.2-17.3 107.9-17.3s48.1 10.1 23 19.7c-17.9 3-35.4 8-53.4 10.6-20.4 2.8-40.4 4.4-59.9 11.2-25.6 9-73.1 26.7-74.3 59.5-1 28.4 28 17.3 42.5 7.8 29.8-19.4 53.9-40.6 91.4-41.9 28.3-1 60.3 10.1 87.6 0 10.1-3.7 15.1-17.5 25.4-16.6 11.4 1 11.4 15.1 5.6 20.8-17.2 16.9 17.5 23.7 18.4 29.6 1.3 7-4.8 11.3-2.5 14.9 2.4 3.9 19.7 3.6 23.9 3.3 24.1-1.6 47.7-17.1 71.5-7.5 13.4 5.4 28.3 21.8 43.5 13.2 6.8-3.9 21.1-11.2 16.3-19.6-13.4-23.1-64.5-12.4-89.1-19.8a98.5 98.5 0 0 1-52.5-45.9c-7.7-18.1 17.8-20.9 22.5-8.9 5.8 14.7 22.9 39.7 83 37.3 26.2-1 45 15.5 64.6 36.3 5.2 5.6 28.9 24.5 30.2 5.9.7-9.6-12.3-12.4-23-23.5C835 92.2 818.1 71 772.3 67.3c-10.4-.8-13.7-15.1 3.5-17.7 12.7-1.9 31.9 3.7 47.5 13.5 9.1 5.7 24.5 20.7 31.2 16.6 7-4.3 2-12.1-4.9-20.7-5.1-6.5-10.5-12.8-15.7-19.2-.4-.5-3.6-4.8-3.4-8.4.3-3.8 10-.5 19.1 4.2 24 14.4 41.2 37.9 47.6 65.2 2.8 12.9-.8 23.6 13.2 29.3 9.4 3.9 19.7 6 29.3 9.3 12.5 4.4 22.3 12.1 32.7 20 5.4 4.2 16.1 20.2 23.6 17.6 7.3-2.5-8.2-21.9-14.3-37.1-6.5-16.1 10.9-20.3 15.1-14.1 7.2 10.4 2.9 20.7 6.7 31.8 4.1 12.1 13.8 14.8 25.1 17.3 11.1 2.4 70.4 30.5 67.4 10.4-2.3-16.1-34-35.2-45.7-42.7-15.6-9.9-24.5-56.4-59.6-88.4-14.4-13.1-29.5-14.3-29.5-27.5 0-27.8 26.8-6.3 45.7 12.8 33 33.4 37.8 76.9 52.5 76.9 8.5 0 8.2-8.5 5.9-16.4-2.6-31.4 27.8-7.6 28.1 1.6.4 11.7-9.7 24.2-7.1 34 3.8 10.3 13.5 10.9 20.2 3.3 8.2-9.5 2.7-27.2 12.7-34.9 20-15.4 30.9-27.9 30.6-48.5-.2-15 23.3-14.9 22.2 1.8-.2 3.7-1.5 7.4-.7 11.6 3.6 18.9 23.4 28.7 34.6 43.1 24.6 31.1 27.2 68 18.4 104.6-2.1 8.6-9.1 34.1 6.7 32.8 15.6-1.3 29.8-31.6 35-43.4 10.1-22.2 13.5-46.6 3.7-69.4-6.6-15.3-19.7-24.1-28.8-36.7-14.1-19.7 7.2-38 24.2-16.9 7.3 9 18.4 10.7 28 11.2 24.6 1.1 28.2-44 30.8-62.6.6-4.2 7.2-8.1 17.7-4.9 9.8 3 5.1 18.1 10 29.4 5.4 12.1 28.8 18.9 39.3 24.9 14.7 8.5 28.5 18.7 35.7 34.5 5.5 12.3 5.4 27.2 13.4 38.4V.1z" />
  <path fill="#0D1111"
    d="M1440 184.7c-13.8-2.5-21.9-5.6-29.8-24.6-7.7-18.3-9.8-37-21.3-53.6-9-13-23-28.2-40.6-21.3-11.1 4.4-9 16.2-1 21.7 28.1 19.5 39.5 27.1 41.1 48.2 1.2 15.4-4.3 28.7-2.8 38.3 4.2 27.7 29.6 13.7 49.7 21.7 1.7.7 3.2 1.5 4.7 2.5v-32.9z" />
</svg>