<svg xmlns="http://www.w3.org/2000/svg" viewBox="0 0 1440 675.7">
  <g fill="#f4f4f4">
    <path d="M1177.8 584.7a43 43 0 0 0-25.9-7c-1.5.1-2.2 1.4-1.8 2.8a47.7 47.7 0 0 0 10.1 17.9c1 .9 2.5 1 3.6.2l14-9a3 3 0 0 0 0-4.9zM498.8 627.2c32.2-17.9 93.6-79.6 106.8-94.6.7-.8-.2-2-1.2-1.6A1764 1764 0 0 0 468 600.3c-.9.5-.5 2 .6 1.9 13.3-1 33.4-4.5 47.9-10.5 2-.8 3.7 1.6 2.3 3.2-9.3 10.2-25 19.8-21.4 31.9.2.4.9.7 1.4.4zM1379.3 212.3c19.7.3 60.5-7.6 60.5-7.6v-39.1c-20.2 15.8-43.8 28.2-60.5 46.7zM136.3 466.5c-40.7-5.2-95.7-4.2-136.2-3.6v20.6c1.6-.6 108.7-7.4 136.4-15 1-.3.9-1.8-.2-2z"/>
    <path d="M1439.8 93V0H.1v150.9c27.7 5.7 83.6 27.1 80 53.6-2.9 21.3-50.2 20.1-80 14.2v143.4s96.6-17.9 179.6-12.2l.5.2a211 211 0 0 1 38 44.5c.4.7-.1 1.5-.9 1.5-87.2-3.4-217.3 19-217.3 19v30.2c7.8.2 15 .5 20.6.5 37.5-.4 75.2 0 112.6 0 44 0 87.9 1.1 131.8 1.1.9 0 1.3 1 .7 1.7l-9.2 9.9C209 482.9 26.6 498.4.1 503v37.2c36.8-5.3 89.8-16.4 131.4-20.1 1-.1 1.5 1.3.6 1.8-12.5 7.2-57 31.5-132 55.8V607a854 854 0 0 0 105.4-48.9c116.6-61.4 241.9-121.2 377.1-114.4 15.2.8 27.3 3.5 35.1 5.8 2.2.6 1.8 3.8-.5 3.9-32.8 1.7-137.3 10-226.7 48.3-54.4 21.8-107.7 62.7-152.9 100.4-6.9 5.7-13.6 11.4-20.5 17.4-11.8 29.6-22.7 61.6-5.1 44 40.8-40.9 66.9-82.2 130.2-86.8 25.1-1.9-25.1 38.7-41.4 59.3-12.8 16.1 18.9 15.8 35.5 10.6 101.7-31.5 191.3-110.1 209.1-91-65.4 41.8-84.9 58-78.3 63.9 1.5 1.4 3.9 1.5 5.7.5 122.6-68.8 183.8-99.9 337.2-165.5a2 2 0 0 1 2.5 3C677.7 510.9 581.7 580.6 564.3 612c4.3 8 49.9-51 70.4 15.5 9.5 22.4 35.1-72 50.1-92.3 1.8-2.4 5.6-.9 5.4 2.1-1.9 22.6-4.5 104.5 9.6 62.7 15.4-45.4 9.4-72.6 26.6-121.3.6-1.6 2.8-1.8 3.6-.3 22 39.1 54.6 149.1 47.8 182-.4 1.8 1.7 3 3.1 2 41.1-29.6 5.2-116.9-17.3-162.9-1-1.9 1.4-3.8 3.1-2.4 47.5 41.1 81.8 205.6 159.2 170.8 14.1-6.3-6.2-19.4-22.7-41.3a2 2 0 0 1 2.2-3.1c21.8 7 44.7 28.8 48.4 21.3 3.8-7.7-102.6-84.4-133.8-121.1 0 0 .2-4.9 4.2-7.5 46.9 27.5 104.8 71.8 127.5 74.5 4 .5 6.2-4.6 3-7.1-17.3-13.4-42.6-38.5-67.9-56.9a1 1 0 0 1 .6-1.8c74.9 2.5 151.3 64.2 216.7 100.5 12-5.7-72.8-65-65.3-69.5 3.5-.2 54.3 19.2 77 24.4 1.1.3 1.7-1.3.7-1.8-20.4-11.2-92.5-50.6-123.1-68.7-8.3-4.9-12.2-24.9-13.1-30-.1-.6.4-1.1 1-1.1 13 .8 129.6 8.6 172.7 15.4 48.3 7.6 165.3 32.4 147.7 48.7-85-14.2-221.5-32.6-225.1-24.8 70.1 27.4 230.7 81.4 316.9 152.2 2.7 2.2 7.1.7 9-2.3 8.4-12.9-118.8-84.7-114.5-93.6 3.5-7.1 53.1 17.8 84.6 17.8 6.6 0-24.9-29.5-34.4-37.1-1-.8-1-2.5.1-3.2 11.9-7.8 53.9 4.7 101.9 21.5v-41.1a566 566 0 0 1-130.9-38.2c-.9-.4-.7-1.8.3-1.9 28.9-2.1 113.7 5.7 130.6 7.9v-38l-147.1-2.4c-1.1 0-1.4-1.6-.3-2 17.3-5.2 73.5-12.5 147.4-10.2v-34.9s-33.8-9.5-67.4-14.6c-1-.2-1.2-1.6-.2-1.9a177.7 177.7 0 0 1 67.5-9.1l.1-51.8c-27.4-.5-149.8 22.6-174.4 27.3-1 .2-1.6-1.2-.7-1.8 39.5-26.9 175.1-63.5 175.1-63.5v-68.8s-129.1 33.9-198 56a2 2 0 0 1-2.6-2.3l8.3-38.8c.1-.6.5-1 1-1.3 42.1-23.2 179.5-86.4 191.4-90.9v-34c-15.7 9.2-120.5 60-141.1 68.4-.9.4-1.7-.6-1.2-1.4 11.2-16.8 63-78.9 141.8-91zm-1146 493.5c-3.9 13.1-25.6 16.3-24.1 3 5.9-48.7-45.4-21.2-16.6-44.5 53.8-43.6 40.2-4.2 30.4 27.7-3.9 12.6 13.8 2.1 10.3 13.8zm122.7-52.8c-29.6 13.9-68.6 27.3-98.5 41.8-.9.4-1.8-.6-1.3-1.4 29.7-50.7 79-70.4 122.9-85.1l.7-.1c4.9-.5 60-5.7 74.1-5.9.8 0 1.3 1 .8 1.6-16.7 20.3-77.2 39-98.7 49.1zm759.7-490.8c.8-.7 2 .2 1.6 1.1-15.1 37.9-50.2 78.4-78.7 100.8-14.9 11.9-45.1 27.5-66.9 30.3-.9.1-1.5-.9-.9-1.6 20.2-25.3 113.5-104.7 144.9-130.6zm-133.4 349.5c1.1-.4 2.3.3 2.6 1.5 1.4 6.6 4.3 26-10.9 29.6-6.6 1.5-160.2 22.1-191.7 21.2-1.2 0-1.3-1.7-.2-2 27.5-6.1 157-35.2 200.2-50.3zM825 181.2c8.5-12.3 29-47 33-53.8a2 2 0 0 1 2-1l18.7 2.7c1.3.2 2.1 1.5 1.6 2.7-10 24.8-99.6 206.7-132.6 251.7-1.3 1.8-4.1.4-3.5-1.7 11.7-40.6 62.5-205.8 80.3-265.2.7-2.2 4-1.7 3.9.6-.4 17.2-1.7 45.8-5.2 63.2-.3 1.1 1.1 1.7 1.8.8zM756.8 52.4c.8-3 5-3 5.8-.1 3.2 11.2 8.2 27.4 11.7 28.5 5.8 1.9 24.6-35.2 34.4-48.9 1.3-1.8 4.2-.5 3.6 1.7-7.8 26.8-39.7 93.5-57.2 121.1a6 6 0 0 1-11.1-3.1c-.4-20 2.3-58 12.8-99.2zM677.4 223c2.9 27-1.7 70.5-3.3 84.7a2 2 0 0 1-3.4 1.2c-12-12.1-57.5-50.5-63.3-73-.6-2.4.1-5 2-6.6 10.8-9 28.6 30.6 43.1 30.1 13-.5 14.7-22 19-36.9.9-3.1 5.5-2.8 5.9.5zM605.3 98.1c20.9-1.8 14.3-39.8 19-39.6 26.8.9 12.9 112.8 27.7 166.9.5 1.6-1.2 3.1-2.8 2.3-31.8-14.4-115-161-99.9-164.2 7.7-1.6 44.9 35.5 56 34.6zm-94.4 103.1c-2.2-6.6-6.3-18.8-10.1-31.9-.6-1.9 1.8-3.4 3.3-2 46.6 42.8 158.8 193.6 192.5 239.4.7 1-.6 2.2-1.5 1.3-11.1-10.7-24.9-21.8-33.6-31.1a405.9 405.9 0 0 0-51.5-46.6c-16-12.3-109.3-99-126.6-123-.9-1.2-.1-2.9 1.4-3.1 6.2-.8 14.7 1.7 22 2.3 2.9.2 5.1-2.6 4.1-5.3zm-93.1-72.7c1.8 7.3-9 18.2-20 11-27.3-17.7-82.4-86.7-99.1-108-.7-.9.4-2.1 1.4-1.4 24.7 18.6 114.1 83.4 117.7 98.4zm-285.1 8.9c9.8 3.1 22 10.7 26.2 21.2 1.9 4.8-2.7 9.7-7.5 7.9a61.6 61.6 0 0 1-26.9-18.3 6 6 0 0 1 .7-7.9l1.6-1.6a6.2 6.2 0 0 1 5.9-1.3zM35.4 307.8a975 975 0 0 1 9-21.4c.3-.6 1-.8 1.5-.4 4 3 19.5 14.5 24.8 20.1a1 1 0 0 1-.5 1.7c-9 1.8-26 2.6-32.9 2.8-1.5 0-2.5-1.5-1.9-2.8zm35.7-45l-8.6-21c-.3-.8.5-1.7 1.3-1.3 14.9 7 98 46.1 121.8 61.4.9.6.4 1.9-.6 1.8-40-3.5-108.2-37.8-113.5-40.5-.2 0-.3-.2-.4-.4zm69.4-36.7l-16.1-38.5c-.4-.8.5-1.7 1.4-1.3a8212.7 8212.7 0 0 0 330.1 151.3c3 1.3 2 5.8-1.3 5.6-173-10.3-307.7-112.2-313.7-116.8-.3 0-.4-.1-.4-.3zm315.3 179a1396.5 1396.5 0 0 0-196-10.8 1 1 0 0 1-.8-.4 288.2 288.2 0 0 0-36.8-41.2c-.7-.6-.2-1.8.7-1.7 51.5 2.9 176.8 35 233.8 50.2 2.3.7 1.6 4.2-.9 3.9zm39.2-19.4l7.4-4.1a3 3 0 0 0 1-4.5c-2.3-2.8-5.6-7.1-7.6-10.3a3 3 0 0 1 2-4.5c31.7-6.4 28.7 40.4-2.4 28.8-2.3-.8-2.5-4.1-.4-5.4zm56.5 94.5a2733 2733 0 0 0 28.5-21c1.1-.8 1.1-2.6-.1-3.3a410.5 410.5 0 0 0-32.2-17.2c-2-1-1.1-4.1 1.2-3.8l105.5 14.7c2 .3 2.4 3 .5 3.8C617.5 470 567 479.5 552.3 482c-1.1.2-1.6-1.2-.8-1.8zM532.4 406s21.7-15.6 15.2-32.1c-7.2-18.2-80.2-64.9-114.7-86.2-2.1-1.3-.5-4.5 1.8-3.6 66.6 27.7 205.9 107.7 256.4 142.6 1.8 1.2.6 4-1.5 3.6-31.3-5.7-135.8-24.7-157.2-24.3zm187 13.3a438 438 0 0 1-12.8-56.4 3 3 0 0 1 .9-2.5 40.2 40.2 0 0 1 18-10.8 1 1 0 0 1 1.2 1c-.5 15.7-2 51.1-3.4 68.4-.2 2.1-3.3 2.4-3.9.3zM704 335.8c-2.8-42.7-12.8-183.3 20.1-259.6.9-2 3.9-1.3 3.7.9-3.5 41.6-.3 102.4 11.7 106.3 15.4 5.1 37.7-51.6 52-56.2a3 3 0 0 1 3.4 4.5c-34.8 54.2-57.3 112-61.7 179.5-.1 1-.5 1.9-1.2 2.6l-24.6 23.3c-1.2 1.1-3.3.4-3.4-1.3zm207.7-128.7c1.6-1.2 3.9.6 3 2.4-11 24.4-73.1 107.8-99.3 136.6l-69.7 85.3c-1.4 1.7-4.1.3-3.5-1.8 11.9-39.3 135.3-196.9 169.5-222.5zm-99.8 310.3a100 100 0 0 1-20.7-21c-.5-.8.4-1.9 1.2-1.4 8.6 4.5 21.2 13.3 24.3 15.8.4.3.5.9.2 1.3l-3.6 5.1a1 1 0 0 1-1.4.2zM758.4 453c32 8.4 100.3 27 97.4 45.9-26.3-1.5-71.8-25.9-98.9-42.3-2-1.1-.8-4.2 1.5-3.6zm11.2-20.7c22.3-28.4 179.6-166.7 228.3-218l.4-.2c3.3-1.2 44-16 79.3-14.4a1 1 0 0 1 .6 1.7c-14.9 13.8-123.4 113.9-210.9 180.2-7 5.3-3.8 6.3 2.7 3.8 78.8-30.4 256.1-101.3 343.6-135 1.5-.6 3 .8 2.7 2.3l-8.9 38.5c-.1.6-.6 1.1-1.2 1.4-15.5 6.6-221.7 93.8-434.6 142.9-1.8.4-3.2-1.7-2-3.2zm454.5-68.4c-24.6 7.4-123.3 33.7-140.2 33.3 2.5-19.8 89.7-41.5 124.6-43.8 1-.1 2.1.1 3 .6l12.8 6.2c1.8.8 1.6 3.2-.2 3.7zM952.4 476.4l8.6 27.1c.2.7-.3 1.4-1.1 1.3a388 388 0 0 1-93.8-34.9c-.9-.5-.5-1.9.6-1.9 12.5.8 51.7 3.5 84.9 7.7.4 0 .7.3.8.7zm300.3-4.5a2 2 0 0 1 1.7 2.3c-.8 4.7-3.7 15.8-11.9 16.9-4.3.5-12.3-6.3-17.9-10.9a3 3 0 0 1 .7-5.1 56.6 56.6 0 0 1 27.4-3.2zm67.3-74.6a2 2 0 0 1 1.7 3c-6.9 12.4-24.2 20.5-34.5 25.8-51.1 25.8-248.1 33.3-248.1 28.2-.2-8.5 144.2-43.9 152.3-45.8 41.7-9.7 86-13.1 128.6-11.2zm-56.1-79.4c-4.2 1.2-19.6 5.1-32.3 6a2 2 0 0 1-1.5-3.4 58.3 58.3 0 0 1 28.1-14.1 2 2 0 0 1 2.2 1.1l4.1 9.1c.3.4 0 1.1-.6 1.3zm-200.6-43.6c-14.3-3.7 44.2-37.1 58-32.6-13.8 21.2-41.9 36.8-58 32.6zm125.9-99.2c-4 3.1-9.5-1-7.7-5.7 4.1-10.8 14-26.4 38.1-41.6 15.8-10 60.7-32.1 77.9-40.4 1.1-.5 2 .9 1.1 1.7-17.6 15-83.5 66-109.4 86z"/>
    <path d="M41.6 197.3c-1.8-14.7-24.5-28.8-41.5-39.6v52.1c19.7-1.1 40.4-4.5 41.5-12.5z"/>
  </g>
</svg>