<svg xmlns="http://www.w3.org/2000/svg" viewBox="0 0 1440 675.7">
    <g fill="#f4f4f4">
        <path
            d="M1178 585a43 43 0 00-26-7c-2 0-2 1-2 3a48 48 0 0010 17l4 1 14-9a3 3 0 000-5zm-679 42a648 648 0 00105-96 1764 1764 0 00-136 69c-1 1 0 2 1 2 13-1 33-4 48-10 2-1 3 1 2 3-10 10-25 20-22 32h2zm880-415c20 1 61-7 61-7v-39c-20 15-44 28-61 46zM136 467c-40-6-95-5-136-4v20c2 0 109-7 136-14v-2z" />
        <path
            d="M1440 93V0H0v151c28 6 84 27 80 54-3 21-50 20-80 14v143s97-18 180-12a211 211 0 0138 45l-1 1c-87-3-217 19-217 19v30l21 1h112l132 1 1 2-10 10c-47 24-229 39-256 44v37c37-5 90-16 132-20v2c-12 7-57 31-132 56v29a854 854 0 00106-49c116-61 241-121 377-114 15 1 27 3 35 6 2 0 2 3-1 3-33 2-137 10-226 49a612 612 0 00-174 118c-12 29-23 61-5 44 41-41 67-83 130-87 25-2-25 38-41 59-13 16 19 16 35 11 102-32 192-110 209-91-65 41-84 58-78 64h6c122-69 184-100 337-165a2 2 0 013 3c-35 53-131 123-149 154 5 8 50-51 71 16 9 22 35-72 50-93 2-2 5-1 5 2-2 23-4 105 10 63 15-45 9-73 26-121 1-2 3-2 4-1 22 40 55 150 48 182-1 2 1 3 3 2 41-29 5-116-17-162-1-2 1-4 3-3 47 41 82 206 159 171 14-6-6-19-23-41a2 2 0 012-3c22 7 45 28 49 21 4-8-103-85-134-121 0 0 0-5 4-8 47 28 105 72 128 75 4 0 6-5 3-7-18-14-43-39-68-57a1 1 0 010-2c75 2 152 64 217 100 12-5-73-65-65-69 3 0 54 19 77 24 1 1 2-1 1-1l-124-69c-8-5-12-25-13-30l1-1c13 1 130 8 173 15 48 8 165 33 148 49-85-14-222-33-225-25 70 27 230 81 317 152 2 2 7 1 9-2 8-13-119-85-115-94 4-7 53 18 85 18 6 0-25-29-35-37v-3c12-8 54 4 102 21v-41a566 566 0 01-131-38l1-2c29-2 113 6 130 8v-38l-147-2v-2c17-6 73-13 147-11v-35s-34-9-67-14v-2a178 178 0 0167-9v-52a1866 1866 0 00-175 26c40-27 175-64 175-64v-69s-129 34-198 56a2 2 0 01-2-2l8-39 1-1c42-23 179-87 191-91v-34a2868 2868 0 01-142 67c11-17 63-79 142-91zM294 587c-4 13-26 16-24 3 6-49-46-22-17-45 54-44 40-4 30 28-3 12 14 2 11 14zm122-53c-29 14-68 27-98 42-1 0-2-1-1-2 29-51 79-70 123-85 5-1 60-6 74-6 1 0 2 1 1 2-17 20-77 39-99 49zm760-491c1-1 2 0 2 1-15 38-50 78-79 101-15 12-45 27-67 30l-1-1c20-26 114-105 145-131zm-133 349l2 2c2 7 5 26-11 30a2400 2400 0 01-191 19c27-6 157-35 200-51zM825 181c9-12 29-47 33-54a2 2 0 012-1l19 3a2455 2455 0 01-131 254c-2 2-4 1-4-1l81-265c0-3 4-2 3 0a437 437 0 01-3 64zM757 52c1-3 5-3 6 0 3 12 8 28 11 29 6 2 25-35 35-49 1-2 4-1 3 2-8 26-39 93-57 121a6 6 0 01-11-3c0-20 2-58 13-100zm-80 171c3 27-1 71-3 85a2 2 0 01-3 1c-12-12-58-51-64-73l2-7c11-9 29 31 44 30 13 0 14-22 19-37 0-3 5-2 5 1zM605 98c21-2 15-40 19-40 27 1 13 113 28 167 1 2-1 4-3 3-32-15-115-161-100-164 8-2 45 35 56 34zm-94 103l-10-32c-1-2 2-3 3-2a2638 2638 0 01191 241l-34-31a406 406 0 00-51-47c-16-12-109-99-127-123-1-1 0-3 2-3 6-1 14 2 22 2 3 1 5-2 4-5zm-93-73c2 8-9 19-20 12a701 701 0 01-98-110c25 19 114 84 118 99zm-285 9c9 4 22 11 26 22 2 4-3 9-8 7a62 62 0 01-27-18 6 6 0 011-8l2-1a6 6 0 016-2zM35 308a975 975 0 019-22h2l25 20a1 1 0 01-1 2c-9 2-26 2-33 3l-2-3zm36-45l-8-21a1814 1814 0 01123 62c-41-4-109-38-114-41h-1zm70-37l-17-38 2-2a8213 8213 0 00330 152c3 1 2 5-1 5a629 629 0 01-314-117zm315 179a1397 1397 0 00-196-11 1 1 0 01-1 0 288 288 0 00-37-41 1754 1754 0 01235 49c2 0 1 3-1 3zm39-19l7-4a3 3 0 001-5l-7-10a3 3 0 012-5c31-6 28 41-3 29-2-1-2-4 0-5zm57 94a2733 2733 0 0028-21v-3a411 411 0 00-32-17c-2-1-1-4 1-4l105 15c2 0 3 3 1 3a490 490 0 01-103 27zm-20-74s22-16 16-32c-8-18-81-65-115-86-2-2-1-5 2-4 66 28 206 108 256 143 2 1 1 4-1 3-32-5-136-24-158-24zm187 13a438 438 0 01-12-56 3 3 0 011-3 40 40 0 0118-10 1 1 0 011 1l-4 68c0 2-3 2-4 0zm-15-83c-3-43-13-183 20-260 1-2 4-1 4 1-4 42 0 103 12 106 15 5 37-51 52-56a3 3 0 013 5 369 369 0 00-63 182l-25 23c-1 1-3 1-3-1zm208-129c1-1 4 1 3 3-11 24-73 107-100 136l-69 85c-2 2-4 1-4-1 12-40 136-197 170-223zM812 517a100 100 0 01-21-21l1-1a208 208 0 0125 17l-4 5a1 1 0 01-1 0zm-54-64c32 8 101 27 98 46-27-2-72-26-99-42-2-2-1-5 1-4zm12-21c22-28 179-166 228-218 4-1 44-16 80-14a1 1 0 010 1c-15 14-123 114-211 181-7 5-3 6 3 3l344-135c1 0 3 1 2 3l-9 38-1 2c-15 6-221 93-434 143-2 0-4-2-2-4zm454-68c-25 7-123 34-140 33 2-20 90-41 124-44l3 1 13 6c2 1 2 3 0 4zM952 476l9 27-1 2a388 388 0 01-94-35 1544 1544 0 0186 7zm301-4a2 2 0 011 2c0 5-3 16-11 17-5 1-13-6-18-11a3 3 0 010-5 57 57 0 0128-3zm67-75a2 2 0 012 3c-7 13-24 21-35 26-51 26-248 33-248 28 0-8 144-44 152-46 42-9 86-13 129-11zm-56-79c-4 1-20 5-32 6a2 2 0 01-2-4 58 58 0 0128-14 2 2 0 012 1l5 10-1 1zm-201-44c-14-3 45-37 58-32-13 21-42 36-58 32zm126-99c-4 3-9-1-7-6 4-10 14-26 38-41 15-10 60-32 78-41a5371 5371 0 01-108 88z" />
        <path d="M42 197c-2-14-25-28-42-39v52c20-1 41-5 42-13z" />
    </g>
</svg>