<svg xmlns="http://www.w3.org/2000/svg" viewBox="0 0 728 1371">
    <path fill="#CC2E44" d="M660.6 32.9c18.4 24.7 62.3 45 63.4 34.6 5-49.8-66.2-69.7-70.8-64.9-4.7 5-1.3 18.6 7.4 30.3zM90.1 590c11-6.7 78.4 9 156.2 8.8 102-.3 213.4-16.9 215.1-8.4 1.4 6.5-82.4 45.8-192.8 73.6C152.1 693.4 8.5 711.1 5 704.2-.7 693 72.1 601 90.1 590zM235.6 1301.8c-1.9-8 83.5-66 184.9-100.5 79.3-27 182-31.5 182-26 0 5.4-108.1 49.6-150.1 79.4-57.6 40.8-94.9 95.1-104.7 95-9.8-.1-110.5-41.5-112.1-47.9zM367.1 889.6c-7.8 11.4-17.6 18.7-10.9 29.5 19.6 31.3 78.7 2.5 64.2-30.3-8.4-16.9-35.3-23.3-43.8-20.9-6.5 1.8-4.4 14.3-9.5 21.7zM568.1 1075.4c-28.9 5.9-77.2 40.3-75.3 52 1.8 10.8 174.7 13 172.6.8-1.3-7.3-63-12.2-65-19.2-2.2-7.7 48.8-19.5 47.9-25.4-1-6.3-60.5-12.2-80.2-8.2zM728 1250.8c-34.8 17.3-95.4 39.6-106.7 52.1-8 8.8-49.1 64.7-41.3 66.3 4.1.9 97.3-65.7 148-88.5v-29.9zM728 1073.2c-6.2 3.5-18 8.9-18 10.9 0 1.1 11.9.4 18 .5v-11.4zM728 900.5c-20.1 5.6-58.9 14.9-58.9 19.8 0 1.6 39.2-1.1 58.9-1.6v-18.2zM728 793.5c-73.1 16.9-127.8 32.5-174.9 53.1-39.9 17.5-87.9 68.6-54.9 48.7 54.2-32.6 136-55.6 229.8-74v-27.8zM728 597.3c-63.7-7.9-147.2-16.6-148.4-11.8-1.3 5.1 84.6 26.7 148.4 38v-26.2zM728 450.6c-235.7-92.1-274-32.1-270.7-26.4 3.7 6.6 91.8 6.2 54 14.7-90.8 20.4-257.4 23-238.5 35.2 104.9 67.5 277.3 83.7 455.2 44.2v-67.7zM728 358.9c-60-44.1-206.8-122.5-187.3-121.7 10.3.4 207.9 66.4 182.4 47.9-150.5-109.4-368.2-144.6-369.3-138.4-.8 4.3 69 45.5 68.3 49.9-.8 4.6-180.8-32.3-180.8-18.4 0 10.3 134.8 73.2 202.3 97.8 19.1 6.9 200 73 284.4 106.2v-23.3zM728 683.6c-301.1-93.6-509.3 79.2-502.9 90.8 3.7 6.5 131.8-57.7 216.4-71.3 109.6-17.6 161.7-9.1 161.7-1.5 0 3.5-56.2 4.2-125.2 19.6-183.9 41.2-243.1 132.4-236.7 136.2 9.9 5.7 169.4-110 486.7-122.5v-51.3zM728 977c-257.6-50.1-533.6 79.2-563.2 107-43.6 41-67.6 138.2-60.5 142.5 6.3 3.8 78.1-54.6 131.2-88.5C392.6 1037.7 640.9 987.7 728 988.6V977z"/>
</svg>
