<svg xmlns="http://www.w3.org/2000/svg" viewBox="0 0 728 1371">
    <path fill="#CC2E44"
        d="M661 33c18 25 62 45 63 35 5-50-66-70-71-65-4 5-1 18 8 30zM90 590c11-7 79 9 156 9 102-1 214-17 215-9 2 7-82 46-192 74C152 693 9 711 5 704c-6-11 67-103 85-114zm146 712c-2-8 83-66 185-101 79-27 182-31 182-26 0 6-109 50-151 80-57 41-95 95-104 95-10 0-111-42-112-48zm131-412c-8 11-17 18-11 29 20 31 79 3 64-30-8-17-35-23-43-21-7 2-5 14-10 22zm201 185c-29 6-77 41-75 52s175 13 172 1c-1-7-63-12-65-19-2-8 49-19 48-25-1-7-60-13-80-9zm160 176c-35 17-95 39-107 52-8 9-49 65-41 66 4 1 97-66 148-88v-30zm0-178c-6 4-18 9-18 11l18 1v-12zm0-172c-20 5-59 14-59 19 0 2 39-1 59-1v-19zm0-107c-73 16-128 32-175 53-40 17-88 68-55 48 54-32 136-55 230-74v-27zm0-197c-64-8-147-16-148-12-2 6 84 27 148 39v-27zm0-146c-236-92-274-32-271-27 4 7 92 6 54 15-90 20-257 23-238 35 105 68 277 84 455 44v-67zm0-92c-60-44-207-123-187-122 10 1 208 67 182 48a833 833 0 00-369-138c-1 4 69 45 68 50-1 4-181-33-181-19 0 10 135 73 203 98 19 7 200 73 284 106v-23zm0 325c-301-94-509 79-503 90 4 7 132-57 217-71 109-17 161-9 161-1 0 3-56 4-125 19-184 41-243 133-237 136 10 6 170-110 487-122v-51zm0 293a877 877 0 00-563 107c-44 41-68 138-61 143 7 3 78-55 131-89 158-100 406-150 493-149v-12z" />
    </svg>