<svg xmlns="http://www.w3.org/2000/svg" viewBox="0 0 1440 893">
    <path fill="#3cb3e0"
        d="M24 0H0v18l1-1A122 122 0 0124 0zm1379 0a73 73 0 0136 17l1 1V0h-37zm-1 72c-11-6-34-13-40-26-5-11 8-19 14-28l7-16 2-2h-54a50 50 0 013 21c-3 19-6 65-31 64-19-1-25-20-37-30-19-17-23-36-12-55h-224c5 12-1 27 3 40 5 17 23 25 32 39 4 6 14 29 0 29-15 0-28-37-34-46-15-21-37-37-36-62h-44c5 6 9 13 5 17-7 9-21-14-27-10-5 3-6 11-11 14-7 3-17-7-22-11L880 0H731c11 4 24 6 21 13-3 9-33-2-46-5-23-6-41 10-64 9-6-1-18-3-16-13l3-4h-54c0 7-7 11-16 7-5-1-9-4-14-7H262c12 4 17 10 6 22-21 24-43 48-44 83 0 13-24-6-37-7-14 0-51 38-59 19-7-15 28-35 38-39 33-13 28-17 33-53 2-13 8-21 16-25H56c2 6 0 17 2 21 6 10 25 14 20 25-6 13-30 19-40 26-15 8-29 19-36 35l-2 4v104l22-2c5 0 9 5 8 11-5 14-18 22-30 30v90c14 6 13 28 8 43l-8 26v161h2c5 1 9 6 9 12v3l-3 6a109 109 0 00-8 12v87l23 24c7 9 27 29 14 40-8 8-24 0-37-10v145h1440V748c-14 10-29 18-38 10-12-11 8-31 15-40l23-24v-87a75 75 0 00-6-9 8 8 0 01-2-4v-2a8 8 0 017-9h1V471c-7-27-12-54 0-80v-55c-14 25-48 48-48 76 1 12 8 23 12 34a219 219 0 0111 54c2 24 3 105-38 64a97 97 0 01-28-59c-1-16 6-28 12-43a86 86 0 002-47c-3-11-11-22-3-38 8-18 48-28 41-75-5-31-53-45-19-66 14-8 33 6 43 16a78 78 0 0115 17v-60c-19-3-39 5-42-20-2-10 3-19 2-29 0-13-6-20-14-29-8-10-18-22-30-27-6-2-9-9-7-15 2-4 5-8 11-10 18-7 32 8 41 22 12 17 14 36 22 54 5 12 10 18 17 21v-65l-2-4c-7-16-21-27-36-35zM0 195v-27c7 9 9 21 0 27zm0 349v-65l1 4c8 18 18 44-1 61zm1111 153c-2-15-19-27-15-41 3-16 19-24 30-33 10-8 19-23 31-28 6-2 24-2 25 6 2 10-23 30-28 38-13 22-13 47-14 72 0 12-19 50-34 37-19-17 7-34 5-51zm-118-48c-12 21-2 43-10 64-2 6-8 17-16 12-7-4-3-17-1-23 3-10 7-19 5-29 0-8-6-18-4-26 2-9 11-12 18-16 10-7 18-31 26-25 7 7-12 32-18 43zm15 66l-1 1c-2 2-6 4-8 1-4-5 3-16 8-17 7-1 4 11 1 15zm-58-94c-19 7-39-3-17-20 9-8 21-12 31-20a92 92 0 0028-40c9-22 12-47 20-69 2-6 9-9 15-6v1c22 14 16 50 9 70a149 149 0 01-86 84zm-390-61l13 5c16-1 50 58 67 70a234 234 0 0090 32c5 1 7 7 2 10-21 12-73 2-87-3-39-13-88-72-85-114zm-230-59c1 9 10 42 12 64 0 10-13 13-16 4-6-16-7-36-9-51-4-23-10-46-8-70 1-8 2-22 8-29 2-2 23-15 25-8 5 13-4 26-8 38-4 16-5 36-4 52zm1-99c-29 2-44 17-50 45-2 11 1 76-25 59-17-12-6-54-2-68 7-27 18-49 19-78 1-17-7-80 17-86 37-9 11 78 29 92 10 8 36 2 41 17 5 16-19 18-29 19zm-45 271c-3 7-11 23-21 16-7-5-3-43-3-52 0-7 5-36-4-39-12-4-17 20-22 31 0 2-4 3-5 0-15-28 14-79 39-91 28-12 26 28 22 46-7 28 3 60-6 89zM127 457c-2-11-13-18-17-28-6-12-13-29-5-42 10-15 23-8 29 4 9 16 9 21 27 19 11 0 19 2 19 14 1 13-4 32-9 44s-9 36-20 44c-21 16-27-10-27-26-1-10 4-20 3-29zm-65 8c-10 8-18 3-22-7-7-20-9-54-3-74 8-28 39-38 54-62 8-13 8-36 20-47 13-13 16 6 17 17 0 17 1 37-11 50-10 11-25 14-34 25-11 13-13 38-13 55 0 14 4 34-8 44zm120 150c7-13 14-13 19 0 5 11-3 22 4 32 8 9 24 6 31 15 10 11 2 33 3 46 2 12 11 25 9 37-6 26-38 7-45-11s-10-40-15-59c-4-16-14-44-6-60zm40-88c2 26-16 69-28 22-12-51-2-113 18-161 17-41 26 12 18 31-7 14-15 24-16 40-1 23 7 45 8 68zm169-143h6c16 22-22 78-16 113 6 30 30 59 31 89a8 8 0 01-11 8c-65-25-53-175-10-210zm496-195c-7 4-15 5-23 7-9 3-7 5-16-1-14-8-28-15-44-13-18 3-34 12-50 20-8 4-18 10-28 8-8-3-16-13-12-21 5-10 24-9 33-12 16-4 30-13 47-17 29-6 52 4 79 12 10 3 29 8 14 17zM871 89l1-2v-1a8 8 0 019-3c12 4-18 28-10 6zm115 136c-10-5-16-14-25-23-17-15-33-19-52-28-8-4-14-11-13-19a10 10 0 015-8l3-2a10 10 0 015-1 63 63 0 0144 14c13 10 21 24 31 38 5 7 10 14 11 23 0 4-4 8-9 6zm25 126c-1-5-2-14 5-13 10 1 8 26 7 32-3 12-12 20-17 31-3 8-3 14 1 22 4 6 12 16 8 24-2 5-8 4-11 8a14 14 0 00-3 4c-2 5-8 3-8-1l2-20c0-12-6-23-7-35-1-14 14-22 21-33 5-7 3-11 2-19zm28 92c-11-8-22-29-17-42 5-11 11-18 13-31a311 311 0 00-5-105c-1-7-9-24-5-31 11-16 31 21 34 29 19 44-2 87-5 131-1 10 8 67-15 49zm19 23c5-10 19-14 25-24 12-20 8-48 5-70l1-5a8 8 0 0115 1 82 82 0 015 51c-3 18-11 32-21 47a75 75 0 00-11 41c-1 17 1 38-9 53-7 12-12 6-13-5 0-17 5-33 4-50 0-12-6-28-1-39zm45-145c-1 7-3 20-10 12s-5-28-4-37c1-11 3-22-2-33-6-15-21-29-33-39-7-6-30-17-32-26 0-1 0-3 2-5a13 13 0 0118-2c13 9 41 30 50 41 19 25 17 59 11 89zm-108 18c-2 6-7 26-14 28-6 2-5-8-5-12 1-28 13-49-4-75-7-11-33-29-27-45 4-9 16-5 23 0 10 7 14 18 21 28 15 26 15 49 6 76zm-68-121l-2 1c-7 3-15-9-11-15s14-1 15 5c1 3 0 8-2 9zm-12 31c5 23 31 34 40 56 6 14 9 29 10 45 1 20-3 42 4 61 4 13 23 34-4 27-10-3-12 3-18 5a4 4 0 01-6-4l2-40c-1-17-2-35-7-52-9-29-28-50-47-74-11-13-16-41-2-54 19-16 25 19 28 30zM440 491c-21 14-15-71-14-80 2-16 8-28 16-42 9-17 12-34 17-53 4-17 12-33 33-33 15 0 22 10 12 22-8 10-16 16-17 31 0 19-4 33-14 50-13 20-25 39-28 63-1 9 4 36-5 42zm70-114c4-4 11-1 11 4-2 37-13 75-8 111 3 21 20 39 20 59-36-4-44-55-49-85-5-32 2-67 26-89zm232 49l2-2c1-2 5-3 7-1l3 3c2 3 3 14 0 16-4 3-6-2-8-4-3-2-7-9-4-12zm13 30c12 7-6 20-13 22-16 3-33-24-18-33 10-5 9 0 13 6 5 9 12 1 18 5zm-22 37a2 2 0 012 0c20 2 40-6 46-27 5-19-2-31-8-47l2-4c15-5 30 31 31 40 0 24-10 49-37 52-8 1-29-3-36-10v-4zm35-117c-10-4-18-11-29-14a134 134 0 00-42-2h-1c-2-1-2-3 0-4 22-18 60-31 80-3 8 12 10 30-8 23zm-70-6c5-1 17 0 16 7 0 5-6 4-10 4-5 1-12 5-15-1s5-10 9-10zm5 24c8-4 28-8 27 5-1 14-28 24-33 38-4 12 9 38 1 46-8 7-20-3-22-10-3-9 1-19 3-28 3-19 6-40 24-51zm-27 98l4 3c18 6 28 27 46 33 27 9 52-9 79-8a6 6 0 011 3c-20 43-132 22-130-31zm96 75c2-18 33-11 45-21 7-6 26-23 36-14 8 7-8 21-13 26-11 12-24 15-40 20-6 1-26 11-30 3l2-14zm58-52a3 3 0 01-4-3c1-26 10-53 4-78-5-20-35-41-18-59 52 8 69 139 18 140zm-38-191c-9-4-34-14-25-29 10-16 43 1 52 10 57 58 72 109 62 122a4 4 0 01-6 0c-12-14-29-78-83-103zm58-43a9 9 0 0110-2l4 2c17 11 36 47 44 64 9 19 19 55 15 69-1 5-7 4-8 0a166 166 0 00-29-68c-10-13-52-45-36-65zm11-38c-2 10-8 10-15 5-13-10-19-18-36-19-9-1-30 4-36-5-6-10 7-15 15-15 8-1 18 2 27 5 11 3 21 0 32 0 7 0 13 0 14 8 1 5 0 16-1 21zm-28 28c4 8-3 13-11 12-8 0-13-8-21-10-12-3-25 1-38 1-11 1-7-2-12-9-7-9-29-8-39-11-9-2-14-7-6-14 7-6 18-7 28-7 11 0 19 10 29 16 17 10 61 1 70 22zm-126 10c11-2 27-7 34 6 2 4 0 8 1 12 0 4 2 6 4 10 5 9-5 10-14 9-11-1-18-5-29-3-14 2-19 8-25 20-6 11-15 33-30 33-16 1-10-9-9-18 0-12-19-16-18-27 1-6 13-12 17-15l20-14c15-8 33-9 49-13zm-39-42c-24 3-47-6-71 1-22 6-34 20-49 36-7 8-19 17-22 0-4-18 17-33 30-40 23-13 56-37 83-29 9 2 16 7 25 8 7 1 14-2 21 4 14 12-7 18-17 20zm-100 52c24-19 43-36 73-31a7 7 0 012 13l-11 8c-12 11-39 21-48 40-10 19-16 69-29 62-1-9 4-30-1-37-6-7-18 1-27 1-37-1 36-52 41-56zm-27 89c-9 7-10-10-5-14 7-6 9 10 5 14zm-7 41c10-12 26-17 39-26 14-10 20-23 25-39 4-11 16-17 21-2 5 11-3 25-8 34a59 59 0 01-27 25c-20 9-27 10-26 34 1 28 6 50 27 70 5 5 44 44 20 42-8-1-17-11-25-14-7-4-15-4-22-6-20-7-17-28-20-46-4-23-23-50-4-72zm75 95l-10-16-19-26c-5-10-15-38 5-39 19-2 9 27 10 38 2 16 20 25 19 41 0 3-3 4-5 2zm1-76c2-16 5-37 18-49 6-5 39-21 41-6 1 7-14 22-18 27a81 81 0 00-15 42c-1 20 16 51 21 61 1 2 0 4-2 4-8 1-16-2-20-5-22-18-29-44-25-74zm22 108c3 1 3 11 2 17a4 4 0 01-7 3c-7-6-3-23 5-20zm-3 40c3-5 7 0 11 2a93 93 0 0031 14c12 3 24 5 36 10 10 4 26 10 31 20 8 14-17 16-25 14-11-4-21-14-33-18-13-6-27-11-39-20-5-3-17-14-12-22zm17-40c0-3 3-5 5-3 23 23 74 13 97 37 2 1 1 4-2 5-47 7-92-4-100-39zm134 57c90-9 113-79 116-157l-1-9c0-7 13-9 17 2 24 65-49 198-154 183 0 0-35-12 22-19zm34 35c12-1 27-1 36-9 6-4 11-12 16-18s12-25 22-27c1 0 3 1 3 3 1 8 6 8 14 8a3 3 0 013 4c-1 10-13 14-20 21-9 8-14 20-25 27a86 86 0 01-51 11c-12 0-48 2-47-9s39-11 49-11zm92-79c2-12 23-27 29-39 7-12 10-58 21-65 17-12 22 19 21 31-3 24-21 53-39 70-11 10-37 26-32 3zM747 163c-15 6-33 4-47 12-10 5-14 14-26 15-20 2-41-12-61-14a99 99 0 00-53 11c-12 7-22 21-35 25s-25-5-22-19c2-12 16-21 27-25 50-20 107 1 158-13 18-5 38-12 57-9 17 3 18 11 2 17zm-128-28c-28-2-56-6-83 0-21 6-34 20-51 33-7 5-23 14-29 3-7-11 6-19 13-25 28-21 57-41 94-36 18 2 35 6 53 9 5 0 12 2 12 9 1 9-9 7-9 7zM498 240c6 11-13 21-21 26-14 8-32 15-40 30-7 15-3 33-8 48-5 11-17 26-31 22-15-4-11-22-8-33a228 228 0 0140-76c8-10 18-24 32-26 9-1 31-1 36 9zm-87 263c11 8 7 27 20 28 19 1 17-30 29-39 15 20-6 70-5 96 0 9 1 17 4 25 1 5-3 9-7 6a5 5 0 01-2-2c-19-39-37-69-39-114zm42 159a5 5 0 014-1l2 1c29 16 47 40 73 60 29 23 65 23 94 41a5 5 0 011 8c-41 31-156-61-176-103a5 5 0 012-6zm31-81c9-54 44 44 65 66 22 22 56 40 85 56 5 2 3 10-3 9-63-5-159-66-147-131zm211 118c5-10 27-2 35-4 11-1 16-8 25-14 13 0 24 5 36 7 14 2 34 2 47-1a64 64 0 0034-19c12-13 21-32 41-32 7 0 19 5 15 14-2 6-12 4-17 4-29 3-24 38-45 53-35 24-71 3-108 7-7 1-76 12-63-15zm187 24c13-15 31-57 57-49 9 39-36 80-63 102-39 34-96 27-147 18v1c-17-1-41 0-53-13l-1-2a5 5 0 010-5c13-21 81 3 101 4 46 2 77-21 106-55zm143-13c2-17 11-33 12-50 2-23-12-48 11-63 19-11 44-17 50-42 6-24-9-69 30-66l10 1c1 15-7 21-12 33-9 24-3 45-24 63-20 18-37 27-39 57-1 19-1 76-27 78-6 1-11-5-11-11zm105-511c20-3 18 22 18 34 0 17 8 30 10 46 4 20-3 39-4 59-2 22 4 43 2 64-1 10-8 54-25 50-14-4-6-47-6-57 1-18-4-35-4-53 0-12 9-23 11-35 4-26-9-50-14-75-3-12-4-30 12-33zm-11-34l1-5a5 5 0 016-4c7 1 9 13 6 19-7 16-16 2-13-10zm89 339c3 25 12 93-36 71-39-19 0-115 5-129 10-29 10-57 11-87 1-11-1-53 18-52 19 2 21 43 22 56 0 48-25 93-20 141zm11 139c13-17 11-37 12-57 1-15-3-36 9-48 16-17 31-1 34 17 5 26 4 63-9 86-11 18-30 29-44 44-14 16-25 34-38 50-9 10-12 12-19 0-23-42 34-66 55-92zm52-185c-2 15-18 61-28 24-10-34-4-72 21-97 11-11 34-27 32-46-2-24-42-29-46-55-4-25 14-31 28-14l30 40c9 11 21 22 26 35 11 26-22 34-39 44-28 15-21 41-24 69zm-13-127c10-5 12 9 8 17-3 6-5 9-12 6-8-4-2-19 4-23zm-59-312c8-4 18-1 20 8v1c4 16-5 26 8 41 17 20 40 33 52 59 10 23 6 48-4 71-6 12-20 43-36 44s-9-25-7-33c9-38 7-75-18-107-12-14-36-28-39-47-4-17 12-29 24-37zm5 184c-1 16 10 59-6 70-15 10-24-13-27-24-3-15-1-31-3-47-4-22-16-42-28-61 0 0-11-14-4-24 6-10 22-5 31-1 35 17 39 53 37 87zM1088 28l11-18 7-5c12-4 25-6 36 4a57 57 0 0112 54c-5 16-19 20-28 32-8 10-5 26-13 35-7 8-17 8-21-3-3-9 4-18 6-27 4-15-1-28-7-42-4-10-10-20-3-30zM946 44c6-22 30-4 39 6 14 14 25 34 33 52a83 83 0 0034 37c12 8 48 22 50 39 3 20-57-8-68-11-12-2-22-5-26-17s1-22-7-33c-14-20-63-43-55-73zm-93-21l3-2c13 1 20 8 31 16 19 14 20 37 31 57 11 21 35 20 54 31 9 6 27 27 28 40a3 3 0 01-2 4h-2c-7-4-15-14-20-17-10-9-20-16-33-21l-30-9c-14-6-10-17-13-30a107 107 0 00-46-65c-1-1-2-3-1-4zm-87-3l22-9c12-6 23-1 32 8l25 26c5 6 7 7 7 12a8 8 0 01-9 9c-12-2-28-10-35-14-14-7-27-20-42-26-3-1-3-5 0-6zm-89 23c9-43 79 20 94 25 17 6 37 4 54 11 12 5 20 15 30 23 6 5 24 15 24 24-2 19-23 2-28-5-9-13-19-24-36-27-15-2-30 1-45-4-18-7-35-14-53-19-12-4-44-10-40-28zm1 51c8 3 16 8 24 9h25c14 0 25 2 36 8 18 11 38 3 56 10 2 10-10 16-17 20-15 9-30-8-44-13-24-10-48 6-73 8-4 0-22 0-24-4s9-9 7-16c-1-6-8-8-13-12-4-3-11-10-5-15s22 2 28 5zm-88-61c18-2 48-2 59 15 6 8-26 31-36 35-28 10-60-1-89 0-38 1-63 23-93 42-15 10-44 21-43-8 1-33 50-51 76-60 19-7 40-9 61-12 22-3 43-10 66-12zm-207-8c11-16 38-4 53-10 17-6 26-13 44-12 13 1 38 2 29 19-8 13-15 4-27 3-29-2-45 26-70 30-17 2-43-10-29-30zm36 144c5-1 10 4 10 9l-2 15a6 6 0 007 6c9-1 22-3 24 4 4 11-42 20-50 26-23 18-23 44-32 69l-17 41c-4 10-6 24-17 9-11-17-19-62-1-70a9 9 0 019 0 6 6 0 007-2c13-18 12-54 22-72 10-16 21-33 40-35zm-47-89c3 9-5 12-8 19-8 19-1 29 2 49 4 20-5 25-18 37-15 14-21 28-30 45-16 27-62 22-49-15 11-30 41-45 54-73 10-20-4-63 23-71 8-3 23 0 26 9zm-105 34c3-20 2-41 13-59 8-12 25-14 33-25 10-16 29-21 39-13 18 17-39 34-49 63-7 20-12 101-40 80-17-12 0-28 4-46zm-23 79c13-1 11 22 7 30-10 21-9 11 4 29 15 21-11 95-38 92a8 8 0 01-7-9 88 88 0 0111-34c4-9 21-27 17-38-4-13-16-7-16-25 0-9 12-44 22-45zm-88-5c7-23 18-43 45-45 19-1 35 14 14 24-15 7-26 3-31 23-8 29 13 60 4 89-8 23-28 31-24 58 1 13 14 43-4 47-4 0-8-1-9-5-15-30-12-61-2-93s-4-65 7-98zM25 175c-19-12 0-43 11-54 17-17 40-27 55-47 11-14 11-34 22-48a55 55 0 0125-15c31-5 24 48 4 61-12 8-27 12-37 23-12 13-18 31-27 45-9 13-34 48-53 35zm6 82c23-33 60-48 76-87 5-12 15-31 31-20 10 6 4 9 1 17-6 14-4 30-12 44-4 8-15 24-24 25-5 1-8-3-12-3-7 1-11 9-14 15-13 23-21 46-38 67a15 15 0 01-26-10c0-16 12-40 18-48zM15 667c-5-6-4-30-2-36 4-13 15-22 21-34 5-10 8-25 6-36-2-9-7-16-8-24-2-10-2-38 15-34 10 3 18 34 28 12 4-8 3-42 18-36 14 6 12 38 12 49 0 22 4 48-7 68-12 21-37 26-49 48-5 7-20 37-34 23zm58 193a20 20 0 01-28-6l-7-14c-3-12-8-46 0-56 18-23 36 27 44 53 2 9-1 18-9 23zm11-104c-16 5-22-33-21-43 0-22 16-41 33-54 14-12 29-20 34-39 6-23-1-54 14-73 8-11 30-11 30 7-1 6-5 6-7 11a35 35 0 00-6 21c0 30 17 73 1 101-11 21-36 7-52 20-13 10-12 43-27 49zm206 133a69 69 0 01-49-5c-26-12-34-34-50-55-16-20-41-28-55-50-8-12-16-41 0-51 12-7 18 5 23 14 9 16 15 33 32 42 34 17 87 17 94 63l2 5 10 18c5 7 1 17-7 19zm38-53c-14 0-12-21-16-32-4-9-7-15-16-21-8-5-21-2-26-11-6-11 8-48 22-49 13 0 15 20 19 29 9 24 30 25 31 51 1 11 4 33-14 33zm13-85c-8-10-16-29-20-42-11-27-22-66-9-95 7-15 11-17 27-11 10 3 16 6 25 7a10 10 0 019 14c-6 15-34 20-39 37-3 14 9 37 16 48 7 10 25 27 22 40-5 18-24 11-31 2zm14-67c-3-1 1-39 16-25 8 8-5 27-15 25zm19 162a11 11 0 01-10-13c2-10 7-20 12-29 6-10 8-15 10-25a8 8 0 0110-6c17 6 8 18 12 29 2 7 9 7 12 16 15 38-33 30-46 28zm79-90c-8 6-6 22-4 31 1 5-5 8-9 4-7-7-13-23-17-28-22-36-51-99-21-139 7-10 18-12 24 1 8 15 0 36 6 53 8 24 31 34 46 51 6 7 18 28 2 30-11 1-15-13-27-3zm187 55a273 273 0 00-40 16c-24 12-49 20-75 16-24-5-37-18-48-40-2-4-17-17-12-24 7-9 22 13 28 9 5-4 5-12 10-15 7-3 18 6 23 10a111 111 0 0049 18c16 1 30-4 45-7 9-2 23-3 29 5 7 7-3 10-9 12zm-13-76c12-11 76-3 84-1 14 3 28 2 42 1 8 0 76-2 58 20-14 18-51 3-68-1-28-5-61 4-84 4s-41-15-32-23zm154 110c-18 7-30 20-49 23-21 3-40-4-56-18-23-19-17-39 15-36 22 2 45 14 67 11 15-2 44-18 58-5 21 18-28 22-35 25zm122-14a103 103 0 01-34 12c-11 1-15-13-5-18 15-7 34-16 43-22 15-10 22-21 33-34 12-16 26-13 43-18 7-2 11-7 18-8 8-2 17 0 25 0 14 0 25-3 37-5 7-2 12 7 7 12-11 10-39 12-50 13-14 0-39 8-50 14a79 79 0 00-19 15 214 214 0 01-48 39zm168-7c-29 4-41 8-60 31-12 13-28 27-47 20-12-4-16-23-7-36 22-34 48-38 86-41 15-1 99-51 90-7-5 24-43 30-62 33zm119-12c-18 29-18 57-46 66-8 3-14-1-15-4l1-6c11-18 24-38 29-59 2-12-3-26 8-33 16-9 31 2 45-16 12-16 19-54 45-55 34-1 8 48-3 59-19 18-50 25-64 48zm212-27c8 9 3 43 0 55-3 9-8 16-12 24-2 5-8 7-13 5l-16-8a10 10 0 01-6-11c4-26 23-95 47-65zm-18-156c4-22 21-18 26 2 18 62-71 73-71 126 1 33 2 60-22 91-12 16-75 41-87 18-10-17 7-49 31-63 17-10 49-24 50-48 0-13-17-29-7-41 14-15 45-10 62-23 20-15 14-40 18-62zm-31-23a94 94 0 01-28 65c-9 10-23 23-38 15-13-8-2-16 5-24 21-24 35-68 27-99-4-18-19-25-27-41-8-13-3-34-1-48 2-17 4-57 21-67 19-11 15 25 14 35-4 28-10 53-1 81 10 28 28 52 28 83zm25-432c3 25-26 42-32 64-5 20 22 38 31 54 4 8 7 17-1 24-5 4-13 5-19 2-7-3-9-15-13-21-7-10-15-17-23-25-13-12-28-30-21-48 6-16 39-22 36-37-2-10-13-19-18-27a51 51 0 01-6-30c5-44 63 26 66 44z" />
    </svg>