<svg xmlns="http://www.w3.org/2000/svg" viewBox="0 0 1000 1000">
  <g>
    <path fill="#3cb3e0" d="M28.7 8.8C31 5.5 33.5 2.5 36.4 0H0v29.1c9.9-6.8 22.3-10.5 28.7-20.3zm899.9 942c-34.8 4.9-49 10.3-71.6 36.6-4.1 4.8-8.6 9-13.5 12.6H1000v-82.7c-10.1 24.3-50 30.5-71.4 33.5zM710.1 17.4c23.1 16.3 23.8 43.8 36.3 67.2 13.2 24.6 42.5 24.4 64.1 37.4 11 6.5 32.6 31.3 34 47.7.2 2-1.2 3.9-3.3 4.1h-.1c-.7.1-1.3-.1-1.9-.3-8.2-3.7-18-16.1-23.4-20.2-12.6-9.7-24.4-18.8-39.5-24.1-11.6-4-24-6.5-35.4-11.2-16.9-6.9-12.6-19.9-15.9-35.4a126.5 126.5 0 0 0-54.1-76.8c-1.8-1.3-2.3-3.7-1.1-5.4l.3-.4h-28.4c8.5 10.8 17.5 21.1 25.9 31.7 5.7 7.2 7.7 9.7 7.4 15.2a9.6 9.6 0 0 1-12.1 8.9A172.3 172.3 0 0 1 623 36.7c-16-9.9-29.7-27.3-46.6-35.6-.5-.3-1-.7-1.3-1.1h-376C180 12.1 167 34 145.8 40.8c-19 6.3-51.3-3.4-39-29.3 2.8-5.8 7.4-9.2 13.1-11.5H78.8C83 17.5 27.7 37.3 17 67.8c-4.8 13.8-8.5 50.7-17 75.5v50.3c14.7-16.4 31.6-31 40.9-51.2 11.2-24.4-5.1-75.6 27.5-85.2 9.2-2.8 26.9.1 30.7 10.7 3.7 10.9-5.7 14.1-9.1 22.6-9.4 23.2-1.6 34.8 2.5 59 4 23.2-6.5 29.5-22.5 43.7C52.4 209.5 45.8 226 34.4 246A41 41 0 0 1 0 266.7v32.9l2.3-.8c44.1-11.2 13.2 92.7 34 109 12 9.3 42.9 2.4 48.4 19.4 6.3 20-22.2 22.5-34.8 23.2C25.8 452 9.7 461.8 0 479.2v134.4c10.2 10.5 8 38.1 4.4 52.7-7.1 29 .3 60.8-4.4 90.4v75.8c1.2-.5 2.3-.8 3.5-.8 15.9-.6 18.5 23.2 22.8 33.8 11.6 28.1 36 29.9 37.5 61 .6 12.9 4 38.9-17 39.1-16.9.2-14.7-25-19.4-37.8-4.1-11.2-8.4-18.8-18.7-25.2a30.2 30.2 0 0 0-8.7-3.1v88.2l7.2 12.4h484.1a94.3 94.3 0 0 1-31.2-17.5c-27.3-22.8-19.9-47.1 17.1-43.5 26.3 2.5 53.8 16.9 80 13.2 17.9-2.5 51.6-20.6 68.1-6.2 25 22.1-33.1 26.6-41.3 29.9-16.9 6.6-29.4 18.2-46.2 24h249.9c-.6-3.8-.6-8.6-1-14.4-.1-1.3.1-2.5.6-3.7l4.5-11.3.8-1.7c26.8-39.6 57.6-45.5 102.6-48.8 14.8-1.1 90-44.8 104.7-24.5v-49.9c-8.2 13.6-19.8 24.4-30.1 15.1-22-19.8 8.8-40.3 6.2-60.5-2.2-17.3-22.6-32.4-18.2-48.8 4.3-18.4 22.5-28.1 36-39.1 2.1-1.7 4.1-3.7 6.2-5.8V581.5c-2.2 3.9-4.6 8-6.5 13-11 27.9-3.1 52.4-27.9 74.4-24.1 21.5-44.8 31.6-47 67.8-1.2 22.8-.5 89.3-31.3 92.2a12 12 0 0 1-12.9-13.2c2.1-19.9 12-38.6 13.9-59 2.5-27.6-14.6-56.6 13.2-74.2 22-14 51.7-21.2 59.2-50.3 7.2-28.7-11.2-82.5 35.6-78.7l3.7.6v-44.5l-.4-.1c-17.1-4-7.1-55.5-6.5-66.9 1-21.9-5.6-41.9-5.7-63 0-13.9 9.4-25.8 12.6-39.2v-32.8c-3.4-19.9-11.7-39.2-16.3-58.7-3.5-14.5-4.7-36 15-39.1l1.3-.2v-25.5c-8.5 14.1-17.5-.7-14.4-14.3l1-6.3a6 6 0 0 1 6.8-5.1h.1c2.8.5 5 2.1 6.5 4.4v-84a48.7 48.7 0 0 0-6.9 7.5c-8.8 12.4-5.6 30.7-15.3 42.1-8.1 9.3-19.8 8.5-24.4-4-4.1-11.2 4.1-21.5 6.9-31.6 4.9-17.7-.8-33.7-7.8-50-5.1-11.8-12.3-23.6-4.4-35.8l4.6-7h-70.6c-.3 7.3-.4 14.5 1.7 21.2 5.9 19.7 27.2 29 37.8 45.6 4.6 7.1 16.3 34.6-.6 34.6-17.7 0-32.5-44.4-40.1-54.9-12-16.2-27.5-30.3-36.2-46.5H680.4c11.3 2.9 19 9.8 29.7 17.4zM838 376.1c-2.2 6.3-8.2 30.9-15.9 33.2-7.5 2.4-6.5-9.7-6.3-15 1.2-33.2 15.1-57.2-5.1-88.1-8.5-13.2-39-35.3-31.5-53.4 4.7-11.6 18.8-6.2 26.6-.8 12.4 8.7 17.5 21.6 25.2 34 18.3 30.1 18.2 57.2 7 90.1zm18.8 13.7c-1.3-5.7-2.4-16.2 6.5-15.3 12.2 1.2 9.8 30.5 7.8 38.1-3.5 13.8-13.4 24-19.4 36.3-4.5 9.4-3.5 16.8 1.2 26 3.7 7.5 13.8 19.9 9.4 29.1-2.9 5.9-9.4 4.3-13.8 8.8a17 17 0 0 0-3.4 5.8c-2.2 5.1-9.7 3.1-9.3-2.3.6-7.7 1.6-15.5 1.7-23.1.4-14.7-6.3-27.2-7.7-41.3-1.8-17.3 16.3-26.6 24.7-39.6 5.9-8.7 4.5-13.1 2.3-22.5zm-535 247.6l15.9 6.5c19.4-1 58.8 68.8 79.8 83.1 23.3 15.7 72.4 34.9 106.8 37.9 5.9.5 7.6 8.5 2.4 11.3-25.7 14.1-86.8 3.1-104.3-2.9-46-16.1-103.5-85.2-100.6-135.9zm302.1 95.1c13.5-1 31.5-.6 42.5-9.8 6.5-5.6 12.4-15.1 18.2-21.6 6.5-7.2 14.5-30.1 26.1-32.2 2-.3 3.8 1 4.2 2.9v.2c1.2 9.8 7.4 10 16.7 10.3 2.2 0 3.7 1.9 3.5 4-1.3 11.8-15.9 17.5-23.8 24.7-10.9 10-17.3 24-29.7 32.5-18.5 12.6-39.7 13.8-61.3 13.5-14.2-.1-56.7 2.5-55.5-10.7 1.3-13.5 47.2-13.1 59.1-13.8zM557 714.1c-.1.2-42-14.7 25.6-22.2 107.1-11.6 134.6-94 138-186.3.1-4-.2-7.8-.6-11.7-.6-7.8 14.8-10.1 19.7 3 28.7 77.2-57.8 235.3-182.7 217.2zM179.2 555.9c-24.1 16.5-17.1-84.3-15.9-94.3 2.2-19.4 9.1-33.8 18.2-50.7 10.9-20 15.3-40.1 20.9-61.9 4.9-20.6 14.6-39.7 38.8-39.7 17.7.2 26 12 15 25.6-10.3 12.8-19.4 19.1-20.3 36.8-1 23.2-5.3 39.1-17.5 59.4-14.4 24-29.7 46.6-32.8 75.2-1.4 10.7 4.3 42.3-6.4 49.6zm84-135.5c4.7-4.3 12.3-.8 12.2 5.6-1.4 43.3-14.7 88.7-8.8 131.8 3.4 24.6 23.8 45 23.5 69.7-42.6-4.7-52.5-65.7-57.8-100.6-6-39 1.6-79.8 30.9-106.5zM538 328.1c.6 5.3 2.8 7.1 4.9 11.6 5.6 11.6-5.7 12.8-16.5 11.2-12.8-1.8-21.9-6.3-35.3-4.1-16.2 2.5-21.5 9.8-28.9 23.8-7.5 13.8-17.7 39.4-36.2 39.7-18.1.6-11.3-10.9-10.9-21.5.8-14.7-22.6-18.7-20.4-31.5 1.2-7.7 14.6-14.6 20-18.7 7.5-5.7 15.1-11.8 23.4-16.3 18.2-9.7 38.9-10.6 58.7-15.1 12.6-2.9 32.1-8.8 39.5 6.2 2.6 5 1.1 9.7 1.7 14.7zm-45.8 113.2c9.1-5.1 32.6-10.3 31.6 5.9-1 15.9-33.4 28.4-39.4 44.9-4.9 13.8 10.9 45.4 1 54.4-8.8 8.2-22.8-3.5-25.7-11.5-4-10.6 1.6-23.2 3.4-33.7 4-22.1 6.9-47.5 29.1-60zm-6-29.4c5.3-.8 19.4.4 19.1 8.7-.2 5.9-7.8 5.1-12.2 5.3-5.6.4-14.1 5.6-17.5-1.2-3.7-7.3 5-12.1 10.6-12.8zm52.3 66.7l1.7-1.9a7 7 0 0 1 8.9-1.8c1.4.8 2.8 2.1 3.6 3.6 1.9 3.5 3.1 17.1-.6 19.9-4.1 2.9-7.1-2.8-9.7-5.1-3.2-2.9-8.3-10.6-3.9-14.7zm15.5 36.2c13.4 8.2-8.2 23.4-16.3 25.4-18.1 4.3-39-28.5-21-38.5 11.2-6.3 10.9.2 15.1 7.5 5.8 9.7 14.3.9 22.2 5.6zm21-44.8c-.6-1.9.4-4 2.3-4.6 17.5-5.2 36 36.7 36.1 47.4 0 29.1-11.2 58.7-43.1 62.5-9.4 1.1-35-3.5-43.2-12.6-1.1-1.2-.8-3.1.5-4.1.5-.4 1.2-.6 1.8-.5 23.7 2.2 48-6.8 54.9-32 6-21.8-2.5-36.8-9.3-56.1zm-115 87.6l4.3 3.1c21.5 7.2 33.1 31.5 54.8 39 32.2 11 61.9-10.6 93-9.4.6 1 1.2 1.9 1.3 3.1-23 52-156.2 26.7-153.4-35.8zm113.2 89.3c2.5-22.5 39.5-14 53.7-25.6 8.7-7.1 30.7-27.5 43.1-16.3 9.4 8.7-9.7 24.7-15.3 30.9-13.4 14.4-28.9 17.9-47.2 23.2-7.2 2.2-31.5 14-35.6 3.5-.8-1.6 1.2-13.8 1.3-15.7zm68.8-62.6c-2 0-3.7-1.7-3.7-3.7.7-30.4 10.9-61.9 4.1-92-5.3-23.8-41.7-49-20.9-70.4 61.1 9.5 81.5 165.6 20.5 166.1zm-44.4-225.9c-10.6-4.9-40.9-17.3-30.1-34.8 11.8-18.8 51.6 1.6 61.6 11.8 68.5 68.9 86.1 128.8 74.1 144.5a4.7 4.7 0 0 1-6.7.8l-.8-.7c-13.7-16.2-34.8-92.9-98.1-121.6zm-19.5 34.3c9.8 14.2 12.3 35.3-9.2 26.7-11.8-4.7-21.2-12.8-34-16.2a166 166 0 0 0-50.2-2.9l-1.3-.2c-1.7-.8-1.9-3.1-.4-4.3 26.5-21.3 71.9-36.5 95.1-3.1zm-128.4-136c-28.5 3.4-55.3-6.6-84.1 1.3-25.6 7.1-40.1 24-57.5 42.9-9.1 9.8-22.5 19.7-26.3.2-4.3-21.9 19.9-39.1 35.7-48.2 26.6-15.1 66.6-43.3 98.5-34 10.4 3.1 19.3 8.2 30.1 9.4 8.2 1 16.7-1.8 24 4.5 17.2 15.1-7.9 22.3-20.4 23.9zm-117.6 61.8c28.3-22.9 50.5-42.4 85.8-36.9a8.5 8.5 0 0 1 3.1 15.6c-4.3 2.7-9.5 5.6-13.9 9.8-13.8 13.5-45.9 24.4-56.9 47.2-11.2 22.8-18.8 82.1-33.8 73.6-1.6-10.6 4.9-35.3-1.6-43.5-6.6-8.5-21 .6-31.9.4-44.2-.9 43.3-61.8 49.2-66.2zm-33.2 106c-10 8.5-11.6-12.6-5.7-17.1 9.1-7.3 11.4 12.1 5.7 17.1zm-7.7 48.7c12-14.1 31.3-20 45.9-30.9 16.5-12 24-27.8 30.4-46 4.5-13.2 18.1-21 25-2.5 4.9 12.8-4.1 29-10.4 39.7a69.7 69.7 0 0 1-31.5 29.7c-23.2 10.6-32.5 11.6-30.9 40.6 1.8 32.8 7.2 59.6 31.5 82.8 6 5.9 52.3 52.2 24 49.7-9.8-.8-20.3-12.6-29.1-16.8-8.7-4.1-17.5-3.7-26.2-6.9-23.5-8.5-20-33.4-23.5-53.7-5-27.9-27.2-59.5-5.2-85.7zm88.7 112.4c-4.9-5.6-8.1-13.3-12-19.1-7.1-10.4-15.6-19.4-21.6-30.3-6.9-12.2-17.9-44.9 5.9-46.8 22.5-2.2 10.6 32.7 12 45 1.9 19.1 22.6 30.4 22 48.9-.1 3.3-4.1 4.6-6.3 2.3zm1.9-89.9c2.5-19.3 5.1-44.3 20.9-57.8 7.7-6.6 46-25.4 48.8-8.2 1.3 8.5-17.1 26.3-21.2 32.8-9.7 15-17.7 31.3-18.1 49.6-.7 23.8 18.6 60.1 25.5 72.1 1.3 2.4-.2 5.4-3 5.4-8.9.1-18.4-2.8-23.1-6.6-26.8-21.6-34.6-52.5-29.8-87.3zm26.3 127.7c3.4 1.4 2.5 13.4 1.7 20.8a4.9 4.9 0 0 1-5.3 4.3c-.9-.1-1.7-.4-2.4-1-9.2-7.2-3.7-27.9 6-24.1zm-4.6 47.8c3.7-6.5 8.8-.4 13.4 2.8a112.2 112.2 0 0 0 36.8 15.7c14.7 3.7 29.1 6.9 43.1 12.8 11 4.7 30.7 11.6 36.9 22.8 9.1 16.8-20.4 19.9-29.7 16.8-14-4.7-25.6-16.2-39.5-21.5-15.9-6.2-32.5-12.4-46-22.8-5.7-4.3-20.3-17.5-15-26.6zm20.7-47.9c-.7-3.5 3.7-5.8 6.2-3.3 26.7 27.8 87.9 15.5 114.8 43.6 2.1 2.2.8 5.7-2.1 6.2-56.1 8.9-109.9-4.1-118.9-46.5zm319.1-158.6a194.9 194.9 0 0 0-35.1-80.6c-11.1-15.7-60.6-53.7-41.8-76.7 2.9-3.1 7.5-4.1 11.3-2.5l4.7 2.1c19.9 13.2 42.6 55.5 52.3 76.2 10.4 22.2 23.1 65.1 18 82.2-1.4 4.8-8.5 4.3-9.4-.7zM678.9 262c-2.2 11.2-9.4 11.8-17.9 5.3-14.4-11-22.5-20.3-42.1-22.5-10.6-1-35.4 4.9-42.6-5.9-7.5-11 8.5-17.3 17.1-17.7 10.4-.2 22.5 3.4 32.2 6.3 12.8 3.7 25 .6 37.9.4 8.5-.2 16.2-.2 17.1 9.3.8 6.1-.5 18.9-1.7 24.8zm-32.6 33.1c4.1 9.4-4.3 15.3-13.4 14.6-9.4-1-15.9-9.4-24.7-12-14.4-4.1-30.1 1.6-44.7 1.6-13.2 0-9.3-2.9-15-10.9-8.2-11.5-33.7-10.3-46-13.5-10.9-2.9-16.3-7.8-7.5-16.2 8.8-8.1 21.9-8.8 33.2-8.7 13.4.4 23.4 12 34.2 18.5 20.8 12.2 72.8 1.6 83.9 26.6zm-158.7-114c-11.2 6.2-16.5 16.8-30.3 18.1-23.8 2.2-48.4-14.4-72-16.8a115.3 115.3 0 0 0-63.1 13.2c-14.6 7.5-26.3 24.4-41.7 29.5-15 4.9-29.3-5.9-26.2-22.1 2.8-14.7 19.4-25.6 32.5-30.5 59.4-23.1 126.3 1.9 186.9-15 22-6.2 44.8-14.4 68.2-10.9 20.3 3.3 20.9 13.6 2.2 20.8-17.8 6.8-39.4 4.6-56.5 13.7zm-96.1-47.5c-32.1-2.9-66.3-7.7-97.9.4-25 6.5-40.6 23.1-60.1 38.1-8.8 6.9-27.2 17.3-35.4 3.5-7.2-12 8.2-22.6 16.3-28.7 33.4-25.4 67.5-49.6 111.6-43.5 21 2.9 41.5 7.8 62.3 10.4 6.6.8 14.6 2.9 15.1 11 .7 11-11.9 8.8-11.9 8.8zm-143 124.3c7.2 14-15 25.4-24.1 30.9-17.1 10-39 17.7-48.2 36.6-8.5 17.3-3.5 38-9.8 55.9-5.1 13.8-19.4 31.6-36.3 26.7-17.3-5.1-13.5-25.7-9.7-39.1 10-32.7 26.2-63.2 47.6-89.9 10-12 20.9-28.4 37.4-31 11-2 37.4-1.1 43.1 9.9zm-79.7 345.4c23.2 1.3 20.9-35.3 34.4-46 18.2 23.8-7.1 83.4-5.7 114 .5 10.5 1.7 20.5 4.8 30.1 1.7 5.2-4 9.8-8.7 6.8-1-.6-1.7-1.4-2.2-2.4-22.8-46.2-44.2-81.7-45.8-135.2 12.7 9.5 7.9 31.7 23.2 32.7zm26.8 155.2c1.5-.7 3.2-.8 4.7-.3l2.1.7c34 19.3 55.9 47.2 87.2 71.5 34.3 26.6 75.9 26.4 110.9 48 3.5 2.2 3.9 7.4.6 9.9-47.7 36.2-184.2-72.3-208.3-121.8a6 6 0 0 1 2.8-8zm35.8-95.7c11.2-63.7 52.9 52.2 78.1 78.5s65.6 47.6 100.7 66c5.8 3 3.3 12-3.4 11.3-74.8-6.1-189.1-78.1-175.4-155.8zm251.2 140.3c6.2-12.4 31.5-3.1 41.9-4.5 12.2-1.6 18.8-10 28.9-16.5 15.3-1 28.5 5.7 43.1 7.7 16.5 2.4 40 2.5 56.3-.8a75 75 0 0 0 40.3-23.2c13.8-15.1 24-38 48.5-37.5 7.5.2 22.5 5.9 17.9 16.2-3.4 7.5-14.7 4.5-20.9 5.1-33.7 3.1-28.7 45.3-53.5 62.5-41.7 29.3-83.5 4-127.5 8.8-8.4.6-90.5 13.8-75-17.8zm250-164.2c2.8-14 26.8-32.2 34-45.4 8.7-15.3 12.6-69.7 25.2-78.4 19.9-13.4 26.2 23.7 24.6 37.4-3.5 29-24.6 63.1-45.9 82.8-13.4 12.5-43.5 31.7-37.9 3.6zm70.1-146.3c-11.7-3.4-14 3.4-21.9 6.3a4.8 4.8 0 0 1-6.5-4.3c-.7-15.5 2.5-32.2 1.7-47.8-1.2-20.3-1.8-41.5-7.8-61.2-11-34.8-33.2-59.8-55.9-88.1-12.4-15.6-18.2-49-1.8-64 21.6-19.2 29.6 22.9 32.5 35.7 6 26.8 36.8 40 47.8 65.7 7.5 17.3 11 35.4 12 54.1 1.3 23.7-3.5 49.6 4.1 72.4 5 15.2 27.2 40.2-4.2 31.2zm-60-276.5c5.6-7.1 16.3-2.2 17.5 5.7.6 3.6 0 8.6-3.1 10.6-.6.4-1.2.8-1.8 1-8.8 3.5-18.1-10.3-12.6-17.3zM721 156.9a12 12 0 0 1 5.9-8.9l3.6-2.1c1.8-1.1 3.7-1.6 5.9-1.6 20-.4 35.9 3.3 52.4 16.4 15.1 12.2 24.7 29.1 35.6 45a66 66 0 0 1 13.3 26.9c.7 5.4-4.8 9.8-9.9 7.6-12.3-5.2-18.8-16.8-30.2-26.9-19.4-17.7-38.4-22.6-61.7-33.7-9.2-4.2-15.9-12.9-14.9-22.7zm-11.2 41.3c-7.7 4.5-17.9 5.1-26.3 7.8-11.2 3.7-8.5 5.6-20-1.3-16.3-10-32.8-17.7-52.2-15-20.9 3.1-40.3 14.1-59 23.2-9.8 4.7-21 12.6-32.6 9.4-9.7-2.8-19.7-14.7-14.4-24.7 5.9-11.6 27.8-11 38.5-14 19.3-5.1 36.3-15.6 56-19.7 34.2-7.2 61.6 4.1 93.4 13.2 12.6 3.6 35 9.9 16.6 21.1zm-19-119.4c.2-1 .7-1.9 1.3-2.7l.6-.8a9 9 0 0 1 9.9-3.3c14.5 4.9-20.4 33-11.8 6.8zM461 24.3C471.4-26.3 555.2 48 572.6 54c20.6 7.2 43.8 5.1 64.1 13.5 14.4 5.9 24.1 17.7 35.7 27.5 7.2 5.9 28.5 16.8 27.8 28.4-1.6 22.5-27.2 1.8-32.2-5.9-11-16.2-22.9-29.5-43-32.5-18.5-2.5-36 1.6-53.8-5.1-21-7.8-40.7-16.5-62.8-22.6-14.4-3.9-51.9-11.2-47.4-33zm.9 60.4c9.7 4.1 18.7 9.7 29.1 11 9.8 1.3 20-.6 29.9-.6 14.8-.6 29.5 3 42.3 10.4 20.6 12.2 44.8 2.9 66 12 2.4 11.5-11.3 18.8-19.7 23.7-18.2 10.4-36.3-9.4-52.5-15.9-28.7-11.6-57.2 7.1-86.3 9.1-5.1.4-26 .8-28.9-4-2.8-4.3 10.6-10.4 9.1-18.8-1.2-7.1-10.4-10-15.9-14.1-4.9-3.5-13.5-12-6.3-17.7 7.5-6.2 26.7 2.2 33.2 4.9zm-344.1 28.1c1.3-39.6 58.8-61 89.7-71.8 23.5-8.2 47.8-10.3 72.3-13.5 26.3-3.9 51.9-12 78.5-14.8 20.4-2.2 55.8-1.8 69.8 18.4 6.5 9.3-30.7 36.2-42.9 40.7-33.1 12.2-71.6-1.2-105.8 0-45.3 1.6-74.4 27.2-110.3 50.6-17.5 11.2-52.5 24.5-51.3-9.6zM84.3 375c-5.6 12.4-8.1 29-20.6 10.6-13.5-19.7-22.5-72.7-1.6-83.1 4.3-2.2 8-1.3 10.5.1 3.1 1.7 7 .7 9.1-2.1 15.5-20.8 13.5-64.2 26-85.4 11.1-18.7 25-39 46.8-41.8 6.9-.8 12.7 4.7 12.2 11.6-.2 5.7-1.8 11.2-2.5 16.8-.4 4 2.4 7.6 6.4 8.1a5 5 0 0 0 2.1-.1c10.7-1.9 26.4-4.3 28.9 3.9 4.1 14-50.3 24.1-59.8 31.6-27.2 21.6-26.9 51.9-37.9 82.1-6.1 16.4-12.7 31.7-19.6 47.7zm37 53.8h7.7c18.1 26.3-26.6 92.5-19.1 134.1 6.4 35.9 36 69.9 37.2 106.1a9.6 9.6 0 0 1-13.3 9.2C57 648.4 70.3 470.4 121.3 428.8zm-97 76.6c1-9.7 2.9-26.8 9.4-34.4 2.4-2.9 27.2-18.1 30.3-9.4 5.3 14.4-5.6 30.5-9.3 44.3-5.2 20.4-7 41.5-5.3 62.4.6 10.4 11.5 49.6 13.8 75.8 1 11.1-14.6 14.6-18.6 4.2-7.2-18.8-8-42.4-10.9-60.4-4.5-26.9-12-54.9-9.4-82.5zm37.9 359.4c-9.8-12.2-18.2-35-24-50-12.2-32.2-25.6-79-10.3-112.5 8.2-18.1 12.6-20.3 31.5-13.8 11.7 4 19 7.6 30.7 9.2a12 12 0 0 1 9.8 15.7c-6.3 18.7-39.8 24.5-45.3 43.8-4.7 16.8 10 44.3 18.7 57.7 7.5 11.8 28.9 31.3 25.2 47.6-4.9 21-28.5 12.2-36.3 2.3zm17.3-79.7c-4.3-.8.8-46 17.7-29.7 10.1 9.6-5 32.5-17.7 29.7zm21.8 192.3a13.3 13.3 0 0 1-11.7-14.6l.1-.6c1.8-12.4 7.8-23.8 13.6-34.5a99 99 0 0 0 12.2-30.4 9.7 9.7 0 0 1 11.6-7.3l1 .3c19.9 7.5 8.9 22.1 13 34.5 2.8 8.1 10.6 8.1 14.2 18.5 18.9 45.6-38.1 36-54 34.1zm93.9-106.8c-9.3 7.4-7.1 25.4-4.8 36.3 1.2 5.9-5.9 9.8-10.1 5.6-8.7-8.6-15.9-27.3-20-33.6-27.3-42.5-60.6-117.1-26-164.9 9.1-12.4 22.2-14.7 29.3.6 8.7 18.7-.4 43.1 6.3 63 9.4 28.4 36.9 40.1 55.4 61.3 6.6 7.5 21.2 33.1 1.9 34.8-12.9 1.1-17.6-14.6-32-3.1zM416.5 936a321.7 321.7 0 0 0-47.6 19.1c-27.8 14.1-57.5 23.8-88.7 17.9-28.4-4.9-44.1-20.4-56.9-46.5-2.8-5.6-20.4-20.9-13.5-28.7 8.2-10.4 26 15.6 32.8 10 5.3-4.1 5.9-13.5 11.6-16.8 8.5-4.5 21 7.1 27.8 11 17.9 10.9 37.2 19.9 58.2 21.5 18.7 1.3 35-4.7 52.9-8.2 10.4-1.9 26.8-3.1 34.6 5.9 7.9 8.9-3.6 12.5-11.2 14.8zm22.8-62.9c-27.8 0-48.4-18.1-37.9-27.5 14.7-13.2 90.3-3.7 100.3-1.6 16.2 3.5 32.6 2.2 49 1.6 9.4-.4 91-2.2 69.4 24-17.1 20.9-60.7 3.4-81.4-1-33.1-7-71.6 4.5-99.4 4.5zm83.7 43.1c0 .8-.1 1.6 0 0-20.1-1.2-49.6.6-63.5-15l-1.3-2.2a5.9 5.9 0 0 1 0-6.5c15.8-24.3 96.2 3.5 119.9 4.7 54.9 2.5 92.1-24 126.5-65.3 15.6-18.7 36.8-68.5 67.2-59 10.3 46.8-43.1 95-74.4 121.8-47.1 40.5-113.9 31.5-174.4 21.5zm351.9-61.3c17-.2 29.8-3.1 44.3-6.3 8.3-1.8 13.8 8.5 7.7 14.4-12.7 12.2-45.3 14.6-59 15.3-16.3.6-46.1 9.8-59.3 17.5a93.3 93.3 0 0 0-22.1 16.9 265.5 265.5 0 0 1-57.3 47.3 123.3 123.3 0 0 1-40.4 13.4c-12.4 1.8-17.6-15.5-6-20.6 18.5-8.3 40.6-19 51.2-26.2 17.9-12.4 26.6-24.6 38.8-40.9 14.1-18.7 31.5-15.1 51.2-21 8.2-2.4 13.4-7.8 21.6-9.8 8.9-2 20.3 0 29.3 0zm-64.7-83.3c-1-9.4-8.1-21.2-5.6-30.9 2.8-10.3 13.2-13.8 21.2-18.8 12.2-7.8 21.9-36.6 30.9-29.1 9.1 7.6-13.5 37.9-21.4 51.1-14.4 24.7-2.2 50.3-11.3 75.9-2.5 7.1-9.8 20-19.3 14.1-8.5-5.3-2.8-20.4-.6-27.5 3.6-12 7.8-22.2 6.1-34.8zm43.1 49.7l-1 1.2c-2.5 2.8-6.5 4.9-9.7 1.6-4.9-5.3 3.4-19.1 9.7-20 8.6-1.3 4.5 12.7 1 17.2zM887 610.6c-15.9 43.7-57.8 84-101.8 99.5-23.2 8.2-46-2.9-20.9-23.4 11.3-9.3 25.4-14.7 36.9-24a108.3 108.3 0 0 0 33.2-47.1c10.7-26.7 14.1-55.5 23.5-82.6 2.2-6.3 9.1-9.7 15.4-7.5.8.3 1.6.6 2.3 1.1l1 .6c25.5 16.8 19.2 59.8 10.4 83.4zm3-111.5c-12.6-9.7-25.4-34-19.3-49.7 5.1-13.2 13-21.2 15.3-36.6 3.4-21.9 2.8-45.4 1.9-67.7a298 298 0 0 0-7.6-57.2c-1.9-8.1-11.5-28.7-5.9-36.8 13-18.8 36.3 25.4 40.1 34.3 21.9 51.9-2.8 103.3-6.3 156-.8 12.1 9.8 79.1-18.2 57.7zm84-28.9c-4.1 21.2-14.1 38.1-25.6 56a89.8 89.8 0 0 0-13.2 49c-.6 19.9 1 45.4-10.3 63.1-8.5 13.5-15 7.1-15.3-6.3-.7-19.9 5.3-39.8 4.9-59.9-.2-13.4-7.2-32.8-1.6-45.6 5.6-12.4 22-17.3 29.5-29.1 14.7-23.4 9.3-56.5 6.3-82.7a9.8 9.8 0 0 1 9-10.5 10 10 0 0 1 9.6 5.5 95.5 95.5 0 0 1 6.7 60.5zm-7.7-116.5c-1.6 8.5-3.1 23.8-12 14.4-7.8-8.7-5.6-32.7-4.7-43.1 1-13.5 3.7-26-1.8-39.1-7.6-18.7-25-34.3-40.1-47.1-7.6-6.5-34.6-19.9-37.3-29.9-.6-2.3.2-4.6 1.9-6.6a15.6 15.6 0 0 1 21.2-2.7c16.1 11.5 49.4 36.3 59.5 49.3 23.3 29.9 20.2 69.3 13.3 104.8zM780.2 26.1c6.6-26.2 35.4-4.9 46.2 6.3 16.7 17.3 29.1 40.3 39.5 61.9 9.7 20 21 32.2 40 44.3 14.1 9.1 56.6 26.3 59.4 45.9 3.5 24.1-68.1-9.7-81.4-12.6-13.5-2.9-25.4-6.3-30.3-20.9-4.5-13.4.6-25.7-8.1-38.4-16.8-24.4-74.6-51.5-65.3-86.5z"/>
  </g>
</svg>