<svg xmlns="http://www.w3.org/2000/svg" viewBox="0 0 1000 1000">
    <path fill="#3cb3e0"
        d="M29 9l7-9H0v29c10-7 22-10 29-20zm900 942c-35 5-49 10-72 36l-13 13h156v-83c-10 25-50 31-71 34zM710 17c23 17 24 44 36 68 14 24 43 24 64 37 12 6 33 31 35 48 0 2-2 4-4 4l-2-1c-8-3-18-16-23-20-13-9-25-19-40-24-11-4-24-6-35-11-17-7-13-20-16-35a127 127 0 00-54-77c-2-2-2-4-1-6h-28l26 32c5 7 7 9 7 15a10 10 0 01-12 9 172 172 0 01-40-19c-16-10-30-28-47-36l-1-1H199c-19 12-32 34-53 41-19 6-51-4-39-30 3-5 7-9 13-11H79c4 18-51 37-62 68-5 14-8 51-17 75v51c15-17 32-31 41-52 11-24-5-75 27-85 10-3 27 0 31 11s-6 14-9 23c-9 23-2 34 3 59 4 23-7 29-23 43-18 17-24 33-36 53a41 41 0 01-34 21v33l2-1c44-11 14 92 34 109 12 9 43 2 49 19 6 20-23 23-35 23-24 2-40 12-50 29v135c10 10 8 38 4 52-7 29 1 61-4 91v76l4-1c15-1 18 23 22 34 12 28 36 29 38 61 0 12 4 38-17 39-17 0-15-25-20-38-4-11-8-19-18-25a30 30 0 00-9-3v88l7 12h484a94 94 0 01-31-17c-27-23-20-47 17-44 27 3 54 17 80 13 18-2 52-20 68-6 25 22-33 27-41 30-17 7-29 18-46 24h250l-1-14v-4l5-11 1-2c26-40 57-46 102-49 15-1 90-45 105-24v-50c-8 13-20 24-30 15-22-20 9-40 6-61-2-17-23-32-18-48 4-19 22-29 36-40l6-5V582c-2 3-5 8-6 13-11 27-4 52-28 74-24 21-45 31-47 68-2 22-1 89-32 92a12 12 0 01-13-13c3-20 12-39 14-59 3-28-14-57 14-75 22-14 51-21 59-50 7-29-11-82 35-79l4 1v-45c-17-4-7-55-7-66 1-22-5-42-6-63 0-14 10-26 13-40v-32c-3-20-12-40-16-59-4-15-5-36 15-39h1v-26c-8 14-17-1-14-14l1-7a6 6 0 016-5h1c2 1 5 2 6 5V79a49 49 0 00-7 7c-9 13-5 31-15 42-8 10-20 9-25-4-4-11 5-21 7-31 5-18 0-34-7-50-6-12-13-24-5-36l5-7h-71c0 7 0 14 2 21 6 20 27 29 38 46 4 7 16 34-1 34-18 0-32-44-40-55-12-16-28-30-36-46H680c12 3 19 10 30 17zm128 359c-2 6-8 31-16 33-7 3-6-9-6-15 1-33 15-57-5-88-9-13-39-35-32-53 5-12 19-6 27-1 12 9 17 22 25 34 18 30 18 57 7 90zm19 14c-2-6-3-16 6-15 12 1 10 30 8 38-3 13-13 24-19 36-5 9-4 17 1 26 4 7 14 20 9 29-3 6-9 4-14 9a17 17 0 00-3 6c-2 5-10 3-9-3l2-23c0-14-7-27-8-41-2-17 16-27 25-40 5-8 4-13 2-22zM322 637l16 7c19-1 58 69 79 83 24 16 73 35 107 38 6 0 8 8 3 11-26 14-87 3-105-3-46-16-103-85-100-136zm302 95c13 0 31 0 42-9 7-6 13-15 19-22s14-30 26-32c2 0 4 1 4 3 1 10 7 10 17 10 2 0 3 2 3 4-1 12-16 18-24 25-11 10-17 24-29 33-19 12-40 13-62 13-14 0-56 3-55-11 1-13 47-13 59-14zm-67-18s-42-15 26-22c107-12 134-94 138-186l-1-12c-1-8 15-10 20 3 28 77-58 235-183 217zM179 556c-24 16-17-84-16-94 2-20 9-34 18-51 11-20 16-40 21-62 5-21 15-40 39-40 18 1 26 12 15 26-10 13-19 19-20 37-1 23-5 39-18 59-14 24-29 47-32 75-2 11 4 43-7 50zm84-136c5-4 12 0 12 6-1 43-14 89-8 132 3 24 23 45 23 69-43-4-52-65-58-100-6-39 2-80 31-107zm275-92l5 12c5 11-6 13-17 11-12-2-22-6-35-4-16 2-21 10-29 24-7 13-18 39-36 39-18 1-11-11-11-21 1-15-22-19-20-32 1-7 14-14 20-18l23-17c18-9 39-10 59-15 12-3 32-9 39 6 3 5 1 10 2 15zm-46 113c9-5 33-10 32 6s-34 29-40 45c-5 14 11 45 1 54-8 9-22-3-25-11-4-11 1-23 3-34 4-22 7-47 29-60zm-6-29c5-1 20 0 19 9 0 6-7 5-12 5s-14 6-17-1c-4-8 5-12 10-13zm52 67l2-2a7 7 0 019-2l4 4c2 3 3 17-1 19-4 3-7-2-10-5s-8-10-4-14zm16 36c13 8-8 23-16 25-18 5-39-28-21-38 11-7 11 0 15 7 6 10 14 1 22 6zm21-45c-1-2 0-4 2-5 18-5 36 37 36 48 0 29-11 59-43 62-9 1-35-3-43-12-1-1-1-3 1-4l1-1c24 2 48-7 55-32 6-22-2-37-9-56zm-115 88l4 3c22 7 33 31 55 39 32 11 62-11 93-10l1 3c-23 52-156 27-153-35zm113 89c3-23 40-14 54-26 9-7 31-27 43-16 9 9-10 25-15 31-14 14-29 18-47 23-8 2-32 14-36 4-1-2 1-14 1-16zm69-63c-2 0-4-1-4-3 1-31 11-62 4-92-5-24-41-49-21-71 62 10 82 166 21 166zm-44-226c-11-5-41-17-30-34 11-19 51 1 61 11 69 69 86 129 74 145a5 5 0 01-6 1l-1-1c-14-16-35-93-98-122zm-20 35c10 14 12 35-9 26-12-4-21-12-34-16a166 166 0 00-50-3h-2c-1-1-2-3 0-4 27-21 72-37 95-3zM450 257c-29 3-56-7-84 1-26 7-40 24-58 43-9 10-22 20-26 0-4-22 20-39 36-48 26-15 66-43 98-34 10 3 19 8 30 9 8 1 17-2 24 5 17 15-8 22-20 24zm-118 61c28-22 51-42 86-36a9 9 0 013 15l-14 10c-14 14-46 24-57 47s-19 82-34 74c-1-11 5-35-1-44-7-8-21 1-32 1-44-1 43-62 49-66zm-33 107c-10 8-12-13-6-18 9-7 12 12 6 17zm-8 48c12-14 32-20 46-31 17-12 24-27 31-46 4-13 18-21 25-2 4 13-5 29-11 40a70 70 0 01-31 29c-24 11-33 12-31 41 2 33 7 59 31 83 6 6 53 52 24 49-10 0-20-12-29-16-9-5-17-4-26-7-24-9-20-34-24-54-5-28-27-60-5-86zm89 113c-5-6-8-14-12-19-7-11-16-20-22-31-7-12-18-45 6-47 23-2 11 33 12 45 2 20 23 31 22 49 0 4-4 5-6 3zm2-90c2-20 5-45 21-58 7-7 46-25 48-8 2 8-17 26-21 33a96 96 0 00-18 49c-1 24 19 60 26 72 1 3-1 6-3 6-9 0-19-3-23-7-27-22-35-52-30-87zm26 127c4 2 3 14 2 21a5 5 0 01-5 5l-3-1c-9-8-4-28 6-25zm-4 48c3-6 8 0 13 3a112 112 0 0037 16c14 3 29 7 43 13 11 4 31 11 37 22 9 17-21 20-30 17-14-5-26-16-39-21-16-7-33-13-46-23-6-5-21-18-15-27zm20-48c-1-3 4-5 6-3 27 28 88 16 115 44 2 2 1 5-2 6-56 9-110-4-119-47zm319-158a195 195 0 00-35-81c-11-16-60-54-42-77 3-3 8-4 12-2l4 2c20 13 43 56 53 76 10 22 23 65 18 82-2 5-9 5-10 0zm-64-203c-2 11-10 12-18 5-14-11-22-20-42-22-11-1-36 5-43-6s9-17 17-18c11 0 23 4 33 7 12 3 25 0 38 0 8 0 16 0 17 9l-2 25zm-33 33c4 10-4 15-13 15-10-1-16-10-25-12-14-4-30 1-45 1-13 0-9-3-15-11-8-11-33-10-46-13-10-3-16-8-7-16s22-9 33-9c14 0 24 12 34 19 21 12 73 1 84 26zM488 181c-12 6-17 17-31 18-24 2-48-14-72-17a115 115 0 00-63 14c-14 7-26 24-42 29-15 5-29-6-26-22 3-15 20-26 33-30 59-24 126 1 187-15 22-7 44-15 68-11 20 3 21 13 2 20-18 7-39 5-56 14zm-97-47c-32-3-66-8-97 0-25 7-41 23-60 38-9 7-28 17-36 4-7-12 8-23 16-29 34-25 68-50 112-44l62 11c7 1 15 3 15 11 1 11-11 9-11 9zM250 258c7 14-15 25-25 31-17 10-39 18-48 36-8 18-3 38-10 56-5 14-19 32-36 27s-13-26-10-39c10-33 27-63 48-90 10-12 21-28 37-31 11-2 38-1 43 10zm-80 345c23 2 21-35 34-46 18 24-7 84-5 114 0 11 1 21 4 30 2 6-4 10-8 7l-3-2c-22-46-44-82-45-135 12 9 8 31 23 32zm27 155h4l2 1c34 19 56 47 88 71 34 27 76 27 111 48 3 3 3 8 0 10-48 37-184-72-208-121a6 6 0 013-8zm35-95c12-64 53 52 79 78s65 48 100 66c6 3 3 12-3 12-75-7-189-79-176-156zm252 140c6-12 31-3 42-4 12-2 18-10 28-17 16-1 29 6 43 8 17 2 41 2 57-1a75 75 0 0040-23c14-15 24-38 49-38 7 0 22 6 17 16-3 8-14 5-20 6-34 3-29 45-54 62-42 29-83 4-127 9-9 0-91 14-75-18zm250-164c2-14 26-32 34-46 8-15 12-69 25-78 20-13 26 24 24 37-3 29-24 64-45 83-14 13-44 32-38 4zm70-146c-12-4-14 3-22 6a5 5 0 01-7-4c0-16 3-33 2-48-1-21-2-42-8-61-11-35-33-60-56-89-12-15-18-49-1-64 21-19 29 23 32 36 6 27 37 40 48 66 7 17 11 35 12 54 1 24-4 50 4 72 5 16 27 41-4 32zm-60-277c5-7 16-2 17 6 1 3 0 8-3 10l-2 1c-8 4-18-10-12-17zm-22-59a12 12 0 016-9l3-2 6-2c20 0 36 4 53 17 15 12 24 29 35 45a66 66 0 0114 27c0 5-5 9-10 7-13-5-19-17-30-27-20-17-39-22-62-33-9-5-16-13-15-23zm-11 41c-8 5-18 5-27 8-11 4-8 6-19-1-17-10-33-18-53-15-21 3-40 14-59 23-10 5-21 12-32 9-10-3-20-14-15-24 6-12 28-11 39-14 19-6 36-16 56-20 34-7 61 4 93 13 13 4 35 10 17 21zM691 79l1-3 1-1a9 9 0 0110-3c14 5-21 33-12 7zM461 24c10-50 94 24 112 30 20 7 43 5 64 14 14 5 24 17 35 27 8 6 29 17 28 28-1 23-27 2-32-5-11-17-23-30-43-33-18-2-36 2-54-5-21-8-40-17-63-23-14-4-51-11-47-33zm1 61c10 4 19 9 29 11 10 1 20-1 30-1 15-1 29 3 42 10 21 13 45 3 66 13 3 11-11 18-20 23-18 11-36-9-52-16-29-11-57 7-86 9-5 1-26 1-29-4-3-4 10-10 9-18s-11-10-16-15c-5-3-14-12-6-17 7-6 26 2 33 5zm-344 28c1-40 59-61 89-72 24-8 48-10 73-14 26-3 52-12 78-14 21-3 56-2 70 18 7 9-31 36-43 41-33 12-71-1-106 0-45 1-74 27-110 50-17 12-52 25-51-9zM84 375c-5 12-8 29-20 11-14-20-23-73-2-83 4-3 8-2 11 0 3 1 7 0 9-2 15-21 13-65 26-86 11-19 25-39 46-42 7 0 13 5 13 12l-3 17c0 4 3 7 7 8a5 5 0 002 0c10-2 26-5 29 4 4 14-51 24-60 31-27 22-27 52-38 82l-20 48zm37 54h8c18 26-27 92-19 134 6 36 36 70 37 106a10 10 0 01-13 9c-77-30-64-208-13-249zm-97 76c1-9 3-26 10-34 2-3 27-18 30-9 5 14-6 30-9 44-5 20-7 41-6 62 1 11 12 50 14 76 1 11-14 15-18 4-8-18-8-42-11-60-5-27-12-55-10-83zm38 360c-10-12-18-35-24-50-12-32-25-79-10-113 8-18 12-20 31-14 12 5 19 8 31 10a12 12 0 0110 15c-6 19-40 25-45 44-5 17 10 45 18 58 8 12 29 31 25 48-4 21-28 12-36 2zm17-80c-4-1 1-46 18-30 10 10-5 33-17 30zm22 192a13 13 0 01-11-14v-1c1-12 7-24 13-34a99 99 0 0012-31 10 10 0 0112-7h1c20 8 9 22 13 35 3 8 11 8 14 18 19 46-38 36-54 34zm94-106c-9 7-7 25-5 36 2 6-6 10-10 5-8-8-16-27-20-33-27-43-60-117-26-165 9-12 22-15 30 1 8 18-1 43 6 63 9 28 37 40 55 61 7 7 22 33 2 35-13 1-17-15-32-3zm222 65a322 322 0 00-48 19c-28 14-58 24-89 18-28-5-44-20-57-46-3-6-20-21-13-29 8-11 26 15 33 10 5-4 5-14 11-17 9-4 21 7 28 11 18 11 37 20 58 22 19 1 35-5 53-9 10-2 27-3 35 6s-4 13-12 15zm22-63c-27 0-48-18-38-27 15-14 91-4 101-2 16 4 32 2 49 2 9-1 91-3 69 24-17 21-61 3-81-1-33-7-72 4-100 4zm84 43c0 1 0 2 0 0-20-1-50 1-63-15l-2-2a6 6 0 010-6c16-25 96 3 120 4 55 3 92-24 127-65 15-19 36-69 67-59 10 47-43 95-75 122-47 40-113 31-174 21zm352-61c17 0 30-3 44-6 8-2 14 8 8 14-13 12-45 15-59 15-16 1-46 10-59 18a93 93 0 00-22 17 266 266 0 01-58 47 123 123 0 01-40 13c-13 2-18-15-6-20 18-9 40-19 51-26 18-13 27-25 39-41 14-19 31-15 51-21 8-3 13-8 22-10s20 0 29 0zm-65-83c-1-10-8-22-5-31 2-11 13-14 21-19 12-8 22-37 31-29 9 7-14 38-22 51-14 25-2 50-11 76-2 7-10 20-19 14-9-5-3-20-1-28 4-12 8-22 6-34zm43 49l-1 2c-2 2-6 4-9 1-5-5 3-19 9-20 9-1 5 13 1 17zm34-210c-16 43-58 84-102 99-23 8-46-3-21-23 12-10 26-15 37-24a108 108 0 0033-47c11-27 15-56 24-83 2-6 9-10 15-7l3 1h1c25 17 19 60 10 84zm3-112c-13-10-25-34-19-50 5-13 13-21 15-36 3-22 3-46 2-68a298 298 0 00-8-57c-2-8-11-29-6-37 13-19 37 26 40 34 22 52-2 104-6 156-1 13 10 80-18 58zm84-29c-4 21-14 38-26 56a90 90 0 00-13 49c0 20 1 46-10 63-9 14-15 7-15-6-1-20 5-40 5-60-1-13-8-33-2-45 5-13 22-18 29-30 15-23 10-56 7-82a10 10 0 019-11 10 10 0 019 6 96 96 0 017 60zm-8-116c-1 8-3 24-12 14-8-9-5-33-4-43 1-13 3-26-2-39-8-19-25-34-40-47-8-7-35-20-38-30l2-7a16 16 0 0121-2c17 11 50 36 60 49 23 30 20 69 13 105zM780 26c7-26 36-5 46 6 17 18 30 41 40 62 10 20 21 33 40 45 14 9 57 26 59 46 4 24-68-10-81-13-14-3-25-6-30-21-5-13 0-26-8-38-17-25-75-52-66-87z" />
    </svg>