<svg xmlns="http://www.w3.org/2000/svg" viewBox="0 0 1440 631.7">
    <path fill="#3cb3e0"
        d="M869 332a243 243 0 01-115-172 526 526 0 00115 172zM733 123h-2c-22 68-14 196 2 257 6 27 18 52 29 77a11728 11728 0 01-29-334zm312 122A925 925 0 01818 93c55 62 148 160 227 153v-1zm-164 15c-1 24 35 45 52 52h1v-1c-8-14-28-44-53-51zm-227 48c15 20 35-24 39-49a549 549 0 006-75c-14 24-57 109-45 124zm-31-105c-53 49-100 105-146 163 85-45 119-114 147-162 1-1 0-2-1-1zm2 80c-24 34-97 91-116 144l2 1c21-33 50-58 60-66 1-1 2 0 2 1-5 10-18 40-22 65 0 1 1 2 2 1l27-38a4124 4124 0 000 67c10-28 48-123 47-174 0-1-1-2-2-1zm65 39c-9 5-11 10-10 20l1 1c6-2 13-10 10-20l-1-1zM469 117s-19 5-35 13c-52 26-86 54-126 100 47-17 152-51 161-113zm543 345l-134-92c-51-15-78-48-103-95l-1 1c-5 44 32 143 71 162 1 1 1 0 1-1-3-18-11-34-14-53l1-1a536 536 0 00179 79zM703 358a334 334 0 00-42 153h1l17-20a1 1 0 011-1v1c-1 41 5 81 3 121 0 1 1 2 2 1l45-43a2 2 0 000-2 847 847 0 01-28-210zM599 579a627 627 0 0054-220 882 882 0 00-54 220zm-51-50c-13 22-40 80-29 97l2 1 24-15v-1c12-35 23-69 28-106l-1-1h-1c-6 11-13 19-20 29l-1 1v-1l-1-3c0-2-1-2-2-1zm-90 45c20 14 64-58 79-118h-1c-44 68-96 104-78 118zm32-184c-13-1-22 4-23 18 13 0 24-7 23-18zm-231 54c16 10 42 7 42 7a282 282 0 01-40 33c-1 1 0 2 1 2 50-7 155-60 181-113v-1l-21-5h-1c-44 39-107 72-162 75v2zm182-224c-46 4-12 34 0 0zm677 163c20 34 42 1 0 0zM802 552l37-7c-13-23-24-49-38-71-4 26-4 53 1 78zm131-50c-15-3-30-13-44-19-1 0-2 1-1 2a399 399 0 00184 133l28-70a2 2 0 00-1-2l-1-1a394 394 0 01-197-92 191 191 0 0033 47c1 1 0 2-1 2zm-75-32l11-3 1-2c-15-11-18-11-13 4l1 1zm292-155a652 652 0 01-208-58 425 425 0 00310 118c-28-6-102-24-131-52-1-1 0-2 1-2 8 1 23-2 28-4v-2zm-60-218a578 578 0 00290 43c-98 33-206 0-291-41-1-1 0-3 1-2zm57 63c-9-6-23-14-35-8v2c6 10 22 11 35 8v-2zm-89 227c-37-14-68-43-99-70-1-1-2 1-2 2 6 7 11 15 14 23 1 1 0 2-1 2-7-3-27-10-34-7v2a535 535 0 00234 148c-28-23-57-47-84-72l-27-27-1-1zm167 44a160 160 0 00-69-16l-1 1c27 34 81 45 121 50h5v-2l-2-1c-17-8-40-26-54-33zm-41-113c3 7 18 18 22 10 2-5-12-9-22-10zm-139-134l-9 2-1 2a1104 1104 0 0083 32c-4 2-14 7-39 10l-1 2c39 16 123 35 146 3h1a563 563 0 00116 3c-40-3-195-19-296-54zm240 329c-1 22 13 35 32 34 4-19-15-36-32-34zM338 151c-107 49-230 73-310 90v2c112 27 260-34 311-91 1 0 0-2-1-1zm111 107c-95 76-257 112-324 78-1 0-2 1-1 2 31 36 76 57 124 57 57 0 94-16 147-51v-2c-12 2-35 6-42 5l98-88c1-1-1-2-2-1zM40 444a69 69 0 0060 30c-12 4-31 14-42 18v2c58-1 113-6 162-42v-2c-61 5-120 12-179-8-1 0-2 1-1 2zm101-23c15 8 28-1 35-12-18-9-30-4-35 12zm378-175c29-52 74-106 94-162 1-2-1-2-1-1-41 54-86 93-133 139 13 0 26-5 37-10a109 109 0 00-13 34h16zm-15 26c-38-2-66 34-91 64h2c33-12 65-38 89-64z" />
    <path fill="#3cb3e0"
        d="M196 314c50 1 121-3 185-83a549 549 0 01-232 52c36 10 81 6 81 6s-14 15-35 23v2zm-96 288a990 990 0 01113-97 472 472 0 00-188 83l1 1 73 13h1zm21-311c-31-16-26 21-2 2l2-2zm124 244c9 0 17-6 24-18-14 0-25 11-24 18zM138 169c-10-2-19 3-22 10a15 15 0 0022-10zm376-92a36 36 0 00-29 24l1 1 14-3c7-3 13-13 15-20 1-1 0-2-1-2zm-43 376a37 37 0 00-25 33c13-3 26-14 25-33zm-67 9c10-2 13-7 12-15-8 2-12 7-12 15zm627 16v2c15 21 51 29 73 27 19-1-45-31-73-29zm-11-275c-4-10-17-18-33-16v1a29 29 0 0032 16l1-1zM0 61v30l2 1c53 2 132 7 179-10l1-2h-1C119 79 59 75 0 61zm34 71c-8-2-21-5-34-6v17c13-2 27-5 34-8v-3zm46 56l9-9-1-2c-29-2-59-3-88-3v33c36 1 72 0 104-12v-2l-24-3v-2zM43 305l8-9-1-2-50-7v35a884 884 0 0067-4l-24-11v-2zm34 82c-28 3-53-2-77-9v20c32 6 66 2 88-8l-11-3zM0 533v20c30-10 48-24 48-24s-22 4-48 4z" />
    <path fill="#3cb3e0"
        d="M1321 84c-50 1-176-1-204-27-1-1 0-2 1-2a416 416 0 00139 10c-36-6-57-12-72-21l1-2c72 17 173 20 254 0V0H0v47c78 22 257 10 356-5v2a489 489 0 01-129 25l-1 2c61 23 222-33 222-33a957 957 0 01-351 85 389 389 0 0097 21c-4 3-14 9-26 12v2c66 11 309-65 421-153a2056 2056 0 01-112 153A630 630 0 00665 7a1000 1000 0 01-86 189l1 1c54-35 93-104 116-177h2c-7 75-33 161-72 225a1 1 0 000 2h1A527 527 0 00736 50c20 78 68 180 113 211 1 1 2 0 1-1-7-18-15-36-19-54 22 20 49 47 77 29v-2c-60-41-108-89-140-178 12 17 25 31 32 37 1 1 2 0 2-1-5-12-16-34-21-64l2-1c63 86 186 141 243 135l1-2A455 455 0 01830 15a579 579 0 00252 100c-24-10-48-21-71-33-19-11-48-34-59-57l2-2a546 546 0 00367 61zm119-14s-6 3-17 18v2l17 10V70zm0 102a364 364 0 01-143 0l-61 12c-1 0-2 1-1 2 121 37 205 7 205 7v-21zm0 52a147 147 0 00-31 18l1 1 30-1v-18zm0 91v-27c-79-16-167 0-246-15a2 2 0 00-3 2l-1 7a2 2 0 001 3c73 22 134 53 211 44v-2l-16-5v-2c18-4 36-4 54-5zm0 42l-24 1 24 10v-11zm0 120v-14a110 110 0 00-15-16v-1l15-1v-27l-27-12a23141 23141 0 01-147-61 604 604 0 0097 78l-71-21c-1 0-2 1-1 2a1232 1232 0 00149 73zm0 44s-56-19-121-50c-1 0-2 1-1 2 51 57 122 97 122 97v-49zm-94-409c34 26 60-28 0 0zm-105 295c3 6 19 17 23 8 2-5-11-5-23-8zM0 458v23s12 2 28-3c-16-4-28-20-28-20z" />
    </svg>