<svg xmlns="http://www.w3.org/2000/svg" viewBox="0 0 1440 551">
  <g fill="#0C1112">
    <path
      d="M499.1 142.8c-8.5 8.9-85 89.9-100.7 142.4a2 2 0 0 0 1.4 2.5h.9c67.5-14.4 192.4-71.5 255.6-107.6.9-.6 1.3-1.8.7-2.7l-.5-.6-27.7-20.4a2 2 0 0 0-2.3 0c-7.5 5.1-50.5 33-109 38-1.1.1-2.1-.8-2.2-1.9-.7-15.2 1.1-29.8 6-43.8a2 2 0 0 0-1.3-2.5l-.2-.1-18.9-3.8c-.6-.2-1.3 0-1.8.5zm332 128.8c42.8 1.7 154.9-41 195.8-85.2a2 2 0 0 1 1-.6c7.1-1.8 80.3-20.9 123.6-47.4.3-.2.6-.5.8-.9l16.9-35.7c.8-1.6-.8-3.3-2.5-2.7-28.7 10.5-184.3 65.5-256.9 52.8a2 2 0 0 1-1.6-2.1l.8-12.2c.1-1.1-.8-2-1.9-2.1h-.1c-18-.4-30.8-3.4-35.8-4.8-1.2-.3-2.4.5-2.5 1.7l-4.6 40.9c-.1 1 .5 2 1.5 2.2 10.3 2.2 21.2 2.4 27.5 2.2 1.8-.1 2.8 2.2 1.4 3.5-13.8 12.9-58.2 56.2-65.3 88-.2 1.2.7 2.4 1.9 2.4zm-462.7 84.7a68.3 68.3 0 0 1-26-12.9c-.8-.7-.8-1.9-.2-2.7 3.9-4.8 16.5-21.2 22.2-40.7.6-2-1.8-3.4-3.3-2.1-14.7 13.6-60.3 53.8-110.4 78.5-1.8.9-1.3 3.6.7 3.8 10.4.9 30.5 1.8 48.4-1.4 1.4-.3 2.7 1.1 2.3 2.5-1.4 5-5.2 16.2-16.1 35.1a2 2 0 0 0 .7 2.7 2 2 0 0 0 1.7.2 194.6 194.6 0 0 0 81-59.8c.7-.9.6-2.1-.3-2.8l-.7-.4zM591 296.4c16-12.2 53.5-43.6 59-73.3a2 2 0 0 0-1.6-2.3 2 2 0 0 0-1.5.3c-21.1 14.5-130 86.7-249.3 115.5-1.6.4-2.1 2.4-.9 3.4 7.2 6.4 15.9 12.2 22.8 18.4.8.7.9 1.9.3 2.7-15.3 19.9-42.4 31.6-62.4 47.7a2 2 0 0 0-.2 2.8c.3.4.7.6 1.2.7 99 14.7 239.3-55.1 307.9-126.6 1.4-1.5 0-3.8-2-3.3-14.2 3.8-48 12.6-71.7 17.5-2.1.5-3.3-2.2-1.6-3.5zm122.8-18.7c25.8 2.4 53.5 7.6 72.3 25.5.8.7 2.1.7 2.8-.2.3-.3.4-.6.5-1 3.5-24.6 11.3-55.9 25.7-76.7 1-1.5-.3-3.5-2.1-3.1l-18.1 4.3-.8.4c-23.2 19.3-53.6 33.9-80.9 46.8-1.9 1.1-1.4 3.8.6 4zm346.1 13.7a248 248 0 0 1-24.7 86.4c-.9 1.9 1.3 3.8 3 2.5 53.5-41.6 96.4-128.4 113.6-191.2.4-1.5-1-2.9-2.5-2.4-14.5 4.7-71.2 22.9-114.4 32.6-72.8 73.5-211.4 57.4-213.5 174.5 0 1.6 1.8 2.6 3.1 1.7 21.7-15 150.8-101.5 233.3-106.2 1.1-.1 2 .8 2.1 1.9v.2zm-817.2-232a713.7 713.7 0 0 1-77.3 31.9c-1.8.6-1.8 3.2 0 3.8 27.2 8.8 88.8-2 80.1-34.4a2 2 0 0 0-2.4-1.4l-.4.1zm928.8 350.7c16.9-70.8 148.1-138.5 175.5-152 1.7-.8 1.4-3.3-.4-3.7-20.2-4.5-92.1-16.4-142.6 28-10.3 8.4-119.8 99-118.7 99.2 77.2 15.4-8.1 81.8-43.2 117-.8.8-.8 2.1 0 2.8.4.4.9.6 1.5.6 28.1-1.4 50.9-14.6 81.2-31 1-.5 2.2-.2 2.7.9 1.5 2.9 4.3 8.8 5.7 13.1.4 1.3 2.1 1.8 3.1.9 7.2-5.8 28.2-24.1 37.8-47 .2-.5.2-1.1 0-1.6a41.8 41.8 0 0 1-2.6-27.2z" />
    <path
      d="M1409.3 296.8L1363 300l-.9.3c-5.1 3-57.8 33.8-94.5 57.4-11.8 7.6-44.2 31.6-47.4 44 .6-2.7-9.2 21.9 14.1 25.2 43.5 5.7 155.9-44.8 186.4-63.5 1.7-1 1-3.7-1-3.7-15.8-.3-31.7-.8-47.5-1.3-1.3 0-2.2-1.4-1.8-2.6 7.9-23.8 30.8-46.5 40.4-55.4 1.4-1.4.4-3.7-1.5-3.6zm9.3 115.4l-9.3-14.4a2 2 0 0 0-2.8-.6c-30.8 21.8-94.9 85.5-194.1 60.5a2 2 0 0 0-2.2.9c-3.9 6.5-21.4 36.1-23.6 50.3-.1.8.2 1.5.8 2a190 190 0 0 0 109.8 35.9c.8 0 1.4-.5 1.8-1.2 1.6-3.5 5.3-14.8-3.3-30.6-.6-1-.1-2.3 1-2.8 39-16.3 81-35 121.9-97.9a2 2 0 0 0 0-2.1zm-1203.3-2.8c-14 8.9-28.6 16.9-43.7 24-1 .5-1.5 1.6-1 2.6.1.3.3.6.6.8 35 26.5 22.4 62.5 17.3 73.6-.7 1.5.6 3.1 2.1 2.8 20.8-3.5 119.9-21.9 141.3-61.7a2 2 0 0 0-.7-2.7 2 2 0 0 0-1.1-.3c-41.4.4-96.7-30.8-112.9-39.3-.6-.2-1.3-.2-1.9.2zM23.6 150.3l-21.6.6c-1.1 0-1.9.9-1.9 2v15.6c0 1.5 1.7 2.5 3 1.7a99 99 0 0 0 22-16.5c1.2-1.3.3-3.5-1.5-3.4zm122.7 3.8l17.2-33.1c.8-1.6-.7-3.4-2.4-2.8C110.7 135.2 50.3 161.3.8 198a2 2 0 0 0-.8 1.6v58.5c0 1.7 2.1 2.7 3.3 1.5 29.2-26.6 94-77.3 142.2-104.7l.8-.8zm-.1 48.6c-24.5 16.8-115 79-145.5 103.4a2 2 0 0 0-.7 1.6v44.6c0 1.7 1.9 2.6 3.3 1.6 19.3-15.6 118.6-97.6 145.9-148.5.9-1.9-1.3-3.8-3-2.7zm239.5-47.6c1.7-7 3.7-14.4 4.8-21.6.3-1.7-1.7-2.9-3.1-1.9-13.7 9.3-63.7 42.1-109.8 60.4a2 2 0 0 1-2.6-1.2l-.1-.8.8-17.8c.1-1.6-1.7-2.6-3.1-1.8-19.4 12.2-123 78.9-209.7 170.8-.7.8-.7 2.1.1 2.8l.6.4c21.4 8.8 61.7 8.7 80.7 8.1 2.2-.1 2.9 3 .9 3.8C89.5 380.2 14 391.8 1.7 393.6c-1 .1-1.7 1-1.7 2v71.7c0 1.1.9 2 2 2l.7-.1c21.6-8.3 167.1-65.2 225.6-123 1.2-1.2.5-3.2-1.1-3.4-40.8-5.7-64.6-23.1-64.6-23.1a589.8 589.8 0 0 0 152.3-79.1c1.4-1 3.4.1 3.2 1.8a267.3 267.3 0 0 1-12.1 50.7c-.6 1.8 1.4 3.3 3 2.3 64.5-42.1 154.2-144.7 172.2-165.7.7-.8.7-2.1-.2-2.8-.4-.4-1-.6-1.6-.5-26.6 3.2-68.1 16.6-90.6 30.9-1.6.9-3.5-.5-3.1-2.2z" />
    <path
      d="M0 0v117.4c0 1.1.9 2 2 2h.3C91.5 106 266.2 36.1 296.5 23.8c1.7-.7 3.3 1 2.6 2.7-22.9 50.4-93.2 124.1-118 149.3-1.6 1.6.3 4.2 2.3 3.2 41.5-21 189.1-96.7 276.7-153.9 1.7-1.1 3.9.8 2.8 2.6-17.9 32-48.3 64.8-57.8 74.7-.8.8-.8 2.1 0 2.8.3.3.8.5 1.3.6 46.5 2.8 152.9-28.8 173.2-35 1.5-.5 2.9.9 2.5 2.4-6.7 25.4-21.7 48.3-34.3 69.9-1.1 1.8 1.1 3.8 2.8 2.7 44.8-29.3 123.9-65.7 148.6-118.7.9-1.9 3.8-1.3 3.8.9v58.2c0 1.1-.8 1.9-1.9 2-20 1.5-37.7 11.3-46.1 29-.4.9-.1 2.1.8 2.6l66.8 39.1c.8.5 1.2 1.4.9 2.2a234.7 234.7 0 0 1-40.3 77.8c-1.1 1.4.1 3.5 1.9 3.2 59.6-10.8 146.2-61.5 143.4-135.3 0-1-.7-1.8-1.7-1.9a273 273 0 0 0-49.5-1.8c-2 .1-2.9-2.5-1.2-3.7 33.7-20.3 70-36 107.9-46.6 1.9-.4 3.2 1.9 1.9 3.3-6.4 7-18.5 21-24.7 33.8a2 2 0 0 0 .9 2.7l.3.1c26.9 8 57.8 14.8 65.3 16.5 1 .2 1.6 1.1 1.6 2.1-.2 3.2-.1 6.7.2 9.8a2 2 0 0 0 1.8 1.8c52 4.4 230.4-34.8 269.3-63.7 1.6-1.2.7-3.8-1.4-3.6a504.3 504.3 0 0 1-101.3-.7c-2-.2-2.4-3-.5-3.8a535.7 535.7 0 0 0 57.7-28.9l1.2-.3c6.5.8 59.1 7.3 115.4 12.3 1.7.1 2.4 2.2 1.3 3.4-26.9 28.1-50.6 54.2-81 81a2 2 0 0 0-.2 2.8c.2.3.5.5.8.6 35.8 14 6.7 76.4-13.4 121.9-.9 2 1.7 3.8 3.2 2.2 19.5-19.3 74.1-71 132.2-105.1 39.9-23.5 81.4-44.3 124.1-62.3a2 2 0 0 0 1.2-1.8V0H0zm1440 173.9v-64.7a2 2 0 0 0-1.9-2.1c-.4 0-.7.1-1.1.3-49.2 27.3-101.4 61.4-137.8 95.5a2 2 0 0 0-.2 2.8c.4.5 1.1.7 1.7.7 46.6-3.6 126.3-27.1 137.9-30.5.8-.3 1.4-1.1 1.4-2zm-44.1 71.8l42.8-14.5a2 2 0 0 0 1.3-1.9v-29.5a2 2 0 0 0-2-2c-.5 0-.9.2-1.3.5a353 353 0 0 0-43 44.3c-1.2 1.6.4 3.7 2.2 3.1zm-26.5 295.4A198.2 198.2 0 0 0 1439 517c.6-.4 1-1 1-1.7v-28.5a2 2 0 0 0-2-2l-.7.1a147 147 0 0 0-69.8 53.1c-1 1.4.2 3.3 1.9 3.1z" />
  </g>
</svg>