<svg xmlns="http://www.w3.org/2000/svg" viewBox="0 0 1440 551">
    <g fill="#0C1112">
        <path
            d="M499 143c-8 9-85 90-101 142a2 2 0 002 3h1a1187 1187 0 00256-111l-28-21a2 2 0 00-3 0c-7 6-50 33-108 38-2 1-3 0-3-1 0-16 1-30 6-44a2 2 0 00-1-3l-19-4-2 1zm332 129c43 1 155-41 196-86a2 2 0 011 0 547 547 0 00124-48l17-36c1-2-1-3-2-3-29 11-185 66-257 53a2 2 0 01-2-2l1-12-2-2c-18-1-31-4-36-5-1-1-2 0-2 1l-5 41 2 3c10 2 21 2 27 2 2 0 3 2 2 3-14 13-59 56-66 88l2 3zm-463 84a68 68 0 01-26-13v-2c4-5 17-21 22-41 1-2-1-3-3-2-15 14-60 54-110 78-2 1-2 4 0 4 11 1 31 2 49-1 1 0 3 1 2 2-1 5-5 17-16 35a2 2 0 001 3 2 2 0 001 0 195 195 0 0081-59v-3l-1-1zm223-60c16-12 54-43 59-73a2 2 0 00-2-2 2 2 0 00-1 0c-21 15-130 87-249 116-2 0-3 2-1 3l22 18 1 3c-15 20-43 32-63 48a2 2 0 000 3h1c99 15 240-55 308-126 2-2 0-4-2-4l-71 18c-3 0-4-2-2-4zm123-18c26 2 53 7 72 25h3v-1c4-25 12-56 26-77 1-1 0-3-2-3l-18 5h-1c-23 19-54 34-81 47-2 1-1 4 1 4zm346 13a248 248 0 01-25 87c-1 2 2 4 3 2 54-41 97-128 114-191 0-1-1-3-3-2-14 4-71 23-114 32-73 74-212 58-214 175 0 1 2 2 3 1 22-15 151-101 234-106l2 2zM243 59a714 714 0 01-78 32v4c28 9 89-2 81-34a2 2 0 00-3-2zm929 351c16-71 148-138 175-152 2-1 1-3 0-4-21-4-93-16-143 28-10 9-120 99-119 100 77 15-8 81-43 117v2l2 1c28-1 50-15 81-31l2 1 6 13c1 1 2 2 3 1 7-6 28-24 38-47v-2a42 42 0 01-3-27z" />
        <path
            d="M1409 297l-46 3h-1c-5 3-58 34-94 58-12 7-45 31-48 44 1-3-9 22 14 25 44 6 156-45 187-64 1-1 1-3-1-3l-48-2-2-2c8-24 31-47 41-56 1-1 0-3-2-3zm10 115l-10-14a2 2 0 00-3-1c-30 22-94 86-194 61a2 2 0 00-2 1c-4 6-21 36-23 50v2a190 190 0 00110 36l2-1c2-4 5-15-3-31-1-1 0-2 1-3 39-16 81-35 122-98a2 2 0 000-2zm-1204-3a394 394 0 01-44 27v1c35 26 23 62 17 73 0 2 1 4 3 3 20-3 119-22 141-61a2 2 0 00-1-3 2 2 0 00-1 0c-41 0-97-31-113-40h-2zM24 150l-22 1-2 2v16c0 1 2 2 3 1a99 99 0 0022-16c1-2 0-4-1-4zm122 4l18-33c0-2-1-3-3-3-50 17-111 43-160 80a2 2 0 00-1 2v58c0 2 2 3 3 2 30-27 94-78 143-105v-1zm0 49C122 220 31 282 1 306a2 2 0 00-1 2v44c0 2 2 3 3 2 20-16 119-98 146-149 1-1-1-3-3-2zm240-48l5-21c0-2-2-3-4-2-13 9-63 42-109 60a2 2 0 01-3-1v-1l1-18-3-2A1166 1166 0 0063 344h1c21 9 61 9 80 9 2-1 3 3 1 3A662 662 0 010 396v71l2 2h1c21-8 167-65 225-123 1-1 1-3-1-3-41-6-64-23-64-23a590 590 0 00152-79c1-1 3 0 3 1a267 267 0 01-12 51c-1 2 1 3 3 2a1095 1095 0 00172-168l-2-1c-26 4-68 17-90 31-2 1-4 0-3-2z" />
        <path
            d="M0 0v117a1828 1828 0 00297-94c1 0 3 2 2 3-23 51-93 125-118 150-1 1 0 4 2 3 42-21 190-97 277-154 2-1 4 1 3 3a420 420 0 01-58 77l1 1c47 3 153-29 174-35 1-1 3 1 2 2-7 26-22 49-34 70-1 2 1 4 3 3 44-29 124-66 148-119 1-2 4-1 4 1v58l-2 2c-20 2-38 12-46 29l1 3 67 39v2a235 235 0 01-40 78c-1 1 0 3 2 3 60-11 146-61 143-135l-1-2a273 273 0 00-50-2c-2 0-3-2-1-4 34-20 70-36 108-46 2-1 3 2 2 3-7 7-19 21-25 34a2 2 0 001 3c27 8 58 14 66 16l1 2v10a2 2 0 002 2c52 4 231-35 270-64 1-1 0-4-2-3a504 504 0 01-101-1c-2 0-3-3-1-4a536 536 0 0058-29h1l116 12c1 0 2 2 1 4-27 28-51 54-81 81a2 2 0 000 2l1 1c35 14 6 76-14 122-1 2 2 4 3 2a744 744 0 01257-167 2 2 0 001-2V0H0zm1440 174v-65a2 2 0 00-2-2h-1c-49 28-101 62-138 96a2 2 0 000 3h2c46-3 126-27 138-30l1-2zm-44 72l43-15a2 2 0 001-2v-29a2 2 0 00-2-2h-1a353 353 0 00-43 45c-1 1 0 3 2 3zm-27 295a198 198 0 0070-24l1-2v-28a2 2 0 00-2-2h-1a147 147 0 00-70 53l2 3z" />
    </g>
</svg>