<svg width="1440" height="1347" viewBox="0 0 1440 1347" fill="none" xmlns="http://www.w3.org/2000/svg">
<g clip-path="url(#clip0)">
<path d="M1867 503H1784.4C1701.79 503 1531.99 503 1366.78 695.756C1201.57 888.513 1031.77 1274.03 866.56 1301.56C696.76 1329.1 531.551 998.659 366.341 998.659C196.541 998.659 31.3314 1329.1 -133.879 1301.56" stroke="#1743C4" stroke-width="73"/>
<path d="M1837 245H1754.4C1671.79 245 1501.99 245 1336.78 437.756C1171.57 630.513 1001.77 1016.03 836.56 1043.56C666.76 1071.1 501.551 740.659 336.341 740.659C166.541 740.659 1.33138 1071.1 -163.879 1043.56" stroke="#1743C4" stroke-width="73"/>
<path d="M1827 -13H1744.4C1661.79 -13 1491.99 -13 1326.78 179.756C1161.57 372.513 991.77 758.026 826.56 785.562C656.76 813.099 491.551 482.659 326.341 482.659C156.541 482.659 -8.66862 813.099 -173.879 785.562" stroke="#1743C4" stroke-width="73"/>
</g>
<defs>
<clipPath id="clip0">
<rect width="1440" height="1347" fill="white"/>
</clipPath>
</defs>
</svg>
