<svg width="1440" height="1296" viewBox="0 0 1440 1296" fill="none" xmlns="http://www.w3.org/2000/svg">
<g clip-path="url(#clip0)">
<path d="M1867 503H1784.4C1701.79 503 1531.99 503 1366.78 695.756C1201.57 888.513 1031.77 1274.03 866.562 1301.56C696.762 1329.1 531.553 998.659 366.343 998.659C196.543 998.659 31.3333 1329.1 -133.877 1301.56" stroke="#1A4CE0" stroke-width="73"/>
<path d="M1837 245H1754.4C1671.79 245 1501.99 245 1336.78 437.756C1171.57 630.513 1001.77 1016.03 836.562 1043.56C666.762 1071.1 501.553 740.659 336.343 740.659C166.543 740.659 1.33328 1071.1 -163.877 1043.56" stroke="#1A4CE0" stroke-width="73"/>
<path d="M1827 -13H1744.4C1661.79 -13 1491.99 -13 1326.78 179.756C1161.57 372.513 991.772 758.026 826.562 785.562C656.762 813.099 491.553 482.659 326.343 482.659C156.543 482.659 -8.66672 813.099 -173.877 785.562" stroke="#1A4CE0" stroke-width="73"/>
</g>
<defs>
<clipPath id="clip0">
<rect width="1440" height="1296" fill="white"/>
</clipPath>
</defs>
</svg>
