<svg width="600" height="395" viewBox="0 0 600 395" fill="none" xmlns="http://www.w3.org/2000/svg">
<path d="M131.422 200.068C148.214 194.888 163.392 188.912 172.448 182.516C172.638 182.382 172.841 182.296 173.07 182.258C196.218 178.42 243.819 167.411 263.055 152.115C264.226 151.184 266.001 152.183 265.511 153.596C253.096 189.388 173.775 210.294 62.8635 217.403C61.06 217.519 60.7936 215.693 62.5726 215.376C75.4565 213.079 92.5956 210.401 104.653 207.427M131.422 200.068C126.825 195.544 117.873 182.736 120.344 169.23C120.498 168.386 119.974 167.549 119.134 167.378L98.8602 163.264C97.9225 163.074 97.0473 163.787 97.0664 164.743C97.3017 176.504 99.0601 198.895 104.653 207.427M131.422 200.068C122.724 202.752 113.592 205.222 104.653 207.427" stroke="#1A4CE0" stroke-width="4.51955" stroke-linecap="round"/>
<path d="M108.747 213.573C111.926 216.675 121.214 226.95 126.123 228.503L139.628 212.71" stroke="#1A4CE0" stroke-width="4.51955" stroke-linecap="round"/>
<path d="M282.468 218.052C249.436 221.039 177.117 222.815 140.419 213.423L136.461 209.859M120.675 167.691C151.801 137.901 231.932 74.0645 303.453 57.043" stroke="#1A4CE0" stroke-width="4.51955" stroke-linecap="round"/>
<path d="M402.278 28.4839C430.057 26.0232 493.534 25.3636 522.193 42.569C550.852 59.7743 532.804 91.545 520.198 105.28C497.674 130.544 434.158 183.242 353.194 201.777M339.838 204.487C341.5 204.193 342.187 204.045 343.835 203.722" stroke="#1A4CE0" stroke-width="4.51955" stroke-linecap="round"/>
<path d="M283.299 219.517C230.736 263.697 122.786 264.118 73.1096 253.872C71.3194 253.502 71.8532 250.311 73.6802 250.254C102.876 249.343 157.005 241.088 180.76 220.362" stroke="#1A4CE0" stroke-width="4.51955" stroke-linecap="round"/>
<path d="M150.929 140.461C132.218 139.92 80.1942 153.96 49.0249 169.889C47.4063 170.716 45.4582 168.252 46.7919 167.017C92.682 124.525 198.746 50.2898 233.291 85.6093" stroke="#1A4CE0" stroke-width="4.51955" stroke-linecap="round"/>
<path d="M394.519 24.3645C404.673 25.4271 405.842 41.9009 404.974 52.9102C404.79 55.2486 402.735 56.9273 400.389 56.9094C378.723 56.7435 334.889 62.5162 309.871 69.5973C306.996 70.411 304.047 68.3843 303.89 65.4005L302.931 47.0802C302.886 46.2179 303.068 45.3594 303.563 44.6513C316.45 26.1915 380.387 22.8855 394.519 24.3645Z" stroke="#1A4CE0" stroke-width="4.51955" stroke-linecap="round"/>
<path d="M492.096 71.1796L501.682 84.5043C503.095 86.4674 502.712 89.1943 500.813 90.6921L478.496 108.299C476.373 109.973 473.264 109.422 471.847 107.119L461.967 91.0641C460.686 88.9836 461.291 86.2623 463.332 84.9197L485.943 70.0434C487.967 68.7118 490.681 69.213 492.096 71.1796Z" stroke="#1A4CE0" stroke-width="4.51955" stroke-linecap="round"/>
<path d="M314.236 216.67C322.265 214.896 329.65 212.783 335.003 211.049C337.096 210.37 338.338 208.246 337.967 206.077L337.181 201.482C336.767 199.059 334.492 197.412 332.06 197.774L285.861 204.659C283.557 205.002 281.892 207.039 282.013 209.365L282.372 216.211C282.494 218.535 284.361 220.399 286.688 220.394C292.95 220.381 299.424 219.72 306.401 218.428" stroke="#1A4CE0" stroke-width="4.51955" stroke-linecap="round"/>
<path d="M456.806 133.491C390.284 173.936 331.489 189.084 249.496 193.379" stroke="#1A4CE0" stroke-width="4.51955" stroke-linecap="round"/>
<path d="M370.644 187.788C356.513 177.213 343.055 165.095 327.155 106.339" stroke="#1A4CE0" stroke-width="4.51955" stroke-linecap="round"/>
<path d="M505.913 77.3647L495.023 85.478" stroke="#1A4CE0" stroke-width="4.51955" stroke-linecap="round"/>
<path d="M499.54 70.9099L488.651 79.0231" stroke="#1A4CE0" stroke-width="4.51955" stroke-linecap="round"/>
<path d="M467.388 90.6967L456.498 98.81" stroke="#1A4CE0" stroke-width="4.51955" stroke-linecap="round"/>
<path d="M472.216 96.4785L461.327 104.592" stroke="#1A4CE0" stroke-width="4.51955" stroke-linecap="round"/>
<circle cx="396.453" cy="46.8918" r="2.25977" transform="rotate(177.002 396.453 46.8918)" fill="#1A4CE0"/>
<circle cx="394.239" cy="33.4307" r="2.25977" transform="rotate(177.002 394.239 33.4307)" fill="#1A4CE0"/>
<circle cx="310.463" cy="46.8701" r="2.25977" transform="rotate(177.002 310.463 46.8701)" fill="#1A4CE0"/>
<ellipse cx="329.623" cy="211.056" rx="2.25977" ry="1.50652" transform="rotate(177.002 329.623 211.056)" fill="#1A4CE0"/>
<circle cx="288.884" cy="210.927" r="2.25977" transform="rotate(177.002 288.884 210.927)" fill="#1A4CE0"/>
<circle cx="329.268" cy="204.286" r="2.25977" transform="rotate(177.002 329.268 204.286)" fill="#1A4CE0"/>
<circle cx="289.278" cy="218.449" r="2.25977" transform="rotate(177.002 289.278 218.449)" fill="#1A4CE0"/>
<circle cx="311.172" cy="60.4101" r="2.25977" transform="rotate(177.002 311.172 60.4101)" fill="#1A4CE0"/>
<circle cx="426.592" cy="161.474" r="2.25977" transform="rotate(177.002 426.592 161.474)" fill="#1A4CE0"/>
<circle cx="402.993" cy="171.762" r="2.25977" transform="rotate(177.002 402.993 171.762)" fill="#1A4CE0"/>
<circle cx="380.742" cy="178.961" r="2.25977" transform="rotate(177.002 380.742 178.961)" fill="#1A4CE0"/>
<circle cx="333.71" cy="173.882" r="2.25977" transform="rotate(177.002 333.71 173.882)" fill="#1A4CE0"/>
<circle cx="303.857" cy="179.971" r="2.25977" transform="rotate(177.002 303.857 179.971)" fill="#1A4CE0"/>
<circle cx="273.847" cy="183.052" r="2.25977" transform="rotate(177.002 273.847 183.052)" fill="#1A4CE0"/>
<circle cx="342.987" cy="120.595" r="2.25977" transform="rotate(177.002 342.987 120.595)" fill="#1A4CE0"/>
<circle cx="348.604" cy="141.422" r="2.25977" transform="rotate(177.002 348.604 141.422)" fill="#1A4CE0"/>
<circle cx="357.151" cy="160.585" r="2.25977" transform="rotate(177.002 357.151 160.585)" fill="#1A4CE0"/>
<path d="M328.014 255.927C330.874 254.869 336.259 253.388 342.498 255.927M326.455 310.676C329.834 309.618 338.844 308.137 343.835 310.676" stroke="#BBBBBB" stroke-width="4.07102" stroke-linecap="round"/>
<path d="M452.126 318.698L446.37 302.986C444.826 298.772 440.816 295.97 436.328 295.97H415.257M215.489 318.698L220.025 303.59C221.383 299.067 225.546 295.97 230.269 295.97H257.052" stroke="#BBBBBB" stroke-width="4.07102" stroke-linecap="round"/>
<rect x="341.83" y="255.194" width="70.8574" height="56.1512" rx="4.67927" stroke="#BBBBBB" stroke-width="4.0108"/>
<rect x="299.047" y="318.03" width="70.8574" height="56.1512" rx="4.67927" stroke="#BBBBBB" stroke-width="4.0108"/>
<rect x="383.274" y="318.03" width="70.8574" height="56.1512" rx="4.67927" stroke="#BBBBBB" stroke-width="4.0108"/>
<rect x="257.603" y="255.194" width="70.8574" height="56.1512" rx="4.67927" stroke="#BBBBBB" stroke-width="4.0108"/>
<rect x="214.821" y="318.03" width="70.8574" height="56.1512" rx="4.67927" stroke="#BBBBBB" stroke-width="4.0108"/>
<path d="M259.608 256.425L266.774 246.801C268.792 244.09 271.973 242.493 275.352 242.493H300.384M412.018 257.199L408.429 248.93C406.732 245.021 402.878 242.493 398.618 242.493H375.253M308.406 242.493H334.035M344.503 242.493H366.248" stroke="#BBBBBB" stroke-width="4.07102" stroke-linecap="round"/>
<path d="M283.673 373.512C285.01 373.512 291.694 368.164 301.053 373.512" stroke="#BBBBBB" stroke-width="4.07102" stroke-linecap="round"/>
<path d="M367.899 373.215C369.236 373.215 375.921 367.867 385.28 373.215" stroke="#BBBBBB" stroke-width="4.07102" stroke-linecap="round"/>
<path d="M357.204 218.428L341.32 200.082C340.451 199.078 340.414 197.599 341.232 196.553V196.553C342.177 195.344 343.924 195.13 345.133 196.076L354.473 203.386C355.551 204.231 356.983 204.473 358.279 204.031V204.031C361.366 202.978 364.369 205.815 363.492 208.956L362.925 210.986C362.611 212.109 362.688 213.306 363.141 214.381L374.957 242.387C376.05 244.976 374.149 247.841 371.339 247.841V247.841C369.733 247.841 368.289 246.863 367.693 245.371L360.271 226.804" stroke="#BBBBBB" stroke-width="4.07102" stroke-linecap="round"/>
<path d="M362.085 224.765L339.652 246.155C338.048 247.685 335.431 247.286 334.355 245.349C333.633 244.049 333.843 242.43 334.874 241.357L348.267 227.428C349.193 226.466 349.324 224.99 348.584 223.88C347.142 221.717 349.118 218.913 351.64 219.544L353.63 220.041C354.629 220.291 355.687 220.105 356.541 219.531L357.411 218.946C361.217 216.387 365.405 221.599 362.085 224.765Z" stroke="#BBBBBB" stroke-width="4.07102" stroke-linecap="round"/>
<path d="M300.427 242.386L309.715 210.151C310.1 208.815 311.494 208.042 312.832 208.424C314.105 208.788 314.88 210.074 314.607 211.369L307.696 244.196C307.331 245.931 305.801 247.172 304.028 247.172C301.535 247.172 299.736 244.783 300.427 242.386Z" stroke="#BBBBBB" stroke-width="4.07102" stroke-linecap="round"/>
</svg>
