<svg width="600" height="313" viewBox="0 0 600 313" fill="none" xmlns="http://www.w3.org/2000/svg">
<path d="M101.955 296H79C73.4771 296 69 291.523 69 286V27C69 21.4772 73.4772 17 79 17H522C527.523 17 532 21.4772 532 27V286C532 291.523 527.523 296 522 296H463.523M185.779 296H402.543" stroke="#1A4CE0" stroke-width="3.06"/>
<path d="M107 267.5H181C183.485 267.5 185.5 269.515 185.5 272V294.5C185.5 296.985 183.485 299 181 299H107C104.515 299 102.5 296.985 102.5 294.5V272C102.5 269.515 104.515 267.5 107 267.5Z" stroke="#BBBBBB" stroke-width="3"/>
<path d="M103 270L106.157 264.211C107.91 260.999 111.277 259 114.936 259H174.188C178.543 259 182.397 261.818 183.717 265.968L185 270" stroke="#BBBBBB" stroke-width="3" stroke-linecap="round"/>
<rect x="59.5" y="7.5" width="482" height="298" rx="16.5" stroke="#1A4CE0" stroke-width="3"/>
<g clip-path="url(#clip0_104_856)">
<path d="M119.54 147.535C145.074 140.882 171.41 137.92 197.685 135.518C286.045 127.433 374.963 125.436 463.598 129.538C471.367 129.899 479.25 130.327 486.609 132.841C484.508 134.925 481.175 134.914 478.221 134.774C358.541 129.043 238.144 130.514 119.54 147.535Z" fill="#1A4CE0"/>
<path d="M289.829 109.176C290.33 107.713 289.105 106.116 287.634 105.638C286.163 105.16 284.566 105.487 283.056 105.817C282.6 105.918 282.096 106.046 281.839 106.435C281.669 106.69 281.641 107.011 281.615 107.316C281.428 109.601 281.241 111.889 281.051 114.173C280.22 113.309 279.702 112.151 279.619 110.954C279.524 109.646 279.929 108.312 279.649 107.028C279.37 105.744 277.879 104.57 276.791 105.305C276.058 104.964 276.956 103.885 277.762 103.831C278.567 103.778 279.719 103.647 279.686 102.839C279.538 99.298 279.389 95.7238 280.019 92.2364C280.55 89.2859 282.387 85.8935 285.385 85.9998C287.886 86.0893 289.538 88.5979 290.5 90.908C291.706 93.7997 292.525 96.8537 292.936 99.9608C293.057 100.878 293.448 102.072 294.368 102.011C295.28 101.949 295.52 100.719 295.445 99.807C295.199 96.8089 294.609 93.2348 296.894 91.2799C298.239 90.1277 300.155 89.9963 301.925 89.9207C302.859 89.8816 303.829 89.8452 304.691 90.2116C306.397 90.9359 307.138 93.0698 306.85 94.9016C306.565 96.7334 305.496 98.3359 304.456 99.8713C306.383 99.9636 308.287 100.481 309.999 101.373C311.215 102.008 312.348 102.85 313.139 103.968C314.882 106.432 314.613 110.026 312.773 112.417C310.933 114.808 307.753 115.988 304.747 115.723C302.968 115.566 301.038 114.984 299.497 115.885C298.801 116.291 298.012 115.519 297.624 114.811C296.105 112.028 295.551 108.731 296.08 105.607C294.908 105.481 294.019 106.746 293.915 107.917C293.815 109.089 294.209 110.253 294.226 111.43C294.242 112.607 293.675 113.969 292.52 114.196C290.456 113.656 289.138 111.192 289.829 109.176ZM284.742 89.7585C284.018 89.904 283.609 90.6591 283.333 91.3414C281.962 94.7142 281.353 98.3947 281.562 102.03C281.587 102.467 281.649 102.953 281.99 103.23C282.329 103.501 282.81 103.465 283.24 103.415C284.938 103.211 286.638 103.006 288.336 102.805C288.571 102.777 288.82 102.741 288.993 102.581C289.245 102.346 289.228 101.949 289.189 101.605C288.803 98.28 288.003 95.0079 286.924 91.8393C286.568 90.7933 285.822 89.5432 284.742 89.7585ZM310.147 107.744C310.295 106.48 309.098 105.476 307.938 104.956C305.991 104.08 303.776 103.82 301.679 104.217C301.217 104.304 300.731 104.444 300.437 104.807C300.054 105.283 300.132 105.968 300.227 106.569C300.412 107.733 300.65 108.991 301.525 109.777C301.799 110.023 302.121 110.208 302.456 110.359C304.598 111.34 307.292 110.963 309.084 109.433C309.605 108.991 310.069 108.421 310.147 107.744ZM298.896 100.098C300.692 98.4338 302.339 96.6076 303.81 94.6499C304.294 94.0039 303.899 93.0111 303.217 92.5804C302.535 92.1497 301.682 92.1301 300.873 92.1217C300.18 92.1133 299.458 92.1133 298.826 92.4014C298.194 92.6894 297.679 93.3606 297.803 94.0458C298.169 96.0622 298.532 98.0786 298.896 100.098Z" fill="#1A4CE0"/>
<path d="M233.592 113.105C233.505 114.193 231.883 114.518 231.03 113.838C230.177 113.158 229.928 111.989 229.735 110.918C228.865 106.094 227.998 101.27 227.128 96.4482C226.636 96.3056 226.259 96.8817 226.068 97.3572C224.449 101.396 222.83 105.434 221.208 109.472C220.886 110.278 219.717 110.415 218.979 109.956C218.243 109.497 217.841 108.667 217.48 107.881C215.861 104.374 214.244 100.87 212.625 97.3627C212.085 98.9345 211.998 100.621 211.915 102.282C211.727 105.971 211.543 109.66 211.355 113.346C211.313 114.154 211.255 115.018 210.762 115.661C209.677 114.903 209.456 113.416 209.342 112.096C208.869 106.692 208.542 101.211 209.54 95.8805C209.887 94.0291 210.891 91.8002 212.776 91.8365C214.392 91.8673 215.38 93.5733 216.04 95.0471C217.002 97.2005 217.967 99.3512 218.929 101.505C220.623 99.4519 221.04 96.6552 222.212 94.264C223.384 91.8729 226.094 89.7083 228.53 90.7766C230.434 91.61 231.102 93.9228 231.55 95.9504C232.797 101.597 234.053 107.344 233.592 113.105Z" fill="#1A4CE0"/>
<path d="M98.473 112.409C98.3219 107.61 98.1709 102.811 98.0199 98.0088C97.9807 96.7895 97.95 95.5254 98.4366 94.4067C98.9232 93.288 100.078 92.3595 101.281 92.5525C102.237 92.7035 102.956 93.4866 103.552 94.2501C105.199 96.356 106.55 98.6912 107.557 101.169C108.465 97.9445 109.833 94.8514 111.606 92.0099C112.504 90.5725 113.754 89.0567 115.449 89.0147C116.786 88.9811 117.988 89.9404 118.637 91.1094C119.286 92.2784 119.482 93.6376 119.658 94.9632C120.514 101.432 121.123 107.931 121.478 114.448C121.529 115.357 121.4 116.528 120.525 116.783C119.568 117.06 118.824 115.941 118.517 114.993C116.319 108.27 117.812 100.75 115.533 94.0543C113.091 99.0128 111.097 104.192 109.587 109.509C109.324 110.434 107.99 110.644 107.182 110.124C106.374 109.604 105.974 108.65 105.621 107.755C104.24 104.254 102.858 100.755 101.477 97.2537C101.024 97.1614 100.783 97.7683 100.733 98.2297C100.148 103.443 99.9104 108.695 100.017 113.939C99.7119 114.302 99.077 114.151 98.7946 113.771C98.5121 113.39 98.4897 112.881 98.473 112.409Z" fill="#1A4CE0"/>
<path d="M162.368 113.883C161.308 113.676 161.006 112.328 160.942 111.248C160.699 107.21 160.648 103.163 160.791 99.1189C160.88 96.5991 161.378 93.5787 163.7 92.5943C165.498 91.8308 167.657 92.776 168.896 94.2862C170.135 95.7964 170.669 97.7485 171.169 99.6363C171.79 98.4785 172.411 97.3206 173.032 96.1628C173.893 94.5575 174.802 92.8963 176.276 91.8224C177.75 90.7485 179.962 90.4576 181.333 91.6546C182.18 92.3957 182.549 93.5283 182.848 94.6135C184.577 100.861 185.253 107.4 184.842 113.869C184.784 114.775 183.419 115.043 182.72 114.461C182.02 113.88 181.847 112.895 181.718 111.998C180.921 106.435 180.124 100.872 179.325 95.3098C175.655 98.2799 175.096 103.529 173.566 107.998C173.275 108.846 172.8 109.802 171.913 109.945C170.705 110.141 169.928 108.734 169.533 107.573C168.415 104.276 167.293 100.976 166.175 97.6786C165.976 97.0941 165.12 96.9822 164.614 97.3346C164.108 97.687 163.881 98.319 163.73 98.9175C162.497 103.806 164.22 109.201 162.368 113.883Z" fill="#1A4CE0"/>
<path d="M422.358 106.631C424.629 103.088 420.769 97.9277 422.976 94.3424C423.821 92.9692 425.376 92.2085 426.897 91.6744C428.211 91.2129 429.596 90.8577 430.983 90.9696C432.37 91.0815 433.771 91.7191 434.532 92.8853C435.715 94.7004 435.052 97.1223 434.137 99.0856C432.865 101.815 431.17 104.346 429.129 106.558C428.883 106.827 429.266 107.21 429.601 107.355C432.473 108.605 435.706 109.005 438.797 108.496C439.381 108.398 439.929 108.949 439.994 109.54C440.058 110.13 439.748 110.703 439.339 111.131C437.6 112.963 434.63 112.535 432.171 111.967C430.219 111.517 428.27 111.066 426.318 110.616C426.57 111.399 426.827 112.205 426.763 113.024C426.698 113.844 426.234 114.688 425.457 114.948C424.676 115.208 423.664 114.613 423.714 113.79C423.835 111.844 423.437 109.867 422.573 108.116C422.338 107.646 422.075 107.073 422.358 106.631ZM425.303 104.089C427.823 101.572 429.912 98.6269 431.453 95.4163C430.541 94.6081 429.176 94.4766 427.996 94.7787C426.813 95.0807 425.767 95.7575 424.746 96.4231C424.486 96.5937 424.212 96.7755 424.078 97.058C423.941 97.3432 423.974 97.6788 424.014 97.9948C424.268 100.059 424.701 102.098 425.303 104.089Z" fill="#1A4CE0"/>
<path d="M335.309 98.2184C335.283 96.3391 335.462 94.4569 335.84 92.6167C335.915 92.2503 336.013 91.856 336.304 91.6155C336.545 91.4169 336.872 91.3638 337.179 91.3162C340.913 90.7625 344.649 90.2088 348.383 89.655C349.446 89.4984 350.704 89.4033 351.426 90.2032C352.368 91.2463 351.543 93.0474 350.268 93.6375C348.993 94.2304 347.513 94.0346 346.109 93.9927C343.455 93.9143 340.569 94.3786 338.329 92.9523C337.798 92.6139 337.389 93.5396 337.428 94.1688C337.602 96.9264 337.778 99.6839 337.951 102.441C339.719 101.667 341.486 100.892 343.254 100.117C343.883 99.8405 344.535 99.5608 345.223 99.5636C345.911 99.5664 346.643 99.9356 346.853 100.59C347.035 101.155 346.792 101.759 346.554 102.302C346.196 103.121 345.639 104.077 344.745 104.066C342.907 104.044 341.067 104.36 339.344 104.995C339.084 105.09 338.818 105.199 338.637 105.409C338.382 105.705 338.357 106.13 338.346 106.522C338.315 107.551 338.293 108.616 338.698 109.565C339.104 110.51 340.063 111.301 341.084 111.167C343.156 110.893 345.226 110.616 347.298 110.342C348.794 110.143 350.637 110.096 351.437 111.374C352.329 112.797 351.037 114.73 349.448 115.278C347.86 115.829 346.123 115.516 344.445 115.572C343.055 115.619 341.679 115.924 340.287 115.902C338.897 115.879 337.412 115.46 336.559 114.358C335.955 113.578 335.748 112.568 335.56 111.598C335.244 109.964 334.925 108.303 335.102 106.65C335.16 106.111 335.269 105.565 335.16 105.034" fill="#1A4CE0"/>
<path d="M137.856 112.339C137.87 113.365 136.273 113.695 135.521 112.999C134.768 112.3 134.67 111.164 134.623 110.138C134.533 108.197 134.444 106.256 134.352 104.315C134.198 100.987 134.044 97.6396 134.505 94.3395C134.578 93.8222 135.006 93.1398 135.437 93.4362C135.465 94.6024 136.41 95.5002 137.151 96.4007C138.186 97.6592 138.91 99.1358 139.626 100.601C141.133 103.686 142.641 106.771 144.148 109.855C144.887 108.418 144.884 106.726 144.864 105.11C144.828 102.179 144.792 99.2449 144.755 96.314C144.744 95.3715 144.736 94.4039 145.052 93.5145C145.368 92.6252 146.078 91.8169 147.009 91.6575C147.938 91.4981 149.001 92.2169 148.975 93.1621C148.841 97.8689 148.707 102.573 148.57 107.28C148.494 109.937 148.29 112.895 146.346 114.71C146.019 115.018 145.6 115.295 145.152 115.242C144.694 115.189 144.35 114.806 144.062 114.442C142.076 111.928 140.546 109.058 139.565 106.007C139.109 104.587 138.737 103.068 137.727 101.972C137.769 105.428 137.811 108.882 137.856 112.339Z" fill="#1A4CE0"/>
<path d="M487.268 94.6136C488.972 95.2736 490.317 96.616 491.472 98.0311C492.154 98.8673 492.797 99.7483 493.253 100.727C494.593 103.605 494.092 107.246 492.025 109.657C489.959 112.068 486.438 113.119 483.387 112.233C482.715 112.037 482.209 112.912 482.248 113.611C482.287 114.311 482.578 115.035 482.318 115.684C481.874 116.797 480.106 116.707 479.334 115.79C478.565 114.873 478.515 113.569 478.501 112.372C478.448 107.319 478.395 102.265 478.341 97.2117C478.336 96.7251 478.758 96.3503 479.158 96.0707C481.51 94.4346 484.603 93.5816 487.268 94.6136ZM480.928 97.3907C480.769 97.4886 480.609 97.6032 480.514 97.7654C480.355 98.0339 480.397 98.3723 480.447 98.6799C480.872 101.396 481.3 104.108 481.725 106.824C481.778 107.159 481.893 107.568 482.223 107.646C484.027 108.071 485.985 108.189 487.685 107.45C489.385 106.712 490.731 104.942 490.512 103.099C490.426 102.366 490.11 101.678 489.743 101.038C488.862 99.4938 487.635 98.0954 486.038 97.3152C484.438 96.5349 482.441 96.4566 480.928 97.3907Z" fill="#1A4CE0"/>
<path d="M199.516 93.9396C200.383 93.8529 201.441 93.8529 201.894 94.5968C202.033 94.8261 202.089 95.0974 202.14 95.3603C203.158 100.719 202.842 106.326 201.228 111.533C200.68 113.304 199.846 115.183 198.174 115.986C196.751 116.671 194.991 116.374 193.66 115.521C192.329 114.668 191.375 113.334 190.654 111.928C187.966 106.684 188.229 100.481 188.556 94.5968C188.565 94.4346 188.581 94.2556 188.693 94.1353C189.046 93.7578 189.563 94.4066 189.655 94.9156C190.587 100.092 190.553 105.719 193.523 110.062C194.01 110.773 194.754 111.505 195.596 111.332C196.421 111.161 196.818 110.236 197.044 109.425C198.149 105.47 198.331 101.261 197.564 97.2285C197.38 96.2552 197.206 95.075 197.953 94.4262C198.373 94.0682 198.963 93.9955 199.516 93.9396Z" fill="#1A4CE0"/>
<path d="M410.987 110.09C410.581 109.665 409.93 109.618 409.342 109.598C408.333 109.565 407.29 109.537 406.353 109.914C405.416 110.292 404.61 111.189 404.672 112.196C404.725 113.058 404.778 113.919 404.828 114.78C404.856 115.231 404.661 115.879 404.224 115.756C403.377 116.246 403.008 113.79 403.128 112.753C403.248 111.715 403.254 110.653 402.258 110.334C401.763 110.174 401.506 110.199 400.997 110.3C400.488 110.404 399.878 110.395 399.551 109.992C399.224 109.59 399.632 108.79 400.102 109.008C401.514 108.877 402.748 108.807 403.044 107.599C403.195 106.98 403.064 106.334 402.957 105.705C402.429 102.609 402.552 99.4015 403.313 96.3531C403.752 94.5912 404.58 92.6951 406.272 92.0379C407.908 91.403 409.829 92.2196 410.973 93.5509C412.117 94.8821 412.645 96.6244 413.081 98.3248C413.792 101.091 414.34 103.896 414.726 106.723C415.168 107.059 415.713 106.843 416.395 106.631C417.422 106.276 418.381 106.086 418.787 107.028C419.189 107.97 418.348 108.851 417.324 108.952C416.27 109.056 415.456 109.998 415.162 111.016C414.871 112.034 414.994 113.116 415.117 114.168C415.215 114.982 414.301 115.661 413.49 115.535C412.679 115.41 412.061 114.702 411.778 113.93C411.496 113.158 411.482 112.322 411.431 111.503C411.401 111.002 411.336 110.457 410.987 110.09ZM410.811 106.757C410.721 103.529 410.117 100.319 409.026 97.2788C408.805 96.6608 408.534 96.0119 407.989 95.6484C407.443 95.2848 406.548 95.3855 406.311 95.9952C404.773 99.9357 404.219 104.257 404.717 108.457C406.515 108.172 408.313 107.884 410.111 107.599C410.318 107.565 410.542 107.523 410.679 107.364C410.813 107.204 410.816 106.969 410.811 106.757Z" fill="#1A4CE0"/>
<path d="M253.948 110.169C252.351 104.349 250.31 98.652 247.846 93.1426C247.583 92.5553 248.416 91.9652 249.026 92.1749C249.636 92.3847 249.98 93.0139 250.268 93.5901C252.091 97.2341 253.912 100.881 255.735 104.525C256.376 101.401 257.016 98.2745 257.654 95.1506C257.872 94.0907 258.098 93.0055 258.658 92.0798C259.22 91.1542 260.193 90.4018 261.275 90.4074C262.358 90.413 263.426 91.3975 263.264 92.4686C262.246 99.1442 261.211 105.884 258.739 112.168C258.568 112.605 258.378 113.052 258.026 113.363C257.243 114.048 255.945 113.734 255.226 112.982C254.51 112.224 254.222 111.173 253.948 110.169Z" fill="#1A4CE0"/>
<path d="M375.033 97.4046C374.546 95.6483 372.714 94.3702 370.899 94.5213C370.253 94.5744 369.593 94.8093 369.185 95.3127C368.777 95.8133 368.704 96.616 369.143 97.0914C369.87 97.8773 370.595 98.6631 371.322 99.449C373.271 101.56 375.243 103.703 376.582 106.245C377.922 108.787 378.576 111.819 377.732 114.568C377.472 115.418 377.066 116.235 376.482 116.906C374.876 118.754 372.032 119.244 369.742 118.377C367.451 117.51 365.731 115.471 364.861 113.181C364.534 112.319 364.375 111.209 365.066 110.602C365.933 109.841 367.297 110.555 368.078 111.405C368.749 112.135 369.308 112.974 370.072 113.611C370.832 114.246 371.884 114.66 372.824 114.344C374.239 113.866 374.678 112.042 374.465 110.563C373.822 106.111 369.677 103.163 367.065 99.5021C365.921 97.8996 365.052 95.7154 366.053 94.0206C366.57 93.1425 367.507 92.5832 368.477 92.2699C371.02 91.4533 374.197 92.4042 375.388 94.7953C375.816 95.6623 375.863 96.9124 375.033 97.4046Z" fill="#1A4CE0"/>
<path d="M330.952 109.699C332.235 109.78 333.731 110.062 334.299 111.215C334.945 112.526 333.868 114.137 332.509 114.677C331.15 115.214 329.632 115.024 328.172 114.99C325.417 114.926 322.257 115.306 320.302 113.365C318.526 111.601 318.638 108.745 318.873 106.251C319.25 102.26 319.625 98.2689 320.003 94.2808C320.078 93.4698 320.556 92.3763 321.325 92.642C321.753 92.7902 321.916 93.2992 322.011 93.7438C322.872 97.8382 322.802 102.067 322.59 106.245C322.531 107.425 322.581 108.849 323.594 109.458C324.184 109.814 324.925 109.76 325.613 109.716C327.389 109.593 329.173 109.587 330.952 109.699Z" fill="#1A4CE0"/>
<path d="M161.72 236.363C162.192 236.696 162.835 236.542 163.386 236.377C164.718 235.98 166.099 235.552 167.112 234.598C168.574 233.222 168.952 231.043 168.932 229.033C168.91 226.267 168.306 223.543 167.702 220.844C166.675 222.452 165.21 224.273 163.325 223.987C162.698 223.892 162.128 223.56 161.658 223.137C160.584 222.17 159.997 220.676 160.176 219.242C160.355 217.807 161.322 216.487 162.654 215.93C164.259 215.259 166.088 215.701 167.769 216.154C168.155 216.257 168.56 216.372 168.845 216.652C169.103 216.904 169.229 217.259 169.343 217.603C170.216 220.226 170.865 222.925 171.281 225.657C171.623 227.906 171.807 230.213 171.343 232.439C170.879 234.665 169.696 236.816 167.786 238.049C166.793 238.69 165.646 239.059 164.488 239.299C163.012 239.604 161.292 239.635 160.209 238.583C159.298 237.7 159.121 236.259 159.446 235.032C159.768 233.804 160.509 232.733 161.236 231.692C162.036 230.546 163.068 229.273 164.466 229.298C163.585 230.795 162.707 232.288 161.826 233.784C161.353 234.606 160.942 235.817 161.72 236.363ZM162.981 220.917C163.168 221.048 163.392 221.14 163.619 221.124C163.837 221.107 164.038 220.995 164.22 220.872C165.375 220.095 166.191 218.828 166.418 217.454C165.397 216.834 163.979 216.959 163.084 217.754C162.178 218.559 161.988 220.218 162.981 220.917Z" fill="#1A4CE0"/>
<path d="M270.695 227.872C268.622 226.334 268.578 223.123 269.738 220.816C270.58 219.146 272.017 217.689 273.83 217.234C274.809 216.987 275.832 217.041 276.839 217.094C277.742 217.141 278.646 217.192 279.549 217.239C279.686 213.055 279.82 208.869 279.957 204.685C279.985 203.824 280.251 202.696 281.112 202.643C282.021 202.587 282.393 203.782 282.432 204.693C282.673 210.569 281.557 216.478 282.262 222.318C282.494 224.231 282.871 226.353 281.778 227.942C281.224 226.899 280.67 225.858 280.117 224.815C278.869 226.133 277.538 227.433 275.877 228.166C274.218 228.896 272.152 228.954 270.695 227.872ZM278.869 221.319C279.051 220.883 279.191 220.413 279.141 219.944C279.115 219.72 279.043 219.493 278.894 219.328C278.676 219.088 278.338 219.007 278.016 218.959C275.896 218.657 273.651 219.488 272.236 221.093C271.517 221.91 270.994 222.989 271.164 224.063C271.335 225.137 272.395 226.091 273.458 225.858C275.846 225.33 277.932 223.579 278.869 221.319Z" fill="#1A4CE0"/>
<path d="M474.429 97.3766C475.525 102.005 475.909 106.964 474.334 111.452C473.601 113.541 472.127 115.706 469.926 115.921C468.408 116.07 466.928 115.203 465.966 114.017C465.004 112.831 464.476 111.36 464.009 109.909C462.672 105.758 461.701 101.491 461.111 97.1697C461.061 96.7921 461.041 96.3391 461.343 96.107C461.931 95.6567 462.574 96.6048 462.728 97.3291C463.74 102.139 465.334 106.827 467.465 111.257C467.879 112.115 469.171 112.193 469.938 111.626C470.701 111.058 471.042 110.09 471.266 109.165C472.063 105.853 471.873 102.31 470.721 99.105C470.41 98.2436 470.03 97.3822 470.01 96.4649C469.991 95.5504 470.452 94.5436 471.325 94.2695C472.113 94.0206 472.992 94.4485 473.503 95.0974C474.015 95.749 474.239 96.574 474.429 97.3766Z" fill="#1A4CE0"/>
<path d="M211.425 175.255C212.16 175.2 213.156 175.848 212.711 176.436C211.265 176.243 209.825 177.121 209.025 178.343C208.225 179.565 207.974 181.067 207.94 182.527C207.904 184.043 208.094 185.595 208.751 186.962C209.408 188.33 210.583 189.496 212.043 189.904C214.618 190.623 217.46 188.638 218.123 186.045C218.785 183.452 217.563 180.622 215.527 178.886C214.971 178.41 214.339 177.982 213.981 177.342C213.623 176.701 213.668 175.756 214.297 175.384C214.722 175.132 215.262 175.216 215.731 175.365C218.931 176.363 220.861 179.775 221.241 183.103C221.523 185.581 221.093 188.196 219.703 190.268C218.313 192.338 215.885 193.772 213.396 193.646C210.955 193.521 208.734 191.924 207.476 189.826C206.217 187.729 205.834 185.198 205.982 182.756C206.083 181.07 206.441 179.361 207.339 177.929C208.236 176.5 209.741 175.384 211.425 175.255Z" fill="#1A4CE0"/>
<path d="M357.724 184.566C356.949 184.552 355.861 184.899 356.046 185.651C356.546 187.698 356.695 189.829 356.488 191.924C356.401 192.785 355.942 193.893 355.087 193.761C354.622 193.688 354.309 193.255 354.097 192.835C353.325 191.314 353.174 189.491 353.686 187.863C353.906 187.158 354.25 186.426 354.049 185.715C353.803 184.837 352.796 184.376 351.884 184.376C350.973 184.376 350.1 184.72 349.208 184.91C348.707 185.016 348.134 185.061 347.734 184.742C347.334 184.423 347.368 183.626 347.871 183.525C349.446 183.212 351.023 182.899 352.598 182.586C352.83 182.541 353.076 182.485 353.238 182.317C353.451 182.099 353.462 181.761 353.459 181.459C353.442 178.919 353.425 176.377 353.406 173.838C353.403 173.292 353.42 172.685 353.797 172.291C354.175 171.897 355.028 172.009 355.067 172.554C355.212 174.629 355.358 176.704 355.506 178.782C355.568 179.641 355.64 180.539 356.093 181.271C356.549 182.001 357.517 182.491 358.294 182.119C359.307 181.635 360.582 182.194 361.22 183.117C361.855 184.043 361.978 185.223 361.952 186.344C363.035 184.451 364.813 182.969 366.869 182.242C367.677 181.956 368.628 181.8 369.347 182.264C370.066 182.728 370.189 184.026 369.397 184.353C365.748 185.855 363.063 189.471 362.674 193.398C362.624 193.912 361.899 194.119 361.452 193.856C361.004 193.596 360.792 193.07 360.641 192.575C359.914 190.179 359.903 187.569 360.61 185.17C360.719 184.801 360.185 184.608 359.799 184.602C359.114 184.588 358.417 184.577 357.724 184.566Z" fill="#1A4CE0"/>
<path d="M303.947 229.31C303.217 229.276 302.481 229.128 301.83 228.795C300.759 228.252 299.984 227.254 299.411 226.2C297.755 223.157 297.534 219.566 297.352 216.106C297.123 211.786 296.894 207.465 296.664 203.144C296.642 202.719 296.633 202.246 296.913 201.925C297.193 201.603 297.861 201.662 297.912 202.084C298.504 207.199 299.1 212.311 299.693 217.426C299.836 218.66 299.998 219.943 300.683 220.978C302.129 218.71 305.471 217.916 307.784 219.292C310.097 220.668 310.994 223.982 309.691 226.334C308.592 228.325 306.215 229.419 303.947 229.31ZM307.317 222.254C306.559 221.222 304.934 221.199 303.838 221.865C302.741 222.53 302.051 223.683 301.413 224.793C301.256 225.064 301.097 225.372 301.167 225.677C301.262 226.079 301.707 226.284 302.107 226.387C302.957 226.605 303.854 226.63 304.716 226.46C305.681 226.27 306.629 225.808 307.205 225.011C307.784 224.211 307.898 223.045 307.317 222.254Z" fill="#1A4CE0"/>
<path d="M387.299 100.358C387.316 99.7175 386.446 99.5189 385.806 99.5357C384.796 99.5609 383.789 99.586 382.78 99.6084C382.232 99.6224 381.541 99.5413 381.367 99.0239C381.138 98.3443 382.027 97.8633 382.727 97.7039C386.905 96.7502 391.147 96.079 395.415 95.6903C396.148 95.6232 396.959 95.5896 397.535 96.0483C398.505 96.8229 398.05 98.5289 396.995 99.1861C395.941 99.8433 394.604 99.7706 393.365 99.6755C392.716 99.6252 392.07 99.5749 391.421 99.5245C391.049 99.4966 390.65 99.4742 390.334 99.6699C389.676 100.075 389.813 101.052 390.015 101.795C390.996 105.414 391.586 109.142 391.777 112.887C391.824 113.832 391.821 114.861 391.242 115.614C390.666 116.363 389.296 116.523 388.86 115.681C387.825 113.69 387.593 111.388 387.453 109.148C387.268 106.22 387.221 103.289 387.299 100.358Z" fill="#1A4CE0"/>
<path d="M351.728 218.956C352.477 219.633 352.908 220.947 352.128 221.588C351.641 220.215 349.919 219.577 348.506 219.938C347.094 220.299 345.995 221.423 345.226 222.659C344.42 223.954 343.981 225.85 345.125 226.86C346.358 227.95 348.336 227.069 349.474 225.881C350.612 224.689 351.571 223.14 353.157 222.704C352.788 216.378 352.419 210.049 352.05 203.723C352.022 203.244 351.996 202.747 352.195 202.31C352.391 201.874 352.886 201.533 353.342 201.676C353.593 209.585 354.273 217.482 355.378 225.319C355.503 226.222 355.266 227.542 354.36 227.438C353.185 227.304 353.719 225.137 352.701 224.538C352.212 226.773 350.744 228.87 348.615 229.715C346.49 230.56 343.746 229.883 342.561 227.928C341.501 226.18 341.842 223.887 342.753 222.055C343.57 220.416 344.868 218.953 346.563 218.254C348.257 217.552 350.366 217.731 351.728 218.956Z" fill="#1A4CE0"/>
<path d="M446.516 96.5994C446.921 96.4009 447.621 96.4708 448.057 96.3561C448.871 96.138 449.382 96.1827 450.221 96.2554C451.539 96.3673 452.8 95.6849 454.12 95.5982C455.44 95.5115 457.048 96.5882 456.606 97.8356C456.318 98.6494 455.32 98.9738 454.456 98.9458C453.591 98.9207 452.73 98.6606 451.874 98.7892C451.018 98.9179 450.149 99.6618 450.325 100.509C451.111 104.285 451.575 108.125 451.712 111.978C451.74 112.775 451.734 113.64 451.262 114.28C450.789 114.92 449.659 115.108 449.237 114.431C448.088 112.588 447.959 110.312 447.861 108.141C447.746 105.574 447.629 103.009 447.514 100.442C447.5 100.162 447.481 99.8631 447.31 99.645C447.086 99.3597 446.686 99.2982 446.323 99.2786C445.098 99.2143 443.865 99.3877 442.642 99.2842C441.42 99.1808 440.139 98.7417 439.426 97.7433C441.395 96.3142 444.332 97.6678 446.516 96.5994Z" fill="#1A4CE0"/>
<path d="M383.982 216.632C384.083 216.747 384.105 216.906 384.125 217.055C384.324 218.651 384.522 220.248 384.721 221.848C385.305 222.069 385.652 221.213 385.764 220.595C386.055 218.995 387.036 217.485 388.499 216.775C389.962 216.065 391.889 216.291 392.999 217.477C393.852 218.389 394.134 219.681 394.383 220.906C394.694 222.435 395.004 223.965 395.315 225.495C395.524 226.524 395.709 227.679 395.124 228.549C394.54 229.421 392.862 229.438 392.672 228.406C392.191 225.789 391.71 223.171 391.231 220.553C391.108 219.879 390.127 219.695 389.565 220.086C389.002 220.478 388.762 221.182 388.561 221.837C387.912 223.934 387.263 226.032 386.614 228.129C386.292 229.17 384.654 229.17 383.935 228.353C383.213 227.534 383.16 226.342 383.143 225.254C383.104 222.723 383.068 220.19 383.029 217.659C383.023 217.351 383.026 217.021 383.197 216.766C383.367 216.515 383.778 216.403 383.982 216.632Z" fill="#1A4CE0"/>
<path d="M171.1 182.672C171.97 181.489 173.262 180.622 174.688 180.267C175.888 179.968 177.219 180.043 178.276 180.681C180.281 181.889 180.659 184.963 179.258 186.839C177.857 188.716 175.133 189.317 172.918 188.557C172.397 188.378 172.165 189.222 172.353 189.74C172.965 191.434 174.926 192.517 176.685 192.136C177.353 191.991 177.974 191.666 178.645 191.543C179.316 191.418 180.113 191.555 180.485 192.128C179.532 194.01 177.275 195.07 175.18 194.802C173.085 194.536 171.24 193.059 170.317 191.163C169.394 189.267 169.344 187.007 169.967 184.991C170.222 184.163 170.588 183.369 171.1 182.672ZM172.512 186.263C172.448 186.529 172.495 186.909 172.767 186.94C174.436 187.122 176.173 186.398 177.222 185.086C177.437 184.817 177.624 184.437 177.431 184.152C177.345 184.023 177.199 183.95 177.054 183.895C175.256 183.181 172.957 184.378 172.512 186.263Z" fill="#1A4CE0"/>
<path d="M239.607 183.556C239.039 182.504 240.261 181.33 241.422 181.053C244.112 180.418 247.141 182.244 247.832 184.921C248.522 187.597 246.761 190.665 244.098 191.412C242.898 191.747 242.264 193.115 242.25 194.362C242.233 195.607 242.669 196.809 242.876 198.037C243.111 199.436 243.044 200.887 242.683 202.257C242.616 202.515 242.526 202.786 242.322 202.957C241.696 203.48 240.834 202.638 240.544 201.877C239.126 198.177 240.158 193.856 238.622 190.204C238.412 189.709 238.843 189.203 239.173 188.777C240.306 187.315 240.482 185.181 239.607 183.556ZM242.093 189.398C243.161 188.313 245.055 188.006 245.58 186.574C245.902 185.698 245.533 184.686 244.884 184.018C244.235 183.349 243.351 182.966 242.473 182.656C242.305 182.597 242.121 182.538 241.947 182.583C241.525 182.695 241.48 183.265 241.522 183.699C241.713 185.6 241.903 187.499 242.093 189.398Z" fill="#1A4CE0"/>
<path d="M217.656 217.667C218.506 220.114 217.93 223.003 216.207 224.938C214.484 226.874 211.685 227.78 209.154 227.22C208.463 227.067 207.789 226.812 207.199 226.421C205.65 225.397 204.805 223.456 204.964 221.607C205.127 219.759 206.231 218.047 207.775 217.015C208.522 216.515 209.361 216.165 210.191 215.821C210.826 215.558 211.461 215.293 212.093 215.03C212.622 214.809 213.161 214.588 213.729 214.535C215.527 214.37 217.063 215.961 217.656 217.667ZM209.881 223.909C211.377 224.113 212.963 223.428 213.841 222.2C214.719 220.97 214.851 219.25 214.171 217.899C214 217.561 213.777 217.236 213.461 217.027C212.443 216.341 211.095 217.074 210.113 217.81C209.319 218.402 208.516 219.026 208.002 219.874C207.487 220.718 207.311 221.845 207.82 222.695C208.239 223.403 209.062 223.797 209.881 223.909Z" fill="#1A4CE0"/>
<path d="M414.612 227.567C414.086 227.833 413.493 227.948 412.906 227.967C410.445 228.051 408.053 226.365 407.217 224.049C406.381 221.733 407.105 218.965 408.901 217.278C410.696 215.595 413.443 215.038 415.783 215.799C417.235 216.269 417.94 218.095 417.498 219.558C417.059 221.017 415.736 222.077 414.301 222.598C412.866 223.118 411.314 223.182 409.79 223.238C410.512 224.379 411.983 224.989 413.3 224.692C414.53 224.415 415.976 223.498 416.869 224.39C416.499 225.677 415.806 226.966 414.612 227.567ZM416.01 218.822C413.54 217.745 410.305 219.132 409.382 221.663C411.857 221.691 414.324 220.634 416.01 218.822Z" fill="#1A4CE0"/>
<path d="M326.614 215.659C328.155 216.887 328.264 219.362 327.199 221.02C326.136 222.679 324.195 223.599 322.254 223.937C321.494 224.069 321.544 225.266 322.103 225.797C323.983 227.587 327.255 225.196 329.629 226.25C328.989 227.886 327.534 229.178 325.834 229.62C324.134 230.062 322.232 229.64 320.878 228.521C318.535 226.586 318.163 223.042 318.979 220.111C319.449 218.428 320.299 216.775 321.729 215.768C323.155 214.761 325.247 214.571 326.614 215.659ZM325.35 217.855C324.55 217.122 323.281 217.916 322.618 218.777C322.028 219.544 321.538 220.388 321.166 221.283C321.055 221.549 320.959 221.871 321.119 222.111C321.359 222.475 321.919 222.332 322.313 222.147C323.39 221.641 324.494 221.076 325.219 220.131C325.725 219.465 325.965 218.419 325.35 217.855Z" fill="#1A4CE0"/>
<path d="M137.207 220.687C137.954 218.942 139.447 217.441 141.301 217.041C143.158 216.641 145.314 217.558 146.019 219.32C146.755 221.163 147.32 223.073 147.7 225.02C147.831 225.685 147.935 226.393 147.689 227.022C147.44 227.651 146.71 228.141 146.081 227.889C145.608 227.699 145.365 227.19 145.177 226.717C144.509 225.039 144.017 223.288 143.709 221.507C143.516 220.383 141.861 220.1 140.946 220.785C140.034 221.471 139.699 222.665 139.422 223.772C139.165 224.796 138.91 225.817 138.653 226.84C138.454 227.629 137.299 227.797 136.648 227.313C135.996 226.829 135.741 225.982 135.565 225.19C134.953 222.466 134.746 219.65 134.953 216.864C135.006 216.171 136.158 216.162 136.527 216.753C136.896 217.343 136.743 218.101 136.653 218.791C136.564 219.485 136.62 220.318 137.207 220.687Z" fill="#1A4CE0"/>
<path d="M430.063 216.355C430.315 216.064 430.821 216.162 431.075 216.45C431.33 216.738 431.4 217.141 431.456 217.522C431.651 218.794 431.847 220.064 432.046 221.336C432.625 221.286 432.952 220.668 433.201 220.142C433.925 218.609 434.943 217.127 436.448 216.35C437.952 215.572 440.025 215.706 441.099 217.018C441.557 217.577 441.795 218.279 441.999 218.973C442.67 221.227 443.109 223.551 443.305 225.895C443.341 226.325 443.353 226.809 443.059 227.125C442.687 227.528 441.985 227.427 441.58 227.061C441.174 226.695 440.989 226.146 440.833 225.621C440.293 223.806 439.885 221.954 439.616 220.08C439.496 219.244 438.355 218.906 437.6 219.278C436.845 219.65 436.409 220.452 436.059 221.222C435.293 222.891 434.68 224.631 434.224 226.409C433.956 227.469 432.325 227.567 431.548 226.798C430.77 226.029 430.628 224.843 430.53 223.755C430.329 221.546 430.13 219.339 429.929 217.13C429.903 216.861 429.887 216.562 430.063 216.355Z" fill="#1A4CE0"/>
<path d="M424.839 182.225C424.979 184.166 425.119 186.109 425.258 188.05C426.234 186.683 427.25 185.276 428.681 184.401C430.113 183.525 432.091 183.307 433.419 184.336C434.759 185.374 435.03 187.259 435.198 188.945C435.366 190.648 435.536 192.354 435.704 194.058C435.782 194.838 434.647 195.257 433.978 194.846C433.31 194.435 433.05 193.604 432.871 192.841C432.505 191.289 432.247 189.709 432.105 188.12C432.06 187.617 431.481 187.301 430.98 187.359C430.48 187.418 430.055 187.751 429.683 188.092C428.131 189.516 426.976 191.367 426.374 193.386C426.218 193.915 425.555 194.172 425.023 194.027C424.489 193.884 424.087 193.439 423.812 192.961C422.979 191.499 423.141 189.695 423.329 188.022C423.446 186.962 423.564 185.9 423.684 184.84C423.79 183.858 423.986 182.731 424.839 182.225Z" fill="#1A4CE0"/>
<path d="M182.588 226.924C181.352 228.152 179.316 228.345 177.717 227.646C176.12 226.949 174.94 225.498 174.243 223.901C173.166 221.434 173.301 218.193 175.353 216.451C175.767 216.098 176.262 215.813 176.805 215.754C177.311 215.698 177.82 215.838 178.31 215.981C179.73 216.386 181.198 216.82 182.326 217.776C184.431 219.569 184.753 222.883 183.601 225.397C183.344 225.954 183.022 226.491 182.588 226.924ZM176.939 218.626C176.743 218.542 176.973 218.033 176.777 218.117C175.348 218.716 175.468 220.819 176.167 222.2C176.576 223.006 177.121 223.781 177.904 224.231C178.687 224.681 179.75 224.729 180.455 224.161C181.489 223.325 181.257 221.588 180.368 220.601C179.479 219.614 178.161 219.152 176.939 218.626Z" fill="#1A4CE0"/>
<path d="M454.886 224.698C455.21 224.603 455.627 224.572 455.814 224.852C456.002 225.131 455.476 225.548 455.361 225.229C455.311 227.114 453.941 228.893 452.128 229.416C450.316 229.939 448.208 229.17 447.159 227.601C446.233 226.216 446.149 224.452 446.099 222.788C446.093 222.64 446.09 222.494 446.085 222.346C446.032 220.615 445.998 218.789 446.826 217.267C447.654 215.746 449.67 214.725 451.175 215.584C452.408 216.286 452.797 217.899 452.735 219.317C452.663 221.02 451.921 222.911 450.313 223.473C449.611 223.719 448.605 223.926 448.641 224.667C448.921 225.825 450.408 226.261 451.569 226.001C452.73 225.744 453.742 225.028 454.886 224.698ZM449.715 220.85C450.487 220.369 450.702 219.186 450.151 218.461C448.789 219.012 448.043 220.738 448.571 222.105C448.977 221.719 449.379 221.336 449.785 220.95L449.715 220.85Z" fill="#1A4CE0"/>
<path d="M416.726 189.933C417.517 188.403 418.012 186.722 418.174 185.008C418.275 183.942 418.39 182.639 419.363 182.194C420.157 181.831 421.139 182.326 421.581 183.078C422.026 183.83 422.051 184.75 421.995 185.623C421.844 187.947 421.17 190.232 420.043 192.271C419.251 193.697 418.012 195.126 416.382 195.176C415.107 195.216 413.965 194.382 413.101 193.442C410.747 190.886 409.661 187.214 410.249 183.788C411.264 183.637 411.7 185.002 411.91 186.009C412.223 187.519 412.908 188.951 413.89 190.142C414.332 190.679 414.975 191.208 415.649 191.032C416.164 190.897 416.485 190.402 416.726 189.933Z" fill="#1A4CE0"/>
<path d="M285.318 183.623C286.023 183.601 286.409 184.418 286.613 185.094C287.128 186.811 287.645 188.531 288.16 190.249C288.294 190.693 288.428 191.16 288.342 191.619C288.255 192.075 287.869 192.514 287.405 192.489C287.086 192.472 286.817 192.254 286.594 192.027C285.833 191.255 285.296 190.265 285.067 189.205C284.457 190.447 283.596 191.599 282.418 192.326C281.241 193.054 279.719 193.3 278.453 192.749C276.414 191.865 275.667 189.04 276.707 187.077C277.468 185.642 278.942 184.692 280.494 184.216C282.049 183.735 283.694 183.674 285.318 183.623ZM279.426 187.88C279.115 188.425 279.034 189.292 279.619 189.519C279.921 189.636 280.259 189.507 280.542 189.351C281.87 188.618 282.81 187.22 282.986 185.712C281.537 185.768 280.142 186.618 279.426 187.88Z" fill="#1A4CE0"/>
<path d="M196.452 179.672C197.296 178.122 198.348 176.685 199.567 175.407C199.852 175.107 200.171 174.805 200.577 174.721C201.164 174.601 201.757 174.998 202.059 175.516C202.361 176.033 202.431 176.648 202.498 177.244C203.083 182.574 203.617 187.91 204.098 193.252C204.162 193.957 204.212 194.718 203.835 195.316C203.46 195.915 202.478 196.161 202.056 195.593C199.637 192.335 200.219 187.857 199.866 183.813C199.766 182.65 199.576 181.492 199.301 180.357C199.251 180.147 199.192 179.929 199.039 179.778C198.379 179.132 197.003 180.41 196.452 179.672Z" fill="#1A4CE0"/>
<path d="M248.195 219.812C249.015 222.243 249.44 224.807 249.443 227.375C249.443 227.83 249.347 228.398 248.911 228.524C248.562 228.625 248.218 228.359 247.98 228.085C247.23 227.223 246.83 226.066 246.886 224.925C246.923 224.2 246.878 223.152 246.154 223.149C245.687 224.427 245.203 225.733 244.344 226.787C243.486 227.844 242.163 228.625 240.809 228.476C239.117 228.292 237.831 226.639 237.691 224.941C237.551 223.244 238.365 221.58 239.506 220.316C240.98 218.682 243.122 217.558 245.32 217.676C246.204 217.723 247.141 218.008 247.675 218.713C247.921 219.038 248.064 219.426 248.195 219.812ZM240.286 225.459C240.44 225.621 240.65 225.747 240.874 225.75C241.176 225.752 241.433 225.545 241.654 225.341C243.396 223.728 244.621 221.563 245.105 219.239C242.792 219.426 240.681 221.144 240.026 223.37C239.819 224.074 239.78 224.925 240.286 225.459Z" fill="#1A4CE0"/>
<path d="M273.693 111.363C273.41 112.512 271.632 112.61 270.804 111.763C269.976 110.915 269.853 109.626 269.777 108.446C269.515 104.441 269.254 100.434 268.992 96.4287C268.908 95.1423 268.908 93.6488 269.9 92.8266C270.037 92.712 270.203 92.6141 270.381 92.6141C270.767 92.6169 270.983 93.0476 271.109 93.4111C273.122 99.2086 275.164 105.406 273.693 111.363Z" fill="#1A4CE0"/>
<path d="M292.204 218.635C292.883 218.925 293.527 219.365 293.893 220.005C294.139 220.433 294.248 220.922 294.354 221.403C294.796 223.423 295.238 225.442 295.683 227.458C295.792 227.956 295.887 228.526 295.588 228.94C295.174 229.508 294.217 229.377 293.75 228.851C293.283 228.325 293.18 227.576 293.146 226.874C293.11 226.172 293.113 225.436 292.791 224.81C292.427 225.218 292.067 225.623 291.703 226.032C290.638 227.229 289.39 228.518 287.788 228.591C285.743 228.683 284.124 226.616 283.956 224.578C283.789 222.55 284.753 220.464 286.403 219.275C288.048 218.084 290.333 217.832 292.204 218.635ZM290.996 219.762C289.905 219.247 288.534 219.524 287.62 220.31C286.705 221.096 286.233 222.321 286.208 223.526C286.191 224.362 286.457 225.31 287.209 225.674C289.346 224.729 290.987 222.729 291.493 220.447C291.56 220.148 291.272 219.893 290.996 219.762Z" fill="#1A4CE0"/>
<path d="M127.566 112.965C127.312 112.851 127.136 112.616 126.985 112.384C125.583 110.216 125.326 107.518 125.231 104.936C125.1 101.39 125.195 97.8327 125.516 94.2977C125.62 93.1567 125.939 91.7751 127.038 91.4507C127.737 91.9457 127.899 92.8994 128.003 93.7495C128.517 98.0173 129.034 102.285 129.549 106.553C129.77 108.368 129.971 110.297 129.2 111.956C128.903 112.605 128.218 113.256 127.566 112.965Z" fill="#1A4CE0"/>
<path d="M236.76 219.686C235.507 218.825 233.98 218.366 232.458 218.394C231.935 218.403 231.245 218.951 231.659 219.272C232.788 220.145 233.941 221.04 234.741 222.226C235.538 223.412 235.935 224.961 235.417 226.292C234.872 227.69 233.37 228.591 231.871 228.625C230.372 228.658 228.918 227.914 227.889 226.821C227.335 226.233 226.879 225.327 227.329 224.653C227.771 223.99 228.778 224.052 229.508 224.371C230.238 224.69 230.931 225.199 231.729 225.193C232.257 225.19 232.856 224.555 232.45 224.214C231.138 223.115 229.992 221.823 229.061 220.388C228.37 219.328 227.822 217.86 228.616 216.876C229.077 216.308 229.849 216.109 230.571 215.986C231.977 215.746 233.479 215.67 234.777 216.263C236.075 216.856 237.073 218.294 236.76 219.686Z" fill="#1A4CE0"/>
<path d="M364.817 226.611C365.949 226.661 367.185 226.258 368.164 226.835C367.529 228.062 366.744 229.413 365.407 229.763C364.724 229.939 363.997 229.819 363.332 229.581C361.349 228.873 359.811 227.156 359.086 225.179C358.365 223.202 358.407 220.995 358.952 218.962C359.509 216.898 360.893 214.75 363.016 214.507C365.077 214.272 367.046 216.288 366.861 218.355C366.676 220.422 364.509 222.044 362.456 221.745C361.866 221.658 361.298 222.133 361.128 222.704C360.957 223.274 361.114 223.898 361.388 224.427C362.045 225.682 363.399 226.549 364.817 226.611ZM364.794 218.833C365.163 218.182 364.654 217.278 363.93 217.085C363.206 216.892 362.42 217.276 361.939 217.849C361.458 218.425 361.223 219.163 361.03 219.888C360.96 220.15 360.904 220.455 361.066 220.673C361.338 221.031 361.905 220.822 362.288 220.584C362.867 220.226 363.446 219.865 364.022 219.507C364.319 219.328 364.624 219.135 364.794 218.833Z" fill="#1A4CE0"/>
<path d="M150.446 216.957C151.414 215.368 153.526 214.579 155.299 215.147C155.648 215.259 155.987 215.421 156.252 215.673C156.658 216.062 156.848 216.627 156.932 217.183C157.307 219.711 155.444 222.368 152.941 222.877C152.348 222.997 152.094 223.786 152.337 224.337C152.58 224.891 153.154 225.224 153.724 225.425C154.446 225.679 155.223 225.777 155.987 225.71C156.946 225.626 158.087 225.349 158.741 226.057C157.997 227.671 156.107 228.669 154.356 228.373C152.259 228.017 150.804 226.149 149.566 224.421C149.238 223.965 148.911 223.506 148.584 223.051C148.438 222.849 148.287 222.623 148.31 222.374C148.329 222.158 148.478 221.979 148.603 221.803C149.61 220.394 149.54 218.442 150.446 216.957ZM154.449 218.394C154.119 217.84 153.268 218.243 152.798 218.685C152.052 219.381 151.232 220.343 151.59 221.303C152.578 220.939 153.467 220.318 154.149 219.516C154.415 219.199 154.661 218.749 154.449 218.394Z" fill="#1A4CE0"/>
<path d="M323.398 186.937C324.013 189.323 322.892 192.052 320.766 193.3C318.641 194.547 315.699 194.189 313.945 192.458C312.195 190.727 311.803 187.774 313.062 185.656C313.434 185.03 313.937 184.473 314.561 184.093C315.14 183.738 315.802 183.545 316.468 183.419C318.63 183.008 321.141 183.394 322.512 185.114C322.937 185.645 323.228 186.277 323.398 186.937ZM317.545 191.116C317.939 191.225 318.361 191.211 318.756 191.11C320.095 190.769 321.066 189.37 320.959 187.992C320.853 186.613 319.72 185.394 318.361 185.139C316.549 184.798 314.547 186.498 314.888 188.31C315.067 189.256 315.769 190.019 316.543 190.587C316.851 190.808 317.178 191.012 317.545 191.116Z" fill="#1A4CE0"/>
<path d="M336.003 186.199C336.366 188.07 336.73 189.941 337.096 191.812C337.245 192.573 337.376 193.428 336.942 194.072C336.509 194.715 335.27 194.732 335.122 193.971C334.655 191.563 334.188 189.158 333.718 186.75C333.673 186.521 333.626 186.283 333.486 186.098C333.195 185.718 332.599 185.698 332.18 185.928C331.76 186.157 331.478 186.568 331.218 186.971C329.87 189.046 328.681 191.225 327.672 193.484C327.389 194.116 326.405 194.102 325.91 193.619C325.415 193.138 325.28 192.402 325.174 191.72C324.777 189.11 324.444 186.49 324.176 183.861C324.167 183.771 324.159 183.679 324.178 183.592C324.262 183.237 324.797 183.176 325.076 183.411C325.356 183.646 325.445 184.032 325.518 184.39C325.887 186.205 326.256 188.02 326.623 189.835C327.358 188.652 327.881 187.348 328.597 186.157C329.316 184.963 330.284 183.847 331.581 183.346C332.879 182.846 334.551 183.125 335.343 184.272C335.732 184.834 335.871 185.528 336.003 186.199Z" fill="#1A4CE0"/>
<path d="M231.169 189.281C231.292 190.131 231.401 191.048 230.996 191.803C230.587 192.558 229.432 192.95 228.859 192.312C227.74 191.076 227.483 189.309 227.276 187.653C226.927 184.876 226.58 182.096 226.23 179.319C226.183 178.927 226.102 178.488 225.772 178.273C225.369 178.01 224.843 178.231 224.387 178.377C223.929 178.522 223.283 178.491 223.146 178.03C223.039 177.672 223.338 177.331 223.61 177.073C224.082 176.629 224.555 176.184 225.025 175.739C225.839 174.973 226.91 174.145 227.959 174.528C228.985 174.903 229.29 176.178 229.444 177.258C230.017 181.265 230.593 185.273 231.169 189.281Z" fill="#1A4CE0"/>
<path d="M154.238 116.347C153.547 115.208 153.508 113.804 153.488 112.473C153.393 106.209 153.298 99.9273 153.886 93.6907C153.908 93.4446 153.944 93.1706 154.132 93.0084C154.4 92.7734 154.848 92.9049 155.069 93.1845C155.29 93.4642 155.34 93.8362 155.385 94.1885C156.218 100.898 156.713 107.646 156.872 114.406C156.886 115.043 156.892 115.712 156.61 116.282C156.327 116.856 155.659 117.289 155.052 117.09C154.697 116.97 154.434 116.665 154.238 116.347Z" fill="#1A4CE0"/>
<path d="M252.155 192.279C250.5 189.63 251.549 185.679 254.3 184.202C255.623 183.492 257.161 183.332 258.658 183.201C259.032 183.167 259.444 183.145 259.757 183.355C260.008 183.523 260.151 183.811 260.28 184.085C261.116 185.855 261.952 187.625 262.788 189.398C263.194 190.26 263.488 191.515 262.649 191.966C261.924 192.354 261.071 191.68 260.668 190.964C260.266 190.249 259.981 189.373 259.248 189.001C258.537 190.433 257.766 191.935 256.429 192.813C255.089 193.686 253.003 193.635 252.155 192.279ZM256.465 185.125C254.435 185.531 252.969 187.771 253.411 189.795C253.501 190.198 253.708 190.64 254.11 190.735C254.421 190.808 254.734 190.648 255 190.469C256.409 189.519 257.352 187.902 257.483 186.207C257.514 185.816 257.458 185.346 257.111 185.164C256.915 185.061 256.68 185.083 256.465 185.125Z" fill="#1A4CE0"/>
<path d="M186.05 169.187C186.254 171.231 186.386 173.284 186.52 175.337C186.892 181.101 187.264 186.865 187.636 192.629C187.689 193.445 187.726 194.329 187.278 195.014C186.831 195.699 185.692 195.971 185.206 195.308C184.009 193.672 183.83 191.504 183.998 189.482C184.165 187.463 184.63 185.458 184.546 183.433C184.367 179.093 184.521 174.738 185.007 170.423C185.074 169.802 185.463 168.969 186.05 169.187Z" fill="#1A4CE0"/>
<path d="M372.762 190.57C371.428 188.182 371.212 185.195 372.188 182.639C372.851 184.686 373.514 186.736 374.177 188.783C374.619 190.153 376.694 190.352 377.762 189.384C378.83 188.42 379.049 186.82 378.912 185.388C378.8 184.23 378.649 182.759 379.672 182.208C380.483 181.772 381.54 182.34 381.957 183.162C382.371 183.984 382.318 184.954 382.24 185.872C382.091 187.581 381.876 189.328 381.068 190.841C380.259 192.352 378.727 193.591 377.013 193.574C375.192 193.557 373.648 192.159 372.762 190.57Z" fill="#1A4CE0"/>
<path d="M404.311 219.513C403.271 219.219 402.504 220.654 402.77 221.703C403.033 222.751 403.833 223.599 404.127 224.639C404.42 225.679 403.755 227.139 402.695 226.932C402.49 226.893 402.3 226.793 402.127 226.681C401.296 226.146 400.695 225.271 400.496 224.303C400.292 223.313 400.499 222.273 400.309 221.28C400.119 220.287 399.263 219.264 398.273 219.474C397.269 219.689 396.204 218.716 396.327 217.698C397.029 217.919 397.761 218.142 398.486 218.019C399.21 217.899 399.915 217.315 399.909 216.579C399.887 213.382 399.862 210.186 399.839 206.989C399.836 206.766 399.845 206.519 399.993 206.352C400.225 206.092 400.687 206.189 400.91 206.458C401.134 206.726 401.187 207.093 401.229 207.44C401.593 210.359 401.954 213.279 402.317 216.202C402.39 216.789 402.619 217.533 403.212 217.563C403.439 217.575 403.651 217.466 403.861 217.376C404.722 216.996 405.69 216.87 406.618 217.01C406.873 217.049 407.153 217.127 407.276 217.351C407.474 217.706 407.153 218.117 406.856 218.397C406.146 219.06 405.245 219.776 404.311 219.513Z" fill="#1A4CE0"/>
<path d="M340.79 185.626C342.001 186.437 343.148 187.346 344.219 188.336C345.002 189.06 345.757 189.851 346.182 190.827C346.61 191.803 346.655 193.003 346.056 193.887C345.341 194.947 343.856 195.285 342.628 194.939C341.397 194.592 340.399 193.686 339.61 192.679C339.062 191.982 338.57 191.096 338.827 190.248C339.082 189.401 340.477 189.035 340.832 189.846C341.375 191.079 342.51 192.036 343.819 192.363C344.353 192.245 344.04 191.423 343.629 191.06C342.096 189.698 340.544 188.355 338.975 187.035C337.96 186.179 337.977 184.454 338.869 183.467C339.758 182.479 341.285 182.23 342.544 182.656C343.802 183.081 344.801 184.087 345.464 185.237C344.734 185.634 343.842 185.312 343.039 185.1C342.231 184.887 341.182 184.893 340.79 185.626Z" fill="#1A4CE0"/>
<path d="M194.376 216.216C194.835 216.579 194.916 217.553 194.331 217.541C193.162 217.522 191.932 217.871 191.143 218.736C190.354 219.6 190.164 221.046 190.914 221.943C191.303 222.408 191.876 222.676 192.455 222.847C193.646 223.196 194.941 223.188 196.127 222.819C196.862 222.589 197.578 222.223 198.35 222.212C199.122 222.201 199.983 222.729 199.978 223.501C199.972 224.016 199.595 224.444 199.203 224.779C196.155 227.397 190.967 226.927 188.439 223.806C187.93 223.179 187.519 222.452 187.39 221.655C187.082 219.726 188.498 217.927 190.089 216.792C191.353 215.889 193.162 215.254 194.376 216.216Z" fill="#1A4CE0"/>
<path d="M255.075 227.979C254.589 228.641 253.462 228.44 252.944 227.797C252.427 227.156 252.351 226.275 252.301 225.453C251.865 218.291 251.753 211.109 251.971 203.936C251.982 203.538 252.035 203.074 252.377 202.876C252.726 202.671 253.199 202.89 253.414 203.234C253.627 203.578 253.649 204.003 253.666 204.408C253.851 209.14 254.038 213.872 254.222 218.607C254.32 221.127 254.424 223.672 255.095 226.102C255.266 226.726 255.459 227.453 255.075 227.979Z" fill="#1A4CE0"/>
<path d="M460.538 224.804C460.44 223.599 460.541 222.377 460.84 221.202C461.016 220.503 460.267 219.879 459.548 219.798C458.832 219.717 458.119 219.972 457.4 219.991C456.679 220.011 455.834 219.664 455.714 218.951C457.277 218.372 458.927 218.022 460.591 217.922C461.156 217.888 461.332 217.147 461.352 216.579C461.464 213.22 461.576 209.862 461.688 206.503C461.699 206.142 461.718 205.759 461.914 205.457C462.11 205.155 462.552 204.979 462.845 205.191C463.111 205.384 463.125 205.77 463.111 206.1C462.985 209.518 463.058 212.943 463.332 216.353C463.36 216.683 463.394 217.032 463.592 217.298C463.791 217.564 464.216 217.689 464.459 217.463C464.965 216.999 465.913 217.217 466.168 217.852C466.422 218.489 465.885 219.3 465.2 219.314C463.863 219.342 463.226 221.006 463.268 222.343C463.31 223.68 463.637 225.148 462.893 226.256C462.742 226.479 462.546 226.681 462.292 226.776C461.332 227.137 460.622 225.828 460.538 224.804Z" fill="#1A4CE0"/>
<path d="M397.046 186.308C394.764 187.692 393.253 190.265 393.153 192.931C393.125 193.68 392.045 193.993 391.413 193.588C390.781 193.182 390.527 192.396 390.353 191.664C389.808 189.368 389.623 186.988 389.805 184.636C389.836 184.23 389.889 183.799 390.149 183.486C390.409 183.173 390.952 183.064 391.215 183.374C391.332 183.511 391.371 183.696 391.405 183.872C391.606 184.885 391.807 185.897 392.009 186.909C392.909 184.904 394.912 183.436 397.096 183.181C397.692 183.111 398.396 183.176 398.738 183.671C399.076 184.157 398.886 184.857 398.491 185.301C398.097 185.746 397.555 186 397.046 186.308Z" fill="#1A4CE0"/>
<path d="M263.689 215.139C264.092 215.329 264.285 215.785 264.425 216.207C265.085 218.176 265.401 220.262 265.353 222.338C265.303 224.48 264.492 227.03 262.406 227.511C260.345 227.987 258.49 226.079 257.612 224.155C256.941 222.682 256.547 221.082 256.452 219.465C256.424 218.998 256.446 218.475 256.779 218.148C257.112 217.821 257.842 217.966 257.839 218.433C257.83 220.117 258.275 221.803 259.114 223.263C259.472 223.887 259.975 224.519 260.686 224.625C261.53 224.754 262.322 224.044 262.585 223.23C262.85 222.416 262.722 221.535 262.59 220.69C262.439 219.709 262.285 218.727 262.134 217.745C262.039 217.125 261.947 216.47 262.185 215.891C262.425 215.312 263.124 214.873 263.689 215.139Z" fill="#1A4CE0"/>
<path d="M306.906 182.664C305.67 182.653 304.451 183.321 303.793 184.367C303.136 185.413 303.066 186.803 303.614 187.913C304.593 189.893 307.063 190.551 309.253 190.833C310.147 190.948 311.3 191.295 311.308 192.198C308.785 194.167 304.744 193.784 302.636 191.376C300.527 188.965 300.686 184.91 302.974 182.67C303.533 182.124 304.23 181.668 305.007 181.598C305.787 181.526 306.64 181.931 306.906 182.664Z" fill="#1A4CE0"/>
<path d="M315.027 204.114C315.522 205.216 315.57 206.458 315.612 207.666C315.836 214.367 316.062 221.068 316.286 227.766C316.303 228.264 316.317 228.784 316.11 229.24C315.903 229.693 315.405 230.059 314.921 229.942C314.247 229.779 314.074 228.913 314.048 228.219C313.959 225.817 314.007 223.411 314.054 221.006C314.163 215.441 314.275 209.873 314.384 204.307C314.594 204.243 314.809 204.179 315.027 204.114Z" fill="#1A4CE0"/>
<path d="M266.181 183.729C266.606 184.714 267.029 185.695 267.454 186.68C267.703 185.36 268.746 184.283 269.971 183.729C271.196 183.176 272.58 183.081 273.922 183.164C274.462 183.198 275.066 183.296 275.379 183.738C275.897 184.465 275.173 185.5 274.325 185.791C273.481 186.081 272.538 185.964 271.688 186.241C269.713 186.881 268.997 189.256 268.572 191.286C268.413 192.052 267.261 192.192 266.665 191.683C266.069 191.177 265.896 190.343 265.759 189.572C265.563 188.475 265.367 187.379 265.172 186.283C264.99 185.256 265.138 183.777 266.181 183.729Z" fill="#1A4CE0"/>
<path d="M420.333 216.601C421.102 217.86 421.603 219.283 421.796 220.746C422.445 220.025 423.096 219.303 423.745 218.582C424.251 218.019 424.774 217.443 425.454 217.105C426.131 216.766 427.009 216.716 427.604 217.18C428.203 217.645 428.301 218.699 427.68 219.132C425.714 220.494 424.282 222.609 423.748 224.938C423.516 225.945 423.015 227.313 422.008 227.083C421.332 226.93 421.08 226.113 420.951 225.433C420.423 222.631 419.894 219.826 419.365 217.024C419.304 216.697 419.304 216.257 419.617 216.148C419.908 216.051 420.174 216.339 420.333 216.601Z" fill="#1A4CE0"/>
<path d="M387.534 193.563C387.022 193.694 386.53 193.297 386.211 192.875C384.986 191.241 384.969 189.032 385 186.993C385.025 185.505 385.196 183.749 386.48 182.997C387.733 185.791 388.37 188.859 388.337 191.918C388.331 192.578 388.169 193.398 387.534 193.563Z" fill="#1A4CE0"/>
<path d="M390.806 179.045C390.328 180.824 388.351 182.054 386.541 181.699C384.732 181.344 383.367 179.459 383.596 177.63C383.661 177.11 383.851 176.587 384.226 176.223C384.883 175.589 385.907 175.586 386.821 175.625C388.326 175.686 390.138 175.949 390.736 177.331C390.968 177.865 390.957 178.48 390.806 179.045ZM387.982 178.844C388.563 178.869 388.809 177.988 388.443 177.538C388.077 177.088 387.42 177.004 386.838 177.023C386.513 177.034 386.161 177.076 385.932 177.303C385.518 177.708 385.772 178.472 386.273 178.768C386.771 179.065 387.392 179.028 387.968 178.986L387.982 178.844Z" fill="#1A4CE0"/>
<path d="M380.226 227.618C379.863 228.219 378.915 227.724 378.56 227.117C377.603 225.489 377.81 223.462 378.045 221.588C378.171 220.573 378.299 219.558 378.425 218.542C378.462 218.252 378.512 217.933 378.73 217.737C378.948 217.538 379.387 217.592 379.438 217.88C379.986 220.886 380.285 223.937 380.335 226.991C380.338 227.207 380.338 227.433 380.226 227.618Z" fill="#1A4CE0"/>
<path d="M202.254 216.94C202.66 219.373 203.065 221.806 203.471 224.239C203.569 224.832 203.664 225.467 203.426 226.018C203.264 226.393 202.948 226.697 202.57 226.851C201.502 226.23 201.34 224.779 201.298 223.546C201.25 222.044 201.2 220.542 201.153 219.043C201.125 218.156 201.368 216.959 202.254 216.94Z" fill="#1A4CE0"/>
<path d="M382.293 211.036C382.271 211.892 382.226 212.815 381.692 213.486C381.107 214.221 380.017 214.451 379.133 214.135C378.249 213.819 377.583 213.025 377.287 212.135C376.937 211.089 377.228 209.685 378.269 209.325C378.822 209.134 379.429 209.288 379.994 209.442C380.498 209.579 380.998 209.719 381.502 209.856C381.706 209.912 381.921 209.973 382.069 210.127C382.296 210.356 382.301 210.714 382.293 211.036ZM379.08 210.421C378.481 210.748 378.456 211.755 379.038 212.11C379.619 212.465 380.506 211.981 380.523 211.302C380.539 210.622 379.678 210.094 379.08 210.421Z" fill="#1A4CE0"/>
<path d="M203.669 209.506C203.918 209.554 204.176 209.635 204.357 209.814C204.699 210.152 204.665 210.706 204.59 211.182C204.419 212.275 204.05 213.506 203.04 213.956C201.698 214.554 200.065 213.055 200.313 211.604C200.557 210.158 202.224 209.235 203.669 209.506Z" fill="#1A4CE0"/>
</g>
<path d="M410.5 291.5C410.5 293.884 409.887 295.972 408.974 297.417C408.05 298.88 406.961 299.5 406 299.5C405.039 299.5 403.95 298.88 403.026 297.417C402.113 295.972 401.5 293.884 401.5 291.5C401.5 289.116 402.113 287.028 403.026 285.583C403.95 284.12 405.039 283.5 406 283.5C406.961 283.5 408.05 284.12 408.974 285.583C409.887 287.028 410.5 289.116 410.5 291.5Z" stroke="#BBBBBB" stroke-width="3"/>
<path d="M406.5 283.5H458C460.761 283.5 463 285.739 463 288.5V294.5C463 297.261 460.761 299.5 458 299.5H407" stroke="#BBBBBB" stroke-width="3" stroke-linecap="round"/>
<g clip-path="url(#clip1_104_856)">
<path d="M487.741 51.3118C485.317 49.6926 483.326 46.7265 480.42 46.9618C479.504 47.0356 478.651 47.4438 477.874 47.9328C473.909 50.4238 471.349 55.1405 466.851 56.4414C463.643 57.3686 460.165 56.2776 457.291 54.5755C454.417 52.8733 451.933 50.5829 449.112 48.7931C447.451 47.7391 445.454 46.8372 443.57 47.3954C441.533 47.9974 440.354 50.0617 439.381 51.9507C437.748 55.1152 436.115 58.2796 434.482 61.4464C433.783 62.798 431.827 63.0517 430.476 62.3529C429.124 61.654 428.255 60.2978 427.505 58.9739C423.978 52.7464 421.66 45.8362 420.722 38.7415C420.65 38.1995 420.622 37.556 421.042 37.2031C421.916 36.4673 422.957 37.9089 423.22 39.0206C424.772 45.5802 427.399 51.8815 430.962 57.6015C433.006 55.1036 433.979 51.9276 435.303 48.9846C436.627 46.0415 438.553 43.0846 441.572 41.9406C444.898 40.6813 448.667 41.9683 451.675 43.8619C454.682 45.7555 457.318 48.258 460.529 49.7849C461.643 50.3154 462.854 50.7259 464.083 50.6429C466.268 50.493 468.018 48.8577 469.582 47.3239C471.39 45.5502 473.238 43.765 475.463 42.5564C477.689 41.3478 480.376 40.7689 482.784 41.5485C485.245 42.3465 487.049 44.3993 489.127 45.94C491.205 47.4807 494.157 48.5163 496.309 47.0794C500.184 44.4892 504.458 42.4988 508.935 41.1979C506.469 44.7983 503.819 48.4333 500.113 50.7398C496.406 53.0463 491.369 53.7359 487.741 51.3118Z" fill="#1A4CE0"/>
<path d="M109.681 66.8314C109.49 67.0439 109.272 67.2704 108.988 67.3056C108.447 67.3729 108.108 66.7517 107.927 66.2384C105.931 60.5446 103.936 54.8497 101.94 49.1558C101.843 48.8809 101.753 48.5548 101.921 48.3178C102.105 48.055 102.522 48.0632 102.785 48.2471C103.048 48.4311 103.193 48.7373 103.33 49.0275C105.669 54.0758 108.008 59.124 110.349 64.1727C110.46 64.414 110.574 64.6603 110.606 64.9256C110.692 65.6489 110.169 66.2898 109.681 66.8314Z" fill="#1A4CE0"/>
<path d="M120.162 63.1344C119.78 62.9487 119.584 62.5245 119.454 62.12C119.072 60.9276 119.034 59.6558 119.011 58.4031C118.945 54.6867 118.989 50.9684 119.144 47.2542C119.159 46.9067 119.195 46.515 119.465 46.2933C119.811 46.0094 120.373 46.1938 120.637 46.5562C120.902 46.9173 120.953 47.3898 120.994 47.8369C121.351 51.7236 121.708 55.6089 122.065 59.4956C122.147 60.3854 122.223 61.3142 121.894 62.1445C121.616 62.8394 120.833 63.4615 120.162 63.1344Z" fill="#1A4CE0"/>
<path d="M97.7447 72.3062C96.5011 72.3742 95.4028 71.5548 94.438 70.7669C90.5929 67.6234 86.8967 64.2968 83.3683 60.801C83.1503 60.5853 82.9446 60.1889 83.2021 60.0229C83.3409 59.9335 83.5236 59.9947 83.6747 60.0611C85.8216 61.0043 87.5652 62.6494 89.382 64.1345C91.5179 65.8806 93.8092 67.4362 96.2196 68.7794C97.2589 69.358 98.4404 70.0534 98.6454 71.2253C98.6915 71.4912 98.6748 71.7885 98.5035 71.9989C98.326 72.2152 98.0253 72.2897 97.7447 72.3062Z" fill="#1A4CE0"/>
</g>
<defs>
<clipPath id="clip0_104_856">
<rect width="396" height="153.484" fill="white" transform="translate(98 86)"/>
</clipPath>
<clipPath id="clip1_104_856">
<rect width="426.933" height="240" fill="white" transform="translate(82 37)"/>
</clipPath>
</defs>
</svg>
