<svg width="600" height="355" viewBox="0 0 600 355" fill="none" xmlns="http://www.w3.org/2000/svg">
<g clip-path="url(#clip0_104_1125)">
<path d="M566.041 353V112.245C566.041 94.1876 552.624 78.9433 534.713 76.6514L480.289 69.6872C458.838 66.9423 439.851 83.6547 439.851 105.281V117.74M439.851 188.909V170.369" stroke="#BBBBBB" stroke-width="3.64223" stroke-linecap="round"/>
<path d="M335.789 3L335.789 127.907" stroke="#BBBBBB" stroke-width="3.64223" stroke-linecap="round"/>
<line x1="337.583" y1="178.742" x2="337.583" y2="195.488" stroke="#BBBBBB" stroke-width="3.58835" stroke-linecap="round"/>
<circle cx="511.618" cy="136.28" r="26.9126" stroke="#1A4CE0" stroke-width="3.58835"/>
<path d="M536.737 180.536H497.265C484.053 180.536 473.343 191.246 473.343 204.458V258.284C473.343 266.871 480.305 273.833 488.892 273.833V273.833" stroke="#1A4CE0" stroke-width="3.64223" stroke-linecap="round"/>
<path d="M489.49 218.812V353M514.011 281.608V353" stroke="#1A4CE0" stroke-width="3.64223" stroke-linecap="round"/>
<path d="M538.531 220.008V353M513.413 281.608L514.366 353" stroke="#1A4CE0" stroke-width="3.64223" stroke-linecap="round"/>
<circle cx="430.283" cy="144.653" r="26.9126" stroke="#1A4CE0" stroke-width="3.58835"/>
<path d="M455.401 188.909H415.929C402.717 188.909 392.007 199.619 392.007 212.831V266.657C392.007 275.244 398.969 282.206 407.556 282.206V282.206" stroke="#1A4CE0" stroke-width="3.58835" stroke-linecap="round"/>
<path d="M408.154 227.185V353M432.675 289.981V353" stroke="#1A4CE0" stroke-width="3.58835" stroke-linecap="round"/>
<path d="M457.195 228.381V353M432.077 289.981L432.921 353" stroke="#1A4CE0" stroke-width="3.58835" stroke-linecap="round"/>
<circle cx="348.947" cy="153.025" r="26.9126" stroke="#1A4CE0" stroke-width="3.58835"/>
<path d="M374.065 197.282H334.593C321.381 197.282 310.671 207.992 310.671 221.204V275.029C310.671 283.617 317.633 290.579 326.22 290.579V290.579" stroke="#1A4CE0" stroke-width="3.64223" stroke-linecap="round"/>
<path d="M326.818 235.557V353M351.339 298.354V353" stroke="#1A4CE0" stroke-width="3.64223" stroke-linecap="round"/>
<path d="M375.859 236.754V353M350.741 298.354L351.476 353" stroke="#1A4CE0" stroke-width="3.64223" stroke-linecap="round"/>
<circle cx="266.414" cy="160.202" r="26.9126" stroke="#1A4CE0" stroke-width="3.58835"/>
<path d="M291.533 204.458H252.061C238.849 204.458 228.139 215.169 228.139 228.381V282.206C228.139 290.794 235.1 297.756 243.688 297.756V297.756" stroke="#1A4CE0" stroke-width="3.64223" stroke-linecap="round"/>
<path d="M244.286 242.734V353M268.807 305.53V353" stroke="#1A4CE0" stroke-width="3.64223" stroke-linecap="round"/>
<path d="M293.327 243.93V353M268.208 305.53L269 353" stroke="#1A4CE0" stroke-width="3.64223" stroke-linecap="round"/>
<circle cx="182.686" cy="169.771" r="26.9126" stroke="#1A4CE0" stroke-width="3.58835"/>
<path d="M207.804 214.027H168.332C155.121 214.027 144.41 224.738 144.41 237.95V291.775C144.41 300.363 151.372 307.325 159.96 307.325V307.325" stroke="#1A4CE0" stroke-width="3.64223" stroke-linecap="round"/>
<path d="M160.558 252.303V353M185.078 315.099V353" stroke="#1A4CE0" stroke-width="3.64223" stroke-linecap="round"/>
<path d="M209.598 253.499V353M184.48 315.099L185 353" stroke="#1A4CE0" stroke-width="3.64223" stroke-linecap="round"/>
<circle cx="100.154" cy="178.144" r="26.9126" stroke="#1A4CE0" stroke-width="3.58835"/>
<path d="M125.272 222.4H85.8003C72.5883 222.4 61.8779 233.111 61.8779 246.322V300.148C61.8779 308.736 68.8397 315.697 77.4275 315.697V315.697" stroke="#1A4CE0" stroke-width="3.64223" stroke-linecap="round"/>
<path d="M78.0254 260.676V353M102.546 323.472V353" stroke="#1A4CE0" stroke-width="3.64223" stroke-linecap="round"/>
<path d="M127.066 261.872V353M101.948 323.472L102.5 352" stroke="#1A4CE0" stroke-width="3.64223" stroke-linecap="round"/>
<path d="M2.8665 162.646C7.42858 159.591 12.915 157.81 18.8176 157.81C34.6719 157.81 47.5244 170.662 47.5244 186.517C47.5244 202.371 34.6719 215.223 18.8176 215.223C12.5487 215.223 6.74911 213.214 2.02783 209.804" stroke="#1A4CE0" stroke-width="3.58835" stroke-linecap="round"/>
<path d="M43.9362 230.773H2M-19.458 324.07H-3.90848" stroke="#1A4CE0" stroke-width="3.64223" stroke-linecap="round"/>
<path d="M-3.31055 269.049V425.142M21.2099 331.845L21 353" stroke="#1A4CE0" stroke-width="3.64223" stroke-linecap="round"/>
<path d="M45.7303 270.245V353M20.6118 331.845L21 353" stroke="#1A4CE0" stroke-width="3.64223" stroke-linecap="round"/>
<g clip-path="url(#clip1_104_1125)">
<path d="M512.135 125.52C516.203 125.52 520.272 125.503 524.341 125.526C526.426 125.537 528.175 126.31 529.453 128.01C530.256 129.076 530.605 130.298 530.614 131.612C530.632 134.125 530.636 136.636 530.615 139.148C530.586 142.529 527.988 145.135 524.607 145.144C517.569 145.161 510.532 145.144 503.493 145.168C503.071 145.169 502.6 145.325 502.237 145.548C501.267 146.145 500.334 146.805 499.404 147.464C498.179 148.334 496.893 148.509 495.553 147.8C494.205 147.088 493.674 145.897 493.677 144.41C493.684 140.154 493.668 135.898 493.683 131.642C493.693 128.705 495.535 126.385 498.39 125.71C498.948 125.578 499.539 125.53 500.115 125.528C504.121 125.513 508.128 125.52 512.135 125.52ZM523.662 138.5C523.949 138.808 524.916 139.004 525.249 138.806C525.34 138.752 525.439 138.615 525.437 138.518C525.408 137.153 525.497 135.769 525.286 134.431C525.065 133.033 523.534 132 522.011 131.941C520.564 131.885 519.092 132.88 518.576 134.263C518.064 135.633 518.52 137.184 519.692 138.114C520.935 139.1 522.274 139.065 523.662 138.5ZM517.482 136.503C517.482 135.963 517.486 135.425 517.481 134.885C517.467 133.363 516.286 132.096 514.74 131.943C513.239 131.793 511.764 132.862 511.568 134.389C511.423 135.512 511.463 136.661 511.445 137.797C511.428 138.883 511.442 138.884 512.552 138.852C512.614 138.851 512.698 138.875 512.735 138.844C512.872 138.731 513.046 138.62 513.107 138.468C513.171 138.307 513.125 138.1 513.125 137.913C513.127 136.96 513.102 136.005 513.135 135.052C513.166 134.147 513.72 133.6 514.51 133.614C515.306 133.628 515.793 134.187 515.798 135.111C515.803 136.044 515.8 136.976 515.8 137.91C515.8 138.858 515.801 138.858 516.766 138.852C516.828 138.852 516.89 138.846 516.952 138.852C517.362 138.894 517.502 138.702 517.488 138.305C517.466 137.707 517.482 137.105 517.482 136.503ZM506.156 132.133C505.721 132.133 505.374 132.14 505.026 132.132C504.636 132.123 504.464 132.3 504.469 132.697C504.48 133.776 504.432 134.856 504.485 135.933C504.567 137.592 505.726 138.777 507.285 138.882C508.828 138.985 510.283 137.999 510.442 136.508C510.594 135.098 510.475 133.659 510.475 132.189C510.19 132.167 509.946 132.133 509.701 132.131C508.862 132.121 508.827 132.16 508.825 132.996C508.822 133.991 508.835 134.987 508.815 135.983C508.801 136.672 508.297 137.192 507.619 137.273C507.032 137.343 506.403 136.884 506.254 136.245C506.189 135.966 506.163 135.671 506.16 135.385C506.15 134.349 506.156 133.315 506.156 132.133ZM501.211 132.42C500.845 131.909 500.253 132.112 499.748 132.208C499.609 132.234 499.487 132.744 499.482 133.034C499.457 134.758 499.482 136.481 499.462 138.205C499.457 138.684 499.606 138.914 500.103 138.856C500.227 138.841 500.354 138.841 500.477 138.856C500.98 138.917 501.19 138.732 501.165 138.198C501.127 137.369 501.153 136.536 501.155 135.706C501.159 134.459 501.793 133.786 503.055 133.751C503.461 133.74 503.625 133.604 503.603 133.208C503.59 133.001 503.59 132.791 503.604 132.585C503.633 132.177 503.446 131.995 503.05 132.065C502.445 132.171 501.843 132.297 501.211 132.42Z" fill="#1A4CE0"/>
<path d="M523.883 135.6C523.862 136.554 522.882 137.424 521.849 137.406C520.796 137.389 519.838 136.498 519.86 135.558C519.883 134.606 520.87 133.729 521.893 133.752C522.95 133.777 523.904 134.663 523.883 135.6Z" fill="#1A4CE0"/>
</g>
<g clip-path="url(#clip2_104_1125)">
<path d="M328.612 151.891C328.874 151.118 329.046 150.299 329.413 149.579C330.989 146.485 334.773 145.103 338.005 146.389C338.158 146.45 338.307 146.524 338.49 146.607C338.167 147.261 337.859 147.882 337.54 148.528C336.661 148.179 335.795 148.004 334.873 148.12C332.595 148.406 330.802 150.414 330.775 152.742C330.749 155.006 332.495 157.049 334.727 157.396C335.615 157.534 336.462 157.425 337.291 157.098C337.521 157.008 337.624 156.884 337.615 156.625C337.596 156.066 337.609 155.506 337.609 154.899C337.016 154.899 336.474 154.899 335.847 154.899C336.218 154.233 336.544 153.636 336.886 153.048C336.928 152.977 337.059 152.92 337.15 152.919C338.006 152.909 338.862 152.913 339.753 152.913C339.765 153.073 339.785 153.206 339.785 153.339C339.787 154.818 339.796 156.297 339.774 157.776C339.771 157.965 339.656 158.226 339.505 158.331C335.322 161.276 329.621 158.94 328.7 153.916C328.687 153.848 328.643 153.785 328.614 153.72C328.612 153.111 328.612 152.501 328.612 151.891Z" fill="#1A4CE0"/>
<path d="M356.933 145.849C356.933 150.423 356.933 154.998 356.933 159.599C356.217 159.599 355.533 159.599 354.797 159.599C354.788 159.451 354.772 159.306 354.772 159.16C354.771 154.874 354.771 150.587 354.774 146.301C354.774 146.15 354.802 146 354.818 145.849C355.523 145.849 356.228 145.849 356.933 145.849Z" fill="#1A4CE0"/>
<path d="M364.512 151.63C363.454 154.12 362.45 156.506 361.425 158.882C361.032 159.794 361.31 159.606 360.325 159.625C359.778 159.635 359.231 159.627 358.592 159.627C360.581 155.067 362.537 150.583 364.535 146.001C366.53 150.576 368.487 155.063 370.477 159.624C369.631 159.624 368.869 159.64 368.11 159.607C367.994 159.602 367.847 159.386 367.783 159.239C366.769 156.89 365.765 154.536 364.758 152.183C364.694 152.031 364.624 151.88 364.512 151.63Z" fill="#1A4CE0"/>
<path d="M347.196 151.694C347.11 151.87 347.047 151.985 346.996 152.105C345.983 154.47 344.965 156.834 343.966 159.205C343.836 159.512 343.689 159.653 343.334 159.636C342.678 159.604 342.019 159.627 341.258 159.627C343.235 155.093 345.187 150.616 347.199 146.004C349.203 150.598 351.153 155.066 353.141 159.621C352.285 159.621 351.512 159.638 350.741 159.603C350.632 159.599 350.499 159.362 350.433 159.209C349.421 156.859 348.419 154.505 347.413 152.153C347.355 152.018 347.288 151.888 347.196 151.694Z" fill="#1A4CE0"/>
</g>
<g clip-path="url(#clip3_104_1125)">
<path d="M255.349 159.724C255.359 162.665 257.811 164.759 260.411 164.714C263.139 164.667 265.337 162.434 265.322 159.664C265.307 156.945 263.037 154.706 260.322 154.733C257.555 154.76 255.329 156.995 255.349 159.724ZM246.08 161.505C246.179 162.755 246.731 163.719 247.867 164.225C249.372 164.894 250.928 164.938 252.463 164.295C253.435 163.887 253.968 163.121 254.024 162.068C254.081 160.984 253.731 160.055 252.73 159.523C252.181 159.232 251.57 159.052 250.978 158.85C250.394 158.65 249.779 158.53 249.212 158.293C248.559 158.02 248.505 157.191 249.078 156.793C249.722 156.347 251.163 156.429 251.554 157.526C251.631 157.741 251.661 158.044 251.817 158.143C251.99 158.252 252.281 158.174 252.521 158.175C252.921 158.176 253.321 158.176 253.721 158.175C253.818 158.174 253.915 158.166 254.012 158.161C253.903 156.712 253.193 155.638 252.002 155.14C251.156 154.787 250.267 154.688 249.358 154.798C248.59 154.89 247.885 155.136 247.281 155.642C246.051 156.67 245.953 159.033 247.685 159.87C248.218 160.128 248.813 160.256 249.38 160.442C249.975 160.637 250.584 160.797 251.16 161.037C251.584 161.214 251.768 161.606 251.714 162.073C251.664 162.507 251.36 162.731 250.978 162.853C249.795 163.23 248.795 162.726 248.4 161.564C248.394 161.546 248.381 161.53 248.367 161.505C247.613 161.505 246.856 161.505 246.08 161.505ZM272.692 155.251C271.88 155.251 271.069 155.251 270.24 155.251C270.24 154.802 270.234 154.403 270.241 154.004C270.252 153.448 270.516 153.092 271.062 152.982C271.338 152.927 271.638 152.94 271.921 152.976C272.243 153.017 272.557 153.119 272.9 153.2C273.035 152.62 273.165 152.062 273.294 151.505C272.327 151.084 271.347 150.922 270.34 151.055C269.185 151.207 268.295 151.767 267.969 152.948C267.841 153.411 267.853 153.914 267.819 154.4C267.8 154.674 267.815 154.95 267.815 155.254C267.133 155.254 266.497 155.254 265.849 155.254C265.849 155.896 265.849 156.509 265.849 157.15C266.397 157.15 266.927 157.166 267.454 157.143C267.744 157.131 267.823 157.222 267.821 157.511C267.81 159.701 267.815 161.892 267.815 164.083C267.815 164.2 267.815 164.317 267.815 164.448C268.638 164.448 269.422 164.448 270.239 164.448C270.239 164.316 270.239 164.199 270.239 164.082C270.239 161.881 270.244 159.681 270.233 157.48C270.232 157.214 270.305 157.134 270.569 157.145C271.069 157.164 271.569 157.151 272.069 157.15C272.275 157.15 272.479 157.15 272.692 157.15C272.692 156.498 272.692 155.9 272.692 155.251ZM274.551 155.266C274.551 158.333 274.551 161.367 274.551 164.429C275.244 164.429 275.913 164.415 276.581 164.435C276.864 164.443 276.93 164.343 276.93 164.075C276.921 161.246 276.925 158.417 276.924 155.588C276.924 155.483 276.909 155.377 276.9 155.266C276.101 155.266 275.335 155.266 274.551 155.266ZM278.448 151.159C277.739 151.159 277.101 151.171 276.464 151.153C276.18 151.146 276.024 151.259 275.917 151.512C275.6 152.264 275.268 153.01 274.944 153.76C274.915 153.827 274.901 153.9 274.871 154.002C275.267 154.002 275.628 153.969 275.982 154.009C276.506 154.07 276.825 153.879 277.08 153.409C277.485 152.658 277.964 151.946 278.448 151.159Z" fill="#1A4CE0"/>
<path d="M255.349 159.723C255.329 156.995 257.556 154.76 260.322 154.733C263.037 154.707 265.307 156.945 265.322 159.664C265.337 162.434 263.139 164.666 260.411 164.714C257.811 164.76 255.359 162.665 255.349 159.723Z" fill="#1A4CE0"/>
<path d="M287.944 162.766C287.944 163.329 287.944 163.875 287.944 164.454C287.259 164.466 286.582 164.509 285.924 164.308C285.49 164.176 285.211 163.852 285.07 163.491C284.592 163.803 284.166 164.192 283.663 164.388C282.323 164.91 280.958 164.926 279.677 164.195C278.681 163.628 278.403 162.664 278.506 161.592C278.61 160.507 279.224 159.737 280.244 159.398C280.936 159.167 281.681 159.083 282.407 158.973C283.049 158.877 283.697 158.831 284.344 158.772C284.565 158.752 284.642 158.664 284.638 158.434C284.628 157.759 284.463 157.172 283.789 156.881C282.894 156.494 281.559 156.783 281.221 157.959C281.199 158.039 281.113 158.16 281.055 158.161C280.308 158.175 279.561 158.17 278.781 158.17C278.826 157.518 279.038 156.969 279.385 156.471C280.033 155.546 280.968 155.078 282.046 154.898C283.097 154.723 284.139 154.791 285.125 155.247C286.237 155.761 286.888 156.644 286.977 157.848C287.067 159.061 287.031 160.285 287.05 161.504C287.052 161.604 287.05 161.704 287.05 161.804C287.051 162.562 287.175 162.7 287.944 162.766ZM284.595 160.36C283.653 160.492 282.726 160.609 281.804 160.76C281.61 160.792 281.421 160.931 281.259 161.058C280.906 161.338 280.837 161.725 280.936 162.143C281.026 162.518 281.284 162.759 281.659 162.815C281.991 162.865 282.337 162.892 282.669 162.858C284.055 162.719 284.801 161.773 284.595 160.36Z" fill="#1A4CE0"/>
<path d="M246.08 161.505C246.856 161.505 247.613 161.505 248.366 161.505C248.38 161.53 248.393 161.546 248.399 161.564C248.794 162.726 249.794 163.23 250.977 162.853C251.359 162.731 251.662 162.507 251.713 162.072C251.767 161.605 251.584 161.214 251.159 161.037C250.583 160.797 249.974 160.637 249.379 160.442C248.812 160.255 248.216 160.128 247.683 159.87C245.953 159.033 246.05 156.67 247.28 155.641C247.885 155.136 248.59 154.89 249.357 154.797C250.267 154.688 251.155 154.787 252.002 155.14C253.193 155.638 253.903 156.712 254.012 158.16C253.915 158.165 253.818 158.173 253.721 158.173C253.321 158.175 252.921 158.175 252.521 158.174C252.281 158.173 251.989 158.251 251.817 158.141C251.661 158.043 251.631 157.74 251.554 157.524C251.163 156.427 249.722 156.345 249.078 156.792C248.506 157.189 248.559 158.019 249.212 158.292C249.779 158.529 250.394 158.649 250.978 158.848C251.57 159.051 252.181 159.23 252.73 159.522C253.731 160.054 254.081 160.983 254.024 162.067C253.969 163.12 253.435 163.886 252.463 164.293C250.928 164.937 249.372 164.893 247.867 164.223C246.731 163.718 246.179 162.755 246.08 161.505Z" fill="#1A4CE0"/>
<path d="M272.693 155.25C272.693 155.899 272.693 156.498 272.693 157.15C272.48 157.15 272.275 157.15 272.07 157.15C271.57 157.15 271.069 157.164 270.57 157.144C270.306 157.133 270.233 157.213 270.234 157.479C270.245 159.68 270.24 161.88 270.24 164.081C270.24 164.198 270.24 164.315 270.24 164.447C269.424 164.447 268.638 164.447 267.816 164.447C267.816 164.317 267.816 164.2 267.816 164.083C267.816 161.892 267.811 159.701 267.822 157.51C267.824 157.222 267.745 157.131 267.455 157.143C266.927 157.165 266.398 157.15 265.85 157.15C265.85 156.509 265.85 155.896 265.85 155.253C266.498 155.253 267.134 155.253 267.816 155.253C267.816 154.95 267.8 154.674 267.82 154.399C267.854 153.914 267.842 153.41 267.97 152.948C268.296 151.766 269.186 151.207 270.341 151.055C271.348 150.921 272.328 151.084 273.295 151.504C273.166 152.062 273.036 152.619 272.901 153.199C272.557 153.118 272.243 153.017 271.922 152.976C271.639 152.94 271.339 152.926 271.063 152.982C270.517 153.092 270.252 153.448 270.242 154.004C270.235 154.402 270.241 154.801 270.241 155.25C271.069 155.25 271.88 155.25 272.693 155.25Z" fill="#1A4CE0"/>
<path d="M274.551 155.266C275.335 155.266 276.101 155.266 276.9 155.266C276.909 155.377 276.924 155.482 276.924 155.587C276.925 158.416 276.921 161.246 276.93 164.075C276.93 164.343 276.864 164.442 276.581 164.434C275.913 164.415 275.244 164.428 274.551 164.428C274.551 161.367 274.551 158.333 274.551 155.266Z" fill="#1A4CE0"/>
<path d="M278.448 151.158C277.964 151.947 277.486 152.659 277.079 153.409C276.825 153.879 276.506 154.069 275.981 154.009C275.628 153.969 275.266 154.001 274.87 154.001C274.9 153.9 274.915 153.826 274.943 153.759C275.267 153.01 275.599 152.264 275.917 151.511C276.024 151.259 276.179 151.145 276.464 151.153C277.101 151.17 277.739 151.158 278.448 151.158Z" fill="#1A4CE0"/>
</g>
<g clip-path="url(#clip4_104_1125)">
<path d="M5.8591 190.335C8.73206 190.335 11.6073 190.335 14.5965 190.335C14.5965 187.394 14.5965 184.537 14.5965 181.543C14.2205 181.52 13.8195 181.472 13.4186 181.472C11.2177 181.466 9.01685 181.447 6.81599 181.479C6.0687 181.491 5.70645 181.297 5.72012 180.465C5.75885 178.073 5.75202 175.681 5.7224 173.291C5.71329 172.562 5.95479 172.289 6.70436 172.3C9.13304 172.336 11.5617 172.336 13.9904 172.3C14.7377 172.289 14.9792 172.555 14.9701 173.289C14.9382 175.863 14.9587 178.44 14.9587 181.112C17.9091 181.112 20.7684 181.112 23.7416 181.112C23.7644 180.707 23.8031 180.304 23.8031 179.903C23.81 177.663 23.8191 175.424 23.8009 173.186C23.7963 172.557 23.933 172.159 24.6643 172.163C27.2069 172.177 29.7496 172.143 32.2922 172.202C32.5747 172.209 32.8868 172.678 33.1032 172.99C33.2103 173.147 33.1306 173.432 33.1306 173.66C33.1306 181.819 33.1329 189.98 33.1306 198.138C33.1306 199.653 33.1237 199.66 31.6269 199.663C29.3873 199.667 27.1477 199.642 24.9104 199.672C24.0765 199.683 23.7804 199.378 23.7963 198.535C23.8373 195.958 23.8123 193.381 23.8123 190.702C20.8732 190.702 18.0162 190.702 14.9883 190.702C14.9883 192.274 14.9883 193.853 14.9883 195.432C14.9883 196.532 14.9519 197.635 14.9997 198.733C15.0293 199.444 14.724 199.667 14.0679 199.665C11.564 199.651 9.05786 199.683 6.55399 199.626C6.24869 199.619 5.69962 199.168 5.69506 198.915C5.64038 196.222 5.67228 193.529 5.6905 190.834C5.68823 190.693 5.78164 190.554 5.8591 190.335Z" fill="#1A4CE0"/>
</g>
<g clip-path="url(#clip5_104_1125)">
<path d="M94.4228 176.118C94.4228 175.945 94.4231 175.773 94.4228 175.601C94.4225 175.443 94.4192 175.285 94.4205 175.127C94.4212 175.043 94.4681 174.996 94.5522 174.988C94.6138 174.983 94.6757 174.976 94.7376 174.976C95.2524 174.975 95.7673 174.975 96.2822 174.975C96.496 174.975 96.551 175.03 96.551 175.246C96.5513 177.847 96.551 180.448 96.551 183.048C96.551 183.283 96.5507 183.519 96.5507 183.754C96.5507 183.839 96.5149 183.898 96.4252 183.91C96.3764 183.916 96.3265 183.919 96.277 183.919C95.7435 183.919 95.2101 183.919 94.6766 183.919C94.4759 183.919 94.427 183.869 94.4267 183.665C94.4264 183.438 94.4267 183.212 94.4267 182.986C94.4267 182.956 94.4267 182.925 94.4267 182.879C94.397 182.902 94.3804 182.913 94.3658 182.926C93.4823 183.72 92.4438 184.086 91.2642 183.981C89.9956 183.869 89.0069 183.244 88.2799 182.21C87.7165 181.409 87.4561 180.506 87.4522 179.528C87.4473 178.344 87.8015 177.283 88.5647 176.373C89.2291 175.581 90.0722 175.086 91.1032 174.94C92.333 174.765 93.381 175.153 94.2748 175.994C94.3192 176.036 94.3531 176.089 94.3918 176.137C94.4019 176.131 94.4124 176.124 94.4228 176.118ZM89.4986 179.492C89.5244 179.679 89.5381 179.868 89.5781 180.051C89.8903 181.474 91.3971 182.293 92.7335 181.772C94.0054 181.275 94.6128 179.796 94.0692 178.519C93.6287 177.484 92.525 176.885 91.4551 177.102C90.3192 177.331 89.5156 178.321 89.4986 179.492Z" fill="#1A4CE0"/>
<path d="M113.428 176.119C113.428 175.975 113.429 175.834 113.428 175.692C113.427 175.507 113.424 175.32 113.423 175.135C113.422 175.045 113.468 174.996 113.556 174.988C113.618 174.983 113.68 174.976 113.742 174.976C114.257 174.975 114.771 174.975 115.286 174.976C115.495 174.976 115.547 175.026 115.547 175.231C115.547 178.055 115.547 180.879 115.547 183.703C115.547 183.875 115.51 183.917 115.334 183.918C114.763 183.921 114.192 183.92 113.622 183.919C113.494 183.918 113.431 183.854 113.43 183.72C113.428 183.478 113.429 183.236 113.429 182.994C113.429 182.961 113.429 182.928 113.429 182.876C113.386 182.912 113.358 182.934 113.332 182.958C111.84 184.305 109.435 184.437 107.807 182.834C107.004 182.043 106.577 181.07 106.474 179.953C106.389 179.029 106.535 178.141 106.955 177.311C107.565 176.105 108.499 175.279 109.842 174.99C111.17 174.705 112.315 175.085 113.292 176.008C113.328 176.043 113.363 176.078 113.399 176.112C113.403 176.116 113.411 176.115 113.428 176.119ZM108.519 179.497C108.515 179.795 108.57 180.082 108.672 180.361C109.198 181.795 110.885 182.371 112.164 181.553C113.22 180.877 113.583 179.449 112.981 178.329C112.446 177.332 111.319 176.845 110.252 177.15C109.228 177.442 108.518 178.403 108.519 179.497Z" fill="#1A4CE0"/>
<path d="M104.053 177.651C103.718 177.651 103.383 177.649 103.048 177.652C102.956 177.653 102.918 177.621 102.899 177.53C102.834 177.197 102.654 176.939 102.342 176.796C101.886 176.586 101.414 176.561 100.942 176.74C100.563 176.885 100.376 177.211 100.425 177.599C100.45 177.794 100.559 177.936 100.718 178.042C100.962 178.204 101.24 178.282 101.518 178.358C102.07 178.508 102.627 178.643 103.177 178.804C103.683 178.953 104.155 179.177 104.554 179.533C105.046 179.97 105.288 180.528 105.338 181.175C105.372 181.612 105.335 182.041 105.164 182.451C104.923 183.029 104.493 183.422 103.94 183.694C103.386 183.966 102.792 184.085 102.181 184.115C101.48 184.149 100.787 184.092 100.114 183.88C99.5576 183.705 99.0601 183.431 98.6592 183C98.1743 182.479 97.9475 181.849 97.8837 181.151C97.8768 181.078 97.9107 181.04 97.9837 181.037C97.999 181.036 98.0147 181.036 98.0303 181.036C98.6908 181.036 99.3517 181.036 100.012 181.036C100.143 181.036 100.143 181.039 100.166 181.166C100.263 181.706 100.561 182.08 101.091 182.248C101.558 182.396 102.031 182.409 102.499 182.258C102.785 182.166 103.011 181.999 103.075 181.684C103.138 181.377 103.062 181.106 102.825 180.891C102.592 180.68 102.307 180.562 102.011 180.479C101.472 180.327 100.927 180.194 100.387 180.048C99.9001 179.917 99.4302 179.745 99.019 179.442C98.4911 179.053 98.2271 178.521 98.174 177.876C98.1307 177.351 98.2056 176.849 98.4608 176.384C98.7554 175.846 99.2086 175.482 99.759 175.233C100.416 174.935 101.109 174.837 101.826 174.872C102.387 174.9 102.936 174.986 103.453 175.215C104.466 175.662 105.034 176.443 105.182 177.535C105.194 177.626 105.172 177.651 105.077 177.651C104.735 177.652 104.394 177.651 104.053 177.651Z" fill="#1A4CE0"/>
<path d="M78.624 179.806C78.624 177.24 80.2237 175.316 82.4272 174.946C84.0543 174.673 85.4493 175.164 86.5999 176.345C86.6827 176.43 86.6801 176.466 86.5973 176.547C86.1874 176.952 85.7774 177.358 85.3672 177.764C85.2883 177.841 85.2544 177.839 85.1765 177.757C84.5887 177.141 83.8727 176.831 83.0183 176.892C81.9159 176.97 80.9823 177.77 80.7128 178.843C80.3407 180.322 81.3336 181.821 82.8417 182.034C83.7499 182.162 84.5215 181.873 85.1501 181.205C85.2414 181.109 85.2616 181.107 85.361 181.199C85.7833 181.591 86.2056 181.983 86.6273 182.376C86.7045 182.448 86.7068 182.486 86.6348 182.563C85.8804 183.377 84.9592 183.885 83.8568 184.027C82.349 184.223 81.0387 183.782 79.962 182.712C79.0679 181.824 78.6351 180.728 78.624 179.806Z" fill="#1A4CE0"/>
<path d="M120.07 179.454C120.07 180.892 120.07 182.33 120.07 183.768C120.07 183.925 120.07 183.925 119.909 183.925C119.243 183.925 118.576 183.925 117.909 183.925C117.784 183.925 117.778 183.92 117.778 183.794C117.778 180.899 117.778 178.004 117.778 175.109C117.778 174.988 117.79 174.976 117.911 174.976C118.584 174.976 119.257 174.976 119.93 174.976C120.063 174.976 120.07 174.984 120.07 175.12C120.07 176.565 120.07 178.009 120.07 179.454Z" fill="#1A4CE0"/>
<path d="M118.921 173.421C119.929 173.421 120.746 172.604 120.746 171.596C120.746 170.588 119.929 169.771 118.921 169.771C117.913 169.771 117.096 170.588 117.096 171.596C117.096 172.604 117.913 173.421 118.921 173.421Z" fill="#1A4CE0"/>
</g>
<g clip-path="url(#clip6_104_1125)">
<path d="M189.524 153.028C189.524 157.55 189.524 161.922 189.524 166.368C190.931 166.368 192.2 166.368 193.647 166.368C193.647 167.624 193.673 168.81 193.615 169.993C193.607 170.149 193.175 170.395 192.933 170.406C191.877 170.45 190.818 170.425 189.741 170.425C189.675 170.616 189.594 170.744 189.594 170.871C189.599 173.064 189.511 175.266 189.654 177.451C189.786 179.455 190.746 180.932 192.905 181.117C193.513 181.168 193.685 181.438 193.668 181.997C193.641 182.845 193.641 183.697 193.666 184.545C193.685 185.168 193.392 185.45 192.833 185.265C191.335 184.774 189.854 184.237 188.379 183.682C188.062 183.563 187.801 183.297 187.526 183.108C182.881 186.475 177.58 185.994 174.052 181.691C171.489 178.567 170.433 173.239 175.572 168.338C174.14 166.75 173.011 165.012 172.794 162.782C172.278 157.442 176.197 153.049 181.565 153.03C184.143 153.021 186.721 153.028 189.524 153.028ZM185.325 170.463C183.922 170.463 182.583 170.463 181.246 170.463C179.644 170.463 178.299 171.218 177.355 172.355C175.887 174.123 175.649 176.244 176.698 178.326C177.676 180.267 179.389 181.17 181.552 181.153C183.722 181.136 185.129 180.042 185.284 177.901C185.459 175.481 185.325 173.037 185.325 170.463ZM185.374 157.191C183.835 157.191 182.42 157.119 181.015 157.208C178.705 157.352 176.945 159.148 176.824 161.356C176.686 163.851 178.139 165.953 180.509 166.281C182.088 166.497 183.722 166.321 185.376 166.321C185.374 163.286 185.374 160.3 185.374 157.191Z" fill="#1A4CE0"/>
</g>
<path d="M414.255 148.73C414.074 148.734 413.892 148.738 413.71 148.742C413.584 148.444 413.421 148.155 413.338 147.845C413.077 146.874 412.465 146.2 411.432 146.435C410.899 146.557 410.266 147.152 410.089 147.667C409.763 148.62 410.372 149.328 411.265 149.758C414.539 151.335 417.99 149.364 418.111 145.823C418.168 144.16 418.114 142.494 418.133 140.829C418.141 140.169 417.866 139.372 418.947 139.138C419.093 139.107 419.109 138.518 419.203 138.114C417.176 138.114 415.318 138.114 412.948 138.114C414.655 139.754 414.229 141.554 414.25 143.282C414.273 145.097 414.255 146.914 414.255 148.73ZM431.589 150.339C432.358 150.19 433.175 150.113 433.933 149.866C435.279 149.429 435.892 148.475 435.923 147.122C435.954 145.731 435.165 144.97 433.925 144.547C433.24 144.314 432.52 144.173 431.847 143.914C431.616 143.826 431.318 143.487 431.339 143.292C431.372 143.011 431.749 142.509 431.834 142.536C432.246 142.666 432.597 142.966 432.994 143.161C433.522 143.42 434.07 143.799 434.613 143.806C434.912 143.81 435.548 143.014 435.461 142.825C435.216 142.287 434.734 141.559 434.244 141.477C433.183 141.298 432.032 141.343 430.964 141.538C429.535 141.8 428.788 142.772 428.72 144.057C428.646 145.459 429.179 146.23 430.658 146.787C431.375 147.057 432.146 147.211 432.83 147.54C433.575 147.899 433.538 148.602 432.792 148.959C431.88 149.396 431.386 149.019 431.068 148.134C430.791 147.363 430.086 147.005 429.316 147.278C428.883 147.431 428.241 148.065 428.312 148.323C428.472 148.913 428.903 149.582 429.428 149.888C430.009 150.229 430.817 150.197 431.589 150.339ZM428.019 144.71C427.967 144.385 427.908 143.675 427.724 142.998C427.581 142.476 427.703 141.549 426.66 141.866C425.864 142.109 424.756 142.182 425.145 143.518C425.248 143.874 425.308 144.255 425.31 144.625C425.318 145.545 425.091 146.368 424.108 146.766C423.104 147.173 422.26 146.861 421.565 146.137C421.281 145.841 421.173 145.37 420.865 145.116C420.578 144.881 420.037 144.63 419.778 144.746C419.421 144.907 418.947 145.459 419.005 145.752C419.381 147.63 420.323 149.2 422.235 149.95C425.312 151.154 428.207 148.701 428.019 144.71Z" fill="#1A4CE0"/>
<path d="M443.345 148.396C442.147 149.761 440.736 150.294 439.032 150.082C437.956 149.949 437.274 149.365 437.192 148.314C437.082 146.905 437.131 145.483 437.003 144.076C436.965 143.652 436.481 143.282 436.349 142.845C436.205 142.365 436.127 141.409 436.2 141.391C437.452 141.101 436.992 140.149 437.02 139.447C437.075 138.033 437.043 138.103 439.105 138.004C440.337 137.944 440.388 138.547 440.372 139.444C440.344 141.049 440.377 141.05 442.458 141.383C442.708 142.315 442.671 143.039 441.342 142.907C440.596 142.832 440.354 143.186 440.365 143.852C440.384 144.894 440.351 145.937 440.38 146.979C440.397 147.588 440.316 148.326 441.292 148.318C442.085 148.312 442.884 147.429 442.833 146.67C442.801 146.215 442.721 145.754 442.766 145.305C442.988 143.073 444.36 141.624 446.505 141.311C448.759 140.982 450.741 142.021 451.517 143.937C452.306 145.89 451.71 148.21 450.12 149.372C448.444 150.597 445.884 150.536 444.265 149.225C443.974 148.99 443.707 148.725 443.345 148.396ZM447.938 148.19C448.223 147.896 448.832 147.495 449.102 146.939C449.533 146.05 448.802 144.092 447.835 143.689C447.279 143.456 446.355 143.48 445.869 143.791C444.97 144.366 445.091 145.382 445.441 146.274C445.813 147.224 446.324 148.089 447.938 148.19Z" fill="#1A4CE0"/>
<path d="M414.255 148.73C414.255 146.914 414.273 145.097 414.25 143.28C414.228 141.553 414.655 139.754 412.948 138.113C415.318 138.113 417.176 138.113 419.203 138.113C419.109 138.517 419.093 139.105 418.947 139.137C417.866 139.371 418.141 140.168 418.133 140.829C418.113 142.493 418.167 144.159 418.111 145.822C417.99 149.364 414.539 151.334 411.265 149.757C410.372 149.327 409.763 148.62 410.089 147.667C410.266 147.152 410.899 146.557 411.432 146.436C412.465 146.2 413.077 146.875 413.337 147.846C413.42 148.156 413.583 148.445 413.709 148.743C413.892 148.738 414.074 148.734 414.255 148.73Z" fill="#1A4CE0"/>
<path d="M431.589 150.339C430.817 150.198 430.009 150.228 429.429 149.89C428.904 149.584 428.473 148.915 428.312 148.325C428.242 148.067 428.883 147.433 429.317 147.279C430.087 147.007 430.792 147.365 431.069 148.136C431.387 149.022 431.881 149.398 432.793 148.961C433.539 148.604 433.576 147.902 432.831 147.542C432.147 147.213 431.376 147.058 430.659 146.789C429.18 146.231 428.646 145.461 428.72 144.059C428.788 142.774 429.536 141.801 430.965 141.54C432.033 141.344 433.183 141.299 434.245 141.479C434.735 141.561 435.217 142.289 435.462 142.827C435.549 143.016 434.913 143.812 434.614 143.807C434.07 143.801 433.522 143.421 432.995 143.162C432.598 142.968 432.247 142.668 431.835 142.537C431.75 142.511 431.372 143.013 431.34 143.294C431.318 143.488 431.617 143.827 431.848 143.916C432.521 144.175 433.241 144.315 433.925 144.549C435.167 144.972 435.955 145.734 435.924 147.123C435.893 148.477 435.28 149.431 433.934 149.868C433.175 150.113 432.358 150.19 431.589 150.339Z" fill="#1A4CE0"/>
<path d="M428.019 144.71C428.207 148.701 425.312 151.154 422.237 149.95C420.324 149.2 419.383 147.63 419.007 145.752C418.948 145.459 419.423 144.907 419.78 144.746C420.038 144.63 420.58 144.881 420.867 145.116C421.175 145.37 421.284 145.841 421.567 146.137C422.262 146.861 423.105 147.173 424.109 146.766C425.093 146.367 425.319 145.545 425.312 144.625C425.309 144.255 425.25 143.874 425.146 143.518C424.758 142.182 425.864 142.109 426.662 141.866C427.704 141.549 427.583 142.475 427.725 142.998C427.909 143.675 427.967 144.385 428.019 144.71Z" fill="#1A4CE0"/>
<path d="M420.67 143.305C421.581 143.305 422.318 142.587 422.318 141.701C422.318 140.816 421.581 140.098 420.67 140.098C419.76 140.098 419.022 140.816 419.022 141.701C419.022 142.587 419.76 143.305 420.67 143.305Z" fill="#1A4CE0"/>
<path d="M425.258 139.404C425.258 139.404 425.383 138.882 425.08 138.537C424.679 138.082 423.785 137.889 423.387 139.144C423.163 139.848 423.387 142.092 423.387 142.092C423.387 142.092 426.19 141.435 426.683 140.705C426.891 140.397 426.683 139.404 425.97 139.404C425.258 139.404 425.258 139.404 425.258 139.404Z" fill="#1A4CE0"/>
<g clip-path="url(#clip7_104_1125)">
<path d="M581.35 32.1929C582.836 32.1061 584.379 32.1607 585.723 32.8007C587.064 33.4407 588.158 34.7978 588.087 36.2868C588.013 37.8915 586.701 39.1232 585.485 40.1716C588.164 40.5221 591.146 41.0431 592.753 43.2138C594.207 45.1723 594.024 48.0345 592.715 50.0927C591.406 52.1509 589.158 53.4662 586.814 54.1383C584.469 54.8104 582.006 54.9101 579.571 55.0066C578.693 55.042 577.925 54.328 577.606 53.5112C577.288 52.6911 577.317 51.7842 577.352 50.9063C577.578 45.3781 577.803 39.8468 578.025 34.3186C578.086 32.865 579.906 32.2733 581.35 32.1929ZM580.15 50.4786C580.154 50.723 580.16 50.9899 580.311 51.1829C580.52 51.4498 580.909 51.4755 581.247 51.4659C583.945 51.3887 586.614 50.5107 588.833 48.9768C589.747 48.3464 590.676 47.2916 590.274 46.2561C590.023 45.6065 589.332 45.2527 588.685 44.9922C586.634 44.169 584.434 43.7155 582.221 43.6576C581.633 43.6416 580.98 43.6801 580.562 44.095C580.125 44.5291 580.102 45.2173 580.108 45.8348C580.125 47.3817 580.137 48.9285 580.15 50.4786ZM579.803 34.711C579.62 34.9039 579.555 35.1805 579.51 35.441C579.269 36.8399 579.443 38.3063 579.999 39.612C581.942 38.3867 583.881 37.1615 585.823 35.9394C584.395 34.8396 582.565 34.2768 580.768 34.3797C580.42 34.399 580.041 34.4569 579.803 34.711Z" fill="#1A4CE0"/>
<path d="M485.239 34.1159C485.268 36.544 485.3 38.9945 485.831 41.3646C486.085 42.4998 486.143 44.1496 484.995 44.3425C483.875 44.5323 483.361 43.0015 483.313 41.8695C483.084 36.4346 483.197 30.9836 483.644 25.5616C483.718 24.6579 483.834 23.6867 484.451 23.0243C485.069 22.365 486.374 22.3135 486.744 23.14C488.822 27.7935 491.044 32.3826 493.407 36.8977C494.347 38.6922 495.321 40.4963 496.662 42.0142C496.594 36.9009 496.527 31.7844 496.463 26.6711C496.453 25.8221 496.472 24.8863 497.035 24.2495C497.598 23.6128 498.903 23.6771 499.077 24.51C500.425 31.0608 500.508 37.8721 499.322 44.4551C499.174 45.2719 498.981 46.137 498.395 46.7255C497.81 47.3173 496.701 47.4556 496.199 46.7963C491.423 40.506 487.866 33.2895 485.789 25.6677C485.31 25.6324 485.143 26.2884 485.149 26.7708C485.181 29.2181 485.21 31.6686 485.239 34.1159Z" fill="#1A4CE0"/>
<path d="M413.155 38.0938C412.502 37.7369 412.113 37.0454 411.772 36.383C410.093 33.1188 408.733 29.6939 407.723 26.166C407.08 26.5037 407.009 27.3784 407.019 28.1052C407.057 30.8805 407.099 33.6559 407.138 36.4312C407.15 37.4185 405.584 37.6951 404.902 36.9811C404.221 36.2672 404.211 35.1641 404.246 34.1768C404.423 29.0346 404.603 23.8891 404.78 18.7469C404.79 18.4446 404.816 18.1101 405.034 17.9011C405.607 17.3512 406.408 18.2806 406.662 19.0331C408.405 24.2397 410.755 29.2404 413.653 33.9067C414.386 29.2211 414.492 24.4423 413.971 19.7277C413.901 19.0813 413.83 18.3771 414.177 17.8304C414.836 16.7852 416.592 17.1132 417.297 18.1262C418.001 19.1424 417.969 20.4771 417.908 21.712C417.718 25.5067 417.528 29.3047 417.338 33.1027C417.274 34.4084 417.19 35.7784 416.499 36.8911C415.811 38.0006 414.303 38.7209 413.155 38.0938Z" fill="#1A4CE0"/>
<path d="M470.751 35.351C470.279 35.8398 469.761 36.3447 469.594 37.004C473.041 38.1521 476.749 38.5058 480.348 38.0331C480.496 39.3773 479.467 40.6412 478.216 41.1557C476.965 41.6735 475.553 41.5931 474.215 41.4001C472.16 41.1011 470.14 40.5479 468.221 39.7568C467.603 39.5027 466.51 39.6282 466.735 40.2553C467.117 41.3133 466.87 42.5739 466.117 43.4133C464.805 43.6416 463.86 42.1687 463.532 40.8759C462.885 38.3354 463.075 35.6662 463.271 33.0548C463.49 30.1316 463.709 27.2083 463.927 24.285C463.953 23.9442 464.085 23.5004 464.426 23.5036C466.378 23.5325 468.275 22.4713 470.205 22.7703C472.771 23.1691 474.437 25.9927 474.276 28.5879C474.115 31.1832 472.559 33.4858 470.751 35.351ZM465.516 35.6276C467.526 34.4763 469.262 32.849 470.542 30.9163C471.324 29.736 471.951 28.3242 471.658 26.9414C471.324 25.3624 469.671 24.1853 468.069 24.3847C466.468 24.5841 465.156 26.131 465.217 27.7421C465.313 30.3696 465.413 33.0002 465.516 35.6276Z" fill="#1A4CE0"/>
<path d="M567.061 49.4911C569.579 44.2942 569.229 38.2386 569.116 32.4661C569.103 31.8132 569.152 31.0478 569.692 30.6844C570.637 30.0477 571.741 31.3115 572.04 32.4114C572.692 34.8201 572.454 37.3671 572.207 39.8498C572.062 41.3098 571.917 42.7731 571.773 44.2331C571.551 46.4875 571.313 48.7933 570.338 50.8354C569.361 52.8775 567.483 54.6398 565.225 54.8295C563.463 54.9775 561.707 54.1285 560.517 52.826C559.327 51.5236 558.655 49.8063 558.359 48.0632C557.954 45.6738 558.211 43.2297 558.472 40.821C558.803 37.7466 559.134 34.669 559.465 31.5945C559.517 31.1186 559.674 30.5301 560.144 30.4561C562.299 35.9521 559.06 42.3936 560.961 47.9796C561.337 49.0891 561.951 50.1729 562.932 50.8096C563.913 51.4464 565.325 51.5204 566.203 50.7453C566.589 50.4076 566.839 49.951 567.061 49.4911Z" fill="#1A4CE0"/>
<path d="M453.536 41.7441C450.732 42.1911 447.899 40.2905 446.69 37.721C445.481 35.1515 445.677 32.0964 446.6 29.4111C447.269 27.4655 448.301 25.6485 449.629 24.0791C450.523 23.0211 451.646 22.0274 453.016 21.8344C455.463 21.4871 457.495 23.7736 458.454 26.0537C459.508 28.5621 459.891 31.3471 459.553 34.0484C459.113 37.5152 456.987 41.1942 453.536 41.7441ZM455.749 36.5762C456.129 35.9008 456.305 35.1322 456.412 34.3636C456.82 31.4307 456.289 28.3724 454.916 25.7514C454.511 24.9796 453.884 24.1531 453.009 24.1563C452.244 24.1595 451.649 24.8091 451.205 25.433C449.951 27.1921 449.034 29.1924 448.523 31.2924C448.015 33.3667 447.995 35.8108 449.472 37.3576C451.16 39.1264 454.543 38.7051 455.749 36.5762Z" fill="#1A4CE0"/>
<path d="M395.538 16.9784C395.589 16.033 395.866 14.9074 396.766 14.618C397.499 14.3832 398.31 14.8817 398.68 15.5538C399.049 16.2291 399.088 17.0299 399.101 17.8017C399.133 19.6637 399.078 21.5257 398.94 23.3813C398.805 25.1855 398.58 27.0185 397.831 28.6651C397.081 30.3116 395.727 31.7684 393.978 32.2412C391.193 32.9937 388.302 31.0513 386.761 28.6104C383.983 24.2207 384.327 18.6025 385.041 13.457C385.108 12.9714 385.208 12.4344 385.594 12.1353C385.98 11.8362 386.726 12.0581 386.684 12.5469C386.459 15.1325 386.237 17.7438 386.546 20.3198C386.858 22.8989 387.745 25.4749 389.492 27.3948C390.45 28.4464 391.974 29.3147 393.251 28.6844C393.843 28.3917 394.254 27.8257 394.56 27.2372C396.158 24.1564 395.345 20.4452 395.538 16.9784Z" fill="#1A4CE0"/>
<path d="M535.623 29.4076C534.848 27.7707 532.481 27.7257 530.809 28.4235C527.699 29.726 525.413 32.8068 525.065 36.161C524.718 39.5152 526.329 42.9981 529.105 44.9083C531.224 46.3651 533.829 46.8925 536.353 47.3749C536.842 47.4682 537.337 47.5582 537.829 47.5036C538.292 47.4521 538.743 47.272 539.206 47.3203C539.669 47.3685 540.148 47.7801 540.023 48.2272C536.691 50.9092 531.568 50.7002 528.063 48.2497C524.557 45.7991 522.631 41.4898 522.435 37.2159C522.403 36.4923 522.412 35.7687 522.502 35.0483C523.091 30.2405 527.529 26.2046 532.369 26.0727C533.346 26.047 534.388 26.1853 535.147 26.8027C535.909 27.4234 536.234 28.6422 535.623 29.4076Z" fill="#1A4CE0"/>
<path d="M445.764 38.7565C443.368 40.7375 439.85 41.2553 436.985 40.0525C434.119 38.8466 432.029 35.9715 431.765 32.8746C431.637 31.3342 431.923 29.7905 432.273 28.2887C432.785 26.0826 433.476 23.825 434.981 22.1334C436.486 20.4419 439.014 19.4675 441.091 20.3743C441.574 20.5866 442.066 21.188 441.702 21.5707C441.461 21.8247 441.046 21.725 440.702 21.6607C439.226 21.3777 437.695 22.1109 436.686 23.2236C435.676 24.3364 435.113 25.7803 434.695 27.221C434.18 28.9866 433.849 30.8614 434.222 32.6656C434.595 34.4665 435.788 36.187 437.535 36.7659C438.95 37.2354 440.49 36.917 441.979 36.9074C443.468 36.8977 445.182 37.3833 445.764 38.7565Z" fill="#1A4CE0"/>
<path d="M548.416 51.3276C546.014 50.8741 543.406 50.0412 542.196 47.9187C541.007 45.8316 541.573 43.2363 542.042 40.8823C542.875 36.7048 543.296 32.4437 543.299 28.1826C543.299 27.697 544.068 27.5684 544.403 27.9189C544.737 28.2695 544.743 28.8129 544.724 29.2985C544.547 34.161 544.194 39.0203 543.666 43.857C543.496 45.4296 544.612 46.9314 546.03 47.6325C547.448 48.3335 549.098 48.3786 550.677 48.2467C552.259 48.1149 554.153 47.9476 555.128 49.2018C554.697 50.4078 553.488 51.2118 552.233 51.4787C550.979 51.7456 549.677 51.5655 548.416 51.3276Z" fill="#1A4CE0"/>
<path d="M424.832 17.6827C425.388 21.7154 425.597 25.7964 425.459 29.8678C425.407 31.3728 425.314 32.9197 425.774 34.354C425.993 35.0358 426.337 35.6854 426.436 36.3929C426.536 37.1036 426.314 37.9301 425.677 38.2581C424.928 38.6472 423.963 38.1327 423.565 37.3866C423.166 36.6405 423.182 35.7497 423.208 34.9071C423.352 29.9707 423.5 25.0343 423.645 20.0978C423.674 19.1298 423.893 17.9142 424.832 17.6827Z" fill="#1A4CE0"/>
</g>
</g>
<defs>
<clipPath id="clip0_104_1125">
<rect width="600" height="355" fill="white"/>
</clipPath>
<clipPath id="clip1_104_1125">
<rect width="36.9532" height="22.7262" fill="white" transform="translate(493.677 125.515)"/>
</clipPath>
<clipPath id="clip2_104_1125">
<rect width="41.8641" height="13.7893" fill="white" transform="translate(328.612 145.849)"/>
</clipPath>
<clipPath id="clip3_104_1125">
<rect width="41.8641" height="13.7548" fill="white" transform="translate(246.08 151.009)"/>
</clipPath>
<clipPath id="clip4_104_1125">
<rect width="27.497" height="27.5107" fill="white" transform="translate(5.66064 172.163)"/>
</clipPath>
<clipPath id="clip5_104_1125">
<rect width="42.1217" height="14.3534" fill="white" transform="translate(78.624 169.771)"/>
</clipPath>
<clipPath id="clip6_104_1125">
<rect width="21.7497" height="32.2952" fill="white" transform="translate(171.921 153.025)"/>
</clipPath>
<clipPath id="clip7_104_1125">
<rect width="209.237" height="43" fill="white" transform="translate(384.536 12)"/>
</clipPath>
</defs>
</svg>
