<svg width="600" height="333" viewBox="0 0 600 333" fill="none" xmlns="http://www.w3.org/2000/svg">
<g clip-path="url(#clip0_104_1506)">
<path d="M22.3478 43.2416C22.4302 44.1439 21.9862 45.4759 21.1448 45.1393C19.3043 39.6933 18.6312 33.8534 19.1898 28.128C19.401 25.9439 20.2854 23.2728 22.4696 23.0185C23.6189 22.8861 24.7432 23.552 25.4665 24.4543C26.1898 25.3567 26.5908 26.4702 26.9739 27.5587C27.8082 29.9147 28.6425 32.2672 29.4732 34.6232C30.7085 30.9638 31.9402 27.3045 33.1755 23.6451C33.7555 21.9229 34.844 19.8426 36.6558 20.0073C38.532 20.1756 39.1873 22.5495 39.3699 24.4221C39.9929 30.7562 40.6159 37.0902 41.2389 43.4242C41.3499 44.5485 41.1709 46.0739 40.0538 46.2386C39.0369 46.389 38.3816 45.2074 38.0809 44.2227C36.6666 39.5859 36.0901 34.6948 36.3801 29.8539C36.0543 29.7822 35.732 29.7071 35.4062 29.6354C34.2676 33.8784 32.8962 38.0605 31.3064 42.1567C31.0773 42.7475 30.6798 43.4421 30.0496 43.392C29.6916 43.3634 29.4087 43.0841 29.176 42.812C27.6721 41.0396 26.8987 38.7802 26.1576 36.5782C25.1335 33.5383 24.1095 30.4984 23.0854 27.4585C21.2558 29.9255 21.4491 33.2948 21.7248 36.3562C21.9361 38.6549 22.1437 40.9465 22.3478 43.2416Z" fill="#1A4CE0"/>
<path d="M415.105 176.955C415.882 177.732 417.317 176.704 417.289 175.605C417.26 174.506 416.397 173.635 415.592 172.884C413.816 171.233 412.04 169.579 410.267 167.928C409.003 166.754 409.723 164.458 411.198 163.56C412.67 162.661 414.517 162.747 416.24 162.865C416.805 162.904 417.4 162.951 417.869 163.266C418.338 163.581 418.617 164.262 418.302 164.734C416.798 164.627 415.284 164.648 413.783 164.795C413.264 164.845 412.709 164.931 412.319 165.282C411.929 165.633 411.836 166.345 412.262 166.646C412.978 167.151 413.697 167.656 414.414 168.161C416.161 169.393 417.944 170.656 419.19 172.393C420.436 174.13 421.07 176.457 420.275 178.441C419.48 180.424 416.956 181.71 415.062 180.718C413.569 179.934 412.591 177.964 410.908 178.061C410.396 178.09 409.92 178.322 409.444 178.512C405.913 179.898 401.323 178.451 399.744 175.007C398.322 171.899 399.536 168.154 401.599 165.429C402.856 163.767 405.126 162.246 406.88 163.374C408.069 164.14 408.341 165.79 408.112 167.187C407.718 169.607 406.128 171.806 403.951 172.941C403.36 173.249 403.346 174.169 403.786 174.674C404.227 175.175 404.936 175.34 405.602 175.39C407.288 175.519 409 175.082 410.475 174.255C411.062 173.926 411.707 173.521 412.358 173.7C413.006 173.879 413.193 175.046 412.527 175.129C411.8 175.218 412.28 176.45 412.999 176.568C413.719 176.686 414.585 176.435 415.105 176.955ZM403.142 171.211C404.47 170.098 405.444 168.569 405.892 166.893C403.847 166.85 402.24 169.375 403.142 171.211Z" fill="#1A4CE0"/>
<path d="M82.4904 27.1863C80.6429 26.2303 78.4874 25.883 76.4321 26.2017C75.2469 26.3843 73.9042 27.0073 73.7395 28.1925C73.6643 28.7331 73.8613 29.2738 74.094 29.7715C75.3579 32.4892 77.6423 34.5659 79.5436 36.8789C81.4449 39.1956 83.0562 42.0958 82.5549 45.0498C82.025 48.1756 78.9958 50.5818 75.827 50.725C72.6582 50.8682 69.5753 48.9526 67.9819 46.2099C67.5165 45.4079 67.1763 44.3588 67.7027 43.5961C68.272 42.7761 69.5359 42.8012 70.4132 43.2774C71.2904 43.7536 71.9456 44.5485 72.7692 45.1143C74.0152 45.97 75.7446 46.2242 77.048 45.4652C78.3549 44.7061 78.96 42.8119 78.0971 41.5695C76.3247 39.0237 74.5559 36.4779 72.7835 33.9321C71.4587 32.0273 70.0694 29.8145 70.585 27.5551C71.0326 25.6001 72.8838 24.1894 74.8459 23.7704C76.8081 23.3515 78.8526 23.7597 80.761 24.3791C81.4019 24.5868 82.0715 24.841 82.4976 25.3602C82.9237 25.8794 83.0096 26.7531 82.4904 27.1863Z" fill="#1A4CE0"/>
<path d="M292.416 298.404C292.42 297.491 292.595 296.395 293.437 296.041C294.074 297.577 294.393 299.242 294.371 300.903C295.112 300.105 295.392 298.999 295.911 298.043C296.43 297.087 297.418 296.191 298.478 296.424C301.428 297.065 304.49 297.176 307.48 296.75C307.924 296.685 308.479 296.492 308.489 296.041C308.561 292.865 308.754 289.693 309.073 286.531C309.123 286.037 309.188 285.51 309.51 285.131C309.832 284.751 310.505 284.64 310.802 285.038C310.652 288.69 310.605 292.346 310.67 296.002C310.674 296.284 310.702 296.614 310.931 296.782C311.164 296.95 311.483 296.872 311.758 296.796C313.026 296.453 314.344 296.302 315.654 296.356C316.65 296.395 316.607 298.082 315.736 298.569C314.866 299.056 313.796 298.802 312.8 298.805C311.805 298.809 310.595 299.349 310.609 300.345C310.638 302.278 310.666 304.208 310.699 306.142C310.702 306.407 310.699 306.697 310.537 306.908C310.126 307.438 309.27 306.951 308.905 306.385C307.977 304.964 307.845 303.059 308.565 301.523C309.016 300.56 308.267 299.378 307.286 298.97C306.302 298.562 305.188 298.712 304.135 298.866C303.169 299.009 302.596 300.094 302.581 301.072C302.567 302.049 302.939 302.991 303.097 303.954C303.258 304.921 303.144 306.045 302.384 306.661C301.625 307.277 300.157 306.851 300.182 305.87C300.243 303.693 299.842 301.505 299.012 299.493C296.129 301.107 297.207 306.486 294.146 307.732C292.996 304.767 292.405 301.584 292.416 298.404Z" fill="#1A4CE0"/>
<path d="M293.641 249.25C293.63 249.007 293.648 248.749 293.77 248.538C294.071 248.022 294.837 248.015 295.378 248.269C295.918 248.523 296.366 248.96 296.932 249.157C298.11 249.565 299.427 248.752 300.022 247.657C300.612 246.561 300.659 245.265 300.695 244.019C300.727 242.794 300.759 241.573 300.791 240.349C300.809 239.704 300.218 238.784 299.8 239.271C298.446 240.85 295.689 240.911 294.268 239.389C292.495 237.495 293.312 234.119 295.421 232.611C297.529 231.104 300.412 231.132 302.897 231.881C304.168 232.264 304.444 233.907 304.487 235.232C304.544 236.976 304.605 238.716 304.662 240.46C304.744 242.945 304.82 245.487 304.053 247.85C303.283 250.213 301.49 252.401 299.058 252.924C296.627 253.454 293.748 251.731 293.641 249.25ZM297.358 234.015C296.684 234.437 295.993 235.028 295.943 235.819C295.893 236.611 296.942 237.363 297.501 236.797C298.428 235.855 299.356 234.917 300.283 233.975C299.667 233.087 298.274 233.442 297.358 234.015Z" fill="#1A4CE0"/>
<path d="M374.605 230.137C375.156 230.348 375.711 230.635 376.041 231.125C376.349 231.58 376.424 232.149 376.488 232.697C376.771 235.039 377.054 237.384 377.333 239.726C377.405 240.327 377.337 241.144 376.742 241.265C375.282 240.295 374.49 238.415 374.812 236.689C372.861 236.578 372.242 239.679 370.347 240.162C369.578 240.356 368.708 240.087 367.895 239.937C367.526 239.869 367.171 239.826 366.842 239.858C366.506 239.894 366.201 240.016 365.94 240.277C363.34 242.891 358.381 242.264 356.315 239.206C354.253 236.149 355.331 231.519 358.399 229.474C359.341 228.848 360.469 228.432 361.6 228.533C362.728 228.633 363.838 229.324 364.243 230.384C362.18 230.105 360.003 230.932 358.643 232.507C357.783 233.503 357.25 234.935 357.769 236.141C358.177 237.094 359.13 237.688 360.086 238.089C362.202 238.981 364.593 239.199 366.839 238.712C364.844 236.868 365.08 233.334 367.007 231.422C368.933 229.51 372.07 229.163 374.605 230.137ZM368.754 233.109C368.135 233.81 367.676 234.799 368.002 235.68C368.328 236.56 369.728 236.936 370.215 236.134C371.099 234.677 372.156 233.327 373.352 232.12C371.952 231.125 369.893 231.823 368.754 233.109Z" fill="#1A4CE0"/>
<path d="M236.413 102.214C235.661 102.597 235.342 103.571 235.542 104.391C235.743 105.211 236.359 105.873 237.064 106.335C238.74 107.434 241.031 107.517 242.782 106.543C244.533 105.569 245.668 103.578 245.618 101.573C245.532 98.1999 248.182 94.9666 251.508 94.3866C251.838 94.3293 252.199 94.3006 252.479 94.4797C252.761 94.6587 252.869 95.1206 252.604 95.3211C249.911 97.362 248.329 100.781 248.511 104.158C248.547 104.785 248.629 105.447 248.35 106.009C248.071 106.571 247.24 106.901 246.807 106.45C246.438 106.066 246.449 105.275 245.926 105.2C245.231 107.044 244.197 108.891 242.471 109.84C240.505 110.922 237.938 110.56 236.123 109.246C234.307 107.932 233.197 105.794 232.793 103.585C232.03 99.4209 233.766 94.895 237.118 92.3098C237.694 91.8658 238.339 91.4684 239.059 91.3896C240.591 91.2249 241.959 92.65 242.17 94.1753C242.381 95.7006 241.694 97.2224 240.788 98.4684C239.653 100.04 238.142 101.333 236.413 102.214ZM235.56 100.642C237.121 99.7789 238.45 98.5007 239.374 96.9753C239.861 96.1733 240.24 95.2065 239.961 94.3114C237.401 95.271 235.568 97.9099 235.56 100.642Z" fill="#1A4CE0"/>
<path d="M123.177 27.555C121.419 33.0297 119.253 38.3755 116.703 43.528C116.424 44.0937 116.102 44.6917 115.54 44.9745C114.523 45.483 113.338 44.7096 112.571 43.8717C110.287 41.3832 109.156 38.0783 108.081 34.8737C107.176 32.1776 106.27 29.4778 105.367 26.7816C105.213 26.3269 105.077 25.7791 105.371 25.4031C105.679 25.0092 106.323 25.0486 106.724 25.3494C107.125 25.6502 107.337 26.13 107.537 26.5919C109.116 30.2512 110.699 33.9105 112.278 37.5699C112.65 38.4328 113.076 39.3566 113.903 39.8042C115.801 35.0169 117.699 30.2333 119.6 25.4496C120.008 24.4184 120.649 23.2189 121.756 23.1796C122.662 23.1473 123.399 24.0031 123.564 24.8911C123.725 25.7862 123.453 26.6921 123.177 27.555Z" fill="#1A4CE0"/>
<path d="M223.351 159.403C222.198 159.012 220.937 159.55 219.949 160.258C216.648 162.625 215.055 167.144 216.147 171.057C218.786 170.087 221.428 169.117 224.067 168.146C224.317 168.053 224.579 167.96 224.847 167.978C225.635 168.035 226.022 169.092 225.696 169.811C225.37 170.531 224.615 170.946 223.884 171.244C222.613 171.759 221.263 172.074 219.895 172.175C218.617 172.268 217.02 172.368 216.544 173.557C215.817 175.376 218.725 177.52 217.507 179.053C215.706 178.158 214.467 176.228 214.399 174.216C214.374 173.424 213.286 173.234 212.498 173.32C210.883 173.499 209.279 173.811 207.714 174.248C207.163 174.402 206.776 173.571 207.066 173.081C207.36 172.59 207.969 172.415 208.524 172.278C210.217 171.863 211.907 171.448 213.601 171.032C213.189 167.309 213.289 163.327 215.216 160.112C217.142 156.896 221.367 154.827 224.779 156.377C227.408 157.573 228.876 160.617 228.768 163.499C228.729 164.552 228.399 165.748 227.447 166.191C225.359 164.43 225.932 160.28 223.351 159.403Z" fill="#1A4CE0"/>
<path d="M352.913 235.637C353.472 236.689 353.877 237.878 353.73 239.063C353.583 240.248 352.767 241.405 351.603 241.656C350.54 241.885 349.48 241.351 348.445 241.015C347.41 240.678 346.078 240.621 345.43 241.494C344.449 242.826 342.415 242.973 340.915 242.275C339.415 241.577 338.323 240.245 337.284 238.956C336.117 237.506 334.874 235.737 335.361 233.939C335.859 232.106 336.654 230.248 338.158 229.091C339.665 227.931 342.039 227.738 343.371 229.091C344.331 230.069 344.531 231.644 344.044 232.926C343.557 234.208 342.476 235.203 341.248 235.812C340.514 236.174 339.558 236.704 339.748 237.499C339.801 237.728 339.952 237.921 340.106 238.1C341.162 239.325 342.805 240.238 344.37 239.83C345.276 239.593 346.021 238.956 346.866 238.551C347.711 238.147 348.849 238.036 349.48 238.73C350.078 239.396 351.291 238.616 351.309 237.721C351.327 236.825 350.658 236.084 350.031 235.443C348.964 234.355 347.897 233.263 346.83 232.174C345.996 231.322 345.978 229.89 346.562 228.851C347.145 227.813 348.212 227.122 349.329 226.703C350.808 226.145 353.024 226.413 353.232 227.978C351.116 227.505 348.746 228.629 347.775 230.567C349.952 231.68 351.771 233.478 352.913 235.637ZM341.294 231.336C340.965 231.161 340.557 231.268 340.224 231.44C339.153 231.999 338.477 233.241 338.591 234.444C339.776 234.634 341.051 233.957 341.552 232.865C341.796 232.346 341.799 231.605 341.294 231.336Z" fill="#1A4CE0"/>
<path d="M321.29 102.69C319.99 101.795 318.723 100.731 318.071 99.2955C317.419 97.8561 317.545 95.962 318.741 94.9272C319.937 93.8924 322.2 94.3257 322.597 95.8546C321.179 95.8116 319.765 96.6172 319.074 97.8561C320.463 98.762 321.877 99.6894 322.926 100.971C323.976 102.253 324.627 103.975 324.24 105.59C323.854 107.205 322.203 108.537 320.578 108.208C318.909 107.867 317.326 109.006 315.654 109.325C313.184 109.797 310.602 108.326 309.313 106.163C308.024 104 307.884 101.304 308.429 98.8479C308.844 96.9753 309.854 94.9845 311.698 94.4474C314.204 93.717 316.75 96.4955 316.399 99.0842C316.048 101.673 313.606 103.592 311.046 104.119C312.761 106.603 316.456 106.482 319.374 105.701C320.101 105.508 320.868 105.261 321.355 104.688C321.841 104.115 321.91 103.12 321.29 102.69ZM310.645 100.448C310.545 101.093 310.752 101.945 311.401 102.027C311.734 102.07 312.049 101.874 312.314 101.666C313.069 101.068 313.678 100.28 314.064 99.3957C314.294 98.873 314.43 98.2213 314.086 97.7666C313.545 97.0505 312.367 97.4658 311.759 98.1246C311.171 98.7691 310.778 99.5891 310.645 100.448Z" fill="#1A4CE0"/>
<path d="M140.256 297.344C141.18 295.941 143.454 296.088 144.682 297.237C145.91 298.386 146.325 300.144 146.558 301.813C146.83 303.75 146.937 305.716 146.715 307.66C144.778 305.981 143.565 303.492 143.428 300.932C143.393 300.28 142.329 300.531 141.953 301.065C141.266 302.035 141.033 303.263 140.406 304.276C139.78 305.29 138.419 306.07 137.417 305.429C136.883 305.089 136.625 304.455 136.4 303.865C135.859 302.439 135.318 301.014 134.778 299.589C134.022 301.591 133.263 303.596 132.508 305.598C132.261 306.256 131.928 306.994 131.251 307.191C130.109 307.524 129.296 306.102 128.981 304.957C128.129 301.867 127.466 298.723 126.994 295.55C126.944 295.225 126.911 294.856 127.115 294.602C127.398 294.254 127.989 294.344 128.301 294.662C128.612 294.981 128.719 295.443 128.816 295.883C129.242 297.86 129.668 299.833 130.094 301.809C130.413 302.142 130.889 301.598 131.011 301.154C131.48 299.392 131.938 297.309 133.603 296.571C134.681 296.095 136.013 296.399 136.883 297.194C137.753 297.989 138.176 299.199 138.151 300.377C139.461 300.366 139.54 298.436 140.256 297.344Z" fill="#1A4CE0"/>
<path d="M366.753 95.3783C368.17 94.6192 370.068 94.2468 371.282 95.2995C372.066 95.9798 372.342 97.0862 372.349 98.1246C372.374 101.247 370.143 104.251 367.15 105.132C366.405 105.35 365.585 105.472 365.023 106.009C366.022 107.452 367.87 108.111 369.624 108.111C371.379 108.111 373.076 107.556 374.741 107.001C375.217 106.843 375.708 107.345 375.718 107.846C375.729 108.347 375.418 108.795 375.085 109.167C373.305 111.154 370.437 112.1 367.823 111.555C365.213 111.015 362.957 109.006 362.116 106.474C361.758 105.393 361.629 104.212 360.999 103.263C360.494 102.504 359.792 101.297 360.626 100.935C360.934 101.207 361.246 101.48 361.554 101.752C362.356 99.0519 364.271 96.7067 366.753 95.3783ZM365.234 102.607C365.65 103.506 367.032 102.944 367.698 102.214C368.657 101.168 369.449 99.9686 370.036 98.676C367.952 98.1783 365.61 99.6821 365.195 101.78C365.138 102.06 365.116 102.357 365.234 102.607Z" fill="#1A4CE0"/>
<path d="M47.0141 28.1815C46.7707 27.5728 46.52 26.914 46.6561 26.2731C46.7921 25.6322 47.4939 25.0664 48.0955 25.3278C49.9753 30.5483 52.3778 35.5826 55.2566 40.3304C56.3129 35.7151 57.3692 31.0997 58.4254 26.4843C58.7584 25.0342 59.6285 23.1974 61.093 23.4802C62.604 23.7703 62.6684 25.8971 62.3533 27.4046C61.4295 31.8266 60.5022 36.2629 59.0592 40.5453C58.6188 41.8522 57.9886 43.288 56.6924 43.757C55.5323 44.1796 54.2004 43.6353 53.3446 42.7437C52.4888 41.8558 52.0126 40.6777 51.5543 39.532C50.0433 35.7473 48.5287 31.9626 47.0141 28.1815Z" fill="#1A4CE0"/>
<path d="M528.423 47.8104C526.901 48.3403 525.186 47.9643 523.782 47.1766C522.379 46.3889 521.229 45.2288 520.098 44.0794C519.55 43.5244 519.446 42.6794 519.375 41.9024C518.906 36.8574 518.437 31.8123 517.964 26.7673C517.914 26.2338 517.871 25.6645 518.118 25.1847C518.365 24.7049 519.027 24.4077 519.461 24.7228C520.03 29.399 520.596 34.0753 521.165 38.7515C522.637 37.5413 524.405 36.5996 526.303 36.4922C528.204 36.3812 530.227 37.2441 531.144 38.9126C531.488 39.5392 531.663 40.2446 531.76 40.9536C532.139 43.6855 531.026 46.9045 528.423 47.8104ZM524.058 44.1797C525.422 44.2871 526.958 44.2942 527.961 43.3633C528.963 42.4323 528.645 40.2697 527.277 40.2195C525.941 40.1694 524.456 40.173 523.467 41.0753C522.479 41.974 522.723 44.0758 524.058 44.1797Z" fill="#1A4CE0"/>
<path d="M421.202 299.997C420.508 299.954 420.2 300.832 420.006 301.501C419.502 303.248 418.241 304.806 416.551 305.486C414.865 306.167 412.777 305.869 411.46 304.616C409.709 302.948 409.712 299.929 411.144 297.978C412.577 296.026 415.119 295.103 417.539 295.192C418.413 295.224 419.616 295.121 419.698 294.25C420.039 290.666 420.382 287.082 420.722 283.494C420.758 283.118 420.805 282.714 421.056 282.435C421.306 282.152 421.836 282.098 422.026 282.424C422.09 282.538 422.105 282.671 422.115 282.803C422.774 290.509 423.433 298.214 424.092 305.92C424.117 306.195 424.135 306.496 423.995 306.736C423.712 307.216 422.939 307.151 422.552 306.747C422.166 306.346 422.065 305.755 421.983 305.203C421.725 303.467 421.464 301.734 421.202 299.997ZM418.528 299.399C418.674 299.074 418.818 298.751 418.964 298.425C419.061 298.214 419.158 297.971 419.068 297.756C418.99 297.555 418.775 297.448 418.574 297.369C416.297 296.474 413.422 297.631 412.398 299.851C412.032 300.638 411.9 301.601 412.322 302.361C413.017 303.614 414.922 303.689 416.107 302.883C417.3 302.081 417.94 300.706 418.528 299.399Z" fill="#1A4CE0"/>
<path d="M290.748 175.859C289.842 174.241 289.294 172.425 289.161 170.574C288.581 170.417 288.012 170.932 287.819 171.501C287.625 172.067 287.679 172.687 287.586 173.281C287.3 175.093 285.452 176.511 283.629 176.321C281.957 176.145 280.332 176.822 278.685 177.162C277.038 177.503 275.068 177.399 274.03 176.077C272.744 174.445 273.654 172.013 274.939 170.381C275.849 169.224 276.934 168.204 278.14 167.362C276.884 166.453 275.154 166.832 273.629 167.108C272.1 167.384 270.213 167.359 269.382 166.045C272.272 165.207 275.287 164.809 278.294 164.874C279.068 164.892 279.967 165.006 280.368 165.669C280.973 166.661 279.977 167.824 279.132 168.616C277.879 169.786 276.755 171.097 275.792 172.518C275.398 173.102 275.025 173.879 275.412 174.466C275.695 174.892 276.257 175.01 276.762 175.093C277.901 175.279 279.086 175.462 280.185 175.121C281.284 174.781 282.269 173.757 282.151 172.611C281.828 169.482 284.739 166.424 287.883 166.593C289.566 166.682 290.672 168.397 291.163 170.008C291.653 171.62 291.872 173.41 292.996 174.663C293.519 175.243 294.271 175.823 294.16 176.6C294.049 177.363 293.064 177.735 292.337 177.474C291.614 177.209 291.127 176.532 290.748 175.859ZM283.962 174.47C284.421 174.978 285.151 174.194 285.366 173.546C285.982 171.706 286.598 169.869 287.214 168.028C285.968 167.982 284.865 168.952 284.36 170.091C283.855 171.233 283.823 172.518 283.798 173.764C283.794 174.011 283.798 174.287 283.962 174.47Z" fill="#1A4CE0"/>
<path d="M158.764 45.3757C156.619 46.6718 153.858 47.08 151.563 46.0703C149.268 45.0641 147.639 42.504 148.061 40.0334C148.638 36.657 152.344 34.8559 155.674 34.061C156.451 33.8749 157.246 33.7137 158.044 33.7674C160.615 33.9393 162.627 36.503 162.638 39.081C162.645 41.659 160.969 44.0437 158.764 45.3757ZM156.257 37.1403C154.893 37.083 153.44 37.2585 152.365 38.1071C151.295 38.9521 150.797 40.6314 151.606 41.7306C152.648 43.1521 154.875 42.7332 156.444 41.9311C157.203 41.5409 157.955 41.0718 158.424 40.3593C158.893 39.6467 158.997 38.637 158.47 37.9674C157.969 37.3301 157.07 37.1761 156.257 37.1403Z" fill="#1A4CE0"/>
<path d="M401.466 240.316C400.213 240.338 398.892 240.084 397.947 239.257C396.658 238.125 396.389 236.249 396.21 234.541C395.759 230.302 395.304 226.059 394.853 221.819C394.728 220.659 394.606 219.485 394.785 218.335C395.673 218.07 396.214 219.284 396.339 220.201C396.951 224.655 397.56 229.109 398.172 233.563C399.035 232.07 400.321 230.767 401.932 230.148C403.543 229.528 405.498 229.682 406.837 230.774C408.678 232.274 408.875 235.246 407.582 237.241C406.289 239.235 403.84 240.277 401.466 240.316ZM404.084 236.016C404.553 235.769 405.04 235.429 405.154 234.913C405.326 234.14 404.503 233.442 403.711 233.41C402.469 233.359 401.466 234.38 400.704 235.361C400.356 235.808 400.034 236.5 400.46 236.876C400.715 237.101 401.101 237.058 401.434 236.987C402.354 236.786 403.25 236.46 404.084 236.016Z" fill="#1A4CE0"/>
<path d="M363.874 175.293C362.871 175.136 362.463 173.918 362.366 172.909C362.269 171.899 362.18 170.706 361.317 170.169C360.644 171.444 360.755 173.027 360.067 174.294C358.975 176.307 355.953 176.783 354.113 175.422C352.273 174.061 351.746 171.326 352.67 169.231C353.594 167.137 355.731 165.722 357.991 165.339C358.46 165.26 358.997 165.182 359.262 164.788C359.437 164.523 359.437 164.179 359.43 163.86C359.394 162.156 359.362 160.452 359.326 158.747C359.308 157.824 359.52 156.61 360.436 156.484C361.399 156.352 361.904 157.573 362.08 158.525C362.982 163.52 363.881 168.515 364.783 173.51C364.923 174.305 364.647 175.512 363.874 175.293ZM358.073 172.089C358.342 170.961 358.61 169.833 358.882 168.705C358.936 168.483 358.99 168.243 358.911 168.028C358.703 167.455 357.862 167.538 357.307 167.792C356.326 168.239 355.395 168.916 354.933 169.89C354.471 170.864 354.611 172.175 355.459 172.837C356.308 173.503 357.822 173.138 358.073 172.089Z" fill="#1A4CE0"/>
<path d="M394.491 238.175C394.774 238.888 395.021 239.794 394.48 240.338C393.675 241.144 392.321 240.073 392.01 238.974C391.702 237.878 391.695 236.535 390.76 235.88C389.801 237.968 388.236 240.417 385.959 240.13C385.207 240.034 384.344 239.654 383.764 240.141C383.191 240.621 382.253 240.341 381.787 239.754C381.322 239.167 381.2 238.386 381.1 237.645C380.251 231.318 379.696 224.949 379.442 218.572C379.796 218.246 380.409 218.421 380.702 218.804C380.996 219.184 381.057 219.692 381.107 220.169C381.615 225.031 382.12 229.897 382.629 234.759C383.538 235.017 383.893 233.664 384.122 232.747C384.627 230.699 387.008 229.328 389.034 229.926C391.301 230.595 392.45 233.051 393.324 235.246C393.714 236.22 394.101 237.198 394.491 238.175ZM385.096 236.138C385.067 236.439 385.067 236.772 385.253 237.012C385.672 237.559 386.553 237.187 387.054 236.718C387.788 236.034 388.383 235.203 388.802 234.29C389.049 233.75 389.235 233.145 389.099 232.564C388.963 231.984 388.404 231.472 387.82 231.573C387.495 231.63 387.222 231.856 386.99 232.092C385.919 233.17 385.239 234.627 385.096 236.138Z" fill="#1A4CE0"/>
<path d="M379.467 156.037C380.445 159.951 381.179 163.921 381.662 167.925C382.901 166.886 384.681 166.532 386.22 167.022C388.68 167.803 390.137 170.467 390.349 173.041C390.478 174.609 390.223 176.253 389.364 177.571C388.505 178.888 386.979 179.823 385.411 179.726C383.732 179.622 382.285 178.38 381.483 176.901C380.681 175.422 380.405 173.718 380.162 172.053C379.503 167.531 378.988 162.99 378.612 158.436C378.54 157.523 378.615 156.363 379.467 156.037ZM385.626 175.995C386.926 175.104 387.391 173.184 386.643 171.799C386.321 171.201 385.705 170.674 385.032 170.757C384.262 170.853 383.803 171.663 383.553 172.397C383.313 173.095 383.145 173.818 383.048 174.549C382.994 174.946 382.969 175.365 383.145 175.723C383.563 176.572 384.849 176.532 385.626 175.995Z" fill="#1A4CE0"/>
<path d="M213.117 40.7925C213.074 35.0098 212.373 29.2308 211.026 23.6057C211.871 22.9755 212.849 24.2216 213.135 25.2313C214.113 28.6722 214.611 32.2456 214.611 35.8226C214.611 36.9433 214.75 38.3577 215.814 38.7229C216.827 35.9157 221.066 35.0993 223.19 37.1976C225.313 39.2958 224.722 43.3418 222.191 44.9244C220.64 45.8948 218.7 45.9915 216.873 45.859C216.046 45.7981 215.18 45.68 214.507 45.193C213.214 44.2513 213.128 42.393 213.117 40.7925ZM222.234 39.9116C221.883 39.2206 220.98 38.9628 220.221 39.1203C219.462 39.2779 218.814 39.7541 218.195 40.216C217.454 40.7674 216.644 41.4334 216.558 42.3536C218.667 43.3239 221.489 42.1101 222.234 39.9116Z" fill="#1A4CE0"/>
<path d="M214.335 228.952C212.068 229.303 209.798 229.65 207.532 230.001C207.159 230.058 206.704 230.187 206.629 230.559C206.508 231.157 205.587 231.297 205.176 230.849C204.764 230.402 204.832 229.657 205.179 229.156C205.526 228.655 206.078 228.339 206.622 228.064C209.168 226.775 211.943 225.933 214.775 225.593C215.853 225.464 216.25 224.104 216.265 223.019C216.279 221.934 216.265 220.634 217.167 220.033C217.378 219.889 217.643 219.803 217.894 219.857C218.56 220 218.649 220.938 218.424 221.583C218.198 222.227 217.826 222.926 218.105 223.549C218.538 224.505 219.967 224.272 220.887 223.767C221.807 223.262 222.967 222.643 223.809 223.273C224.564 223.839 224.41 225.092 223.755 225.772C223.1 226.453 222.137 226.71 221.231 226.965C220.325 227.219 219.362 227.541 218.785 228.286C218.091 229.184 218.148 230.431 218.209 231.562C218.327 233.75 218.349 235.941 218.266 238.132C218.22 239.4 217.751 241.058 216.483 241.051C215.756 241.047 215.162 240.395 214.972 239.69C214.782 238.988 214.9 238.243 215.015 237.524C215.387 235.15 215.681 232.765 215.892 230.37C215.928 229.951 215.946 229.471 215.649 229.17C215.327 228.834 214.793 228.88 214.335 228.952Z" fill="#1A4CE0"/>
<path d="M353.4 93.8493C353.186 94.7445 353.075 95.7936 353.687 96.4811C355.03 97.9921 358.044 96.0693 359.394 97.5731C358.062 98.7905 356.1 99.2775 354.356 98.8228C353.866 98.6939 353.375 99.1522 353.275 99.6499C353.175 100.148 353.347 100.656 353.515 101.136C354.228 103.152 354.937 105.168 355.649 107.183C355.033 107.713 354.124 107.04 353.665 106.371C352.444 104.595 351.707 102.486 351.549 100.337C351.499 99.657 351.431 98.8371 350.83 98.5148C350.357 98.2606 349.777 98.4504 349.24 98.4361C348.703 98.4217 348.073 97.9205 348.334 97.4478C349.537 97.3726 350.493 96.345 350.937 95.2243C351.381 94.1036 351.438 92.8754 351.646 91.6903C352.043 89.4202 353.017 87.2539 354.45 85.4493C354.994 84.7654 355.624 84.1173 356.433 83.7844C358.07 83.1112 360.01 83.9526 361.152 85.3025C362.295 86.6524 362.814 88.4069 363.304 90.1041C363.53 90.881 363.755 91.6795 363.666 92.4816C363.576 93.2836 363.086 94.0964 362.305 94.3148C360.898 92.3204 359.788 90.122 359.015 87.8089C358.775 87.0928 357.815 86.8457 357.117 87.1322C356.419 87.4186 355.946 88.0631 355.549 88.7041C354.564 90.2938 353.837 92.0376 353.4 93.8493Z" fill="#1A4CE0"/>
<path d="M262.783 43.8896C260.631 46.1239 257.158 47.3627 254.34 46.0702C251.358 44.7024 250.126 40.4952 251.902 37.7346C252.571 36.6926 253.567 35.8906 254.659 35.3105C256.718 34.2185 259.271 33.9141 261.394 34.8737C263.517 35.8333 265.035 38.1965 264.659 40.4952C264.448 41.7914 263.693 42.9443 262.783 43.8896ZM255.038 42.1852C256.557 43.1233 258.601 42.4466 259.958 41.2901C260.517 40.8103 261.047 40.155 260.961 39.4246C260.86 38.5868 260.019 38.0676 259.264 37.6916C258.297 37.2118 257.251 36.7463 256.181 36.8824C255.01 37.0328 253.982 37.9745 253.735 39.131C253.488 40.2875 254.032 41.5658 255.038 42.1852Z" fill="#1A4CE0"/>
<path d="M247.516 234.931C247.903 233.384 248.558 231.838 249.761 230.788C250.964 229.739 252.812 229.317 254.194 230.115C255.214 230.706 255.805 231.816 256.263 232.901C257.237 235.2 257.853 237.652 258.089 240.137C258.164 240.939 258.182 241.82 257.703 242.472C257.226 243.124 256.066 243.285 255.665 242.583C254.262 240.123 253.388 237.362 253.116 234.541C253.066 234.015 252.332 233.803 251.87 234.058C251.408 234.312 251.164 234.827 250.953 235.311C250.212 237.004 249.467 238.698 248.726 240.392C248.501 240.907 248.239 241.462 247.734 241.72C247.04 242.074 246.148 241.681 245.693 241.043C245.239 240.409 245.11 239.604 244.995 238.83C244.641 236.449 244.29 234.068 243.935 231.691C243.842 231.068 243.839 230.269 244.408 230.001C245.271 229.596 245.883 230.896 245.955 231.845C246.062 233.281 246.17 234.713 246.281 236.149C246.886 236.428 247.355 235.579 247.516 234.931Z" fill="#1A4CE0"/>
<path d="M255.816 97.2403C256.908 96.6567 258.175 96.5242 259.411 96.4024C260.789 96.2664 262.415 96.227 263.288 97.3047C263.664 97.7666 263.825 98.3646 263.976 98.9375C264.76 101.931 265.544 104.924 266.332 107.918C266.396 108.161 266.461 108.419 266.393 108.662C266.249 109.185 265.544 109.375 265.046 109.16C264.549 108.945 264.219 108.469 263.94 108.004C262.97 106.399 262.218 104.663 261.713 102.855C260.896 104.247 260.051 105.676 258.795 106.689C257.538 107.706 255.762 108.24 254.276 107.606C252.815 106.983 251.959 105.343 251.945 103.753C251.931 102.164 252.629 100.642 253.56 99.3564C254.165 98.5186 254.899 97.7344 255.816 97.2403ZM255.375 105.186C255.547 105.171 255.694 105.06 255.826 104.953C257.831 103.32 259.257 100.993 259.797 98.4649C258.225 98.1748 256.517 98.7799 255.479 99.9973C254.441 101.215 254.115 102.998 254.656 104.505C254.774 104.838 255.021 105.214 255.375 105.186Z" fill="#1A4CE0"/>
<path d="M379.41 299.994C379.256 299.274 378.726 298.683 378.117 298.268C376.28 297.018 373.563 297.283 372.005 298.87C371.25 298.329 371.414 297.065 372.105 296.442C372.796 295.819 373.785 295.683 374.712 295.633C377.419 295.489 380.556 296.13 381.855 298.508C382.729 300.112 382.493 302.171 381.54 303.728C380.588 305.286 379.016 306.389 377.333 307.094C376.774 307.327 376.08 307.728 376.209 308.319C376.667 310.424 377.129 312.526 377.587 314.631C377.795 315.584 377.985 316.658 377.458 317.478C376.932 318.298 375.371 318.351 375.167 317.399C373.992 311.935 373.197 306.392 372.782 300.821C372.721 299.99 373.072 298.798 373.874 299.009C374.343 299.135 374.519 299.697 374.619 300.169C374.898 301.508 375.178 302.848 375.457 304.187C375.926 304.47 376.517 304.14 376.964 303.821C378.275 302.887 379.746 301.566 379.41 299.994Z" fill="#1A4CE0"/>
<path d="M215.187 99.2454C215.054 102.926 212.756 106.586 209.279 107.803C205.802 109.02 201.405 107.277 200.148 103.814C198.999 100.642 200.893 96.7068 204.091 95.6326C204.624 95.4536 205.179 95.3462 205.73 95.2388C206.697 95.0526 207.664 94.8628 208.627 94.6766C210.346 94.3436 212.304 94.0608 213.687 95.1314C214.89 96.0552 215.24 97.7273 215.187 99.2454ZM206.307 97.0613C203.75 96.5385 201.248 99.3242 201.763 101.881C202.279 104.437 205.279 106.066 207.804 105.411C210.328 104.756 212.115 102.192 212.211 99.582C212.226 99.1882 212.201 98.7728 212 98.4362C211.37 97.3907 209.791 97.8633 208.581 97.7201C207.796 97.627 207.08 97.2188 206.307 97.0613Z" fill="#1A4CE0"/>
<path d="M557.723 44.4912C556.695 42.7689 555.954 40.8712 555.546 38.9055C553.838 41.1147 552.95 43.9469 553.09 46.7362C552.75 46.815 552.409 46.8902 552.069 46.9689C551.063 44.9638 551.593 42.5612 552.144 40.3878C552.427 39.2635 552.732 38.1034 553.459 37.2011C554.185 36.2988 555.464 35.7295 556.531 36.1807C558.382 36.9612 558.128 39.7648 559.456 41.2758C559.785 39.6574 560.509 38.1249 561.543 36.8395C562.156 36.0804 562.972 35.3643 563.946 35.35C565.847 35.3177 566.696 37.7096 566.875 39.6037C567.09 41.8738 567.143 44.1546 567.036 46.4318C565.525 46.6861 564.591 44.7884 564.53 43.2595C564.469 41.7305 564.648 39.9438 563.495 38.9341C562.553 41.086 561.608 43.2416 560.666 45.3935C560.412 45.9771 559.596 46.1275 559.016 45.8625C558.436 45.594 558.052 45.039 557.723 44.4912Z" fill="#1A4CE0"/>
<path d="M544.883 43.7321C545.073 44.8314 546.523 45.0999 547.636 45.0283C548.75 44.9567 550.146 44.9495 550.648 45.9485C551.063 46.7756 550.522 47.7961 549.774 48.3403C548.095 49.5577 545.631 49.0923 544.002 47.8032C542.373 46.5142 541.399 44.595 540.518 42.7152C540.26 42.1638 540.002 41.5086 540.278 40.9643C541.055 39.4354 541.535 37.7526 542.484 36.3275C543.433 34.9024 545.062 33.728 546.752 33.9965C548.392 34.2579 549.606 35.9014 549.641 37.5628C549.681 39.2242 548.707 40.7996 547.361 41.7771C546.505 42.4002 545.47 42.8477 544.883 43.7321ZM544.5 39.1991C544.378 39.6646 544.6 40.1981 545.019 40.4344C545.807 39.7935 546.487 39.0237 547.031 38.1643C546.132 37.57 544.718 38.1393 544.478 39.1884L544.5 39.1991Z" fill="#1A4CE0"/>
<path d="M218.689 105.146C218.685 102.98 218.728 100.645 217.482 98.8694C217.006 98.1891 217.586 97.2618 218.245 96.7569C220.243 95.2244 223.229 95.1349 225.313 96.5456C227.397 97.9564 228.424 100.764 227.744 103.188C227.064 105.612 224.726 107.47 222.208 107.588C221.489 107.62 220.919 108.279 220.748 108.981C220.576 109.683 220.708 110.417 220.841 111.126C221.281 113.482 221.721 115.834 222.162 118.19C222.345 119.164 222.122 120.614 221.138 120.51C220.472 120.439 220.189 119.644 220.06 118.989C219.161 114.434 218.703 109.79 218.689 105.146ZM221.446 104.455C223.523 104.695 225.556 102.711 225.366 100.631C225.177 98.5508 222.817 96.9646 220.819 97.5769C220.422 97.6986 220.017 97.9206 219.856 98.3037C219.727 98.6116 219.777 98.9625 219.835 99.2919C220.06 100.663 220.289 102.035 220.515 103.406C220.569 103.725 220.637 104.076 220.894 104.273C221.052 104.391 221.252 104.434 221.446 104.455Z" fill="#1A4CE0"/>
<path d="M346.383 94.7446C347.139 95.9656 346.816 97.5625 346.265 98.8873C345.585 100.531 344.224 102.235 342.452 102.085C342.072 102.053 341.642 101.949 341.349 102.185C341.234 102.275 341.163 102.407 341.105 102.54C340.6 103.721 341.445 105.16 342.631 105.651C343.816 106.142 345.194 105.887 346.372 105.379C347.55 104.87 348.621 104.126 349.792 103.599C349.72 105.991 347.962 108.236 345.66 108.881C343.357 109.529 340.69 108.526 339.383 106.525C338.073 104.52 338.012 101.68 336.11 100.219C337.217 100.388 338.384 99.6249 338.674 98.5436C339.15 96.7819 339.981 94.9988 341.517 94.0106C343.053 93.0223 345.423 93.1906 346.383 94.7446ZM341.564 100.183C341.907 100.327 342.29 100.133 342.591 99.9149C343.429 99.3098 344.099 98.4684 344.503 97.5124C344.611 97.2546 344.7 96.9574 344.578 96.7068C344.317 96.1697 343.497 96.4131 343.032 96.7855C342.43 97.2653 341.907 97.8454 341.492 98.497C341.141 99.0377 340.966 99.9329 341.564 100.183Z" fill="#1A4CE0"/>
<path d="M231.787 229.439C231.98 230.251 231.636 231.086 231.285 231.841C230.716 233.069 230.089 234.305 229.13 235.257C228.17 236.213 226.813 236.861 225.474 236.664C225.442 238.086 226.477 239.371 227.755 239.991C229.033 240.61 230.512 240.667 231.926 240.556C232.614 240.503 233.602 240.682 233.534 241.369C232.664 242.826 230.913 243.636 229.216 243.589C227.519 243.543 225.904 242.723 224.668 241.555C223.856 240.786 223.186 239.862 222.706 238.845C221.671 236.646 221.589 233.993 222.613 231.795C223.641 229.596 225.8 227.924 228.21 227.627C229.663 227.451 231.45 228.01 231.787 229.439ZM225.424 235.06C225.965 235.408 226.666 234.985 227.128 234.537C228.367 233.352 229.33 231.884 229.928 230.277C227.937 230.251 225.993 231.519 225.216 233.352C224.973 233.929 224.898 234.724 225.424 235.06Z" fill="#1A4CE0"/>
<path d="M325.927 297.645C326.034 301.047 322.768 304.158 319.378 303.89C319.682 305.232 321.154 305.956 322.507 306.213C323.861 306.471 325.314 306.475 326.492 307.191C324.652 309.343 321.021 309.833 318.898 307.957C316.821 306.12 316.366 302.579 313.781 301.591C315.686 301.598 317.494 300.123 317.874 298.257C318.357 295.869 320.885 294.09 323.298 294.437C323.857 294.519 324.408 294.702 324.849 295.056C325.594 295.661 325.898 296.678 325.927 297.645ZM323.535 298.064C323.331 297.48 322.478 297.523 321.923 297.799C320.352 298.58 319.335 300.359 319.464 302.11C321.035 301.548 322.41 300.445 323.298 299.031C323.481 298.741 323.649 298.39 323.535 298.064Z" fill="#1A4CE0"/>
<path d="M321.974 168.504C322.475 167.441 323.231 166.467 324.244 165.876C326.21 164.727 328.734 165.2 330.822 166.109C331.395 166.36 332.039 166.761 332.057 167.387C332.132 170.051 332.719 172.701 333.776 175.15C334.173 176.07 334.574 177.298 333.801 177.939C333.278 178.372 332.444 178.222 331.939 177.767C331.434 177.313 331.187 176.639 331.015 175.984C330.861 175.386 330.732 174.742 330.292 174.312C329.851 173.882 328.971 173.854 328.723 174.416C327.764 176.589 324.391 176.826 322.715 175.146C321.036 173.463 320.961 170.649 321.974 168.504ZM325.347 173.166C325.805 173.102 326.188 172.79 326.521 172.465C327.932 171.075 328.842 169.181 329.039 167.208C326.661 166.363 323.736 168.257 323.535 170.771C323.442 171.92 324.208 173.331 325.347 173.166Z" fill="#1A4CE0"/>
<path d="M426.677 237.506C425.506 238.891 424.135 240.388 422.323 240.506C420.984 240.592 419.709 239.876 418.724 238.963C415.523 235.991 414.922 230.62 417.385 227.015C418.184 225.847 419.369 224.816 420.783 224.727C423.107 224.583 424.883 227.323 424.314 229.578C423.741 231.838 421.485 233.359 419.186 233.728C419.022 233.753 418.989 233.975 419.004 234.14C419.222 236.31 421.575 238.003 423.701 237.527C424.722 237.302 425.975 236.722 426.677 237.506ZM419.244 232.038C420.343 231.333 421.141 230.173 421.406 228.894C419.834 228.612 418.416 230.67 419.244 232.038Z" fill="#1A4CE0"/>
<path d="M291.249 233.864C291.468 237.037 289.258 240.248 286.183 241.047C283.107 241.845 279.534 240.005 278.527 236.99C277.521 233.975 279.383 230.276 282.441 229.414C283.222 229.195 284.081 229.149 284.833 229.453C286.401 230.087 288.331 229.7 289.713 230.674C290.712 231.376 291.167 232.647 291.249 233.864ZM282.008 231.984C281.216 232.665 280.765 233.721 280.819 234.759C280.876 235.859 281.503 236.911 282.437 237.488C283.863 238.365 285.921 237.985 286.942 236.661C287.962 235.336 287.798 233.248 286.584 232.095C285.37 230.946 283.275 230.896 282.008 231.984Z" fill="#1A4CE0"/>
<path d="M295.95 38.9091C295.965 37.6738 297.189 36.8288 298.328 36.3525C299.438 35.8871 300.662 35.5541 301.844 35.7976C304.197 36.2774 305.582 39.0523 305.106 41.4083C304.626 43.7643 302.721 45.6155 300.573 46.6933C299.588 47.191 299.542 48.6017 299.896 49.6472C300.251 50.6928 300.867 51.724 300.713 52.816C300.559 53.9081 299.012 54.7675 298.353 53.8795C295.682 50.2702 298.224 44.9101 296.523 40.7531C296.28 40.1515 295.94 39.5572 295.95 38.9091ZM302.267 39.2421C301.937 38.0175 300.143 37.6344 299.173 38.4508C298.203 39.2671 298.127 40.8354 298.79 41.9168C299.001 42.2641 299.331 42.5971 299.739 42.5899C300.007 42.5863 300.244 42.4324 300.466 42.282C301.504 41.573 302.592 40.4595 302.267 39.2421Z" fill="#1A4CE0"/>
<path d="M480.558 37.3551C480.676 37.0544 480.927 36.8252 481.181 36.6283C483.762 34.6626 488.052 35.7188 489.423 38.6585C490.795 41.5981 488.85 45.5654 485.689 46.2815C485.091 46.4176 484.364 46.525 484.106 47.0836C483.988 47.3378 484.006 47.635 484.038 47.9143C484.425 51.2442 486.752 54.6243 485.374 57.6821C483.841 57.1235 483.297 55.2759 482.982 53.6754C481.979 48.6232 481.156 43.5316 480.511 38.4222C480.468 38.0641 480.425 37.6881 480.558 37.3551ZM483.626 43.1414C484.532 43.682 485.642 42.905 486.373 42.146C487.096 41.394 487.837 40.4488 487.651 39.4211C487.354 37.7598 485.127 37.4554 483.44 37.5521C483.082 37.5736 482.685 37.6094 482.438 37.8672C482.119 38.2002 482.187 38.7337 482.276 39.1848C482.423 39.9153 482.57 40.6421 482.713 41.3726C482.853 42.0457 483.039 42.7905 483.626 43.1414Z" fill="#1A4CE0"/>
<path d="M261.24 173.267C261.315 171.505 261.408 169.672 262.246 168.118C263.084 166.564 264.903 165.389 266.596 165.88C268.201 166.342 269.081 168.021 269.783 169.536C270.485 171.054 271.187 172.576 271.892 174.094C272.275 174.921 272.662 175.852 272.358 176.711C272.053 177.567 270.668 177.968 270.252 177.159C269.2 175.121 268.147 173.08 267.098 171.043C266.733 170.338 266.063 169.507 265.329 169.808C265.017 169.937 264.817 170.245 264.667 170.549C264.001 171.867 263.814 173.367 263.356 174.77C262.898 176.174 262.038 177.592 260.638 178.061C259.063 174.606 258.064 170.886 257.695 167.104C257.674 166.875 257.656 166.628 257.778 166.435C258.003 166.073 258.594 166.131 258.891 166.438C259.188 166.746 259.274 167.198 259.342 167.62C259.65 169.471 259.958 171.319 260.266 173.17C260.592 173.202 260.914 173.234 261.24 173.267Z" fill="#1A4CE0"/>
<path d="M312.919 197.715C313.592 197.668 314.326 197.636 314.874 198.03C315.951 198.807 315.404 200.676 314.229 201.299C313.055 201.922 311.637 201.707 310.319 201.532C309.002 201.356 307.53 201.278 306.481 202.094C306.671 203.082 306.86 204.07 307.05 205.059C307.376 206.752 307.598 208.782 306.323 209.946C306.194 210.064 306.037 210.175 305.861 210.168C305.664 210.161 305.507 210.007 305.378 209.853C303.856 208.023 304.057 205.359 304.343 202.996C304.49 201.775 302.75 201.36 301.532 201.521C300.315 201.682 298.625 201.632 298.403 200.422C298.235 199.505 299.201 198.753 300.118 198.599C301.035 198.445 301.994 198.639 302.897 198.413C303.799 198.188 304.658 197.253 304.289 196.397C303.914 195.531 304.755 194.654 305.503 194.081C306.159 194.546 306.04 195.524 305.994 196.326C305.944 197.128 306.302 198.188 307.104 198.13C309.044 197.994 310.982 197.855 312.919 197.715Z" fill="#1A4CE0"/>
<path d="M312.919 131.047C313.592 131 314.326 130.968 314.874 131.362C315.951 132.139 315.404 134.008 314.229 134.631C313.055 135.254 311.637 135.039 310.319 134.864C309.002 134.688 307.53 134.609 306.481 135.426C306.671 136.414 306.86 137.402 307.05 138.391C307.376 140.084 307.598 142.114 306.323 143.278C306.194 143.396 306.037 143.507 305.861 143.5C305.664 143.493 305.507 143.339 305.378 143.185C303.856 141.355 304.057 138.691 304.343 136.328C304.49 135.107 302.75 134.692 301.532 134.853C300.315 135.014 298.625 134.964 298.403 133.754C298.235 132.837 299.201 132.085 300.118 131.931C301.035 131.777 301.994 131.971 302.897 131.745C303.799 131.519 304.658 130.585 304.289 129.729C303.914 128.863 304.755 127.985 305.503 127.412C306.159 127.878 306.04 128.855 305.994 129.657C305.944 130.46 306.302 131.519 307.104 131.462C309.044 131.326 310.982 131.186 312.919 131.047Z" fill="#1A4CE0"/>
<path d="M323.732 241.702C322.168 240.431 321.14 238.512 320.954 236.503C320.055 237.849 319.131 239.224 317.846 240.213C316.56 241.201 314.827 241.749 313.291 241.23C310.588 240.313 309.893 236.517 311.218 233.986C312.077 232.346 313.631 231.014 315.458 230.713C317.148 230.434 318.845 231.025 320.456 231.609C320.864 231.755 321.283 231.909 321.598 232.206C321.999 232.579 322.182 233.123 322.35 233.646C322.905 235.365 323.457 237.087 324.012 238.805C324.334 239.79 324.567 241.079 323.732 241.702ZM316.066 237.534C317.148 236.8 318.039 235.794 318.637 234.631C319.224 233.488 317.788 232.142 316.517 232.335C315.246 232.529 314.326 233.628 313.628 234.709C313.019 235.651 312.529 237.015 313.349 237.781C314.072 238.451 315.253 238.086 316.066 237.534Z" fill="#1A4CE0"/>
<path d="M314.82 166.145C314.326 166.893 315.039 167.842 315.705 168.444C317.151 169.75 318.68 171.097 319.407 172.905C320.134 174.717 319.74 177.144 318.021 178.065C316.918 178.655 315.533 178.487 314.419 177.921C313.306 177.356 312.414 176.439 311.58 175.508C311.39 175.297 311.197 175.071 311.118 174.799C310.813 173.75 312.364 173.066 313.384 173.453C314.405 173.84 315.182 174.745 316.234 175.032C316.904 174.967 316.535 173.915 316.027 173.474C314.748 172.368 313.553 171.161 312.461 169.869C311.469 168.698 310.509 167.251 310.792 165.744C311.1 164.104 312.854 163.044 314.523 163.008C316.191 162.972 317.77 163.721 319.224 164.541C319.829 164.884 319.425 165.919 318.752 166.098C318.078 166.277 317.391 165.959 316.725 165.765C316.059 165.572 315.203 165.565 314.82 166.145Z" fill="#1A4CE0"/>
<path d="M164.887 37.3515C164.858 36.417 165.363 35.0779 166.226 35.4359C166.717 36.6927 166.906 38.0676 166.77 39.4104C167.522 39.6359 167.981 38.6298 168.206 37.8779C168.5 36.9075 169.005 35.9623 169.828 35.3679C170.652 34.7735 171.83 34.6088 172.685 35.1566C173.197 35.486 173.538 36.0231 173.82 36.5602C175.152 39.0845 175.607 41.9669 176.008 44.792C176.148 45.7587 176.255 46.8436 175.668 47.6278C175.084 48.4119 173.534 48.3797 173.366 47.4165C172.925 44.8779 172.488 42.3428 172.048 39.8042C171.944 39.2098 171.593 38.44 171.01 38.5904C169.971 41.3904 168.79 44.1367 167.479 46.8221C165.213 44.3659 164.987 40.6994 164.887 37.3515Z" fill="#1A4CE0"/>
<path d="M375.994 166.947C376.252 167.319 376.37 167.767 376.485 168.204C377.047 170.366 377.609 172.529 378.168 174.688C378.286 175.136 378.393 175.637 378.168 176.041C377.677 176.922 376.238 176.385 375.747 175.504C375.257 174.624 375.167 173.51 374.458 172.794C373.832 173.99 373.183 175.211 372.181 176.117C371.178 177.023 369.728 177.552 368.454 177.112C366.298 176.367 365.843 173.406 366.606 171.261C367.609 168.451 370.215 166.177 373.191 165.948C374.229 165.862 375.4 166.091 375.994 166.947ZM369.152 173.915C369.843 174.319 370.595 173.496 370.978 172.794C371.519 171.798 372.059 170.803 372.596 169.811C372.915 169.224 373.166 168.347 372.589 168.007C372.116 167.727 371.536 168.114 371.132 168.486C369.814 169.69 368.432 171.222 368.654 172.991C368.701 173.349 368.837 173.728 369.152 173.915Z" fill="#1A4CE0"/>
<path d="M364.815 44.3265C364.959 45.5618 366.262 46.303 367.462 46.6252C368.661 46.9475 369.993 47.0979 370.902 47.9429C369.488 49.8334 366.398 49.615 364.572 48.1147C362.749 46.6181 361.879 44.2764 361.113 42.0421C361.042 41.8344 361.163 41.616 361.281 41.4334C363.09 38.5689 365.442 35.3751 368.829 35.2712C370.433 35.2211 371.726 36.8789 371.679 38.483C371.633 40.0871 370.544 41.5086 369.216 42.4073C367.888 43.306 366.326 43.793 364.815 44.3265ZM367.784 40.4487C368.217 40.0047 368.65 39.5607 369.08 39.1203C367.376 38.15 364.905 40.0012 365.363 41.9096C366.155 41.4012 366.946 40.8891 367.741 40.3807L367.784 40.4487Z" fill="#1A4CE0"/>
<path d="M250.423 177.173C249.596 177.098 248.88 176.557 248.343 175.927C246.642 173.933 246.431 170.803 247.856 168.601C249.277 166.399 252.213 165.3 254.734 166.03C255.744 166.324 256.145 167.516 256.392 168.537C256.986 170.986 257.577 173.431 258.172 175.881C258.419 176.905 258.304 178.437 257.251 178.448C256.582 178.455 256.159 177.757 255.873 177.155C255.293 175.927 254.716 174.699 254.136 173.474C253.47 175.236 252.299 177.341 250.423 177.173ZM252.235 168.028C251.873 167.438 250.946 167.71 250.42 168.161C248.447 169.847 248.21 173.188 249.925 175.136C251.408 173.356 252.278 171.075 252.36 168.762C252.371 168.508 252.367 168.24 252.235 168.028Z" fill="#1A4CE0"/>
<path d="M467.363 293.835C470.364 294.029 472.716 297.165 472.379 300.151C472.043 303.141 469.365 305.587 466.386 306.009C465.612 306.12 464.814 306.11 464.062 305.902C461.222 305.121 459.847 301.176 461.588 298.798C462.544 297.495 464.194 296.682 464.735 295.16C465.089 294.168 466.314 293.767 467.363 293.835ZM465.115 302.991C466.593 302.808 467.983 301.974 468.835 300.749C469.723 299.475 468.498 297.538 466.955 297.377C465.412 297.215 463.979 298.35 463.249 299.718C462.755 300.649 462.569 301.956 463.381 302.629C463.847 303.016 464.509 303.066 465.115 302.991Z" fill="#1A4CE0"/>
<path d="M450.245 298.136C448.376 298.257 446.507 298.383 444.634 298.504C444.383 298.522 444.111 298.529 443.911 298.386C443.556 298.136 443.639 297.545 443.957 297.251C444.276 296.958 444.734 296.879 445.16 296.814C447.38 296.478 449.6 296.141 451.82 295.801C451.673 292.285 451.53 288.772 451.383 285.256C451.358 284.69 451.34 284.096 451.591 283.588C451.842 283.079 452.45 282.7 452.977 282.904C453.163 286.527 453.349 290.147 453.535 293.771C453.578 294.623 453.986 295.78 454.821 295.597C457.424 295.031 460.102 294.816 462.762 294.956C463.178 294.977 463.743 295.232 463.586 295.615C461.477 297.022 458.935 297.77 456.4 297.727C455.462 297.713 454.86 298.791 454.878 299.729C454.896 300.667 455.308 301.551 455.397 302.486C455.487 303.42 455.082 304.541 454.165 304.735C453.503 302.934 452.841 301.129 452.178 299.328C452.046 298.973 451.903 298.594 451.598 298.368C451.226 298.085 450.714 298.103 450.245 298.136Z" fill="#1A4CE0"/>
<path d="M570.079 38.7552C570.788 37.8923 571.662 37.1153 572.725 36.7715C574.766 36.1127 577.04 37.2406 578.368 38.9235C579.697 40.6063 580.284 42.7404 580.839 44.8099C580.989 45.3649 581.125 46.0094 580.785 46.4749C580.162 47.3307 578.741 46.636 578.261 45.6943C577.781 44.7491 577.641 43.5675 576.814 42.9087C575.575 45.0319 573.731 47.4631 571.304 47.0872C569.617 46.8258 568.403 45.1322 568.3 43.4278C568.192 41.7199 568.998 40.0728 570.079 38.7552ZM572.485 43.1736C573.47 42.0243 574.319 40.7603 575.013 39.414C575.171 39.1061 575.325 38.748 575.203 38.4258C574.952 37.7526 573.932 37.9531 573.341 38.3613C571.909 39.3496 570.838 40.8534 570.376 42.5327C570.262 42.9445 570.201 43.4314 570.48 43.7572C570.996 44.3588 571.97 43.7787 572.485 43.1736Z" fill="#1A4CE0"/>
<path d="M232.209 301.204C232.338 298.984 233.788 296.893 235.818 295.994C237.848 295.096 240.376 295.432 242.102 296.832C243.015 297.573 243.341 298.823 243.416 299.994C243.577 302.568 242.582 305.39 240.33 306.654C238.597 307.624 236.316 307.477 234.68 306.349C233.043 305.222 232.098 303.188 232.209 301.204ZM236.774 297.935C235.088 298.845 234.318 301.147 235.127 302.883C235.317 303.292 235.585 303.675 235.961 303.922C237.437 304.899 239.363 303.295 239.918 301.612C240.405 300.137 240.115 298.093 238.629 297.652C238.013 297.477 237.336 297.631 236.774 297.935Z" fill="#1A4CE0"/>
<path d="M188.218 42.8834C187.534 43.8824 186.714 44.9709 185.515 45.1356C184.301 45.3003 183.127 44.3586 182.736 43.1985C182.346 42.0384 182.611 40.7423 183.137 39.6359C184.126 37.5627 186.045 35.955 188.261 35.3499C189.593 34.9883 189.969 32.5893 191.319 32.8757C192.039 33.0261 192.318 33.8855 192.468 34.6052C193.03 37.3121 193.596 40.019 194.158 42.7259C194.298 43.3955 194.409 44.1725 193.961 44.6881C193.159 45.6083 191.591 44.6451 191.194 43.4921C190.796 42.3392 190.904 40.9893 190.184 40.0047C189.529 40.9643 188.873 41.9239 188.218 42.8834ZM189.12 36.6819C187.133 37.3443 185.443 38.8481 184.548 40.7423C184.262 41.3438 184.072 42.1029 184.459 42.6435C185.132 42.6185 185.672 42.0993 186.113 41.5909C187.373 40.1336 188.394 38.4686 189.12 36.6819Z" fill="#1A4CE0"/>
<path d="M270.625 231.655C272.293 233.553 272.537 236.564 271.198 238.709C269.858 240.854 267.048 241.956 264.609 241.29C262.171 240.624 260.305 238.254 260.237 235.726C260.209 234.656 260.474 233.589 260.889 232.6C261.777 230.495 263.911 228.522 266.113 229.134C267.8 229.603 269.475 230.345 270.625 231.655ZM264.022 231.501C262.891 232.489 262.167 233.993 262.314 235.49C262.461 236.987 263.56 238.394 265.028 238.716C266.249 238.985 267.606 238.451 268.326 237.427C269.042 236.403 269.074 234.946 268.408 233.889C267.989 233.227 267.341 232.744 266.811 232.16C266.339 231.637 265.848 230.975 265.146 230.975C264.72 230.971 264.341 231.222 264.022 231.501Z" fill="#1A4CE0"/>
<path d="M168.267 305.064C166.921 303.968 166.237 302.117 166.549 300.409C166.86 298.701 168.153 297.212 169.796 296.66C171.239 296.177 172.714 295.687 174.236 295.679C175.758 295.672 177.365 296.227 178.25 297.466C179.772 299.6 178.504 302.712 176.485 304.38C174.186 306.281 170.577 306.947 168.267 305.064ZM174.286 298.322C172.908 298.168 171.418 298.107 170.237 298.834C169.055 299.561 168.468 301.373 169.431 302.371C170.036 302.995 171.006 303.091 171.866 302.959C173.305 302.733 174.648 301.949 175.55 300.81C175.912 300.352 176.216 299.743 175.998 299.203C175.743 298.576 174.956 298.397 174.286 298.322Z" fill="#1A4CE0"/>
<path d="M315.135 43.1915C314.028 44.8995 312.643 46.7829 310.616 46.9476C309.266 47.055 307.92 46.2852 307.197 45.1394C306.473 43.9936 306.337 42.5291 306.681 41.2186C307.182 39.3174 308.693 37.7168 310.562 37.1081C312.431 36.4994 314.598 36.9005 316.119 38.1393C316.388 38.3578 316.52 38.6943 316.635 39.0202C317.537 41.591 317.956 44.3302 317.863 47.0514C317.14 47.635 316.087 46.7471 315.858 45.8483C315.629 44.9496 315.729 43.9112 315.135 43.1915ZM309.614 43.8647C311.765 43.1665 313.122 40.9752 313.617 38.7695C311.049 38.4759 308.722 41.4371 309.614 43.8647Z" fill="#1A4CE0"/>
<path d="M201.133 38.2969C202.111 38.3184 202.204 36.904 202.587 36.0089C203.271 34.4119 205.663 34.258 207.059 35.2892C208.455 36.3204 209.107 38.057 209.68 39.6969C209.974 40.5312 210.267 41.3977 210.167 42.2749C210.067 43.1521 209.444 44.0365 208.566 44.1296C207.643 42.3465 206.722 40.567 205.799 38.7838C205.727 38.6442 205.645 38.4938 205.505 38.4186C205.208 38.2611 204.861 38.526 204.671 38.8053C204.059 39.704 204.016 40.8641 203.647 41.8882C203.278 42.9122 202.265 43.9184 201.233 43.5711C199.429 42.9624 200.36 39.5322 198.595 38.8196C198.412 40.2268 198.229 41.634 198.047 43.0411C197.957 43.7286 197.413 44.6488 196.837 44.2657C196.539 44.0688 196.529 43.6391 196.554 43.281C196.65 41.8237 196.747 40.3629 196.84 38.9056C196.937 37.434 197.499 35.504 198.974 35.547C200.238 35.5828 200.84 37.0759 201.133 38.2969Z" fill="#1A4CE0"/>
<path d="M303.863 68.456C303.656 67.6146 304.927 67.0345 305.643 67.5215C306.359 68.0085 306.52 69.0003 306.445 69.8632C306.37 70.7261 306.126 71.5962 306.298 72.4448C306.466 73.2934 307.269 74.1133 308.106 73.8949C309.993 73.4008 311.905 72.9855 313.828 72.6489C314.308 72.5665 314.899 72.5271 315.182 72.9246C315.568 73.4653 314.992 74.1742 314.433 74.5394C312.664 75.6924 310.538 76.2903 308.425 76.233C307.34 76.2044 306.739 77.5471 306.842 78.6285C306.946 79.7062 307.444 80.7553 307.311 81.8295C307.226 82.5241 306.817 83.2187 306.155 83.4479C305.496 83.6771 304.63 83.2546 304.569 82.5599C304.426 80.9379 304.282 79.3195 304.139 77.6975C304.114 77.4111 304.078 77.1031 303.892 76.8847C303.641 76.5983 303.212 76.566 302.829 76.566C300.834 76.5553 298.84 76.7093 296.871 77.0244C296.24 77.1246 295.922 76.1435 296.323 75.6458C296.724 75.1481 297.429 75.0515 298.066 74.9942C299.882 74.8259 301.697 74.6576 303.509 74.4893C303.999 74.4428 304.189 73.8341 304.236 73.3399C304.383 71.7036 304.257 70.0458 303.863 68.456Z" fill="#1A4CE0"/>
<path d="M201.47 298.866C202.483 301.48 202.988 304.294 202.941 307.098C201.022 306.69 199.722 304.448 200.317 302.579C200.449 302.167 199.88 301.816 199.472 301.963C199.064 302.11 198.827 302.518 198.616 302.898C198.007 303.986 197.323 305.071 196.321 305.816C195.322 306.561 193.936 306.901 192.801 306.382C192.221 306.117 191.752 305.648 191.401 305.118C190.005 302.998 190.617 299.912 192.511 298.222C194.405 296.532 197.284 296.195 199.669 297.061C200.095 297.215 200.521 297.412 200.832 297.738C201.137 298.05 201.312 298.462 201.47 298.866ZM193.399 303.073C193.51 303.317 193.668 303.56 193.915 303.668C194.445 303.9 194.992 303.403 195.358 302.952C196.292 301.802 197.223 300.649 198.15 299.493C197.105 298.601 195.436 298.551 194.341 299.378C193.241 300.205 192.83 301.824 193.399 303.073Z" fill="#1A4CE0"/>
<path d="M154.564 315.304C154.933 314.527 156.104 315.029 156.748 315.594C158.059 316.744 159.731 317.893 161.41 317.424C162.631 317.084 163.487 315.927 163.817 314.706C164.146 313.482 164.031 312.189 163.885 310.932C163.469 307.381 162.803 303.861 161.894 300.402C161.722 299.743 161.536 299.059 161.661 298.39C161.783 297.72 162.316 297.072 162.997 297.058C164.758 302.225 165.918 307.599 166.445 313.031C166.566 314.298 166.652 315.605 166.248 316.812C165.478 319.103 162.943 320.55 160.533 320.367C158.123 320.185 155.957 318.566 154.772 316.464C154.568 316.103 154.392 315.67 154.564 315.304Z" fill="#1A4CE0"/>
<path d="M283.375 38.2933C283.661 38.7086 283.815 39.1956 283.966 39.6718C284.714 42.0386 285.459 44.4018 286.207 46.7685C286.401 47.3844 286.601 48.036 286.479 48.6698C286.358 49.3071 285.803 49.9087 285.158 49.8478C284.628 49.7941 284.242 49.3394 283.948 48.8954C282.856 47.2412 282.258 45.2647 282.254 43.2846C281.108 43.5532 280.922 45.1 280.167 46.0023C278.856 47.5634 275.988 46.5537 275.326 44.6273C274.663 42.701 275.637 40.5598 277.027 39.0703C277.865 38.1716 278.896 37.3982 280.099 37.1511C281.295 36.9005 282.677 37.28 283.375 38.2933ZM277.148 43.6534C277.231 43.8145 277.374 43.9578 277.553 43.99C277.811 44.0365 278.051 43.8468 278.24 43.6642C279.544 42.4038 280.41 40.703 280.665 38.9092C278.899 39.3854 277.46 40.9179 277.102 42.7117C277.037 43.0268 277.005 43.367 277.148 43.6534Z" fill="#1A4CE0"/>
<path d="M430.723 100.656C431.278 102.203 431.837 103.753 432.392 105.3C432.768 106.353 433.094 107.674 432.306 108.465C430.53 107.448 429.295 105.544 429.091 103.506C429.044 103.041 428.317 103.148 427.956 103.442C426.667 104.48 425.814 106.195 424.214 106.614C423.014 106.929 421.693 106.356 420.927 105.382C420.161 104.409 419.899 103.109 419.999 101.874C420.275 98.4397 423.501 95.5072 426.946 95.5574C427.49 95.5645 428.099 95.6755 428.41 96.1195C428.722 96.5635 428.403 97.3727 427.866 97.276C424.819 96.7246 421.675 99.6822 422.04 102.758C422.087 103.166 422.241 103.632 422.631 103.764C422.968 103.879 423.326 103.689 423.616 103.488C424.611 102.808 425.46 101.916 426.09 100.889C426.774 99.7681 427.58 98.2679 428.879 98.4684C429.875 98.6188 430.383 99.7108 430.723 100.656Z" fill="#1A4CE0"/>
<path d="M330.32 47.635C329.289 46.9905 328.87 45.6765 328.863 44.4591C328.849 42.2212 330.03 40.0084 331.903 38.7767C332.479 38.3972 333.12 38.1035 333.801 37.9997C335.544 37.7276 337.288 38.7301 338.384 40.1123C339.479 41.4944 340.056 43.2059 340.607 44.8816C340.904 45.7803 341.066 47.0299 340.21 47.4345C339.404 47.8177 338.545 47.012 338.126 46.2243C337.707 45.4366 337.295 44.477 336.425 44.2872C335.741 45.39 335.029 46.5179 333.972 47.2734C332.916 48.0289 331.423 48.3225 330.32 47.635ZM331.659 45.0212C332.05 45.1215 332.386 44.7384 332.597 44.3946C333.521 42.9087 334.262 41.3117 334.8 39.6504C332.712 39.9583 331.036 42.0135 331.151 44.1225C331.172 44.4949 331.305 44.9281 331.659 45.0212Z" fill="#1A4CE0"/>
<path d="M137.914 43.5996C138.258 43.1055 137.864 42.4395 137.438 42.017C136.364 40.9464 135.01 40.1694 134.062 38.9914C133.109 37.8134 132.676 35.9766 133.664 34.8308C134.298 34.0932 135.322 33.8497 136.282 33.6886C137.184 33.5382 138.126 33.4272 138.992 33.7137C139.859 34.0001 140.625 34.7914 140.593 35.7009C139.672 35.9121 138.724 35.4395 137.782 35.5039C136.84 35.5684 135.941 36.8431 136.715 37.3873C138.143 38.3935 139.615 39.4462 140.51 40.95C141.405 42.4538 141.567 44.5413 140.414 45.8554C139.558 46.8329 138.14 47.1838 136.858 46.9797C135.576 46.7756 134.42 46.0774 133.424 45.2431C132.837 44.749 132.271 44.1654 132.067 43.4242C131.863 42.683 132.15 41.7628 132.859 41.4728C134.67 40.7423 136.153 44.4375 137.914 43.5996Z" fill="#1A4CE0"/>
<path d="M246.922 177.893C246.979 178.347 247.004 178.874 246.675 179.196C246.034 179.823 245.021 179.003 244.573 178.229C243.467 176.332 242.7 174.24 242.314 172.078C242.145 171.147 240.86 170.803 240.026 171.247C239.191 171.691 238.733 172.608 238.382 173.485C237.945 174.577 237.58 175.701 237.297 176.847C237.115 177.581 235.994 177.671 235.439 177.155C234.884 176.639 234.755 175.823 234.658 175.071C234.418 173.231 234.179 171.39 233.942 169.55C233.835 168.712 234.089 167.484 234.923 167.613C235.682 168.096 235.557 169.21 235.45 170.101C235.342 170.993 235.589 172.196 236.484 172.271C236.989 170.646 237.705 168.973 239.098 167.996C240.491 167.018 242.729 167.09 243.621 168.54C245.361 171.383 246.496 174.591 246.922 177.893Z" fill="#1A4CE0"/>
<path d="M438.611 106.056C438.897 106.177 439.223 106.299 439.513 106.181C439.914 106.02 440.022 105.497 439.975 105.067C439.667 102.325 435.897 101.233 435.105 98.59C434.576 96.8141 435.739 94.7803 437.476 94.1286C439.209 93.477 441.282 94.1107 442.542 95.4678C441.751 96.0801 440.627 95.8258 439.639 95.6683C438.65 95.5107 437.397 95.6182 436.996 96.5348C436.527 97.609 437.637 98.6652 438.586 99.3491C439.964 100.341 441.314 101.437 442.234 102.865C443.155 104.294 443.599 106.116 443.047 107.724C442.496 109.332 440.788 110.571 439.119 110.252C436.334 109.718 434.128 107.026 434.153 104.19C435.635 104.81 437.125 105.433 438.611 106.056Z" fill="#1A4CE0"/>
<path d="M245.453 296.36C246.524 296.775 246.71 298.2 246.617 299.342C246.528 300.484 246.399 301.824 247.247 302.593C248.705 301.433 248.676 299.106 250.008 297.795C251.773 296.059 255.017 297.201 256.249 299.349C257.481 301.498 257.294 304.144 257.076 306.611C257.012 307.345 255.934 307.588 255.332 307.159C254.731 306.729 254.509 305.956 254.326 305.239C253.982 303.9 253.642 302.561 253.299 301.218C253.094 300.42 251.891 300.327 251.261 300.857C250.631 301.387 250.405 302.239 250.119 303.012C249.503 304.681 248.465 306.192 247.122 307.359C245.017 304.169 244.39 300.037 245.453 296.36Z" fill="#1A4CE0"/>
<path d="M407.17 301.294C406.937 303.965 404.9 306.357 402.325 307.105C399.751 307.853 396.8 306.958 394.999 304.971C394.308 304.212 393.768 303.267 393.703 302.243C393.635 301.143 394.122 300.087 394.699 299.149C395.572 297.724 396.725 296.406 398.243 295.704C399.758 294.999 401.681 295.013 402.995 296.048C403.897 296.761 405.118 296.986 405.977 297.745C406.951 298.601 407.284 300.005 407.17 301.294ZM399.779 304.724C401.33 304.785 402.93 304.133 403.854 302.887C404.778 301.641 404.91 299.808 404.022 298.537C403.088 297.197 401.208 296.714 399.647 297.194C398.086 297.67 396.868 298.97 396.21 300.463C395.769 301.462 396.084 302.697 396.829 303.492C397.581 304.291 398.687 304.681 399.779 304.724Z" fill="#1A4CE0"/>
<path d="M392.977 94.6658C393.306 95.8653 394.903 96.03 396.146 96.0908C397.388 96.1517 398.999 96.832 398.774 98.0566C397.001 98.275 395.232 98.497 393.46 98.7154C393.704 100.019 393.947 101.326 394.19 102.629C394.323 103.342 394.452 104.101 394.173 104.767C393.893 105.433 393.03 105.905 392.422 105.515C392.157 105.347 391.996 105.057 391.867 104.774C391.154 103.234 390.982 101.451 391.387 99.8039C391.638 98.7942 390.667 97.8346 389.65 97.6197C388.633 97.4049 387.588 97.6878 386.557 97.8059C385.526 97.9241 384.351 97.8274 383.66 97.054C383.571 96.9538 383.488 96.8392 383.46 96.7067C383.334 96.1302 384.161 95.8832 384.752 95.8975C386.345 95.9369 387.939 95.9763 389.536 96.0156C389.944 96.0264 390.417 96.0085 390.674 95.6862C390.878 95.432 390.868 95.0739 390.85 94.7481C390.696 92.1701 390.545 89.5921 390.391 87.0141C390.341 86.144 390.331 85.1593 390.954 84.5506C391.577 83.9419 392.977 84.3716 392.78 85.2202C392.064 88.321 392.132 91.6008 392.977 94.6658Z" fill="#1A4CE0"/>
<path d="M515.325 40.4559C515.296 43.0912 513.502 45.6263 511.014 46.4892C508.525 47.3485 505.518 46.4391 503.964 44.3158C502.61 42.4682 502.485 39.6789 503.989 37.9495C505.747 35.9301 508.833 35.9337 511.501 36.1413C511.973 36.1771 512.453 36.2165 512.904 36.3705C514.508 36.9076 515.343 38.7623 515.325 40.4559ZM510.631 37.527C510.226 37.151 509.646 36.8539 509.141 37.0687C508.783 37.2227 508.511 37.6165 508.121 37.6058C506.008 37.5377 504.372 40.148 505.253 42.0743C506.133 43.9971 509.019 44.5378 510.62 43.1521C512.217 41.7664 512.181 38.9664 510.631 37.527Z" fill="#1A4CE0"/>
<path d="M287.59 306.235C287.164 305.297 286.935 304.273 286.92 303.241C286.082 303.123 285.596 304.112 285.101 304.799C284.178 306.074 282.352 306.604 280.891 306.02C279.43 305.436 278.47 303.793 278.681 302.232C278.889 300.688 280.064 299.471 281.242 298.454C282.835 297.079 285.041 295.797 286.928 296.732C288.618 297.57 289.083 299.718 289.352 301.584C289.559 303.023 289.767 304.462 289.975 305.898C290.043 306.367 290.089 306.912 289.77 307.259C289.126 307.968 287.987 307.105 287.59 306.235ZM281.113 302.454C281.073 302.604 281.041 302.765 281.063 302.919C281.131 303.46 281.789 303.757 282.319 303.639C282.849 303.517 283.261 303.109 283.615 302.701C284.604 301.559 285.402 300.255 285.964 298.855C284.145 298.913 282.391 299.972 281.492 301.555C281.335 301.838 281.199 302.139 281.113 302.454Z" fill="#1A4CE0"/>
<path d="M274.914 295.912C275.559 296.739 276.841 296.449 277.858 296.191C278.874 295.933 280.307 296.037 280.521 297.061C279.53 298.171 277.854 298.619 276.44 298.146C275.348 297.781 274.359 299.106 274.402 300.255C274.445 301.405 275.068 302.45 275.262 303.585C275.455 304.72 274.918 306.174 273.772 306.253C273.006 306.306 272.326 305.68 272.061 304.96C271.796 304.24 271.849 303.445 271.907 302.683C271.978 301.727 272.05 300.771 272.121 299.815C272.225 298.429 270.277 297.978 268.906 298.182C267.531 298.39 265.691 298.494 265.211 297.19C267.209 296.517 269.307 296.148 271.416 296.098C272.104 296.08 272.444 295.267 272.562 294.591C272.855 292.937 272.841 291.225 272.519 289.574C272.343 288.676 272.078 287.763 272.243 286.864C272.408 285.965 273.192 285.091 274.098 285.21C274.248 288.296 274.395 291.383 274.546 294.469C274.571 294.974 274.606 295.515 274.914 295.912Z" fill="#1A4CE0"/>
<path d="M297.587 101.426C298.088 99.1022 300.09 96.671 302.399 97.2296C303.763 97.559 304.683 98.8193 305.346 100.055C306.284 101.798 306.961 103.682 307.351 105.622C307.544 106.589 307.254 108.029 306.277 107.893C305.238 105.98 304.2 104.068 303.158 102.156C302.89 101.666 302.6 101.15 302.113 100.875C301.626 100.599 300.884 100.692 300.662 101.208C299.846 103.08 299.03 104.953 298.213 106.825C298.084 107.123 297.945 107.431 297.687 107.62C297.225 107.964 296.527 107.789 296.119 107.38C295.711 106.972 295.524 106.399 295.374 105.844C294.844 103.907 294.543 101.902 294.49 99.8935C294.464 98.9876 295.048 97.7058 295.85 98.1247C296.283 98.3503 296.341 98.9375 296.341 99.4244C296.341 100.477 296.344 101.53 296.344 102.586C296.896 102.987 297.444 102.088 297.587 101.426Z" fill="#1A4CE0"/>
<path d="M414.714 40.4773C415.262 38.798 415.867 37.0328 417.203 35.8799C418.538 34.7269 420.859 34.5157 421.929 35.9193C422.427 36.5709 422.567 37.4303 422.538 38.2466C422.452 40.907 420.186 43.6175 417.543 43.2845C416.752 43.1842 416.705 44.4804 417.181 45.1213C418.506 46.8973 421.231 47.4344 423.132 46.2958C423.831 46.8221 423.179 47.9464 422.42 48.3761C420.139 49.6651 416.924 48.8881 415.481 46.704C414.27 44.8671 414.131 42.1924 412.229 41.086C412.87 40.4594 413.859 40.216 414.714 40.4773ZM420.565 38.6727C420.633 37.9459 419.648 37.5055 418.979 37.7847C418.306 38.0676 417.915 38.7551 417.572 39.3996C417.153 40.1873 416.737 41.1576 417.203 41.9167C418.37 41.3116 419.405 40.4451 420.207 39.4032C420.375 39.1883 420.54 38.9484 420.565 38.6727Z" fill="#1A4CE0"/>
<path d="M290.709 96.7927C291.468 97.2331 292.162 97.8418 292.535 98.6402C293.083 99.8111 292.85 101.208 292.374 102.411C291.282 105.168 288.535 107.509 285.596 107.119C283.308 106.815 281.403 104.788 281.116 102.5C280.826 100.212 282.097 97.8382 284.099 96.696C286.104 95.5502 288.714 95.6361 290.709 96.7927ZM286.638 97.9492C285.331 98.3287 284.081 99.163 283.555 100.42C283.028 101.677 283.454 103.359 284.683 103.947C286.007 104.58 287.583 103.782 288.65 102.776C289.871 101.626 290.77 99.5605 289.581 98.3789C288.843 97.6413 287.637 97.6592 286.638 97.9492Z" fill="#1A4CE0"/>
<path d="M157.271 306.009C157.844 305.999 158.406 305.816 158.983 305.837C159.556 305.859 160.193 306.174 160.293 306.736C158.055 308.387 154.718 308.344 152.523 306.632C151.958 306.192 151.467 305.655 151.077 305.057C150.106 303.564 149.784 301.666 150.21 299.94C150.493 298.795 151.08 297.745 151.739 296.764C152.738 295.275 154.242 293.76 156.021 294.004C158.216 294.304 159.144 297.28 158.188 299.278C157.232 301.276 155.13 302.429 153.107 303.331C154.213 304.631 155.56 306.045 157.271 306.009ZM153.529 298.859C153.358 299.181 153.186 299.5 153.017 299.822C152.777 300.27 152.563 300.886 152.931 301.233C153.383 301.655 154.088 301.172 154.503 300.714C155.151 299.994 155.799 299.278 156.451 298.558C157.017 297.932 156.057 296.904 155.237 297.097C154.417 297.298 153.927 298.114 153.529 298.859Z" fill="#1A4CE0"/>
<path d="M469.705 37.577C470.518 38.0496 471.055 38.8839 471.492 39.7182C472.648 41.931 473.325 44.3944 473.457 46.8865C473.486 47.4093 473.472 47.9857 473.131 48.3796C472.791 48.777 472.007 48.7842 471.842 48.2865C471.169 46.2706 470.496 44.2584 469.819 42.2425C469.554 41.4476 469.161 40.531 468.341 40.3555C467.367 40.1479 466.575 41.1253 466.121 42.0098C465.337 43.5387 464.756 45.1678 464.406 46.8507C464.277 47.4594 463.45 47.6921 462.887 47.4236C462.325 47.1586 461.985 46.5786 461.709 46.02C460.556 43.6783 459.937 41.0788 459.905 38.4686C460.485 38.0532 461.337 38.5688 461.598 39.2348C461.86 39.9008 461.763 40.6456 461.849 41.3545C461.935 42.0635 462.332 42.8512 463.041 42.9514C463.428 41.3294 463.983 39.6752 465.154 38.49C466.325 37.3049 468.265 36.7391 469.705 37.577Z" fill="#1A4CE0"/>
<path d="M265.322 44.373C265.576 44.0149 266.081 43.9576 266.518 43.9791C267.746 44.0435 268.952 44.5019 269.912 45.2681C270.635 44.4911 269.951 43.2594 269.267 42.4466C268.136 41.0931 267.001 39.7433 265.87 38.3898C264.785 37.0972 265.726 34.8952 267.312 34.3151C268.899 33.7351 270.703 34.4046 272.014 35.4681C271.849 36.0875 271.054 36.2809 270.42 36.2021C269.787 36.1233 269.131 35.887 268.523 36.0875C267.914 36.288 267.567 37.244 268.129 37.5484C269.908 38.5187 271.405 40.0082 272.383 41.7842C273.041 42.9801 273.471 44.3515 273.296 45.7049C273.12 47.0584 272.247 48.3725 270.95 48.7985C268.866 49.4824 266.765 47.7566 265.576 45.9126C265.275 45.4507 264.999 44.8277 265.322 44.373Z" fill="#1A4CE0"/>
<path d="M303.273 265.792C302.983 263.93 303.326 261.975 304.229 260.325C305.392 260.611 305.686 262.115 305.647 263.311C305.607 264.507 305.582 265.95 306.585 266.601C308.171 267.633 310.498 265.516 312.063 266.58C312.163 266.648 312.26 266.734 312.317 266.845C312.536 267.285 312.016 267.715 311.572 267.926C310.208 268.567 308.798 269.104 307.358 269.534C306.524 269.785 306.413 270.93 306.606 271.779C306.796 272.631 307.093 273.612 306.556 274.3C305.972 275.048 304.698 274.873 304.06 274.171C303.423 273.469 303.276 272.452 303.258 271.503C303.244 270.701 303.036 269.605 302.234 269.605C300.616 269.605 299.001 269.487 297.401 269.244C297.003 269.183 296.523 269.043 296.43 268.653C296.366 268.374 296.538 268.091 296.749 267.901C297.709 267.038 299.191 267.443 300.469 267.586C301.747 267.733 303.47 267.067 303.273 265.792Z" fill="#1A4CE0"/>
<path d="M349.616 296.94C350.196 296.693 350.819 296.474 351.446 296.549C352.849 296.714 353.665 298.193 354.163 299.521C354.929 301.573 355.495 303.703 355.846 305.866C355.459 306.496 354.446 306.278 353.93 305.748C353.415 305.218 353.136 304.48 352.559 304.015C351.983 303.553 350.883 303.617 350.747 304.344C350.396 306.22 347.693 306.937 346.182 305.766C344.675 304.591 344.46 302.257 345.316 300.549C346.171 298.841 347.858 297.688 349.616 296.94ZM347.07 302.901C346.884 303.263 347.317 303.689 347.722 303.664C348.126 303.639 348.456 303.342 348.749 303.059C349.981 301.874 351.284 300.56 351.542 298.87C349.437 298.977 348.026 301.025 347.07 302.901Z" fill="#1A4CE0"/>
<path d="M454.62 42.0958C454.373 41.0467 453.739 39.8687 454.369 38.9951C454.981 38.1429 456.421 38.3899 457.076 39.2063C457.731 40.0227 457.81 41.1506 457.821 42.1997C457.839 43.904 457.735 45.6728 456.958 47.191C456.177 48.7092 454.566 49.9122 452.869 49.726C451.204 49.5434 449.94 48.1327 449.124 46.6718C448.003 44.6667 447.401 42.3787 447.383 40.0836C447.38 39.6467 447.423 39.1598 447.749 38.8697C448.211 38.4616 448.988 38.7265 449.346 39.2242C449.707 39.7219 449.775 40.3664 449.89 40.9715C450.191 42.59 450.867 44.1403 451.852 45.458C452.138 45.8411 452.54 46.2421 453.012 46.1741C453.302 46.1347 453.535 45.9235 453.728 45.7015C454.573 44.7347 454.917 43.349 454.62 42.0958Z" fill="#1A4CE0"/>
<path d="M377.011 41.1254C378.243 42.3607 379.682 43.46 380.473 45.0103C381.268 46.5643 381.136 48.7914 379.639 49.683C378.619 50.2917 377.276 50.084 376.259 49.4717C375.242 48.8595 374.49 47.9035 373.778 46.9546C373.538 46.6359 373.287 46.2779 373.33 45.8804C373.409 45.1536 374.422 44.9137 375.081 45.2288C375.74 45.5439 376.177 46.1776 376.753 46.6288C377.326 47.0799 378.235 47.3091 378.74 46.7827C377.906 45.2717 376.527 44.151 375.167 43.0876C373.044 41.4262 373.523 37.5055 375.987 36.4062C378.447 35.307 381.691 37.5663 381.508 40.2553C380.42 39.2456 378.959 38.6405 377.473 38.5868C377.15 38.5761 376.803 38.594 376.542 38.7873C375.808 39.3208 376.37 40.4809 377.011 41.1254Z" fill="#1A4CE0"/>
<path d="M332.504 301.874C333.758 302.987 334.785 304.355 335.509 305.87C336.16 307.237 336.511 309.013 335.523 310.163C334.685 311.137 333.163 311.255 331.967 310.782C330.771 310.313 329.83 309.379 328.924 308.469C328.466 308.007 328.09 307.076 328.705 306.865C328.92 306.79 329.153 306.876 329.364 306.958C330.721 307.495 332.078 308.029 333.432 308.566C334.026 308.43 333.851 307.524 333.486 307.033C332.311 305.44 330.65 304.258 329.418 302.704C328.186 301.15 327.427 298.927 328.398 297.197C329.164 295.837 330.972 295.171 332.436 295.708C333.11 295.955 333.74 296.51 333.783 297.223C333.826 297.939 332.984 298.626 332.376 298.25C331.599 297.77 330.635 298.859 330.829 299.754C331.022 300.66 331.821 301.269 332.504 301.874Z" fill="#1A4CE0"/>
<path d="M209.985 304.914C210.171 304.792 210.214 304.538 210.21 304.312C210.156 302.629 208.42 301.577 206.891 300.868C205.362 300.162 203.604 299.195 203.432 297.523C203.278 296.023 204.607 294.698 206.06 294.312C207.518 293.925 209.057 294.244 210.529 294.562C211.342 294.738 210.998 296.13 210.196 296.349C209.394 296.567 208.574 296.145 207.754 295.984C206.937 295.826 205.835 296.177 205.824 297.008C205.813 297.681 206.519 298.107 207.127 298.393C208.989 299.271 210.923 300.277 212.015 302.021C213.107 303.764 212.946 306.46 211.155 307.474C209.487 308.419 207.392 307.52 205.813 306.435C205.219 306.027 204.603 305.526 204.463 304.821C204.324 304.115 204.99 303.263 205.663 303.514C206.873 303.968 208.083 304.419 209.294 304.874C209.523 304.964 209.784 305.046 209.985 304.914Z" fill="#1A4CE0"/>
<path d="M411.52 104.949C411.936 102.36 412.527 99.7967 413.286 97.2867C413.529 96.4883 413.812 95.654 414.431 95.0954C415.051 94.5368 416.114 94.3793 416.691 94.9808C417.296 95.6146 417.07 96.6386 416.809 97.4729C415.917 100.298 415.022 103.119 414.131 105.945C413.751 107.148 413.049 108.598 411.785 108.562C410.722 108.533 410.056 107.438 409.59 106.482C408.248 103.725 406.909 100.968 405.566 98.2105C405.33 97.7271 405.319 96.8785 405.856 96.9287C407.65 98.5399 409.018 100.624 409.784 102.912C410.088 103.821 410.557 104.971 411.52 104.949Z" fill="#1A4CE0"/>
<path d="M389.99 48.3582C389.296 48.4012 388.601 48.2257 387.964 47.9464C386.034 47.0978 384.566 45.2001 384.38 43.0983C384.197 40.9965 385.389 38.8052 387.316 37.9459C389.242 37.0865 391.759 37.7382 392.919 39.4963C393.417 40.2554 393.664 41.1541 393.779 42.0528C393.958 43.417 393.85 44.8564 393.217 46.0774C392.583 47.3091 391.362 48.2723 389.99 48.3582ZM388.454 44.7776C389.042 45.082 389.819 45.2073 390.323 44.7812C390.574 44.5699 390.717 44.262 390.835 43.9577C391.394 42.5219 391.448 40.5883 390.155 39.7541C388.952 38.9771 387.144 39.8221 386.743 41.197C386.342 42.572 387.18 44.1188 388.454 44.7776Z" fill="#1A4CE0"/>
<path d="M427.522 293.746C426.638 295.25 427.132 297.151 427.665 298.812C428.009 299.883 428.392 301.004 429.226 301.755C430.061 302.507 431.5 302.711 432.263 301.884C432.707 301.401 432.818 300.699 432.843 300.044C432.889 298.934 432.753 297.817 432.442 296.753C432.216 295.973 431.89 295.189 431.948 294.376C432.005 293.563 432.614 292.711 433.426 292.736C434.375 292.765 434.88 293.85 435.102 294.77C435.621 296.936 435.775 299.188 435.55 301.401C435.46 302.3 435.296 303.224 434.784 303.968C433.423 305.948 430.179 305.63 428.464 303.947C426.749 302.268 426.176 299.768 425.732 297.405C425.581 296.607 425.442 295.769 425.692 294.999C425.943 294.226 426.731 293.567 427.522 293.746Z" fill="#1A4CE0"/>
<path d="M382.324 98.4935C380.305 98.0459 377.938 98.7548 376.9 100.542C375.861 102.328 376.735 105.082 378.751 105.551C379.743 105.784 380.77 105.476 381.741 105.171C383.381 104.659 385.021 104.144 386.66 103.632C386.08 106.177 383.814 108.247 381.225 108.598C378.099 109.02 374.809 106.743 374.225 103.646C373.641 100.549 375.99 97.1686 379.116 96.7569C380.448 96.5814 382.102 97.1651 382.324 98.4935Z" fill="#1A4CE0"/>
<path d="M263.736 295.887C263.406 295.099 262.089 295.246 261.691 296.002C261.294 296.757 261.623 297.713 262.171 298.365C262.719 299.016 263.464 299.475 264.076 300.069C265.788 301.72 266.335 304.466 265.383 306.647C264.942 307.653 264.094 308.598 262.998 308.68C261.398 308.802 260.291 307.141 259.665 305.662C259.461 305.182 259.299 304.548 259.693 304.208C260.528 303.481 261.584 305.451 262.637 305.125C263.457 304.871 263.256 303.639 262.801 302.912C261.949 301.552 260.789 300.388 259.428 299.532C258.551 298.977 258.318 297.731 258.669 296.754C259.02 295.776 259.819 295.031 260.653 294.412C261.466 293.81 262.497 293.277 263.449 293.61C264.402 293.943 264.706 295.597 263.736 295.887Z" fill="#1A4CE0"/>
<path d="M350.06 167.856C350.594 169.847 350.329 172.042 349.33 173.847C348.352 175.612 346.347 177.066 344.406 176.518C343.658 176.306 343.013 175.827 342.458 175.286C340.221 173.12 339.168 169.797 339.752 166.736C339.888 166.016 340.614 165.135 341.166 165.618C341.352 165.783 341.406 166.048 341.438 166.292C341.642 167.846 341.374 169.457 341.76 170.975C342.147 172.493 343.565 173.968 345.087 173.596C346.573 173.234 347.171 171.419 347.153 169.89C347.142 169.099 347.042 168.279 347.328 167.538C347.614 166.8 348.474 166.206 349.194 166.535C349.684 166.771 349.92 167.334 350.06 167.856Z" fill="#1A4CE0"/>
<path d="M298.991 165.694C297.798 164.967 296.015 165.558 295.489 166.85C297.261 167.727 298.876 168.916 300.24 170.348C301.082 171.233 301.851 172.253 302.109 173.449C302.367 174.645 302.002 176.042 300.974 176.704C299.445 177.692 297.451 176.693 295.922 175.705C295.664 175.54 295.389 175.35 295.303 175.057C295.134 174.488 295.8 173.997 296.391 173.954C296.982 173.908 297.591 174.097 298.163 173.943C298.736 173.789 299.18 173.002 298.736 172.611C297.788 171.781 296.842 170.95 295.893 170.123C294.587 168.977 293.147 167.341 293.795 165.729C294.418 164.183 296.481 163.928 298.146 164.036C298.726 164.072 299.384 164.172 299.703 164.659C300.018 165.142 299.485 165.994 298.991 165.694Z" fill="#1A4CE0"/>
<path d="M398.928 27.8631C399.153 34.1291 399.508 40.3915 399.998 46.6396C400.038 47.148 400.048 47.7353 399.669 48.079C398.903 48.7629 397.814 47.6672 397.488 46.6933C395.476 40.6672 398.473 33.9644 397.091 27.7628C396.948 27.1255 396.761 26.4738 396.883 25.8329C397.005 25.192 397.567 24.5761 398.212 24.6549C398.831 25.5751 398.888 26.7531 398.928 27.8631Z" fill="#1A4CE0"/>
<path d="M277.195 102.539C277.689 103.857 276.898 105.35 275.813 106.245C272.988 108.58 268.118 107.638 266.364 104.423C264.609 101.208 266.457 96.6065 269.948 95.4929C270.943 95.1742 272 95.1134 273.045 95.0561C273.568 95.0274 274.159 95.0203 274.535 95.3819C274.914 95.7435 274.732 96.585 274.209 96.5384C271.699 96.3129 268.913 97.3906 267.85 99.675C266.786 101.959 268.305 105.246 270.822 105.325C273.171 105.4 274.893 103.012 277.195 102.539Z" fill="#1A4CE0"/>
<path d="M229.9 296.596C229.065 297.129 227.995 296.531 227.006 296.442C224.693 296.234 223.111 299.278 224.042 301.405C224.973 303.531 227.461 304.581 229.781 304.663C230.569 304.692 231.6 304.81 231.754 305.583C231.894 306.271 231.149 306.804 230.48 307.019C227.343 308.011 223.737 306.145 222.248 303.216C221.041 300.846 221.184 297.67 223.093 295.819C224.998 293.964 228.707 294.218 229.9 296.596Z" fill="#1A4CE0"/>
<path d="M239.846 36.6855C238.629 37.9423 236.144 37.4303 235.235 38.9234C234.493 40.1444 235.535 41.795 236.871 42.2999C238.206 42.8047 239.689 42.5577 241.117 42.504C241.565 42.4861 242.052 42.504 242.399 42.7868C243.309 43.5352 242.295 44.996 241.225 45.4758C238.937 46.4963 236.037 46.1848 234.193 44.484C232.349 42.7868 231.847 39.7147 233.265 37.6487C234.68 35.5863 237.967 35.0277 239.846 36.6855Z" fill="#1A4CE0"/>
<path d="M244 238.902C242.643 241.065 239.886 242.25 237.383 241.741C234.88 241.233 232.8 239.067 232.395 236.546C232.119 234.82 232.578 233.023 233.491 231.533C234.107 230.527 234.966 229.618 236.065 229.188C237.164 228.758 238.532 228.891 239.377 229.714C239.449 229.782 239.517 229.861 239.549 229.954C239.725 230.459 238.908 230.627 238.375 230.602C235.825 230.481 233.698 233.363 234.393 235.819C235.088 238.275 238.163 239.658 240.541 238.73C241.164 238.487 241.748 238.114 242.406 238.021C243.069 237.932 243.864 238.25 244 238.902Z" fill="#1A4CE0"/>
<path d="M496.237 37.4088C497.726 36.3991 499.592 35.9622 501.371 36.1986C502.467 36.3454 502.51 38.0784 501.693 38.8231C500.877 39.5679 499.696 39.7183 498.704 40.2088C496.989 41.0538 495.911 43.041 496.136 44.9423C496.226 45.6835 495.102 46.0452 494.504 45.6047C493.902 45.1643 493.737 44.3515 493.619 43.6175C493.254 41.3868 492.892 39.1597 492.527 36.929C492.445 36.4313 492.366 35.9085 492.549 35.4395C492.731 34.9704 493.276 34.6016 493.741 34.7986C493.816 35.5254 493.906 36.2917 494.328 36.886C494.751 37.4804 495.632 37.817 496.237 37.4088Z" fill="#1A4CE0"/>
<path d="M535.369 24.2C536.597 24.8445 536.83 26.4701 536.916 27.8522C537.235 32.9653 537.553 38.0819 537.876 43.195C537.969 44.6809 537.514 46.1955 536.615 47.3842C535.108 46.8579 534.879 44.8528 534.918 43.2558C535.068 36.9075 535.219 30.5555 535.369 24.2Z" fill="#1A4CE0"/>
<path d="M428.07 40.6349C428.546 41.0968 429.273 40.4846 429.699 39.969C430.77 38.6692 432.263 37.7204 433.896 37.305C434.483 37.1546 435.174 37.0973 435.632 37.4948C436.27 38.0498 436.012 39.1526 435.389 39.7219C434.766 40.2912 433.91 40.5096 433.14 40.8569C430.376 42.1101 428.686 45.3756 429.255 48.3547C429.413 49.1782 428.102 49.5971 427.469 49.0493C426.835 48.5051 426.756 47.5669 426.727 46.7291C426.634 44.2191 426.541 41.7127 426.448 39.2027C426.419 38.4329 426.523 37.4554 427.257 37.2119C428.049 38.1464 428.36 39.4569 428.07 40.6349Z" fill="#1A4CE0"/>
<path d="M442.811 294.455C442.521 295.243 441.458 295.282 440.656 295.525C439.37 295.916 438.436 297.244 438.504 298.587C438.572 299.929 439.635 301.158 440.953 301.415C442.249 301.67 443.545 301.072 444.859 300.939C445.579 300.864 446.574 301.258 446.395 301.96C445.668 304.813 441.766 306.074 439.248 304.552C436.731 303.03 435.872 299.503 436.943 296.761C437.397 295.59 438.196 294.501 439.327 293.957C440.455 293.416 441.948 293.542 442.811 294.455Z" fill="#1A4CE0"/>
<path d="M351.413 41.2258C352.337 38.5618 355.28 36.7572 358.073 37.1511C358.854 37.2585 359.738 38.2431 359.061 38.6406C356.365 40.2196 353.422 42.1173 352.706 45.1608C352.57 45.7301 352.52 46.3352 352.248 46.8544C351.975 47.3736 351.388 47.7961 350.822 47.6386C350.178 47.4595 349.938 46.6897 349.813 46.0345C349.337 43.546 349.029 41.0288 348.893 38.5009C348.875 38.1858 348.871 37.835 349.072 37.5915C349.634 36.9076 350.679 37.9173 350.729 38.8017C350.78 39.6789 350.636 40.7997 351.413 41.2258Z" fill="#1A4CE0"/>
<path d="M273.411 217.827C274.431 224.129 275.448 230.431 276.469 236.729C276.587 237.456 276.705 238.179 276.819 238.906C276.877 239.267 276.934 239.651 276.78 239.984C276.444 240.71 275.294 240.66 274.746 240.077C274.195 239.493 274.084 238.637 274.002 237.839C273.339 231.605 272.677 225.375 272.014 219.141C271.961 218.643 271.925 218.085 272.233 217.691C272.541 217.301 273.332 217.333 273.411 217.827Z" fill="#1A4CE0"/>
<path d="M412.036 215.829C412.498 217.326 412.559 218.912 412.616 220.477C412.802 225.436 412.985 230.395 413.171 235.354C413.236 237.123 413.3 238.927 412.795 240.624C410.844 239.851 410.579 237.244 410.625 235.146C410.754 229.385 410.887 223.62 411.016 217.859C411.037 217.036 411.23 215.994 412.036 215.829Z" fill="#1A4CE0"/>
<path d="M190.502 295.672C187.745 298.01 185.59 301.054 184.297 304.43C184 305.204 182.804 305.211 182.213 304.631C181.622 304.051 181.483 303.166 181.372 302.346C181.089 300.223 180.803 298.096 180.52 295.973C180.416 295.185 181.812 295.085 182.199 295.78C182.586 296.474 182.331 297.326 182.242 298.118C182.152 298.909 182.414 299.919 183.194 300.051C183.671 297.824 185.26 295.866 187.344 294.938C188.469 294.437 190.173 294.487 190.502 295.672Z" fill="#1A4CE0"/>
<path d="M360.386 282.32C360.569 282.481 360.605 282.753 360.626 282.997C361.171 289.302 361.718 295.608 362.263 301.917C362.327 302.647 362.384 303.413 362.08 304.079C361.776 304.745 360.981 305.247 360.304 304.964C359.538 304.641 359.416 303.628 359.405 302.797C359.348 296.41 359.291 290.022 359.233 283.634C359.23 282.889 359.831 281.826 360.386 282.32Z" fill="#1A4CE0"/>
<path d="M401.08 35.9015C402.501 38.2074 403.926 40.5169 405.348 42.8227C406.153 41.1435 406.959 39.4642 407.764 37.7849C408.251 36.7716 409.426 35.5864 410.264 36.3383C410.317 39.7828 409.172 43.2381 407.066 45.9665C406.891 46.1921 406.694 46.4248 406.422 46.5036C405.985 46.6289 405.555 46.321 405.219 46.0166C402.433 43.4851 400.868 39.6611 401.08 35.9015Z" fill="#1A4CE0"/>
<path d="M387.434 298.225C387.545 297.33 387.864 296.46 388.361 295.708C388.773 295.085 389.378 294.505 390.123 294.455C390.868 294.405 391.656 295.146 391.401 295.848C390.442 298.515 389.479 301.179 388.519 303.847C388.25 304.588 387.821 305.458 387.033 305.497C386.095 305.544 385.622 304.405 385.418 303.489C384.938 301.333 384.459 299.178 383.979 297.026C383.85 296.449 384.086 295.529 384.63 295.758C385.744 296.628 386.363 298.093 386.213 299.5C386.474 299.765 386.958 299.607 387.162 299.299C387.366 298.991 387.387 298.594 387.434 298.225Z" fill="#1A4CE0"/>
<path d="M396.955 178.011C397.173 178.996 395.612 179.547 394.828 178.913C394.044 178.279 393.915 177.152 393.847 176.142C393.475 170.628 393.106 165.114 392.733 159.6C392.694 159.012 392.676 158.357 393.066 157.917C393.457 157.476 394.391 157.602 394.413 158.189C394.653 164.859 395.505 171.501 396.955 178.011Z" fill="#1A4CE0"/>
<path d="M321.236 40.4667C322.321 38.8733 324.014 37.706 325.887 37.2549C326.639 37.0723 327.513 37.0293 328.111 37.5199C328.712 38.0104 328.698 39.1848 327.957 39.4068C325.099 40.2697 322.811 42.8048 322.246 45.7373C322.117 46.3961 321.128 46.5286 320.616 46.0953C320.101 45.6657 319.95 44.9495 319.829 44.2871C319.56 42.8155 319.288 41.3439 319.02 39.8723C318.934 39.3961 318.848 38.8876 319.045 38.4436C319.242 37.9996 319.84 37.706 320.226 37.9961C320.233 38.9127 320.602 39.8114 321.236 40.4667Z" fill="#1A4CE0"/>
<path d="M334.363 158.157C334.255 157.093 334.631 155.55 335.681 155.758C336.658 162.059 337.632 168.361 338.609 174.663C338.742 175.512 337.424 175.934 336.751 175.401C336.078 174.867 335.945 173.918 335.86 173.062C335.362 168.096 334.864 163.126 334.363 158.157Z" fill="#1A4CE0"/>
<path d="M128.447 35.4359C128.991 38.3003 129.357 41.197 129.543 44.108C129.568 44.5126 129.582 44.9495 129.367 45.2932C128.913 46.0201 127.706 45.8231 127.187 45.1428C126.668 44.4589 126.643 43.5351 126.639 42.6794C126.628 40.463 126.621 38.2466 126.61 36.0303C126.607 35.2246 127.015 34.086 127.781 34.3402C128.211 34.4763 128.361 34.9919 128.447 35.4359Z" fill="#1A4CE0"/>
<path d="M127.821 26.6957C129.207 25.9581 131.094 26.2696 132.096 27.4763C133.099 28.683 133.024 30.6738 131.867 31.7336C130.711 32.7935 128.641 32.6502 127.71 31.3863C127.28 30.8062 127.105 30.0758 127.001 29.3633C126.858 28.3786 126.944 27.1612 127.821 26.6957ZM130.754 28.3858C130.292 27.6768 129.013 27.8988 128.73 28.6937C128.448 29.4922 129.157 30.4303 130.002 30.4804C130.421 29.8968 130.635 29.1699 130.6 28.4538L130.754 28.3858Z" fill="#1A4CE0"/>
<path d="M399.959 93.2373C398.895 92.3457 398.226 90.8168 398.77 89.5385C399.314 88.2603 401.362 87.8091 402.118 88.9728C402.168 89.048 402.211 89.1304 402.218 89.2199C402.254 89.6352 401.656 89.7104 401.277 89.8787C400.421 90.2582 400.847 91.8659 401.778 91.7764C402.573 91.916 402.433 90.3979 403.117 89.9682C403.665 89.6245 404.359 90.2188 404.549 90.8383C405 92.3242 403.754 94.0644 402.204 94.1145C401.384 94.1396 400.589 93.7636 399.959 93.2373Z" fill="#1A4CE0"/>
<path d="M307.258 231.687C307.602 231.863 307.727 232.278 307.82 232.654C308.472 235.264 309.124 237.878 309.775 240.488C309.961 241.24 309.904 242.357 309.131 242.4C308.876 242.415 308.637 242.282 308.432 242.125C306.238 240.452 307.211 236.972 306.388 234.337C306.209 233.76 305.93 233.184 306.001 232.586C306.076 231.984 306.721 231.412 307.258 231.687Z" fill="#1A4CE0"/>
<path d="M145.205 32.4963C143.772 33.642 141.316 32.2241 141.338 30.3909C141.359 28.5576 143.421 27.1684 145.219 27.5407C145.545 27.6088 145.867 27.7269 146.118 27.9489C146.812 28.5719 146.637 29.6927 146.343 30.5771C146.1 31.2932 145.792 32.0272 145.205 32.4963ZM143.042 29.8932C143.088 30.3157 143.622 30.5985 143.998 30.398C144.281 30.0901 144.259 29.5566 143.955 29.2737C143.658 29.4599 143.361 29.6425 143.067 29.8287L143.042 29.8932Z" fill="#1A4CE0"/>
<path d="M250.137 30.0615C250.43 31.4221 249.199 32.8365 247.806 32.8973C246.417 32.9582 245.128 31.8267 244.827 30.4661C244.594 29.4277 245.099 28.0922 246.155 27.9669C247.792 27.7771 249.79 28.4502 250.137 30.0615ZM247.14 29.3991C246.578 29.5674 246.56 30.5413 247.118 30.7275C247.677 30.5449 247.663 29.5674 247.1 29.3991H247.14Z" fill="#1A4CE0"/>
<path d="M229.359 178.551C229.406 179.271 229.298 180.216 228.593 180.381C227.694 180.592 227.275 179.311 227.271 178.387C227.257 175.426 227.243 172.468 227.229 169.507C227.665 169.238 228.267 169.503 228.546 169.929C228.825 170.359 228.865 170.893 228.901 171.405C229.055 173.786 229.205 176.167 229.359 178.551Z" fill="#1A4CE0"/>
<path d="M230.551 32.081C229.28 32.5859 227.74 31.594 227.432 30.2621C227.128 28.9301 227.88 27.505 229.026 26.7567C229.348 26.5454 229.781 26.3843 230.096 26.5991C230.665 26.9894 230.121 27.8488 229.627 28.3321C229.137 28.8191 228.882 29.8969 229.57 29.9792C230.701 29.5531 230.719 27.4513 231.929 27.4442C232.552 27.4406 232.996 28.1245 232.971 28.7439C232.946 29.3633 232.592 29.9183 232.244 30.4339C231.797 31.0999 231.292 31.7874 230.551 32.081Z" fill="#1A4CE0"/>
<path d="M228.972 45.0176C228.091 44.9674 227.712 43.8789 227.626 43.0017C227.422 40.9106 227.608 38.7802 228.17 36.7572C228.22 36.5781 228.281 36.3884 228.421 36.2631C228.976 35.7654 229.638 36.7608 229.724 37.5019C229.91 39.106 230.093 40.7101 230.279 42.3142C230.411 43.4529 230.121 45.082 228.972 45.0176Z" fill="#1A4CE0"/>
<path d="M403.16 98.0924C403.561 100.563 403.962 103.037 404.366 105.508C404.434 105.93 404.488 106.41 404.219 106.743C403.879 107.158 403.181 107.087 402.78 106.729C402.379 106.371 402.207 105.826 402.078 105.307C401.541 103.148 401.412 100.889 401.709 98.6868C401.803 97.9814 402.558 97.0863 403.006 97.6413C403.102 97.763 403.135 97.9313 403.16 98.0924Z" fill="#1A4CE0"/>
<path d="M143.779 35.6651C144.563 38.5439 145.197 41.462 145.681 44.4053C145.809 45.1966 145.251 46.038 144.47 46.2206C142.92 43.6426 142.856 40.4738 142.834 37.4661C142.83 36.7178 143.031 35.7259 143.779 35.6651Z" fill="#1A4CE0"/>
<path d="M280.79 107.158C280.457 107.52 279.824 107.416 279.469 107.073C279.115 106.729 278.971 106.231 278.839 105.755C278.438 104.305 278.04 102.858 277.639 101.408C277.428 100.642 277.217 99.8541 277.317 99.0663C277.417 98.2786 277.915 97.4873 278.685 97.2904C279.419 100.141 280.157 102.991 280.891 105.837C281.009 106.288 281.102 106.822 280.79 107.158Z" fill="#1A4CE0"/>
<path d="M246.528 37.176C247.276 37.2512 247.315 38.3003 247.369 39.0522C247.469 40.3878 248.304 41.5551 248.587 42.862C248.869 44.1689 248.153 45.9234 246.818 45.8338C245.983 43.5781 245.547 41.1791 245.532 38.7765C245.529 38.0604 245.819 37.1044 246.528 37.176Z" fill="#1A4CE0"/>
<path d="M276.461 90.1938C276.884 90.3978 276.998 90.9457 277.002 91.4147C277.006 91.8838 276.97 92.403 277.253 92.7753C277.536 93.1477 278.295 93.1155 278.341 92.65C278.416 91.8444 278.495 91.0388 278.57 90.2331C278.993 90.0255 279.501 90.294 279.816 90.6413C280.776 91.6976 280.636 93.5523 279.526 94.4511C278.42 95.3498 276.572 95.1027 275.738 93.9462C274.911 92.7897 275.262 90.96 276.461 90.1938Z" fill="#1A4CE0"/>
<path d="M160.462 288.593C160.766 288.815 160.977 289.166 161.027 289.542C160.469 289.804 159.96 290.323 159.971 290.942C159.982 291.562 160.748 292.102 161.249 291.741C161.296 290.878 161.625 289.736 162.488 289.771C163.165 289.8 163.537 290.62 163.476 291.293C163.301 293.134 160.676 294.161 159.298 292.929C157.923 291.698 158.653 288.973 160.462 288.593Z" fill="#1A4CE0"/>
<path d="M228.088 167.513C228.045 166.625 228.732 165.887 229.406 165.307C230.215 164.605 231.769 164.143 232.091 165.164C232.492 166.431 232.227 168.007 231.128 168.755C230.025 169.496 228.152 168.837 228.088 167.513Z" fill="#1A4CE0"/>
<path d="M157.74 27.777C157.36 28.6292 156.984 29.4778 156.605 30.33C156.265 31.0926 155.588 32.0057 154.814 31.6906C154.259 31.4614 154.131 30.7238 154.231 30.133C154.41 29.0481 155.04 28.0993 155.652 27.1862C156.171 26.42 157.317 25.6143 157.847 26.3734C158.134 26.7744 157.94 27.3258 157.74 27.777Z" fill="#1A4CE0"/>
<path d="M310.921 222.661C311.225 222.392 311.608 222.116 312.002 222.22C312.865 222.446 312.41 223.76 311.801 224.411C310.541 225.758 309.281 227.104 308.02 228.45C307.147 228.021 307.508 226.696 308.056 225.894C308.873 224.702 309.836 223.613 310.921 222.661Z" fill="#1A4CE0"/>
<path d="M90.1423 32.0487C89.684 33.0011 90.5648 34.2937 91.6175 34.2185C92.6702 34.1433 93.3505 32.729 92.7562 31.8553C92.1618 30.9817 90.6006 31.0962 90.1423 32.0487Z" fill="#1A4CE0"/>
<path d="M91.0266 39.7756C90.1995 38.9986 90.5468 37.3694 91.621 37.0078C92.6951 36.6461 93.9591 37.7633 93.7227 38.8733C93.4864 39.9832 91.8573 40.4774 91.0516 39.6789L91.0266 39.7756Z" fill="#1A4CE0"/>
</g>
<defs>
<clipPath id="clip0_104_1506">
<rect width="562" height="300.378" fill="white" transform="translate(19 20)"/>
</clipPath>
</defs>
</svg>
