<svg width="600" height="333" viewBox="0 0 600 333" fill="none" xmlns="http://www.w3.org/2000/svg">
<g clip-path="url(#clip0_21_1401)">
<path d="M40.2651 27.0724C38.6611 31.5083 37.0321 35.9191 35.1776 41.0317C30.6414 36.27 30.8419 30.1299 27.6841 25.2178C24.5765 30.4557 27.8345 36.0444 25.9549 41.3575C25.6291 39.954 25.2281 38.5506 25.0025 37.1221C24.2006 32.4356 23.1731 27.724 25.0777 23.0876C25.4787 22.1102 26.6316 20.807 27.4836 20.7819C28.436 20.7318 29.8394 21.7593 30.3156 22.6866C31.7441 25.3682 32.7967 28.2252 34.3255 31.784C35.4783 28.6011 36.3805 26.095 37.2827 23.5888C37.7088 22.3859 37.8591 21.0075 38.5609 20.005C39.2125 19.0777 40.4656 17.9249 41.3427 18.0001C42.1447 18.0502 43.3476 19.5539 43.498 20.5564C44.1245 24.7667 44.3501 29.0272 44.8263 33.2626C45.0769 35.5181 45.6282 37.7236 45.7786 39.9791C45.8538 40.9314 45.2273 41.9088 44.9265 42.8862C44.1747 42.2848 42.9717 41.7835 42.7963 41.0567C42.0194 37.3977 41.468 33.6886 40.9167 29.9795C40.7914 29.0021 40.8916 28.0247 40.8916 27.0223C40.6911 27.0473 40.4656 27.0724 40.2651 27.0724Z" fill="#1A4CE0"/>
<path d="M409.973 172.204C404.435 175.963 400.074 173.507 397.869 167.743C397.117 165.788 401.001 159.247 403.006 158.621C405.337 157.919 406.891 159.097 406.916 161.603C406.966 165.212 404.535 167.041 401.377 168.796C404.685 172.204 407.793 169.873 411.101 168.846C410.926 169.823 410.775 170.55 410.575 171.603C412.229 171.778 413.833 171.953 415.412 172.104C415.462 171.151 415.938 169.898 415.487 169.322C414.284 167.768 412.58 166.64 411.327 165.137C410.199 163.783 408.47 162.004 408.695 160.701C409.121 158.144 411.803 158.495 413.883 158.571C414.535 158.596 415.186 158.696 415.888 159.072C414.033 159.473 412.154 159.874 410.299 160.3C410.199 160.651 410.124 160.976 410.024 161.327C411.201 162.204 412.379 163.107 413.557 163.984C415.988 165.838 418.996 167.392 418.82 171.026C418.745 172.53 417.993 174.911 416.991 175.236C415.537 175.738 413.507 174.911 411.828 174.334C411.176 174.109 410.725 173.056 409.973 172.204Z" fill="#1A4CE0"/>
<path d="M561.997 43.1368C561.446 40.8812 560.92 38.6507 560.193 35.6183C558.739 38.5756 557.586 40.8812 555.982 44.1142C554.303 41.0817 553.05 38.8262 551.697 36.4203C551.271 37.147 550.469 37.924 550.444 38.7259C550.319 41.7584 547.988 43.2871 546.233 45.1417C544.88 46.5953 541.497 45.9687 539.868 43.9387C538.715 42.4852 537.036 40.7058 537.136 39.177C537.286 36.9967 538.59 34.7161 539.968 32.9116C540.645 32.0094 542.625 31.6335 543.953 31.7588C546.158 31.9593 546.91 36.0443 545.056 37.8989C544.053 38.9014 542.65 39.5028 541.397 40.3299C542.349 42.5603 542.349 42.5603 547.787 42.3849C548.263 40.4301 548.589 38.2999 549.366 36.3451C549.792 35.2424 550.945 33.6635 551.797 33.6384C552.75 33.6134 553.802 35.0669 554.729 35.9441C555.13 36.32 555.281 36.9465 555.757 37.7986C556.709 36.3701 557.361 35.092 558.288 34.0394C560.017 32.0345 562.123 32.4104 562.674 34.9416C563.225 37.4728 563.275 40.1294 563.551 42.7107C563 42.8861 562.498 43.0115 561.997 43.1368Z" fill="#1A4CE0"/>
<path d="M86.1277 23.5138C84.4486 23.5138 82.7695 23.4637 81.1154 23.5138C77.8073 23.6391 76.7547 25.3433 78.5341 28.0249C80.3886 30.8318 82.6442 33.388 84.5739 36.1699C86.0776 38.3502 86.9798 40.706 85.827 43.4377C84.599 46.395 82.3184 47.8486 79.0353 47.5478C75.9527 47.2471 72.1183 44.4903 71.7674 42.1596C71.6923 41.6082 72.0932 40.6559 72.5193 40.4554C73.0957 40.2048 74.023 40.3802 74.6245 40.681C75.7522 41.2574 76.6795 42.4603 77.8323 42.6608C79.1606 42.8864 81.1906 42.7861 81.8422 41.9591C82.4938 41.1321 82.2181 39.0269 81.5665 37.8991C79.9375 35.0672 77.707 32.5861 76.078 29.7541C75.2761 28.3507 74.6495 26.3207 75.0254 24.817C76.1031 20.5565 82.7695 19.8548 86.1277 23.5138Z" fill="#1A4CE0"/>
<path d="M294.114 242.201C300.48 243.704 301.357 242.978 301.357 236.562C301.357 235.459 301.357 234.382 301.357 233.028C300.781 233.254 300.405 233.329 300.129 233.529C298.525 234.757 296.645 235.259 295.367 233.605C294.515 232.527 293.889 230.372 294.415 229.319C295.117 227.891 296.871 226.713 298.45 226.036C299.678 225.51 301.332 225.76 302.71 226.011C303.362 226.136 304.364 227.064 304.339 227.615C304.289 232.753 304.314 237.915 303.638 242.978C303.462 244.356 301.031 246.236 299.452 246.436C297.899 246.637 296.044 245.083 294.415 244.156C294.164 243.98 294.265 243.103 294.114 242.201Z" fill="#1A4CE0"/>
<path d="M265.87 105.515C264.867 103.51 263.84 101.505 262.712 99.2494C261.835 100.327 261.108 101.48 260.13 102.357C258.827 103.535 257.349 104.963 255.419 103.485C253.765 102.207 252.787 100.778 253.74 98.3723C255.269 94.4627 256.973 94.1619 260.456 93.2347C266.346 91.6808 264.491 96.4927 266.07 98.7983C267.348 95.014 269.128 91.8312 273.99 91.731C269.077 94.187 266.747 97.1944 268.275 99.3497C271.408 103.735 274.641 100.778 277.924 98.673C278.275 101.38 276.771 102.658 275.092 103.259C272.01 104.337 269.128 103.836 267.047 100.427C267.047 102.357 267.047 103.71 267.047 105.089C266.646 105.214 266.245 105.364 265.87 105.515ZM255.444 101.104C255.97 101.304 256.522 101.505 257.048 101.705C258.501 99.5502 259.955 97.3949 261.509 95.0641C258.677 93.8863 257.073 94.9639 256.171 96.7182C255.519 97.9964 255.644 99.6254 255.444 101.104Z" fill="#1A4CE0"/>
<path d="M127.154 21.4083C126.377 24.0147 125.751 26.6713 124.773 29.2025C123.345 32.8865 121.766 36.5205 120.062 40.0792C118.784 42.7608 117.631 42.8109 115.726 40.4802C114.974 39.5529 114.147 38.5755 113.746 37.4979C111.992 32.7111 110.388 27.8742 109.11 22.8619C113.019 26.6211 113.27 32.4855 116.954 36.6207C121.064 31.8841 120.187 24.3155 125.475 20.5061C126.077 20.8068 126.628 21.1076 127.154 21.4083Z" fill="#1A4CE0"/>
<path d="M362.582 223.605C359.375 224.783 356.768 227.39 357.019 229.645C357.319 232.151 360.352 233.254 365.916 232.828C364.938 230.372 364.337 228.016 366.592 225.836C368.848 223.63 371.379 223.756 374.036 224.683C374.662 224.908 375.464 225.61 375.539 226.162C375.89 228.868 376.04 231.625 376.241 234.357C375.99 234.457 375.74 234.582 375.489 234.682C374.838 233.505 374.211 232.352 373.434 230.948C372.808 231.475 372.131 232.001 371.504 232.552C371.053 232.953 370.527 233.805 370.226 233.73C366.943 232.828 364.537 235.409 361.655 235.785C358.422 236.211 355.214 233.555 354.888 230.798C354.487 227.339 356.768 223.781 360.026 223.079C360.803 222.878 361.73 223.405 362.582 223.605ZM367.545 231.023C370.452 230.196 371.479 228.267 372.106 225.811C368.347 225.761 367.144 227.039 367.545 231.023Z" fill="#1A4CE0"/>
<path d="M252.587 91.0299C251.234 94.8142 249.931 98.4231 248.577 102.232C248.251 101.882 247.775 101.355 247.249 100.779C247.048 101.13 246.748 101.43 246.647 101.806C245.82 104.789 244.267 106.844 240.808 106.543C238.152 106.292 235.37 103.36 234.593 100.378C233.59 96.5434 235.094 93.3606 237.024 90.3282C238.252 88.3734 240.658 87.2205 242.337 88.624C243.264 89.4009 242.863 92.3832 242.312 94.1125C241.861 95.4658 240.282 96.4432 239.129 97.5208C238.402 98.1975 236.773 99.0997 236.873 99.3503C237.45 100.729 238.177 102.333 239.329 103.16C242.161 105.114 247.399 101.932 247.099 98.2727C246.873 95.5159 248.602 94.0373 249.78 92.2078C250.281 91.4309 251.785 91.3306 252.587 91.0299ZM242.036 91.6314C241.786 91.4309 241.535 91.2304 241.284 91.0549C238.527 91.6063 237.249 93.4107 237.174 97.571C239.029 95.2904 240.532 93.4609 242.036 91.6314Z" fill="#1A4CE0"/>
<path d="M310.704 278.916C310.704 282.575 310.704 286.234 310.704 289.943C312.734 289.943 314.539 289.943 316.343 289.943C316.418 290.294 316.494 290.67 316.569 291.021C314.764 291.472 312.96 291.898 310.629 292.474C310.629 294.755 310.629 297.236 310.629 300.269C306.669 297.687 310.153 294.529 308.825 291.948C307.045 291.948 305.191 291.948 303.161 291.948C302.033 294.479 305.216 297.662 301.557 300.344C300.98 297.562 300.479 295.106 299.978 292.65C299.677 292.55 299.377 292.474 299.076 292.374C297.873 294.956 296.695 297.562 295.291 300.569C292.81 297.286 293.763 293.878 294.089 290.57C294.289 291.723 294.49 292.85 294.765 294.504C295.266 293.577 295.617 293.001 295.943 292.374C297.422 289.442 298.575 289.367 301.657 290.244C303.888 290.87 306.444 290.369 308.95 290.369C309.326 286.284 309.677 282.575 310.028 278.866C310.228 278.916 310.454 278.916 310.704 278.916Z" fill="#1A4CE0"/>
<path d="M209.105 168.344C210.008 167.868 210.258 167.693 210.534 167.618C212.138 167.242 214.218 167.342 215.246 166.364C215.997 165.638 215.246 163.482 215.396 161.979C215.772 158.119 216.699 154.46 220.509 152.455C222.889 151.202 225.345 150.626 227.651 152.731C230.007 154.861 230.633 157.693 229.205 161.427C228.478 159.974 227.852 158.971 227.476 157.869C226.197 154.26 223.466 153.558 220.534 156.139C218.353 158.094 217.326 161.352 217.601 166.164C220.734 165.237 223.716 164.335 226.699 163.457C226.924 163.633 227.125 163.808 227.35 163.984C226.749 164.685 226.273 165.713 225.521 166.039C224.092 166.665 222.513 166.991 220.96 167.242C217.902 167.718 217.401 168.445 218.529 171.327C218.729 171.853 218.955 172.379 219.155 172.931C218.955 173.056 218.729 173.181 218.529 173.307C217.877 172.179 216.975 171.126 216.649 169.923C216.248 168.369 215.947 167.643 214.068 168.244C212.739 168.67 211.161 168.344 209.105 168.344Z" fill="#1A4CE0"/>
<path d="M321.581 90.8538C318.875 93.5354 318.925 93.5354 321.631 96.3924C322.634 97.445 323.887 98.698 324.037 99.9762C324.188 101.229 323.386 103.46 322.458 103.811C320.053 104.738 317.346 105.089 314.74 105.264C312.183 105.415 309.552 102.984 308.725 100.302C307.923 97.6705 308.9 92.7334 310.83 91.781C312.108 91.1545 314.163 90.954 315.266 91.5805C316.143 92.0818 316.845 94.4877 316.369 95.4651C315.466 97.4199 313.712 98.9737 311.958 101.129C312.885 102.783 315.216 102.758 317.571 102.532C318.348 102.457 319.075 102.131 319.852 102.006C322.133 101.63 322.509 100.452 321.23 98.698C320.604 97.8209 319.551 97.1943 319.075 96.242C318.524 95.1393 317.772 93.5103 318.198 92.6833C318.699 91.756 320.403 91.4302 321.581 90.8538ZM314.113 93.2346C311.331 93.8612 310.654 95.6656 310.88 98.2219C314.088 97.871 314.89 96.6179 314.113 93.2346Z" fill="#1A4CE0"/>
<path d="M131.213 288.114C131.89 290.395 132.566 292.675 133.143 294.655C134.772 292.926 136.075 290.971 137.879 289.918C138.456 289.593 140.436 291.648 142.04 292.826C141.589 293.001 141.839 292.976 141.939 292.851C143.142 291.322 143.969 289.066 146.425 289.568C148.982 290.094 148.556 292.575 148.932 294.404C149.257 296.008 149.408 297.637 149.633 299.266C149.333 299.367 149.007 299.467 148.706 299.567C147.729 297.462 146.751 295.357 145.624 292.876C144.37 294.981 143.243 296.911 141.639 299.617C140.16 297.262 138.982 295.382 137.704 293.352C136.626 295.607 135.499 297.938 134.145 300.795C130.812 296.735 131.639 292.224 130.336 288.315C130.612 288.239 130.912 288.164 131.213 288.114Z" fill="#1A4CE0"/>
<path d="M52.0443 22.8621C54.2999 27.5987 56.5805 32.3103 58.8611 37.0469C59.1869 37.0219 59.4876 36.9968 59.8134 36.9717C60.7407 33.2125 61.6429 29.4533 62.5451 25.694C62.7957 24.6414 62.7456 23.4385 63.2719 22.5613C63.698 21.8847 64.7756 21.5839 65.5776 21.1328C65.9034 21.7844 66.6051 22.5112 66.4798 23.0626C65.2768 28.4257 64.1741 33.839 62.5451 39.0769C61.693 41.8086 59.4876 42.0091 57.9087 39.6283C54.6257 34.6159 52.7962 28.9771 51.2173 23.263C51.493 23.1377 51.7686 22.9874 52.0443 22.8621Z" fill="#1A4CE0"/>
<path d="M375.313 103.134C373.459 106.643 370.902 108.197 367.82 107.696C364.462 107.144 362.281 104.789 361.479 101.155C361.229 100.052 360.502 99.0494 360.201 98.4229C360.903 97.7211 361.479 97.0946 362.131 96.4931C364.036 94.7388 365.715 92.6086 367.92 91.4307C369.674 90.4783 371.354 91.5309 371.454 94.012C371.604 98.1472 369.399 100.553 364.286 101.505C364.888 103.686 366.517 104.513 368.472 104.388C370.802 104.237 373.108 103.661 375.414 103.26L375.313 103.134ZM363.86 98.6233C367.494 99.2499 368.446 98.2224 368.246 94.0621C366.792 95.5909 365.339 97.1196 363.86 98.6233Z" fill="#1A4CE0"/>
<path d="M421.326 299.968C420.75 297.788 420.173 295.582 419.722 293.878C418.068 295.306 416.389 297.136 414.334 298.364C413.482 298.865 411.452 298.514 410.7 297.788C409.773 296.91 408.996 295.131 409.196 293.903C409.773 290.47 413.382 287.763 416.564 288.74C418.569 289.342 418.569 287.863 418.67 286.535C418.945 283.026 419.196 279.493 419.522 275.282C420.349 276.21 421.076 276.636 421.101 277.112C421.527 284.68 421.878 292.224 422.228 299.792C421.928 299.843 421.627 299.893 421.326 299.968ZM418.77 291.146C414.66 289.417 411.302 290.795 410.7 293.702C410.55 294.479 411.026 295.657 411.627 296.259C412.053 296.685 413.482 296.785 413.908 296.409C415.537 294.88 416.965 293.126 418.77 291.146Z" fill="#1A4CE0"/>
<path d="M516.185 22.6865C516.711 26.9721 517.263 31.2827 517.789 35.5932C519.744 35.067 521.573 34.2399 523.428 34.1146C526.059 33.9392 527.964 35.1171 528.515 37.9992C529.042 40.6557 527.989 43.3623 525.784 44.5402C523.328 45.8434 521.623 44.5152 519.619 43.1869C516.035 40.8061 516.411 37.2222 516.11 33.8389C515.784 30.1298 515.634 26.4207 515.408 22.6865C515.684 22.6865 515.934 22.6865 516.185 22.6865ZM519.568 40.9815C525.082 41.8837 526.711 40.8562 525.333 37.6483C520.972 36.9967 520.07 37.4729 519.568 40.9815Z" fill="#1A4CE0"/>
<path d="M165.096 36.2196C165.096 38.9513 162.766 42.1592 160.134 43.0865C157.378 44.0388 154.721 44.2143 152.516 41.7081C151.062 40.054 150.561 38.425 151.463 36.2697C152.566 33.6884 158.58 30.3051 161.112 31.1572C163.668 32.0093 164.896 33.9139 165.096 36.2196ZM159.834 34.3149C155.648 34.2648 153.443 35.7685 153.919 37.8737C154.12 38.7508 155.598 39.8034 156.601 39.9538C158.856 40.3047 161.989 38.0742 161.663 36.4452C161.463 35.4176 160.109 34.6407 159.834 34.3149Z" fill="#1A4CE0"/>
<path d="M363.008 170.224C362.331 168.796 361.68 167.367 360.978 165.864C360.602 166.665 360.226 167.618 359.725 168.495C358.797 170.124 357.97 172.054 355.489 171.277C353.259 170.575 351.855 167.618 352.332 165.337C353.083 161.804 355.539 160.851 358.873 160.876C359.048 157.894 359.223 154.962 359.399 152.03C359.875 152.004 360.351 151.979 360.827 151.954C361.98 157.894 363.108 163.834 364.261 169.773C363.86 169.898 363.434 170.074 363.008 170.224ZM355.264 168.871C355.79 168.896 356.316 168.921 356.843 168.946C357.519 166.941 358.171 164.911 358.848 162.906C358.447 162.656 358.046 162.43 357.62 162.179C356.417 163.307 354.913 164.26 354.161 165.638C353.81 166.34 354.863 167.793 355.264 168.871Z" fill="#1A4CE0"/>
<path d="M396.992 227.239C398.17 226.387 399.197 225.46 400.375 224.833C402.505 223.68 404.61 223.655 406.214 225.786C407.568 227.59 407.192 230.673 405.538 232.277C403.357 234.407 400.375 234.758 398.069 233.73C396.616 233.079 395.613 230.272 395.313 228.292C394.611 223.33 394.435 218.317 394.661 213.23C395.438 217.891 396.215 222.553 396.992 227.239ZM398.746 231.224C403.658 230.648 404.009 230.397 403.959 227.74C400.951 227.415 400.124 227.941 398.746 231.224Z" fill="#1A4CE0"/>
<path d="M271.358 161.177C273.589 160.902 275.819 160.526 278.075 160.425C279.077 160.375 280.08 160.876 281.082 161.127C280.581 162.029 280.255 163.057 279.578 163.809C277.899 165.713 275.744 167.292 275.869 170.575C277.573 170.575 279.152 170.625 280.731 170.55C282.46 170.475 283.513 169.773 283.338 167.793C283.112 165.413 284.39 163.834 286.345 162.756C288.676 161.453 290.029 162.004 291.107 164.41C292.084 166.515 293.312 168.52 294.264 170.65C294.49 171.177 293.964 172.029 293.788 172.706C293.437 172.756 293.112 172.806 292.761 172.881C291.633 170.575 290.53 168.27 289.227 165.638C288.525 167.117 287.974 168.445 287.272 169.673C286.57 170.876 285.869 172.279 284.064 170.901C283.738 170.65 283.012 170.776 282.51 170.926C281.859 171.127 281.257 171.803 280.656 171.778C278.776 171.678 276.395 171.979 275.117 170.976C273.388 169.598 274.842 167.593 275.969 166.089C276.897 164.836 277.874 163.633 279.127 161.979C276.295 161.979 273.814 161.979 271.333 161.979C271.333 161.704 271.358 161.428 271.358 161.177ZM285.518 170.149C286.47 167.568 287.322 165.262 288.3 162.631C284.24 164.109 283.212 166.891 285.518 170.149Z" fill="#1A4CE0"/>
<path d="M378.722 153.032C379.374 156.315 380.05 159.623 380.702 162.931C385.163 161.753 386.541 162.129 388.195 164.911C389.975 167.918 389.724 171.201 387.519 173.382C385.464 175.412 382.732 174.911 381.429 172.379C378.321 166.264 379.123 159.573 378.722 153.032ZM381.654 170.75C383.735 171.953 385.514 171.828 385.99 169.848C386.266 168.62 385.163 165.888 384.687 165.888C381.504 165.913 383.058 169.171 381.654 170.75Z" fill="#1A4CE0"/>
<path d="M379.674 213.23C380.376 218.543 381.078 223.831 381.88 229.745C382.531 228.668 382.782 227.941 383.258 227.465C384.486 226.312 386.065 224.182 387.043 224.407C388.747 224.808 391.328 224.984 391.679 227.991C391.93 230.171 393.107 232.251 393.859 234.357C393.458 234.557 393.057 234.733 392.656 234.933C391.729 233.354 390.802 231.8 389.699 229.946C388.872 234.081 385.539 234.106 382.356 234.131C381.83 234.131 380.953 233.129 380.852 232.502C380.326 229.294 379.825 226.086 379.624 222.853C379.424 219.671 379.574 216.488 379.574 213.305C379.599 213.28 379.649 213.255 379.674 213.23ZM385.288 232.627C386.591 230.422 387.644 228.843 388.446 227.164C388.646 226.763 388.17 225.911 387.794 225.41C387.644 225.209 386.867 225.284 386.516 225.485C384.812 226.362 383.935 229.645 385.288 232.627Z" fill="#1A4CE0"/>
<path d="M207.3 223.53C208.002 223.004 208.604 222.277 209.38 221.951C210.458 221.5 211.661 221.325 212.814 221.049C216.022 220.297 219.38 219.671 218.478 215.034C218.453 214.884 218.854 214.684 219.48 214.107C219.731 215.836 219.906 217.19 220.132 218.769C221.435 218.368 222.538 217.917 223.666 217.741C224.317 217.641 225.019 218.067 225.696 218.242C225.42 218.919 225.269 219.721 224.818 220.247C224.392 220.723 223.64 221.149 223.014 221.2C220.107 221.4 219.555 223.104 219.781 225.636C219.956 227.716 219.881 229.821 219.781 231.926C219.731 232.928 219.33 233.881 218.653 234.858C214.894 231.149 219.28 226.663 217.3 222.854C214.117 223.23 210.859 223.631 207.576 224.032C207.526 223.906 207.401 223.731 207.3 223.53Z" fill="#1A4CE0"/>
<path d="M257.123 237.264C256.02 234.132 254.943 230.999 253.564 227.039C251.76 230.397 250.281 233.129 248.527 236.412C245.068 232.528 246.547 228.167 245.394 224.433C245.72 224.358 246.046 224.257 246.371 224.182C246.848 226.262 247.324 228.317 247.9 230.798C248.802 229.069 249.304 227.415 250.356 226.237C251.233 225.26 252.712 224.282 253.915 224.307C254.943 224.333 256.471 225.535 256.897 226.588C258.226 229.871 259.754 233.279 258.501 236.938C258.075 237.014 257.599 237.139 257.123 237.264Z" fill="#1A4CE0"/>
<path d="M214.544 21.8347C215.271 26.3959 215.998 30.9571 216.8 35.9444C217.702 35.2677 218.278 34.8166 218.88 34.4156C221.085 32.9119 224.193 33.1124 225.346 34.8166C226.799 36.9218 225.947 41.1071 223.466 42.0594C221.662 42.7611 219.481 42.8113 217.476 42.711C215.421 42.5857 215.371 40.8565 215.271 39.1523C214.945 33.4382 214.444 27.7493 213.993 22.0603C214.193 21.96 214.369 21.8848 214.544 21.8347ZM218.404 39.8289C221.085 40.1547 223.516 39.2024 223.616 37.7238C223.641 37.2727 223.115 36.4206 222.764 36.3704C220.484 36.0697 219.18 37.4481 218.228 39.3026C218.153 39.4029 218.328 39.6535 218.404 39.8289Z" fill="#1A4CE0"/>
<path d="M257.975 43.4126C254.442 43.3876 252.662 41.6333 252.637 38.1497C252.612 33.9143 255.494 31.5836 260.707 31.6587C263.439 31.6838 265.569 33.9143 265.569 36.6961C265.569 40.4052 262.136 43.4377 257.975 43.4126ZM258.326 40.6559C259.63 39.2775 260.933 37.8991 262.236 36.5207C260.757 35.5934 259.329 34.0897 257.8 33.9895C256.873 33.9394 255.244 35.8942 254.893 37.1974C254.367 39.0269 255.795 40.0293 258.326 40.6559Z" fill="#1A4CE0"/>
<path d="M353.885 102.909C353.083 101.079 351.905 99.2997 351.579 97.395C351.229 95.2648 350.502 94.137 348.221 93.8613C348.973 93.711 349.725 93.5355 349.8 93.5105C351.178 89.651 352.356 86.2175 353.685 82.8593C354.336 81.1802 355.69 79.8268 357.594 80.4534C358.897 80.8794 360.401 81.9069 360.978 83.0848C362.03 85.2401 363.885 87.4456 361.629 90.5532C360.777 88.8239 359.975 87.0696 359.048 85.3905C358.597 84.5885 357.92 83.8868 357.369 83.16C356.642 83.7615 355.69 84.2377 355.238 84.9895C353.71 87.5207 352.256 90.1522 353.008 93.4854C354.562 93.5606 356.015 93.6358 357.494 93.711C357.544 93.9365 357.569 94.1621 357.619 94.4127C356.191 94.6633 354.737 94.9139 352.682 95.2898C353.234 97.4953 353.86 100.102 354.512 102.708C354.311 102.758 354.086 102.833 353.885 102.909Z" fill="#1A4CE0"/>
<path d="M349.124 100.578C347.996 103.435 346.167 105.365 343.485 105.189C340.728 104.989 338.999 102.984 338.372 100.127C338.097 98.9237 337.395 97.821 337.019 96.9438C337.495 96.3674 338.197 95.7158 338.648 94.964C339.3 93.8863 339.525 92.2322 340.452 91.6558C341.806 90.8288 343.61 90.7536 345.239 90.3777C345.54 91.7561 346.417 93.3099 346.016 94.4377C345.54 95.8411 344.262 97.3699 342.934 97.9713C341.681 98.5728 340.152 98.6731 340.904 100.352C341.505 101.68 342.533 103.259 344.613 102.332C345.991 101.731 347.369 101.254 349.124 100.578Z" fill="#1A4CE0"/>
<path d="M373.284 292.149C373.76 293.778 374.211 295.407 374.687 297.061C377.82 296.559 379.524 294.855 378.923 292.75C378.397 290.87 374.738 290.043 371.304 291.046C371.956 289.066 373.109 288.64 376.793 289.116C379.349 289.442 381.053 290.971 381.579 293.402C382.181 296.133 379.174 299.442 375.59 300.544C374.637 304.003 378.497 307.336 375.941 310.744C375.515 310.794 375.063 310.82 374.637 310.87C373.785 304.73 372.908 298.589 372.056 292.474C372.457 292.349 372.858 292.249 373.284 292.149Z" fill="#1A4CE0"/>
<path d="M319.727 298.314C321.606 298.99 323.461 299.667 325.24 300.293C323.06 302.975 319.727 302.599 317.772 299.191C316.945 297.762 316.168 296.309 315.566 295.206C316.243 294.354 316.945 293.477 317.647 292.6C318.9 291.046 319.877 289.041 321.506 288.063C322.759 287.312 324.939 287.487 325.691 289.642C326.518 292.023 325.19 295.156 322.935 296.208C321.982 296.634 320.955 296.91 319.952 297.261C319.852 297.612 319.802 297.963 319.727 298.314Z" fill="#1A4CE0"/>
<path d="M216.849 95.641C216.874 99.0995 214.518 102.558 211.335 103.711C208.253 104.839 205.696 104.187 203.566 101.706C201.937 99.8012 201.561 97.6459 202.714 95.3653C203.867 93.1348 205.295 91.4557 208.253 91.8567C209.581 92.0321 210.984 91.2552 212.388 91.2051C215.646 91.1049 216.824 92.3329 216.849 95.641ZM214.142 95.8666C214.042 95.641 213.891 94.4882 213.415 94.3378C211.11 93.6862 208.729 93.2351 206.373 92.8842C205.922 92.809 205.22 93.5358 204.819 94.0371C203.441 95.7914 202.689 98.0219 204.293 99.6759C205.496 100.904 207.651 101.781 209.355 101.756C211.661 101.756 214.092 98.473 214.142 95.8666Z" fill="#1A4CE0"/>
<path d="M424.358 231.475C422.278 235.209 419.897 235.509 416.915 232.627C413.682 229.495 413.883 222.904 417.516 220.172C418.444 219.47 420.148 219.37 421.376 219.62C421.952 219.746 422.479 221.35 422.554 222.327C422.729 225.66 420.85 227.54 417.441 227.765C418.193 231.575 419.922 232.577 424.358 231.475Z" fill="#1A4CE0"/>
<path d="M234.493 235.159C231.987 239.043 228.177 237.916 226.047 234.733C224.769 232.828 223.641 230.071 224.017 227.966C224.544 224.934 226.323 222.027 230.433 222.327C232.939 222.503 233.992 223.48 232.864 225.661C231.912 227.49 230.132 228.894 228.604 230.372C228.152 230.798 227.375 230.898 226.649 231.174C228.152 234.733 231.26 235.034 234.493 235.159ZM226.548 229.019C226.874 229.32 227.2 229.62 227.526 229.896C228.904 228.317 230.283 226.738 231.686 225.159C231.435 224.934 231.16 224.708 230.909 224.458C228.177 224.783 226.724 226.312 226.548 229.019Z" fill="#1A4CE0"/>
<path d="M219.505 93.8112C221.585 91.8814 224.192 91.7812 226.723 93.1095C228.954 94.2874 229.831 96.4928 229.355 98.9488C228.728 102.107 226.873 103.31 222.137 103.685C222.638 107.796 223.164 111.881 223.666 115.966C223.315 115.991 222.989 116.041 222.638 116.066C219.806 109.149 221.911 101.305 219.505 93.8112ZM224.718 100.979C225.47 99.8761 226.798 98.598 227.249 97.0441C227.726 95.3901 225.169 93.2348 223.089 93.4102C222.387 93.4603 221.134 94.9139 221.184 94.9891C222.438 96.7434 220.207 100.152 224.718 100.979Z" fill="#1A4CE0"/>
<path d="M346.067 233.179C344.814 237.164 342.182 237.89 339.175 234.858C337.621 233.304 335.792 231.45 335.416 229.47C335.115 227.765 336.393 225.485 337.571 223.931C338.298 222.979 340.177 222.528 341.531 222.578C342.308 222.603 343.711 224.207 343.611 224.934C343.385 226.563 342.608 228.217 341.681 229.595C341.23 230.272 339.952 230.397 339.05 230.773C340.879 234.407 342.583 234.983 346.092 233.179H346.067Z" fill="#1A4CE0"/>
<path d="M363.86 42.034C365.414 42.9112 367.193 43.9387 368.998 44.9663C367.945 46.8459 366.041 47.0714 363.885 44.7658C362.407 43.1618 361.529 40.9815 360.577 39.3525C361.229 38.4001 361.605 37.523 362.256 36.9716C363.885 35.5431 365.489 33.9642 367.394 32.9868C368.096 32.6109 370.126 33.463 370.552 34.265C371.028 35.1421 370.777 37.0969 370.075 37.7485C368.346 39.3525 366.191 40.4802 363.86 42.034Z" fill="#1A4CE0"/>
<path d="M299.253 51.6828C298.651 49.9035 298.05 48.6003 297.774 47.2219C297.122 43.7383 298.425 40.2046 296.796 36.5707C295.944 34.666 298.726 33.438 300.756 33.2124C302.811 32.9869 304.691 33.5382 305.217 35.9692C305.869 39.0267 304.766 41.9088 301.859 43.212C299.679 44.1894 299.704 45.3172 300.43 47.0966C301.057 48.5251 301.658 50.0538 299.253 51.6828ZM303.312 36.8714C303.212 36.4704 303.087 36.0945 302.987 35.6935C301.458 35.5682 299.929 35.468 297.699 35.2925C298.676 37.3727 299.303 38.6759 299.904 39.9791C301.032 38.9265 302.16 37.899 303.312 36.8714Z" fill="#1A4CE0"/>
<path d="M311.306 168.37C313.461 168.971 315.04 169.422 317.12 169.999C315.391 167.894 313.737 166.315 312.659 164.41C311.957 163.157 311.406 160.45 311.907 160.125C313.26 159.247 315.215 159.172 316.945 159.072C317.646 159.022 318.398 159.774 319.601 160.4C317.521 160.676 316.017 160.876 313.937 161.152C315.792 163.257 317.145 164.836 318.523 166.365C320.127 168.144 320.278 170.249 319.1 172.079C318.599 172.856 316.869 173.332 315.792 173.182C313.461 172.906 312.108 171.302 311.306 168.37Z" fill="#1A4CE0"/>
<path d="M331.732 161.954C331.281 165.738 334.238 169.146 333.787 173.056C333.436 173.156 333.085 173.257 332.734 173.382C331.832 171.828 330.93 170.299 329.953 168.62C329.627 168.821 329.276 168.971 329.025 169.222C327.522 170.725 326.018 172.229 323.687 170.625C321.256 168.921 321.432 166.615 322.309 164.285C323.487 161.177 325.968 160.049 329.05 161.052C329.852 161.302 330.679 161.603 331.732 161.954ZM324.113 168.72C324.539 168.72 324.965 168.72 325.391 168.72C327.672 167.091 329.401 165.212 328.825 162.079C325.993 161.352 324.464 162.781 323.787 164.886C323.411 166.014 323.963 167.442 324.113 168.72Z" fill="#1A4CE0"/>
<path d="M306.393 204.383C303.211 202.252 305.817 199.07 304.714 196.538C302.835 196.213 300.855 195.862 298.875 195.536C298.875 195.11 298.9 194.684 298.9 194.258C300.805 193.882 302.734 193.506 304.79 193.105C304.915 192.077 305.065 190.975 305.291 189.195C305.967 190.774 306.368 191.727 306.92 193.005C308.774 192.829 310.729 192.478 312.684 192.529C313.636 192.554 314.538 193.356 315.491 193.782C314.689 194.584 313.987 195.912 313.085 196.062C311.155 196.413 309.125 196.162 307.246 196.162C305.967 198.919 309.326 201.876 306.393 204.383Z" fill="#1A4CE0"/>
<path d="M291.808 228.492C291.708 231.55 288.926 234.858 286.094 235.234C283.212 235.61 280.054 233.68 279.528 230.472C279.252 228.793 279.904 226.437 281.032 225.184C281.884 224.232 284.139 224.458 285.768 224.232C286.295 224.157 286.871 224.533 287.397 224.483C290.179 224.207 291.908 225.736 291.808 228.492ZM284.966 223.806C283.312 225.936 281.909 227.139 281.332 228.668C280.781 230.096 283.187 232.552 284.791 232.277C286.846 231.926 288.901 230.798 288.575 228.517C288.375 227.114 286.645 225.911 284.966 223.806Z" fill="#1A4CE0"/>
<path d="M271.909 172.831C270.28 169.974 268.626 167.117 266.521 163.432C265.594 165.788 265.017 167.317 264.391 168.796C263.814 170.149 263.188 171.502 262.586 172.856C262.16 172.831 261.734 172.78 261.308 172.755C260.506 169.272 259.729 165.813 258.927 162.33C259.203 162.255 259.504 162.179 259.779 162.104C260.381 164.209 260.957 166.315 261.684 168.846C262.486 166.665 263.012 164.836 263.814 163.182C264.917 160.876 267.223 160.149 268.551 161.979C270.531 164.736 271.859 167.994 273.363 171.101C273.538 171.452 273.012 172.129 272.811 172.655C272.486 172.705 272.185 172.755 271.909 172.831Z" fill="#1A4CE0"/>
<path d="M173.417 36.1196C172.39 38.4754 171.362 40.8562 170.034 43.8636C167.603 40.1294 167.778 36.696 168.43 33.037C168.856 34.1898 169.282 35.3427 169.733 36.5707C169.834 36.4704 170.034 36.3201 170.209 36.1446C171.463 34.8665 172.716 33.5633 173.994 32.2852C175.147 33.8891 176.6 35.3677 177.327 37.1471C178.054 38.9265 178.154 40.9815 178.304 42.9614C178.354 43.7383 177.753 44.5653 177.477 45.3673C177.152 45.3673 176.801 45.3673 176.475 45.3422C175.748 42.2847 175.046 39.2272 174.32 36.1948C173.994 36.1446 173.693 36.1446 173.417 36.1196Z" fill="#1A4CE0"/>
<path d="M376.766 172.329C375.338 170.5 374.486 169.372 373.584 168.194C373.132 168.845 372.581 169.622 372.055 170.424C370.977 172.078 369.198 172.981 367.769 171.753C366.667 170.8 365.814 168.595 366.065 167.166C366.767 163.557 369.975 161.352 373.684 161.402C374.335 161.402 375.363 162.054 375.563 162.605C376.315 164.71 376.867 166.891 377.293 169.096C377.443 169.848 377.067 170.675 376.766 172.329ZM373.032 163.207C368.872 163.633 367.393 166.039 368.696 170.249C370.25 167.718 371.453 165.763 373.032 163.207Z" fill="#1A4CE0"/>
<path d="M282.736 40.5804C282.234 41.232 281.884 42.034 281.282 42.3848C280.28 42.9863 278.5 43.9387 278.099 43.5878C277.122 42.7106 275.894 40.6807 276.295 39.9789C277.448 37.974 279.102 36.0192 281.031 34.8162C282.585 33.8388 284.164 34.8914 284.69 37.0217C285.267 39.4025 286.169 41.7082 286.771 44.064C286.971 44.891 286.67 45.8684 286.595 46.7706C286.194 46.8207 285.793 46.8959 285.392 46.9461C284.54 44.8659 283.663 42.8109 282.736 40.5804Z" fill="#1A4CE0"/>
<path d="M248.477 169.998C248.452 168.996 248.377 167.993 248.427 166.991C248.628 163.207 252.387 160.274 255.921 161.177C256.347 161.277 256.923 161.678 257.023 162.029C257.901 165.262 258.753 168.495 259.479 171.753C259.58 172.179 259.053 172.73 258.477 173.958C257.199 171.978 256.246 170.474 255.394 169.146C254.367 170.074 253.364 171.703 252.136 171.878C250.984 172.028 249.63 170.65 248.352 169.923L248.477 169.998ZM254.216 163.056C249.756 163.683 248.753 167.141 251.66 170.424C252.613 167.693 253.415 165.387 254.216 163.056Z" fill="#1A4CE0"/>
<path d="M319.225 226.963C320.628 226.011 321.856 225.059 322.257 227.891C322.483 229.495 323.46 230.998 323.937 232.602C324.137 233.304 323.962 234.106 323.36 235.033C322.533 233.755 321.681 232.477 320.779 231.098C319.651 232.226 318.749 233.78 317.446 234.306C315.992 234.883 313.762 235.133 312.609 234.407C311.581 233.755 310.955 231.449 311.18 230.046C311.581 227.49 313.335 225.41 316.017 225.059C317.02 224.933 318.197 226.337 319.3 227.039C315.441 225.535 312.809 227.84 313.386 232.251C316.644 232.577 318.523 230.873 319.225 226.963Z" fill="#1A4CE0"/>
<path d="M316.971 44.0893C316.419 42.9866 315.893 41.8838 315.292 40.6809C315.141 40.8313 314.916 41.1069 314.64 41.2824C313.211 42.1846 311.733 43.7635 310.304 43.7133C309.202 43.6632 307.397 41.6834 307.272 40.4303C307.121 38.8765 308.024 36.8214 309.151 35.6686C311.883 32.8617 316.269 34.1899 317.146 37.9241C317.597 39.8288 317.748 41.8337 318.023 43.7885C317.672 43.8888 317.322 43.989 316.971 44.0893ZM309.853 40.4553C312.359 40.2047 313.111 39.3025 313.713 35.844C310.455 36.4204 309.427 37.6484 309.853 40.4553Z" fill="#1A4CE0"/>
<path d="M470.096 292.55C470.146 295.958 467.164 298.94 463.68 298.991C461.124 299.041 459.044 297.111 458.994 294.655C458.919 291.973 462.828 287.287 465.134 287.262C467.615 287.287 470.046 289.868 470.096 292.55ZM463.956 289.091C462.552 291.071 461.35 292.424 460.673 294.003C460.522 294.354 462.628 296.309 462.979 296.134C464.582 295.281 465.936 293.953 467.389 292.775C466.412 291.773 465.46 290.745 463.956 289.091Z" fill="#1A4CE0"/>
<path d="M354.362 299.241C353.585 298.239 352.783 297.261 352.006 296.284C351.179 297.011 350.427 298.088 349.424 298.489C348.347 298.89 346.442 299.141 345.916 298.539C345.114 297.662 344.562 295.607 345.089 294.705C346.066 293.001 347.745 291.597 349.349 290.394C350.878 289.242 352.457 289.668 353.159 291.522C354.061 293.853 354.712 296.284 355.464 298.665C355.113 298.84 354.737 299.041 354.362 299.241Z" fill="#1A4CE0"/>
<path d="M575.43 44.1643C574.728 42.9112 574.027 41.6832 573.175 40.1544C572.247 41.207 571.596 42.41 570.568 42.9864C569.49 43.5879 567.836 44.1392 566.859 43.7382C565.907 43.3373 565.03 41.7333 564.904 40.5554C564.604 37.924 567.26 34.3401 569.641 34.1397C572.322 33.9141 574.227 35.2925 575.23 37.8738C575.731 39.152 576.382 40.4051 576.733 41.7083C576.934 42.435 576.608 43.3122 576.508 44.1142C576.157 44.1392 575.806 44.1392 575.43 44.1643ZM572.247 35.1672C568.939 35.3175 566.308 37.8488 566.458 39.8537C566.483 40.2547 566.834 40.8311 567.21 41.0065C567.536 41.1569 568.288 41.0316 568.488 40.7559C569.666 39.152 570.744 37.4478 572.247 35.1672Z" fill="#1A4CE0"/>
<path d="M200.935 32.7112C201.762 33.5884 202.615 34.4906 203.567 35.5181C204.97 33.9142 205.522 29.9795 209.156 32.6862C211.311 34.2901 212.213 39.0017 210.559 40.9064C209.933 39.9791 209.306 39.152 208.83 38.2248C208.354 37.3225 208.053 36.3451 207.426 34.7663C206.148 37.3225 205.221 39.1771 203.968 41.6833C202.765 39.6783 201.913 38.325 200.86 36.5456C200.359 37.8488 199.933 38.9265 199.532 40.0041C199.331 39.9791 199.156 39.954 198.956 39.929C199.181 37.5982 199.407 35.2675 199.632 32.9368C200.083 32.8365 200.509 32.7613 200.935 32.7112Z" fill="#1A4CE0"/>
<path d="M244.517 293.702C244.542 297.662 242.412 300.268 239.179 300.218C236.322 300.168 234.042 297.787 233.991 294.805C233.941 291.772 236.648 288.64 239.254 288.715C242.888 288.84 244.492 290.369 244.517 293.702ZM243.039 293.878C241.334 292.349 240.482 290.996 239.38 290.72C237.625 290.269 235.721 292.574 236.197 294.73C236.447 295.782 238.177 297.487 238.578 297.311C240.006 296.71 241.134 295.431 243.039 293.878Z" fill="#1A4CE0"/>
<path d="M204.343 300.168C203.215 298.364 202.388 297.036 201.561 295.682C200.458 296.71 199.406 297.863 198.152 298.815C196.173 300.344 194.644 299.642 193.591 297.562C191.887 294.154 194.067 290.419 197.827 290.294C203.165 290.119 205.521 293.377 204.343 300.168ZM200.383 292.399C200.132 292.073 199.907 291.723 199.656 291.397C198.278 292.048 196.624 292.399 195.571 293.427C194.945 294.028 195.27 295.632 195.17 296.785C195.571 296.96 195.997 297.111 196.398 297.286C197.726 295.632 199.055 294.028 200.383 292.399Z" fill="#1A4CE0"/>
<path d="M174.144 299.166C171.587 299.241 169.833 297.838 169.557 295.682C169.382 294.154 170.159 291.497 171.287 290.996C173.617 289.918 176.474 289.592 179.056 289.693C179.858 289.718 181.437 292.449 181.111 293.477C180.559 295.256 178.956 296.86 177.477 298.189C176.725 298.89 175.297 298.865 174.144 299.166ZM174.043 297.186C175.823 295.507 178.129 294.329 178.379 292.825C178.73 290.62 176.199 291.322 174.77 291.196C172.515 291.021 171.487 292.6 171.337 294.429C171.312 295.131 172.765 295.933 174.043 297.186Z" fill="#1A4CE0"/>
<path d="M481.174 43.4622C481.976 46.9959 482.753 50.304 483.504 53.6122C483.129 53.6873 482.778 53.7876 482.402 53.8628C479.896 51.3817 480.447 47.8229 479.77 44.7654C479.069 41.5325 478.868 38.1742 478.417 34.7157C480.647 32.9363 483.104 32.9113 485.534 34.2646C487.79 35.5177 487.189 37.8234 486.813 39.6529C486.261 42.4347 484.131 43.6376 481.174 43.4622ZM480.597 40.5551C483.504 40.4298 485.56 38.8008 485.409 36.9462C485.234 34.7909 483.078 33.9889 479.119 34.7408C479.595 36.6204 480.071 38.5 480.597 40.5551Z" fill="#1A4CE0"/>
<path d="M339.55 44.9412C338.397 43.4876 337.47 42.3599 336.443 41.0817C335.791 41.9589 335.29 42.9613 334.513 43.5879C333.661 44.2395 332.207 45.1417 331.556 44.841C330.503 44.3147 329.125 42.836 329.225 41.8837C329.425 40.0542 330.227 38.0743 331.355 36.6208C332.834 34.7161 335.164 35.518 337.119 35.9692C338.573 36.295 340.553 43.0365 339.55 44.9412ZM332.207 42.1092C333.034 40.4802 333.861 38.8763 334.688 37.2473C331.656 37.7736 330.678 39.3274 332.207 42.1092Z" fill="#1A4CE0"/>
<path d="M412.229 38.9264C413.03 37.7986 413.908 36.9716 414.284 35.9691C415.086 33.8389 416.263 32.1347 418.719 32.4354C420.9 32.7111 421.802 36.7961 419.947 38.4753C418.719 39.603 416.99 40.1794 415.211 41.1568C415.837 43.9637 418.093 44.6905 421.201 44.1893C418.519 47.0714 414.81 45.9185 413.406 41.9839C412.955 40.7057 412.454 39.4777 412.229 38.9264Z" fill="#1A4CE0"/>
<path d="M194.569 42.2346C193.918 40.7309 193.291 39.2272 192.464 37.2724C191.763 38.1997 191.286 39.3275 190.434 39.8788C189.206 40.7059 187.703 41.1319 186.299 41.7083C186.099 40.0793 185.472 38.325 185.873 36.8464C186.224 35.6184 187.778 34.7162 188.855 33.7388C189.933 32.7864 191.011 31.7589 192.264 31.0822C192.79 30.8066 194.369 31.1574 194.444 31.5083C195.221 34.3402 195.848 37.2223 196.324 40.1295C196.424 40.8061 195.822 41.583 195.522 42.3349C195.196 42.3098 194.87 42.2848 194.569 42.2346ZM191.336 34.2901C186.926 35.9191 185.773 37.899 187.602 40.2046C188.931 38.1496 190.133 36.2199 191.336 34.2901Z" fill="#1A4CE0"/>
<path d="M141.589 39.7535C140.386 38.751 139.058 37.8488 137.98 36.6959C136.727 35.3677 135.549 33.5382 137.228 32.0094C138.807 30.5559 140.937 30.4807 143.268 32.1097C141.564 32.5357 140.236 32.8866 138.356 33.3628C139.76 34.666 140.762 35.7436 141.915 36.5957C143.87 37.9991 144.672 39.8537 143.769 42.0341C142.993 43.8886 141.263 44.6405 139.283 43.9137C137.103 43.1368 135.223 41.9338 135.499 38.6257C137.454 39.4277 139.133 40.1544 140.812 40.8562C141.063 40.4802 141.313 40.1043 141.589 39.7535Z" fill="#1A4CE0"/>
<path d="M157.904 307.812C159.157 308.589 160.335 309.541 161.663 310.093C164.47 311.246 166.775 309.742 166.575 306.76C166.324 302.624 165.698 298.539 165.196 294.429C165.071 293.276 164.871 292.124 164.695 290.971C164.971 290.896 165.247 290.845 165.522 290.77C166.374 294.179 167.402 297.587 168.054 301.02C168.53 303.527 168.73 306.133 168.655 308.689C168.58 311.622 166.049 313.301 162.74 312.975C159.858 312.674 157.753 310.494 157.904 307.812Z" fill="#1A4CE0"/>
<path d="M272.787 229.746C272.787 233.229 270.782 235.234 267.273 235.259C263.99 235.284 261.66 232.979 261.66 229.696C261.66 226.638 263.89 223.631 266.221 223.555C269.579 223.405 272.787 226.438 272.787 229.746ZM265.695 223.606C264.717 226.011 263.489 227.841 263.364 229.721C263.289 230.773 264.918 232.553 266.096 232.853C267.123 233.129 269.028 232.076 269.679 231.049C270.181 230.272 269.554 228.518 269.028 227.415C268.476 226.337 267.374 225.51 265.695 223.606Z" fill="#1A4CE0"/>
<path d="M248.401 169.924C248.251 171.277 248.075 172.605 247.925 173.958C247.599 174.109 247.273 174.234 246.973 174.385C246.246 172.956 245.569 171.528 244.817 170.124C244.066 168.721 243.264 167.317 242.487 165.939C241.434 167.267 240.306 168.545 239.329 169.949C238.778 170.726 238.477 171.653 238.076 172.505C237.7 172.505 237.324 172.505 236.973 172.48C236.522 169.598 236.046 166.716 235.595 163.834C235.895 163.783 236.171 163.733 236.472 163.658C236.672 164.911 236.898 166.139 237.249 168.27C238.276 166.615 238.778 165.738 239.379 164.911C241.584 161.879 244.015 162.029 245.895 165.262C246.797 166.841 247.649 168.445 248.526 170.024C248.476 169.999 248.401 169.924 248.401 169.924Z" fill="#1A4CE0"/>
<path d="M306.896 104.287C305.693 101.982 304.866 100.252 303.888 98.5982C303.462 97.8965 302.51 96.8188 302.159 96.9441C301.357 97.2198 300.58 98.0469 300.179 98.8488C299.352 100.553 298.801 102.408 297.899 104.839C295.267 101.33 295.117 98.1722 295.493 94.8891C295.768 94.839 296.044 94.7889 296.32 94.7387C296.57 96.2174 296.846 97.7211 297.172 99.5756C297.924 98.0469 298.4 96.7186 299.177 95.5407C300.705 93.21 303.011 93.1348 304.841 95.24C307.071 97.7962 308.074 101.255 306.896 104.287Z" fill="#1A4CE0"/>
<path d="M288.977 290.67C289.478 293.803 289.954 296.885 290.43 299.968C290.054 300.143 289.678 300.294 289.327 300.469C288.55 299.191 287.774 297.938 286.947 296.535C286.821 296.66 286.546 296.986 286.27 297.286C284.741 299.066 282.987 299.968 280.831 298.414C279.152 297.186 279.328 294.68 281.132 292.675C283.212 290.395 285.593 289.167 288.977 290.67ZM281.358 295.983C281.659 296.234 281.934 296.51 282.235 296.76C285.092 296.309 286.345 294.605 285.618 290.996C283.939 292.951 282.661 294.48 281.358 295.983Z" fill="#1A4CE0"/>
<path d="M450.123 288.941C450.123 284.731 450.123 280.796 450.123 276.836C450.248 276.811 450.398 276.811 450.524 276.786C450.824 279.819 451.275 282.826 451.401 285.883C451.501 288.164 451.626 289.568 454.609 288.615C456.388 288.064 458.468 288.515 460.423 288.515C460.473 288.816 460.548 289.116 460.598 289.442C458.042 290.144 455.486 290.846 452.779 291.598C452.929 293.201 453.105 294.881 453.28 296.585C452.904 296.71 452.528 296.835 452.152 296.961C451.476 295.156 450.774 293.377 449.997 291.297C447.817 291.297 445.336 291.297 442.88 291.297C442.83 291.096 442.805 290.871 442.754 290.67C445.261 290.094 447.767 289.492 450.123 288.941Z" fill="#1A4CE0"/>
<path d="M426.465 98.7482C425.813 99.6254 425.262 100.578 424.51 101.305C422.029 103.66 419.422 103.109 419.046 99.7507C418.821 97.846 420.174 95.5654 421.302 93.7359C422.43 91.8814 424.384 92.132 426.665 92.8588C421.402 93.8863 419.447 96.6932 421.502 100.653C422.906 99.074 424.109 97.6205 425.437 96.2671C426.013 95.6907 426.815 95.3148 427.517 94.8637C427.893 95.4902 428.369 96.0666 428.645 96.7183C429.597 99.0239 430.474 101.355 431.377 103.685C431.026 103.886 430.65 104.086 430.299 104.287C429.196 102.683 428.094 101.104 426.465 98.7482Z" fill="#1A4CE0"/>
<path d="M247.198 290.295C247.524 292.174 247.824 294.054 248.251 296.56C249.303 294.706 249.98 293.352 250.782 292.124C252.586 289.367 255.694 289.468 256.997 292.425C258.05 294.831 259.177 297.387 257.022 301.046C255.844 297.964 254.917 295.533 253.664 292.224C251.809 295.182 250.255 297.663 248.727 300.119C248.426 300.119 248.125 300.119 247.799 300.119C247.273 296.911 246.747 293.678 246.246 290.47C246.571 290.42 246.897 290.37 247.198 290.295Z" fill="#1A4CE0"/>
<path d="M305.692 64.0129C305.968 65.2159 306.394 66.4188 306.444 67.6469C306.595 70.9801 306.895 71.1806 310.204 70.2533C311.657 69.8523 313.186 69.7019 315.391 69.326C313.386 73.3358 310.003 72.0828 307.021 73.386C307.021 75.2405 307.021 77.471 307.021 80.2278C303.688 78.0976 305.743 75.2907 304.49 72.8597C302.209 73.01 299.703 73.1855 297.197 73.3609C297.146 73.0852 297.121 72.8096 297.071 72.5339C298.249 72.3334 299.402 72.158 300.58 71.9575C301.933 71.7068 303.287 71.4312 304.991 71.1054C304.815 68.8498 304.64 66.6193 304.464 64.3889C304.865 64.2385 305.291 64.1382 305.692 64.0129Z" fill="#1A4CE0"/>
<path d="M282.084 98.0968C282.134 94.6884 284.766 92.3076 288.349 92.4078C291.106 92.483 293.262 94.4629 293.236 96.8688C293.186 99.7759 289.753 103.51 286.946 103.36C284.741 103.26 281.483 101.079 282.084 98.0968ZM289.577 93.8865C286.345 93.9366 283.262 96.2423 283.763 97.9214C284.089 99.0241 285.367 100.302 286.445 100.578C288.149 101.029 291.106 98.0968 290.906 96.2423C290.805 95.315 289.903 94.4378 289.577 93.8865Z" fill="#1A4CE0"/>
<path d="M391.303 81.0048C391.303 82.8593 391.203 84.7139 391.328 86.5685C391.453 88.423 391.779 90.2525 392.03 92.0068C393.809 92.4329 395.438 92.8088 397.067 93.2098C397.042 93.5356 397.017 93.8363 396.992 94.1621C395.488 94.3376 393.985 94.538 392.481 94.7135C392.631 97.0943 392.757 99.3499 392.907 101.605C392.456 101.681 392.005 101.731 391.579 101.806C391.203 100.377 390.376 98.9238 390.526 97.5705C390.877 94.3125 389.474 93.5356 386.591 93.8614C385.464 93.9867 384.261 93.6358 383.108 93.4855C383.133 93.1847 383.133 92.8589 383.158 92.5582C385.363 92.5582 387.594 92.5582 390.25 92.5582C390.25 88.423 390.25 84.6638 390.25 80.9045C390.551 80.9296 390.927 80.9797 391.303 81.0048Z" fill="#1A4CE0"/>
<path d="M438.368 91.0543C437.065 91.6808 435.762 92.3324 433.857 93.2597C435.687 94.6882 436.94 95.5904 438.068 96.643C438.995 97.4951 439.947 98.3973 440.549 99.4749C441.902 101.931 441.275 105.064 439.396 106.141C437.917 106.993 434.308 105.289 433.206 103.159C432.905 102.558 432.78 101.856 432.429 100.703C434.534 101.405 436.313 101.981 438.945 102.858C438.268 101.229 438.017 100.127 437.391 99.2995C436.639 98.2469 435.311 97.5703 434.785 96.4676C434.208 95.2646 433.607 93.385 434.158 92.4828C434.835 91.3801 436.664 90.9791 438.017 90.2773C438.143 90.528 438.268 90.7786 438.368 91.0543Z" fill="#1A4CE0"/>
<path d="M402.631 290.369C404.56 290.445 405.588 291.197 405.738 293.151C405.964 296.084 403.934 299.342 401.252 300.169C398.37 301.046 395.162 299.717 393.558 297.036C391.955 294.379 393.533 292.349 395.187 290.745C396.666 289.317 398.596 287.688 400.776 289.167C399.022 290.269 397.192 291.222 395.639 292.475C395.012 292.976 394.636 294.229 394.736 295.081C394.962 297.061 397.919 298.565 399.874 297.913C403.533 296.66 404.385 294.48 402.631 290.369Z" fill="#1A4CE0"/>
<path d="M469.821 45.1167C469.094 43.1118 468.467 41.0567 467.615 39.1019C467.314 38.4002 466.537 37.523 465.936 37.4729C465.309 37.4478 464.357 38.1997 464.031 38.8764C463.079 40.7309 462.377 42.7358 461.575 44.6656C461.149 44.6906 460.748 44.7157 460.322 44.7408C459.42 41.7334 458.543 38.7009 457.641 35.6935C457.941 35.5682 458.267 35.468 458.568 35.3427C459.119 36.8464 459.646 38.325 460.473 40.5555C461.149 39.2022 461.4 38.1496 462.051 37.523C463.179 36.4203 464.457 35.067 465.861 34.7663C467.891 34.3152 469.094 35.9943 469.57 37.8739C470.171 40.2046 471.75 42.4602 470.698 44.9914C470.397 45.0415 470.096 45.0916 469.821 45.1167Z" fill="#1A4CE0"/>
<path d="M446.84 35.6688C447.366 37.1224 447.792 38.6512 448.469 40.0296C449.095 41.2826 449.271 43.8139 451.376 42.7863C452.328 42.3352 452.428 39.9544 452.729 38.4256C452.854 37.749 452.479 36.9721 452.328 36.2453C452.579 36.0197 452.854 35.7942 453.105 35.5686C453.857 36.2202 455.06 36.7716 455.235 37.5234C455.586 39.2025 455.962 41.2325 455.336 42.7112C454.659 44.3402 452.955 46.5205 451.551 46.6208C450.198 46.7461 448.143 44.7913 447.341 43.2625C446.238 41.1323 446.013 38.5259 445.411 36.12C445.862 35.9947 446.338 35.8443 446.84 35.6688Z" fill="#1A4CE0"/>
<path d="M505.058 34.2147C502.727 35.4928 500.822 36.8963 502.552 39.628C503.755 41.5327 505.484 41.8835 507.414 40.6304C510.045 38.9012 510.02 37.9489 507.313 33.7886C510.471 33.2373 511.95 34.1144 512.225 36.6457C512.601 40.2545 509.895 43.6629 506.411 43.9636C503.805 44.1641 500.697 41.3823 500.522 38.6756C500.271 35.5429 501.499 34.2648 505.058 34.2147Z" fill="#1A4CE0"/>
<path d="M155.072 296.885C157.403 298.013 159.358 298.965 161.413 299.943C160.436 301.597 158.23 301.371 157.102 300.444C155.298 298.965 153.619 296.885 152.892 294.705C152.19 292.6 155.549 288.064 157.654 287.588C158.506 287.387 160.335 287.963 160.411 288.364C160.636 290.018 160.862 292.023 160.085 293.327C159.283 294.705 157.328 295.382 155.072 296.885ZM155.624 294.705C158.13 293.728 159.734 292.725 159.032 289.868C156.501 290.445 155.624 291.923 155.624 294.705Z" fill="#1A4CE0"/>
<path d="M271.909 32.9619C270.881 33.1123 269.829 33.2626 268.325 33.4631C268.952 34.24 269.328 34.7162 269.729 35.1673C270.932 36.5708 272.586 37.8239 273.237 39.4529C273.814 40.9064 273.613 42.8612 273.137 44.4151C272.936 45.0917 271.082 45.7934 270.155 45.618C268.15 45.192 266.621 43.9138 266.496 41.0067C268.1 41.4578 269.453 41.8337 271.483 42.3851C270.831 40.9064 270.405 39.7285 269.754 38.6509C269.353 37.9742 268.425 37.5983 268.125 36.9216C267.548 35.5934 267.247 34.1398 266.821 32.7614C268.475 32.4105 270.104 32.0597 271.759 31.7339C271.834 32.1349 271.859 32.5359 271.909 32.9619Z" fill="#1A4CE0"/>
<path d="M272.786 291.121C270.806 291.121 268.952 291.121 267.097 291.121C267.072 290.946 267.047 290.795 267.022 290.62C268.049 290.319 269.127 289.693 270.105 289.793C273.463 290.119 273.939 288.314 273.738 285.608C273.588 283.477 273.713 281.347 273.713 279.217C273.989 279.217 274.24 279.192 274.515 279.192C274.841 282.55 275.142 285.908 275.493 289.542C277.047 289.618 278.701 289.718 280.33 289.818C280.38 290.094 280.43 290.394 280.48 290.67C278.851 290.946 277.247 291.221 275.142 291.572C275.342 292.876 275.693 294.279 275.718 295.682C275.718 296.91 275.342 298.164 275.117 299.392C274.616 299.392 274.114 299.392 273.613 299.392C273.363 296.81 273.087 294.204 272.786 291.121Z" fill="#1A4CE0"/>
<path d="M303.437 261.548C303.838 258.842 304.164 256.636 304.49 254.456C304.74 254.431 304.966 254.406 305.216 254.381C305.693 256.461 306.194 258.566 306.72 260.797C308.474 260.596 310.078 260.421 311.682 260.245C311.783 260.521 311.883 260.797 311.983 261.097C310.329 261.899 308.675 262.726 307.121 263.478C306.971 265.032 306.795 266.786 306.62 268.516C306.119 268.566 305.642 268.591 305.141 268.641C304.54 266.887 303.938 265.132 303.287 263.228C301.633 262.977 299.703 262.701 297.748 262.426C297.773 262.15 297.798 261.874 297.823 261.599C299.628 261.548 301.457 261.548 303.437 261.548Z" fill="#1A4CE0"/>
<path d="M377.92 43.5882C376.867 42.4354 375.639 41.4078 374.812 40.1046C374.036 38.8766 373.058 37.1724 373.359 35.9945C373.635 34.942 375.539 33.6889 376.717 33.6638C378.02 33.6638 379.349 34.967 380.351 36.1449C378.622 36.1449 376.893 36.1449 375.188 36.1449C375.088 36.4206 374.988 36.7213 374.888 36.997C375.965 38.1248 377.168 39.1272 378.095 40.3803C378.872 41.458 379.674 42.7361 379.825 43.9892C380.125 46.6708 378.371 47.7735 376.091 46.37C374.637 45.4678 372.682 44.6408 373.309 41.9592C374.762 42.8113 376.04 43.5631 377.319 44.315C377.494 44.0644 377.695 43.8138 377.92 43.5882Z" fill="#1A4CE0"/>
<path d="M333.712 290.971C332.559 291.121 331.682 291.221 330.053 291.422C331.055 293.001 331.782 294.279 332.609 295.482C333.486 296.785 334.815 297.913 335.266 299.341C335.642 300.519 335.491 302.424 334.765 303.226C334.213 303.827 332.233 303.401 331.055 302.975C330.128 302.624 329.451 301.572 328.023 300.193C330.404 300.795 331.958 301.196 333.511 301.597C333.712 301.446 333.887 301.271 334.088 301.121C333.286 300.018 332.509 298.915 331.707 297.813C330.554 296.234 329.025 294.78 328.399 293.001C328.048 292.048 328.9 290.018 329.827 289.417C330.855 288.765 332.885 288.339 333.712 290.971Z" fill="#1A4CE0"/>
<path d="M405.513 94.2374C406.841 96.5932 408.169 98.949 409.522 101.355C412.43 98.3977 410.274 92.9844 414.51 91.1047C414.986 91.2802 415.437 91.4807 415.913 91.6561C414.635 95.6158 413.532 99.6507 411.953 103.51C411.277 105.164 409.773 105.064 408.921 103.26C407.568 100.352 406.239 97.4203 404.911 94.5131C405.137 94.4129 405.312 94.3126 405.513 94.2374Z" fill="#1A4CE0"/>
<path d="M387.92 35.2424C391.077 35.1923 392.957 37.0469 392.957 40.1796C392.957 43.0867 391.303 45.1418 388.972 45.1418C386.341 45.1418 383.834 42.7108 383.784 40.1044C383.709 36.7963 384.987 35.2926 387.92 35.2424ZM391.353 39.3525C390 38.0243 389.097 37.097 388.17 36.1697C387.243 37.1972 385.438 38.4002 385.589 39.2272C385.814 40.4051 387.468 41.3324 388.496 42.3599C389.273 41.558 390.05 40.7309 391.353 39.3525Z" fill="#1A4CE0"/>
<path d="M212.263 288.289C210.083 288.841 208.604 289.217 206.324 289.793C208.88 291.472 210.835 292.274 212.038 293.728C213.191 295.081 213.792 297.061 214.093 298.865C214.168 299.341 212.213 300.745 211.211 300.695C209.03 300.62 207.05 299.642 206.098 296.71C208.304 297.236 210.108 297.662 211.912 298.088C212.138 297.813 212.363 297.537 212.589 297.261C211.311 296.033 210.158 294.58 208.679 293.678C206.9 292.6 204.72 291.648 205.948 289.267C207.226 286.861 209.632 287.913 212.263 288.289Z" fill="#1A4CE0"/>
<path d="M430.901 285.984C431.577 286.209 432.154 286.209 432.454 286.51C434.685 288.59 434.509 295.432 432.229 297.562C430.65 299.016 428.144 298.815 426.891 296.61C425.588 294.354 424.961 291.698 424.41 289.066C425.487 291.923 426.214 294.931 429.723 296.134C433.131 293.252 430.124 289.567 430.901 285.984Z" fill="#1A4CE0"/>
<path d="M261.71 290.043C263.239 291.622 264.492 292.85 265.62 294.179C266.096 294.755 266.372 295.557 266.597 296.309C267.224 298.439 265.895 301.446 264.266 301.371C261.886 301.271 261.033 299.592 260.908 297.236C261.936 297.687 262.788 298.063 263.74 298.489C264.692 295.983 263.389 294.63 261.685 293.226C260.833 292.499 259.755 290.62 260.081 290.144C261.033 288.765 262.612 287.813 264.016 286.76C264.116 286.685 264.717 287.287 265.093 287.562C263.89 288.465 262.863 289.191 261.71 290.043Z" fill="#1A4CE0"/>
<path d="M375.414 103.235C372.807 99.1247 372.832 96.6185 375.965 94.4381C377.168 93.6111 378.922 93.586 380.426 93.1851C380.501 93.561 380.601 93.9369 380.677 94.3128C380.175 94.388 379.649 94.4131 379.173 94.5384C376.466 95.2401 375.013 97.4957 375.714 99.8264C376.316 101.806 378.396 102.408 381.203 101.455C382.406 101.054 383.634 100.729 384.862 100.353C383.985 104.638 379.925 105.791 375.288 103.135C375.313 103.135 375.414 103.235 375.414 103.235Z" fill="#1A4CE0"/>
<path d="M315.316 134.186C314.238 134.386 313.136 134.762 312.058 134.762C305.567 134.762 306.544 134.712 306.469 140.526C306.469 141.479 306.294 142.406 306.143 143.985C303.186 141.303 305.116 138.221 304.038 135.539C302.735 135.464 301.307 135.389 299.853 135.313C306.745 136.767 303.437 130.777 305.417 128.221C305.567 129.148 305.793 130.05 305.868 130.978C305.943 132.055 305.893 133.133 305.893 134.286C309.201 133.86 312.183 133.484 315.166 133.083C315.191 133.459 315.241 133.835 315.316 134.186Z" fill="#1A4CE0"/>
<path d="M499.87 35.1417C497.163 37.3973 492.752 38.1241 493.153 43.1113C492.702 43.0111 492.276 42.9108 491.825 42.8106C491.198 39.4273 490.597 36.0439 489.97 32.6857C490.221 32.4601 490.446 32.2346 490.697 32.009C491.223 35.242 492.677 35.3172 494.957 34.1894C496.236 33.5629 497.915 33.8385 499.418 33.7132C499.569 34.1894 499.719 34.6656 499.87 35.1417Z" fill="#1A4CE0"/>
<path d="M397.217 44.7907C393.859 37.598 397.869 30.0043 396.14 22.7114C396.566 22.6864 396.992 22.6613 397.418 22.6362C397.844 29.9542 398.295 37.2471 398.721 44.5651C398.22 44.6403 397.718 44.7155 397.217 44.7907Z" fill="#1A4CE0"/>
<path d="M340.227 161.954C340.953 163.834 341.455 166.089 342.633 167.894C343.986 169.974 345.64 169.623 346.467 167.217C347.068 165.438 347.219 163.483 347.62 161.478C350.226 163.307 350.427 165.412 348.698 168.896C347.695 170.926 346.267 172.129 343.936 171.277C340.928 170.199 339.274 165.663 340.227 161.954Z" fill="#1A4CE0"/>
<path d="M346.092 233.229C347.746 233.054 349.375 232.903 351.957 232.653C350.353 230.598 349.049 228.843 347.671 227.189C346.618 225.961 345.39 224.859 346.643 223.129C347.897 221.4 349.5 220.573 351.681 221.45C350.202 222.252 348.824 222.979 347.42 223.706C347.195 224.132 346.969 224.558 346.719 224.984C347.796 225.61 348.999 226.112 349.901 226.939C350.979 227.941 351.831 229.169 352.658 230.397C353.736 232.001 353.711 233.881 352.082 234.858C351.104 235.46 349.4 235.084 348.097 234.783C347.32 234.607 346.719 233.73 346.042 233.154C346.067 233.179 346.092 233.229 346.092 233.229Z" fill="#1A4CE0"/>
<path d="M243.915 41.4072C244.065 43.337 241.735 43.2116 240.081 43.0863C236.071 42.8107 233.565 40.2293 234.016 37.2971C234.467 34.2897 236.547 33.0868 239.504 33.7133C238.502 34.8912 237.349 36.2445 236.196 37.6229C238.502 38.7507 240.807 39.9035 243.915 41.4072Z" fill="#1A4CE0"/>
<path d="M233.139 298.364C231.009 301.02 228.754 301.02 226.072 298.664C223.09 296.033 222.463 291.522 224.719 289.166C226.348 287.462 228.603 287.487 230.483 289.342C228.052 289.417 225.42 289.116 225.295 292.574C225.145 295.908 227.551 297.737 233.139 298.364Z" fill="#1A4CE0"/>
<path d="M349.6 34.8161C349.976 35.8686 350.352 36.9212 350.803 38.1493C352.683 35.8686 354.638 33.7635 357.996 34.8411C355.515 38.0239 353.084 41.1566 350.402 44.5901C348.899 41.6328 348.748 38.3748 349.6 34.8161Z" fill="#1A4CE0"/>
<path d="M444.233 294.63C443.205 297.361 441.677 298.865 438.945 298.138C435.837 297.311 434.208 294.554 434.96 291.146C435.486 288.815 436.689 286.886 440.173 287.462C439.196 288.063 438.168 288.339 437.993 288.891C437.516 290.369 437.015 292.023 437.291 293.452C437.391 294.028 439.471 294.379 440.674 294.58C441.727 294.78 442.855 294.63 444.233 294.63Z" fill="#1A4CE0"/>
<path d="M426.565 37.7487C429.046 36.4706 431.201 35.3678 433.382 34.2651C433.607 34.5158 433.858 34.7664 434.083 35.042C433.783 35.7688 433.632 36.9969 433.181 37.1222C428.645 38.3502 427.517 41.8588 427.166 45.9438C425.061 44.9163 424.56 41.2072 425.688 34.7664C426.089 36.0696 426.339 36.8966 426.565 37.7487Z" fill="#1A4CE0"/>
<path d="M298.099 159.949C297.673 160.174 297.172 160.324 296.796 160.6C296.42 160.876 296.119 161.302 295.643 161.803C296.896 162.755 298.074 163.658 299.252 164.535C299.653 164.836 300.079 165.061 300.455 165.387C302.51 167.241 303.061 170.098 301.482 171.377C299.026 173.331 297.723 171.076 295.468 169.547C297.197 169.422 298.224 169.347 299.929 169.196C299.202 168.018 298.801 167.141 298.174 166.414C297.598 165.763 296.62 165.412 296.144 164.71C295.443 163.658 294.39 162.179 294.716 161.327C295.092 160.35 296.771 159.873 297.899 159.172C297.949 159.472 298.024 159.723 298.099 159.949Z" fill="#1A4CE0"/>
<path d="M360.502 298.415C360.051 297.738 359.198 297.061 359.198 296.359C359.098 289.643 359.148 282.926 359.499 276.21C360.426 283.528 361.479 290.821 361.454 298.189C361.128 298.289 360.827 298.364 360.502 298.415Z" fill="#1A4CE0"/>
<path d="M275.995 234.858C273.464 227.616 274.817 219.821 272.887 212.478C273.238 212.428 273.614 212.353 273.965 212.303C275.243 219.746 276.496 227.19 277.774 234.608C277.198 234.708 276.596 234.783 275.995 234.858Z" fill="#1A4CE0"/>
<path d="M244.692 232.553C242.211 236.362 240.708 236.788 237.249 234.833C234.116 233.079 232.964 229.545 234.718 226.388C235.695 224.608 237.124 223.155 239.981 224.057C236.322 225.661 234.918 227.841 235.645 230.297C236.447 233.079 238.828 233.705 244.692 232.553Z" fill="#1A4CE0"/>
<path d="M400.376 34.5908C401.629 36.4203 402.857 38.2498 404.26 40.2798C405.613 37.6984 406.741 35.5181 407.869 33.3628C409.473 37.0218 407.719 39.7535 406.24 42.4351C406.014 42.8361 404.009 42.8611 403.734 42.4852C402.18 40.0793 400.902 37.498 399.523 34.9667C399.799 34.8414 400.075 34.7161 400.376 34.5908Z" fill="#1A4CE0"/>
<path d="M532.625 22.8621C533.352 29.8793 534.956 36.7963 534.179 43.7885C533.728 43.8637 533.277 43.9639 532.826 44.0391C532.475 42.8111 531.773 41.558 531.798 40.33C531.973 34.5157 532.324 28.7014 532.625 22.8621Z" fill="#1A4CE0"/>
<path d="M184.018 289.468C184.319 290.696 184.62 291.949 185.046 293.728C187.026 290.821 188.129 287.688 192.214 288.189C189.833 291.723 187.728 294.856 185.622 297.989C185.322 298.039 185.021 298.089 184.72 298.139C184.219 295.257 183.693 292.375 183.191 289.493C183.467 289.493 183.743 289.493 184.018 289.468Z" fill="#1A4CE0"/>
<path d="M385.238 298.44C384.586 295.407 383.935 292.375 383.283 289.317C383.484 289.217 383.709 289.117 383.91 289.016C384.511 290.219 385.088 291.422 385.689 292.575C386.742 290.996 387.895 289.242 389.047 287.513C389.398 287.713 389.749 287.914 390.1 288.114C389.649 291.848 388.371 295.282 386.341 298.44C385.99 298.465 385.614 298.44 385.238 298.44Z" fill="#1A4CE0"/>
<path d="M394.335 174.409C393.833 173.457 392.931 172.53 392.881 171.552C392.555 165.888 392.405 160.224 392.229 154.585C392.229 154.235 392.33 153.884 392.781 153.508C393.282 157.016 393.808 160.525 394.285 164.034C394.736 167.392 395.162 170.775 395.613 174.134C395.187 174.209 394.761 174.309 394.335 174.409Z" fill="#1A4CE0"/>
<path d="M321.732 43.2373C319.827 41.7086 319.251 39.6786 319.627 35.1174C320.203 36.0948 320.604 36.7213 320.955 37.3228C323.261 36.2702 325.466 35.2427 327.646 34.2402C327.897 34.6663 328.173 35.0923 328.423 35.5434C327.07 36.5459 325.466 37.3729 324.388 38.626C323.261 39.9042 322.584 41.6585 321.732 43.2373Z" fill="#1A4CE0"/>
<path d="M410.375 233.78C410.124 232.652 409.698 231.524 409.673 230.397C409.598 224.257 409.648 218.091 409.648 211.951C410.124 211.951 410.575 211.926 411.052 211.926C411.052 219.119 411.052 226.312 411.052 233.504C410.826 233.579 410.601 233.68 410.375 233.78Z" fill="#1A4CE0"/>
<path d="M337.144 170.55C334.337 164.635 335.766 158.069 334.262 151.954C334.638 151.904 334.989 151.854 335.365 151.779C336.367 157.969 337.395 164.159 338.397 170.349C337.971 170.424 337.57 170.475 337.144 170.55Z" fill="#1A4CE0"/>
<path d="M130.913 24.1152C132.442 24.4912 134.121 24.5914 135.349 25.3934C135.75 25.644 135.048 27.8745 134.522 29.0524C134.321 29.4784 132.592 29.7541 132.417 29.4784C131.464 28.1251 130.788 26.5713 130.011 25.0926C130.311 24.7668 130.612 24.441 130.913 24.1152Z" fill="#1A4CE0"/>
<path d="M130.362 31.8594C132.217 33.9144 133.094 40.4054 131.791 42.6609C129.71 41.3076 129.184 37.1724 130.362 31.8594Z" fill="#1A4CE0"/>
<path d="M143.369 27.1475C145.273 26.2203 146.401 25.4434 147.654 25.1927C148.08 25.0925 149.383 26.6964 149.258 26.8969C148.506 28.1249 147.479 29.1525 146.551 30.2802C145.699 29.4281 144.872 28.6262 143.369 27.1475Z" fill="#1A4CE0"/>
<path d="M250.958 26.1448C251.409 28.7011 250.683 30.4053 248.527 30.2299C247.65 30.1547 246.096 27.9743 246.322 27.1222C247.099 24.0647 249.254 26.6711 250.958 26.1448Z" fill="#1A4CE0"/>
<path d="M231.36 23.9897C231.034 25.4684 230.859 26.2453 230.683 27.0473C230.909 27.1976 231.134 27.348 231.36 27.4984C231.861 26.4708 232.363 25.4684 232.864 24.4409C233.265 24.7165 233.666 24.9671 234.067 25.2428C234.618 26.7966 234.017 28.175 232.388 28.9018C231.661 29.2276 230.107 29.0021 229.706 28.4758C228.428 26.7465 229.33 25.3932 231.36 23.9897Z" fill="#1A4CE0"/>
<path d="M309.176 236.111C306.043 233.405 308.248 229.395 306.494 226.362C306.82 226.287 307.171 226.187 307.497 226.112C308.424 229.32 309.376 232.528 310.303 235.735C309.928 235.861 309.552 235.986 309.176 236.111Z" fill="#1A4CE0"/>
<path d="M230.984 33.5129C231.285 36.2948 231.585 39.1017 231.886 41.8835C227.425 39.653 230.458 36.4201 229.806 33.6884C230.207 33.6382 230.583 33.5881 230.984 33.5129Z" fill="#1A4CE0"/>
<path d="M403.132 86.7188C403.007 87.5709 403.183 88.8491 402.631 89.4004C402.055 89.9518 400.351 90.2776 399.9 89.8515C398.897 88.9493 398.321 87.5459 397.794 86.2677C397.744 86.1424 399.073 85.4156 399.724 85.0146C399.799 86.2928 399.849 87.0948 399.874 87.8967C400.727 87.596 401.604 87.2702 403.132 86.7188Z" fill="#1A4CE0"/>
<path d="M402.104 102.834C400.274 100.528 399.999 96.7686 401.753 93.686C402.229 96.9942 402.655 99.9013 403.056 102.783C402.755 102.783 402.43 102.808 402.104 102.834Z" fill="#1A4CE0"/>
<path d="M279.353 94.0869C280.155 97.0191 280.957 99.9764 281.784 102.909C281.483 102.984 281.207 103.084 280.907 103.159C278.526 100.703 279.027 97.395 278.375 94.4127C278.701 94.3125 279.027 94.2122 279.353 94.0869Z" fill="#1A4CE0"/>
<path d="M277.272 86.9697C277.548 87.9471 277.749 88.6489 278.175 90.1024C279.052 88.7491 279.553 87.9471 280.079 87.1702C280.305 87.1201 280.505 87.095 280.731 87.0449C280.681 88.0223 280.982 89.2754 280.505 89.927C279.979 90.6037 278.375 91.2553 277.799 90.9295C276.395 90.1525 275.393 88.7742 277.272 86.9697Z" fill="#1A4CE0"/>
<path d="M247.649 42.3601C247.474 39.9292 247.298 37.4982 247.123 35.0421C247.424 35.0171 247.725 34.967 248.05 34.9419C247.499 37.5483 251.283 39.5031 249.003 42.3601C248.526 42.3351 248.1 42.3351 247.649 42.3601Z" fill="#1A4CE0"/>
<path d="M233.84 160.35C233.314 161.603 232.788 162.881 232.262 164.134C231.535 163.758 230.783 163.382 230.056 163.006C230.783 161.829 231.51 160.676 232.211 159.498C232.763 159.799 233.314 160.074 233.84 160.35Z" fill="#1A4CE0"/>
<path d="M229.856 165.137C230.107 168.294 230.357 171.452 230.583 174.61C230.257 174.635 229.931 174.66 229.606 174.685C228.478 171.603 229.606 168.345 229.054 165.237C229.33 165.162 229.606 165.162 229.856 165.137Z" fill="#1A4CE0"/>
<path d="M146.627 34.5405C147.228 37.0968 147.855 39.6531 148.456 42.1843C148.105 42.2595 147.755 42.3347 147.404 42.3848C144.973 40.1794 146.827 37.172 146.627 34.5405Z" fill="#1A4CE0"/>
<path d="M165.949 283.477C165.447 284.555 165.021 285.658 164.37 286.635C164.219 286.835 162.816 286.61 162.665 286.309C162.214 285.232 162.064 284.003 162.315 282.725C162.515 283.628 162.69 284.53 162.891 285.457C163.142 285.457 163.392 285.432 163.643 285.432C164.019 284.63 164.395 283.853 164.771 283.051C165.147 283.176 165.548 283.327 165.949 283.477Z" fill="#1A4CE0"/>
<path d="M158.331 29.6783C156.1 26.4203 158.606 25.3677 159.308 23.7888C159.659 23.8891 159.985 23.9893 160.336 24.1146C159.734 25.7436 159.158 27.3726 158.331 29.6783Z" fill="#1A4CE0"/>
<path d="M307.797 221.375C309.151 219.846 310.504 218.317 311.832 216.813C312.058 217.014 312.283 217.189 312.509 217.39C311.256 218.994 309.978 220.598 308.725 222.227C308.449 221.926 308.123 221.65 307.797 221.375Z" fill="#1A4CE0"/>
</g>
<defs>
<clipPath id="clip0_21_1401">
<rect width="552.809" height="295" fill="white" transform="translate(24 18)"/>
</clipPath>
</defs>
</svg>
