<svg width="600" height="336" viewBox="0 0 600 336" fill="none" xmlns="http://www.w3.org/2000/svg">
<path d="M87.5 106.473C87.5 104.415 89.2663 102.802 91.3155 102.987L197.316 112.582C199.119 112.745 200.5 114.257 200.5 116.068V163.05C200.5 165.102 198.743 166.714 196.699 166.537L90.6994 157.4C88.8896 157.244 87.5 155.729 87.5 153.912V106.473Z" stroke="#1A4CE0" stroke-width="3"/>
<path d="M285.5 188.477C285.5 186.419 287.268 184.805 289.318 184.992L405.318 195.579C407.12 195.743 408.5 197.255 408.5 199.064V246.044C408.5 248.098 406.741 249.71 404.696 249.531L288.696 239.404C286.887 239.246 285.5 237.733 285.5 235.917V188.477Z" stroke="#1A4CE0" stroke-width="3"/>
<path d="M86.5 170.977C86.5 168.919 88.268 167.305 90.3181 167.492L206.318 178.079C208.12 178.243 209.5 179.755 209.5 181.564V228.544C209.5 230.598 207.741 232.21 205.696 232.031L89.6956 221.904C87.8875 221.746 86.5 220.233 86.5 218.417V170.977Z" stroke="#1A4CE0" stroke-width="3"/>
<path d="M222.5 182.994C222.5 180.931 224.275 179.316 226.329 179.509L269.329 183.566C271.126 183.736 272.5 185.245 272.5 187.051V233.967C272.5 236.04 270.709 237.658 268.647 237.449L225.647 233.087C223.86 232.906 222.5 231.401 222.5 229.605V182.994Z" stroke="#1A4CE0" stroke-width="3"/>
<path d="M87.5 236.994C87.5 234.931 89.275 233.316 91.3287 233.509L134.329 237.566C136.126 237.736 137.5 239.245 137.5 241.051V287.967C137.5 290.04 135.709 291.658 133.647 291.449L90.6468 287.087C88.8597 286.906 87.5 285.401 87.5 283.605V236.994Z" stroke="#1A4CE0" stroke-width="3"/>
<path d="M291.5 254.994C291.5 252.931 293.275 251.316 295.329 251.509L338.329 255.566C340.126 255.736 341.5 257.245 341.5 259.051V305.967C341.5 308.04 339.709 309.658 337.647 309.449L294.647 305.087C292.86 304.906 291.5 303.401 291.5 301.605V254.994Z" stroke="#1A4CE0" stroke-width="3"/>
<path d="M353.5 259.477C353.5 257.419 355.268 255.805 357.318 255.992L473.318 266.579C475.12 266.743 476.5 268.255 476.5 270.064V317.044C476.5 319.098 474.741 320.71 472.696 320.531L356.696 310.404C354.887 310.246 353.5 308.733 353.5 306.917V259.477Z" stroke="#1A4CE0" stroke-width="3"/>
<path d="M154.5 242.977C154.5 240.919 156.268 239.305 158.318 239.492L274.318 250.079C276.12 250.243 277.5 251.755 277.5 253.564V300.544C277.5 302.598 275.741 304.21 273.696 304.031L157.696 293.904C155.887 293.746 154.5 292.233 154.5 290.417V242.977Z" stroke="#1A4CE0" stroke-width="3"/>
<path d="M483 263L506 254" stroke="#1A4CE0" stroke-width="3" stroke-linecap="round"/>
<path d="M415 192.5L438 183.5" stroke="#1A4CE0" stroke-width="3" stroke-linecap="round"/>
<path d="M347 121.5L370 112.5" stroke="#1A4CE0" stroke-width="3" stroke-linecap="round"/>
<path d="M279 50.5L300.5 42.5" stroke="#1A4CE0" stroke-width="3" stroke-linecap="round"/>
<path d="M170.5 35.5C170.167 31.8333 168 24.4 162 24C156.655 23.6437 138.481 22.2028 127.272 21.3033C124.804 21.1054 122.338 21.6152 120.15 22.7734L89.5 39" stroke="#1A4CE0" stroke-width="3" stroke-linecap="round"/>
<path d="M137 39L155.5 30" stroke="#1A4CE0" stroke-width="3" stroke-linecap="round"/>
<path d="M482 245L514.589 247.918C515.105 247.965 515.5 248.397 515.5 248.914V299.378C515.5 299.759 515.284 300.107 514.943 300.275L476 319.5" stroke="#1A4CE0" stroke-width="3" stroke-linecap="round"/>
<path d="M441 232.5C455 231.333 484.3 235.428 483.5 242.228C482.5 250.728 449.625 238.427 447.5 248.728C446 256 420.833 249.167 408.5 248.5" stroke="#BBBBBB" stroke-width="3" stroke-linecap="round"/>
<path d="M415.5 173.5L446.609 176.903C447.116 176.958 447.5 177.386 447.5 177.897V228.378C447.5 228.759 447.284 229.107 446.943 229.275L408 248.5" stroke="#1A4CE0" stroke-width="3" stroke-linecap="round"/>
<path d="M373.5 162.198C387.5 161.031 416.8 165.125 416 171.925C415 180.425 382.125 168.124 380 178.425C378.5 185.698 353.333 178.864 341 178.198" stroke="#BBBBBB" stroke-width="3" stroke-linecap="round"/>
<path d="M340 178L378.943 158.775C379.284 158.607 379.5 158.259 379.5 157.878V107.427C379.5 106.904 379.097 106.469 378.576 106.43L346.5 104" stroke="#1A4CE0" stroke-width="3" stroke-linecap="round"/>
<path d="M304.5 92.1977C318.5 91.031 347.8 95.1253 347 101.925C346 110.425 313.125 98.1242 311 108.425C309.5 115.698 284.333 108.864 272 108.198" stroke="#BBBBBB" stroke-width="3" stroke-linecap="round"/>
<path d="M87.5 41.9907C87.5 39.9286 89.2737 38.3135 91.3267 38.506L129.327 42.0685C131.125 42.2371 132.5 43.7467 132.5 45.5532V92.066C132.5 94.1136 130.75 95.724 128.709 95.5539L90.7093 92.3872C88.8953 92.2361 87.5 90.7196 87.5 88.8993V41.9907Z" stroke="#1A4CE0" stroke-width="3"/>
<path d="M89 92C89.8333 94 90.5 100.4 88.5 104" stroke="#1A4CE0" stroke-width="3" stroke-linecap="round"/>
<path d="M88.5 156.5C89.3333 158.5 90 164.4 88 168" stroke="#1A4CE0" stroke-width="3" stroke-linecap="round"/>
<path d="M88.5 221.5C89.3333 223.5 90.5 230.9 88.5 234.5" stroke="#1A4CE0" stroke-width="3" stroke-linecap="round"/>
<path d="M137 290.5C141 289.333 151.8 289.7 155 292.5" stroke="#1A4CE0" stroke-width="3" stroke-linecap="round"/>
<path d="M277 303.123C281 301.956 289.8 301.7 293 304.5" stroke="#1A4CE0" stroke-width="3" stroke-linecap="round"/>
<path d="M341 308.144C345 306.978 351 307.685 355.5 310" stroke="#1A4CE0" stroke-width="3" stroke-linecap="round"/>
<path d="M217.5 117.977C217.5 115.919 219.268 114.305 221.318 114.492L337.318 125.079C339.12 125.243 340.5 126.755 340.5 128.564V175.544C340.5 177.598 338.741 179.21 336.696 179.031L220.696 168.904C218.887 168.746 217.5 167.233 217.5 165.417V117.977Z" stroke="#1A4CE0" stroke-width="3"/>
<path d="M149 44.5C149.795 44.1024 179.796 31.6537 191.29 27.0835C191.434 27.0263 191.58 27.0068 191.734 27.0198L309.084 36.9227C309.602 36.9664 310 37.3995 310 37.9192V88.3748C310 88.7573 309.782 89.1063 309.438 89.2738L271 108" stroke="#1A4CE0" stroke-width="3" stroke-linecap="round"/>
<path d="M147.5 47.3848C147.5 45.3498 149.23 43.7438 151.259 43.8944L269.259 52.6523C271.087 52.7879 272.5 54.3102 272.5 56.1427V104.966C272.5 107.039 270.709 108.658 268.646 108.449L150.646 96.4642C148.859 96.2827 147.5 94.7782 147.5 92.9821V47.3848Z" stroke="#1A4CE0" stroke-width="3"/>
<path d="M197 80.5941C197 87.0649 202.901 92.3105 210.181 92.3105C216.4 92.3105 221.613 88.4822 223 83.3322" stroke="#BBBBBB" stroke-width="2" stroke-linecap="round"/>
<circle cx="204.5" cy="77" r="1.5" fill="#BBBBBB"/>
<circle cx="216.5" cy="78" r="1.5" fill="#BBBBBB"/>
<path d="M266 151.594C266 158.065 271.901 163.31 279.181 163.31C285.4 163.31 290.613 159.482 292 154.332" stroke="#BBBBBB" stroke-width="2" stroke-linecap="round"/>
<circle cx="273.5" cy="148" r="1.5" fill="#BBBBBB"/>
<circle cx="285.5" cy="149" r="1.5" fill="#BBBBBB"/>
<path d="M334 222.594C334 229.065 339.901 234.311 347.181 234.311C353.4 234.311 358.613 230.482 360 225.332" stroke="#BBBBBB" stroke-width="2" stroke-linecap="round"/>
<circle cx="341.5" cy="219" r="1.5" fill="#BBBBBB"/>
<circle cx="353.5" cy="220" r="1.5" fill="#BBBBBB"/>
<path d="M135 204.594C135 211.065 140.901 216.311 148.181 216.311C154.4 216.311 159.613 212.482 161 207.332" stroke="#BBBBBB" stroke-width="2" stroke-linecap="round"/>
<circle cx="142.5" cy="201" r="1.5" fill="#BBBBBB"/>
<circle cx="154.5" cy="202" r="1.5" fill="#BBBBBB"/>
<path d="M203 276.594C203 283.065 208.901 288.311 216.181 288.311C222.4 288.311 227.613 284.482 229 279.332" stroke="#BBBBBB" stroke-width="2" stroke-linecap="round"/>
<circle cx="210.5" cy="273" r="1.5" fill="#BBBBBB"/>
<circle cx="222.5" cy="274" r="1.5" fill="#BBBBBB"/>
<path d="M402 294.594C402 301.065 407.901 306.311 415.181 306.311C421.4 306.311 426.613 302.482 428 297.332" stroke="#BBBBBB" stroke-width="2" stroke-linecap="round"/>
<circle cx="409.5" cy="291" r="1.5" fill="#BBBBBB"/>
<circle cx="421.5" cy="292" r="1.5" fill="#BBBBBB"/>
<path d="M133 139.594C133 146.065 138.901 151.31 146.181 151.31C152.4 151.31 157.613 147.482 159 142.332" stroke="#BBBBBB" stroke-width="2" stroke-linecap="round"/>
<circle cx="140.5" cy="136" r="1.5" fill="#BBBBBB"/>
<circle cx="152.5" cy="137" r="1.5" fill="#BBBBBB"/>
</svg>
