<svg width="600" height="184" viewBox="0 0 600 184" fill="none" xmlns="http://www.w3.org/2000/svg">
<path d="M44.1953 85.1624C40.79 84.1987 33.7482 81.8857 32.823 80.3437M32.823 80.3437L32.9569 80.1762C33.3555 79.678 33.4889 79.0113 33.2657 78.4136C31.9997 75.0226 30.0781 73.2683 28.7357 72.5333C28.184 72.2312 27.5286 72.3973 27.0537 72.8097L10.6919 87.0186C10.026 87.5969 9.9352 88.5977 10.4862 89.2864L10.6073 89.4379C11.0714 90.0179 11.9019 90.1469 12.52 89.7348V89.7348C15.5782 87.696 19.1714 86.6081 22.8469 86.6081H26.885C27.4706 86.6081 28.0244 86.3419 28.3901 85.8847L32.823 80.3437Z" stroke="#1A4CE0" stroke-width="2.89128" stroke-linecap="round"/>
<path d="M91.5673 148.092C91.2615 145.907 92.1211 142.598 92.8946 140.355C93.1516 139.61 93.8641 139.133 94.6523 139.133H103.467C104.074 139.133 104.633 139.431 105.084 139.837C107.689 142.183 113.732 143.633 117.545 144.241C118.349 144.37 119.005 144.965 119.182 145.76L119.339 146.466C119.603 147.656 118.71 148.79 117.49 148.811L93.1159 149.232C92.3739 149.244 91.6701 148.827 91.5673 148.092Z" stroke="#1A4CE0" stroke-width="2.89128" stroke-linecap="round"/>
<path d="M37.9306 91.9086C35.1999 89.8205 29.4495 85.7406 28.293 86.1261" stroke="#1A4CE0" stroke-width="2.89128" stroke-linecap="round"/>
<path d="M101.539 34.0832C101.539 28.2283 106.501 23 112.622 23C117.197 23 121.049 25.4809 122.742 29.2644M130.452 27.3369L101.539 34.5651" stroke="#1A4CE0" stroke-width="2.89128" stroke-linecap="round"/>
<path d="M121.823 29.2644C123.589 31.1581 124.669 33.6992 124.669 36.4926C124.669 42.3476 119.923 47.0939 114.068 47.0939C108.213 47.0939 103.467 42.3476 103.467 36.4926C103.467 35.6638 103.562 34.8572 103.742 34.0832" stroke="#1A4CE0" stroke-width="2.89128"/>
<path d="M83.228 48.0579C83.5492 46.6122 85.2519 44.1064 85.6374 45.6485C85.956 46.923 86.0771 52.6746 86.1095 56.8084C86.1215 58.3305 85.2127 59.406 84.3265 58.1684C83.8792 57.5436 83.3524 56.6198 82.7461 55.286" stroke="#1A4CE0" stroke-width="2.89128" stroke-linecap="round"/>
<path d="M106.839 44.2026C106.679 45.1664 106.068 47.0939 104.912 47.0939C103.755 47.0939 91.5799 45.8089 85.6367 45.1664" stroke="#1A4CE0" stroke-width="2.89128" stroke-linecap="round"/>
<path d="M85.1547 58.6591V58.6591C87.1963 58.5133 88.1961 61.0963 86.5884 62.363L77.8789 69.225C77.0467 69.8806 77.2405 71.1877 78.2319 71.5611C86.3988 74.6367 100.837 79.6425 101.539 80.3437C102.038 80.8426 103.957 77.9837 106.094 75.043M111.658 69.2604C110.264 69.4929 108.085 72.3034 106.094 75.043M113.586 47.5759C113.026 48.8064 112.124 50.5668 111.758 51.9128M111.758 51.9128C114.295 54.3222 119.368 59.5265 119.368 61.0685C119.368 62.3858 119.368 68.7203 119.368 73.042C119.368 74.1355 118.461 75.008 117.369 74.973C112.929 74.831 106.575 74.7119 106.094 75.043M111.758 51.9128V51.9128C111.695 52.146 111.448 52.3202 111.209 52.2836C107.274 51.6805 105.376 48.6077 104.912 47.094" stroke="#1A4CE0" stroke-width="2.89128" stroke-linecap="round"/>
<path d="M68.7709 63.9596C70.5378 65.8872 73.8788 70.5132 73.1078 73.5972C72.3859 76.4846 67.3838 71.431 64.508 68.0067C64.1354 67.563 63.8357 67.0535 63.8049 66.475C63.7485 65.419 63.996 63.4117 65.8796 60.5865C67.8832 57.5812 71.9691 52.7248 74.2894 50.0259C75.371 48.7677 76.9494 48.0576 78.6085 48.0576H85.6365" stroke="#1A4CE0" stroke-width="2.89128" stroke-linecap="round"/>
<path d="M86.1184 54.804H81.7776C79.0868 54.804 76.5907 56.2068 75.1916 58.5052L70.6982 65.8872" stroke="#1A4CE0" stroke-width="2.89128" stroke-linecap="round"/>
<path d="M110.695 75.043V75.043C109.802 78.9118 111.068 82.9612 114.006 85.6321L119.053 90.2197C119.578 90.697 119.981 91.2899 120.275 91.9355C120.865 93.2297 121.72 94.8268 122.685 96.081C123.852 97.5982 125.239 96.4003 124.824 94.5314V94.5314C124.764 94.2644 125.05 94.0539 125.287 94.1896L129.137 96.3892C130.152 96.9694 131.415 96.2362 131.415 95.0668V95.0668C131.415 93.6695 130.825 92.3373 129.79 91.399L119.046 81.6628C117.205 79.9939 116.568 77.37 117.441 75.043V75.043" stroke="#1A4CE0" stroke-width="2.89128" stroke-linecap="round"/>
<path d="M80.336 72.6335C77.6053 75.6854 74.3607 83.1385 83.2272 88.5356C89.6865 92.4673 96.3673 96.1262 100.885 98.5063C103.139 99.6936 104.133 102.41 103.135 104.753L94.8594 124.184C94.3488 125.382 95.1501 126.732 96.4471 126.857L107.149 127.893C108.084 127.984 108.947 127.388 109.194 126.482L115.039 105.051C116.47 99.8031 114.352 94.2313 109.796 91.26L98.5031 83.8951C96.4887 82.5814 95.2741 80.3392 95.2741 77.9342V77.9342" stroke="#1A4CE0" stroke-width="2.89128" stroke-linecap="round"/>
<path d="M77.4451 82.2712L70.1317 91.8941C69.0516 93.3152 67.1387 93.8104 65.5083 93.0837C59.4013 90.3619 50.6958 86.4135 47.126 84.5638C46.2576 84.1139 45.1331 84.2515 44.4595 84.9606L38.3964 91.3428C37.4707 92.3172 37.8013 93.9159 39.0374 94.4433L63.9313 105.065C69.0777 107.26 75.0562 105.778 78.58 101.432L87.0827 90.945" stroke="#1A4CE0" stroke-width="2.89128" stroke-linecap="round"/>
<path d="M105.394 128.05C104.431 131.423 103.081 137.977 103.467 139.133" stroke="#1A4CE0" stroke-width="2.89128" stroke-linecap="round"/>
<path d="M97.6839 127.086C96.0776 130.459 93.0578 137.591 93.8288 139.133" stroke="#1A4CE0" stroke-width="2.89128" stroke-linecap="round"/>
<path d="M62.9883 144.916L68.0134 147.871C70.0869 149.091 72.4487 149.734 74.8544 149.734H125.862C128.838 149.734 131.73 148.751 134.089 146.936L136.716 144.916" stroke="#1A4CE0" stroke-width="2.89128" stroke-linecap="round"/>
<circle cx="78.8905" cy="154.553" r="3.85504" stroke="#1A4CE0" stroke-width="2.89128"/>
<circle cx="124.187" cy="154.553" r="3.85504" stroke="#1A4CE0" stroke-width="2.89128"/>
<path d="M284.987 36.8874C285.096 37.5092 285.152 38.1489 285.152 38.802C285.152 44.882 280.224 49.8108 274.144 49.8108C268.064 49.8108 263.135 44.882 263.135 38.802C263.135 37.2001 263.477 35.6781 264.092 34.3052" stroke="#1A4CE0" stroke-width="2.87187"/>
<path d="M292.812 37.8447L263.614 34.4941" stroke="#1A4CE0" stroke-width="2.87187" stroke-linecap="round"/>
<path d="M287.006 37.1517C287.047 36.75 287.068 36.3424 287.068 35.93C287.068 29.3213 281.71 23.9639 275.102 23.9639C268.979 23.9639 263.93 28.5624 263.221 34.4941" stroke="#1A4CE0" stroke-width="2.87187" stroke-linecap="round"/>
<path d="M240.639 135.01C240.639 151.664 227.138 165.164 210.484 165.164C193.83 165.164 180.329 151.664 180.329 135.01C180.329 118.356 193.83 104.855 210.484 104.855C215.422 104.855 220.079 106.041 224.19 108.142C228.116 110.149 231.546 112.993 234.243 116.438C238.251 121.558 240.639 128.003 240.639 135.01Z" stroke="#1A4CE0" stroke-width="2.87187"/>
<path d="M268.085 131.784C267.977 132.845 267.922 133.921 267.922 135.01C267.922 152.457 282.065 166.6 299.512 166.6C316.959 166.6 331.103 152.457 331.103 135.01C331.103 117.563 316.959 103.419 299.512 103.419C284.739 103.419 272.334 113.56 268.879 127.261" stroke="#1A4CE0" stroke-width="2.87187"/>
<path d="M225.322 64.6487L252.793 73.2051C253.762 73.507 254.798 72.9999 255.155 72.0494L255.956 69.9138" stroke="#1A4CE0" stroke-width="2.87187" stroke-linecap="round"/>
<path d="M225.322 64.6487C232.502 56.6713 248.68 41.8652 255.956 46.4602" stroke="#1A4CE0" stroke-width="2.87187" stroke-linecap="round"/>
<path d="M251.169 62.2555C251.806 63.9111 252.951 67.1321 253.387 69.1436C253.521 69.7639 254.169 70.2215 254.779 70.0492L271.08 65.4514C271.67 65.2852 271.954 64.6156 271.663 64.0763L266.688 54.8369C265.927 53.4234 264.823 52.224 263.477 51.3491L255.955 46.4602" stroke="#1A4CE0" stroke-width="2.87187" stroke-linecap="round"/>
<path d="M263.613 42.6311C262.018 43.7479 258.253 46.0774 255.955 46.4603" stroke="#1A4CE0" stroke-width="2.87187" stroke-linecap="round"/>
<path d="M270.315 49.3321C268.879 49.4916 265.433 50.3851 265.05 52.6826" stroke="#1A4CE0" stroke-width="2.87187" stroke-linecap="round"/>
<path d="M255.955 69.9137V69.9137C255.955 75.0082 259.95 79.2077 265.038 79.4621L282.423 80.3314C283.903 80.4054 285.346 80.8222 286.638 81.5488L291.796 84.4503C292.145 84.6463 292.546 84.728 292.943 84.6838V84.6838C294.489 84.5121 295.202 82.6554 294.128 81.5313C292.534 79.8636 290.601 78.0186 288.982 77.0934C286.446 75.6445 275.144 74.5097 268.933 73.851C268.263 73.78 267.62 73.5705 267.035 73.2365V73.2365C265.511 72.3657 264.571 70.7451 264.571 68.99V67.5205" stroke="#1A4CE0" stroke-width="2.87187" stroke-linecap="round"/>
<path d="M234.895 95.282L210.824 137.406C210.46 138.045 210.92 138.839 211.655 138.839H254.497C254.811 138.839 255.105 138.685 255.284 138.426L259.306 132.616" stroke="#1A4CE0" stroke-width="2.87187" stroke-linecap="round"/>
<path d="M229.151 66.0847C225.003 71.8284 221.302 84.2732 239.682 88.1023C247.818 89.7973 253.002 90.742 256.199 91.227C258.347 91.553 260.349 94.0574 260.025 96.2058L257.531 112.725C257.198 114.933 258.817 116.957 261.044 117.116L266.573 117.511C268.652 117.66 270.468 116.118 270.659 114.043L273.257 85.8304C273.487 83.3335 271.751 81.0823 269.278 80.6701L257.947 78.7816C256.963 78.6176 256.027 78.1683 255.463 77.3454C254.672 76.1916 253.981 74.6098 254.52 73.2643" stroke="#1A4CE0" stroke-width="2.87187" stroke-linecap="round"/>
<path d="M230.109 88.5811L221.449 120.188C220.975 121.921 222.19 123.66 223.981 123.809L229.784 124.293C231.099 124.402 232.32 123.601 232.743 122.35L243.99 89.0597" stroke="#1A4CE0" stroke-width="2.87187" stroke-linecap="round"/>
<path d="M262.762 126.821C261.589 127.194 260.075 127.004 258.931 126.719C258.364 126.577 257.76 126.908 257.638 127.48L257.272 129.186C256.861 131.107 258.455 132.864 260.406 132.641L270.641 131.471C272.092 131.306 273.304 130.024 272.768 128.667C272.469 127.909 271.99 127.351 271.273 127.351C269.619 127.351 266.236 126.78 264.561 126.52C263.947 126.425 263.355 126.633 262.762 126.821Z" stroke="#1A4CE0" stroke-width="2.87187" stroke-linecap="round"/>
<path d="M222.929 123.522L221.014 131.781M221.014 131.781C220.978 131.772 220.943 131.764 220.908 131.755C220.66 131.695 220.386 131.671 220.23 131.873C219.816 132.408 219.342 133.873 218.932 135.426C218.469 137.178 219.833 138.839 221.646 138.839H236.258C237.091 138.839 237.767 138.163 237.767 137.329V137.329C237.767 136.377 236.872 135.526 235.951 135.284C234.18 134.82 231.769 133.753 230.084 132.855C228.921 132.235 227.364 132.138 226.051 132.254C224.335 132.406 222.314 132.089 221.014 131.781Z" stroke="#1A4CE0" stroke-width="2.87187" stroke-linecap="round"/>
<path d="M230.587 124.479C229.47 126.554 227.332 130.989 227.715 132.138" stroke="#1A4CE0" stroke-width="2.87187" stroke-linecap="round"/>
<path d="M266.964 117.778C265.847 120.331 263.709 125.628 264.092 126.394" stroke="#1A4CE0" stroke-width="2.87187" stroke-linecap="round"/>
<path d="M259.785 116.821C259.625 119.533 258.636 125.341 257.87 126.873" stroke="#1A4CE0" stroke-width="2.87187" stroke-linecap="round"/>
<path d="M234.417 88.5811V93.3675C234.417 94.9536 235.703 96.2394 237.289 96.2394H259.98M301.906 137.882L284 97.9365C283.537 96.9039 282.511 96.2394 281.379 96.2394H272.352" stroke="#1A4CE0" stroke-width="2.87187" stroke-linecap="round"/>
<path d="M264.571 125.915L289.939 83.7944" stroke="#1A4CE0" stroke-width="2.87187" stroke-linecap="round"/>
<path d="M225.801 87.145H236.331" stroke="#1A4CE0" stroke-width="2.87187" stroke-linecap="round"/>
<path d="M294.726 83.3159H303.341" stroke="#1A4CE0" stroke-width="2.87187" stroke-linecap="round"/>
<circle cx="417.311" cy="144.648" r="20.5067" stroke="#1A4CE0" stroke-width="2.89128"/>
<circle cx="546.882" cy="144.648" r="20.5067" stroke="#1A4CE0" stroke-width="2.89128"/>
<path d="M440.334 158.569H524.93M569.906 158.569H586.198C590.24 158.569 593.279 154.88 592.503 150.912L585.79 116.553C585.257 113.829 583.035 111.754 580.281 111.41L532.753 105.469C530.551 105.194 528.648 103.803 527.717 101.789L501.489 45.041C500.438 42.7672 498.162 41.3115 495.657 41.3115H415.793C412.895 41.3115 410.356 43.2507 409.594 46.046L394.327 102.025C393.653 104.497 391.574 106.332 389.037 106.695L383.741 107.451C380.576 107.903 378.225 110.614 378.225 113.812V152.144C378.225 155.692 381.101 158.569 384.65 158.569H395.358" stroke="#1A4CE0" stroke-width="2.89128" stroke-linecap="round"/>
<rect x="501.746" y="97.3702" width="17.4547" height="12.1005" rx="1.76689" stroke="#1A4CE0" stroke-width="2.89128"/>
<path d="M501.907 48.272V48.272C499.56 48.272 497.924 50.5988 498.718 52.8066L514.221 95.9245M436.993 55.8926L436.172 98.1909C436.104 101.69 433.248 104.491 429.748 104.491H409.038C404.828 104.491 401.756 100.51 402.823 96.437L413.911 54.1387C414.652 51.3131 417.205 49.3428 420.126 49.3428H430.57C434.167 49.3428 437.063 52.296 436.993 55.8926Z" stroke="#1A4CE0" stroke-width="2.89128" stroke-linecap="round"/>
<path d="M520.111 104.491H528.678" stroke="#1A4CE0" stroke-width="2.89128" stroke-linecap="round"/>
<path d="M508.868 96.3803L494.687 54.2535C493.807 51.639 491.356 49.8782 488.598 49.8782H448.901C445.352 49.8782 442.476 52.7548 442.476 56.3032V98.0661C442.476 101.615 445.352 104.491 448.901 104.491H500.771" stroke="#1A4CE0" stroke-width="2.89128" stroke-linecap="round"/>
<path d="M442.476 88.4286V88.4286C444.342 85.1109 449.252 85.5572 450.49 89.157L453.184 96.9953" stroke="#1A4CE0" stroke-width="2.89128" stroke-linecap="round"/>
<path d="M457.025 87.1292C455.35 89.7182 452.182 96.8153 452.913 104.491" stroke="#1A4CE0" stroke-width="2.89" stroke-linecap="round"/>
<path d="M457.025 87.1293C459.185 87.9932 463.713 89.1837 465.437 87.4583C465.627 87.2673 465.861 87.1073 466.131 87.1059C467.625 87.0982 470.195 87.8026 471.189 90.7845C472.286 94.0741 472.56 101.293 472.56 104.491M465.706 81.8293C465.25 83.3523 464.884 85.7586 465.249 87.5862" stroke="#1A4CE0" stroke-width="2.89" stroke-linecap="round"/>
<path d="M460.681 81.1897C460.071 82.865 458.487 86.3983 457.025 87.1293" stroke="#1A4CE0" stroke-width="2.46723" stroke-linecap="round"/>
<path d="M505.655 96.7276C504.62 94.3638 502.258 92.7119 499.509 92.7119C495.806 92.7119 492.805 95.7084 492.805 99.4047C492.805 100.911 493.34 102.885 494.946 104.491" stroke="#1A4CE0" stroke-width="2.89128"/>
<path d="M496.018 93.2474V87.3578C496.018 86.1749 496.976 85.2161 498.159 85.2161H500.301C501.484 85.2161 502.443 86.1749 502.443 87.3578V93.2474" stroke="#1A4CE0" stroke-width="2.89128" stroke-linecap="round"/>
<path d="M452.588 69.7092C452.588 76.1978 457.848 81.4578 464.337 81.4578C470.825 81.4578 476.085 76.1978 476.085 69.7092C476.085 67.218 475.729 65.3161 474.407 63.4153" stroke="#1A4CE0" stroke-width="2.89"/>
<path d="M586.503 122.696H581.232C579.834 122.696 578.81 124.014 579.158 125.369L583.414 141.967C583.657 142.915 584.51 143.577 585.488 143.577H590.787" stroke="#1A4CE0" stroke-width="2.89128" stroke-linecap="round"/>
<path d="M524.93 158.644C522.22 154.459 520.646 149.469 520.646 144.112C520.646 129.327 532.632 117.341 547.418 117.341C562.203 117.341 574.189 129.327 574.189 144.112C574.189 149.469 572.615 154.459 569.905 158.644" stroke="#1A4CE0" stroke-width="2.89128"/>
<path d="M395.309 158.569C392.629 154.399 391.074 149.437 391.074 144.112C391.074 129.327 403.06 117.341 417.845 117.341C432.631 117.341 444.616 129.327 444.616 144.112C444.616 149.469 443.043 154.459 440.333 158.644" stroke="#1A4CE0" stroke-width="2.89128"/>
<path d="M154 73L177.686 85.2376C179.819 86.3397 179.757 89.411 177.581 90.4263L154 101.431" stroke="#BBBBBB" stroke-width="2.5" stroke-linecap="round"/>
<path d="M341 75L364.686 87.2376C366.819 88.3397 366.757 91.411 364.581 92.4263L341 103.431" stroke="#BBBBBB" stroke-width="2.5" stroke-linecap="round"/>
<path d="M481.001 61.2348L453.048 69.3848" stroke="#1A4CE0" stroke-width="2.89" stroke-linecap="round"/>
<path d="M475.019 62.6811C474.909 62.3111 474.778 61.9432 474.628 61.5786C472.217 55.7362 465.526 52.9547 459.683 55.3659C454.271 57.5998 450.301 63.9838 451.838 69.4866" stroke="#1A4CE0" stroke-width="2.89" stroke-linecap="round"/>
</svg>
