<svg width="1500" height="600" viewBox="0 0 1500 600" fill="none" xmlns="http://www.w3.org/2000/svg">
<g clip-path="url(#clip0_104_2170)">
<path d="M291.472 184.277C291.472 178.825 296.152 174.549 301.582 175.04L551.197 197.635C555.976 198.067 559.635 202.073 559.635 206.871V317.509C559.635 322.945 554.981 327.216 549.564 326.749L299.95 305.23C295.154 304.817 291.472 300.803 291.472 295.99V184.277Z" stroke="#1A4CE0" stroke-width="5"/>
<path d="M289.117 336.174C289.117 330.719 293.802 326.443 299.234 326.938L572.398 351.87C577.173 352.306 580.829 356.311 580.829 361.106V471.737C580.829 477.178 576.168 481.449 570.748 480.976L297.585 457.129C292.794 456.71 289.117 452.699 289.117 447.89V336.174Z" stroke="#1A4CE0" stroke-width="5"/>
<path d="M609.378 364.472C609.378 359.006 614.081 354.725 619.523 355.239L720.782 364.792C725.546 365.241 729.185 369.24 729.185 374.025V484.507C729.185 489.999 724.439 494.288 718.975 493.734L617.716 483.462C612.981 482.982 609.378 478.995 609.378 474.235V364.472Z" stroke="#1A4CE0" stroke-width="5"/>
<path d="M291.472 491.635C291.472 486.169 296.175 481.888 301.617 482.401L402.876 491.954C407.64 492.404 411.279 496.403 411.279 501.187V611.669C411.279 617.162 406.533 621.451 401.069 620.896L299.81 610.625C295.075 610.144 291.472 606.157 291.472 601.398V491.635Z" stroke="#1A4CE0" stroke-width="5"/>
<path d="M771.863 534.022C771.863 528.555 776.566 524.275 782.008 524.788L883.267 534.341C888.03 534.79 891.67 538.79 891.67 543.574V654.056C891.67 659.548 886.924 663.837 881.46 663.283L780.201 653.011C775.466 652.531 771.863 648.544 771.863 643.784V534.022Z" stroke="#1A4CE0" stroke-width="5"/>
<path d="M917.864 544.579C917.864 539.124 922.549 534.847 927.981 535.343L1201.14 560.275C1205.92 560.711 1209.58 564.715 1209.58 569.511V680.142C1209.58 685.582 1204.91 689.854 1199.49 689.381L926.331 665.533C921.54 665.115 917.864 661.104 917.864 656.294V544.579Z" stroke="#1A4CE0" stroke-width="5"/>
<path d="M449.248 505.724C449.248 500.269 453.932 495.992 459.365 496.488L732.528 521.42C737.304 521.856 740.959 525.86 740.959 530.656V641.287C740.959 646.727 736.298 650.999 730.879 650.526L457.715 626.679C452.924 626.26 449.248 622.249 449.248 617.439V505.724Z" stroke="#1A4CE0" stroke-width="5"/>
<path d="M1223.85 552.875L1278.01 531.681" stroke="#1A4CE0" stroke-width="5" stroke-linecap="round"/>
<path d="M1063.72 386.858L1117.88 365.664" stroke="#1A4CE0" stroke-width="5" stroke-linecap="round"/>
<path d="M903.589 219.664L957.751 198.47" stroke="#1A4CE0" stroke-width="5" stroke-linecap="round"/>
<path d="M743.46 52.4685L794.089 33.6297" stroke="#1A4CE0" stroke-width="5" stroke-linecap="round"/>
<path d="M487.957 17.1454C487.172 8.51094 482.07 -8.99349 467.941 -9.93543C455.33 -10.7762 412.392 -14.1807 386.008 -16.2979C380.294 -16.7565 374.58 -15.603 369.489 -12.9679L300 23" stroke="#1A4CE0" stroke-width="5" stroke-linecap="round"/>
<path d="M409.07 25.3877L452.635 4.194" stroke="#1A4CE0" stroke-width="5" stroke-linecap="round"/>
<path d="M1214.58 509.745L1298.24 517.357C1299.45 517.468 1300.38 518.484 1300.38 519.702V638.541C1300.38 639.437 1299.87 640.256 1299.07 640.652L1207.37 685.924" stroke="#1A4CE0" stroke-width="5" stroke-linecap="round"/>
<path d="M1126.62 480.885C1159.59 478.137 1222.7 486.065 1220.82 502.078C1218.46 522.095 1144.01 494.452 1136.04 517.385C1129.1 537.354 1076.78 522.487 1047.74 520.917" stroke="white" stroke-width="4" stroke-linecap="round"/>
<path d="M1056.66 342.115L1138.13 350.148C1139.33 350.267 1140.25 351.28 1140.25 352.491V471.367C1140.25 472.252 1139.76 473.063 1138.97 473.465L1046.24 520.729" stroke="#1A4CE0" stroke-width="5" stroke-linecap="round"/>
<path d="M965.993 315.035C998.961 312.288 1062.07 320.216 1060.19 336.229C1057.83 356.245 983.382 328.602 975.412 351.535C968.473 371.504 916.148 356.637 887.105 355.067" stroke="white" stroke-width="4" stroke-linecap="round"/>
<path d="M885.105 354.713L978.828 307.446C979.621 307.046 980.122 306.232 980.122 305.343V186.512C980.122 185.286 979.18 184.264 977.957 184.165L892.992 177.276" stroke="#1A4CE0" stroke-width="5" stroke-linecap="round"/>
<path d="M804.062 150.378C837.029 147.631 900.14 155.559 898.256 171.572C895.901 191.588 821.451 163.945 813.481 186.878C806.541 206.847 754.217 191.98 725.174 190.41" stroke="white" stroke-width="4" stroke-linecap="round"/>
<path d="M291.472 32.4305C291.472 26.9665 296.172 22.6867 301.612 23.1967L391.096 31.5859C395.862 32.0327 399.505 36.033 399.505 40.8197V150.351C399.505 155.777 394.868 160.044 389.461 159.593L299.976 152.136C295.169 151.735 291.472 147.717 291.472 142.894V32.4305Z" stroke="#1A4CE0" stroke-width="5"/>
<path d="M295.037 150.195C296.999 154.904 298.569 169.976 293.859 178.453" stroke="#1A4CE0" stroke-width="5" stroke-linecap="round"/>
<path d="M293.859 302.083C295.821 306.792 297.391 320.686 292.681 329.164" stroke="#1A4CE0" stroke-width="5" stroke-linecap="round"/>
<path d="M292.859 455.148C294.822 459.858 297.569 478.284 292.859 486.761" stroke="#1A4CE0" stroke-width="5" stroke-linecap="round"/>
<path d="M597.603 211.368C597.603 205.913 602.288 201.636 607.72 202.132L880.884 227.064C885.659 227.499 889.315 231.504 889.315 236.299V346.931C889.315 352.371 884.654 356.643 879.234 356.17L606.071 332.322C601.279 331.904 597.603 327.893 597.603 323.083V211.368Z" stroke="#1A4CE0" stroke-width="5"/>
<path d="M438.328 36.3389C440.2 35.4028 509.859 8.06387 536.914 -2.67436C537.252 -2.80879 537.598 -2.85508 537.961 -2.82444L814.303 20.4955C815.522 20.5984 816.459 21.6182 816.459 22.842V141.672C816.459 142.565 815.954 143.382 815.155 143.78L722.62 189.872" stroke="#1A4CE0" stroke-width="5" stroke-linecap="round"/>
<path d="M432.763 45.133C432.763 39.7406 437.346 35.4851 442.724 35.8842L720.597 56.5076C725.44 56.867 729.185 60.9007 729.185 65.7564V180.729C729.185 186.222 724.438 190.511 718.974 189.956L441.101 161.735C436.366 161.254 432.763 157.267 432.763 152.508V45.133Z" stroke="#1A4CE0" stroke-width="5"/>
<path d="M757.734 377.385C757.734 371.93 762.419 367.653 767.851 368.149L1041.01 393.08C1045.79 393.516 1049.45 397.521 1049.45 402.316V512.947C1049.45 518.388 1044.78 522.66 1039.36 522.187L766.201 498.339C761.41 497.921 757.734 493.909 757.734 489.1V377.385Z" stroke="#1A4CE0" stroke-width="5"/>
<path d="M550.361 123.336C550.361 138.574 564.258 150.927 581.401 150.927C596.045 150.927 608.321 141.911 611.588 129.784" stroke="white" stroke-width="4.70971" stroke-linecap="round"/>
<circle cx="568.023" cy="114.872" r="3.53228" fill="white"/>
<circle cx="596.281" cy="117.227" r="3.53228" fill="white"/>
<path d="M712.846 290.53C712.846 305.768 726.743 318.121 743.885 318.121C758.53 318.121 770.806 309.105 774.072 296.978" stroke="white" stroke-width="4.70971" stroke-linecap="round"/>
<circle cx="730.508" cy="282.067" r="3.53228" fill="white"/>
<circle cx="758.766" cy="284.421" r="3.53228" fill="white"/>
<path d="M872.977 457.726C872.977 472.964 886.873 485.316 904.016 485.316C918.66 485.316 930.936 476.301 934.203 464.174" stroke="white" stroke-width="4.70971" stroke-linecap="round"/>
<circle cx="890.638" cy="449.262" r="3.53228" fill="white"/>
<circle cx="918.896" cy="451.616" r="3.53228" fill="white"/>
<path d="M404.36 415.337C404.36 430.575 418.257 442.928 435.4 442.928C450.044 442.928 462.32 433.913 465.587 421.785" stroke="white" stroke-width="4.70971" stroke-linecap="round"/>
<circle cx="422.022" cy="406.874" r="3.53228" fill="white"/>
<circle cx="450.28" cy="409.229" r="3.53228" fill="white"/>
<path d="M564.491 584.887C564.491 600.125 578.387 612.478 595.53 612.478C610.175 612.478 622.451 603.462 625.717 591.335" stroke="white" stroke-width="4.70971" stroke-linecap="round"/>
<circle cx="582.152" cy="576.424" r="3.53228" fill="white"/>
<circle cx="610.41" cy="578.779" r="3.53228" fill="white"/>
<path d="M399.65 262.272C399.65 277.51 413.547 289.862 430.689 289.862C445.334 289.862 457.61 280.847 460.876 268.72" stroke="white" stroke-width="4.70971" stroke-linecap="round"/>
<circle cx="417.311" cy="253.809" r="3.53228" fill="white"/>
<circle cx="445.569" cy="256.163" r="3.53228" fill="white"/>
</g>
<defs>
<clipPath id="clip0_104_2170">
<rect width="1500" height="600" fill="white"/>
</clipPath>
</defs>
</svg>
