<svg width="600" height="446" viewBox="0 0 600 446" fill="none" xmlns="http://www.w3.org/2000/svg">
<rect width="600" height="446" fill="#F4F4F4"/>
<path d="M371.935 173.598C373.93 173.532 375.399 170.427 375.217 166.663C375.034 162.899 373.269 159.9 371.275 159.966C369.28 160.032 367.81 163.137 367.993 166.901C368.175 170.665 369.94 173.663 371.935 173.598Z" fill="#060809"/>
<path d="M286.272 177.94C288.267 177.874 289.737 174.769 289.554 171.005C289.372 167.241 287.607 164.243 285.612 164.309C283.617 164.375 282.148 167.48 282.33 171.244C282.513 175.008 284.278 178.006 286.272 177.94Z" fill="#060809"/>
<path d="M349 282.19C349 316.69 364.047 321.639 375.5 321.69C390.126 321.754 413.115 312.29 428 289.69C441.16 269.708 454 245.19 460.5 220.19" stroke="#1A4CE0" stroke-width="5" stroke-linecap="round"/>
<path d="M62.5 227.19C63.9022 220.334 72 212.19 81 210.69H102.5" stroke="#1A4CE0" stroke-width="5" stroke-linecap="round" stroke-linejoin="round"/>
<path d="M219.766 226.474C200.743 192.698 177.488 114.432 236.654 71.5726C295.819 28.7128 351 46.1897 374.085 65.1669C397.154 84.1318 403 112.69 400.872 136.794C401.26 142.229 403.752 159.29 406.113 166.19C409 174.627 415.5 191.19 406.113 217.69M247.136 271.896C248.883 294.995 237.5 333.19 191 330.19C164.5 328.48 146.193 298.027 142 261.69" stroke="#1A4CE0" stroke-width="5" stroke-linecap="round" stroke-linejoin="round"/>
<path d="M279.164 312.078C275.864 333.236 255.638 375.086 201.131 373.223C146.625 371.359 131.148 344.19 124.845 330.13C122.322 324.501 116.343 308.351 112.616 288.784" stroke="#1A4CE0" stroke-width="5" stroke-linecap="round" stroke-linejoin="round"/>
<path d="M312.94 284.948C310.61 305.913 308.94 360.19 349 345.19C368 338.075 388.295 340.503 385.5 360.07C382.006 384.528 354.5 379.69 354.5 379.69C354.5 379.69 348.07 379.455 344.5 377.69C341.026 375.971 337 371.19 337 371.19C327.489 376.042 307.699 374.977 296.052 360.07C284.405 345.162 279.194 324.366 279 313.69" stroke="#1A4CE0" stroke-width="5" stroke-linecap="round" stroke-linejoin="round"/>
<path d="M415 220.19C416.165 219.025 435.812 147.276 450.953 133.882M470.752 111.754C474.829 110.589 496.375 95.4482 509.186 110.007C517.609 119.578 512.691 137.959 501.218 150.919" stroke="#1A4CE0" stroke-width="5" stroke-linecap="round" stroke-linejoin="round"/>
<path d="M459 219.19C460.165 218.025 472.229 164.743 487.37 151.349" stroke="#1A4CE0" stroke-width="5" stroke-linecap="round" stroke-linejoin="round"/>
<circle cx="281.493" cy="164.164" r="33.7823" stroke="#060809" stroke-width="4.64496"/>
<circle cx="370.591" cy="160.087" r="29.7059" stroke="#060809" stroke-width="4.64496"/>
<path d="M315.269 161.833C318.569 158.727 328.08 153.448 339.727 157.175" stroke="#060809" stroke-width="5"/>
<path d="M247.718 163C246.786 162.068 226.754 154.071 216.854 150.189C214.913 150.189 210.565 151.47 208.702 156.594" stroke="#060809" stroke-width="5" stroke-linecap="round"/>
<path d="M220 227.19C228.5 242.19 224.425 287.037 205.79 301.013C187.155 314.99 187.155 241.227 189.484 202.599C190.649 184.935 184.593 145.064 151.05 126.895C145.421 123.79 129 117.689 120 122.69M112.034 168.241C117.663 172.318 131.135 179.538 139.986 175.812C142.315 175.035 147.789 176.277 151.05 187.458C154.311 198.639 152.409 246.468 151.05 268.985" stroke="#1A4CE0" stroke-width="5" stroke-linecap="round" stroke-linejoin="round"/>
<path d="M407.5 395.69C407.5 391.824 410.634 388.69 414.5 388.69H525.5C529.366 388.69 532.5 391.824 532.5 395.69C532.5 399.556 529.366 402.69 525.5 402.69H414.5C410.634 402.69 407.5 399.556 407.5 395.69Z" fill="#F4F4F4" stroke="#060809" stroke-width="5"/>
<rect x="373.5" y="219.69" width="197" height="146" rx="17.5" fill="#F4F4F4" stroke="#060809" stroke-width="5"/>
<path d="M445.212 374.886C445.212 388.28 431.819 388.28 418.425 388.28H525.575C512.181 388.28 498.787 388.28 498.787 374.886V334.69H445.212V374.886Z" fill="#F4F4F4" stroke="#060809" stroke-width="5" stroke-linejoin="round"/>
<g clip-path="url(#clip0_334_1511)">
<mask id="path-18-inside-1_334_1511" fill="white">
<path d="M483.386 194.131L504.814 205.473C505.6 205.877 506.466 206.102 507.35 206.133C508.233 206.164 509.111 205.999 509.919 205.65C510.727 205.302 511.446 204.779 512.022 204.119C512.598 203.459 513.016 202.68 513.248 201.837C513.393 201.455 513.499 201.059 513.565 200.655L514.355 176.548L472.176 104.289C469.964 100.499 465.113 99.1987 461.302 101.374L444.142 111.168C440.273 113.376 438.953 118.318 441.205 122.161L483.386 194.131Z"/>
</mask>
<path d="M483.386 194.131L504.814 205.473C505.6 205.877 506.466 206.102 507.35 206.133C508.233 206.164 509.111 205.999 509.919 205.65C510.727 205.302 511.446 204.779 512.022 204.119C512.598 203.459 513.016 202.68 513.248 201.837C513.393 201.455 513.499 201.059 513.565 200.655L514.355 176.548L472.176 104.289C469.964 100.499 465.113 99.1987 461.302 101.374L444.142 111.168C440.273 113.376 438.953 118.318 441.205 122.161L483.386 194.131Z" fill="#F4F4F4"/>
<path d="M483.386 194.131L479.072 196.659C479.542 197.46 480.225 198.115 481.046 198.55L483.386 194.131ZM504.814 205.473L502.475 209.892L502.502 209.906L502.529 209.921L504.814 205.473ZM513.248 201.837L508.575 200.059L508.489 200.283L508.426 200.514L513.248 201.837ZM513.565 200.655L518.501 201.451L518.551 201.137L518.562 200.819L513.565 200.655ZM514.355 176.548L519.352 176.711C519.383 175.771 519.148 174.84 518.673 174.027L514.355 176.548ZM472.176 104.289L476.495 101.768L472.176 104.289ZM481.046 198.55L502.475 209.892L507.153 201.054L485.725 189.711L481.046 198.55ZM502.529 209.921C503.97 210.661 505.557 211.074 507.176 211.13L507.523 201.136C507.376 201.131 507.23 201.093 507.099 201.026L502.529 209.921ZM507.176 211.13C508.795 211.186 510.408 210.884 511.899 210.242L507.94 201.059C507.813 201.113 507.671 201.141 507.523 201.136L507.176 211.13ZM511.899 210.242C513.389 209.6 514.719 208.632 515.788 207.407L508.255 200.831C508.173 200.925 508.066 201.005 507.94 201.059L511.899 210.242ZM515.788 207.407C516.858 206.182 517.638 204.731 518.069 203.161L508.426 200.514C508.395 200.629 508.337 200.737 508.255 200.831L515.788 207.407ZM517.921 203.616C518.187 202.916 518.381 202.19 518.501 201.451L508.628 199.858C508.617 199.927 508.599 199.994 508.575 200.059L517.921 203.616ZM518.562 200.819L519.352 176.711L509.357 176.384L508.567 200.491L518.562 200.819ZM518.673 174.027L476.495 101.768L467.858 106.809L510.037 179.068L518.673 174.027ZM458.823 97.0314L441.663 106.826L446.62 115.511L463.78 105.716L458.823 97.0314ZM436.891 124.69L479.072 196.659L487.699 191.602L445.519 119.633L436.891 124.69ZM441.663 106.826C435.377 110.414 433.232 118.445 436.891 124.69L445.519 119.633C444.674 118.192 445.169 116.339 446.62 115.511L441.663 106.826ZM476.495 101.768C472.9 95.6101 465.016 93.4968 458.823 97.0314L463.78 105.716C465.209 104.901 467.029 105.388 467.858 106.809L476.495 101.768Z" fill="#BDBDBD" mask="url(#path-18-inside-1_334_1511)"/>
</g>
<path d="M46.8611 135.6L46.8616 135.598L53.2157 111.885C54.2035 108.198 58.0035 106.004 61.69 106.992L118.492 122.212C121.571 123.037 123.609 125.816 123.62 128.865L117.427 152.92L115.189 159.649C111.516 168.004 104.831 174.673 96.4626 178.324C88.0604 181.99 78.5828 182.343 69.931 179.313C61.2792 176.282 54.0932 170.093 49.8144 161.986C45.5357 153.878 44.4807 144.453 46.8611 135.6Z" stroke="#BDBDBD" stroke-width="5"/>
<path d="M116.351 160.168L119.81 161.095C123.945 162.127 128.32 161.493 131.992 159.331C135.664 157.168 138.34 153.65 139.443 149.533C140.546 145.417 139.988 141.032 137.889 137.323C135.79 133.614 132.319 130.877 128.222 129.704L124.941 128.824" stroke="#BDBDBD" stroke-width="5" stroke-linecap="round"/>
<g clip-path="url(#clip1_334_1511)">
<path d="M89.6117 198.166C90.4394 195.076 92.4604 192.443 95.23 190.844C97.9996 189.245 101.291 188.811 104.38 189.639L146.567 200.943C149.656 201.771 152.29 203.792 153.889 206.561C155.488 209.331 155.921 212.622 155.094 215.711L132.486 300.085C131.658 303.174 129.637 305.808 126.867 307.407C124.098 309.006 120.806 309.44 117.717 308.612L75.5303 297.308C72.4412 296.48 69.8074 294.459 68.2084 291.69C66.6094 288.92 66.176 285.629 67.0038 282.539L89.6117 198.166ZM111.075 286.812C111.746 284.307 111.395 281.638 110.098 279.392C108.801 277.145 106.665 275.506 104.16 274.835C101.655 274.164 98.9852 274.515 96.7391 275.812C94.493 277.109 92.854 279.245 92.1827 281.75C91.5115 284.255 91.8629 286.925 93.1597 289.171C94.4565 291.417 96.5924 293.056 99.0977 293.727C101.603 294.398 104.272 294.047 106.518 292.75C108.764 291.453 110.403 289.317 111.075 286.812Z" fill="#F4F4F4" stroke="#BDBDBD" stroke-width="5"/>
</g>
<path d="M271.5 395.69C271.5 391.824 274.634 388.69 278.5 388.69H389.5C393.366 388.69 396.5 391.824 396.5 395.69C396.5 399.556 393.366 402.69 389.5 402.69H278.5C274.634 402.69 271.5 399.556 271.5 395.69Z" fill="#F4F4F4" stroke="#BDBDBD" stroke-width="5"/>
<path d="M453.865 147.858C449.886 158.962 453.865 169.987 478.905 164.746C487.153 163.02 494.643 158.071 500.521 151.69L492 137.19L481 117.19L478.905 118.741C478.905 118.741 469.848 126.336 465 131.69C459.547 137.712 455 144.69 453.865 147.858Z" fill="#F4F4F4"/>
<path d="M500.521 151.69C494.643 158.071 487.153 163.02 478.905 164.746C453.865 169.987 449.886 158.962 453.865 147.858C455 144.69 459.547 137.712 465 131.69C469.848 126.336 478.905 118.741 478.905 118.741" stroke="#1A4CE0" stroke-width="5" stroke-linecap="round" stroke-linejoin="round"/>
<path d="M106.211 266.072C101.086 271.663 91.0889 270.978 84.0001 269.19C79.0051 267.93 71.8078 262.182 66.9634 253.69L79.0001 224.69L81.0001 225.69C112.5 236.19 112.616 259.084 106.211 266.072Z" fill="#F4F4F4"/>
<path d="M80.9999 225.69C112.5 236.19 112.616 259.084 106.211 266.072C101.086 271.663 91.0888 270.978 84 269.19C74.7645 266.86 57.9999 249.19 62.4999 227.19C63.9021 220.334 71.9999 212.19 80.9999 210.69" stroke="#1A4CE0" stroke-width="5" stroke-linecap="round" stroke-linejoin="round"/>
<path d="M129.5 145.69C130.3 134.89 145.5 138.19 153 141.19L145.5 177.19C141.667 172.69 128.7 156.49 129.5 145.69Z" fill="#F4F4F4"/>
<path d="M153 141.19C145.5 138.19 130.3 134.89 129.5 145.69C128.7 156.49 141.667 172.69 145.5 177.19" stroke="#1A4CE0" stroke-width="5" stroke-linecap="round"/>
<path d="M358.169 221.944C353 201.69 317.5 207.69 311 229.514" stroke="#060809" stroke-width="5" stroke-linecap="round"/>
<circle cx="281.5" cy="155.69" r="5.5" fill="#F4F4F4"/>
<circle cx="366.5" cy="149.69" r="4.5" fill="#F4F4F4"/>
<defs>
<clipPath id="clip0_334_1511">
<rect width="116.467" height="116.467" fill="white" transform="translate(411 191.688) rotate(-75)"/>
</clipPath>
<clipPath id="clip1_334_1511">
<rect width="116.467" height="116.467" fill="white" transform="translate(69.8713 177.805) rotate(15)"/>
</clipPath>
</defs>
</svg>
