<svg width="600" height="539" viewBox="0 0 600 539" fill="none" xmlns="http://www.w3.org/2000/svg">
<rect width="600" height="539" fill="#F4F4F4"/>
<path d="M256.775 26.6058C144.544 43.506 -59.6045 107.109 72.029 175.453C236.571 260.884 378.902 211.081 364.171 266.102C341.004 352.637 21.3606 295.319 21.3606 295.319M339.979 26.6058C105.745 91.93 148.343 156.499 339.979 166.559C514.021 175.695 591.611 224.514 574.423 311.031C559.533 385.985 414 469.548 302 491.704" stroke="#060809" stroke-width="5" stroke-linecap="round"/>
<path d="M239.488 136.67C239.047 140.799 237.703 140.521 234.707 141.488L225.267 144.247C224.47 146.912 223.19 148.728 222.06 151.167C220.93 153.606 219.66 155.831 218.292 157.838L220.903 171.274C221.728 175.594 220.878 179.831 218.533 181.714C217.092 182.848 215.615 183.887 214.092 184.768L212.428 185.697L167.831 198.582L163.906 169.541C163.95 160.07 176.842 128.864 179.206 119.7C172.532 105.511 123.264 60.8787 131.451 48.9337C147.679 44.3682 152.315 43.1238 170.117 38.1821C172.807 37.2746 175.801 39.4039 177.66 43.1238L182.915 54.2602C182.915 54.2602 197.783 49.2224 204.707 47.4119C207.561 46.6655 207.506 47.1869 210.122 49.6179C211.989 51.3451 213.818 53.2397 215.609 55.3015C217.401 57.3633 219.103 59.5326 220.725 61.8737C222.99 65.0605 223.681 69.754 222.694 73.5164L219.661 85.3013C222.308 90.9288 224.355 97.0776 225.732 103.298L234.534 108.53C237.349 110.188 239.547 114.035 239.817 118.349C239.977 121.01 240.054 123.679 240.037 126.293L239.982 129.074C239.913 131.629 239.734 134.162 239.488 136.67Z" fill="#F4F4F4" stroke="#1A4CE0" stroke-width="4" stroke-linejoin="round"/>
<path d="M195.405 121.839L195.411 121.842C197.652 123.163 199.211 126.115 199.397 129.059C199.551 131.615 199.624 134.173 199.609 136.672L199.555 139.408C199.489 141.826 199.319 144.244 199.082 146.663C198.838 148.911 197.71 150.605 196.025 151.042L195.154 151.059L186.238 151.227L185.132 151.248L184.68 152.76C183.925 155.282 183.02 157.721 181.955 160.019C180.891 162.316 179.692 164.417 178.397 166.317L177.62 167.456L177.944 169.123L180.553 182.543C180.554 182.546 180.554 182.548 180.555 182.551C181.181 185.841 180.485 188.59 179.031 189.763C177.639 190.857 176.228 191.849 174.785 192.684L173.14 193.602C171.636 194.41 170.089 195.044 168.481 195.596C166.645 196.213 164.386 194.772 162.906 191.809L162.902 191.802L157.061 180.181L156.472 179.008L155.54 178.969C151.559 178.803 147.455 177.653 143.389 175.493L142.387 174.962L141.623 175.967L135.406 184.141L135.402 184.146C134.029 185.965 131.831 186.307 129.919 184.53L129.915 184.527C128.108 182.855 126.336 181.02 124.599 179.02C122.861 177.02 121.213 174.919 119.652 172.715L119.649 172.711C117.987 170.373 117.52 167.003 118.211 164.369L118.215 164.354L121.264 152.535L121.641 151.075L121.008 149.731C118.482 144.359 116.527 138.488 115.214 132.557L114.907 131.17L114.019 130.642L105.217 125.41L105.211 125.407C102.969 124.085 101.41 121.13 101.225 118.184L101.224 118.17L101.223 118.155C101.044 115.568 100.957 113.06 100.987 110.557C100.987 110.552 100.988 110.548 100.988 110.544L101.036 107.919C101.117 105.456 101.288 103.033 101.525 100.619C101.807 98.0206 103.27 96.1622 105.412 96.1302L105.416 96.1301L114.332 95.962L115.438 95.9412L115.89 94.4288C116.645 91.9068 117.55 89.4676 118.615 87.1703C119.68 84.8721 120.878 82.7726 122.154 80.911L122.935 79.7717L122.61 78.1005L120.001 64.6797C120.001 64.6775 120 64.6753 120 64.6731C119.373 61.3792 120.071 58.6277 121.529 57.4562C122.933 56.3307 124.345 55.3383 125.791 54.5013C125.792 54.5005 125.794 54.4997 125.795 54.499L127.373 53.6C128.916 52.8391 130.488 52.1712 132.073 51.6269C133.909 51.0096 136.168 52.4514 137.649 55.4141L137.653 55.4221L137.657 55.4301L143.539 67.0469L144.129 68.2111L145.056 68.2498C149.037 68.4158 153.141 69.5657 157.207 71.7252L158.209 72.2571L158.973 71.2518L165.19 63.0782L165.194 63.0722C166.567 61.254 168.766 60.9116 170.678 62.6887L170.681 62.6919C172.488 64.3634 174.26 66.1986 175.997 68.1985C177.735 70.198 179.377 72.2925 180.937 74.5445L180.947 74.5583L180.957 74.572C182.619 76.9102 183.086 80.2795 182.395 82.914L182.393 82.9223L182.391 82.9306L179.358 94.7155L178.982 96.1748L179.614 97.5178C182.141 102.89 184.095 108.76 185.408 114.692L185.715 116.079L186.603 116.607L195.405 121.839ZM141.61 142.399C149.187 151.119 159.409 150.335 164.309 139.762C169.209 129.188 166.573 113.605 158.996 104.884C151.419 96.1638 141.197 96.9479 136.297 107.521C131.397 118.095 134.033 133.678 141.61 142.399Z" fill="#F4F4F4" stroke="#1A4CE0" stroke-width="5"/>
<path d="M195.337 154.034C198.184 153.992 200.487 151.427 200.927 147.299C201.174 144.791 201.352 142.257 201.421 139.703L201.476 136.922C201.493 134.308 201.417 131.639 201.256 128.978C200.986 124.664 198.788 120.817 195.974 119.158L187.172 113.927C185.795 107.706 183.747 101.558 181.1 95.93L184.133 84.1452C185.121 80.3827 184.429 75.6892 182.164 72.5025C180.542 70.1614 178.84 67.992 177.049 65.9302C175.257 63.8684 173.428 61.9739 171.561 60.2467C168.946 57.8157 165.882 58.2406 163.924 60.8332L157.708 69.0069C153.459 66.7503 149.161 65.5437 144.982 65.3694L139.099 53.7526C137.24 50.0327 134.246 47.9033 131.556 48.8109C129.899 49.3795 128.263 50.0767 126.662 50.868L125.039 51.7922C123.516 52.6731 122.039 53.7124 120.582 54.8801C118.237 56.7631 117.388 61.0006 118.212 65.3207L120.824 78.7561C119.471 80.729 118.201 82.9543 117.071 85.3933C115.941 87.8323 114.982 90.4162 114.185 93.0808L105.269 93.2488C102.423 93.2914 100.12 95.8556 99.6795 99.9842C99.4328 102.492 99.2541 105.025 99.1691 107.614L99.1202 110.297C99.0871 112.945 99.1797 115.58 99.3661 118.27C99.6361 122.584 101.834 126.431 104.649 128.09L113.451 133.322C114.828 139.542 116.875 145.691 119.522 151.319L116.473 163.138C115.486 166.9 116.177 171.594 118.442 174.78C120.054 177.057 121.756 179.227 123.548 181.288C125.339 183.35 127.168 185.245 129.035 186.972C131.651 189.403 134.714 188.978 136.672 186.385L142.888 178.212C147.137 180.468 151.435 181.675 155.614 181.849L161.455 193.471C163.314 197.19 166.308 199.32 168.998 198.412C170.655 197.844 172.276 197.181 173.867 196.325L175.531 195.397C177.054 194.516 178.531 193.476 179.972 192.343C182.318 190.46 183.167 186.223 182.342 181.902L179.731 168.467C181.099 166.46 182.369 164.235 183.499 161.796C184.63 159.357 185.588 156.773 186.385 154.108L195.337 154.034ZM162.765 137.985C158.547 147.088 149.542 148.049 142.662 140.13C135.781 132.212 133.622 118.402 137.841 109.298C142.06 100.195 151.065 99.234 157.945 107.153C164.825 115.071 166.984 128.881 162.765 137.985Z" fill="#F4F4F4" stroke="#1A4CE0" stroke-width="4" stroke-linejoin="round"/>
<path d="M169.006 58.4454L206.561 47.0315M184.798 76.9434L221.398 64.9133M181.939 94.99L219.079 84.317M188.712 113.508L226.034 102.579M200.987 123.282L237.162 111.71M197.288 153.562L237.625 140.245M181.435 167.345L217.689 157.366M183.221 187.873L220.934 176.77M134.697 187.873L156.951 183.618M103.169 92.6872L115.746 88.0535" stroke="#1A4CE0" stroke-width="4" stroke-linecap="round" stroke-linejoin="round"/>
<path d="M61.1249 406.549C62.0488 413.297 64.4514 412.65 69.8578 413.826L86.884 417.056C88.4002 421.34 90.7544 424.156 92.8614 428.021C94.9684 431.886 97.3194 435.379 99.839 438.498L95.5892 461.027C94.2501 468.269 95.911 475.14 100.18 477.918C102.802 479.586 105.486 481.093 108.246 482.333L111.263 483.632L191.691 498.64L197.791 450.184C197.405 434.566 173.263 384.896 168.725 370.11C180.238 345.77 267.182 265.242 252.107 246.685C222.845 241.427 214.487 240.024 182.388 234.366C177.533 233.246 172.23 237.178 169.015 243.574L159.948 262.681C159.948 262.681 133.11 256.453 120.631 254.437C115.486 253.605 115.601 254.458 110.987 258.834C107.693 261.945 104.473 265.326 101.326 268.979C98.179 272.631 95.1962 276.448 92.3617 280.537C88.4008 286.111 87.3128 293.95 89.2061 300.018L95.0298 319.034C90.4633 328.688 86.9899 339.117 84.721 349.571L69.099 359.435C64.1038 362.565 60.2846 369.219 59.9401 376.373C59.7385 380.784 59.6875 385.198 59.803 389.508L59.9916 394.088C60.1983 398.292 60.6012 402.446 61.1249 406.549Z" fill="#F4F4F4" stroke="#1A4CE0" stroke-width="4" stroke-linejoin="round"/>
<path d="M140.898 429.007C135.79 429.336 131.575 425.428 130.651 418.68C130.127 414.577 129.724 410.423 129.517 406.219L129.329 401.639C129.213 397.329 129.264 392.915 129.466 388.504C129.81 381.35 133.63 374.696 138.625 371.566L154.247 361.702C156.516 351.248 159.989 340.819 164.556 331.165L158.732 312.149C156.839 306.081 157.927 298.242 161.888 292.668C164.722 288.579 167.705 284.762 170.852 281.11C173.999 277.458 177.219 274.076 180.512 270.965C185.126 266.589 190.636 266.861 194.233 270.863L205.651 283.476C213.2 279.158 220.872 276.565 228.364 275.692L238.541 255.705C241.756 249.309 247.059 245.377 251.914 246.497C254.905 247.203 257.864 248.124 260.762 249.205L263.703 250.502C266.464 251.742 269.148 253.249 271.799 254.971C276.068 257.749 277.729 264.62 276.39 271.862L272.14 294.391C274.63 297.456 276.981 300.949 279.088 304.814C281.195 308.679 282.999 312.807 284.515 317.091L300.516 316.119C305.624 315.79 309.839 319.698 310.763 326.446C311.287 330.549 311.69 334.703 311.926 338.961L312.101 343.38C312.246 347.744 312.165 352.103 311.918 356.567C311.574 363.722 307.755 370.375 302.759 373.506L287.137 383.369C284.869 393.823 281.395 404.253 276.829 413.907L282.682 432.977C284.575 439.045 283.487 446.884 279.526 452.458C276.708 456.44 273.725 460.257 270.578 463.909C267.431 467.561 264.211 470.943 260.917 474.053C256.304 478.43 250.794 478.158 247.197 474.155L235.779 461.543C228.229 465.861 220.558 468.453 213.066 469.326L202.964 489.315C199.749 495.712 194.446 499.644 189.591 498.523C186.6 497.817 183.67 496.951 180.789 495.763L177.772 494.464C175.011 493.224 172.328 491.717 169.706 490.049C165.437 487.271 163.776 480.4 165.115 473.158L169.365 450.629C166.845 447.51 164.494 444.017 162.387 440.152C160.28 436.287 158.477 432.159 156.96 427.875L140.898 429.007ZM206.401 394.838C214.265 409.264 230.452 409.588 242.539 395.562C254.625 381.535 258.051 358.452 250.187 344.026C242.323 329.6 226.137 329.276 214.05 343.303C201.963 357.329 198.537 380.412 206.401 394.838Z" fill="#F4F4F4" stroke="#1A4CE0" stroke-width="4" stroke-linejoin="round"/>
<path d="M185.387 267.885L117.64 254.318M157.655 300.611L91.6015 285.894M163.369 329.98L96.3898 317.577M151.817 361.477C151.817 361.477 86.836 349.177 85.9509 349.114M130.113 379.319L64.8373 365.298M134.541 426.783L66.5108 413.273M166.619 449.266L101.254 437.884M164.081 483.379L96.0605 470.346M249.79 476.687L212.061 472.674M304.615 315.147L281.899 309.265" stroke="#1A4CE0" stroke-width="4" stroke-linecap="round" stroke-linejoin="round"/>
<path d="M496.59 318.84C501.206 317.258 500.374 316.24 500.359 313.503L499.977 304.961C502.762 303.52 504.38 301.935 506.777 300.289C509.174 298.642 511.271 296.944 513.078 295.23L529.632 293.391C534.95 292.787 539.537 290.838 540.829 288.361C541.596 286.846 542.24 285.33 542.683 283.823L543.128 282.186L541.148 241.879L506.016 247.262C495.06 250.101 463.796 269.887 454.077 274.534C435.108 273.272 364.723 246.165 353.989 256.4C354.852 271.03 355.168 275.193 356.192 291.223C356.161 293.693 359.763 295.513 364.777 295.933L379.671 296.937C379.671 296.937 379.471 310.595 379.999 316.796C380.216 319.353 380.799 319.154 384.607 320.575C387.316 321.591 390.204 322.527 393.272 323.383C396.34 324.239 399.498 324.989 402.825 325.624C407.376 326.534 413.075 325.711 417.06 323.79L429.563 317.82C437.086 318.32 444.985 318.175 452.714 317.461L462.112 323.116C465.1 324.928 470.39 325.588 475.49 324.532C478.633 323.876 481.755 323.149 484.777 322.361L487.978 321.493C490.911 320.68 493.778 319.784 496.59 318.84Z" fill="#F4F4F4" stroke="#1A4CE0" stroke-width="4" stroke-linejoin="round"/>
<path d="M480.615 210.342C484.6 208.421 490.299 207.597 494.85 208.508C498.099 209.153 501.257 209.904 504.325 210.759C507.393 211.615 510.281 212.551 512.99 213.568C516.798 214.989 517.467 217.621 515.206 219.991L480.615 210.342ZM480.615 210.342L468.079 216.335C460.556 215.835 452.656 215.979 444.928 216.694L435.53 211.039M480.615 210.342L435.53 211.039M435.53 211.039C432.541 209.227 427.251 208.567 422.151 209.623C418.964 210.267 415.876 210.971 412.821 211.781M435.53 211.039L395.402 221.859M395.402 221.859C394.372 219.517 396.469 216.874 401.085 215.291C403.897 214.347 406.765 213.451 409.731 212.616M395.402 221.859L398.587 229.205L395.402 221.859ZM409.731 212.616L412.821 211.781M409.731 212.616L410.907 213.968L410.941 213.959M409.731 212.616L410.974 213.949C410.963 213.953 410.952 213.956 410.941 213.959M412.821 211.781L413.97 213.141M412.821 211.781L413.997 213.134L413.983 213.138C416.886 212.368 419.835 211.694 422.907 211.074L422.924 211.071L422.94 211.067C426.487 210.333 430.439 210.751 432.772 212.165L432.778 212.169L442.176 217.823L443.165 218.418L444.929 218.255C452.306 217.574 459.845 217.436 467.015 217.913L468.763 218.029L470.188 217.348L482.725 211.355L482.738 211.348C485.703 209.918 489.846 209.346 493.094 209.996L493.1 209.997C496.239 210.621 499.294 211.346 502.265 212.175C505.235 213.004 508.028 213.909 510.645 214.891L510.651 214.893C513.359 215.904 513.908 217.811 512.223 219.577L512.218 219.581L505.106 227.088L504.301 227.937L505.269 228.581C509.306 231.265 512.195 234.282 513.898 237.493L514.306 238.262L515.956 238.403L531.633 239.743L531.643 239.744C535.554 240.072 538.089 241.462 538.07 243.178M413.97 213.141L538.07 243.176C538.07 243.177 538.07 243.177 538.07 243.178M413.97 213.141L410.941 213.959M413.97 213.141L537.524 247.596M538.07 243.178C538.04 244.66 537.892 246.119 537.524 247.596M538.07 243.178L537.524 247.596M537.524 247.596L537.084 249.215C536.661 250.65 536.044 252.105 535.301 253.574C534.426 255.241 531.272 256.677 527.185 257.143C527.182 257.143 527.179 257.143 527.176 257.144L510.638 258.981L508.761 259.19L507.858 260.047C506.135 261.681 504.14 263.296 501.863 264.86C499.587 266.424 497.084 267.899 494.429 269.272L493.036 269.993L493.398 270.826L496.583 278.172L496.895 278.89C497.034 280.439 495.46 281.963 492.736 282.9C490.012 283.815 487.263 284.673 484.472 285.446L481.319 286.302C478.419 287.057 475.418 287.756 472.39 288.388C468.845 289.121 464.895 288.702 462.564 287.289L462.558 287.285L453.16 281.631L452.171 281.036L450.407 281.199C443.03 281.881 435.491 282.018 428.321 281.541L426.575 281.425L425.149 282.106L412.647 288.076L412.639 288.079L412.631 288.083C409.666 289.513 405.524 290.085 402.276 289.435L402.255 289.431L402.234 289.427C399.04 288.818 395.997 288.095 393.027 287.267C390.056 286.438 387.263 285.533 384.646 284.551L384.641 284.549C381.933 283.538 381.384 281.631 383.069 279.865L383.073 279.861L390.186 272.354L390.991 271.505L390.023 270.861C385.985 268.177 383.097 265.16 381.394 261.949L380.988 261.184L379.348 261.04L363.66 259.664L363.649 259.663L363.638 259.662C359.726 259.334 357.191 257.944 357.211 256.227C357.24 254.765 357.419 253.276 357.717 251.784L358.161 250.223C358.161 250.222 358.161 250.22 358.162 250.219C358.585 248.781 359.202 247.326 359.977 245.838C360.849 244.168 364.005 242.73 368.097 242.263C368.099 242.263 368.102 242.263 368.105 242.262L384.642 240.425L386.525 240.216L387.427 239.356C389.113 237.748 391.107 236.134 393.384 234.569C395.66 233.005 398.163 231.531 400.818 230.157L402.211 229.436L401.849 228.603L398.664 221.258L398.662 221.254C397.88 219.474 399.492 217.612 402.634 216.531C405.351 215.619 408.105 214.758 410.941 213.959M380.086 279.451L387.198 271.945C382.973 269.136 379.946 265.976 378.16 262.608L362.471 261.232L380.086 279.451ZM380.086 279.451C377.825 281.821 378.494 284.453 382.302 285.874C385.01 286.891 387.899 287.827 390.966 288.682C394.034 289.538 397.192 290.289 400.52 290.923C405.07 291.834 410.77 291.01 414.754 289.089L427.257 283.119C434.78 283.62 442.68 283.475 450.408 282.761L459.806 288.415L380.086 279.451ZM380.086 279.451L380.086 279.451L380.086 279.451ZM465.951 237.167C479.075 240.827 481.795 249.415 471.634 256.396C461.474 263.377 442.543 265.926 429.419 262.265C416.295 258.604 413.575 250.016 423.735 243.035C433.896 236.055 452.826 233.506 465.951 237.167Z" fill="#F4F4F4" stroke="#1A4CE0" stroke-width="5"/>
<path d="M499.968 277.572C500.998 279.914 498.9 282.558 494.284 284.14C491.472 285.084 488.605 285.98 485.672 286.792L482.471 287.66C479.449 288.448 476.327 289.175 473.185 289.832C468.084 290.887 462.794 290.227 459.806 288.415L450.408 282.761C442.679 283.475 434.78 283.62 427.257 283.119L414.754 289.089C410.77 291.01 405.07 291.834 400.52 290.923C397.192 290.289 394.034 289.538 390.966 288.683C387.899 287.827 385.01 286.891 382.301 285.874C378.494 284.453 377.824 281.821 380.086 279.451L387.198 271.945C382.973 269.136 379.946 265.976 378.159 262.608L362.471 261.232C357.457 260.812 353.855 258.992 353.886 256.522C353.917 254.998 354.104 253.452 354.414 251.908L354.87 250.307C355.313 248.8 355.957 247.284 356.757 245.746C358.049 243.269 362.637 241.32 367.954 240.716L384.509 238.877C386.282 237.186 388.378 235.488 390.775 233.842C393.172 232.195 395.802 230.646 398.587 229.205L395.402 221.859C394.372 219.517 396.469 216.874 401.085 215.291C403.897 214.347 406.764 213.451 409.731 212.616L412.821 211.782C415.876 210.971 418.964 210.267 422.151 209.623C427.251 208.567 432.541 209.227 435.53 211.039L444.928 216.694C452.656 215.979 460.556 215.835 468.079 216.335L480.615 210.342C484.6 208.421 490.299 207.597 494.85 208.508C498.099 209.153 501.257 209.904 504.325 210.759C507.393 211.615 510.281 212.551 512.99 213.568C516.798 214.989 517.467 217.621 515.206 219.991L508.093 227.497C512.318 230.306 515.346 233.466 517.132 236.834L532.809 238.174C537.824 238.594 541.426 240.414 541.394 242.884C541.364 244.408 541.21 245.931 540.822 247.486L540.377 249.123C539.934 250.63 539.29 252.146 538.523 253.66C537.231 256.137 532.644 258.086 527.327 258.69L510.772 260.53C508.965 262.243 506.869 263.941 504.471 265.588C502.074 267.235 499.444 268.784 496.66 270.225L499.968 277.572ZM469.026 255.668C477.972 249.522 475.672 241.869 463.89 238.582C452.108 235.296 435.29 237.616 426.344 243.763C417.397 249.909 419.697 257.563 431.479 260.849C443.262 264.135 460.079 261.815 469.026 255.668Z" fill="#F4F4F4" stroke="#1A4CE0" stroke-width="4" stroke-linejoin="round"/>
<path d="M379.246 284.316L380.261 318.426M406.663 291.764L406.602 325.275M426.486 284.084L428.202 317.635M450.507 284.145L451.995 317.921M466.484 291.297L466.792 324.324M498.637 281.909L500.529 316.305M510.118 262.257L512.302 294.876M534.577 257.642L536.011 291.789M516.18 217.934L519.688 237.405M393.955 220.307L393.355 231.97" stroke="#1A4CE0" stroke-width="4" stroke-linecap="round" stroke-linejoin="round"/>
<path d="M437.83 149.594L475 118.05M437.83 152V111.628L437.786 111.314L437.845 111.254L437.996 107.417L403 77.4048M438.079 105.357L439.276 74.6803L409.049 43.5644M437.259 22.2115L437.259 22L439.276 36.717V72.2967L466.825 51.9506M469.8 70.7929L438.489 94.8542" stroke="#C8C8C8" stroke-width="4" stroke-linecap="round" stroke-linejoin="round"/>
<path d="M61.3775 282V256.845L61.3508 256.65L61.3867 256.612L61.4798 254.221L40 235.521M61.5306 252.938L62.2654 233.824L43.7126 214.436M61.0271 201.132L61.0275 201L61.0338 201.13L62.2654 232.339L79.174 219.662M81 231.402L61.7822 246.394" stroke="#C8C8C8" stroke-width="4" stroke-linecap="round" stroke-linejoin="round"/>
</svg>
