<svg width="600" height="433" viewBox="0 0 600 433" fill="none" xmlns="http://www.w3.org/2000/svg">
<rect width="600" height="433" fill="#F4F4F4"/>
<path d="M192.845 158.349H223.68C227.335 158.351 230.945 159.155 234.256 160.703C237.567 162.25 240.499 164.505 242.846 167.307C245.192 170.11 246.896 173.392 247.838 176.924C248.779 180.456 248.935 184.151 248.295 187.75L226.222 310.386H144.552L168.229 178.897C169.274 173.13 172.311 167.914 176.81 164.158C181.309 160.403 186.984 158.347 192.845 158.349Z" fill="#F4F4F4" stroke="#C8C8C8" stroke-width="4" stroke-linecap="round" stroke-linejoin="round"/>
<path d="M529.705 181.061H560.46C564.105 181.063 567.706 181.746 571.009 183.061C574.311 184.376 577.236 186.291 579.576 188.672C581.916 191.053 583.616 193.842 584.555 196.843C585.494 199.843 585.65 202.983 585.011 206.04L562.995 310.232H481.537L505.153 198.519C506.195 193.619 509.224 189.188 513.711 185.997C518.199 182.806 523.859 181.059 529.705 181.061Z" fill="#F4F4F4" stroke="#C8C8C8" stroke-width="4" stroke-linecap="round" stroke-linejoin="round"/>
<path d="M98.7088 273.825C98.6045 273.956 91.251 273.434 86.8572 275.768C82.4634 278.102 75.5011 282.092 77.9522 284.021C80.4034 285.951 101.708 284.295 103.376 283.004C105.045 281.713 98.7088 273.825 98.7088 273.825Z" fill="#F4F4F4" stroke="#060809" stroke-width="4" stroke-linecap="round" stroke-linejoin="round"/>
<path d="M156.26 189.131C156.26 189.131 146.103 193.538 130.614 252.926C129.31 257.737 91.6823 271.948 91.6823 271.948L102.113 279.954C102.113 279.954 149.363 285.638 160.21 273.239C171.058 260.84 156.26 189.131 156.26 189.131Z" fill="#F4F4F4" stroke="#1A4CE0" stroke-width="4" stroke-linecap="round" stroke-linejoin="round"/>
<path d="M156.26 189.131C156.26 189.131 150.758 210.409 154.891 233.135C159.024 255.86 144.552 286.447 144.552 286.447C144.552 286.447 178.294 307.843 208.595 291.323C208.595 291.323 210.316 211.791 199.298 197.671C188.281 183.551 172.792 172.325 156.26 189.131Z" fill="#F4F4F4" stroke="#1A4CE0" stroke-width="4" stroke-linecap="round" stroke-linejoin="round"/>
<path d="M160.966 187.619L163.834 235.195L180.81 184.646L160.966 187.619Z" fill="#F4F4F4" stroke="#1A4CE0" stroke-width="4" stroke-linecap="round" stroke-linejoin="round"/>
<path d="M128.044 273.435C128.044 273.435 113.415 269.653 110.312 270.827C107.209 272 95.6836 276.616 96.7136 280.984C97.7436 285.351 97.2221 284.778 105.149 284.426C113.076 284.074 129.765 284.1 129.765 284.1L128.044 273.435Z" fill="#F4F4F4" stroke="#060809" stroke-width="4" stroke-linecap="round" stroke-linejoin="round"/>
<path d="M173.457 310.53C175.603 305.349 178.756 300.647 182.733 296.694C186.71 292.742 191.432 289.618 196.626 287.504C210.263 281.924 231.033 283.058 231.033 283.058L226.092 310.53H173.457Z" fill="#F4F4F4" stroke="#C8C8C8" stroke-width="4" stroke-linecap="round" stroke-linejoin="round"/>
<path d="M182.088 200.083C182.088 200.083 186.56 254.139 182.088 255.169L122.347 268.807L125.789 283.631C125.789 283.631 166.585 289.941 190.693 279.615C214.8 269.289 215.83 210.748 203.431 196.289C191.032 181.83 183.118 192.508 182.088 200.083Z" fill="#F4F4F4" stroke="#1A4CE0" stroke-width="4" stroke-linecap="round" stroke-linejoin="round"/>
<path d="M510.442 310.53C512.588 305.349 515.741 300.647 519.718 296.694C523.695 292.742 528.417 289.618 533.611 287.504C547.249 281.924 568.018 283.058 568.018 283.058L563.077 310.53H510.442Z" fill="#F4F4F4" stroke="#C8C8C8" stroke-width="4" stroke-linecap="round" stroke-linejoin="round"/>
<path d="M158.854 140.071C158.411 140.071 157.003 145.286 156.82 145.729C155.595 148.976 153.639 151.883 152.1 155.025C148.59 162.189 144.315 168.952 139.349 175.195C141.561 175.15 143.741 174.657 145.757 173.748C147.774 172.838 149.586 171.53 151.083 169.902L147.354 180.176C149.844 181.066 152.496 181.41 155.13 181.185C157.764 180.96 160.32 180.171 162.622 178.872C170.719 174.217 172.192 165.417 173.053 156.981L175.152 138.206L158.854 140.071Z" fill="#060809"/>
<path d="M163.887 174.906L160.966 187.619C160.966 187.619 159.428 195.585 167.916 194.855C170.423 194.614 172.845 193.817 175.005 192.522C177.166 191.228 179.011 189.468 180.406 187.371L183.822 164.28C183.979 163.303 185.361 153.746 187.108 145.362C177.342 143.354 168.75 140.877 168.75 140.877C169.519 142.011 166.012 141.503 166.012 141.503C164.445 141.193 162.838 141.135 161.253 141.334C159.623 146.862 156.964 152.742 156.038 158.361C155.443 161.718 155.146 165.121 155.151 168.531C155.256 174.998 163.887 174.906 163.887 174.906Z" fill="#F4F4F4"/>
<path d="M163.887 174.906L160.966 187.619C160.966 187.619 159.428 195.585 167.916 194.855C170.423 194.614 172.845 193.817 175.005 192.522C177.166 191.228 179.011 189.468 180.406 187.371L183.822 164.28C183.979 163.303 185.361 153.746 187.108 145.362C177.342 143.354 168.75 140.877 168.75 140.877C169.519 142.011 166.012 141.503 166.012 141.503C164.445 141.193 162.838 141.135 161.253 141.334C159.623 146.862 156.964 152.742 156.038 158.361C155.443 161.718 155.146 165.121 155.151 168.531C155.256 174.998 163.887 174.906 163.887 174.906Z" stroke="#060809" stroke-width="4" stroke-linecap="round" stroke-linejoin="round"/>
<path d="M168.633 155.154C168.633 155.154 163.17 160.721 163.978 162.012C164.787 163.302 167.759 163.12 167.759 163.12" stroke="#060809" stroke-width="2" stroke-linecap="round" stroke-linejoin="round"/>
<path d="M164.926 152.964C165.13 152.213 164.912 151.53 164.44 151.438C163.968 151.346 163.42 151.88 163.217 152.631C163.013 153.382 163.231 154.066 163.703 154.157C164.175 154.249 164.723 153.715 164.926 152.964Z" fill="#060809"/>
<path d="M174.66 156.49C174.863 155.739 174.645 155.056 174.173 154.964C173.701 154.872 173.154 155.406 172.95 156.157C172.746 156.908 172.964 157.591 173.436 157.683C173.908 157.775 174.456 157.241 174.66 156.49Z" fill="#060809"/>
<path d="M166.273 149.574L167.642 146.967L168.62 150.096L176.808 152.521L179.076 149.131L178.842 153.72L183.157 154.164C182.023 154.046 176.938 174.412 176.443 176.094C175.543 179.144 174.461 182.456 171.814 184.229C174.656 185.298 177.812 183.76 180.263 181.961C183.459 179.634 186.252 176.797 188.529 173.564L186.182 186.237C187.309 186.369 188.452 186.255 189.53 185.901C190.608 185.548 191.597 184.964 192.427 184.19C194.078 182.631 195.384 180.743 196.26 178.649C200.028 170.552 199.142 163.003 199.403 154.476C199.729 144.489 199.129 136.028 187.29 131.438C175.452 126.849 166.886 128.296 160.68 133.707C158.833 135.391 157.349 137.435 156.32 139.713C155.291 141.99 154.738 144.454 154.695 146.954C154.695 146.954 163.796 149.339 166.273 149.574Z" fill="#F4F4F4"/>
<path d="M166.273 149.574L167.642 146.967L168.62 150.096L176.808 152.521L179.076 149.131L178.842 153.72L183.157 154.164C182.023 154.046 176.938 174.412 176.443 176.094C175.543 179.144 174.461 182.456 171.814 184.229C174.656 185.298 177.812 183.76 180.263 181.961C183.459 179.634 186.252 176.797 188.529 173.564L186.182 186.237C187.309 186.369 188.452 186.255 189.53 185.901C190.608 185.548 191.597 184.964 192.427 184.19C194.078 182.631 195.384 180.743 196.26 178.649C200.028 170.552 199.142 163.003 199.403 154.476C199.729 144.489 199.129 136.028 187.29 131.438C175.452 126.849 166.886 128.296 160.68 133.707C158.833 135.391 157.349 137.435 156.32 139.713C155.291 141.99 154.738 144.454 154.695 146.954C154.695 146.954 163.796 149.339 166.273 149.574Z" fill="#060809"/>
<path d="M163.887 174.907C163.887 174.907 170.693 174.737 173.588 172.964" stroke="#060809" stroke-width="4" stroke-linecap="round" stroke-linejoin="round"/>
<path d="M162.636 166.732C162.636 167.726 162.901 169.715 163.962 169.715C165.023 169.715 166.172 168.63 166.614 168.088" stroke="black" stroke-width="2" stroke-linecap="round" stroke-linejoin="round"/>
<path d="M116.339 293.03H27.1588V287.41H116.339V293.03Z" fill="#F4F4F4" stroke="#060809" stroke-width="4" stroke-linecap="round" stroke-linejoin="round"/>
<path d="M69.5192 235.518H14.6029L27.5106 287.514H82.4269L69.5192 235.518Z" fill="#F4F4F4" stroke="#060809" stroke-width="4" stroke-linecap="round" stroke-linejoin="round"/>
<path d="M488.289 242.156C488.289 242.156 494.443 290.397 491.053 294.308C487.664 298.219 426.619 289.471 420.153 289.158C413.686 288.845 400.934 292.77 401.247 286.003C401.56 279.236 417.962 278.728 422.265 280.879C426.567 283.03 468.602 279.575 468.602 279.575L467.376 242.143L488.289 242.156Z" fill="#F4F4F4" stroke="#060809" stroke-width="4" stroke-linecap="round" stroke-linejoin="round"/>
<path d="M491.936 190.151C491.584 190.998 476.564 198.339 469.771 216.801C462.978 235.263 462.692 245.406 462.692 245.406H501.167L491.936 190.151Z" fill="#F4F4F4" stroke="#1A4CE0" stroke-width="4" stroke-linecap="round" stroke-linejoin="round"/>
<path d="M524.893 187.427C524.893 187.427 539.069 191.529 541.941 198.27C544.813 205.011 537.792 298.886 537.792 298.886H479.572C479.572 298.886 482.863 254.424 479.572 243.046C476.28 231.668 479.152 208.482 480.398 202.156C481.644 195.831 494.01 189.934 498.128 187.414C502.246 184.895 524.893 187.427 524.893 187.427Z" fill="#F4F4F4" stroke="#1A4CE0" stroke-width="4" stroke-linecap="round" stroke-linejoin="round"/>
<path d="M520.515 165.313C520.659 165.026 520.828 164.622 521.037 164.009C521.676 162.366 522.979 161.401 523.762 159.797C525.261 156.89 524.726 154.113 524.883 151.01C525.127 147.124 524.368 143.24 522.679 139.732C522.036 138.184 520.947 136.864 519.55 135.938C518.845 135.501 518.019 135.299 517.192 135.363C516.364 135.426 515.579 135.751 514.948 136.29C515.272 135.492 515.359 134.618 515.2 133.772C515.04 132.925 514.64 132.143 514.048 131.518C512.841 130.29 511.363 129.361 509.733 128.806C507.267 127.694 504.612 127.066 501.91 126.955C500.553 126.91 499.201 127.137 497.934 127.623C496.667 128.109 495.509 128.844 494.53 129.784C492.692 131.7 491.923 134.373 490.619 136.655C489.315 138.937 486.707 141.01 484.178 140.279C482.118 139.706 480.945 137.568 480.162 135.573C479.653 137.334 479.586 139.194 479.965 140.988C480.345 142.782 481.161 144.455 482.34 145.86C480.576 145.218 478.987 144.173 477.698 142.809C477.736 144.988 478.576 147.078 480.058 148.676C481.797 150.287 483.847 151.524 486.082 152.314C487.294 152.835 488.468 153.044 488.95 154.204C489.432 155.365 488.859 157.072 489.354 158.389C490.151 160.563 491.365 162.56 492.927 164.269C495.432 166.832 498.696 168.519 502.236 169.081C505.761 169.629 509.356 169.536 512.849 168.807C514.683 168.534 516.452 167.924 518.064 167.007C519.707 166.043 519.968 166.408 520.515 165.313Z" fill="#060809" stroke="#060809" stroke-width="4" stroke-linecap="round" stroke-linejoin="round"/>
<path d="M493.931 182.25L492.627 190.699C492.627 190.699 493.931 202.98 503.24 200.829C506.044 200.122 508.662 198.815 510.913 196.998C513.164 195.182 514.994 192.899 516.278 190.307L517.464 167.999C517.464 167.999 510.633 164.27 512.784 149.381C505.157 152.571 496.81 153.643 488.624 152.484C488.624 152.484 485.313 167.83 486.369 175.014C486.532 176.934 487.391 178.728 488.783 180.06C490.175 181.393 492.005 182.171 493.931 182.25Z" fill="#F4F4F4"/>
<path d="M493.931 182.25L492.627 190.699C492.627 190.699 493.931 202.98 503.24 200.829C506.044 200.122 508.662 198.815 510.913 196.998C513.164 195.182 514.994 192.899 516.278 190.307L517.464 167.999C517.464 167.999 510.633 164.27 512.784 149.381C505.157 152.571 497.033 153.701 488.847 152.542C488.847 152.542 485.313 167.83 486.369 175.014C486.532 176.934 487.391 178.728 488.783 180.06C490.175 181.393 492.005 182.171 493.931 182.25Z" fill="#F4F4F4" stroke="#060809" stroke-width="4" stroke-linecap="round" stroke-linejoin="round"/>
<path d="M498.69 161.48C498.69 161.48 494.283 169.563 495.613 170.776C496.943 171.988 500.268 170.776 500.268 170.776" fill="#F4F4F4"/>
<path d="M503.644 162.086C503.033 162.065 502.587 161.115 502.645 159.964C502.704 158.812 503.246 157.897 503.856 157.918C504.466 157.939 504.913 158.889 504.854 160.04C504.796 161.191 504.254 162.107 503.644 162.086Z" fill="#060809"/>
<path d="M491.509 162.558C490.899 162.538 490.449 161.588 490.505 160.435C490.561 159.283 491.101 158.366 491.712 158.386C492.322 158.406 492.772 159.356 492.716 160.508C492.66 161.661 492.12 162.578 491.509 162.558Z" fill="#060809"/>
<path d="M511.441 164.218C512.263 162.816 513.348 161.585 514.635 160.593C515.298 160.007 516.128 159.642 517.008 159.55C517.734 159.547 518.446 159.755 519.055 160.15C519.969 160.687 520.759 161.41 521.374 162.273C521.99 163.135 522.417 164.118 522.628 165.156C522.831 166.12 522.79 167.119 522.51 168.064C521.984 169.524 520.965 170.755 519.629 171.545C518.296 172.315 516.879 172.927 515.405 173.37" fill="#F4F4F4"/>
<path d="M511.441 164.218C512.263 162.816 513.348 161.585 514.635 160.593C515.298 160.007 516.128 159.642 517.008 159.55C517.734 159.547 518.446 159.755 519.055 160.15C519.969 160.687 520.759 161.41 521.374 162.273C521.99 163.135 522.417 164.118 522.628 165.156C522.831 166.12 522.79 167.119 522.51 168.064C521.984 169.524 520.965 170.755 519.629 171.545C518.296 172.315 516.879 172.927 515.405 173.37" stroke="#060809" stroke-width="4" stroke-linecap="round" stroke-linejoin="round"/>
<path d="M493.93 182.251C499.265 183.058 504.718 182.144 509.498 179.643" stroke="#060809" stroke-width="4" stroke-linecap="round" stroke-linejoin="round"/>
<path d="M551.9 242.156C551.9 242.156 558.054 290.397 554.664 294.308C551.274 298.219 490.23 289.471 483.763 289.158C477.296 288.845 464.545 292.77 464.858 286.003C465.171 279.236 481.573 278.728 485.875 280.879C490.178 283.03 532.213 279.575 532.213 279.575L530.987 242.143L551.9 242.156Z" fill="#F4F4F4" stroke="#060809" stroke-width="4" stroke-linecap="round" stroke-linejoin="round"/>
<path d="M534.31 193.945C536.726 194.056 539.903 195.614 540.177 195.927C545.197 201.364 548 205.171 550.073 212.185C552.776 221.914 554.325 231.926 554.689 242.016C554.689 242.016 534.075 249.409 525.157 245.054C525.157 245.054 519.942 208.143 525.157 198C527.035 194.388 530.405 193.766 534.31 193.945Z" fill="#F4F4F4" stroke="#1A4CE0" stroke-width="4" stroke-linecap="round" stroke-linejoin="round"/>
<path d="M496.28 160.634C495.415 162.692 493.759 167.317 494.056 169.352C494.352 171.386 498.134 170.441 499.988 169.715" stroke="#060809" stroke-width="2" stroke-linecap="round" stroke-linejoin="round"/>
<path d="M503.731 173.711C502.154 175.677 498.168 178.747 494.848 175.293" stroke="#060809" stroke-width="2" stroke-linecap="round" stroke-linejoin="round"/>
<path d="M464.616 58H423.581C414.647 58 406.079 61.5594 399.762 67.8952C393.445 74.231 389.896 82.8242 389.896 91.7844V91.7844C389.896 100.745 393.445 109.338 399.762 115.674C406.079 122.009 414.647 125.569 423.581 125.569H433.346C433.098 133.494 440.12 146.231 456.432 166.407C456.432 166.407 438.426 143.899 441.508 125.569H464.616C473.55 125.569 482.119 122.009 488.436 115.674C494.753 109.338 498.302 100.745 498.302 91.7844V91.7844C498.302 87.3477 497.431 82.9546 495.738 78.8556C494.045 74.7567 491.564 71.0324 488.436 67.8952C485.308 64.758 481.594 62.2695 477.507 60.5717C473.42 58.8739 469.04 58 464.616 58Z" stroke="#C8C8C8" stroke-width="4" stroke-linecap="round" stroke-linejoin="round"/>
<path d="M430.794 97.6173C430.788 104.379 428.588 110.951 424.532 116.327C420.476 121.702 414.788 125.583 408.341 127.374C408.006 139.347 397.381 147.763 396.711 148.281C402.72 140.935 403.285 133.673 402.448 128.369C401.725 128.433 401.003 128.465 400.27 128.465H376.781C368.685 128.465 360.922 125.212 355.197 119.423C349.473 113.634 346.257 105.783 346.257 97.5961C346.257 89.4093 349.473 81.5578 355.197 75.7689C360.922 69.9799 368.685 66.7277 376.781 66.7277H400.27C404.281 66.7277 408.251 67.5268 411.956 69.0794C415.661 70.6321 419.027 72.9077 421.861 75.7763C424.696 78.645 426.944 82.0504 428.477 85.798C430.009 89.5455 430.797 93.5618 430.794 97.6173Z" fill="#F4F4F4" stroke="#C8C8C8" stroke-width="4" stroke-linecap="round" stroke-linejoin="round"/>
<path d="M22.458 295.394C28.6156 307.393 35.2757 318.669 42.3896 329.14L560.229 330.305C567.343 319.835 574.003 308.559 580.16 296.56L22.458 295.394Z" fill="#F4F4F4" stroke="#060809" stroke-width="4" stroke-linecap="round" stroke-linejoin="round"/>
<path d="M416.026 338.343L406.418 323.125L436.576 299.036L449.024 285.218C450.642 283.423 452.701 282.084 454.996 281.336C457.291 280.588 459.742 280.457 462.104 280.955C464.466 281.454 466.656 282.565 468.455 284.177C470.254 285.789 471.6 287.846 472.357 290.142C473.479 293.545 473.238 297.252 471.684 300.48C470.13 303.708 467.386 306.205 464.029 307.444L444.345 314.71L416.026 338.343Z" fill="#F4F4F4" stroke="#060809" stroke-width="4" stroke-linecap="round" stroke-linejoin="round"/>
<path d="M276.871 246.956L264.653 256.556L262.907 260.047L267.07 270.9L272.475 287.388L282.645 318.374L282.744 323.187V323.204L283.5 361.923L281.405 367.173L283.762 375.779C283.762 375.779 282.678 362.77 276.862 370.241C273.568 374.486 269.715 378.83 266.553 382.903C271.161 384.771 275.843 386.46 280.6 387.971C281.627 388.3 282.662 388.613 283.697 388.926C283.918 388.992 284.14 389.057 284.362 389.123C300.129 393.793 316.428 396.417 332.862 396.931C333.716 396.956 334.554 396.972 335.367 396.989C335.655 396.997 335.934 397.005 336.213 397.005C337.133 397.014 338.045 397.022 338.965 397.022C340.822 397.022 342.67 396.994 344.51 396.94C358.13 396.555 371.67 394.721 384.902 391.468C384.811 385.997 384.565 379.604 384.212 372.775C384.047 369.426 380.359 365.798 380.137 362.293C379.981 359.66 383.292 357.183 383.119 354.509C382.002 338.045 380.605 344.365 379.57 332.707C379.464 331.563 379.365 330.469 379.275 329.424C378.609 321.937 378.149 317.255 378.149 317.255L382.569 289.355L389.51 245.55L388.976 244.67L388.377 244.374L351.764 226.223L349.776 221.122C349.196 219.653 348.192 218.39 346.89 217.497C345.589 216.604 344.05 216.122 342.473 216.111L318.354 216.013C317.103 216.007 315.868 216.3 314.752 216.869C313.636 217.437 312.672 218.263 311.939 219.279L305.408 228.338L276.871 246.956Z" fill="#F4F4F4" stroke="#1A4CE0" stroke-width="4" stroke-linecap="round" stroke-linejoin="round"/>
<path d="M287.781 311.328L282.605 323.049C275.939 329.58 245.209 365.505 244.142 354.359C244.298 354.195 244.462 354.03 244.625 353.865C245.061 353.437 245.427 353.033 245.419 352.646C245.108 332.73 241.159 301.345 248.958 280.811C250.179 277.458 251.79 274.279 253.753 271.346C253.908 271.124 254.056 270.902 254.204 270.679C257.8 265.35 258.789 261.222 263.295 256.372C269.405 249.795 279.884 245.654 282.605 243.901L286.466 272.096L287.143 292.391L287.781 311.328Z" fill="#F4F4F4" stroke="#1A4CE0" stroke-width="4" stroke-linecap="round" stroke-linejoin="round"/>
<path d="M372.603 315.081L379.401 329.662L381.773 334.739L388.163 368.282L391.353 371.678L394.1 359.628L395.392 359.363L418.677 354.528L425.464 376.136C426.994 373.581 427.596 370.575 427.17 367.626C426.744 364.677 425.315 361.966 423.124 359.951C422.661 359.531 422.275 359.122 422.286 358.734C422.672 335.403 421.248 292.801 408.392 275.266C404.308 269.702 401.859 264.159 398.294 260.287C398.283 260.276 398.283 260.265 398.272 260.265L389.598 246.027L389.068 245.153L388.472 244.855L372.603 315.081Z" fill="#F4F4F4" stroke="#1A4CE0" stroke-width="4" stroke-linecap="round" stroke-linejoin="round"/>
<path d="M333.45 209.051C351.027 209.051 365.276 194.802 365.276 177.225C365.276 159.648 351.027 145.399 333.45 145.399C315.873 145.399 301.624 159.648 301.624 177.225C301.624 194.802 315.873 209.051 333.45 209.051Z" stroke="#060809" stroke-width="4" stroke-linecap="round" stroke-linejoin="round"/>
<path d="M373.944 154.665C373.697 154.396 373.399 154.181 373.068 154.033C372.738 153.884 372.381 153.804 372.02 153.799L372.499 152.445C372.655 152.019 372.698 151.558 372.621 151.11C372.545 150.661 372.353 150.242 372.065 149.894C371.776 149.546 371.403 149.282 370.981 149.129C370.56 148.977 370.106 148.941 369.667 149.025L367.921 149.367L368.086 148.181C368.149 147.739 368.098 147.288 367.938 146.873C367.778 146.457 367.514 146.091 367.173 145.811C366.831 145.53 366.424 145.345 365.991 145.273C365.558 145.201 365.114 145.245 364.703 145.401C364.329 145.551 363.927 145.614 363.526 145.585C363.125 145.556 362.735 145.436 362.386 145.234C362.035 145.038 361.73 144.766 361.493 144.438C361.256 144.11 361.092 143.734 361.012 143.334L360.404 140.351L360.34 140.191C357.379 135.169 351.686 131.516 344.719 130.177C338.518 128.976 332.16 129.588 326.03 130.163C323.599 130.395 320.852 130.657 318.563 132.084C316.618 133.306 314.973 135.752 315.309 138.218C309.265 136.334 302.785 140.096 299.574 144.841C295.769 150.488 295.147 157.561 295.046 163.092C294.775 176.176 297.428 186.881 302.914 194.915C303.315 195.497 303.415 196.713 304.209 197.12L304.044 196.851C304.931 197.302 305.832 198.03 305.496 198.808C304.53 201.05 310.946 206.006 315.466 207.643C323.713 210.634 334.677 210.379 342.388 209.302L342.659 207.447C345.442 207.061 347.401 206.326 347.952 205.176C348.925 204.332 349.755 203.575 350.477 202.876L350.484 202.869C350.498 202.855 350.527 202.833 350.541 202.818C354.024 199.42 354.833 197.484 355.197 194.537C355.548 191.648 354.926 188.715 354.289 186.073C367.693 188.184 349.011 171.548 361.499 168.332C361.642 168.287 361.788 168.25 361.935 168.222C362.3 168.135 362.664 168.048 363.015 167.946C364.704 167.479 366.322 166.776 367.821 165.857C371.312 163.696 372.463 160.829 374.266 157.598C374.526 157.138 374.635 156.605 374.577 156.078C374.519 155.55 374.297 155.055 373.944 154.665Z" fill="#060809"/>
<path d="M443.931 324.064C443.987 321.813 444.001 319.994 444.008 318.694C443.981 318.491 443.942 318.29 443.889 318.092C443.842 317.884 443.779 317.681 443.7 317.483C443.597 317.193 443.471 316.912 443.322 316.644C443.267 316.54 443.211 316.429 443.148 316.325C443.078 316.199 442.994 316.065 442.91 315.939C442.847 315.835 442.77 315.731 442.7 315.627C442.554 315.419 442.4 315.211 442.232 315.003C442.218 314.979 442.202 314.956 442.183 314.936C442.064 314.787 441.938 314.639 441.799 314.49C441.765 314.447 441.727 314.407 441.687 314.372C441.594 314.26 441.496 314.153 441.393 314.052C441.086 313.725 440.75 313.406 440.387 313.072C440.282 312.968 440.17 312.879 440.065 312.775C439.939 312.671 439.813 312.559 439.681 312.455C439.674 312.455 439.674 312.455 439.674 312.448C439.282 312.114 438.863 311.787 438.422 311.453C438.289 311.364 438.164 311.267 438.031 311.17C437.437 310.74 436.801 310.309 436.13 309.871C435.787 309.655 435.444 309.433 435.088 309.217C434.983 309.158 434.878 309.091 434.773 309.032C434.697 308.987 434.627 308.942 434.55 308.898C434.088 308.623 433.606 308.341 433.11 308.059C432.62 307.784 432.11 307.502 431.586 307.219C431.194 307.019 430.796 306.803 430.39 306.603C430.216 306.514 430.034 306.417 429.859 306.328C429.782 306.291 429.705 306.254 429.629 306.209L429.083 305.942C428.846 305.823 428.608 305.712 428.37 305.593C427.888 305.355 427.393 305.125 426.897 304.895L426.895 304.895C426.651 304.776 426.399 304.657 426.14 304.546C425.833 304.397 425.525 304.256 425.211 304.122C424.903 303.981 424.582 303.84 424.267 303.706C423.945 303.558 423.624 303.417 423.295 303.283C422.974 303.142 422.638 303.008 422.31 302.867C422.142 302.793 421.974 302.726 421.799 302.644C421.527 302.533 421.254 302.414 420.975 302.303C420.066 301.931 419.136 301.56 418.192 301.189C417.535 300.936 416.878 300.669 416.214 300.416C415.18 300.023 414.124 299.629 413.048 299.235C411.971 298.842 410.881 298.448 409.762 298.062C408.357 297.572 406.91 297.081 405.442 296.599C404.953 296.443 404.457 296.279 403.96 296.116C401.954 295.455 399.892 294.801 397.788 294.155C396.38 293.722 394.957 293.294 393.517 292.87C391.347 292.232 389.141 291.6 386.897 290.977C385.946 290.709 384.996 290.449 384.024 290.197L383.793 290.13C382.472 289.766 381.13 289.409 379.788 289.053C379.25 288.912 378.711 288.771 378.166 288.637C376.19 288.125 374.196 287.62 372.182 287.122C371.176 286.877 370.162 286.624 369.149 286.379C362.983 284.886 356.664 283.46 350.31 282.124C349.345 281.923 348.374 281.722 347.409 281.522C346.6 281.352 345.791 281.188 344.981 281.025L344.976 281.024L344.969 281.023C344.161 280.86 343.352 280.697 342.544 280.542L341.118 280.252C340.069 280.045 339.027 279.846 337.985 279.647L337.965 279.643C333.815 278.858 329.689 278.113 325.585 277.407C321.489 276.702 317.421 276.048 313.415 275.447C310.773 275.053 308.172 274.674 305.6 274.333C305.258 274.281 304.915 274.236 304.573 274.192L304.572 274.192C303.671 274.065 302.769 273.946 301.881 273.835C301.315 273.761 300.749 273.694 300.183 273.627C299.456 273.523 298.708 273.441 297.974 273.352C297.417 273.283 296.871 273.227 296.318 273.163C296.101 273.138 295.885 273.114 295.668 273.089C294.962 273.009 294.249 272.922 293.549 272.847C293.393 272.827 293.231 272.812 293.074 272.798L293.039 272.795C292.305 272.714 291.578 272.639 290.851 272.558C290.774 272.55 290.697 272.543 290.613 272.535L290.61 272.535C289.814 272.453 289.018 272.372 288.229 272.298L288.214 272.296C287.429 272.222 286.644 272.149 285.874 272.075C285.099 272.009 284.339 271.943 283.579 271.877L283.553 271.874C283.203 271.837 282.861 271.815 282.518 271.785L281.889 271.741C281.428 271.711 280.967 271.674 280.506 271.637L280.505 271.637C279.96 271.6 279.421 271.555 278.883 271.525C278.234 271.477 277.591 271.434 276.954 271.392L276.828 271.384C276.14 271.342 275.451 271.306 274.769 271.27L274.675 271.265C273.654 271.206 272.662 271.161 271.676 271.124C271.606 271.124 271.536 271.117 271.46 271.117C270.358 271.066 269.283 271.037 268.228 271.008L268.139 271.005C265.804 270.953 263.582 270.939 261.47 270.983C260.729 270.998 260.002 271.02 259.296 271.043C259.038 271.05 258.786 271.057 258.542 271.072C258.29 271.08 258.038 271.087 257.794 271.102C257.5 271.117 257.213 271.132 256.927 271.147L256.193 271.191C253.592 271.362 251.237 271.622 249.161 271.971L249.159 271.971C248.915 272.016 248.671 272.06 248.434 272.105C248.259 272.134 248.084 272.164 247.916 272.201C247.797 272.231 247.679 272.253 247.567 272.275C246.637 272.476 245.777 272.691 244.98 272.944C244.82 272.981 244.666 273.033 244.512 273.085C244.407 273.122 244.309 273.159 244.204 273.189C243.918 273.293 243.652 273.389 243.387 273.493C242.617 273.797 241.875 274.175 241.171 274.622C241.073 274.697 240.968 274.763 240.87 274.83C240.589 275.031 240.323 275.255 240.073 275.499C240.008 275.555 239.947 275.617 239.891 275.684C239.869 275.7 239.85 275.72 239.836 275.744C239.801 275.781 239.773 275.818 239.745 275.848C239.715 275.876 239.689 275.909 239.668 275.944C239.636 275.975 239.608 276.01 239.584 276.048C239.549 276.085 239.521 276.123 239.486 276.167C239.409 276.271 239.339 276.383 239.276 276.486C239.263 276.51 239.252 276.535 239.241 276.561C239.227 276.583 239.206 276.613 239.192 276.635C239.166 276.678 239.143 276.723 239.123 276.769C239.103 276.804 239.087 276.842 239.074 276.88C239.011 277.014 238.955 277.155 238.906 277.289C238.934 277.734 238.962 278.187 238.983 278.648C239.057 280.034 239.13 281.485 239.199 283C240.241 306.44 240.087 334.885 242.485 359.758C242.72 361.222 243.24 364.034 243.785 365.402C245.658 370.007 246.162 372.708 250.824 376.246C253.376 377.726 255.955 379.142 258.562 380.494C258.66 380.546 258.758 380.598 258.849 380.65C259.548 381.014 260.254 381.37 260.953 381.712C260.978 381.733 261.007 381.748 261.037 381.757C264.376 383.433 267.755 385.002 271.173 386.465C275.651 388.389 280.197 390.127 284.811 391.679C285.811 392.021 286.81 392.34 287.817 392.667L288.467 392.867C303.771 397.679 319.594 400.382 335.546 400.911C336.371 400.933 337.189 400.948 337.979 400.97L337.981 400.97C338.253 400.978 338.525 400.985 338.797 400.985L338.843 400.985C339.722 400.993 340.588 401 341.467 401C343.271 401 345.067 400.978 346.85 400.918C360.07 400.521 373.214 398.632 386.058 395.281C387.785 394.836 389.49 394.36 391.196 393.855C392.832 393.387 394.447 392.882 396.068 392.362C404.368 389.675 412.484 386.384 420.36 382.514C420.597 382.403 420.835 382.284 421.08 382.165C422.617 381.408 424.148 380.62 425.672 379.818C428.384 378.385 431.076 376.877 433.725 375.31C434.655 374.753 435.598 374.196 436.514 373.617C442.556 362.781 443.357 342.654 443.553 337.276C443.567 337.009 443.574 336.749 443.581 336.482C443.728 332.627 443.819 329.159 443.91 325.022C443.917 324.695 443.924 324.376 443.931 324.064Z" fill="#F4F4F4" stroke="#C8C8C8" stroke-width="4" stroke-linecap="round" stroke-linejoin="round"/>
<path d="M38.1543 256.604L32.0001 262.758L38.1543 268.912" stroke="#060809" stroke-width="4" stroke-linecap="round" stroke-linejoin="round"/>
<path d="M51.7286 254L44.1543 271.516" stroke="#060809" stroke-width="4" stroke-linecap="round" stroke-linejoin="round"/>
<path d="M57.7286 256.604L63.8828 262.758L57.7286 268.912" stroke="#060809" stroke-width="4" stroke-linecap="round" stroke-linejoin="round"/>
</svg>
