<svg width="600" height="539" viewBox="0 0 600 539" fill="none" xmlns="http://www.w3.org/2000/svg">
<rect width="600" height="539" fill="#F4F4F4"/>
<path d="M229.846 32.6365L229.409 32.9268C226.739 34.8135 217.274 45.8438 214.847 45.9405C139 56 151.052 161.298 201 200C220.901 215.481 260.377 253.483 285.569 247.532C304.208 243.081 321.342 227.552 322.071 208.443C341.486 206.894 362.407 204.717 376.775 191.655C385.144 183.375 391.114 172.995 394.055 161.613C402.618 134.084 399.986 104.304 386.725 78.6925C362.989 34.7652 299.888 7.72181 251.834 21.7031C243.972 24.1691 236.551 27.8592 229.846 32.6365Z" fill="#060809" stroke="#060809" stroke-width="4" stroke-linecap="round" stroke-linejoin="round"/>
<path d="M130.412 209.552C130.594 219.233 131.35 228.894 132.678 238.482C133.958 248.186 131.43 258.012 125.638 265.848C121.797 269.683 117.047 272.452 111.845 273.89C106.643 275.328 101.164 275.386 95.9332 274.058C85.5826 271.293 75.7901 266.712 67 260.522C67.0724 268.699 69.2058 276.722 73.1977 283.83C77.1896 290.937 82.9076 296.892 89.809 301.131C113.438 316.231 159.586 314.032 184.806 304.063C194.549 300.482 203.367 294.714 210.599 287.19C217.83 279.667 223.289 270.583 226.567 260.619C232.209 241.072 227.29 220.108 219.478 201.44C210.846 180.72 194.402 161.71 170.34 162.003C148.688 162.199 131.425 190.2 130.412 209.552Z" fill="#060809" stroke="#060809" stroke-width="4" stroke-linecap="round" stroke-linejoin="round"/>
<path d="M488 510C488 510 459.166 509.565 448.451 505.095C421.496 493.85 403.896 440.89 403.896 440.89L422.92 510C234.443 510 280.023 509.774 280.023 509.774H83C104 430.5 95.4694 422.477 121.5 377.5C139.315 346.719 188 337.5 188 337.5C188 337.5 245.5 314.932 248 314.819C271.44 313.764 295.323 312.86 316.5 314.819C330.547 316.025 373 333.974 373 333.974C373 333.974 407.467 340.5 422.92 362.312C452.986 404.753 488 510 488 510Z" fill="#F4F4F4" stroke="#1A4CE0" stroke-width="4" stroke-linecap="round" stroke-linejoin="round"/>
<path d="M377.649 422L326 427.427C326.388 430.141 326.777 437.119 331.437 453.789C338.383 478.639 361.986 477.825 374.542 473.948C382.619 468.986 379.979 437.248 377.649 422Z" fill="#F4F4F4" stroke="#C8C8C8" stroke-width="4" stroke-linecap="round" stroke-linejoin="round"/>
<path d="M247.658 322.167C247.658 322.167 269.37 346.831 286.963 345.978C302.302 345.235 321 324.782 321 324.782L313.352 261.067L306.129 216.949L249.511 216L247 250.823L253.866 262.49L247.658 322.167Z" fill="#F4F4F4" stroke="#060809" stroke-width="4" stroke-linecap="round" stroke-linejoin="round"/>
<path d="M270.776 271.994H278.75C287.714 272.109 296.612 270.46 304.934 267.142C313.256 263.824 320.838 258.901 327.244 252.657C333.65 246.413 338.755 238.971 342.264 230.757C345.774 222.544 349.195 213.721 349.271 204.795L350 140.5C350 140.5 310.306 131.253 285.606 121.957C244.131 106.319 232.948 84 232.948 84C231.661 98.8895 228.391 113.542 223.223 127.573C217.947 137.498 208.889 146.393 202 155.283C202 155.283 202.152 189.35 202.006 203.342C201.89 212.244 205.111 221.08 208.425 229.348C211.74 237.616 216.657 245.152 222.897 251.527C229.137 257.902 236.577 262.991 244.792 266.503C253.007 270.015 261.837 271.881 270.776 271.994Z" fill="#F4F4F4" stroke="#060809" stroke-width="4" stroke-linecap="round" stroke-linejoin="round"/>
<path d="M153 510L167 414" stroke="#1A4CE0" stroke-width="4" stroke-linecap="round" stroke-linejoin="round"/>
<path d="M223 62.3143C233.232 85.1679 246.728 108.105 269.579 122.74C281.257 129.78 293.993 135.423 307.436 139.513C327.412 146.181 346.95 147.019 363.905 159.054C379.921 170.38 391.392 185.754 396.696 203C402.652 189.377 405.012 174.783 403.605 160.278C402.197 145.773 397.058 131.718 388.559 119.134C372.529 95.8189 346.073 79.465 319.958 64.369C305.682 55.9824 290.14 47.5958 272.941 48.0151" fill="#060809"/>
<path d="M223 62.3143C233.232 85.1679 246.728 108.105 269.579 122.74C281.257 129.78 293.993 135.423 307.436 139.513C327.412 146.181 346.95 147.019 363.905 159.054C379.921 170.38 391.392 185.754 396.696 203C402.652 189.377 405.012 174.783 403.605 160.278C402.197 145.773 397.058 131.718 388.559 119.134C372.529 95.8189 346.073 79.465 319.958 64.369C305.682 55.9824 290.14 47.5958 272.941 48.0151" stroke="#060809" stroke-width="4" stroke-linecap="round" stroke-linejoin="round"/>
<path d="M411.424 240.182C407.25 237.317 404.027 228.541 402.938 224.511C399.976 222.506 392.688 217.946 387.236 215.742C381.783 213.539 379.369 209.962 378.843 208.448C378.48 205.819 382.209 203.507 383.988 203.649C388.642 206.174 400.277 212.314 409.583 216.674C418.889 221.033 423.524 236.852 424.81 243.248L429.182 212.797C429.993 210.131 434.426 205.301 437.91 206.258C441.394 207.215 439.679 219.33 438.386 225.268L439.047 235.566L436.326 256.231L441.894 304.858C442.765 310.429 443.623 322.443 440.087 325.931C435.667 330.29 424.342 327.896 417.014 325.62C411.152 323.8 410.756 314.571 411.291 310.184C411.891 307.271 412.115 301.141 408.206 299.928C403.321 298.411 389.25 286.037 388.586 281.905C387.922 277.774 378.837 273.505 367.623 269.743C356.41 265.981 355.654 262.358 356.094 258.678C356.446 255.735 360.664 254.383 363.173 254.56C369.886 256.296 380.59 259.02 383.794 259.454C388.155 260.045 391.847 260.622 392.883 260.196C392.883 260.196 395.739 259.894 397.447 257.275C399.521 254.093 400.438 248.609 400.438 248.609L401.229 245.428L399.359 241.377L386.488 230.458C379.894 232.596 360.496 234.548 355.953 230.074C354.697 228.526 354.111 223.308 360.444 222.371C366.777 221.434 383.441 219.714 388.307 218.972M377.839 209.273L371.474 207.164C370.74 208.009 369.467 210.265 370.246 212.528C371.22 215.356 374.745 219.637 378.217 220.215" stroke="#060809" stroke-width="4" stroke-linecap="round" stroke-linejoin="round"/>
<path d="M516.5 474C519.463 390.083 442.338 271.657 442.338 271.657C429.276 266.44 412.02 298.186 410.222 314.024C409.062 324.24 420.935 381.744 425.788 401.223L432.136 426.436L439.969 459.402C439.969 459.402 448.009 479.375 453.055 488.487C460.864 502.589 465.907 509.988 480 510.5C490.522 510.882 494.663 511.394 502 507C515.853 498.703 515.858 492.168 516.5 474Z" fill="#F4F4F4" stroke="#1A4CE0" stroke-width="4" stroke-linecap="round" stroke-linejoin="round"/>
<path d="M277.856 339.329L246.932 307.8C245.853 306.7 244.239 306.318 242.781 306.817L226.932 312.243C224.785 312.978 223.679 315.35 224.495 317.467L244.497 369.329C245.82 372.759 250.711 372.728 252.541 369.54C255.1 365.083 258.149 362.245 263.056 360.504C277.558 355.358 279 379.822 279 395V342.13C279 341.083 278.589 340.077 277.856 339.329Z" fill="#F4F4F4" stroke="#1A4CE0" stroke-width="4" stroke-linecap="round" stroke-linejoin="round"/>
<path d="M323.109 307.805L292.249 339.33C291.517 340.077 291.107 341.082 291.107 342.128V385.64C290.951 388.94 290.978 392.156 291.107 395V385.64C291.733 372.398 295.302 357.809 307.021 360.504C310.78 361.368 314.321 365.211 317.254 369.997C319.155 373.098 324.129 373.005 325.436 369.61L345.509 317.463C346.323 315.347 345.218 312.978 343.074 312.242L327.265 306.82C325.805 306.319 324.188 306.702 323.109 307.805Z" fill="#F4F4F4" stroke="#1A4CE0" stroke-width="4" stroke-linecap="round" stroke-linejoin="round"/>
<path d="M329 438L378 435" stroke="#C8C8C8" stroke-width="4" stroke-linecap="round" stroke-linejoin="round"/>
<path d="M266.336 363L265.336 509.825M303 363.175L302 510L266.336 509.825" stroke="#1A4CE0" stroke-width="4" stroke-linecap="round" stroke-linejoin="round"/>
<path d="M279 387.5L278.557 509.244M291 390.5L291 509.244L278.969 509.27" stroke="#1A4CE0" stroke-width="4" stroke-linecap="round" stroke-linejoin="round"/>
<path d="M314.935 169.408C316.93 169.342 318.399 166.237 318.217 162.473C318.034 158.709 316.269 155.711 314.275 155.777C312.28 155.843 310.81 158.947 310.993 162.712C311.175 166.476 312.94 169.474 314.935 169.408Z" fill="#060809"/>
<path d="M257.272 169.75C259.267 169.685 260.737 166.58 260.554 162.816C260.372 159.051 258.607 156.053 256.612 156.119C254.617 156.185 253.148 159.29 253.33 163.054C253.513 166.818 255.278 169.816 257.272 169.75Z" fill="#060809"/>
<path d="M290.031 162.994C292.444 178.539 308.457 184.034 309.466 191.856C310.474 199.679 290.031 207 284.226 201.093" stroke="#060809" stroke-width="4" stroke-linecap="round" stroke-linejoin="round"/>
<path d="M315.727 230.018L312.93 235.104C312.206 236.42 312.61 238.07 313.859 238.903L342.676 258.123C344.085 259.063 345.997 258.596 346.813 257.111L351.034 249.439L355.254 241.767C356.07 240.283 355.442 238.418 353.893 237.731L322.231 223.683C320.859 223.074 319.249 223.617 318.525 224.933L315.727 230.018Z" fill="#F4F4F4" stroke="#060809" stroke-width="4" stroke-linecap="round" stroke-linejoin="round"/>
<path d="M332.241 239.303L331.621 240.429C331.123 241.335 331.397 242.472 332.254 243.05L340.451 248.588C341.426 249.247 342.756 248.925 343.323 247.895L344.377 245.979L345.43 244.064C345.997 243.033 345.557 241.738 344.478 241.267L335.413 237.309C334.465 236.895 333.358 237.272 332.86 238.178L332.241 239.303Z" fill="#060809" stroke="#060809" stroke-width="2" stroke-linecap="round" stroke-linejoin="round"/>
<path d="M315.728 229.805L322.586 233.649" stroke="#060809" stroke-width="4" stroke-linecap="round" stroke-linejoin="round"/>
<path d="M263.871 228.551C265.047 228.627 267.468 229.677 267.746 233.267M271.883 221.914C274.44 222.552 279.508 224.534 279.325 227.357M291.67 218.379C292.744 219.299 294.371 222.182 292.286 226.355M306.435 221.25C308.162 224.126 310.718 229.946 307.128 230.223" stroke="#060809" stroke-width="4" stroke-linecap="round" stroke-linejoin="round"/>
<path d="M314.079 228.563C305.01 223.12 281.707 216.511 261.044 233.617" stroke="#060809" stroke-width="4" stroke-linecap="round" stroke-linejoin="round"/>
</svg>
