<svg width="600" height="514" viewBox="0 0 600 514" fill="none" xmlns="http://www.w3.org/2000/svg">
<rect width="600" height="513.678" fill="#F4F4F4"/>
<path d="M580 373.61C523.732 335.505 421.004 310 303.601 310C181.744 310 75.6959 337.476 21 378" stroke="#1A4CE0" stroke-width="4" stroke-linecap="round"/>
<path d="M237.836 328.243H229.442L225.449 295.868L237.837 295.869L237.836 328.243Z" fill="#F4F4F4" stroke="#C8C8C8" stroke-width="4" stroke-linecap="round" stroke-linejoin="round"/>
<path d="M239.977 325.503L223.447 325.503H223.447C220.653 325.503 217.974 326.613 215.998 328.588C214.023 330.564 212.913 333.243 212.913 336.037V336.379L239.977 336.38L239.977 325.503Z" fill="#C8C8C8"/>
<path d="M268.068 328.243H259.674L255.682 295.868L268.07 295.869L268.068 328.243Z" fill="#F4F4F4" stroke="#C8C8C8" stroke-width="4" stroke-linecap="round" stroke-linejoin="round"/>
<path d="M270.209 325.503L253.679 325.503H253.678C250.885 325.503 248.205 326.613 246.23 328.588C244.254 330.564 243.144 333.243 243.144 336.037V336.379L270.208 336.38L270.209 325.503Z" fill="#C8C8C8"/>
<path d="M271.487 181.512V266.992V319.133H253.634L245.519 218.301L240.28 279.9V319.133L218.64 318.051L219.009 181.512H271.487Z" fill="#F4F4F4" stroke="#C8C8C8" stroke-width="4" stroke-linecap="round" stroke-linejoin="round"/>
<path d="M256.129 108.073L259.586 111.723L262.832 184.761L224.42 183.678L233.618 119.839L241.733 112.062L245.85 108.073H256.129Z" fill="#F4F4F4" stroke="#C8C8C8" stroke-width="4" stroke-linecap="round" stroke-linejoin="round"/>
<path d="M262.29 116.05L259.374 111.318L258.503 121.46C258.503 121.46 251.469 144.183 252.01 164.2C252.551 184.218 249.305 231.286 253.633 231.827C257.962 232.368 276.356 233.45 276.356 229.663C276.356 225.876 277.438 125.247 277.438 125.247L262.29 116.05Z" fill="#F4F4F4" stroke="#C8C8C8" stroke-width="4" stroke-linecap="round" stroke-linejoin="round"/>
<path d="M242.604 111.318L235.24 117.132L219.01 123.083C219.01 123.083 219.01 192.333 215.763 208.564C212.517 224.794 206.566 226.417 214.14 226.958C221.715 227.499 221.174 224.794 221.174 224.794C221.174 224.794 215.763 197.743 222.797 192.333C229.83 186.923 243.355 155.544 242.273 138.232C241.191 120.919 243.686 111.318 242.604 111.318Z" fill="#F4F4F4" stroke="#C8C8C8" stroke-width="4" stroke-linecap="round" stroke-linejoin="round"/>
<path d="M276.339 221.841C275.789 221.259 275.373 220.564 275.12 219.804C274.868 219.045 274.785 218.239 274.877 217.443C274.97 216.648 275.236 215.882 275.656 215.201C276.076 214.52 276.641 213.938 277.31 213.499L274.971 201.203L282.097 197.959L285.156 215.37C285.82 216.543 286.031 217.919 285.748 219.237C285.465 220.555 284.709 221.724 283.622 222.522C282.535 223.319 281.194 223.691 279.851 223.565C278.509 223.44 277.259 222.826 276.339 221.841Z" fill="#F4F4F4" stroke="#C8C8C8" stroke-width="4" stroke-linecap="round" stroke-linejoin="round"/>
<path d="M274.734 125.247L276.17 124.476C276.17 124.476 283.931 127.411 283.39 129.575C282.849 131.739 287.718 207.481 286.095 210.186C284.472 212.891 271.488 210.727 271.488 210.727L274.734 125.247Z" fill="#F4F4F4" stroke="#C8C8C8" stroke-width="4" stroke-linecap="round" stroke-linejoin="round"/>
<path d="M212.973 216.741C213.598 216.241 214.106 215.61 214.462 214.892C214.817 214.174 215.011 213.388 215.029 212.587C215.047 211.787 214.89 210.992 214.568 210.259C214.246 209.526 213.767 208.872 213.165 208.344L217.183 196.49L210.575 192.292L205.136 209.111C204.316 210.181 203.917 211.515 204.014 212.86C204.112 214.204 204.7 215.466 205.666 216.407C206.632 217.347 207.909 217.9 209.256 217.962C210.602 218.024 211.925 217.589 212.973 216.74V216.741Z" fill="#F4F4F4" stroke="#C8C8C8" stroke-width="4" stroke-linecap="round" stroke-linejoin="round"/>
<path d="M219.314 206.407C219.314 206.407 206.155 206.754 204.922 203.85C203.689 200.947 218.991 126.607 218.755 124.389C218.518 122.171 226.61 120.338 226.61 120.338L227.927 121.3L219.314 206.407Z" fill="#F4F4F4" stroke="#C8C8C8" stroke-width="4" stroke-linecap="round" stroke-linejoin="round"/>
<path d="M254.846 102.147H245.014C245.014 105.784 243.691 119.623 250.632 119.446C257.372 119.274 255.97 105.837 255.97 102.147H254.846Z" fill="#F4F4F4" stroke="#C8C8C8" stroke-width="4" stroke-linecap="round" stroke-linejoin="round"/>
<path d="M251.816 103.846C245.005 106.09 237.665 102.388 235.42 95.5774C233.176 88.7665 236.878 81.4259 243.689 79.1817C250.5 76.9374 257.84 80.6394 260.085 87.4502C262.329 94.261 258.627 101.602 251.816 103.846Z" fill="#F4F4F4" stroke="#C8C8C8" stroke-width="4" stroke-linecap="round" stroke-linejoin="round"/>
<path d="M240.614 91.9124C241.134 92.8337 242.528 93.5793 244.75 91.1417" stroke="#C8C8C8" stroke-width="2" stroke-linecap="round" stroke-linejoin="round"/>
<path d="M252.726 92.775C251.915 93.4741 249.975 94.1115 248.703 91.0687" stroke="#C8C8C8" stroke-width="2" stroke-linecap="round" stroke-linejoin="round"/>
<path d="M248.381 99.8892C247.467 98.6968 245.657 98.3234 243.601 98.821" stroke="#C8C8C8" stroke-width="2" stroke-linecap="round" stroke-linejoin="round"/>
<path d="M264.596 96.9732C264.596 96.9732 258.602 103.853 256.634 96.9726C257.961 92.1069 262.393 87.6954 253.538 89.8951C249.557 92.528 247.787 84.1446 247.787 84.1446C247.787 84.1446 237.995 82.3752 234.959 89.8951C229.795 86.7987 229.795 83.6205 229.795 83.6205C228.684 77.2471 234.074 80.6058 234.074 80.6058C232.055 82.271 234.959 77.5093 234.959 77.5093C235.787 73.4249 239.415 74.8139 239.415 74.8139C244.504 68.6736 248.29 74.7312 248.29 74.7312C256.621 73.9363 260.239 78.4833 260.239 78.4833C267.251 81.4905 264.596 96.9732 264.596 96.9732Z" fill="#C8C8C8"/>
<path d="M408.521 136.815L404.748 117.147L415.05 114.65L422.854 125.264L408.521 136.815Z" fill="#F4F4F4" stroke="#C8C8C8" stroke-width="4" stroke-linecap="round" stroke-linejoin="round"/>
<path d="M387.875 222.235C388.614 221.973 389.287 221.553 389.846 221.003C390.405 220.453 390.837 219.787 391.111 219.052C391.385 218.317 391.495 217.532 391.432 216.75C391.369 215.968 391.136 215.209 390.749 214.528L403.32 200.196L393.507 198.842L383.073 212.659C381.971 213.386 381.173 214.492 380.832 215.767C380.49 217.043 380.629 218.399 381.22 219.58C381.812 220.76 382.817 221.682 384.043 222.172C385.269 222.661 386.633 222.684 387.875 222.235Z" fill="#F4F4F4" stroke="#C8C8C8" stroke-width="4" stroke-linecap="round" stroke-linejoin="round"/>
<path d="M403.035 349.246L394.267 349.245L390.096 315.426L403.037 315.426L403.035 349.246Z" fill="#F4F4F4" stroke="#C8C8C8" stroke-width="4" stroke-linecap="round" stroke-linejoin="round"/>
<path d="M405.272 357.746L377 357.745V357.388C377 354.469 378.16 351.671 380.223 349.607C382.287 347.543 385.086 346.384 388.004 346.384H388.005L405.272 346.384L405.272 357.746Z" fill="#C8C8C8"/>
<path d="M448.933 341.909L440.559 344.509L426.546 313.447L438.906 309.611L448.933 341.909Z" fill="#F4F4F4" stroke="#C8C8C8" stroke-width="4" stroke-linecap="round" stroke-linejoin="round"/>
<path d="M453.589 349.362L426.588 357.745L426.482 357.404C425.617 354.617 425.894 351.6 427.253 349.017C428.612 346.434 430.941 344.497 433.728 343.631L433.729 343.631L450.22 338.511L453.589 349.362Z" fill="#C8C8C8"/>
<path d="M396.321 193.325L383.336 208.197L393.502 209.112L396.321 193.325Z" fill="#F4F4F4" stroke="#C8C8C8" stroke-width="4" stroke-linecap="round" stroke-linejoin="round"/>
<path d="M435.216 213.483V243.094L433.482 257.216L435.216 284.548L448.221 331.925L426.979 340.125L408.266 282.726L406.171 243.094L409.205 300.492L410.939 340.301H389.796L386.663 282.726L394.033 209.384L435.216 213.483Z" fill="#F4F4F4" stroke="#C8C8C8" stroke-width="4" stroke-linecap="round" stroke-linejoin="round"/>
<path d="M402.96 120.591C411.056 120.591 417.619 114.028 417.619 105.932C417.619 97.8359 411.056 91.2728 402.96 91.2728C394.864 91.2728 388.301 97.8359 388.301 105.932C388.301 110.517 389.085 114.135 392.381 116.823C393.066 117.382 394.142 122.106 394.142 122.106C394.142 122.106 398.104 120.345 402.96 120.591Z" fill="#F4F4F4" stroke="#C8C8C8" stroke-width="4" stroke-linecap="round" stroke-linejoin="round"/>
<path d="M398.35 108.495C397.957 110.035 396.415 112.694 393.38 111.014" stroke="#C8C8C8" stroke-width="2" stroke-linecap="round" stroke-linejoin="round"/>
<path d="M424.512 121.718L406.288 132.43C406.288 132.43 404.442 137.144 401.836 143.926C399.057 151.155 395.54 160.549 396.703 162.876C398.958 167.387 395.757 178.663 395.757 178.663L392.939 204.598C392.939 204.598 382.79 214.183 390.683 215.311C398.577 216.439 412.672 214.747 421.129 215.311C429.587 215.875 439.171 217.002 436.352 211.363C433.533 205.723 430.151 201.778 433.534 190.504C436.181 181.68 436.066 148.688 435.891 134.755C435.867 132.841 435.354 130.966 434.4 129.307C433.447 127.648 432.085 126.26 430.444 125.276L424.512 121.718Z" fill="#F4F4F4" stroke="#C8C8C8" stroke-width="4" stroke-linecap="round" stroke-linejoin="round"/>
<path d="M412.677 106.682C411.407 106.765 410.229 107.345 408.998 107.667C404.594 108.822 399.529 106.154 397.989 101.87C397.836 101.293 397.59 100.744 397.26 100.247C396.43 99.2077 394.833 99.1894 393.571 99.61C392.31 100.031 391.159 100.79 389.849 101.023C387.828 101.385 385.718 100.376 384.418 98.7866C383.118 97.1972 382.545 95.1128 382.438 93.0622L383.541 93.9641C383.833 93.0759 383.869 92.1238 383.646 91.216C384.146 91.0137 384.689 90.9431 385.224 91.0109C385.759 91.0787 386.267 91.2827 386.701 91.6033C387.572 91.5873 386.712 89.9815 387.278 89.3187C387.515 89.0411 387.931 89.0359 388.294 88.9941C390.126 88.7829 391.431 87.1983 392.732 85.8913C394.987 83.6312 397.742 81.9333 400.775 80.9348C402.79 80.2735 404.98 79.934 407.035 80.4584C408.724 80.8891 410.214 81.8716 411.61 82.9141C415.047 85.4805 418.197 88.6069 419.981 92.5075C421.434 95.7034 421.909 99.2582 421.344 102.723C421.047 104.523 420.24 110.662 417.988 111.084C415.159 111.614 416.252 106.45 412.677 106.682Z" fill="#C8C8C8"/>
<path d="M407.242 223.83C407.923 223.441 408.51 222.908 408.963 222.267C409.416 221.627 409.723 220.895 409.862 220.123C410.001 219.352 409.97 218.559 409.769 217.8C409.569 217.042 409.205 216.337 408.702 215.735L418.53 199.399L408.632 199.809L400.817 215.259C399.861 216.169 399.272 217.399 399.163 218.715C399.053 220.031 399.43 221.341 400.222 222.398C401.014 223.455 402.166 224.184 403.46 224.448C404.754 224.712 406.099 224.492 407.242 223.83Z" fill="#F4F4F4" stroke="#C8C8C8" stroke-width="4" stroke-linecap="round" stroke-linejoin="round"/>
<path d="M429.587 129.049L433.815 128.203C433.815 128.203 439.148 137.806 439.984 154.762C439.117 179.472 421.13 202.909 421.13 202.909C421.13 202.909 417.182 207.983 416.055 209.111C414.928 210.238 412.672 209.111 413.8 210.802C414.928 212.494 412.108 213.621 412.108 213.621C412.108 213.621 399.704 213.621 400.832 209.111C401.96 204.6 421.13 172.46 421.13 172.46L418.311 142.578C418.311 142.578 416.055 127.921 429.587 129.049Z" fill="#F4F4F4" stroke="#C8C8C8" stroke-width="4" stroke-linecap="round" stroke-linejoin="round"/>
<path d="M548.193 363.032L573.086 399.942L549.91 423.118L546.906 417.11L552.056 405.092C552.056 405.092 551.198 393.934 548.193 390.929C545.189 387.925 531.884 369.899 531.884 369.899L548.193 363.032Z" fill="#F4F4F4" stroke="#060809" stroke-width="4" stroke-linecap="round" stroke-linejoin="round"/>
<path d="M518.434 243.719C518.434 243.719 523.154 251.189 513.283 283.378C513.283 283.378 559.326 361.088 552.03 366.239C544.734 371.389 524.99 382.787 519.84 379.353C514.69 375.92 477.232 259.599 477.232 259.599L518.434 243.719Z" fill="#F4F4F4" stroke="#060809" stroke-width="4" stroke-linecap="round" stroke-linejoin="round"/>
<path d="M568.58 393.289L576.09 400.8C579.953 404.663 582.528 410.242 575.232 414.963C567.936 419.684 542.614 437.281 534.03 431.701C525.447 426.122 544.331 420.972 544.331 420.972C544.331 420.972 547.453 409.394 549.111 411.964C550.768 414.534 550.768 419.684 550.768 419.684L568.58 393.289Z" fill="#060809" stroke="#060809" stroke-width="4" stroke-linecap="round" stroke-linejoin="round"/>
<path d="M479.807 383.204C479.807 383.204 466.073 408.526 466.073 411.53C466.073 414.535 466.932 423.118 466.932 423.118L440.751 429.556L431.738 425.264L434.743 417.539C434.743 417.539 451.052 411.959 454.485 401.23C457.919 390.5 461.781 379.341 461.781 379.341L479.807 383.204Z" fill="#F4F4F4" stroke="#060809" stroke-width="4" stroke-linecap="round" stroke-linejoin="round"/>
<path d="M467.855 134.122C477.471 131.546 483.178 121.661 480.601 112.045C478.025 102.429 468.141 96.7225 458.525 99.2992C448.908 101.876 443.202 111.76 445.778 121.376C446.488 124.025 447.753 126.378 449.413 128.342C450.484 129.608 451.703 130.95 451.703 134.614C452.148 134.916 454.897 132.98 455.367 133.24C455.96 133.569 457.487 135.727 458.114 135.988C461.657 137.46 463.863 135.192 467.855 134.122Z" fill="#F4F4F4" stroke="#060809" stroke-width="4" stroke-linecap="round" stroke-linejoin="round"/>
<path d="M451.269 123.865C452.757 124.585 455.907 125.14 456.604 121.599" stroke="#060809" stroke-width="2" stroke-linecap="round" stroke-linejoin="round"/>
<path d="M462.628 132.856L477.341 154.514L493.381 141.501C493.381 141.501 475.835 125.763 475.168 123.276L462.628 132.856Z" fill="#F4F4F4" stroke="#060809" stroke-width="4" stroke-linecap="round" stroke-linejoin="round"/>
<path d="M488.391 216.68H511.138C511.138 216.68 527.447 241.573 518.005 267.753C516.559 271.762 515.123 277.378 513.691 284.018C510.396 299.287 507.116 319.971 503.754 338.977C499.032 365.675 494.15 389.063 488.842 389.487C478.112 390.346 457.248 390.202 457.248 385.911C457.248 381.619 471.223 257.453 471.223 257.453L474.228 252.303L474.796 229.869C474.885 226.329 476.359 222.965 478.901 220.499C481.443 218.033 484.85 216.662 488.391 216.68Z" fill="#F4F4F4" stroke="#060809" stroke-width="4" stroke-linecap="round" stroke-linejoin="round"/>
<path d="M465.858 411.316C465.858 411.316 470.794 419.685 469.506 425.693C468.219 431.702 466.073 430.844 456.631 431.702C447.189 432.56 415 432.56 415 426.552C415 420.543 440.11 412.74 440.216 415.139C440.322 417.539 441.18 422.26 438.605 423.118C436.03 423.977 438.391 423.333 438.391 423.333L465.858 411.316Z" fill="#060809" stroke="#060809" stroke-width="4" stroke-linecap="round" stroke-linejoin="round"/>
<path d="M499.269 269.585C499.269 269.585 505.356 299.517 490.979 293.973C476.602 288.429 489.074 268.113 489.074 268.113L499.269 269.585Z" fill="#F4F4F4" stroke="#060809" stroke-width="4" stroke-linecap="round" stroke-linejoin="round"/>
<path d="M512.883 224.367C513.531 224.473 514.195 224.4 514.805 224.157C515.415 223.914 515.947 223.509 516.344 222.986C516.918 222.22 517.182 221.265 517.081 220.313C516.134 209.822 510.804 181.462 508.258 167.082C505.063 149.037 493.76 137.427 493.673 137.361L487.509 132.375C486.868 131.853 486.069 131.563 485.242 131.554C484.416 131.544 483.61 131.814 482.957 132.321C482.957 132.321 472.804 150.679 472.903 151.256C473.33 153.734 473.093 159.543 466.707 170.604C459.719 182.707 461.899 191.051 462.733 193.321C462.788 193.47 462.836 193.621 462.877 193.774C463.139 194.822 463.559 195.824 464.124 196.745C471.499 208.278 472.412 224.207 471.605 241.306C471.605 242.069 471.842 242.813 472.284 243.435C472.726 244.057 473.35 244.526 474.07 244.778C475.806 245.383 473.648 244.373 474.343 244.874C478.946 248.192 482.347 240.938 486.321 232.952C487.705 230.171 489.274 227.018 491.217 223.652C493.888 219.025 503.093 225.484 506.335 224.616C508.475 224.07 510.707 223.985 512.883 224.367Z" fill="#F4F4F4" stroke="#1A4CE0" stroke-width="4" stroke-linecap="round" stroke-linejoin="round"/>
<path d="M493.5 144.3C493.5 144.3 504.664 149.54 502.16 160.886C499.655 172.233 502.311 179.395 502.311 179.395C502.311 179.395 519.268 248.188 502.211 249.195L500.297 271.467L485.732 270.233L488.613 250.268C488.613 250.268 482.36 251.533 483.034 246.861C483.508 243.579 481.75 209.813 480.661 190.003C480.2 181.609 479.859 175.721 479.859 175.721C479.859 175.721 477.595 146.341 493.5 144.3Z" fill="#F4F4F4" stroke="#1A4CE0" stroke-width="4" stroke-linecap="round" stroke-linejoin="round"/>
<path opacity="0.2" d="M504.727 178.559L508.609 213.528L501.745 176.864L504.727 178.559Z" fill="#060809"/>
<path d="M442.126 114.086C442.126 114.086 433.094 92.0899 458.98 93.1605C458.98 93.1605 475.2 85.4599 486.511 105.298L498.168 126.147L495.005 125.384L494.472 128.542L490.302 130.874L487.37 127.587L487.68 132.449L452.02 145.919C452.02 145.919 465.829 131.817 461.429 114.355L459.189 118.495L442.126 114.086Z" fill="#060809"/>
<path opacity="0.2" d="M504.229 340.334L512.687 283.974L505.808 344.817L504.229 340.334Z" fill="#060809"/>
<path d="M481.151 97.3338C486.24 95.9704 489.259 90.7404 487.896 85.6523C486.532 80.5642 481.302 77.5446 476.214 78.908C471.126 80.2714 468.107 85.5013 469.47 90.5895C470.833 95.6776 476.063 98.6971 481.151 97.3338Z" fill="#060809"/>
<path d="M468.585 88.4085C468.11 86.0306 468.56 83.5609 469.842 81.5027C471.124 79.4444 473.143 77.9524 475.486 77.3304C475.29 77.3572 475.093 77.3784 474.896 77.4179C473.667 77.6632 472.499 78.1483 471.458 78.8452C470.417 79.5422 469.523 80.4375 468.828 81.48C468.133 82.5225 467.65 83.6917 467.407 84.9208C467.164 86.15 467.165 87.415 467.411 88.6436C467.657 89.8721 468.143 91.0402 468.84 92.081C469.538 93.1219 470.434 94.0151 471.476 94.7096C472.519 95.4041 473.689 95.8864 474.918 96.1288C476.147 96.3712 477.412 96.3691 478.641 96.1225C478.838 96.083 479.027 96.0269 479.219 95.9759C476.817 96.3042 474.379 95.7043 472.404 94.2983C470.428 92.8923 469.062 90.7861 468.585 88.4085Z" fill="#060809"/>
<path opacity="0.2" d="M479.551 196.527L483.086 242.142L480.735 191.343L479.551 196.527Z" fill="#060809"/>
<path d="M463.211 122.506C464.801 122.08 465.606 119.93 465.01 117.704C464.413 115.478 462.641 114.019 461.051 114.445C459.461 114.871 458.655 117.021 459.252 119.247C459.848 121.473 461.621 122.932 463.211 122.506Z" fill="#1A4CE0"/>
<path d="M159.938 98.853L146.644 122.599L158.213 137.824C158.213 137.824 174.135 114.909 177.041 114.865C179.947 114.82 159.938 98.853 159.938 98.853Z" fill="#F4F4F4" stroke="#060809" stroke-width="4" stroke-linecap="round" stroke-linejoin="round"/>
<path d="M130.158 347.046C130.158 347.046 130.158 403.101 143.024 417.805C143.024 417.805 145.78 425.156 146.699 427.913C147.213 429.482 147.827 431.017 148.537 432.508V436.183C148.537 436.183 173.349 433.427 176.105 426.994L171.511 421.48C171.511 421.48 170.592 420.561 171.511 417.805C172.43 415.048 169.673 415.048 169.673 415.048L163.24 400.345L164.159 339.694L159.565 256.071L120.05 254.233L130.158 347.046Z" fill="#F4F4F4" stroke="#060809" stroke-width="4" stroke-linecap="round" stroke-linejoin="round"/>
<path d="M150.375 430.67C150.375 430.67 143.943 449.968 150.375 450.887C156.808 451.806 212.863 452.725 211.945 445.373C211.026 438.022 192.647 438.941 192.647 438.941L173.349 426.994L150.375 430.67Z" fill="#060809" stroke="#060809" stroke-width="4" stroke-linecap="round" stroke-linejoin="round"/>
<path d="M93.4013 256.071C93.4013 256.071 91.5634 268.018 98.9149 280.883C106.266 293.748 101.672 336.938 101.672 336.938L36.4269 393.913C36.4269 393.913 49.2921 415.967 53.8868 415.048C58.4815 414.129 131.078 355.317 131.078 355.317L159.565 259.747L93.4013 256.071Z" fill="#F4F4F4" stroke="#060809" stroke-width="4" stroke-linecap="round" stroke-linejoin="round"/>
<path d="M37.3235 391.478C37.3235 391.478 17.5803 396.375 20.2478 402.301C22.9153 408.226 52.1483 456.064 57.8657 451.352C63.5831 446.64 52.9678 431.609 52.9678 431.609L52.727 408.914L37.3235 391.478Z" fill="#060809" stroke="#060809" stroke-width="4" stroke-linecap="round" stroke-linejoin="round"/>
<path d="M161.561 98.0799C159.134 102.269 158.228 107.167 158.995 111.947C159.59 115.747 161.214 119.312 163.689 122.256C166.165 125.199 169.399 127.41 173.04 128.647C174.859 129.276 176.757 129.645 178.678 129.744C181.721 129.917 185.101 132.981 187.938 131.866C190.775 130.752 188.323 128.569 190.434 126.371C191.616 125.145 196.415 122.256 198.17 119.216C200.973 114.361 201.733 108.592 200.282 103.178C198.831 97.7629 195.289 93.1464 190.434 90.3435C185.579 87.5407 179.81 86.7812 174.395 88.232C168.981 89.6829 164.364 93.2253 161.561 98.0799Z" fill="#F4F4F4" stroke="#060809" stroke-width="4" stroke-linecap="round" stroke-linejoin="round"/>
<path d="M168.532 142.685C168.532 142.685 150.988 112.298 144.537 111.52C138.085 110.743 137.372 113.406 136.896 115.181C136.421 116.956 137.958 118.32 135.945 118.732C133.932 119.144 132.394 117.78 131.681 120.443C130.967 123.106 107.855 145.454 105.332 176.173C102.809 206.892 105.217 222.758 98.2729 238.022C91.3289 253.286 92.1528 257.312 92.1528 257.312C92.1528 257.312 157.298 280.476 159.851 274.5C162.403 268.525 157.901 271.124 163.528 267.875C169.156 264.626 167.381 264.15 168.094 261.488C168.808 258.825 178.296 145.301 168.532 142.685Z" fill="#F4F4F4" stroke="#1A4CE0" stroke-width="4" stroke-linecap="round" stroke-linejoin="round"/>
<path d="M123.76 260.072C123.76 260.072 127.514 288.668 137.168 284.595C146.821 280.522 140.99 256.127 140.99 256.127L123.76 260.072Z" fill="#F4F4F4" stroke="#060809" stroke-width="4" stroke-linecap="round" stroke-linejoin="round"/>
<path d="M129.889 134.232C129.889 134.232 108.394 131.032 105.895 171.418C103.396 211.804 121.683 264.272 121.683 264.272L144.715 259.979L132.118 200.474L147.132 169.296C147.132 169.296 159.007 139.18 129.889 134.232Z" fill="#F4F4F4" stroke="#1A4CE0" stroke-width="4" stroke-linecap="round" stroke-linejoin="round"/>
<path d="M163.838 107.177C165.671 107.798 167.173 109.114 168.854 110.072C174.87 113.502 183.361 111.577 187.31 105.889C187.762 105.101 188.339 104.393 189.02 103.792C190.648 102.592 193.001 103.194 194.689 104.308C196.377 105.423 197.769 106.991 199.6 107.85C202.428 109.176 205.925 108.525 208.46 106.702C210.996 104.878 212.657 102.042 213.623 99.0717L211.647 99.9622C211.568 98.5427 211.889 97.1296 212.574 95.8838C211.92 95.3899 211.149 95.0723 210.337 94.9614C209.525 94.8505 208.697 94.95 207.934 95.2504C206.66 94.8838 208.556 92.8634 207.985 91.6667C207.746 91.1656 207.137 90.9942 206.621 90.79C204.012 89.7587 202.719 86.9169 201.322 84.4848C198.899 80.2769 195.52 76.698 191.458 74.0376C188.757 72.2725 185.675 70.9121 182.448 70.8733C179.799 70.8414 177.222 71.6979 174.76 72.6799C168.702 75.0973 162.843 78.4503 158.687 83.4784C155.294 87.6013 153.198 92.6368 152.664 97.9496C152.392 100.711 151.161 110.046 154.302 111.552C158.25 113.445 158.677 105.429 163.838 107.177Z" fill="#060809"/>
<path d="M185.239 116C184.9 117.773 185.205 121.251 189.135 120.986" stroke="#060809" stroke-width="2" stroke-linecap="round" stroke-linejoin="round"/>
<path d="M304.039 114.548L335.782 121.812L349.194 96.5159L322.051 85.9185L304.039 114.548Z" fill="#060809"/>
<path d="M330.892 250.719C330.892 250.719 320.688 274.103 320.688 280.906C320.688 280.906 324.727 299.401 323.451 304.503L318.987 314.069L309.633 310.242L307.082 284.732L307.507 243.916L330.892 250.719Z" fill="#F4F4F4" stroke="#060809" stroke-width="4" stroke-linecap="round" stroke-linejoin="round"/>
<path d="M326.644 110.839C326.644 110.839 327.494 124.87 325.794 129.121C324.093 133.373 332.171 141.451 332.171 141.451L344.926 124.87C344.926 124.87 336.423 116.366 338.549 107.013L326.644 110.839Z" fill="#F4F4F4" stroke="#060809" stroke-width="4" stroke-linecap="round" stroke-linejoin="round"/>
<path d="M300.071 207.99C300.071 207.99 287.741 230.949 299.646 229.248C311.55 227.547 307.511 207.352 307.511 207.352" fill="#F4F4F4"/>
<path d="M300.071 207.99C300.071 207.99 287.741 230.949 299.646 229.248C311.55 227.547 307.511 207.352 307.511 207.352" stroke="#060809" stroke-width="4" stroke-linecap="round" stroke-linejoin="round"/>
<path d="M307.511 207.353L311.55 167.174L311.338 142.727L301.984 144.428V166.961L300.071 207.99" fill="#F4F4F4"/>
<path d="M307.511 207.353L311.55 167.174L311.338 142.727L301.984 144.428V166.961L300.071 207.99" stroke="#060809" stroke-width="4" stroke-linecap="round" stroke-linejoin="round"/>
<path d="M307.294 307.266L325.577 300.038L327.702 336.178C327.702 336.178 331.529 347.232 330.253 351.484C330.253 351.484 331.104 358.711 328.978 359.137C326.852 359.562 320.9 360.412 320.475 359.987C320.049 359.562 320.049 358.286 320.049 358.286C320.049 358.286 315.798 361.262 315.373 364.664C315.373 364.664 297.516 370.191 297.09 365.089C296.665 359.987 306.019 355.735 306.019 355.735L313.247 344.681L307.294 307.266Z" fill="#060809" stroke="#060809" stroke-width="4" stroke-linecap="round" stroke-linejoin="round"/>
<path d="M355.898 250.719C355.898 250.719 345.694 274.103 345.694 280.906C345.694 280.906 349.733 299.401 348.458 304.503L343.993 314.069L334.64 310.242L332.089 284.732L332.514 243.916L355.898 250.719Z" fill="#F4F4F4" stroke="#060809" stroke-width="4" stroke-linecap="round" stroke-linejoin="round"/>
<path d="M332.94 307.266L351.222 300.038L353.348 336.178C353.348 336.178 357.174 347.232 355.899 351.484C355.899 351.484 356.749 358.711 354.623 359.137C352.497 359.562 346.545 360.412 346.12 359.987C345.694 359.562 345.694 358.286 345.694 358.286C345.694 358.286 341.443 361.262 341.018 364.664C341.018 364.664 323.161 370.191 322.736 365.089C322.31 359.987 331.664 355.735 331.664 355.735L338.892 344.681L332.94 307.266Z" fill="#060809" stroke="#060809" stroke-width="4" stroke-linecap="round" stroke-linejoin="round"/>
<path d="M344.504 101.063C344.502 104.411 343.266 107.641 341.032 110.135C338.798 112.629 335.723 114.212 332.395 114.581C329.067 114.949 325.721 114.078 322.995 112.133C320.269 110.188 318.357 107.307 317.623 104.04C317.399 103.063 317.287 102.065 317.29 101.063C317.292 97.4558 318.727 93.9971 321.278 91.4472C323.83 88.8974 327.289 87.465 330.897 87.465C334.504 87.465 337.964 88.8974 340.515 91.4472C343.067 93.9971 344.501 97.4558 344.504 101.063Z" fill="#F4F4F4" stroke="#060809" stroke-width="4" stroke-linecap="round" stroke-linejoin="round"/>
<path d="M332.596 128.272L343.154 122.789L347.902 126.571C347.902 126.571 359.382 126.146 363.633 131.248C367.885 136.35 370.224 149.317 370.224 149.317C370.224 149.317 356.193 146.341 357.894 158.246L355.343 151.443L353.004 157.183L324.518 166.962L311.763 145.278C311.763 145.278 303.26 142.727 300.284 148.68C300.284 148.68 300.921 127.209 309.212 126.571C314.788 126.142 318.991 126.146 318.991 126.146L323.668 125.295L326.663 124.232L332.596 128.272Z" fill="#F4F4F4" stroke="#1A4CE0" stroke-width="4" stroke-linecap="round" stroke-linejoin="round"/>
<path d="M350.666 174.827C350.666 174.827 372.987 241.791 366.61 251.145C366.61 251.145 342.8 263.049 295.182 246.893L314.527 171.851C326.41 169.421 338.456 170.413 350.666 174.827Z" fill="#F4F4F4" stroke="#1A4CE0" stroke-width="4" stroke-linecap="round" stroke-linejoin="round"/>
<path d="M350.665 174.827L356.948 153.239C349.412 145.044 355.916 126.871 355.916 126.871L346.823 124.923C346.823 124.923 337.698 149.53 328.344 146.554C318.991 143.578 324.093 124.445 324.093 124.445L315.589 125.296L311.763 140.176L314.526 171.851C326.052 170.863 338.14 172.013 350.665 174.827Z" fill="#F4F4F4" stroke="#1A4CE0" stroke-width="4" stroke-linecap="round" stroke-linejoin="round"/>
<path d="M361.72 207.353L364.696 166.961L365.547 142.727L356.193 144.428V166.961L354.28 207.99" fill="#F4F4F4"/>
<path d="M361.72 207.353L364.696 166.961L365.547 142.727L356.193 144.428V166.961L354.28 207.99" stroke="#060809" stroke-width="4" stroke-linecap="round" stroke-linejoin="round"/>
<path d="M354.28 207.99C354.28 207.99 341.95 230.949 353.854 229.248C365.759 227.547 361.72 207.352 361.72 207.352" fill="#F4F4F4"/>
<path d="M354.28 207.99C354.28 207.99 341.95 230.949 353.854 229.248C365.759 227.547 361.72 207.352 361.72 207.352" stroke="#060809" stroke-width="4" stroke-linecap="round" stroke-linejoin="round"/>
<path d="M370.223 149.317C370.223 149.317 368.712 127.482 356.075 127.558C356.075 127.558 353.404 134.676 353.404 139.774C353.404 149.317 356.075 152.809 356.075 152.809C356.075 152.809 365.547 147.191 370.223 149.317Z" fill="#F4F4F4" stroke="#1A4CE0" stroke-width="4" stroke-linecap="round" stroke-linejoin="round"/>
<path d="M323.214 82.0181C323.214 82.0181 316.182 83.3408 314.556 92.111C314.302 93.59 314.255 95.0973 314.418 96.5891C314.581 98.2773 314.345 101.843 310.68 106.041C308.288 108.764 306.059 111.627 304.005 114.613L311.353 116.569L314.636 104.395C316.228 98.4927 318.68 92.857 321.913 87.6691L321.981 87.5608C321.981 87.5608 324.421 94.0816 330.962 94.9756L328.945 92.3202C328.945 92.3202 336.592 96.7405 340.924 98.0908C341.419 98.245 341.862 98.5312 342.205 98.9185C342.549 99.3058 342.781 99.7796 342.875 100.289C342.97 100.798 342.924 101.323 342.742 101.808C342.56 102.293 342.249 102.719 341.843 103.04C341.812 103.065 341.781 103.089 341.749 103.113C338.562 105.533 332.062 111.308 334.63 116.894C337.198 122.481 334.203 123.499 334.203 123.499L339.726 121.398L342.254 120.316L341.998 122.185L354.337 122.443C354.337 122.443 357.672 122.423 351.749 113.523C351.749 113.523 350.32 110.185 351.493 107.636C352.435 105.705 352.903 103.578 352.861 101.43C352.488 92.4565 348.708 74.201 323.214 82.0181Z" fill="#060809"/>
<path d="M322.055 99.6807C322.983 101.048 325.043 102.399 327.416 99.6807" stroke="#060809" stroke-width="2" stroke-linecap="round" stroke-linejoin="round"/>
<path d="M337.399 100.87C336.066 101.847 333.067 102.96 331.744 99.603" stroke="#060809" stroke-width="2" stroke-linecap="round" stroke-linejoin="round"/>
<path d="M331.929 108.685C330.977 107.333 328.493 105.319 326.165 108.077" stroke="#060809" stroke-width="2" stroke-linecap="round" stroke-linejoin="round"/>
</svg>
