<svg width="600" height="514" viewBox="0 0 600 514" fill="none" xmlns="http://www.w3.org/2000/svg">
<g clip-path="url(#clip0_334_1787)">
<rect width="600" height="514" fill="#F4F4F4"/>
<path d="M406.876 435.917L408.584 449.138L410.085 456.085C410.085 456.085 330.729 475.055 279.759 470.253C247.431 467.208 229.219 462.913 198.647 451.973C177.834 444.526 166.438 439.292 147.115 428.555C107.518 406.553 86.5497 390.069 56.4125 356.249C47.7684 346.549 40.5845 334.585 40.5845 334.585C42.8489 333.83 57.1441 326.399 59.5845 325.585C59.5845 325.585 66.0918 338.608 73.7767 347.503C100.712 378.678 119.67 393.9 155.531 414.182C181.715 428.992 197.697 435.722 226.74 443.56C245.733 448.685 256.715 450.711 276.297 452.589C327.471 457.498 406.876 435.914 406.876 435.914C406.876 435.914 406.875 435.915 406.876 435.917Z" fill="#F4F4F4" stroke="#1A4CE0" stroke-width="4" stroke-linejoin="round"/>
<path d="M401.084 479.085L393.584 458.585L419.084 428.585L427.584 396.585L529.084 380.585L532.084 391.585C532.084 391.585 437.084 460.418 401.084 479.085Z" fill="#F4F4F4" stroke="#1A4CE0" stroke-width="4" stroke-linejoin="round"/>
<path d="M402.584 408.085V386.085L423.084 394.085L418.084 403.085L402.584 408.085Z" fill="#F4F4F4" stroke="#1A4CE0" stroke-width="4" stroke-linejoin="round"/>
<path d="M146.984 300.097L124.221 293.186L115.789 308.809L137.028 316.472L146.984 300.097Z" fill="#F4F4F4" stroke="#060809" stroke-width="4" stroke-linecap="round" stroke-linejoin="round"/>
<path d="M321.83 371.296L324.454 392.204L343.109 385.212L343.084 361.149L321.83 371.296Z" fill="#F4F4F4" stroke="#060809" stroke-width="4" stroke-linecap="round" stroke-linejoin="round"/>
<path d="M323.013 391.71C323.013 391.71 322.742 409.509 324.196 410.37C325.65 411.231 381.217 395.841 380.584 391.71C379.952 387.579 343.584 383.085 343.584 383.085L323.013 391.71Z" fill="#060809"/>
<path d="M214.356 343.47C230.092 335.293 250.921 287.996 250.921 287.996L216.584 239.585C211.812 246.996 206.584 287.996 198.106 303.612C189.951 310.522 146.544 294.543 146.544 294.543L133.084 321.69C133.084 321.69 198.621 351.648 214.356 343.47Z" fill="#F4F4F4" stroke="#060809" stroke-width="4" stroke-linejoin="round"/>
<path d="M338.886 316.165C338.886 293.632 281.084 250.585 281.084 250.585L218.014 231.585C194.014 269.585 223.014 274.085 250.514 287.085C250.514 287.085 290.59 304.225 297.459 316.799C304.327 329.372 320.514 379.585 320.514 379.585L350.014 370.585C350.014 370.585 340.272 327.412 338.886 316.165Z" fill="#F4F4F4" stroke="#060809" stroke-width="4" stroke-linejoin="round"/>
<path d="M386.248 149.585C388.768 147.728 391.476 146.171 394.324 144.942C397.603 143.826 401.747 143.052 400.81 141.593C399.873 140.135 392.11 142.248 392.11 142.248C392.11 142.248 396.637 134.956 399.206 133.513C401.775 132.069 405.395 132.188 403.606 130.804C401.818 129.42 396.368 129.197 394.466 130.224C392.564 131.251 381.692 143.766 381.124 144.436C380.557 145.105 386.248 149.585 386.248 149.585Z" fill="#F4F4F4"/>
<path d="M313.084 153.452C313.084 153.452 358.53 163.077 362.884 161.952L380.011 142.585L390.084 149.187C390.084 149.187 384.845 165.136 377.602 174.338C370.359 183.54 322.838 185.585 322.838 185.585L313.084 153.452Z" fill="#F4F4F4" stroke="#060809" stroke-width="4" stroke-linejoin="round"/>
<path d="M297.017 128.167C293.26 127.844 289.623 126.688 286.368 124.782C283.575 123.04 281.179 120.73 279.337 118C277.496 115.271 276.25 112.184 275.68 108.941C273.734 108.696 271.856 108.065 270.156 107.085C268.456 106.105 266.968 104.796 265.779 103.235C264.591 101.673 263.725 99.8908 263.233 97.9909C262.741 96.0911 262.632 94.1122 262.913 92.1699C265.264 92.7842 267.728 92.8205 270.096 92.2757C272.464 91.7309 274.665 90.6213 276.511 89.0414C274.205 89.2145 271.922 88.4856 270.143 87.0083C268.363 85.5309 267.226 83.4204 266.971 81.1211C266.902 80.6025 266.978 80.0751 267.189 79.5965C267.921 78.2302 269.92 78.4876 271.424 78.8242C278.887 80.4677 286.646 79.042 294.128 77.4778C301.609 75.9135 309.25 74.1711 316.811 75.2205C327.658 76.7452 336.169 84.5268 334.427 95.9716C333.968 99.9052 333.01 103.764 331.577 107.456C330.843 108.689 329.858 109.755 328.687 110.584C322.63 115.634 318.375 123.059 310.873 126.425C306.473 128.158 301.709 128.757 297.017 128.167Z" fill="#060809"/>
<path d="M332.647 97.912C336.606 101.872 335.209 109.805 334.754 114.617C334.545 116.845 340.936 121.627 340.692 123.854C340.548 125.174 336.074 123.854 334.094 125.173C333.715 128.366 332.365 130.898 331.915 134.088C331.321 138.345 320.217 137.474 318.376 136.068L318.178 150.324C318.178 150.324 314.912 157.928 306.302 153.017C297.692 148.107 296.128 142.265 296.128 142.265L298.543 122.782C298.543 122.782 305.867 123.455 310.954 115.099C316.041 106.743 317.011 93.3182 317.011 93.3182C317.011 93.3182 328.748 94.1498 332.647 97.912Z" fill="#F4F4F4" stroke="#060809" stroke-width="4" stroke-linecap="round" stroke-linejoin="round"/>
<path d="M324.811 125.767C324.761 125.887 325.334 127.839 326.208 128.814C326.906 129.592 327.583 129.985 328.419 130.326C329.109 130.581 329.84 130.709 330.576 130.702C331.751 130.654 332.903 130.364 333.961 129.851" stroke="#060809" stroke-width="2" stroke-linecap="round" stroke-linejoin="round"/>
<path d="M319.584 114.704C319.476 110.611 313.282 100.802 309.529 107.179C307.578 110.291 308.045 114.684 309.387 117.918C310.367 120.279 311.952 122.339 313.982 123.891" fill="#F4F4F4"/>
<path d="M319.584 114.704C319.476 110.611 313.282 100.802 309.529 107.179C307.578 110.291 308.045 114.684 309.387 117.918C310.367 120.279 311.952 122.339 313.982 123.891" stroke="#060809" stroke-width="2" stroke-linecap="round" stroke-linejoin="round"/>
<path d="M318.378 136.029C315.173 134.685 312.423 132.443 310.46 129.574" stroke="#060809" stroke-width="4" stroke-linecap="round" stroke-linejoin="round"/>
<path d="M328.461 109.456C328.414 108.123 327.95 107.057 327.426 107.076C326.901 107.094 326.514 108.19 326.562 109.523C326.609 110.857 327.073 111.922 327.597 111.904C328.122 111.885 328.508 110.789 328.461 109.456Z" fill="#060809"/>
<path d="M300.859 143.791C300.859 143.791 319.801 159.75 319.603 176.343C319.405 192.936 289.359 254.992 288.666 255.665C287.973 256.338 205.084 226.085 205.084 226.085C205.084 226.085 228.256 204.46 241.28 187.115C254.819 169.116 283.619 132.366 300.859 143.791Z" fill="#F4F4F4" stroke="#060809" stroke-width="4" stroke-linejoin="round"/>
<path d="M405.329 211.39C396.62 210.163 391.137 205.45 390.504 196.698C389.356 181.115 382.963 167.71 376.233 153.909C351.353 102.803 380.785 40.8075 444.778 45.8765C488.165 49.3218 517.024 80.389 513.501 122.584C511.831 142.989 502.178 161.91 486.641 175.234C475.992 184.679 466.63 194.639 460.81 207.846C457.05 216.34 450.201 219.845 440.74 217.746C435.039 216.42 429.24 215.647 423.48 214.637C417.483 213.548 411.406 212.242 405.329 211.39Z" fill="#F4F4F4" stroke="#1A4CE0" stroke-width="4" stroke-linejoin="round"/>
<path d="M397.244 228.004L443.766 236.251C447.931 236.99 451.907 234.211 452.645 230.043L453.073 227.626C453.812 223.459 451.033 219.482 446.867 218.743L400.345 210.495C396.18 209.757 392.204 212.536 391.466 216.703L391.038 219.121C390.3 223.288 393.078 227.265 397.244 228.004Z" fill="#F4F4F4" stroke="#1A4CE0" stroke-width="4" stroke-linejoin="round"/>
<path d="M394.15 245.527L440.672 253.775C444.838 254.513 448.813 251.734 449.551 247.567L449.98 245.149C450.718 240.982 447.939 237.005 443.774 236.267L397.252 228.019C393.086 227.28 389.111 230.06 388.372 234.227L387.944 236.644C387.206 240.812 389.984 244.788 394.15 245.527Z" fill="#F4F4F4" stroke="#1A4CE0" stroke-width="4" stroke-linejoin="round"/>
<path d="M393.491 245.447C392.323 252.041 402.062 259.308 415.264 261.624C428.466 263.941 440.105 260.515 441.272 253.902L393.491 245.447Z" fill="#F4F4F4" stroke="#1A4CE0" stroke-width="4" stroke-linejoin="round"/>
<path d="M435.812 207.608C437.554 188.758 439.118 169.294 447.055 151.85C450.499 144.286 455.803 134.425 462.415 129.158C468.194 124.564 478.704 126.901 481.99 133.593C482.97 135.894 483.354 138.406 483.105 140.895C482.855 143.384 481.982 145.769 480.565 147.83C477.658 151.926 473.717 155.179 469.144 157.255C459.602 161.873 448.926 163.625 438.409 162.3C427.891 160.976 417.983 156.63 409.883 149.79C404.543 145.398 400.578 139.563 398.462 132.98C397.445 129.688 397.224 126.202 397.816 122.808C398.408 119.414 399.796 116.209 401.866 113.456C406.696 107.516 412.753 112.961 415.722 117.753C422.234 128.049 421.046 142.84 420.353 154.443C419.204 170.889 415.876 187.109 410.457 202.678" fill="#F4F4F4"/>
<path d="M435.812 207.608C437.554 188.758 439.118 169.294 447.055 151.85C450.499 144.286 455.803 134.425 462.415 129.158C468.194 124.564 478.705 126.901 481.99 133.593C482.97 135.894 483.354 138.406 483.105 140.895C482.855 143.384 481.982 145.769 480.565 147.83C477.658 151.926 473.717 155.179 469.144 157.255C459.602 161.873 448.926 163.625 438.409 162.3C427.891 160.976 417.983 156.63 409.883 149.79C404.543 145.398 400.578 139.563 398.462 132.98C397.445 129.688 397.224 126.202 397.816 122.808C398.408 119.414 399.796 116.209 401.866 113.456C406.696 107.516 412.753 112.961 415.722 117.753C422.234 128.049 421.046 142.84 420.353 154.443C419.204 170.889 415.876 187.109 410.457 202.678" stroke="#C8C8C8" stroke-width="4" stroke-linejoin="round"/>
<path d="M391.474 183.847L401.985 175.056C405.31 172.324 408.536 164.799 411.545 164.839C414.553 164.878 409.17 173.789 409.17 173.789C409.17 173.789 420.353 165.215 423.856 164.958C427.36 164.7 429.26 170.581 428.389 172.403C427.518 174.224 418.057 178.68 414.534 182.184C409.749 186.257 404.74 190.058 399.53 193.57" fill="#F4F4F4"/>
<path d="M391.474 183.847L401.985 175.056C405.31 172.324 408.536 164.799 411.545 164.839C414.553 164.878 409.17 173.789 409.17 173.789C409.17 173.789 420.353 165.215 423.856 164.958C427.36 164.7 429.26 170.581 428.389 172.403C427.518 174.224 418.057 178.68 414.534 182.184C409.749 186.257 404.74 190.058 399.53 193.57" stroke="#060809" stroke-width="4" stroke-linejoin="round"/>
<path d="M308.993 157.771C309.567 158.483 337.516 203.094 337.516 203.094L393.135 176.363L406.714 192.045C406.714 192.045 359.843 227.409 341.633 233.35C323.423 239.29 281.283 174.047 281.837 166.859C282.391 159.671 300.957 147.831 308.993 157.771Z" fill="#F4F4F4" stroke="#060809" stroke-width="4" stroke-linejoin="round"/>
<path d="M319.007 148.207L317.681 152.167L320.947 156.424C320.947 156.424 314.554 189.491 265.07 163.117L249.235 168.819L258.657 181.65C258.657 181.65 318.037 204.5 322.61 156.8L323.441 151.474L319.007 148.207Z" fill="#060809"/>
<path d="M126.137 292.268C126.137 292.268 106.129 284.567 105.021 285.299C103.913 286.03 80.8643 320.489 85.2091 321.048C89.5538 321.607 116.861 309.239 116.861 309.239L126.137 292.268Z" fill="#060809"/>
<path d="M529.106 381.069C529.088 381.08 529.067 381.092 529.049 381.103C529.046 381.105 529.044 381.106 529.039 381.11C507.56 393.552 491.257 404.773 466.584 419.156C438.64 435.447 417.617 445.683 394.133 459.293C395.833 456.918 402.717 447.297 406.986 441.329C406.985 441.327 406.986 441.326 406.986 441.326C409.022 438.482 410.462 436.466 410.462 436.466C410.462 436.466 373.845 447.034 349.794 450.812C331.025 453.759 320.368 455.423 301.369 455.483C282.091 455.544 271.184 454.394 252.211 450.986C232.923 447.522 222.209 444.508 203.792 437.814C185.059 431.005 174.806 426.221 157.464 416.394C139.829 406.4 130.318 399.921 114.611 387.109C98.6519 374.091 90.2111 365.981 76.7646 350.381C69.9583 342.485 60.2635 329.398 60.2635 329.398C62.0338 327.038 62.6799 326.179 63.228 325.45C63.228 325.45 84.4188 348.965 99.9673 361.86C115.317 374.59 124.656 381.004 141.968 390.903C159.031 400.659 169.144 405.382 187.611 412.115C205.813 418.75 216.414 421.707 235.483 425.125C254.305 428.499 265.125 429.598 284.247 429.549C303.184 429.501 313.871 428.252 332.521 424.965C365.781 419.103 414.69 397.998 414.69 397.998C413.686 396.945 404.084 386.848 403.597 386.336C417.17 385.767 516.269 381.607 529.106 381.069Z" fill="#F4F4F4" stroke="#1A4CE0" stroke-width="4" stroke-linejoin="round"/>
<path d="M43.5844 329.085C42.5844 330.585 42.6064 330.954 40.5844 334.585C42.7073 334.252 58.29 330.942 60.5844 330.585C61.0844 329.085 62.0844 326.585 62.5844 324.585C58.6537 325.221 50.0844 327.585 43.5844 329.085Z" fill="#F4F4F4" stroke="#1A4CE0" stroke-width="4" stroke-linejoin="round"/>
<path d="M356.084 30.5848L379.584 54.0848" stroke="#C8C8C8" stroke-width="4" stroke-linecap="round" stroke-linejoin="round"/>
<path d="M479.465 8L469.454 36.2712" stroke="#C8C8C8" stroke-width="4" stroke-linecap="round" stroke-linejoin="round"/>
<path d="M560.082 100.969L527.123 105.236" stroke="#C8C8C8" stroke-width="4" stroke-linecap="round" stroke-linejoin="round"/>
<path d="M538.084 170.585L518.084 159.667" stroke="#C8C8C8" stroke-width="4" stroke-linecap="round" stroke-linejoin="round"/>
<path d="M526.807 43.5848L511.085 60.0776" stroke="#C8C8C8" stroke-width="4" stroke-linecap="round" stroke-linejoin="round"/>
<path d="M414.498 13.5848L421.629 35.2261" stroke="#C8C8C8" stroke-width="4" stroke-linecap="round" stroke-linejoin="round"/>
</g>
<defs>
<clipPath id="clip0_334_1787">
<rect width="600" height="514" fill="white"/>
</clipPath>
</defs>
</svg>
