<svg width="600" height="465" viewBox="0 0 600 465" fill="none" xmlns="http://www.w3.org/2000/svg">
<rect width="600" height="465" fill="#F4F4F4"/>
<path d="M145 219C101.261 294.371 76.7387 336.629 33 412" stroke="#BDBDBD" stroke-width="5.47566" stroke-linecap="round" stroke-linejoin="round"/>
<path d="M145 219L257 412" stroke="#BDBDBD" stroke-width="5.47566" stroke-linecap="round" stroke-linejoin="round"/>
<path d="M465 111L354 304" stroke="#BDBDBD" stroke-width="5.47566" stroke-linecap="round" stroke-linejoin="round"/>
<path d="M465 111L577 304" stroke="#BDBDBD" stroke-width="5.47566" stroke-linecap="round" stroke-linejoin="round"/>
<path d="M309.807 64.3823V17.4757C309.807 14.4515 307.356 12 304.331 12H300.244C297.21 12 294.754 14.467 294.768 17.501L294.986 64.577C294.995 66.4037 294.077 68.1164 292.574 69.1546C278.527 78.8588 279.44 81.2868 279.497 123.487C279.5 125.616 278.275 127.57 276.344 128.469C236.415 147.066 175.749 175.51 156.295 184.346C153.603 185.569 152.41 188.992 152.41 191.974C152.41 197.379 147.834 200.324 144.061 200.324C137.883 200.324 134.517 193.167 137.644 186.857C138.471 185.187 136.312 184.128 133.921 184.984C132.009 185.668 129.949 187.577 129.15 191.378C127.951 197.083 128.803 203.186 134.299 207.66C142.367 214.228 156.498 209.56 161.635 200.427C162.469 198.945 163.698 197.666 165.314 197.137L448.379 104.536C450.653 103.792 453.201 104.656 455.316 105.775C457.565 106.965 460.931 107.927 465.471 107.59C475.155 106.873 481.531 99.5496 480.455 88.7894C479.858 82.825 472.516 78.0535 468.341 77.457C465.564 77.0604 463.782 79.8839 464.947 81.6321C465.954 83.1423 467.678 84.498 468.192 84.8842C468.29 84.9582 468.389 85.0329 468.483 85.113C471.531 87.7225 472.255 91.8167 469.122 94.7539C464.947 98.668 460.06 95.357 458.386 92.3681C457.238 89.7857 456 87.5965 452.2 88.222L331.583 113.14C328.186 113.842 325.002 111.23 325.033 107.76C325.248 83.2922 326.072 77.814 312.474 69.1368C310.844 68.0971 309.807 66.3151 309.807 64.3823Z" stroke="black" stroke-width="4"/>
<path d="M464.754 90.0171V111.179" stroke="#BDBDBD" stroke-width="5.47566" stroke-linecap="round" stroke-linejoin="round"/>
<circle cx="303" cy="134" r="8" fill="#060809"/>
<path d="M144.098 197.976V219.137" stroke="#BDBDBD" stroke-width="5.47566" stroke-linecap="round" stroke-linejoin="round"/>
<path d="M258.247 412.105H33L63.8459 449.765H224.531L258.247 412.105Z" stroke="#1A4CE0" stroke-width="5.47566" stroke-linecap="round" stroke-linejoin="round"/>
<path d="M578.451 304.144H353.205L384.051 341.804H544.736L578.451 304.144Z" stroke="#1A4CE0" stroke-width="5.47566" stroke-linecap="round" stroke-linejoin="round"/>
<path d="M520.59 291.525C520.752 290.977 520.835 290.409 520.837 289.838C520.837 285.025 514.962 281.125 507.689 281.125C500.416 281.125 494.541 285.025 494.541 289.838C494.542 290.41 494.627 290.978 494.793 291.525H520.59Z" fill="#060809"/>
<path d="M528.751 291.525H396.764C394.891 291.525 393.374 293.038 393.374 294.904V295.454C393.374 297.321 394.891 298.833 396.764 298.833H528.751C530.623 298.833 532.14 297.321 532.14 295.454V294.904C532.14 293.038 530.623 291.525 528.751 291.525Z" fill="#F4F4F4" stroke="black" stroke-width="4" stroke-linecap="round" stroke-linejoin="round"/>
<rect x="414.846" y="197" width="95.4309" height="77.8515" rx="10.9513" fill="#F4F4F4" stroke="black" stroke-width="4" stroke-linecap="round" stroke-linejoin="round"/>
<path d="M479.689 291.525H445.825L449.362 276.047H476.152L479.689 291.525Z" fill="#F4F4F4" stroke="black" stroke-width="4" stroke-linecap="round" stroke-linejoin="round"/>
<rect x="486.419" y="208.929" width="45.3297" height="36.9795" rx="10.9513" fill="#F4F4F4" stroke="black" stroke-width="4" stroke-linecap="round" stroke-linejoin="round"/>
<path d="M495 216.987C496.105 216.987 497 216.095 497 214.994C497 213.893 496.105 213 495 213C493.895 213 493 213.893 493 214.994C493 216.095 493.895 216.987 495 216.987Z" fill="#1A4CE0"/>
<path d="M501 216.987C502.105 216.987 503 216.095 503 214.994C503 213.893 502.105 213 501 213C499.895 213 499 213.893 499 214.994C499 216.095 499.895 216.987 501 216.987Z" fill="#060809"/>
<path d="M507 216.987C508.105 216.987 509 216.095 509 214.994C509 213.893 508.105 213 507 213C505.895 213 505 213.893 505 214.994C505 216.095 505.895 216.987 507 216.987Z" fill="#060809"/>
<path d="M502.16 223.396L496 229.556L502.16 235.716" stroke="#1A4CE0" stroke-width="2" stroke-linecap="round" stroke-linejoin="round"/>
<path d="M513.689 221L506.16 238.111" stroke="#1A4CE0" stroke-width="2" stroke-linecap="round" stroke-linejoin="round"/>
<path d="M517.689 223.396L523.849 229.556L517.689 235.716" stroke="#1A4CE0" stroke-width="2" stroke-linecap="round" stroke-linejoin="round"/>
<rect x="399.338" y="231.979" width="41.0675" height="58.8634" rx="10.9513" fill="#F4F4F4" stroke="black" stroke-width="4" stroke-linecap="round" stroke-linejoin="round"/>
<path d="M412.636 251.909L406.476 258.069L412.636 264.229" stroke="#1A4CE0" stroke-width="2" stroke-linecap="round" stroke-linejoin="round"/>
<path d="M424.165 249.513L416.636 266.625" stroke="#1A4CE0" stroke-width="2" stroke-linecap="round" stroke-linejoin="round"/>
<path d="M428.165 251.909L434.325 258.069L428.165 264.229" stroke="#1A4CE0" stroke-width="2" stroke-linecap="round" stroke-linejoin="round"/>
<circle cx="419.385" cy="278.26" r="2.73783" fill="#060809"/>
<rect x="98.3415" y="305.194" width="94.6515" height="46.1322" rx="13.1288" fill="#F4F4F4"/>
<path d="M133.64 326.394C133.64 325.16 132.458 323.865 130.404 323.865C128.101 323.865 125.572 325.565 125.185 328.957C124.789 332.382 126.907 333.904 129.042 333.904C131.176 333.904 132.294 333.067 133.437 331.951C132.454 330.709 131.185 331.283 130.941 331.41C130.539 331.634 130.083 331.746 129.622 331.731C128.798 331.731 127.958 331.359 127.958 329.812C133.235 329.287 133.639 327.621 133.639 326.394H133.64ZM131.024 326.597C130.99 326.977 130.839 327.629 128.166 327.993C128.728 325.98 129.806 325.829 130.301 325.829C130.401 325.824 130.501 325.841 130.595 325.879C130.688 325.917 130.772 325.974 130.841 326.047C130.91 326.12 130.962 326.207 130.995 326.302C131.027 326.397 131.039 326.499 131.029 326.599L131.024 326.597ZM122.085 326.927L120.858 330.809L119.992 324.069C118.059 324.069 117.02 325.456 116.478 326.919L114.982 330.818L114.771 326.961C114.658 325.168 113.024 324.077 111.704 324.077L113.3 333.828C115.325 333.82 116.418 332.441 116.99 330.978L118.256 327.663C118.267 327.798 119.13 333.829 119.13 333.829C121.164 333.829 122.257 332.535 122.843 331.123L125.691 324.078C123.686 324.078 122.629 325.456 122.083 326.927H122.085ZM141.104 323.841C139.851 323.841 138.894 324.527 138.086 325.533V325.525L138.808 319.664C137.144 319.664 135.79 321.119 135.53 323.284L134.279 333.753C135.237 333.753 136.254 333.473 136.8 332.763C137.289 333.397 138.019 333.904 139.104 333.904C141.911 333.904 143.836 330.623 143.836 327.545C143.819 324.736 142.466 323.849 141.112 323.849L141.104 323.841ZM140.842 328.874C140.549 330.59 139.598 331.757 138.683 331.757C137.767 331.757 137.363 331.343 137.363 331.343C137.54 329.839 137.65 328.916 137.985 328.121C138.321 327.325 139.12 326.057 139.952 326.057C140.768 326.057 141.138 327.148 140.843 328.873L140.842 328.874ZM150.836 324.07H148.877L148.885 323.968C149.02 322.683 149.322 322.006 150.32 321.896C151.001 321.828 151.304 321.473 151.379 321.084L151.623 319.723C147.697 319.697 146.455 321.404 146.138 324.01L146.131 324.07H146.088C145.449 324.07 144.744 324.797 144.626 325.719L144.583 326.057H145.895L144.794 335.207L144.457 336.848C144.499 336.848 144.549 336.855 144.591 336.855C146.431 336.787 147.609 335.325 147.869 333.202L148.728 326.056H149.344C149.949 326.056 150.656 325.446 150.779 324.432L150.836 324.07ZM161.022 323.9C158.761 323.9 156.626 325.574 155.972 328.205C155.318 330.836 156.309 333.947 159.636 333.947C162.963 333.947 164.869 330.707 164.869 328.01C164.872 325.329 163.066 323.899 161.023 323.899L161.022 323.9ZM161.938 328.788C161.821 329.981 161.299 331.791 159.87 331.791C158.442 331.791 158.635 329.677 158.773 328.67C158.925 327.596 159.522 326.066 160.807 326.066C161.963 326.066 162.072 327.444 161.939 328.789L161.938 328.788ZM176.041 326.919L174.814 330.801C174.781 330.496 173.949 324.061 173.949 324.061C172.016 324.061 170.982 325.448 170.44 326.91L168.943 330.809C168.936 330.53 168.733 326.952 168.733 326.952C168.612 325.159 166.98 324.068 165.654 324.068L167.242 333.82C169.267 333.812 170.36 332.433 170.932 330.97L172.193 327.655C172.2 327.79 173.067 333.82 173.067 333.82C175.101 333.82 176.19 332.527 176.78 331.114L179.631 324.069C177.631 324.069 176.571 325.448 176.033 326.919H176.041ZM152.685 319.721L151.037 333.091L150.7 334.74C150.742 334.74 150.793 334.748 150.834 334.748C152.606 334.722 153.867 333.158 154.104 331.187L155.053 323.517C155.341 321.174 153.954 319.72 152.685 319.72V319.721Z" fill="#060809"/>
<rect x="98.3415" y="305.194" width="94.6515" height="46.1322" rx="13.1288" stroke="#060809" stroke-width="2.38705"/>
<rect x="47.1935" y="358.97" width="94.6515" height="46.1322" rx="13.1288" fill="#F4F4F4"/>
<path d="M101.317 379.988H99.6236C99.5888 379.849 99.5629 379.688 99.5456 379.505C99.5112 379.15 99.5112 378.791 99.5456 378.435C99.5629 378.253 99.5888 378.092 99.6236 377.952H103.843V391.34C103.632 391.377 103.419 391.403 103.205 391.418C102.993 391.434 102.78 391.443 102.567 391.444C102.363 391.443 102.159 391.434 101.955 391.418C101.741 391.403 101.528 391.377 101.317 391.34V379.987V379.988L101.317 379.988ZM116.006 383.355C116.006 382.867 115.941 382.402 115.811 381.958C115.681 381.515 115.489 381.128 115.238 380.797C114.986 380.467 114.665 380.201 114.274 380.001C113.884 379.801 113.419 379.701 112.881 379.701C111.822 379.701 111.01 380.023 110.446 380.667C109.881 381.31 109.538 382.206 109.417 383.355H116.007H116.006ZM109.391 385.286C109.426 386.747 109.803 387.817 110.524 388.495C111.244 389.174 112.308 389.514 113.714 389.514C114.947 389.514 116.119 389.296 117.23 388.861C117.369 389.122 117.482 389.439 117.569 389.813C117.654 390.178 117.706 390.549 117.725 390.922C117.152 391.167 116.522 391.348 115.837 391.471C115.151 391.592 114.391 391.653 113.558 391.653C112.342 391.653 111.3 391.483 110.432 391.144C109.564 390.805 108.848 390.326 108.283 389.709C107.719 389.091 107.307 388.361 107.046 387.517C106.786 386.673 106.655 385.747 106.655 384.737C106.655 383.746 106.781 382.819 107.033 381.958C107.284 381.097 107.672 380.349 108.192 379.714C108.713 379.079 109.368 378.574 110.159 378.2C110.948 377.826 111.881 377.639 112.958 377.639C113.879 377.639 114.686 377.796 115.381 378.109C116.075 378.422 116.657 378.853 117.126 379.401C117.595 379.949 117.95 380.601 118.194 381.358C118.437 382.115 118.559 382.937 118.559 383.824C118.559 384.068 118.549 384.324 118.532 384.594C118.518 384.824 118.501 385.055 118.48 385.285H109.39L109.391 385.286L109.391 385.286ZM121.399 377.952C121.58 377.919 121.763 377.893 121.946 377.874C122.119 377.857 122.302 377.848 122.493 377.848C122.684 377.848 122.875 377.857 123.066 377.874C123.257 377.892 123.431 377.918 123.587 377.952C123.639 378.214 123.691 378.557 123.743 378.983C123.795 379.41 123.821 379.77 123.821 380.066C124.186 379.475 124.668 378.961 125.266 378.526C125.866 378.092 126.634 377.874 127.571 377.874C127.71 377.874 127.853 377.879 128.001 377.887C128.127 377.894 128.254 377.907 128.379 377.926C128.413 378.083 128.44 378.248 128.457 378.422C128.474 378.596 128.483 378.779 128.483 378.97C128.483 379.179 128.47 379.397 128.444 379.622C128.419 379.84 128.389 380.058 128.353 380.275C128.212 380.24 128.068 380.222 127.923 380.222H127.571C127.102 380.222 126.655 380.288 126.23 380.418C125.804 380.549 125.422 380.779 125.084 381.109C124.745 381.44 124.476 381.893 124.277 382.467C124.077 383.041 123.977 383.78 123.977 384.685V391.34C123.766 391.377 123.553 391.403 123.339 391.418C123.105 391.435 122.892 391.444 122.701 391.444C122.488 391.443 122.275 391.434 122.063 391.418C121.84 391.402 121.619 391.376 121.398 391.34V377.953L121.399 377.952ZM103.119 370.804C103.119 371.116 103.063 371.426 102.953 371.718C102.661 371.829 102.352 371.885 102.04 371.885H102.036C101.724 371.885 101.415 371.829 101.123 371.719C101.013 371.426 100.957 371.116 100.957 370.804V370.8C100.957 370.478 101.016 370.17 101.123 369.885C101.415 369.775 101.724 369.718 102.036 369.719H102.039C102.361 369.719 102.668 369.778 102.952 369.885C103.062 370.177 103.119 370.487 103.118 370.8V370.804H103.119L103.119 370.804ZM106.302 370.08H103.778L105.562 368.292C105.282 367.897 104.937 367.552 104.543 367.271L102.759 369.059V366.53C102.521 366.49 102.281 366.47 102.04 366.47H102.036C101.791 366.47 101.551 366.491 101.318 366.53V369.059L99.5326 367.271C99.336 367.411 99.1515 367.568 98.981 367.739L98.9802 367.739C98.8097 367.91 98.6537 368.095 98.5138 368.292L100.299 370.08H97.7746C97.7746 370.08 97.7146 370.555 97.7146 370.8V370.803C97.7146 371.049 97.7354 371.29 97.7748 371.524H100.299L98.5137 373.312C98.7945 373.706 99.139 374.051 99.533 374.333L101.318 372.545V375.074C101.551 375.113 101.791 375.134 102.035 375.134H102.041C102.282 375.134 102.521 375.114 102.758 375.074V372.545L104.543 374.333C104.74 374.193 104.925 374.036 105.095 373.865H105.096C105.266 373.694 105.422 373.509 105.562 373.312L103.778 371.524H106.302C106.341 371.29 106.362 371.05 106.362 370.805V370.799C106.362 370.558 106.342 370.318 106.302 370.08L106.302 370.08ZM60.5558 390.975L67.5882 380.014H61.3891C61.3372 379.701 61.3113 379.353 61.3113 378.97C61.3113 378.605 61.3376 378.266 61.3897 377.952H71.4171L71.5475 378.292L64.4631 389.279H71.1045C71.1566 389.627 71.1828 389.983 71.1828 390.348C71.1828 390.697 71.1567 391.027 71.1047 391.34H60.6862L60.5558 390.975V390.975ZM80.8452 385.051C80.5848 385.016 80.2548 384.982 79.8555 384.947C79.4561 384.912 79.1175 384.894 78.8401 384.894C77.7633 384.894 76.9429 385.094 76.379 385.495C75.8142 385.895 75.5326 386.504 75.5326 387.321C75.5326 387.843 75.6277 388.252 75.8188 388.548C76.0096 388.844 76.2485 389.07 76.5351 389.226C76.8217 389.383 77.1383 389.479 77.4854 389.514C77.8325 389.548 78.1626 389.566 78.4751 389.566C78.8745 389.566 79.2868 389.544 79.7123 389.5C80.1375 389.457 80.5152 389.392 80.8453 389.305V385.051H80.8452ZM80.8452 382.52C80.8452 381.493 80.5848 380.78 80.064 380.379C79.5429 379.979 78.7877 379.779 77.798 379.779C77.1897 379.779 76.6215 379.827 76.092 379.923C75.5681 380.017 75.0505 380.143 74.5419 380.301C74.2118 379.727 74.0474 379.04 74.0474 378.239C74.637 378.048 75.288 377.9 76.0003 377.796C76.7122 377.691 77.398 377.639 78.0581 377.639C79.7944 377.639 81.1139 378.035 82.0169 378.827C82.9196 379.619 83.3714 380.884 83.3714 382.624V391.001C82.7633 391.14 82.0256 391.283 81.1575 391.431C80.2798 391.58 79.3911 391.654 78.5009 391.653C77.6502 391.653 76.8815 391.575 76.196 391.419C75.5099 391.262 74.9282 391.01 74.4508 390.661C73.9728 390.314 73.6044 389.87 73.3436 389.331C73.0833 388.791 72.953 388.139 72.953 387.374C72.953 386.626 73.1049 385.969 73.4088 385.403C73.7074 384.844 74.1309 384.362 74.6461 383.994C75.167 383.62 75.766 383.342 76.4432 383.159C77.1206 382.976 77.8322 382.885 78.5789 382.885C79.1345 382.885 79.5903 382.898 79.9464 382.924C80.302 382.95 80.6017 382.981 80.8449 383.016V382.52L80.8452 382.52ZM88.7628 389.148C89.0916 389.269 89.4321 389.357 89.7788 389.409C90.126 389.461 90.577 389.487 91.1332 389.487C91.7582 389.487 92.3309 389.387 92.8518 389.187C93.3729 388.988 93.8199 388.678 94.1932 388.261C94.5666 387.843 94.8616 387.317 95.0787 386.682C95.2957 386.047 95.4045 385.295 95.4045 384.425C95.4045 383.033 95.148 381.928 94.6361 381.11C94.1235 380.293 93.2857 379.884 92.1228 379.884C91.6887 379.884 91.2717 379.962 90.8729 380.119C90.473 380.275 90.1173 380.51 89.8047 380.823C89.4922 381.136 89.2405 381.533 89.0496 382.011C88.8581 382.49 88.763 383.059 88.763 383.72V389.148V389.148L88.7628 389.148ZM86.1843 377.952C86.3609 377.917 86.5389 377.891 86.7182 377.874C86.9044 377.857 87.0913 377.848 87.2783 377.848C87.4514 377.848 87.6336 377.857 87.825 377.874C88.0158 377.892 88.1981 377.918 88.372 377.952C88.3891 377.988 88.4111 378.096 88.4372 378.279C88.463 378.462 88.4891 378.657 88.5153 378.866C88.5414 379.075 88.5673 379.275 88.5934 379.466C88.6195 379.658 88.6325 379.779 88.6325 379.832C88.8058 379.553 89.0143 379.284 89.2575 379.023C89.5007 378.762 89.7918 378.527 90.1303 378.318C90.4689 378.109 90.8507 377.944 91.2763 377.822C91.7015 377.7 92.1747 377.639 92.6957 377.639C93.4769 377.639 94.2019 377.77 94.8707 378.031C95.5389 378.292 96.1115 378.696 96.5893 379.244C97.0666 379.792 97.4398 380.488 97.7092 381.332C97.9781 382.176 98.1126 383.172 98.1126 384.32C98.1126 386.617 97.4918 388.413 96.2501 389.709C95.0084 391.005 93.2508 391.653 90.9762 391.653C90.594 391.653 90.2036 391.627 89.8042 391.575C89.4045 391.523 89.0575 391.453 88.7621 391.366V397.499C88.5421 397.535 88.3207 397.561 88.0984 397.577C87.8637 397.594 87.6509 397.603 87.4598 397.603C87.2469 397.602 87.0341 397.594 86.8219 397.577C86.608 397.562 86.3951 397.536 86.1839 397.499V377.952L86.1843 377.952Z" fill="#060809"/>
<rect x="47.1935" y="358.97" width="94.6515" height="46.1322" rx="13.1288" stroke="black" stroke-width="2.38705"/>
<rect x="149.49" y="358.97" width="94.6515" height="46.1322" rx="13.1288" fill="#F4F4F4"/>
<path fill-rule="evenodd" clip-rule="evenodd" d="M167.186 373.522C168.005 374.183 168.301 374.131 169.833 374.027L184.268 373.156C184.581 373.156 184.32 372.843 184.216 372.808L181.813 371.084C181.36 370.736 180.733 370.318 179.567 370.422L165.602 371.45C165.097 371.502 164.992 371.763 165.201 371.955L167.186 373.522ZM168.057 376.882V392.066C168.057 392.885 168.457 393.181 169.38 393.129L185.243 392.206C186.166 392.153 186.271 391.596 186.271 390.935V375.855C186.271 375.193 186.009 374.828 185.452 374.88L168.875 375.855C168.266 375.907 168.057 376.221 168.057 376.882ZM183.711 377.701C183.815 378.154 183.711 378.624 183.258 378.676L182.492 378.833V390.046C181.83 390.395 181.221 390.604 180.698 390.604C179.88 390.604 179.671 390.342 179.062 389.576L174.064 381.723V389.315L175.649 389.663C175.649 389.663 175.649 390.586 174.378 390.586L170.86 390.795C170.756 390.586 170.86 390.081 171.208 389.977L172.131 389.716V379.686L170.86 379.581C170.756 379.129 171.017 378.467 171.731 378.415L175.509 378.154L180.716 386.094V379.076L179.392 378.92C179.288 378.362 179.706 377.945 180.211 377.892L183.711 377.701ZM164.435 370.057L178.975 368.994C180.751 368.838 181.221 368.942 182.335 369.761L186.967 373.017C187.733 373.574 187.994 373.731 187.994 374.34V392.223C187.994 393.337 187.594 393.999 186.166 394.104L169.293 395.131C168.213 395.183 167.709 395.027 167.151 394.313L163.721 389.872C163.112 389.054 162.85 388.444 162.85 387.731V371.833C162.85 370.91 163.268 370.161 164.435 370.057Z" fill="#060809"/>
<path d="M191.48 387.496V380.583H191.602L196.582 387.496H198.149V377.344H196.408V384.24H196.286L191.306 377.344H189.739V387.496H191.48ZM203.077 387.652C205.375 387.652 206.786 386.155 206.786 383.648C206.786 381.157 205.375 379.643 203.077 379.643C200.796 379.643 199.368 381.157 199.368 383.648C199.385 386.155 200.778 387.652 203.077 387.652ZM203.077 386.19C201.858 386.19 201.161 385.267 201.161 383.648C201.161 382.046 201.858 381.105 203.077 381.105C204.296 381.105 204.992 382.046 204.992 383.648C204.992 385.267 204.296 386.19 203.077 386.19ZM208.37 377.919V379.852H207.151V381.245H208.37V385.441C208.37 386.939 209.067 387.531 210.843 387.531C211.174 387.531 211.505 387.496 211.766 387.444V386.085C211.557 386.103 211.418 386.12 211.174 386.12C210.442 386.12 210.112 385.789 210.112 385.023V381.245H211.766V379.852H210.112V377.919H208.37ZM212.811 387.496H214.552V379.799H212.811V387.496ZM213.681 378.528C214.256 378.528 214.726 378.058 214.726 377.483C214.726 376.891 214.256 376.421 213.681 376.421C213.107 376.421 212.636 376.891 212.636 377.483C212.636 378.058 213.107 378.528 213.681 378.528ZM219.323 387.652C221.621 387.652 223.032 386.155 223.032 383.648C223.032 381.157 221.621 379.643 219.323 379.643C217.042 379.643 215.614 381.157 215.614 383.648C215.614 386.155 217.007 387.652 219.323 387.652ZM219.323 386.19C218.104 386.19 217.408 385.267 217.408 383.648C217.408 382.046 218.104 381.105 219.323 381.105C220.524 381.105 221.238 382.046 221.238 383.648C221.221 385.267 220.524 386.19 219.323 386.19ZM224.059 387.496H225.801V383.021C225.801 381.889 226.462 381.175 227.49 381.175C228.552 381.175 229.039 381.767 229.039 382.934V387.496H230.781V382.516C230.781 380.67 229.84 379.643 228.134 379.643C226.985 379.643 226.218 380.165 225.853 381.036H225.731V379.799H224.042C224.059 379.799 224.059 387.496 224.059 387.496Z" fill="#060809"/>
<rect x="149.49" y="358.97" width="94.6515" height="46.1322" rx="13.1288" stroke="black" stroke-width="2.38705"/>
</svg>
