<svg width="1500" height="601" viewBox="0 0 1500 601" fill="none" xmlns="http://www.w3.org/2000/svg">
<g clip-path="url(#clip0_374_338)">
<path d="M869.793 215.815C873.466 215.693 876.172 209.976 875.836 203.044C875.5 196.112 872.25 190.591 868.576 190.713C864.903 190.834 862.197 196.552 862.533 203.483C862.869 210.415 866.119 215.936 869.793 215.815Z" fill="#F4F4F4"/>
<path d="M712.044 223.812C715.717 223.69 718.423 217.973 718.087 211.041C717.751 204.109 714.501 198.588 710.827 198.71C707.154 198.831 704.448 204.549 704.784 211.48C705.12 218.412 708.37 223.933 712.044 223.812Z" fill="#F4F4F4"/>
<path d="M827.558 415.789C827.558 479.322 855.268 488.436 876.358 488.529C903.291 488.648 945.627 471.219 973.038 429.601C997.273 392.804 1020.92 347.653 1032.89 301.615" stroke="#1A4CE0" stroke-width="6" stroke-linecap="round"/>
<path d="M299.962 314.506C302.545 301.882 317.457 286.883 334.03 284.121H373.623" stroke="#1A4CE0" stroke-width="6" stroke-linecap="round" stroke-linejoin="round"/>
<path d="M589.571 313.187C554.54 250.989 511.716 106.861 620.67 27.9339C729.623 -50.9932 831.241 -18.8092 873.751 16.1378C916.235 51.062 927 103.652 923.081 148.041C923.796 158.05 928.385 189.468 932.732 202.173C938.049 217.71 950.019 248.211 932.732 297.011M639.972 396.833C643.19 439.371 622.228 509.706 536.598 504.182C487.797 501.033 454.084 444.954 446.363 378.038" stroke="#1A4CE0" stroke-width="6" stroke-linecap="round" stroke-linejoin="round"/>
<path d="M698.953 470.829C692.876 509.792 655.629 586.86 555.254 583.429C454.879 579.997 426.379 529.963 414.772 504.072C410.125 493.706 399.116 463.965 392.252 427.933" stroke="#1A4CE0" stroke-width="6" stroke-linecap="round" stroke-linejoin="round"/>
<path d="M761.152 420.87C756.862 459.475 753.786 559.428 827.558 531.805C862.546 518.704 899.92 523.175 894.773 559.207C888.339 604.247 837.686 595.337 837.686 595.337C837.686 595.337 825.845 594.906 819.271 591.654C812.873 588.49 805.459 579.684 805.459 579.684C787.944 588.621 751.5 586.66 730.053 559.207C708.605 531.754 699.009 493.457 698.651 473.797" stroke="#1A4CE0" stroke-width="6" stroke-linecap="round" stroke-linejoin="round"/>
<path d="M949.098 301.615C951.242 299.47 987.424 167.343 1015.31 142.678M1051.77 101.928C1059.27 99.7831 1098.95 71.9012 1122.54 98.7108C1138.05 116.337 1129 150.187 1107.87 174.051" stroke="#1A4CE0" stroke-width="6" stroke-linecap="round" stroke-linejoin="round"/>
<path d="M1030.12 299.774C1032.27 297.629 1054.49 199.508 1082.37 174.844" stroke="#1A4CE0" stroke-width="6" stroke-linecap="round" stroke-linejoin="round"/>
<circle cx="703.243" cy="198.442" r="63.4876" stroke="#F4F4F4" stroke-width="6"/>
<circle cx="867.318" cy="190.935" r="55.9809" stroke="#F4F4F4" stroke-width="6"/>
<path d="M767.414 194.071C773.276 188.619 790.173 179.352 810.863 185.894" stroke="#F4F4F4" stroke-width="6"/>
<path d="M638.371 195.375C635.764 194.506 602.44 179.856 584.209 172.707C580.635 172.707 572.627 175.066 569.196 184.503" stroke="#F4F4F4" stroke-width="6" stroke-linecap="round"/>
<path d="M590.002 314.506C605.655 342.128 598.15 424.716 563.834 450.454C529.518 476.191 529.518 340.356 533.807 269.221C535.952 236.692 524.799 163.27 463.03 129.812C452.664 124.092 422.424 112.859 405.85 122.068M391.181 205.951C401.547 213.458 426.355 226.755 442.655 219.892C446.944 218.462 457.025 220.75 463.03 241.34C469.035 261.929 465.532 350.007 463.03 391.473" stroke="#1A4CE0" stroke-width="6" stroke-linecap="round" stroke-linejoin="round"/>
<rect x="871.071" y="299.09" width="365.987" height="272.069" rx="17" fill="#060809" stroke="#F4F4F4" stroke-width="6"/>
<path d="M1004.5 585.507C1004.5 610 979.75 610 955 610H1153C1128.25 610 1103.5 610 1103.5 585.507V512H1004.5V585.507Z" fill="#060809" stroke="#F4F4F4" stroke-width="6" stroke-linejoin="round"/>
<g clip-path="url(#clip1_374_338)">
<mask id="path-17-inside-1_374_338" fill="white">
<path d="M1075.03 253.627L1114.49 274.514C1115.94 275.258 1117.53 275.673 1119.16 275.73C1120.79 275.786 1122.4 275.482 1123.89 274.841C1125.38 274.199 1126.7 273.236 1127.76 272.021C1128.82 270.806 1129.6 269.37 1130.02 267.819C1130.29 267.115 1130.49 266.385 1130.61 265.641L1132.06 221.247L1051.03 82.4236C1048.82 78.634 1043.96 77.3335 1040.15 79.5086L996.848 104.226C992.979 106.434 991.659 111.376 993.911 115.219L1075.03 253.627Z"/>
</mask>
<path d="M1075.03 253.627L1114.49 274.514C1115.94 275.258 1117.53 275.673 1119.16 275.73C1120.79 275.786 1122.4 275.482 1123.89 274.841C1125.38 274.199 1126.7 273.236 1127.76 272.021C1128.82 270.806 1129.6 269.37 1130.02 267.819C1130.29 267.115 1130.49 266.385 1130.61 265.641L1132.06 221.247L1051.03 82.4236C1048.82 78.634 1043.96 77.3335 1040.15 79.5086L996.848 104.226C992.979 106.434 991.659 111.376 993.911 115.219L1075.03 253.627Z" fill="#060809"/>
<path d="M1075.03 253.627L1069.85 256.661C1070.42 257.622 1071.24 258.408 1072.22 258.93L1075.03 253.627ZM1114.49 274.514L1111.68 279.817L1111.72 279.834L1111.75 279.851L1114.49 274.514ZM1130.02 267.819L1124.41 265.685L1124.31 265.953L1124.24 266.231L1130.02 267.819ZM1130.61 265.641L1136.53 266.597L1136.59 266.219L1136.6 265.838L1130.61 265.641ZM1132.06 221.247L1138.06 221.444C1138.09 220.315 1137.81 219.198 1137.24 218.223L1132.06 221.247ZM996.848 104.226L999.822 109.437L996.848 104.226ZM993.911 115.219L988.735 118.253L993.911 115.219ZM1051.03 82.4236L1045.85 85.4483L1051.03 82.4236ZM1040.15 79.5086L1043.13 84.7195L1040.15 79.5086ZM1072.22 258.93L1111.68 279.817L1117.3 269.211L1077.84 248.324L1072.22 258.93ZM1111.75 279.851C1113.98 280.998 1116.44 281.639 1118.95 281.726L1119.37 269.733C1118.63 269.707 1117.9 269.517 1117.23 269.177L1111.75 279.851ZM1118.95 281.726C1121.46 281.813 1123.96 281.345 1126.27 280.351L1121.52 269.331C1120.85 269.62 1120.11 269.759 1119.37 269.733L1118.95 281.726ZM1126.27 280.351C1128.57 279.356 1130.63 277.86 1132.28 275.966L1123.24 268.075C1122.78 268.611 1122.19 269.042 1121.52 269.331L1126.27 280.351ZM1132.28 275.966C1133.94 274.073 1135.14 271.832 1135.81 269.407L1124.24 266.231C1124.05 266.909 1123.71 267.539 1123.24 268.075L1132.28 275.966ZM1135.63 269.953C1136.04 268.868 1136.34 267.743 1136.53 266.597L1124.68 264.686C1124.63 265.027 1124.54 265.362 1124.41 265.685L1135.63 269.953ZM1136.6 265.838L1138.06 221.444L1126.06 221.051L1124.61 265.444L1136.6 265.838ZM1137.24 218.223L1056.21 79.3989L1045.85 85.4483L1126.88 224.272L1137.24 218.223ZM1037.18 74.2976L993.873 99.0148L999.822 109.437L1043.13 84.7195L1037.18 74.2976ZM988.735 118.253L1069.85 256.661L1080.21 250.593L999.088 112.185L988.735 118.253ZM993.873 99.0148C987.104 102.879 984.793 111.528 988.735 118.253L999.088 112.185C998.525 111.224 998.855 109.989 999.822 109.437L993.873 99.0148ZM1056.21 79.3989C1052.34 72.7671 1043.85 70.4912 1037.18 74.2976L1043.13 84.7195C1044.08 84.1758 1045.29 84.5009 1045.85 85.4483L1056.21 79.3989Z" fill="#F4F4F4" mask="url(#path-17-inside-1_374_338)"/>
</g>
<path d="M281.316 101.754C283.364 94.1095 291.242 89.5617 298.886 91.61L403.489 119.638C409.946 121.368 414.191 127.243 414.119 133.646L402.651 178.19L398.489 190.704C391.569 206.493 378.95 219.093 363.147 225.988C347.303 232.901 329.431 233.567 313.117 227.853C296.802 222.139 283.252 210.467 275.183 195.18C267.115 179.892 265.126 162.119 269.614 145.426L269.615 145.423L281.316 101.754Z" stroke="#F4F4F4" stroke-width="6"/>
<path d="M399.13 191.085L405.501 192.792C413.115 194.692 421.171 193.525 427.934 189.542C434.696 185.559 439.624 179.08 441.655 171.5C443.686 163.919 442.658 155.844 438.793 149.014C434.928 142.184 428.535 137.145 420.991 134.983L414.948 133.364" stroke="#F4F4F4" stroke-width="6" stroke-linecap="round"/>
<g clip-path="url(#clip2_374_338)">
<path d="M348.34 260.642C349.975 254.543 353.965 249.342 359.434 246.185C364.902 243.027 371.401 242.172 377.501 243.806L455.189 264.623C461.288 266.257 466.489 270.247 469.646 275.716C472.803 281.185 473.659 287.684 472.025 293.783L430.392 449.159C428.758 455.259 424.767 460.459 419.298 463.616C413.83 466.774 407.331 467.629 401.231 465.995L323.543 445.179C317.444 443.544 312.243 439.554 309.086 434.085C305.929 428.616 305.073 422.118 306.707 416.018L348.34 260.642ZM387.865 423.886C388.991 419.684 388.401 415.206 386.226 411.438C384.051 407.67 380.467 404.921 376.265 403.795C372.062 402.669 367.585 403.258 363.817 405.434C360.049 407.609 357.299 411.192 356.173 415.395C355.047 419.597 355.637 424.075 357.812 427.843C359.988 431.611 363.571 434.36 367.773 435.486C371.976 436.612 376.454 436.023 380.221 433.848C383.989 431.672 386.739 428.089 387.865 423.886Z" fill="#060809" stroke="#F4F4F4" stroke-width="6"/>
</g>
<path d="M1020.67 168.415C1013.34 188.863 1020.67 209.166 1066.78 199.514C1081.97 196.335 1095.76 187.222 1106.59 175.471L1090.89 148.769L1070.64 111.939L1066.78 114.796C1066.78 114.796 1050.1 128.782 1041.17 138.641C1031.13 149.731 1022.76 162.58 1020.67 168.415Z" fill="#060809"/>
<path d="M1106.59 175.471C1095.76 187.222 1081.97 196.335 1066.78 199.514C1020.67 209.166 1013.34 188.863 1020.67 168.415C1022.76 162.58 1031.13 149.731 1041.17 138.641C1050.1 128.782 1066.78 114.796 1066.78 114.796" stroke="#1A4CE0" stroke-width="6" stroke-linecap="round" stroke-linejoin="round"/>
<path d="M380.457 386.109C371.02 396.404 352.61 395.142 339.556 391.849C330.357 389.529 317.103 378.946 308.182 363.306L330.348 309.902L334.031 311.743C392.039 331.079 392.253 373.24 380.457 386.109Z" fill="#060809"/>
<path d="M334.031 311.743C392.039 331.079 392.253 373.24 380.457 386.109C371.02 396.404 352.61 395.142 339.556 391.849C322.548 387.56 291.676 355.019 299.963 314.506C302.545 301.882 317.458 286.883 334.031 284.121" stroke="#1A4CE0" stroke-width="6" stroke-linecap="round" stroke-linejoin="round"/>
<path d="M423.345 164.423C424.818 144.534 452.809 150.611 466.621 156.136L452.809 222.43C445.75 214.143 421.872 184.311 423.345 164.423Z" fill="#060809"/>
<path d="M466.621 156.136C452.809 150.611 424.818 144.534 423.345 164.423C421.872 184.311 445.75 214.143 452.809 222.43" stroke="#1A4CE0" stroke-width="6" stroke-linecap="round"/>
<path d="M844.443 304.845C834.924 267.547 769.55 278.596 757.581 318.786" stroke="#F4F4F4" stroke-width="6" stroke-linecap="round"/>
</g>
<defs>
<clipPath id="clip0_374_338">
<rect width="1500" height="600" fill="white" transform="translate(0 0.5)"/>
</clipPath>
<clipPath id="clip1_374_338">
<rect width="214.476" height="214.476" fill="white" transform="translate(941.731 249.128) rotate(-75)"/>
</clipPath>
<clipPath id="clip2_374_338">
<rect width="214.476" height="214.476" fill="white" transform="translate(313.538 223.563) rotate(15)"/>
</clipPath>
</defs>
</svg>
