<svg width="100" height="100" viewBox="0 0 100 100" fill="none" xmlns="http://www.w3.org/2000/svg">
    <path
        d="M1 35H84M84 29.1V95.9C84 97.6 82.6 99 80.9 99H4.1C3.27783 99 2.48933 98.6734 1.90797 98.092C1.32661 97.5107 1 96.7222 1 95.9V29.1C1 27.4 2.4 26 4.1 26H80.9C82.6 26 84 27.4 84 29.1V29.1Z"
        stroke="#1A4CE0" />
    <path
        d="M91 1V2.4C91 3.8 89.8 5 88.4 5H77.6C76.9104 5 76.2491 4.72607 75.7615 4.23848C75.2739 3.75088 75 3.08956 75 2.4V1"
        stroke="#F4F4F4" />
    <path
        d="M94.9 1H71.1C68.8356 1 67 2.83563 67 5.1V58.9C67 61.1644 68.8356 63 71.1 63H94.9C97.1644 63 99 61.1644 99 58.9V5.1C99 2.83563 97.1644 1 94.9 1Z"
        stroke="#F4F4F4" />
    <path
        d="M6.5 29C7.32843 29 8 29.6716 8 30.5C8 31.3284 7.32843 32 6.5 32C5.67157 32 5 31.3284 5 30.5C5 29.6716 5.67157 29 6.5 29Z"
        fill="#1A4CE0" />
    <path
        d="M11.5 29C12.3284 29 13 29.6716 13 30.5C13 31.3284 12.3284 32 11.5 32C10.6716 32 10 31.3284 10 30.5C10 29.6716 10.6716 29 11.5 29Z"
        fill="#1A4CE0" />
    <path
        d="M16.5 29C15.6716 29 15 29.6716 15 30.5C15 31.3284 15.6716 32 16.5 32C17.3284 32 18 31.3284 18 30.5C18 29.6716 17.3284 29 16.5 29Z"
        fill="#1A4CE0" />
</svg>