<svg width="100" height="100" viewBox="0 0 100 100" fill="none" xmlns="http://www.w3.org/2000/svg">
<path class="accent" d="M19.0001 15C19.0001 15 30.3402 1 50.1585 1C69.9769 1 81.0001 15 81.0001 15" stroke="#1A4CE0" stroke-width="2" stroke-miterlimit="10" stroke-linecap="round" stroke-linejoin="round"/>
<path d="M16 35C16 35 26.9993 13 49.9999 13C73.0006 13 84 35 84 35" stroke="#F4F4F4" stroke-width="2" stroke-miterlimit="10" stroke-linecap="round"/>
<path class="accent" d="M84 72C84 48 70 25 50 25C30 25 16 49 16 70C16 77.6407 16.9267 83.5604 18.1057 88M58.2091 99C58.2091 99 39 90.5 39 64C39 58 42.5 49 50 49C57.5 49 60.5 58 61 64C62.2498 78.998 76.2149 84.0534 81.5 77.451" stroke="#1A4CE0" stroke-width="2" stroke-miterlimit="10" stroke-linecap="round" stroke-linejoin="round"/>
<path d="M35.5 94.5C35.5 94.5 28.5001 87 28 71C27.5 55 35.0432 37.0417 50 37C64.9568 36.9583 73.2522 55.2501 73.1131 67.9902" stroke="#F4F4F4" stroke-width="2" stroke-miterlimit="10" stroke-linecap="round"/>
<path d="M50 61C50 61 50.1727 72.8672 55.3448 80.8305C60.7567 89.1639 68.2077 90.3205 68.2077 90.3205" stroke="#F4F4F4" stroke-width="2" stroke-miterlimit="10" stroke-linecap="round"/>
</svg>
