<svg fill="none" xmlns="http://www.w3.org/2000/svg" viewBox="0 0 180 180"><path d="M16.8 149.4h117.6c8.284 0 15-6.716 15-15V16.8c0-8.284-6.716-15-15-15H16.8c-8.284 0-15 6.716-15 15 0 39.2-.002 78.4 0 117.601 0 8.284 6.715 14.999 15 14.999Z" stroke="#1A4CE0" stroke-width="3.6" stroke-miterlimit="10" class="accent"/><path d="M180 45a1.8 1.8 0 0 0-3.6 0h3.6ZM45 176.4a1.8 1.8 0 0 0 0 3.6v-3.6ZM176.4 45v118.2h3.6V45h-3.6Zm-13.2 131.4H45v3.6h118.2v-3.6Zm13.2-13.2c0 7.29-5.91 13.2-13.2 13.2v3.6c9.278 0 16.8-7.522 16.8-16.8h-3.6Z" fill="#F4F4F4"/><path d="M30.6 81.076 56.794 106.2 120.6 45" stroke="#F4F4F4" stroke-width="3.6" stroke-linecap="round" stroke-linejoin="round"/></svg>