<svg width="180" height="180" viewBox="0 0 180 180" fill="none" xmlns="http://www.w3.org/2000/svg">
<path d="M62.3024 51.9165C62.3024 26.5575 86.8665 6 117.168 6C147.469 6 172.033 26.5575 172.033 51.9165C172.033 63.6141 166.575 78.9666 157.205 85.3471C157.791 92.7369 168.984 108.628 173.311 114.524C173.869 115.284 173.177 116.317 172.267 116.066C164.625 113.952 142.965 107.289 133.479 97.324C104.4 106.216 62.3024 84.7068 62.3024 51.9165Z" stroke="#F4F4F4" stroke-width="2"/>
<path class="accent" d="M131.067 101.39C131.067 72.9707 103.589 49.9321 69.6925 49.9321C35.7961 49.9321 8.31756 72.9707 8.31756 101.39C8.31756 114.5 14.4234 131.705 24.9054 138.856C24.2399 147.254 11.372 165.452 6.68724 171.828C6.12888 172.587 6.8096 173.624 7.71891 173.374C15.9502 171.114 40.6923 163.596 51.4459 152.278C83.9751 162.243 131.067 138.138 131.067 101.39Z" stroke="#1A4CE0" stroke-width="2"/>
</svg>
