<svg width="101" height="101" viewBox="0 0 101 101" fill="none" xmlns="http://www.w3.org/2000/svg">
<path d="M18.5586 66.669L34 82" stroke="#F4F4F4" stroke-width="2" stroke-miterlimit="10" stroke-linecap="round" stroke-linejoin="round"/>
<path d="M76.5414 53.9411L34.208 82.3183C29.2465 87.2797 18.607 97.9193 18.607 97.9193L2.94808 82.2795L18.5587 66.669L46.8429 24.2426" stroke="#F4F4F4" stroke-width="2" stroke-miterlimit="10" stroke-linejoin="round"/>
<path d="M5.83067 85.0538L1.58804 89.2964C1.58804 89.2964 1.54718 90.6698 5.83068 94.9533C10.1142 99.2368 11.4875 99.1959 11.4875 99.1959L15.7302 94.9533L5.83067 85.0538Z" stroke="#F4F4F4" stroke-width="2"/>
<path d="M30.6865 85.6493L43.377 98.873C46.9125 102.409 54.0355 95.0356 50.5 91.5L38.5 79" stroke="#F4F4F4" stroke-width="2" stroke-miterlimit="10"/>
<path d="M65 18L65 2.00006" stroke="#1A4CE0" stroke-width="2" stroke-miterlimit="10" stroke-linecap="round" stroke-linejoin="round"/>
<path d="M78 23.1978L89.5001 12" stroke="#1A4CE0" stroke-width="2" stroke-miterlimit="10" stroke-linecap="round" stroke-linejoin="round"/>
<path d="M83 36L99.0001 36" stroke="#1A4CE0" stroke-width="2" stroke-miterlimit="10" stroke-linecap="round" stroke-linejoin="round"/>
<path d="M76.8949 53.5876C79.0428 51.4397 74.1357 43.0502 65.9347 34.8492C57.7337 26.6482 49.3443 21.7412 47.1964 23.8891C45.0485 26.037 49.9555 34.4264 58.1566 42.6274C66.3576 50.8284 74.747 55.7355 76.8949 53.5876Z" stroke="#1A4CE0" stroke-width="2" stroke-miterlimit="10" stroke-linecap="round" stroke-linejoin="round"/>
</svg>
