<svg fill="none" xmlns="http://www.w3.org/2000/svg" viewBox="0 0 180 180"><path d="M165.6 163.2V16.8c0-8.284-6.716-15-15-15H29.408c-8.287 0-15.004 6.721-15 15.009l.083 146.4c.005 8.28 6.718 14.991 15 14.991H150.6c8.284 0 14.999-6.716 14.999-15Z" stroke="#F4F4F4" stroke-width="3.6" stroke-miterlimit="10"/><path d="M91.8 37.8h46.8M91.8 52.676h30.469M34.2 82.8h111.6M34.2 97.2h111.6M34.2 111.6h111.6M34.2 126H90" stroke="#F4F4F4" stroke-width="3.6" stroke-miterlimit="10" stroke-linecap="round" stroke-linejoin="round"/><circle cx="34.2" cy="147.6" r="1.8" fill="#F4F4F4"/><circle cx="46.8" cy="147.6" r="1.8" fill="#F4F4F4"/><circle cx="59.4" cy="147.6" r="1.8" fill="#F4F4F4" class="accent"/><circle cx="133.2" cy="147.6" r="1.8" fill="#F4F4F4"/><circle cx="145.8" cy="147.6" r="1.8" fill="#F4F4F4"/><circle r="7.2" transform="matrix(-1 0 0 1 55.8 41.4)" stroke="#1A4CE0" stroke-width="3.6" class="accent"/><path d="M69.855 61.2c-1.611-6.21-7.293-10.8-14.055-10.8s-12.444 4.59-14.055 10.8" stroke="#1A4CE0" stroke-width="3.6" class="accent"/><circle cx="55.8" cy="45" r="21.6" stroke="#1A4CE0" stroke-width="3.6" class="accent"/><circle cx="72" cy="147.6" r="1.8" fill="#1A4CE0"/><circle cx="108" cy="147.6" r="1.8" fill="#1A4CE0" class="accent"/><circle cx="120.6" cy="147.6" r="1.8" fill="#1A4CE0" class="accent"/></svg>