<svg width="595" height="317" viewBox="0 0 595 317" fill="none" xmlns="http://www.w3.org/2000/svg">
<path fill-rule="evenodd" clip-rule="evenodd" d="M365.995 186.699C438.763 171.558 507.06 151.884 548.921 138.682C587.477 126.521 557.632 -3.445 508.47 8.81474L327.914 56.9722C319.463 61.0551 314.648 70.4564 312.719 82.4483C312.549 83.5034 312.402 84.5784 312.276 85.6717L180.367 120.898C174.404 123.779 171.224 130.731 170.203 139.49C170.082 140.531 169.991 141.597 169.929 142.685L78.627 168.515C74.1495 170.68 72.2565 176.482 72.23 183.435C72.2261 184.443 72.2615 185.475 72.3339 186.523L62.2821 189.372C60.7527 190.109 59.908 191.806 59.6005 193.955C59.4625 194.92 59.4327 195.977 59.4978 197.078L55.3166 198.146C54.6288 198.475 54.2737 199.314 54.1746 200.358C54.0387 201.789 54.3838 203.603 55.0126 205.012C55.1152 205.242 55.2254 205.461 55.3424 205.666C55.9877 206.797 56.8372 207.493 57.7464 207.178C58.1665 207.093 58.5584 207.01 58.9257 206.931C60.1505 206.666 61.1008 206.435 61.9043 206.219C62.3804 207.202 62.9124 208.107 63.4879 208.891C65.1195 211.113 67.0999 212.361 69.1422 211.647C71.8673 211.082 74.1256 210.578 76.0634 210.111C77.1595 209.846 78.153 209.594 79.0704 209.35C79.5974 210.284 80.1476 211.174 80.7187 212.012C84.5231 217.592 89.2503 220.843 94.1377 219.126C115.543 214.665 155.105 203.166 181.126 195.314C182.151 195.005 183.154 194.701 184.135 194.404C184.756 195.297 185.39 196.151 186.038 196.961C191.661 203.99 198.284 207.703 205.134 205.299C211.871 203.896 219.319 202.221 227.218 200.355C228.284 200.104 229.358 199.848 230.44 199.59L230.626 199.653L215.954 242.733C214.803 246.11 215.983 249.843 218.866 251.945V251.945C220.355 253.031 222.167 253.58 224.008 253.504L228.903 253.3C241.184 252.788 250.708 242.386 250.137 230.107L248.513 195.148C248.522 195.146 248.532 195.143 248.542 195.141C248.768 195.084 248.995 195.027 249.222 194.969C249.973 194.78 250.726 194.59 251.481 194.398C252.701 194.089 253.925 193.778 255.153 193.464C256.17 193.204 257.19 192.942 258.212 192.68L252.465 278.075C252.244 281.367 253.658 284.557 256.247 286.603V286.603C258.201 288.147 260.661 288.908 263.146 288.736L268.506 288.365C282.451 287.4 292.599 274.731 290.495 260.912L279.269 187.16C280.242 186.9 281.214 186.64 282.185 186.38C299.996 181.606 317.328 176.765 331.89 172.572C332.926 172.273 333.947 171.978 334.954 171.687C335.602 172.567 336.26 173.418 336.926 174.239C345.508 184.81 355.581 190.352 365.995 186.699ZM340.066 173.326C348.153 182.866 356.695 186.782 365.002 183.868L365.19 183.802L365.384 183.762C438.026 168.647 506.221 149.003 548.019 135.821C555.903 133.334 560.988 124.56 562.807 111.133C564.595 97.9264 563.013 81.3379 558.694 65.3742C554.372 49.4001 547.399 34.3772 538.673 24.1743C529.957 13.9833 519.955 9.05317 509.219 11.7198C509.211 11.7218 509.204 11.7237 509.196 11.7256L328.974 59.7945C322.23 63.1839 317.866 70.867 315.908 81.5968L333.832 76.8103L333.889 76.7974C343.092 74.7187 350.797 79.8109 356.548 87.3067C362.321 94.8312 366.686 105.403 369.455 116.161C372.23 126.939 373.481 138.209 372.819 147.269C372.49 151.787 371.672 155.929 370.21 159.225C368.754 162.507 366.473 165.333 363.034 166.419C357.44 168.183 349.525 170.567 340.066 173.326ZM308.912 89.6753L181.434 123.718C177.238 125.883 174.439 131.016 173.343 138.601L184.256 135.514L184.334 135.497C190.582 134.084 195.743 137.496 199.452 142.157C203.176 146.839 205.97 153.355 207.752 159.91C209.539 166.484 210.39 173.399 210.017 179.021C209.831 181.82 209.332 184.473 208.368 186.642C207.408 188.806 205.812 190.844 203.275 191.645C200.072 192.657 195.176 194.177 189.147 196.015C194.274 202.025 199.379 204.139 204.14 202.468L204.328 202.402L204.522 202.361C213.786 200.433 224.401 197.987 235.687 195.237L251.331 191.168L251.339 191.339C252.677 191 254.019 190.658 255.365 190.313L256.869 167.963C257.221 162.726 261.145 158.427 266.329 157.599V157.599C272.502 156.613 278.297 160.844 279.238 167.025L281.73 183.396C299.02 178.759 315.846 174.063 330.101 169.965C323.643 160.163 318.318 147.789 314.604 134.886C310.249 119.758 308.031 103.629 308.912 89.6753ZM336.159 168.214C329.684 158.877 324.184 146.479 320.37 133.227C315.934 117.817 313.863 101.551 315.052 88.0356L335.264 82.638C341.117 81.3417 346.68 84.3024 351.788 90.9591C356.889 97.6075 360.987 107.331 363.645 117.657C366.298 127.962 367.439 138.565 366.835 146.832C366.533 150.978 365.803 154.364 364.725 156.792C363.642 159.235 362.391 160.33 361.228 160.697C355.233 162.588 346.554 165.195 336.159 168.214ZM275.898 184.953L273.307 167.928C272.867 165.04 270.159 163.063 267.275 163.524V163.524C264.853 163.911 263.02 165.919 262.855 168.366L261.484 188.737C266.277 187.495 271.096 186.229 275.898 184.953ZM261.06 195.044L255.458 278.276C255.303 280.582 256.294 282.816 258.107 284.249V284.249C259.476 285.331 261.198 285.863 262.939 285.743L268.299 285.372C280.495 284.529 289.369 273.449 287.53 261.364L276.806 190.919C271.557 192.313 266.289 193.694 261.06 195.044ZM185.401 190.884C192.307 188.784 197.915 187.046 201.468 185.924C201.755 185.833 202.312 185.498 202.885 184.207C203.455 182.923 203.87 181.04 204.03 178.624C204.349 173.814 203.619 167.578 201.962 161.484C200.301 155.371 197.789 149.705 194.756 145.893C191.732 142.091 188.707 140.692 185.728 141.333L172.844 144.978C172.69 152.788 174.011 161.694 176.464 170.221C178.686 177.942 181.784 185.173 185.401 190.884ZM166.834 146.679L79.7259 171.322C77.4924 172.53 75.8416 175.546 75.3642 180.598C75.3034 181.241 75.2636 181.903 75.244 182.581L83.3989 180.27L83.4794 180.251C87.1381 179.429 90.0037 181.492 91.8263 183.776C93.6646 186.08 94.9792 189.186 95.8015 192.195C96.6287 195.223 97.0405 198.457 96.8629 201.159C96.7749 202.498 96.5316 203.882 95.9967 205.085C95.4639 206.284 94.468 207.656 92.7198 208.206C91.0482 208.731 89.6177 209.21 88.2468 209.669C86.7604 210.167 85.3439 210.641 83.7658 211.126C84.1717 211.679 84.5857 212.199 85.0061 212.682C88.0881 216.224 90.8225 217.111 93.1435 216.296L93.331 216.23L93.5256 216.189C114.594 211.798 153.479 200.514 179.464 192.682C175.841 186.614 172.852 179.366 170.698 171.88C168.303 163.556 166.885 154.747 166.834 146.679ZM80.596 205.812C82.6746 205.206 84.4025 204.628 86.2881 203.997C87.5755 203.566 88.9364 203.11 90.5327 202.604C90.6684 202.277 90.8158 201.679 90.8758 200.765C90.9999 198.878 90.7098 196.324 90.0137 193.777C89.3125 191.211 88.2823 188.954 87.1365 187.519C86.0256 186.127 85.284 186.018 84.8525 186.094L75.5583 188.728C75.9223 191.708 76.5805 194.81 77.4923 197.84C78.3457 200.677 79.3999 203.381 80.596 205.812ZM69.7236 190.381L63.4595 192.157C63.2985 192.287 63.0652 192.566 62.8642 193.122L62.9468 193.101L62.993 193.09C65.4062 192.554 67.1707 193.965 68.0922 195.113C69.0291 196.28 69.6368 197.757 70.0004 199.073C70.3689 200.408 70.5711 201.885 70.4866 203.195C70.4451 203.838 70.3242 204.618 69.9926 205.362C69.6621 206.104 68.9502 207.157 67.5788 207.584C67.2171 207.696 66.8821 207.804 66.5615 207.909C67.5957 209.015 68.078 208.842 68.1485 208.816L68.152 208.815L68.3393 208.749L68.5337 208.709C70.9184 208.215 72.9339 207.77 74.685 207.356C73.5381 204.878 72.5511 202.243 71.7467 199.569C70.8447 196.571 70.1519 193.457 69.7236 190.381ZM63.6426 202.554C63.7345 202.524 63.8271 202.493 63.921 202.462C64.1066 202.4 64.297 202.337 64.4954 202.272C64.4671 201.82 64.3795 201.259 64.2169 200.67C64.0317 200 63.7992 199.473 63.5915 199.129L62.7966 199.332C62.9471 200.14 63.1477 200.965 63.3959 201.786C63.4745 202.046 63.5568 202.302 63.6426 202.554ZM232.945 202.149L237.167 201.051C239.97 200.368 242.813 199.667 245.686 198.949L247.14 230.246C247.634 240.865 239.398 249.859 228.778 250.302L223.883 250.506C222.72 250.555 221.575 250.208 220.634 249.521V249.521C218.812 248.193 218.067 245.834 218.793 243.7L232.945 202.149ZM52.2585 206.202C52.3279 205.815 52.3641 205.418 52.3641 205.012C52.3641 203.579 51.9135 202.252 51.1464 201.165C49.9368 199.45 47.9402 198.33 45.682 198.33C41.9917 198.33 39 201.321 39 205.012C39 208.568 41.7782 211.475 45.2826 211.682C45.4148 211.69 45.5479 211.694 45.682 211.694C45.8162 211.694 45.9493 211.69 46.0815 211.682C49.1857 211.499 51.7201 209.197 52.2585 206.202ZM45.9371 214.69C45.8525 214.673 45.7675 214.664 45.682 214.664C45.5966 214.664 45.5116 214.673 45.427 214.69C41.8548 215.443 39 231.929 39 252.157C39 272.865 41.9917 289.651 45.682 289.651C49.3724 289.651 52.3641 272.865 52.3641 252.157C52.3641 231.929 49.5093 215.443 45.9371 214.69ZM47.4535 278.143C48.6233 271.579 49.3641 262.39 49.3641 252.157C49.3641 241.924 48.6233 232.735 47.4535 226.172C46.912 223.133 46.2998 220.781 45.682 219.181C45.0643 220.781 44.4521 223.133 43.9106 226.172C42.7408 232.735 42 241.924 42 252.157C42 262.39 42.7408 271.579 43.9106 278.143C44.4521 281.181 45.0643 283.533 45.6821 285.134C46.2998 283.533 46.912 281.181 47.4535 278.143ZM45.682 208.694C47.7156 208.694 49.3641 207.045 49.3641 205.012C49.3641 202.978 47.7156 201.33 45.682 201.33C43.6485 201.33 42 202.978 42 205.012C42 207.045 43.6485 208.694 45.682 208.694Z" fill="#C8C8C8"/>
<path fill-rule="evenodd" clip-rule="evenodd" d="M367.995 183.699C440.763 168.558 509.06 148.884 550.921 135.682C589.477 123.521 559.632 -6.445 510.47 5.81474L329.914 53.9722C321.463 58.0551 316.648 67.4564 314.719 79.4483C314.549 80.5034 314.402 81.5784 314.276 82.6717L182.367 117.898C176.404 120.779 173.224 127.731 172.203 136.49C172.082 137.531 171.991 138.597 171.929 139.685L80.627 165.515C76.1495 167.68 74.2565 173.482 74.23 180.435C74.2261 181.443 74.2615 182.475 74.3339 183.523L64.2821 186.372C62.7527 187.109 61.908 188.806 61.6005 190.955C61.4625 191.92 61.4327 192.977 61.4978 194.078L57.3166 195.146C56.6288 195.475 56.2737 196.314 56.1746 197.358C56.0387 198.789 56.3838 200.603 57.0126 202.012C57.1152 202.242 57.2254 202.461 57.3424 202.666C57.9877 203.797 58.8372 204.493 59.7464 204.178C60.1665 204.093 60.5584 204.01 60.9257 203.931C62.1505 203.666 63.1008 203.435 63.9043 203.219C64.3804 204.202 64.9124 205.107 65.4879 205.891C67.1195 208.113 69.0999 209.361 71.1422 208.647C73.8673 208.082 76.1256 207.578 78.0634 207.111C79.1595 206.846 80.153 206.594 81.0704 206.35C81.5974 207.284 82.1476 208.174 82.7187 209.012C86.5231 214.592 91.2503 217.843 96.1377 216.126C117.543 211.665 157.105 200.166 183.126 192.314C184.151 192.005 185.154 191.701 186.135 191.404C186.756 192.297 187.39 193.151 188.038 193.961C193.661 200.99 200.284 204.703 207.134 202.299C213.871 200.896 221.319 199.221 229.218 197.355C230.284 197.104 231.358 196.848 232.44 196.59C232.494 196.577 232.547 196.564 232.6 196.551L232.626 196.653L217.954 239.733C216.803 243.11 217.983 246.843 220.866 248.945V248.945C222.355 250.031 224.167 250.58 226.008 250.504L230.903 250.3C243.184 249.788 252.708 239.386 252.137 227.107L250.513 192.148C250.522 192.146 250.532 192.143 250.542 192.141C250.768 192.084 250.995 192.027 251.222 191.969C251.973 191.78 252.726 191.59 253.481 191.398C254.701 191.089 255.925 190.778 257.153 190.464C258.17 190.204 259.19 189.942 260.212 189.68L254.465 275.075C254.244 278.367 255.658 281.557 258.247 283.603V283.603C260.201 285.147 262.661 285.908 265.146 285.736L270.506 285.365C284.451 284.4 294.599 271.731 292.495 257.912L281.269 184.16C282.242 183.9 283.214 183.64 284.185 183.38C301.996 178.606 319.328 173.765 333.89 169.572C334.926 169.273 335.947 168.978 336.954 168.687C337.602 169.567 338.26 170.418 338.926 171.239C347.508 181.81 357.581 187.352 367.995 183.699ZM342.066 170.326C350.153 179.866 358.695 183.782 367.002 180.868L367.19 180.802L367.384 180.762C440.026 165.647 508.221 146.003 550.019 132.821C557.903 130.334 562.988 121.56 564.807 108.133C566.595 94.9264 565.013 78.3379 560.694 62.3742C556.372 46.4001 549.399 31.3772 540.673 21.1743C531.957 10.9833 521.955 6.05317 511.219 8.71985C511.211 8.72176 511.204 8.72367 511.196 8.72559L330.974 56.7945C324.23 60.1839 319.866 67.867 317.908 78.5968L335.832 73.8103L335.889 73.7974C345.092 71.7187 352.797 76.8109 358.548 84.3067C364.321 91.8312 368.686 102.403 371.455 113.161C374.23 123.939 375.481 135.209 374.819 144.269C374.49 148.787 373.672 152.929 372.21 156.225C370.754 159.507 368.473 162.333 365.034 163.419C359.44 165.183 351.525 167.567 342.066 170.326ZM310.912 86.6753L183.434 120.718C179.238 122.883 176.439 128.016 175.343 135.601L186.256 132.514L186.334 132.497C192.582 131.084 197.743 134.496 201.452 139.157C205.176 143.839 207.97 150.355 209.752 156.91C211.539 163.484 212.39 170.399 212.017 176.021C211.831 178.82 211.332 181.473 210.368 183.642C209.408 185.806 207.812 187.844 205.275 188.645C202.072 189.657 197.176 191.177 191.147 193.015C196.274 199.025 201.379 201.139 206.14 199.468L206.328 199.402L206.522 199.361C215.786 197.433 226.401 194.987 237.687 192.237L253.339 188.339C254.677 188 256.019 187.658 257.365 187.313L258.869 164.963C259.221 159.726 263.145 155.427 268.329 154.599V154.599C274.502 153.613 280.297 157.844 281.238 164.025L283.73 180.396C301.02 175.759 317.846 171.063 332.101 166.965C325.643 157.163 320.318 144.789 316.604 131.886C312.249 116.758 310.031 100.629 310.912 86.6753ZM338.159 165.214C331.684 155.877 326.184 143.479 322.37 130.227C317.934 114.817 315.863 98.5509 317.052 85.0356L337.264 79.638C343.117 78.3417 348.68 81.3024 353.788 87.9591C358.889 94.6075 362.987 104.331 365.645 114.657C368.298 124.962 369.439 135.565 368.835 143.832C368.533 147.978 367.803 151.364 366.725 153.792C365.642 156.235 364.391 157.33 363.228 157.697C357.233 159.588 348.554 162.195 338.159 165.214ZM277.898 181.953L275.307 164.928C274.867 162.04 272.159 160.063 269.275 160.524V160.524C266.853 160.911 265.02 162.919 264.855 165.366L263.484 185.737C268.277 184.495 273.096 183.229 277.898 181.953ZM263.06 192.044L257.458 275.276C257.303 277.582 258.294 279.816 260.107 281.249V281.249C261.476 282.331 263.198 282.863 264.939 282.743L270.299 282.372C282.495 281.529 291.369 270.449 289.53 258.364L278.806 187.919C273.557 189.313 268.289 190.694 263.06 192.044ZM187.401 187.884C194.307 185.784 199.915 184.046 203.468 182.924C203.755 182.833 204.312 182.498 204.885 181.207C205.455 179.923 205.87 178.04 206.03 175.624C206.349 170.814 205.619 164.578 203.962 158.484C202.301 152.371 199.789 146.705 196.756 142.893C193.732 139.091 190.707 137.692 187.728 138.333L174.844 141.978C174.69 149.788 176.011 158.694 178.464 167.221C180.686 174.942 183.784 182.173 187.401 187.884ZM168.834 143.679L81.7259 168.322C79.4924 169.53 77.8416 172.546 77.3642 177.598C77.3034 178.241 77.2636 178.903 77.244 179.581L85.3989 177.27L85.4794 177.251C89.1381 176.429 92.0037 178.492 93.8263 180.776C95.6646 183.08 96.9792 186.186 97.8015 189.195C98.6287 192.223 99.0405 195.457 98.8629 198.159C98.7749 199.498 98.5316 200.882 97.9967 202.085C97.4639 203.284 96.468 204.656 94.7198 205.206C93.0482 205.731 91.6177 206.21 90.2468 206.669C88.7604 207.167 87.3439 207.641 85.7658 208.126C86.1717 208.679 86.5857 209.199 87.0061 209.682C90.0881 213.224 92.8225 214.111 95.1435 213.296L95.331 213.23L95.5256 213.189C116.594 208.798 155.479 197.514 181.464 189.682C177.841 183.614 174.852 176.366 172.698 168.88C170.303 160.556 168.885 151.747 168.834 143.679ZM82.596 202.812C84.6746 202.206 86.4025 201.628 88.2881 200.997C89.5755 200.566 90.9364 200.11 92.5327 199.604C92.6684 199.277 92.8158 198.679 92.8758 197.765C92.9999 195.878 92.7098 193.324 92.0137 190.777C91.3125 188.211 90.2823 185.954 89.1365 184.519C88.0256 183.127 87.284 183.018 86.8525 183.094L77.5583 185.728C77.9223 188.708 78.5805 191.81 79.4923 194.84C80.3457 197.677 81.3999 200.381 82.596 202.812ZM71.7236 187.381L65.4595 189.157C65.2985 189.287 65.0652 189.566 64.8642 190.122L64.9468 190.101L64.993 190.09C67.4062 189.554 69.1707 190.965 70.0922 192.113C71.0291 193.28 71.6368 194.757 72.0004 196.073C72.3689 197.408 72.5711 198.885 72.4866 200.195C72.4451 200.838 72.3242 201.618 71.9926 202.362C71.6621 203.104 70.9502 204.157 69.5788 204.584C69.2171 204.696 68.8821 204.804 68.5615 204.909C69.5957 206.015 70.078 205.842 70.1485 205.816L70.152 205.815L70.3393 205.749L70.5337 205.709C72.9184 205.215 74.9339 204.77 76.685 204.356C75.5381 201.878 74.5511 199.243 73.7467 196.569C72.8447 193.571 72.1519 190.457 71.7236 187.381ZM65.6426 199.554C65.7345 199.524 65.8271 199.493 65.921 199.462C66.1066 199.4 66.297 199.337 66.4954 199.272C66.4671 198.82 66.3795 198.259 66.2169 197.67C66.0317 197 65.7992 196.473 65.5915 196.129L64.7966 196.332C64.9471 197.14 65.1477 197.965 65.3959 198.786C65.4745 199.046 65.5568 199.302 65.6426 199.554ZM234.945 199.149L239.167 198.051C241.97 197.368 244.813 196.667 247.686 195.949L249.14 227.246C249.634 237.865 241.398 246.859 230.778 247.302L225.883 247.506C224.72 247.555 223.575 247.208 222.634 246.521V246.521C220.812 245.193 220.067 242.834 220.793 240.7L234.945 199.149ZM54.2585 203.202C54.3279 202.815 54.3641 202.418 54.3641 202.012C54.3641 200.579 53.9135 199.252 53.1464 198.165C51.9368 196.45 49.9402 195.33 47.682 195.33C43.9917 195.33 41 198.321 41 202.012C41 205.568 43.7782 208.475 47.2826 208.682C47.4148 208.69 47.5479 208.694 47.682 208.694C47.8162 208.694 47.9493 208.69 48.0815 208.682C51.1857 208.499 53.7201 206.197 54.2585 203.202ZM47.9371 211.69C47.8525 211.673 47.7675 211.664 47.682 211.664C47.5966 211.664 47.5116 211.673 47.427 211.69C43.8548 212.443 41 228.929 41 249.157C41 269.865 43.9917 286.651 47.682 286.651C51.3724 286.651 54.3641 269.865 54.3641 249.157C54.3641 228.929 51.5093 212.443 47.9371 211.69ZM49.4535 275.143C50.6233 268.579 51.3641 259.39 51.3641 249.157C51.3641 238.924 50.6233 229.735 49.4535 223.172C48.912 220.133 48.2998 217.781 47.682 216.181C47.0643 217.781 46.4521 220.133 45.9106 223.172C44.7408 229.735 44 238.924 44 249.157C44 259.39 44.7408 268.579 45.9106 275.143C46.4521 278.181 47.0643 280.533 47.6821 282.134C48.2998 280.533 48.912 278.181 49.4535 275.143ZM47.682 205.694C49.7156 205.694 51.3641 204.045 51.3641 202.012C51.3641 199.978 49.7156 198.33 47.682 198.33C45.6485 198.33 44 199.978 44 202.012C44 204.045 45.6485 205.694 47.682 205.694Z" fill="#1A4CE0"/>
<path fill-rule="evenodd" clip-rule="evenodd" d="M393.995 183.699C466.763 168.558 535.06 148.884 576.921 135.682C615.477 123.521 585.632 -6.445 536.47 5.81474L355.914 53.9722C347.463 58.0551 342.648 67.4564 340.719 79.4483C340.549 80.5034 340.402 81.5784 340.276 82.6717L208.367 117.898C202.404 120.779 199.224 127.731 198.203 136.49C198.082 137.531 197.991 138.597 197.929 139.685L106.627 165.515C102.149 167.68 100.257 173.482 100.23 180.435C100.226 181.443 100.261 182.475 100.334 183.523L90.2821 186.372C88.7527 187.109 87.908 188.806 87.6005 190.955C87.4625 191.92 87.4327 192.977 87.4978 194.078L83.3166 195.146C82.6288 195.475 82.2737 196.314 82.1746 197.358C82.0387 198.789 82.3838 200.603 83.0126 202.012C83.1152 202.242 83.2254 202.461 83.3424 202.666C83.9877 203.797 84.8372 204.493 85.7464 204.178C86.1665 204.093 86.5584 204.01 86.9257 203.931C88.1505 203.666 89.1008 203.435 89.9043 203.219C90.3804 204.202 90.9124 205.107 91.4879 205.891C93.1195 208.113 95.0999 209.361 97.1422 208.647C99.8673 208.082 102.126 207.578 104.063 207.111C105.16 206.846 106.153 206.594 107.07 206.35C107.597 207.284 108.148 208.174 108.719 209.012C112.523 214.592 117.25 217.843 122.138 216.126C143.543 211.665 183.105 200.166 209.126 192.314C210.151 192.005 211.154 191.701 212.135 191.404C212.756 192.297 213.39 193.151 214.038 193.961C219.661 200.99 226.284 204.703 233.134 202.299C239.871 200.896 247.319 199.221 255.218 197.355C256.284 197.104 257.358 196.848 258.44 196.59L258.626 196.653L243.954 239.733C242.803 243.11 243.983 246.843 246.866 248.945V248.945C248.355 250.031 250.167 250.58 252.008 250.504L256.903 250.3C269.184 249.788 278.708 239.386 278.137 227.107L276.513 192.148C276.522 192.146 276.532 192.143 276.542 192.141C276.768 192.084 276.995 192.027 277.222 191.969C277.973 191.78 278.726 191.59 279.481 191.398C280.701 191.089 281.925 190.778 283.153 190.464C284.17 190.204 285.19 189.942 286.212 189.68L280.465 275.075C280.244 278.367 281.658 281.557 284.247 283.603V283.603C286.201 285.147 288.661 285.908 291.146 285.736L296.506 285.365C310.451 284.4 320.599 271.731 318.495 257.912L307.269 184.16C308.242 183.9 309.214 183.64 310.185 183.38C327.996 178.606 345.328 173.765 359.89 169.572C360.926 169.273 361.947 168.978 362.954 168.687C363.602 169.567 364.26 170.418 364.926 171.239C373.508 181.81 383.581 187.352 393.995 183.699ZM368.066 170.326C376.153 179.866 384.695 183.782 393.002 180.868L393.19 180.802L393.384 180.762C466.026 165.647 534.221 146.003 576.019 132.821C583.903 130.334 588.988 121.56 590.807 108.133C592.595 94.9264 591.013 78.3379 586.694 62.3742C582.372 46.4001 575.399 31.3772 566.673 21.1743C557.957 10.9833 547.955 6.05317 537.219 8.71985C537.211 8.72176 537.204 8.72367 537.196 8.72559L356.974 56.7945C350.23 60.1839 345.866 67.867 343.908 78.5968L361.832 73.8103L361.889 73.7974C371.092 71.7187 378.797 76.8109 384.548 84.3067C390.321 91.8312 394.686 102.403 397.455 113.161C400.23 123.939 401.481 135.209 400.819 144.269C400.49 148.787 399.672 152.929 398.21 156.225C396.754 159.507 394.473 162.333 391.034 163.419C385.44 165.183 377.525 167.567 368.066 170.326ZM336.912 86.6753L209.434 120.718C205.238 122.883 202.439 128.016 201.343 135.601L212.256 132.514L212.334 132.497C218.582 131.084 223.743 134.496 227.452 139.157C231.176 143.839 233.97 150.355 235.752 156.91C237.539 163.484 238.39 170.399 238.017 176.021C237.831 178.82 237.332 181.473 236.368 183.642C235.408 185.806 233.812 187.844 231.275 188.645C228.072 189.657 223.176 191.177 217.147 193.015C222.274 199.025 227.379 201.139 232.14 199.468L232.328 199.402L232.522 199.361C241.786 197.433 252.401 194.987 263.687 192.237L279.331 188.168L279.339 188.339C280.677 188 282.019 187.658 283.365 187.313L284.869 164.963C285.221 159.726 289.145 155.427 294.329 154.599V154.599C300.502 153.613 306.297 157.844 307.238 164.025L309.73 180.396C327.02 175.759 343.846 171.063 358.101 166.965C351.643 157.163 346.318 144.789 342.604 131.886C338.249 116.758 336.031 100.629 336.912 86.6753ZM364.159 165.214C357.684 155.877 352.184 143.479 348.37 130.227C343.934 114.817 341.863 98.5509 343.052 85.0356L363.264 79.638C369.117 78.3417 374.68 81.3024 379.788 87.9591C384.889 94.6075 388.987 104.331 391.645 114.657C394.298 124.962 395.439 135.565 394.835 143.832C394.533 147.978 393.803 151.364 392.725 153.792C391.642 156.235 390.391 157.33 389.228 157.697C383.233 159.588 374.554 162.195 364.159 165.214ZM303.898 181.953L301.307 164.928C300.867 162.04 298.159 160.063 295.275 160.524V160.524C292.853 160.911 291.02 162.919 290.855 165.366L289.484 185.737C294.277 184.495 299.096 183.229 303.898 181.953ZM289.06 192.044L283.458 275.276C283.303 277.582 284.294 279.816 286.107 281.249V281.249C287.476 282.331 289.198 282.863 290.939 282.743L296.299 282.372C308.495 281.529 317.369 270.449 315.53 258.364L304.806 187.919C299.557 189.313 294.289 190.694 289.06 192.044ZM213.401 187.884C220.307 185.784 225.915 184.046 229.468 182.924C229.755 182.833 230.312 182.498 230.885 181.207C231.455 179.923 231.87 178.04 232.03 175.624C232.349 170.814 231.619 164.578 229.962 158.484C228.301 152.371 225.789 146.705 222.756 142.893C219.732 139.091 216.707 137.692 213.728 138.333L200.844 141.978C200.69 149.788 202.011 158.694 204.464 167.221C206.686 174.942 209.784 182.173 213.401 187.884ZM194.834 143.679L107.726 168.322C105.492 169.53 103.842 172.546 103.364 177.598C103.303 178.241 103.264 178.903 103.244 179.581L111.399 177.27L111.479 177.251C115.138 176.429 118.004 178.492 119.826 180.776C121.665 183.08 122.979 186.186 123.801 189.195C124.629 192.223 125.041 195.457 124.863 198.159C124.775 199.498 124.532 200.882 123.997 202.085C123.464 203.284 122.468 204.656 120.72 205.206C119.048 205.731 117.618 206.21 116.247 206.669C114.76 207.167 113.344 207.641 111.766 208.126C112.172 208.679 112.586 209.199 113.006 209.682C116.088 213.224 118.823 214.111 121.143 213.296L121.331 213.23L121.526 213.189C142.594 208.798 181.479 197.514 207.464 189.682C203.841 183.614 200.852 176.366 198.698 168.88C196.303 160.556 194.885 151.747 194.834 143.679ZM108.596 202.812C110.675 202.206 112.402 201.628 114.288 200.997C115.575 200.566 116.936 200.11 118.533 199.604C118.668 199.277 118.816 198.679 118.876 197.765C119 195.878 118.71 193.324 118.014 190.777C117.313 188.211 116.282 185.954 115.137 184.519C114.026 183.127 113.284 183.018 112.853 183.094L103.558 185.728C103.922 188.708 104.58 191.81 105.492 194.84C106.346 197.677 107.4 200.381 108.596 202.812ZM97.7236 187.381L91.4595 189.157C91.2985 189.287 91.0652 189.566 90.8642 190.122L90.9468 190.101L90.993 190.09C93.4062 189.554 95.1707 190.965 96.0922 192.113C97.0291 193.28 97.6368 194.757 98.0004 196.073C98.3689 197.408 98.5711 198.885 98.4866 200.195C98.4451 200.838 98.3242 201.618 97.9926 202.362C97.6621 203.104 96.9502 204.157 95.5788 204.584C95.2171 204.696 94.8821 204.804 94.5615 204.909C95.5957 206.015 96.078 205.842 96.1485 205.816L96.152 205.815L96.3393 205.749L96.5337 205.709C98.9184 205.215 100.934 204.77 102.685 204.356C101.538 201.878 100.551 199.243 99.7467 196.569C98.8447 193.571 98.1519 190.457 97.7236 187.381ZM91.6426 199.554C91.7345 199.524 91.8271 199.493 91.921 199.462C92.1066 199.4 92.297 199.337 92.4954 199.272C92.4671 198.82 92.3795 198.259 92.2169 197.67C92.0317 197 91.7992 196.473 91.5915 196.129L90.7966 196.332C90.9471 197.14 91.1477 197.965 91.3959 198.786C91.4745 199.046 91.5568 199.302 91.6426 199.554ZM260.945 199.149L265.167 198.051C267.97 197.368 270.813 196.667 273.686 195.949L275.14 227.246C275.634 237.865 267.398 246.859 256.778 247.302L251.883 247.506C250.72 247.555 249.575 247.208 248.634 246.521V246.521C246.812 245.193 246.067 242.834 246.793 240.7L260.945 199.149ZM80.2585 203.202C80.3279 202.815 80.3641 202.418 80.3641 202.012C80.3641 200.579 79.9135 199.252 79.1464 198.165C77.9368 196.45 75.9402 195.33 73.682 195.33C69.9917 195.33 67 198.321 67 202.012C67 205.568 69.7782 208.475 73.2826 208.682C73.4148 208.69 73.5479 208.694 73.682 208.694C73.8162 208.694 73.9493 208.69 74.0815 208.682C77.1857 208.499 79.7201 206.197 80.2585 203.202ZM73.9371 211.69C73.8525 211.673 73.7675 211.664 73.682 211.664C73.5966 211.664 73.5116 211.673 73.427 211.69C69.8548 212.443 67 228.929 67 249.157C67 269.865 69.9917 286.651 73.682 286.651C77.3724 286.651 80.3641 269.865 80.3641 249.157C80.3641 228.929 77.5093 212.443 73.9371 211.69ZM75.4535 275.143C76.6233 268.579 77.3641 259.39 77.3641 249.157C77.3641 238.924 76.6233 229.735 75.4535 223.172C74.912 220.133 74.2998 217.781 73.682 216.181C73.0643 217.781 72.4521 220.133 71.9106 223.172C70.7408 229.735 70 238.924 70 249.157C70 259.39 70.7408 268.579 71.9106 275.143C72.4521 278.181 73.0643 280.533 73.6821 282.134C74.2998 280.533 74.912 278.181 75.4535 275.143ZM73.682 205.694C75.7156 205.694 77.3641 204.045 77.3641 202.012C77.3641 199.978 75.7156 198.33 73.682 198.33C71.6485 198.33 70 199.978 70 202.012C70 204.045 71.6485 205.694 73.682 205.694Z" fill="#060809"/>
</svg>
