<svg xmlns="http://www.w3.org/2000/svg" fill="none" viewBox="0 0 466 394">
    <path stroke="#C8C8C8" stroke-dasharray="15 15" stroke-linecap="round" stroke-linejoin="round" stroke-width="3"
        d="M8 180H2l65.5-79.5H129M8 180v74m0-74h78m43-79.5l8.2-12.5m-8.2 12.5L105.9 135M172 31.5l122.5 21M172 31.5L137.2 88M172 31.5L213.5 88m81-35.5l34.6-35a2.9 2.9 0 014-.1c3.5 3.3 8.3 8.3 12.9 12.5m-51.5 22.6a5431.2 5431.2 0 00-43.5 56c-1.6 2.4 5.3 3 9 3m145.3 6l3.4.7a3 3 0 003-4.6c-8-12.6-22.6-34.8-32.7-48.6-5-6.8-6.6-8.8-12.5-15m38.8 67.5V137m0-19.5c-8.7-3-34.3-10-66.3-10-40 0-66 3-79 4M405.3 137l58.7 80h-7m-51.8-80v39m51.8 41l-51.8-3.5M457 217v55m-51.8 78.5L457 348v-17m-51.8 19.5v8H288.6m116.8-8V337M271.4 171l23 5-5.5-7.3m-17.5 2.3L248 135m23.5 36H231m29-59.5v19l29 38.2M346 30V3.5l12-2m-12 28.4c3.8 3.6 8 7.5 12 11.5m0-39.9l8.5 6.5v42M358 1.5v40m8.5 8.5l-8.5-8.6M137.2 88h76.3m0 0l34.5 47M106 135l-24.4 36H86m19.9-36H248M86 171h145m-145 0v9m0 68.5V180M8 254l73.5-1M8 254v77m223-160v46.5m174.3-4V176m0 37.5V272M67.4 352L8 347.5V331m449 0h-51.8m51.8 0v-59m-51.8 59v6m0-6v-59m0 65l-116.7-1.5M8 331l63.5 3.5M457 272h-51.8M289 168.7h57c16.3.3 51 2.1 59.3 7.3" />
    <path fill="#1A4CE0"
        d="M300 265.5l.7 1.3a1.5 1.5 0 00.1-2.5l-.8 1.2zm-68.5-47l.8-1.2c-.2-.2-.4-.3-.7-.3l-.1 1.5zm-97.5-7l.1-1.5c-.4 0-.7 0-1 .3l.9 1.2zM71.7 261l-.9-1.2c-.3.3-.5.7-.5 1.2h1.5zm220.3 8.5v1.5c.2 0 .4 0 .7-.2l-.7-1.3zm-2-.1v-1.5 1.5zm0 4.6v1.5c.8 0 1.5-.7 1.5-1.5H290zm-11.5 0H277c0 .8.7 1.5 1.5 1.5V274zm0-5.1v-1.5 1.5zm-.5 44.6V312c-.8 0-1.5.7-1.5 1.5h1.5zm12 0h1.5c0-.8-.7-1.5-1.5-1.5v1.5zm0 46v1.5c.9 0 1.5-.7 1.5-1.5H290zM188.5 362l-.1 1.5h.1V362zM143 317.5V316a1.5 1.5 0 00-1.5 1.5h1.5zM83 270v1.5c.8 0 1.5-.7 1.5-1.5H83zm-11.3 0h-1.5c0 .8.7 1.5 1.5 1.5V270zm0 41.5V310c-.8 0-1.5.7-1.5 1.5h1.5zm12.3 0h1.5c0-.8-.7-1.5-1.5-1.5v1.5zm100-41h-1.5c0 .8.7 1.5 1.5 1.5v-1.5zm10.5 0v1.5c.8 0 1.5-.7 1.5-1.5h-1.5zm-12 43V312c-.8 0-1.5.7-1.5 1.5h1.5zm12 0h1.5c0-.8-.7-1.5-1.5-1.5v1.5zM98 316h1.5c0-.8-.7-1.5-1.5-1.5v1.5zm-1.5 20a1.5 1.5 0 003 0h-3zm43 27l-.2 1.5h.6l-.4-1.5zm-8-1H130c0 .8.6 1.4 1.3 1.5l.2-1.5zm-59.8-7.5h-1.5c0 .8.6 1.4 1.4 1.5l.2-1.5zm8.6 2.5a1.5 1.5 0 00.4-3l-.4 3zm67.2-16l-.2-1.5.2 1.5zm153.3-76.7l-68.5-47-1.6 2.4 68.5 47 1.6-2.4zM231.6 217l-97.5-7-.2 3 97.5 7 .2-3zm-98.5-6.7l-62.3 49.5 1.9 2.4 62.2-49.5-1.8-2.4zm61.3 52.2L300 267l.2-3-105.5-4.5-.2 3zm1-2.7L135 210.3l-1.8 2.4 60.5 49.5 1.8-2.4zm-123.7 2.7h122.8v-3H71.7v3zm-1.5-1.5v4.5h3V261h-3zm125.8 4.5V261h-3v4.5h3zm96.7 5.3l8-4-1.4-2.6-8 4 1.4 2.6zm-2.8.1l2 .1.2-3-2-.1-.2 3zm-1.4-1.5v4.6h3v-4.6h-3zm-94-2.4l84 3.4v-3l-84-3.4v3zm84 3.4l11.4.5.2-3-11.5-.5-.2 3zm1.5 3.6v-5.1h-3v5.1h3zm.5-1.5h-2v3h2v-3zM279 274v39.5h3V274h-3zm1.5 41h7.5v-3h-7.5v3zm9.5-42.5h-2v3h2v-3zm-2 0h-7.5v3h7.5v-3zm1.5 41V274h-3v39.5h3zm-9-1.5H278v3h2.5v-3zm-4 1.5v5h3v-5h-3zm15 5v-5h-3v5h3zM290 312h-2v3h2v-3zm-12 8h12v-3h-12v3zm10.5-1.5v41h3v-41h-3zM290 358l-101.5 2.5v3L290 361v-3zm-100 4v-43.5h-3V362h3zm-48.5-44.5v24h3v-24h-3zM71.7 267H83v-3H71.7v3zm9.8-1.5v4.5h3v-4.5h-3zm-8.3 4.5v-4.5h-3v4.5h3zm.8-1.5h-2.3v3H74v-3zm-1.5 1.5v41.5h3V270h-3zm1.5 43h6.5v-3H74v3zm9-44.5h-2.5v3H83v-3zm-2.5 0H74v3h6.5v-3zm1.5 43V270h-3v41.5h3zM71.7 313H74v-3h-2.3v3zm-1.5-1.5v4.5h3v-4.5h-3zm1.5 6H84v-3H71.7v3zm13.8-1.5v-4.5h-3v4.5h3zm-1.5-6h-3.5v3H84v-3zm-1-43h101v-3H83v3zm101 0h10.5v-3H184v3zm-1.5-1.5v5h3v-5h-3zm13.5 5v-5h-3v5h3zm-12 1.5h1.5v-3H184v3zm0-1.5v43h3v-43h-3zm1.5 44.5h7.5v-3h-7.5v3zm0-43h7.5v-3h-7.5v3zm7.5 0h1.5v-3H193v3zm1.5 41.5v-43h-3v43h3zm-6 3.5l-6-.3v3l6 .3v-3zm-6-.3L143 316v3l39.5.7v-3zm1.5 1.5v-4.7h-3v4.7h3zm-1.5-3.2h3v-3h-3v3zm10.5 0h1.5v-3H193v3zm-4.5 5h6v-3h-6v3zm6 0H278v-3h-83.5v3zm-1.5-6.5v5h3v-5h-3zm-109 4h14v-3H84v3zm12.5-1.5v20h3v-20h-3zm92.1 44.5l-37-2.5-.2 3 37 2.5.2-3zM142.7 340l-7.5 1.5.6 3 7.5-1.5-.6-3zm8.4 18l-12 3.6.8 2.8 12-3.5-.8-2.8zm-11.4 3.5l-8-1-.4 3 8 1 .4-3zm-6.7.5v-.1-.1-.1-.1-.1-.1-.1-.1-.1-.1-.1-.1-.1-.1-.1-.1-.1-.1-.1-.1-.1-.1-.1-.1-.1-.1-.1-.1-.1-.1-.1-.1-.1-.1-.1-.1-.1-.1-.1-.1-.1-.1-.1-.1-.1-.1-.1-.1-.1-.1-.1-.1-.1-.1-.1-.1-.1-.1-.1-.1-.1-.1-.1-.1-.1-.1-.1-.1-.1-.1-.1-.1-.1-.1-.1-.1-.1-.1-.1-.1-.1-.1-.1-.1-.1-.1-.1-.1-.1-.1-.1-.1-.1-.1-.1-.1-.1-.1-.1-.1-.1-.1-.1-.1-.1-.1-.1-.1-.1-.1-.1-.1-.1-.1-.1-.1-.1-.1-.1-.1-.1-.1-.1-.1-.1-.1-.1-.1-.1-.1-.1-.1-.1-.1-.1-.1-.1-.1-.1-.1-.1-.1-.1-.1-.1h-3V362h3zm0-14.5c0-2 1.4-3 2.5-3v-3c-2.9 0-5.5 2.4-5.5 6h3zm2.5-3c1.4 0 2.5 1.2 2.5 3h3c0-3-2-6-5.5-6v3zm2.5 3V363h3v-.1-.1-.1-.1-.1-.1-.1-.1-.1-.1-.1-.1-.1-.1-.1-.1-.1-.1-.1-.1-.1-.1-.1-.1-.1-.1-.1-.1-.1-.1-.1-.1-.1-.1-.1-.1-.1-.1-.1-.1-.1-.1-.1-.1-.1-.1-.1-.1-.1-.1-.1-.1-.1-.1-.1-.1-.1-.1-.1-.1-.1-.1-.1-.1-.1-.1-.1-.1-.1-.1-.1-.1-.1-.1-.1-.1-.1-.1-.1-.1-.1-.1-.1-.1-.1-.1-.1-.1-.1-.1-.1-.1-.1-.1-.1-.1-.1-.1-.1-.1-.1-.1-.1-.1-.1-.1-.1-.1-.1-.1-.1-.1-.1-.1-.1-.1-.1-.1-.1-.1-.1-.1-.1-.1-.1-.1-.1-.1-.1-.1-.1-.1-.1-.1-.1-.1-.1-.1-.1-.1-.1-.1-.1-.1-.1-.1-.1-.1-.1-.1-.1-.1-.1-.1-.1h-3zM70.2 316v38.5h3V316h-3zm1.4 40l8.7 1 .4-3-8.8-1-.3 3zm81.4 3.5l.1-6.6v-6.3c-.2-1.8-.6-3.6-1.4-5-.4-.7-1-1.3-1.8-1.7-.8-.4-1.6-.5-2.6-.4l.4 3 .9.1.6.6c.4.7.7 2 .9 3.7v6l-.1 6.6h3zm-5.7-20l-2.3.3-2 .2v3l2.4-.2 2.3-.3-.4-3zm-4.1 3.5l4.5-.5-.4-3-4.5.5.4 3z" />
    <path fill="#1A4CE0"
        d="M97 337v-1.5h-.2l.2 1.5zm-8 21.5l-.2 1.5a1.5 1.5 0 001.7-1.5H89zm-8-1h-1.5c0 .8.6 1.4 1.3 1.5l.2-1.5zm15.8-22l-12 1.5.4 3 12-1.5-.4-3zM89.2 357l-8-1-.4 3 8 1 .4-3zm-6.7.5v-.1-.1-.1-.1-.1-.1-.1-.1-.1-.1-.1-.1-.1-.1-.1-.1-.1-.1-.1-.1-.1-.1-.1-.1-.1-.1-.1-.1-.1-.1-.1-.1-.1-.1-.1-.1-.1-.1-.1-.1-.1-.1-.1-.1-.1-.1-.1-.1-.1-.1-.1-.1-.1-.1-.1-.1-.1-.1-.1-.1-.1-.1-.1-.1-.1-.1-.1-.1-.1-.1-.1-.1-.1-.1-.1-.1-.1-.1-.1-.1-.1-.1-.1-.1-.1-.1-.1-.1-.1-.1-.1-.1-.1-.1-.1-.1-.1-.1-.1-.1-.1-.1-.1-.1-.1-.1-.1-.1-.1-.1-.1-.1-.1-.1-.1-.1-.1-.1-.1-.1-.1-.1-.1-.1-.1-.1-.1-.1-.1-.1-.1-.1-.1-.1-.1-.1-.1-.1-.1-.1-.1-.1-.1-.1-.1h-3V357.6h3zm0-14.5c0-1.1.3-1.9.7-2.3.3-.4 1-.7 1.8-.7v-3c-1.6 0-3 .6-4 1.7a6.3 6.3 0 00-1.5 4.3h3zm2.5-3c1.4 0 2.5 1.2 2.5 3h3c0-3-2-6-5.5-6v3zm2.5 3V358.6h3v-.1-.1-.1-.1-.1-.1-.1-.1-.1-.1-.1-.1-.1-.1-.1-.1-.1-.1-.1-.1-.1-.1-.1-.1-.1-.1-.1-.1-.1-.1-.1-.1-.1-.1-.1-.1-.1-.1-.1-.1-.1-.1-.1-.1-.1-.1-.1-.1-.1-.1-.1-.1-.1-.1-.1-.1-.1-.1-.1-.1-.1-.1-.1-.1-.1-.1-.1-.1-.1-.1-.1-.1-.1-.1-.1-.1-.1-.1-.1-.1-.1-.1-.1-.1-.1-.1-.1-.1-.1-.1-.1-.1-.1-.1-.1-.1-.1-.1-.1-.1-.1-.1-.1-.1-.1-.1-.1-.1-.1-.1-.1-.1-.1-.1-.1-.1-.1-.1-.1-.1-.1-.1-.1-.1-.1-.1-.1-.1-.1-.1-.1-.1-.1-.1-.1-.1-.1-.1-.1-.1-.1-.1-.1-.1-.1-.1-.1-.1-.1-.1-.1-.1-.1-.1-.1h-3zm15 2v-3.5c0-1-.2-2-.5-2.9-.4-1-1-1.7-1.8-2.3-1-.6-2-.8-3.2-.8v3c.8 0 1.3.2 1.6.3l.6.8.3 2.1v3.3h3z" />
    <path fill="#1A4CE0"
        d="M101.5 344v-1.5 1.5zM91 358h-1.5v1.4l1.4.1.1-1.5zm0-4.5V352c-.8 0-1.5.7-1.5 1.5H91zm3.5-5V347c-.8 0-1.5.7-1.5 1.5h1.5zm3-4.5v-1.5c-.8 0-1.5.7-1.5 1.5h1.5zm4 1.5l29.4 1.5.2-3-29.5-1.5-.2 3zm-4 4.5l33.4 2 .2-3-33.5-2-.2 3zm-3 5l36.4 2 .2-3-36.5-2-.2 3zm-3.6 4.5l40 2.5.2-3-40-2.5-.2 3zm1.6-1.5v-4.5h-3v4.5h3zm-1.5-3h3.5v-3H91v3zm3.5-5h3v-3h-3v3zm3-4.5h4v-3h-4v3zM96 344v4.5h3V344h-3zm-3 4.5v5h3v-5h-3z" />
</svg>