<svg width="551" height="469" viewBox="0 0 551 469" fill="none" xmlns="http://www.w3.org/2000/svg">
<path d="M233.625 467H235.035V462.95C235.035 461.495 235.605 460.385 237.03 460.385C238.365 460.385 238.68 461.39 238.68 462.305V467H240.09V462.845C240.09 461.195 240.885 460.385 242.085 460.385C243.435 460.385 243.72 461.48 243.72 462.365V467H245.145V462.305C245.145 460.07 243.915 459.2 242.43 459.2C240.93 459.2 240.225 459.995 239.82 460.655C239.475 459.8 238.74 459.2 237.48 459.2C236.145 459.2 235.41 459.89 235.035 460.55C235.035 460.145 235.02 459.725 234.99 459.41H233.61C233.625 460.07 233.625 460.715 233.625 461.375V467ZM254.815 463.535C254.83 463.385 254.83 463.295 254.83 463.16C254.83 461.315 253.81 459.2 250.93 459.2C248.53 459.2 247 460.94 247 463.22C247 465.23 248.245 467.21 250.96 467.21C253.24 467.21 254.305 465.965 254.71 464.84H253.285C252.88 465.575 252.22 466.055 251.035 466.055C249.505 466.055 248.515 464.99 248.44 463.535H254.815ZM248.47 462.515C248.605 461.285 249.355 460.31 250.915 460.31C252.79 460.31 253.27 461.615 253.345 462.515H248.47ZM256.696 467H258.121V463.355C258.121 461.6 258.901 460.4 260.476 460.4C261.901 460.4 262.366 461.39 262.366 462.635V467H263.806V462.38C263.806 460.295 262.651 459.2 260.866 459.2C259.246 459.2 258.451 460.085 258.121 460.82C258.121 460.295 258.091 459.665 258.061 459.41H256.681C256.696 459.98 256.696 460.685 256.696 461.33V467ZM269.743 459.2C267.193 459.2 265.663 461.03 265.663 463.205C265.663 465.305 267.103 467.21 269.668 467.21C272.398 467.21 273.763 465.305 273.763 463.205C273.763 461.195 272.368 459.2 269.743 459.2ZM269.683 460.37C271.378 460.37 272.293 461.705 272.293 463.22C272.293 464.75 271.453 466.04 269.713 466.04C268.048 466.04 267.133 464.66 267.133 463.205C267.133 461.69 267.958 460.37 269.683 460.37ZM275.622 467H277.047V463.835C277.047 461.6 278.382 460.55 280.122 460.565V459.2C278.637 459.185 277.542 459.95 277.047 461.12C277.047 460.43 277.017 459.635 277.002 459.41H275.607C275.622 460.1 275.622 460.79 275.622 461.48V467ZM285.017 459.41L288.377 467H289.937L293.252 459.41H291.797C289.937 463.76 289.427 465.035 289.217 465.68H289.202C288.917 464.87 287.267 461.15 286.577 459.41H285.017ZM301.12 461.795C301.12 460.55 300.505 459.2 297.745 459.2C295.135 459.2 294.46 460.61 294.37 461.615H295.795C295.96 460.925 296.29 460.28 297.745 460.28C299.365 460.28 299.725 461.06 299.725 461.885V462.29H297.88C295.705 462.29 293.935 462.83 293.935 464.765C293.935 465.905 294.73 467.21 296.875 467.21C298.48 467.21 299.35 466.67 299.74 465.89C299.755 466.145 299.77 466.73 299.83 467H301.195C301.165 466.82 301.12 465.86 301.12 465.125V461.795ZM299.725 463.625C299.725 464.915 299.185 466.085 297.16 466.085C295.9 466.085 295.345 465.455 295.345 464.705C295.345 463.685 296.17 463.295 297.91 463.295H299.725V463.625ZM304.996 467V455.72H303.571V467H304.996ZM310.934 459.2C308.384 459.2 306.854 461.03 306.854 463.205C306.854 465.305 308.294 467.21 310.859 467.21C313.589 467.21 314.954 465.305 314.954 463.205C314.954 461.195 313.559 459.2 310.934 459.2ZM310.874 460.37C312.569 460.37 313.484 461.705 313.484 463.22C313.484 464.75 312.644 466.04 310.904 466.04C309.239 466.04 308.324 464.66 308.324 463.205C308.324 461.69 309.149 460.37 310.874 460.37ZM316.814 467H318.239V463.835C318.239 461.6 319.574 460.55 321.314 460.565V459.2C319.829 459.185 318.734 459.95 318.239 461.12C318.239 460.43 318.209 459.635 318.194 459.41H316.799C316.814 460.1 316.814 460.79 316.814 461.48V467Z" fill="#060809"/>
<path d="M234.218 16H235.628V11.95C235.628 10.495 236.198 9.385 237.623 9.385C238.958 9.385 239.273 10.39 239.273 11.305V16H240.683V11.845C240.683 10.195 241.478 9.385 242.678 9.385C244.028 9.385 244.313 10.48 244.313 11.365V16H245.738V11.305C245.738 9.07 244.508 8.2 243.023 8.2C241.523 8.2 240.818 8.995 240.413 9.655C240.068 8.8 239.333 8.2 238.073 8.2C236.738 8.2 236.003 8.89 235.628 9.55C235.628 9.145 235.613 8.725 235.583 8.41H234.203C234.218 9.07 234.218 9.715 234.218 10.375V16ZM254.735 10.795C254.735 9.55 254.12 8.2 251.36 8.2C248.75 8.2 248.075 9.61 247.985 10.615H249.41C249.575 9.925 249.905 9.28 251.36 9.28C252.98 9.28 253.34 10.06 253.34 10.885V11.29H251.495C249.32 11.29 247.55 11.83 247.55 13.765C247.55 14.905 248.345 16.21 250.49 16.21C252.095 16.21 252.965 15.67 253.355 14.89C253.37 15.145 253.385 15.73 253.445 16H254.81C254.78 15.82 254.735 14.86 254.735 14.125V10.795ZM253.34 12.625C253.34 13.915 252.8 15.085 250.775 15.085C249.515 15.085 248.96 14.455 248.96 13.705C248.96 12.685 249.785 12.295 251.525 12.295H253.34V12.625ZM255.963 8.41L259.473 16.345C258.783 17.83 258.393 18.265 257.358 18.265C257.163 18.265 256.818 18.25 256.533 18.205V19.45C256.788 19.51 257.238 19.54 257.523 19.54C259.428 19.54 259.923 18.88 261.258 15.61L264.243 8.41H262.758C261.303 11.98 260.538 14.155 260.268 14.905H260.238C260.013 14.26 259.143 12.13 257.523 8.41H255.963ZM269.149 8.2C266.599 8.2 265.069 10.03 265.069 12.205C265.069 14.305 266.509 16.21 269.074 16.21C271.804 16.21 273.169 14.305 273.169 12.205C273.169 10.195 271.774 8.2 269.149 8.2ZM269.089 9.37C270.784 9.37 271.699 10.705 271.699 12.22C271.699 13.75 270.859 15.04 269.119 15.04C267.454 15.04 266.539 13.66 266.539 12.205C266.539 10.69 267.364 9.37 269.089 9.37ZM275.029 16H276.454V12.835C276.454 10.6 277.789 9.55 279.529 9.565V8.2C278.044 8.185 276.949 8.95 276.454 10.12C276.454 9.43 276.424 8.635 276.409 8.41H275.014C275.029 9.1 275.029 9.79 275.029 10.48V16ZM284.424 8.41L287.784 16H289.344L292.659 8.41H291.204C289.344 12.76 288.834 14.035 288.624 14.68H288.609C288.324 13.87 286.674 10.15 285.984 8.41H284.424ZM300.527 10.795C300.527 9.55 299.912 8.2 297.152 8.2C294.542 8.2 293.867 9.61 293.777 10.615H295.202C295.367 9.925 295.697 9.28 297.152 9.28C298.772 9.28 299.132 10.06 299.132 10.885V11.29H297.287C295.112 11.29 293.342 11.83 293.342 13.765C293.342 14.905 294.137 16.21 296.282 16.21C297.887 16.21 298.757 15.67 299.147 14.89C299.162 15.145 299.177 15.73 299.237 16H300.602C300.572 15.82 300.527 14.86 300.527 14.125V10.795ZM299.132 12.625C299.132 13.915 298.592 15.085 296.567 15.085C295.307 15.085 294.752 14.455 294.752 13.705C294.752 12.685 295.577 12.295 297.317 12.295H299.132V12.625ZM304.403 16V4.72H302.978V16H304.403ZM310.341 8.2C307.791 8.2 306.261 10.03 306.261 12.205C306.261 14.305 307.701 16.21 310.266 16.21C312.996 16.21 314.361 14.305 314.361 12.205C314.361 10.195 312.966 8.2 310.341 8.2ZM310.281 9.37C311.976 9.37 312.891 10.705 312.891 12.22C312.891 13.75 312.051 15.04 310.311 15.04C308.646 15.04 307.731 13.66 307.731 12.205C307.731 10.69 308.556 9.37 310.281 9.37ZM316.22 16H317.645V12.835C317.645 10.6 318.98 9.55 320.72 9.565V8.2C319.235 8.185 318.14 8.95 317.645 10.12C317.645 9.43 317.615 8.635 317.6 8.41H316.205C316.22 9.1 316.22 9.79 316.22 10.48V16Z" fill="#060809"/>
<path d="M3.215 274H4.625V269.95C4.625 268.495 5.195 267.385 6.62 267.385C7.955 267.385 8.27 268.39 8.27 269.305V274H9.68V269.845C9.68 268.195 10.475 267.385 11.675 267.385C13.025 267.385 13.31 268.48 13.31 269.365V274H14.735V269.305C14.735 267.07 13.505 266.2 12.02 266.2C10.52 266.2 9.815 266.995 9.41 267.655C9.065 266.8 8.33 266.2 7.07 266.2C5.735 266.2 5 266.89 4.625 267.55C4.625 267.145 4.61 266.725 4.58 266.41H3.2C3.215 267.07 3.215 267.715 3.215 268.375V274ZM24.4053 270.535C24.4203 270.385 24.4203 270.295 24.4203 270.16C24.4203 268.315 23.4003 266.2 20.5203 266.2C18.1203 266.2 16.5903 267.94 16.5903 270.22C16.5903 272.23 17.8353 274.21 20.5503 274.21C22.8303 274.21 23.8953 272.965 24.3003 271.84H22.8753C22.4703 272.575 21.8103 273.055 20.6253 273.055C19.0953 273.055 18.1053 271.99 18.0303 270.535H24.4053ZM18.0603 269.515C18.1953 268.285 18.9453 267.31 20.5053 267.31C22.3803 267.31 22.8603 268.615 22.9353 269.515H18.0603ZM26.2863 274H27.7113V270.355C27.7113 268.6 28.4913 267.4 30.0663 267.4C31.4913 267.4 31.9563 268.39 31.9563 269.635V274H33.3963V269.38C33.3963 267.295 32.2413 266.2 30.4563 266.2C28.8363 266.2 28.0413 267.085 27.7113 267.82C27.7113 267.295 27.6813 266.665 27.6513 266.41H26.2713C26.2863 266.98 26.2863 267.685 26.2863 268.33V274ZM39.3324 266.2C36.7824 266.2 35.2524 268.03 35.2524 270.205C35.2524 272.305 36.6924 274.21 39.2574 274.21C41.9874 274.21 43.3524 272.305 43.3524 270.205C43.3524 268.195 41.9574 266.2 39.3324 266.2ZM39.2724 267.37C40.9674 267.37 41.8824 268.705 41.8824 270.22C41.8824 271.75 41.0424 273.04 39.3024 273.04C37.6374 273.04 36.7224 271.66 36.7224 270.205C36.7224 268.69 37.5474 267.37 39.2724 267.37ZM45.2121 274H46.6371V270.835C46.6371 268.6 47.9721 267.55 49.7121 267.565V266.2C48.2271 266.185 47.1321 266.95 46.6371 268.12C46.6371 267.43 46.6071 266.635 46.5921 266.41H45.1971C45.2121 267.1 45.2121 267.79 45.2121 268.48V274ZM61.3718 271.63C60.9968 272.485 60.3068 273.055 59.0768 273.055C57.4418 273.055 56.5418 271.78 56.5418 270.205C56.5418 268.54 57.4718 267.355 59.0768 267.355C60.4868 267.355 61.0868 268.12 61.3568 268.84H62.7818C62.6168 267.82 61.6568 266.2 59.0918 266.2C56.5418 266.2 55.0718 268.075 55.0718 270.235C55.0718 272.395 56.3768 274.21 59.0768 274.21C61.2368 274.21 62.4218 272.995 62.7968 271.63H61.3718ZM68.1459 266.2C65.5959 266.2 64.0659 268.03 64.0659 270.205C64.0659 272.305 65.5059 274.21 68.0709 274.21C70.8009 274.21 72.1659 272.305 72.1659 270.205C72.1659 268.195 70.7709 266.2 68.1459 266.2ZM68.0859 267.37C69.7809 267.37 70.6959 268.705 70.6959 270.22C70.6959 271.75 69.8559 273.04 68.1159 273.04C66.4509 273.04 65.5359 271.66 65.5359 270.205C65.5359 268.69 66.3609 267.37 68.0859 267.37ZM74.0255 274H75.4355V269.95C75.4355 268.495 76.0055 267.385 77.4305 267.385C78.7655 267.385 79.0805 268.39 79.0805 269.305V274H80.4905V269.845C80.4905 268.195 81.2855 267.385 82.4855 267.385C83.8355 267.385 84.1205 268.48 84.1205 269.365V274H85.5455V269.305C85.5455 267.07 84.3155 266.2 82.8305 266.2C81.3305 266.2 80.6255 266.995 80.2205 267.655C79.8755 266.8 79.1405 266.2 77.8805 266.2C76.5455 266.2 75.8105 266.89 75.4355 267.55C75.4355 267.145 75.4205 266.725 75.3905 266.41H74.0105C74.0255 267.07 74.0255 267.715 74.0255 268.375V274ZM89.4545 277.33V272.875C89.8745 273.52 90.5645 274.21 92.1395 274.21C94.2095 274.21 95.9195 272.545 95.9195 270.07C95.9195 267.88 94.4195 266.2 92.3795 266.2C90.7895 266.2 89.9045 266.92 89.4545 267.715C89.4545 267.145 89.4395 266.62 89.4095 266.41H88.0145C88.0295 267.04 88.0295 267.67 88.0295 268.3V277.33H89.4545ZM94.4495 270.13C94.4495 271.645 93.6095 272.995 91.9295 272.995C90.2495 272.995 89.4245 271.825 89.4245 270.235C89.4245 268.645 90.1895 267.4 91.9595 267.4C93.6695 267.4 94.4495 268.78 94.4495 270.13ZM99.2543 274V262.72H97.8293V274H99.2543ZM108.927 270.535C108.942 270.385 108.942 270.295 108.942 270.16C108.942 268.315 107.922 266.2 105.042 266.2C102.642 266.2 101.112 267.94 101.112 270.22C101.112 272.23 102.357 274.21 105.072 274.21C107.352 274.21 108.417 272.965 108.822 271.84H107.397C106.992 272.575 106.332 273.055 105.147 273.055C103.617 273.055 102.627 271.99 102.552 270.535H108.927ZM102.582 269.515C102.717 268.285 103.467 267.31 105.027 267.31C106.902 267.31 107.382 268.615 107.457 269.515H102.582ZM110.986 266.41V274.57C110.986 275.755 110.656 276.37 109.591 276.37H109.441V277.525C109.486 277.525 109.561 277.54 109.651 277.54C112.021 277.54 112.411 276.115 112.411 274.255V266.41H110.986ZM112.396 264.43V262.72H110.986V264.43H112.396ZM114.88 274H116.305V266.41H114.88V274ZM116.305 264.43V262.72H114.88V264.43H116.305ZM124.643 262.72V267.37C124.418 267.01 123.803 266.2 122.033 266.2C120.053 266.2 118.163 267.775 118.163 270.265C118.163 272.575 119.648 274.21 121.853 274.21C123.608 274.21 124.253 273.49 124.643 272.845C124.643 273.22 124.658 273.685 124.703 274H126.083C126.068 273.265 126.068 272.53 126.068 271.795V262.72H124.643ZM119.633 270.235C119.633 268.795 120.473 267.385 122.198 267.385C124.103 267.385 124.703 268.51 124.703 270.175C124.703 271.855 123.953 273.01 122.153 273.01C120.488 273.01 119.633 271.63 119.633 270.235ZM135.148 268.795C135.148 267.55 134.533 266.2 131.773 266.2C129.163 266.2 128.488 267.61 128.398 268.615H129.823C129.988 267.925 130.318 267.28 131.773 267.28C133.393 267.28 133.753 268.06 133.753 268.885V269.29H131.908C129.733 269.29 127.963 269.83 127.963 271.765C127.963 272.905 128.758 274.21 130.903 274.21C132.508 274.21 133.378 273.67 133.768 272.89C133.783 273.145 133.798 273.73 133.858 274H135.223C135.193 273.82 135.148 272.86 135.148 272.125V268.795ZM133.753 270.625C133.753 271.915 133.213 273.085 131.188 273.085C129.928 273.085 129.373 272.455 129.373 271.705C129.373 270.685 130.198 270.295 131.938 270.295H133.753V270.625ZM143.51 262.72V267.37C143.285 267.01 142.67 266.2 140.9 266.2C138.92 266.2 137.03 267.775 137.03 270.265C137.03 272.575 138.515 274.21 140.72 274.21C142.475 274.21 143.12 273.49 143.51 272.845C143.51 273.22 143.525 273.685 143.57 274H144.95C144.935 273.265 144.935 272.53 144.935 271.795V262.72H143.51ZM138.5 270.235C138.5 268.795 139.34 267.385 141.065 267.385C142.97 267.385 143.57 268.51 143.57 270.175C143.57 271.855 142.82 273.01 141.02 273.01C139.355 273.01 138.5 271.63 138.5 270.235Z" fill="#060809"/>
<path d="M407.246 274H408.656V269.95C408.656 268.495 409.226 267.385 410.651 267.385C411.986 267.385 412.301 268.39 412.301 269.305V274H413.711V269.845C413.711 268.195 414.506 267.385 415.706 267.385C417.056 267.385 417.341 268.48 417.341 269.365V274H418.766V269.305C418.766 267.07 417.536 266.2 416.051 266.2C414.551 266.2 413.846 266.995 413.441 267.655C413.096 266.8 412.361 266.2 411.101 266.2C409.766 266.2 409.031 266.89 408.656 267.55C408.656 267.145 408.641 266.725 408.611 266.41H407.231C407.246 267.07 407.246 267.715 407.246 268.375V274ZM427.763 268.795C427.763 267.55 427.148 266.2 424.388 266.2C421.778 266.2 421.103 267.61 421.013 268.615H422.438C422.603 267.925 422.933 267.28 424.388 267.28C426.008 267.28 426.368 268.06 426.368 268.885V269.29H424.523C422.348 269.29 420.578 269.83 420.578 271.765C420.578 272.905 421.373 274.21 423.518 274.21C425.123 274.21 425.993 273.67 426.383 272.89C426.398 273.145 426.413 273.73 426.473 274H427.838C427.808 273.82 427.763 272.86 427.763 272.125V268.795ZM426.368 270.625C426.368 271.915 425.828 273.085 423.803 273.085C422.543 273.085 421.988 272.455 421.988 271.705C421.988 270.685 422.813 270.295 424.553 270.295H426.368V270.625ZM428.991 266.41L432.501 274.345C431.811 275.83 431.421 276.265 430.386 276.265C430.191 276.265 429.846 276.25 429.561 276.205V277.45C429.816 277.51 430.266 277.54 430.551 277.54C432.456 277.54 432.951 276.88 434.286 273.61L437.271 266.41H435.786C434.331 269.98 433.566 272.155 433.296 272.905H433.266C433.041 272.26 432.171 270.13 430.551 266.41H428.991ZM442.177 266.2C439.627 266.2 438.097 268.03 438.097 270.205C438.097 272.305 439.537 274.21 442.102 274.21C444.832 274.21 446.197 272.305 446.197 270.205C446.197 268.195 444.802 266.2 442.177 266.2ZM442.117 267.37C443.812 267.37 444.727 268.705 444.727 270.22C444.727 271.75 443.887 273.04 442.147 273.04C440.482 273.04 439.567 271.66 439.567 270.205C439.567 268.69 440.392 267.37 442.117 267.37ZM448.057 274H449.482V270.835C449.482 268.6 450.817 267.55 452.557 267.565V266.2C451.072 266.185 449.977 266.95 449.482 268.12C449.482 267.43 449.452 266.635 449.437 266.41H448.042C448.057 267.1 448.057 267.79 448.057 268.48V274ZM464.216 271.63C463.841 272.485 463.151 273.055 461.921 273.055C460.286 273.055 459.386 271.78 459.386 270.205C459.386 268.54 460.316 267.355 461.921 267.355C463.331 267.355 463.931 268.12 464.201 268.84H465.626C465.461 267.82 464.501 266.2 461.936 266.2C459.386 266.2 457.916 268.075 457.916 270.235C457.916 272.395 459.221 274.21 461.921 274.21C464.081 274.21 465.266 272.995 465.641 271.63H464.216ZM470.991 266.2C468.441 266.2 466.911 268.03 466.911 270.205C466.911 272.305 468.351 274.21 470.916 274.21C473.646 274.21 475.011 272.305 475.011 270.205C475.011 268.195 473.616 266.2 470.991 266.2ZM470.931 267.37C472.626 267.37 473.541 268.705 473.541 270.22C473.541 271.75 472.701 273.04 470.961 273.04C469.296 273.04 468.381 271.66 468.381 270.205C468.381 268.69 469.206 267.37 470.931 267.37ZM476.87 274H478.28V269.95C478.28 268.495 478.85 267.385 480.275 267.385C481.61 267.385 481.925 268.39 481.925 269.305V274H483.335V269.845C483.335 268.195 484.13 267.385 485.33 267.385C486.68 267.385 486.965 268.48 486.965 269.365V274H488.39V269.305C488.39 267.07 487.16 266.2 485.675 266.2C484.175 266.2 483.47 266.995 483.065 267.655C482.72 266.8 481.985 266.2 480.725 266.2C479.39 266.2 478.655 266.89 478.28 267.55C478.28 267.145 478.265 266.725 478.235 266.41H476.855C476.87 267.07 476.87 267.715 476.87 268.375V274ZM492.299 277.33V272.875C492.719 273.52 493.409 274.21 494.984 274.21C497.054 274.21 498.764 272.545 498.764 270.07C498.764 267.88 497.264 266.2 495.224 266.2C493.634 266.2 492.749 266.92 492.299 267.715C492.299 267.145 492.284 266.62 492.254 266.41H490.859C490.874 267.04 490.874 267.67 490.874 268.3V277.33H492.299ZM497.294 270.13C497.294 271.645 496.454 272.995 494.774 272.995C493.094 272.995 492.269 271.825 492.269 270.235C492.269 268.645 493.034 267.4 494.804 267.4C496.514 267.4 497.294 268.78 497.294 270.13ZM502.099 274V262.72H500.674V274H502.099ZM511.772 270.535C511.787 270.385 511.787 270.295 511.787 270.16C511.787 268.315 510.767 266.2 507.887 266.2C505.487 266.2 503.957 267.94 503.957 270.22C503.957 272.23 505.202 274.21 507.917 274.21C510.197 274.21 511.262 272.965 511.667 271.84H510.242C509.837 272.575 509.177 273.055 507.992 273.055C506.462 273.055 505.472 271.99 505.397 270.535H511.772ZM505.427 269.515C505.562 268.285 506.312 267.31 507.872 267.31C509.747 267.31 510.227 268.615 510.302 269.515H505.427ZM513.83 266.41V274.57C513.83 275.755 513.5 276.37 512.435 276.37H512.285V277.525C512.33 277.525 512.405 277.54 512.495 277.54C514.865 277.54 515.255 276.115 515.255 274.255V266.41H513.83ZM515.24 264.43V262.72H513.83V264.43H515.24ZM517.725 274H519.15V266.41H517.725V274ZM519.15 264.43V262.72H517.725V264.43H519.15ZM527.487 262.72V267.37C527.262 267.01 526.647 266.2 524.877 266.2C522.897 266.2 521.007 267.775 521.007 270.265C521.007 272.575 522.492 274.21 524.697 274.21C526.452 274.21 527.097 273.49 527.487 272.845C527.487 273.22 527.502 273.685 527.547 274H528.927C528.912 273.265 528.912 272.53 528.912 271.795V262.72H527.487ZM522.477 270.235C522.477 268.795 523.317 267.385 525.042 267.385C526.947 267.385 527.547 268.51 527.547 270.175C527.547 271.855 526.797 273.01 524.997 273.01C523.332 273.01 522.477 271.63 522.477 270.235ZM537.993 268.795C537.993 267.55 537.378 266.2 534.618 266.2C532.008 266.2 531.333 267.61 531.243 268.615H532.668C532.833 267.925 533.163 267.28 534.618 267.28C536.238 267.28 536.598 268.06 536.598 268.885V269.29H534.753C532.578 269.29 530.808 269.83 530.808 271.765C530.808 272.905 531.603 274.21 533.748 274.21C535.353 274.21 536.223 273.67 536.613 272.89C536.628 273.145 536.643 273.73 536.703 274H538.068C538.038 273.82 537.993 272.86 537.993 272.125V268.795ZM536.598 270.625C536.598 271.915 536.058 273.085 534.033 273.085C532.773 273.085 532.218 272.455 532.218 271.705C532.218 270.685 533.043 270.295 534.783 270.295H536.598V270.625ZM546.354 262.72V267.37C546.129 267.01 545.514 266.2 543.744 266.2C541.764 266.2 539.874 267.775 539.874 270.265C539.874 272.575 541.359 274.21 543.564 274.21C545.319 274.21 545.964 273.49 546.354 272.845C546.354 273.22 546.369 273.685 546.414 274H547.794C547.779 273.265 547.779 272.53 547.779 271.795V262.72H546.354ZM541.344 270.235C541.344 268.795 542.184 267.385 543.909 267.385C545.814 267.385 546.414 268.51 546.414 270.175C546.414 271.855 545.664 273.01 543.864 273.01C542.199 273.01 541.344 271.63 541.344 270.235Z" fill="#060809"/>
<path d="M274.939 443.061C275.525 443.646 276.475 443.646 277.061 443.061L286.607 433.515C287.192 432.929 287.192 431.979 286.607 431.393C286.021 430.808 285.071 430.808 284.485 431.393L276 439.879L267.515 431.393C266.929 430.808 265.979 430.808 265.393 431.393C264.808 431.979 264.808 432.929 265.393 433.515L274.939 443.061ZM277.061 26.9393C276.475 26.3536 275.525 26.3536 274.939 26.9393L265.393 36.4853C264.808 37.0711 264.808 38.0208 265.393 38.6066C265.979 39.1924 266.929 39.1924 267.515 38.6066L276 30.1213L284.485 38.6066C285.071 39.1924 286.021 39.1924 286.607 38.6066C287.192 38.0208 287.192 37.0711 286.607 36.4853L277.061 26.9393ZM277.5 442V28H274.5V442H277.5Z" fill="#1A4CE0"/>
<path d="M0.93934 233.939C0.353553 234.525 0.353553 235.475 0.93934 236.061L10.4853 245.607C11.0711 246.192 12.0208 246.192 12.6066 245.607C13.1924 245.021 13.1924 244.071 12.6066 243.485L4.12132 235L12.6066 226.515C13.1924 225.929 13.1924 224.979 12.6066 224.393C12.0208 223.808 11.0711 223.808 10.4853 224.393L0.93934 233.939ZM550.061 236.061C550.646 235.475 550.646 234.525 550.061 233.939L540.515 224.393C539.929 223.808 538.979 223.808 538.393 224.393C537.808 224.979 537.808 225.929 538.393 226.515L546.879 235L538.393 243.485C537.808 244.071 537.808 245.021 538.393 245.607C538.979 246.192 539.929 246.192 540.515 245.607L550.061 236.061ZM2 236.5H549V233.5H2V236.5Z" fill="#1A4CE0"/>
<path d="M110.988 140H115.278V118.82H108.828C106.548 125.18 104.088 131.69 103.158 134.78H103.128C102.498 132.2 100.008 125.48 97.6082 118.82H91.2182V140H95.2382V131.99C95.2382 128.39 95.0582 124.16 94.9082 121.7H94.9382C96.0782 125.51 98.8682 133.46 100.938 140H104.838C107.508 132.38 110.028 125.39 111.078 121.7H111.108C110.988 124.01 110.988 127.79 110.988 131.54V140ZM132.09 140L141.09 118.82H136.32L132.24 129.2C130.44 134.03 129.93 135.38 129.6 136.55H129.54C129.15 135.23 128.52 133.22 126.99 129.29L122.91 118.82H117.99L126.84 140H132.09ZM143.894 140H148.334V132.11H154.484C159.524 132.11 162.554 129.62 162.554 125.33C162.554 121.37 159.554 118.82 154.514 118.82H143.894V140ZM148.334 122.3H154.094C156.854 122.3 158.084 123.47 158.084 125.39C158.084 127.82 156.494 128.6 154.094 128.6H148.334V122.3Z" fill="#060809"/>
<circle cx="237" cy="130" r="12.5" stroke="#1A4CE0" stroke-width="3"/>
<circle cx="322" cy="173" r="12.5" stroke="#C8C8C8" stroke-width="3"/>
<circle cx="411" cy="61" r="12.5" stroke="#C8C8C8" stroke-width="3"/>
<circle cx="338" cy="47" r="12.5" stroke="#C8C8C8" stroke-width="3"/>
<circle cx="380" cy="183" r="12.5" stroke="#C8C8C8" stroke-width="3"/>
<circle cx="237" cy="211" r="12.5" stroke="#1A4CE0" stroke-width="3"/>
<circle cx="181" cy="210" r="12.5" stroke="#1A4CE0" stroke-width="3"/>
<circle cx="375" cy="127" r="12.5" stroke="#C8C8C8" stroke-width="3"/>
<circle cx="328" cy="117" r="12.5" stroke="#C8C8C8" stroke-width="3"/>
<circle cx="457" cy="191" r="12.5" stroke="#C8C8C8" stroke-width="3"/>
<circle cx="507" cy="121" r="12.5" stroke="#C8C8C8" stroke-width="3"/>
<circle cx="322" cy="368" r="12.5" stroke="#C8C8C8" stroke-width="3"/>
<circle cx="366" cy="368" r="12.5" stroke="#C8C8C8" stroke-width="3"/>
<circle cx="332" cy="318" r="12.5" stroke="#C8C8C8" stroke-width="3"/>
<circle cx="411" cy="318" r="12.5" stroke="#C8C8C8" stroke-width="3"/>
<circle cx="517" cy="318" r="12.5" stroke="#C8C8C8" stroke-width="3"/>
<circle cx="425" cy="375" r="12.5" stroke="#C8C8C8" stroke-width="3"/>
<circle cx="360" cy="416" r="12.5" stroke="#C8C8C8" stroke-width="3"/>
<circle cx="479" cy="375" r="12.5" stroke="#C8C8C8" stroke-width="3"/>
<circle cx="322" cy="262" r="12.5" stroke="#C8C8C8" stroke-width="3"/>
<circle cx="255" cy="268" r="12.5" stroke="#C8C8C8" stroke-width="3"/>
<circle cx="227" cy="346" r="12.5" stroke="#C8C8C8" stroke-width="3"/>
<circle cx="133" cy="332" r="12.5" stroke="#C8C8C8" stroke-width="3"/>
<circle cx="67" cy="318" r="12.5" stroke="#C8C8C8" stroke-width="3"/>
<circle cx="67" cy="375" r="12.5" stroke="#C8C8C8" stroke-width="3"/>
<circle cx="177" cy="382" r="12.5" stroke="#C8C8C8" stroke-width="3"/>
<circle cx="199" cy="296" r="12.5" stroke="#C8C8C8" stroke-width="3"/>
<circle cx="195" cy="163" r="12.5" stroke="#1A4CE0" stroke-width="3"/>
<circle cx="81" cy="211" r="12.5" stroke="#1A4CE0" stroke-width="3"/>
<circle cx="31" cy="140" r="12.5" stroke="#1A4CE0" stroke-width="3"/>
<circle cx="139" cy="177" r="12.5" stroke="#1A4CE0" stroke-width="3"/>
<circle cx="139" cy="75" r="12.5" stroke="#1A4CE0" stroke-width="3"/>
<circle cx="223" cy="71" r="12.5" stroke="#1A4CE0" stroke-width="3"/>
<circle cx="67" cy="71" r="12.5" stroke="#1A4CE0" stroke-width="3"/>
<circle cx="185" cy="51" r="12.5" stroke="#1A4CE0" stroke-width="3"/>
</svg>
