<svg width="1500" height="600" viewBox="0 0 1500 600" fill="none" xmlns="http://www.w3.org/2000/svg">
    <g clip-path="url(#clip0)">
        <rect width="1500" height="600" fill="#1A4CE0" />
        <path fill-rule="evenodd" clip-rule="evenodd"
            d="M1032.01 -21H682.944H676.541H215.744H209.341H-6V306.512V314.081V479.131V485.681V539.431V545.863V564.061V570.461V615.229L-5.99947 619C125.202 619 259.602 619 393.54 619H1594V413.181V405.064V-21H1556.54H1550.14H1404.67C1258 -20.9968 1163.84 -21.0002 1032.01 -21ZM1069.07 -21H1032.01C1001.36 10.5202 997.759 60.5942 1025.42 96.3954L1037.94 112.6C1036.93 114.765 1035.9 116.919 1034.84 119.063C1002.87 184.089 950.036 239.735 882.427 287.344C880.617 288.618 878.796 289.888 876.964 291.151C868.663 284.723 857.692 281.856 846.619 284.215L761.798 302.285C741.832 306.539 729.095 326.172 733.349 346.138L738.074 368.319C736.09 369.218 734.099 370.113 732.102 371.004C722.945 375.09 713.661 379.092 704.258 383.011C609.058 422.692 501.896 453.786 391.148 478.121C389.051 478.582 386.953 479.04 384.853 479.496L383.082 461.674C382.207 452.871 374.361 446.444 365.558 447.318L320.941 451.752C312.138 452.627 305.711 460.473 306.586 469.276L309.126 494.836C307.022 495.233 304.917 495.628 302.812 496.02C198.829 515.408 93.6617 529.391 -6 539.431V545.863C93.7716 535.827 199.164 521.837 303.447 502.412C305.552 502.02 307.657 501.626 309.761 501.229L311.02 513.893C311.895 522.696 319.74 529.123 328.544 528.248L373.16 523.814C381.963 522.94 388.391 515.094 387.516 506.291L385.49 485.907C387.59 485.452 389.688 484.994 391.785 484.534C503.106 460.106 610.907 428.855 706.72 388.919C715.742 385.158 724.659 381.32 733.466 377.402C735.462 376.514 737.454 375.621 739.439 374.724L751.419 430.959C755.673 450.925 775.306 463.662 795.272 459.408L880.092 441.338C900.058 437.085 912.795 417.451 908.542 397.486L890.471 312.664C889.067 306.07 885.984 300.264 881.765 295.598C883.535 294.372 885.294 293.141 887.045 291.904C953.928 244.639 1006.7 189.356 1039.21 124.712C1040.27 122.587 1041.32 120.453 1042.34 118.307L1143.01 248.612C1173.32 287.849 1229.7 295.084 1268.94 264.773L1421.15 147.181C1460.39 116.869 1467.62 60.49 1437.31 21.2536L1404.67 -21H1075.48H1069.07ZM1069.07 -21H1075.48C1074.18 29.642 1062.57 75.9554 1042.34 118.307L1037.94 112.6C1056.94 71.8119 1067.81 27.3859 1069.07 -21ZM881.765 295.598C839.314 325.009 791.364 351.273 739.439 374.724L738.074 368.319C788.82 345.329 835.568 319.706 876.964 291.151C878.687 292.485 880.295 293.972 881.765 295.598ZM385.49 485.907C360.385 491.352 335.11 496.452 309.761 501.229L309.126 494.836C334.479 490.053 359.754 484.947 384.853 479.496L385.49 485.907ZM1550.14 -21H1556.54C1553.06 114.536 1475.72 219.138 1356.87 299.69C1235.3 382.091 1069.97 439.584 894.646 479.653C548.424 558.78 162.177 570.183 -6 570.461V564.061C162.031 563.783 547.704 552.379 893.22 473.414C1068.23 433.416 1232.67 376.142 1353.28 294.392C1471 214.6 1546.66 111.736 1550.14 -21ZM1594 405.064V413.181C1226.38 563.888 712.431 607.519 393.54 619H-5.99947L-6 615.229C0.757893 615.227 9.65045 615.225 20.0088 615.222L49.5044 615.216C120.122 615.2 219.725 615.178 224.326 615.149C495.234 613.434 1152.19 587.235 1594 405.064ZM-6 485.681V479.131C171.974 440.358 340.82 384.265 466.088 303.383C591.557 222.37 672.93 116.77 676.541 -21H682.944C679.324 119.687 596.135 227.033 469.559 308.76C343.035 390.453 172.785 446.83 -6 485.681ZM-6 314.081V306.512C122.241 225.098 205.683 118.545 209.341 -21H215.744C212.046 122.768 125.26 231.706 -6 314.081ZM991.955 70.7612C992.854 69.2398 992.349 67.2774 990.828 66.3782C989.307 65.479 987.344 65.9834 986.445 67.5048L977.067 83.3715C976.168 84.8929 976.672 86.8553 978.194 87.7545C979.715 88.6537 981.678 88.1493 982.577 86.6279L991.955 70.7612ZM963.821 118.361C964.721 116.84 964.216 114.877 962.695 113.978C961.173 113.079 959.211 113.583 958.312 115.105L939.556 146.838C938.657 148.36 939.161 150.322 940.683 151.221C942.204 152.12 944.167 151.616 945.066 150.095L963.821 118.361ZM926.31 181.828C927.209 180.306 926.705 178.344 925.184 177.445C923.662 176.546 921.7 177.05 920.801 178.571L902.045 210.305C901.146 211.826 901.65 213.789 903.172 214.688C904.693 215.587 906.655 215.083 907.555 213.561L926.31 181.828ZM888.799 245.295C889.698 243.773 889.194 241.811 887.672 240.912C886.151 240.012 884.189 240.517 883.29 242.038L873.912 257.905C873.013 259.426 873.517 261.389 875.038 262.288C876.56 263.187 878.522 262.683 879.421 261.161L888.799 245.295ZM1178.94 303.443C1180.51 302.632 1181.12 300.701 1180.31 299.131C1179.5 297.561 1177.57 296.945 1176 297.757L1160.9 305.557C1159.33 306.368 1158.71 308.298 1159.52 309.868C1160.33 311.438 1162.27 312.054 1163.84 311.243L1178.94 303.443ZM1133.64 326.843C1135.21 326.032 1135.82 324.101 1135.01 322.531C1134.2 320.961 1132.27 320.345 1130.7 321.157L1100.5 336.757C1098.93 337.568 1098.31 339.498 1099.12 341.068C1099.93 342.638 1101.87 343.254 1103.44 342.443L1133.64 326.843ZM706.498 334.029C708.171 333.46 709.065 331.642 708.496 329.969C707.926 328.296 706.109 327.401 704.436 327.97L689.236 333.144C687.562 333.713 686.668 335.531 687.237 337.204C687.807 338.877 689.625 339.772 691.298 339.202L706.498 334.029ZM660.898 349.549C662.571 348.98 663.465 347.162 662.896 345.489C662.326 343.816 660.509 342.921 658.836 343.49L628.436 353.837C626.762 354.406 625.868 356.224 626.437 357.897C627.007 359.57 628.825 360.465 630.498 359.896L660.898 349.549ZM1073.24 358.043C1074.81 357.232 1075.42 355.301 1074.61 353.731C1073.8 352.161 1071.87 351.545 1070.3 352.357L1040.1 367.957C1038.53 368.768 1037.91 370.698 1038.72 372.268C1039.53 373.838 1041.46 374.454 1043.04 373.643L1073.24 358.043ZM600.098 370.242C601.771 369.673 602.665 367.855 602.096 366.182C601.526 364.509 599.709 363.614 598.036 364.184L567.636 374.53C565.962 375.1 565.068 376.918 565.637 378.591C566.207 380.264 568.025 381.158 569.698 380.589L600.098 370.242ZM1012.84 389.243C1014.41 388.432 1015.02 386.501 1014.21 384.931C1013.4 383.361 1011.47 382.746 1009.9 383.557L979.698 399.157C978.128 399.968 977.512 401.898 978.323 403.468C979.134 405.039 981.065 405.654 982.635 404.843L1012.84 389.243ZM539.298 390.936C540.971 390.366 541.865 388.548 541.296 386.875C540.726 385.202 538.909 384.308 537.236 384.877L506.836 395.224C505.163 395.793 504.268 397.611 504.837 399.284C505.407 400.957 507.225 401.852 508.898 401.282L539.298 390.936ZM478.498 411.629C480.171 411.06 481.065 409.242 480.496 407.569C479.927 405.896 478.109 405.001 476.436 405.57L446.036 415.917C444.363 416.486 443.468 418.304 444.037 419.977C444.607 421.651 446.425 422.545 448.098 421.976L478.498 411.629ZM952.435 420.443C954.005 419.632 954.621 417.701 953.81 416.131C952.998 414.561 951.068 413.945 949.498 414.757L934.398 422.557C932.828 423.368 932.212 425.298 933.023 426.868C933.835 428.439 935.765 429.054 937.335 428.243L952.435 420.443ZM417.698 432.322C419.371 431.753 420.265 429.935 419.696 428.262C419.127 426.589 417.309 425.694 415.636 426.264L400.436 431.437C398.763 432.006 397.868 433.824 398.437 435.497C399.007 437.17 400.825 438.065 402.498 437.496L417.698 432.322ZM739.533 478.699C741.281 478.441 742.49 476.815 742.232 475.067C741.975 473.318 740.349 472.11 738.6 472.367L722.307 474.767C720.558 475.025 719.35 476.651 719.607 478.399C719.865 480.148 721.491 481.356 723.24 481.099L739.533 478.699ZM690.653 485.899C692.401 485.641 693.61 484.015 693.352 482.267C693.095 480.518 691.469 479.31 689.72 479.567L657.134 484.367C655.385 484.625 654.176 486.251 654.434 487.999C654.692 489.748 656.318 490.956 658.066 490.699L690.653 485.899ZM625.48 495.499C627.228 495.241 628.437 493.615 628.179 491.867C627.922 490.118 626.295 488.91 624.547 489.167L591.96 493.967C590.212 494.225 589.003 495.851 589.261 497.599C589.518 499.348 591.144 500.556 592.893 500.299L625.48 495.499ZM560.306 505.099C562.055 504.841 563.263 503.215 563.006 501.467C562.748 499.718 561.122 498.51 559.374 498.767L526.787 503.567C525.039 503.825 523.83 505.451 524.088 507.199C524.345 508.948 525.971 510.156 527.72 509.899L560.306 505.099ZM495.133 514.699C496.881 514.441 498.09 512.815 497.832 511.067C497.575 509.318 495.949 508.11 494.2 508.367L461.614 513.167C459.865 513.425 458.657 515.051 458.914 516.799C459.172 518.548 460.798 519.756 462.546 519.499L495.133 514.699ZM429.96 524.299C431.708 524.041 432.917 522.415 432.659 520.667C432.402 518.918 430.775 517.71 429.027 517.967L412.734 520.367C410.985 520.625 409.777 522.251 410.034 523.999C410.292 525.748 411.918 526.956 413.666 526.699L429.96 524.299Z"
            fill="#F4F4F4" />
        <path fill-rule="evenodd" clip-rule="evenodd"
            d="M973.136 -0.00389583H645.885H639.882H207.885H201.882H0V307.039V314.134V468.869V475.009V525.4V531.43V548.491V554.491V596.461L0.00049305 599.996C123.002 599.996 249.002 599.996 374.569 599.996H1500V407.041V399.431V-0.00389583H1464.88H1458.88H1322.5C1185 -0.000905111 1096.72 -0.00411041 973.136 -0.00389583ZM1007.88 -0.00389583H973.136C944.402 29.5463 941.024 76.4906 966.953 110.054L978.689 125.246C977.744 127.275 976.777 129.295 975.789 131.305C945.82 192.267 896.284 244.436 832.901 289.068C831.203 290.263 829.496 291.453 827.779 292.638C819.996 286.612 809.711 283.924 799.33 286.135L719.811 303.076C701.093 307.064 689.152 325.47 693.139 344.188L697.57 364.982C695.709 365.825 693.843 366.664 691.971 367.499C683.386 371.33 674.683 375.082 665.867 378.757C576.617 415.957 476.153 445.108 372.326 467.922C370.36 468.354 368.393 468.784 366.425 469.211L364.764 452.503C363.944 444.25 356.589 438.224 348.336 439.045L306.507 443.202C298.254 444.022 292.229 451.377 293.049 459.63L295.43 483.592C293.458 483.965 291.485 484.335 289.511 484.703C192.027 502.878 93.4328 515.987 0 525.4V531.43C93.5359 522.021 192.341 508.905 290.107 490.695C292.08 490.327 294.053 489.958 296.026 489.586L297.206 501.458C298.026 509.711 305.382 515.737 313.635 514.916L355.463 510.76C363.716 509.939 369.741 502.584 368.921 494.331L367.022 475.221C368.99 474.794 370.958 474.365 372.924 473.934C477.286 451.033 578.35 421.735 668.175 384.295C676.633 380.769 684.993 377.171 693.249 373.498C695.121 372.665 696.988 371.828 698.849 370.988L710.08 423.708C714.068 442.425 732.474 454.367 751.192 450.379L830.712 433.438C849.43 429.45 861.371 411.044 857.383 392.326L840.442 312.807C839.125 306.624 836.235 301.181 832.28 296.807C833.939 295.657 835.589 294.503 837.229 293.343C899.932 249.033 949.406 197.205 979.88 136.601C980.881 134.609 981.863 132.608 982.823 130.597L1077.2 252.758C1105.61 289.542 1158.47 296.325 1195.25 267.908L1337.96 157.665C1374.74 129.249 1381.52 76.3929 1353.11 39.6089L1322.5 -0.00389583H1013.88H1007.88ZM1007.88 -0.00389583H1013.88C1012.66 47.473 1001.78 90.8918 982.823 130.597L978.689 125.246C996.504 87.0073 1006.69 45.3579 1007.88 -0.00389583ZM832.28 296.807C792.482 324.379 747.529 349.002 698.849 370.988L697.57 364.982C745.144 343.43 788.97 319.408 827.779 292.638C829.394 293.888 830.902 295.282 832.28 296.807ZM367.022 475.221C343.486 480.326 319.791 485.107 296.026 489.586L295.43 483.592C319.199 479.109 342.894 474.322 366.425 469.211L367.022 475.221ZM1458.88 -0.00389583H1464.88C1461.62 127.061 1389.11 225.125 1277.69 300.643C1163.72 377.893 1008.72 431.793 844.356 469.358C519.773 543.54 157.666 554.23 0 554.491V548.491C157.529 548.23 519.098 537.539 843.019 463.509C1007.09 426.011 1161.25 372.317 1274.32 295.676C1384.69 220.871 1455.62 124.437 1458.88 -0.00389583ZM1500 399.431V407.041C1155.35 548.329 673.529 589.233 374.569 599.996H0.00049305L0 596.461C6.33553 596.459 14.6723 596.457 24.3832 596.455L52.0353 596.448C118.24 596.434 211.617 596.413 215.93 596.386C469.907 594.778 1085.8 570.216 1500 399.431ZM0 475.009V468.869C166.85 432.52 325.144 379.932 442.582 304.105C560.209 228.156 636.497 129.155 639.882 -0.00389583H645.885C642.492 131.891 564.501 232.527 445.837 309.146C327.221 385.734 167.611 438.587 0 475.009ZM0 314.134V307.039C120.226 230.713 198.453 130.82 201.882 -0.00389583H207.885C204.418 134.778 123.056 236.908 0 314.134ZM935.583 86.0222C936.426 84.5959 935.953 82.7562 934.526 81.9132C933.1 81.0701 931.26 81.543 930.417 82.9694L921.626 97.8444C920.783 99.2707 921.255 101.11 922.682 101.953C924.108 102.796 925.948 102.324 926.791 100.897L935.583 86.0222ZM909.208 130.647C910.051 129.221 909.578 127.381 908.151 126.538C906.725 125.695 904.885 126.168 904.042 127.594L886.459 157.344C885.616 158.771 886.089 160.61 887.515 161.453C888.942 162.296 890.781 161.824 891.624 160.397L909.208 130.647ZM874.041 190.147C874.884 188.721 874.411 186.881 872.985 186.038C871.558 185.195 869.719 185.668 868.876 187.094L851.292 216.844C850.449 218.271 850.922 220.11 852.349 220.953C853.775 221.796 855.615 221.324 856.458 219.897L874.041 190.147ZM838.874 249.647C839.717 248.221 839.244 246.381 837.818 245.538C836.392 244.695 834.552 245.168 833.709 246.594L824.917 261.469C824.074 262.896 824.547 264.735 825.974 265.578C827.4 266.421 829.24 265.949 830.083 264.522L838.874 249.647ZM1110.88 304.161C1112.35 303.401 1112.93 301.591 1112.17 300.119C1111.41 298.647 1109.6 298.07 1108.12 298.83L1093.97 306.143C1092.49 306.903 1091.92 308.713 1092.68 310.185C1093.44 311.657 1095.25 312.234 1096.72 311.474L1110.88 304.161ZM1068.41 326.099C1069.88 325.338 1070.46 323.528 1069.7 322.056C1068.94 320.584 1067.13 320.007 1065.65 320.768L1037.34 335.393C1035.87 336.153 1035.29 337.963 1036.05 339.435C1036.81 340.907 1038.62 341.484 1040.1 340.724L1068.41 326.099ZM667.967 332.836C669.535 332.302 670.374 330.598 669.84 329.029C669.306 327.461 667.602 326.622 666.033 327.156L651.783 332.006C650.215 332.54 649.376 334.244 649.91 335.812C650.444 337.381 652.148 338.22 653.717 337.686L667.967 332.836ZM625.217 347.386C626.785 346.852 627.624 345.148 627.09 343.579C626.556 342.011 624.852 341.172 623.283 341.706L594.783 351.406C593.215 351.94 592.376 353.644 592.91 355.212C593.444 356.781 595.148 357.62 596.717 357.086L625.217 347.386ZM1011.78 355.349C1013.26 354.588 1013.83 352.778 1013.07 351.306C1012.31 349.834 1010.5 349.257 1009.03 350.018L980.717 364.643C979.245 365.403 978.668 367.213 979.428 368.685C980.189 370.157 981.998 370.734 983.47 369.974L1011.78 355.349ZM568.217 366.786C569.785 366.252 570.624 364.548 570.09 362.979C569.556 361.411 567.852 360.572 566.283 361.106L537.783 370.806C536.215 371.34 535.376 373.044 535.91 374.612C536.444 376.181 538.148 377.02 539.716 376.486L568.217 366.786ZM955.158 384.599C956.63 383.838 957.207 382.029 956.447 380.556C955.686 379.084 953.876 378.508 952.404 379.268L924.092 393.893C922.62 394.653 922.043 396.463 922.803 397.935C923.564 399.407 925.373 399.984 926.845 399.224L955.158 384.599ZM511.217 386.186C512.785 385.652 513.624 383.948 513.09 382.379C512.556 380.811 510.852 379.972 509.283 380.506L480.783 390.206C479.215 390.74 478.376 392.444 478.91 394.012C479.444 395.581 481.148 396.42 482.717 395.886L511.217 386.186ZM454.217 405.586C455.785 405.052 456.624 403.348 456.09 401.779C455.556 400.211 453.852 399.372 452.283 399.906L423.783 409.606C422.215 410.14 421.376 411.844 421.91 413.412C422.444 414.981 424.148 415.82 425.717 415.286L454.217 405.586ZM898.533 413.849C900.005 413.088 900.582 411.279 899.822 409.806C899.061 408.334 897.251 407.757 895.779 408.518L881.623 415.83C880.151 416.591 879.574 418.401 880.335 419.873C881.095 421.345 882.905 421.922 884.377 421.161L898.533 413.849ZM397.217 424.986C398.785 424.452 399.624 422.748 399.09 421.179C398.556 419.611 396.852 418.772 395.283 419.306L381.033 424.156C379.465 424.69 378.626 426.394 379.16 427.962C379.694 429.531 381.398 430.37 382.967 429.836L397.217 424.986ZM698.937 468.464C700.576 468.222 701.709 466.698 701.468 465.059C701.226 463.419 699.702 462.286 698.063 462.528L682.788 464.778C681.149 465.019 680.016 466.544 680.257 468.183C680.498 469.822 682.023 470.955 683.662 470.714L698.937 468.464ZM653.112 475.214C654.751 474.972 655.884 473.448 655.643 471.809C655.401 470.169 653.877 469.036 652.238 469.278L621.688 473.778C620.049 474.019 618.915 475.544 619.157 477.183C619.398 478.822 620.923 479.955 622.562 479.714L653.112 475.214ZM592.012 484.214C593.651 483.972 594.784 482.448 594.543 480.809C594.301 479.169 592.777 478.036 591.138 478.278L560.588 482.778C558.949 483.019 557.815 484.544 558.057 486.183C558.298 487.822 559.823 488.955 561.462 488.714L592.012 484.214ZM530.912 493.214C532.551 492.972 533.684 491.448 533.443 489.809C533.201 488.169 531.677 487.036 530.038 487.278L499.488 491.778C497.849 492.019 496.716 493.544 496.957 495.183C497.199 496.822 498.723 497.955 500.362 497.714L530.912 493.214ZM469.812 502.214C471.451 501.972 472.584 500.448 472.343 498.809C472.102 497.169 470.577 496.036 468.938 496.278L438.388 500.778C436.749 501.019 435.616 502.544 435.857 504.183C436.098 505.822 437.623 506.955 439.262 506.714L469.812 502.214ZM408.712 511.214C410.351 510.972 411.484 509.448 411.243 507.809C411.002 506.169 409.477 505.036 407.838 505.278L392.563 507.528C390.924 507.769 389.791 509.294 390.032 510.933C390.273 512.572 391.798 513.705 393.437 513.464L408.712 511.214Z"
            fill="#0D1111" />
    </g>
    <defs>
        <clipPath id="clip0">
            <rect width="1500" height="600" fill="white" />
        </clipPath>
    </defs>
</svg>