<?xml version="1.0" encoding="utf-8"?>
<!-- Generator: Adobe Illustrator 23.0.3, SVG Export Plug-In . SVG Version: 6.00 Build 0)  -->
<svg version="1.1" id="Layer_1" xmlns="http://www.w3.org/2000/svg" xmlns:xlink="http://www.w3.org/1999/xlink" x="0px" y="0px"
	 viewBox="0 0 1439 904" style="enable-background:new 0 0 1439 904;" xml:space="preserve">
<style type="text/css">
	.st0{fill:#F4F4F4;}
	.st1{fill:none;}
	.st2{fill:#060809;}
	.st3{fill:#1E2021;}
	.st4{fill:#363738;}
	.st5{fill:#4D4F50;}
	.st6{fill:#656667;}
	.st7{fill:#7D7E7F;}
	.st8{fill:#959696;}
	.st9{fill:#ADADAD;}
	.st10{fill:#C4C5C5;}
	.st11{fill:#DCDCDC;}
	.st12{fill:none;stroke:#000000;stroke-width:3;stroke-miterlimit:10;}
</style>
<path class="st0" d="M1451.4,493.5C1330.5,763.3,1086,898.2,717.9,898.2c-234.9,0-478.4-24.5-730.2-73.4v310.1h1463.7V493.5z"/>
<line class="st1" x1="719.5" y1="410.2" x2="719.5" y2="814.2"/>
<g>
	<path class="st2" d="M912.2,325.8c-31.8,71-96.2,106.6-193.1,106.6c-61.9,0-126-6.4-192.3-19.3v81.7h385.4V325.8z"/>
	<path class="st3" d="M966.1,342.6C925.4,433.5,843,479,719,479c-79.2,0-161.2-8.3-246.1-24.8v104.5h493.3V342.6z"/>
	<path class="st4" d="M1020,359.4c-49.6,110.8-150,166.2-301.2,166.2c-96.5,0-196.4-10.1-299.9-30.2v127.3H1020V359.4z"/>
	<path class="st5" d="M1074,376.1c-58.5,130.7-177,196-355.2,196c-113.8,0-231.7-11.9-353.7-35.6v150.2H1074V376.1z"/>
	<path class="st6" d="M1127.9,392.9C1060.4,543.4,924,618.7,718.6,618.7c-131.1,0-266.9-13.7-407.5-41v173h816.7V392.9z"/>
	<path class="st7" d="M1181.8,409.7C1105.4,580.1,951,665.3,718.5,665.3c-148.4,0-302.2-15.5-461.3-46.4v195.9h924.6V409.7z"/>
	<path class="st8" d="M1235.7,426.4C1150.5,616.7,978,711.9,718.4,711.9c-165.7,0-337.4-17.3-515.1-51.8v218.7h1032.4V426.4z"/>
	<path class="st9" d="M1289.6,443.2c-94.2,210.2-284.6,315.3-571.4,315.3c-183,0-372.6-19.1-568.9-57.2v241.6h1140.2V443.2z"/>
	<path class="st10" d="M1343.5,460C1240.5,690,1032,805.1,718.1,805.1c-200.3,0-407.9-20.9-622.6-62.6v264.4h1248.1V460z"/>
	<path class="st11" d="M1397.4,476.8C1285.5,726.7,1059,851.6,718,851.6c-217.6,0-443.1-22.7-676.4-68v287.2h1355.9V476.8z"/>
	<path class="st0" d="M1451.4,493.5C1330.5,763.3,1086,898.2,717.9,898.2c-234.9,0-478.4-24.5-730.2-73.4v310.1h1463.7V493.5z"/>
</g>
<path class="st12" d="M1451.4,339.7"/>
<rect x="1735.2" y="542.1" class="st0" width="106.1" height="173.9"/>
<line class="st1" x1="719.5" y1="814.2" x2="719.5" y2="131.3"/>
</svg>
