<?xml version="1.0" encoding="utf-8"?>
<!-- Generator: Adobe Illustrator 23.0.3, SVG Export Plug-In . SVG Version: 6.00 Build 0)  -->
<svg version="1.1" id="Layer_1" xmlns="http://www.w3.org/2000/svg" xmlns:xlink="http://www.w3.org/1999/xlink" x="0px" y="0px"
	 viewBox="0 0 69 163" style="enable-background:new 0 0 69 163;" xml:space="preserve">
<style type="text/css">
	.st0{fill:#00D014;}
</style>
<path class="st0" d="M67.1,157.3c-3.9-0.7-7.8-1.8-11.8-3.5c-0.2-0.2-0.5-0.2-0.5-0.5c-0.2-1.2-0.5-2.1-0.5-3
	c0.7-8.1-3.2-15.9-10.4-19.6c-0.2-0.2-0.7-0.2-0.9-0.5c0,1.2,0.2,2.1,0.5,3.2c0.5,3,0.9,5.8,1.6,8.8c0.5,2.8,1.8,5.5,4.2,7.4
	c1.2,0.9,2.1,1.8,3.5,1.8c0.7,0,0.9,0.5,0.9,0.9c0,0,0,0.2,0,0.5c-0.2-0.2-0.5-0.2-0.5-0.2c-0.7-0.5-1.6-0.7-2.3-1.2
	c-4.6-2.3-8.8-5.3-12.7-9c-0.2-0.2-0.5-0.5-0.5-0.7c0-1.4,0-2.5,0.5-3.9c1.2-3.2,1.2-6.9,0.7-10.4c-0.7-4.8-2.5-9-5.8-12.7
	c0-0.2-0.2-0.2-0.5-0.5c0,0.9-0.2,1.6-0.2,2.3c-0.2,3.5-0.7,6.9-0.9,10.4c0,2.8,0,5.5,1.4,8.1c0.9,1.8,2.1,3.5,3.9,4.4l0.2,0.2
	c0.2,0.5,0.2,0.9,0.2,1.4c0,0.2-0.2,0.2-0.2,0.2c-0.2-0.2-0.2-0.5-0.5-0.7c-3.9-4.2-7.4-8.5-10.1-13.4c-0.5-0.7-0.9-1.4-0.5-2.3
	c0.2-0.2,0.2-0.7,0.2-0.9c0.2-0.5,0.2-0.7,0.5-1.2c0.5-1.2,1.4-2.1,1.8-3.2c2.5-6,2.8-12,0.7-18.2c-0.5-1.4-0.9-2.5-1.4-3.7h-0.2
	c0,0.7-0.2,1.2-0.5,1.6c-1.4,3.2-2.5,6.5-3.7,9.7c-0.9,2.8-1.4,5.8-0.7,9c0.5,1.8,0.9,3.7,2.5,5.1c0.2,0,0.2,0.2,0.2,0.2
	c0,0.5-0.2,0.9-0.2,1.6c-0.2,0-0.2-0.2-0.2-0.2c-3.2-6.2-5.8-12.9-7.4-19.6c-0.2-0.2,0-0.5,0-0.7c0.2-0.7,0.7-1.4,0.9-2.1
	c0.2-0.2,0.5-0.5,0.7-0.7c1.8-1.4,3.5-3,4.6-4.8c3-4.8,4.2-10.4,3.7-16.1c-0.2-0.9-0.2-1.8-0.5-3c-0.5,0.7-0.9,1.2-1.4,1.8
	c-2.1,2.8-4.2,5.5-6,8.3c-1.8,2.5-3,5.3-3,8.5c0,1.6,0,3.5,1.2,4.8v0.2c-0.2,0.7-0.5,1.2-0.7,1.8c-0.2-0.5-0.2-0.5-0.2-0.7
	c-0.5-3.7-1.2-7.1-1.6-10.8c-0.1-0.4-0.1-0.7-0.1-1.1c-0.2-2.7-0.2-5.5-0.2-8.2c0-0.1,0.1-0.1,0.1-0.2c0.2-0.5,0.7-1.2,1.2-1.6
	c0.2-0.2,0.5-0.5,0.7-0.5c2.8-0.9,4.8-2.5,6.7-4.6c3.7-4.4,5.5-9.7,5.8-15.2c0-0.2,0-0.5,0-0.9c-1.6,1.4-3.2,2.8-4.8,3.9
	c-2.5,2.1-5.1,4.4-6.7,7.1c-1.6,2.5-2.3,5.5-1.8,8.8c0,0.9-0.2,1.5-1,2c0-0.6,0-1.1,0-1.7c0.1-2.9,0.4-5.8,0.7-8.6
	c0.4-3.4,1-6.7,1.8-10.1c0-0.2,0-0.2,0.2-0.5c0.5-0.5,0.9-0.9,1.4-1.2c0.2,0,0.5-0.2,0.7-0.2c0.7-0.2,1.6,0,2.3-0.2
	c2.8-0.5,4.8-1.8,6.9-3.7c3.2-2.8,5.1-6.5,6.5-10.4c0-0.2,0-0.7,0.2-1.2c-2.1,0.7-4.2,1.4-6.2,2.3c-1.6,0.7-3.5,1.6-5.1,2.5
	c-3.5,2.1-5.5,5.1-5.3,9.5c0,0,0,0.5-0.2,0.5c-0.4,0.2-0.6,0.4-1,0.6c0.2-0.9,0.5-1.9,0.7-2.8c0.1-0.3,0.2-0.5,0.2-0.8
	c0-0.1,0-0.1,0.1-0.2c0.1-0.2,0.1-0.4,0.2-0.6c1.4-4.6,3.1-9,5.3-13.5c0-0.2,0.2-0.5,0.5-0.5c0.5-0.2,1.2-0.5,1.6-0.7
	c0.2,0,0.5,0,0.7,0c2.5,0.9,4.8,0.9,7.4,0c4.4-1.6,7.6-4.8,9.9-8.8c0,0,0,0,0-0.2c-2.3,0.2-4.8,0.2-7.1,0.5
	c-2.1,0.2-3.9,0.5-5.8,1.4c-2.8,1.2-4.6,3.2-5.1,6.2c0,0.2,0,0.5-0.2,0.5c-0.5,0.2-0.9,0.2-1.4,0.5c0-0.2,0.2-0.5,0.2-0.7
	c0.4-0.9,0.9-1.7,1.3-2.5c0.8-1.4,1.6-2.9,2.5-4.3c1.4-2.3,3-4.5,4.7-6.6c0.2-0.1,0.4-0.2,0.7-0.1c0.2,0,0.7-0.2,0.9-0.2
	c0.5,0,0.7,0,1.2,0.2c1.4,0.9,3,1.4,4.6,1.4c5.5,0.2,9.7-2.3,12.9-6.5c0,0,0,0,0-0.2c-2.8-0.5-5.3-0.9-7.8-1.2
	c-1.8-0.2-3.7,0-5.5,0.7c-2.1,0.9-3.7,2.1-4.6,4.2c-0.4,0.9-0.7,1.1-1.8,0.9c0,0,0,0,0,0c0.1,0,0.1-0.1,0.1-0.1
	c0.7-0.8,1.4-1.7,2.1-2.5l1-1.2l1.1-1.1c0.7-0.7,1.4-1.5,2.2-2.2c0.8-0.7,1.5-1.4,2.3-2.1l1-0.8C44.5,15,44.7,15,45,15
	c2.1-0.2,3.9-0.7,5.5-1.6c3.7-2.1,6.2-5.1,7.8-8.8c0.7-1.2,0.9-2.5,1.4-3.9c-1.4,0.5-2.5,0.9-3.9,1.8c-2.1,0.9-4.4,1.6-6.5,3
	c-2.1,1.4-3.9,3.2-4.8,5.5c-0.5,1.2-0.5,2.3-0.5,3.5c0,0.1,0,0.2,0,0.4l-0.9,0.8c-0.8,0.7-1.6,1.4-2.3,2.1c-0.8,0.7-1.5,1.5-2.2,2.2
	l-1.1,1.1l-1,1.2c-1.6,1.7-3,3.5-4.4,5.4c0.1-0.5,0.1-1,0.6-1.6c3.7-3.9,5.5-8.5,6.2-13.8c0.5-3,0.5-5.8,0-8.8
	c0-0.2-0.2-0.7-0.2-0.9c0,0,0-0.2-0.2-0.5c-1.2,0.9-2.1,1.8-2.8,2.8c-3,3.9-5.3,8.1-6,13.1c-0.2,2.1-0.2,4.4,0.7,6.5
	c0.2,0.5,0.5,0.9,0.9,1.4c0.2,0.2,0.2,0.5,0.2,0.9c0,0.7-0.2,1.3-0.2,2c-0.8,1.1-1.6,2.3-2.4,3.5c-1.7,2.7-3.2,5.4-4.6,8.2
	c-0.8,1.5-1.5,3-2.2,4.6l-0.2,0.2c0-0.9,0-1.6,0.5-2.3c2.5-4.6,3.5-9.7,3.2-15c-0.2-3.5-0.9-6.7-2.5-9.7c0-0.2-0.2-0.2-0.2-0.5
	s0-0.2-0.2-0.2c-0.5,0.7-0.7,1.4-1.2,2.1c-1.6,3-2.3,6.5-3,10.8c-0.5,2.5-0.7,4.8-0.5,7.4c0.2,2.5,1.2,5.1,3.2,6.9
	c0.2,0.2,0.2,0.2,0.2,0.5c0,0.5,0,1.2,0,1.9c-0.6,1.7-1.3,3.3-1.8,5c-1.5,4.1-2.6,8.3-3.5,12.7c-0.2-0.5-0.5-1.2-0.2-1.8
	c0.9-3.5,1.6-6.9,1.4-10.4c-0.2-5.1-1.8-9.7-5.1-13.6c-0.5-0.5-0.7-0.9-1.2-1.4c-0.2,1.2-0.7,2.5-0.9,3.7C9,46.8,9,52.1,10.1,57.4
	c0.5,2.3,1.6,4.4,3.7,5.8c0.9,0.7,1.4,1.4,1.6,2.3c0.5,1.6,0,3-0.2,4.6c-0.1,1.4-0.3,2.8-0.4,4.1c-0.2,1.8-0.3,3.6-0.4,5.4
	c0,0.2,0,0.5,0,0.7c0,0.7,0,1.3-0.1,2c0,0.2,0,0.5,0,0.7c0,0.5,0,1.1,0,1.6c0,0.2,0,0.2,0,0.5h-0.2c-0.2-0.5-0.5-0.9-0.5-1.4
	c0.2-2.5,0.2-5.1-0.2-7.6c-1.2-6.5-4.6-12-9.9-15.9L3.2,60c0,0,0,0-0.2,0c-0.2,1.6-0.2,3-0.2,4.6c0.5,5.1,1.4,9.9,3.7,14.5
	c0.9,1.6,1.8,3,3.2,4.2c0.9,0.7,2.1,1.2,3.2,1.4c0.2,0.2,0.5,0.2,0.5,0.5c0.2,0.7,0.7,1.4,0.9,2.1c0,0.2,0,0.7,0,1.2
	c0.2,6,0.9,12,2.3,17.8v0.2h-0.2c-0.2-0.5-0.5-0.9-0.5-1.4c-0.5-2.8-1.2-5.3-2.5-7.6c-2.5-4.8-6.5-8.5-11.5-10.8
	C1.2,86,0.7,86,0,85.8c0,0.7,0,1.2,0,1.8c0.5,1.8,0.9,3.7,1.6,5.5c1.2,3.5,3,6.7,5.5,9.5c0.9,0.9,2.1,1.8,3.2,2.5
	c1.6,0.9,3.5,1.4,5.3,0.9c0.7,1.4,1.6,2.3,2.1,3.7c1.8,6.2,4.4,12.2,7.6,17.8c0,0,0.2,0.2,0.2,0.5c-0.5-0.2-0.9-0.5-1.2-0.9
	c-1.4-3-3.2-5.8-5.8-8.1c-3.7-3.5-8.3-5.1-13.4-4.8c-0.2,0-0.2,0-0.5,0c0,0,0,0-0.2,0c0,0.2,0,0.7,0.2,1.2c0.7,1.8,1.6,3.5,2.8,5.1
	c1.6,2.5,3.7,4.6,6.2,6.5c2.1,1.6,4.6,2.5,7.4,2.3c1.2-0.2,2.1-0.7,3.5-0.9c0.5,0.2,1.2,0.7,1.8,1.2c0,0.2,0.2,0.2,0.2,0.5
	c3.2,5.1,6.7,9.7,11.1,13.8c0,0,0.2,0,0.2,0.2c-0.7,0-0.9,0-1.4-0.5c-2.3-2.5-4.8-4.8-8.1-5.8c-4.6-1.6-9.2-1.2-13.6,0.5
	c-0.5,0.2-0.9,0.5-1.6,0.7c0.7,0.9,1.4,1.8,2.1,2.5c3.9,3.5,8.5,5.8,13.8,6.2c2.8,0.2,5.5-0.2,7.4-2.5l0.2-0.2
	c0.9,0.2,1.8,0,2.5,0.7c4.4,3.9,9.2,7.1,14.5,9.5c0,0.2,0.2,0.2,0.2,0.2c-0.7,0.5-0.7,0.5-1.4,0c-2.3-1.4-4.6-2.3-7.1-2.8
	c-3.5-0.5-6.5,0-9.7,1.4c-2.3,0.9-4.4,2.3-6.2,3.9c-0.2,0-0.2,0.2-0.5,0.2c0.9,0.9,1.8,1.6,3,2.1c2.3,0.9,4.6,1.6,7.1,1.8
	c0.2,0.2,0.5,0.2,0.7,0.2c1.2,0,2.3,0,3.5,0c1.2,0,2.3-0.2,3.2-0.5c2.8-0.7,5.3-2.1,6.7-4.8c0-0.2,0.2-0.5,0.5-0.5
	c0.7,0,1.6-0.7,2.5-0.2c3.5,1.2,6.9,2.1,10.6,2.8c0.5,0.2,0.9,0.2,1.4,0.2C68.5,157.7,68.3,157.5,67.1,157.3z"/>
</svg>
