<?xml version="1.0" encoding="utf-8"?>
<!-- Generator: Adobe Illustrator 23.0.3, SVG Export Plug-In . SVG Version: 6.00 Build 0)  -->
<svg version="1.1" id="Layer_1" xmlns="http://www.w3.org/2000/svg" xmlns:xlink="http://www.w3.org/1999/xlink" x="0px" y="0px"
	 viewBox="0 0 648 171" style="enable-background:new 0 0 648 171;" xml:space="preserve">
<style type="text/css">
	.st0{fill:#C9201A;}
	.st1{fill:#FFFFFF;}
</style>
<path class="st0" d="M4.3,162.4V35.3H73v19.1l-47.6-0.5l-0.7,35.5h42.6v17.8H24.6l0.9,55.3H4.3V162.4z M119,162.6l0.7-58.6L119,35.3
	h21.5l-0.7,56.4l0.7,70.9H119z M195.9,162.4V35.3h68.7v18.6l-47.5-0.5L216.2,89H260v18h-43.8l0.9,37.3l47.5-0.4v18.6h-68.7
	L195.9,162.4z M357.4,32.9c29.2,0,43.8,13.6,43.8,40.9c0,20.1-8.9,32.7-26.6,37.6v0.9l29.6,50h-24.9l-24.7-48l-20-0.7v48.7h-21.5
	l0.9-59.7l-0.5-67.3C327.2,33.8,341.8,32.9,357.4,32.9L357.4,32.9z M334.5,95.5c9.6,1.1,18,1.6,25.2,1.6s12.2-1.8,15.1-5.4
	c2.8-3.6,4.3-10,4.3-19.3s-1.5-15.5-4.4-18.8c-2.5-2.7-7.8-4-15.7-4c-7.9,0-16,0.5-24.3,1.6C334.7,51.2,334.5,95.5,334.5,95.5z
	 M436.4,162.4l36.2-127.1h25.8l36,127.1h-22l-8-31.3h-37.8l-8.2,31.3H436.4L436.4,162.4z M470.6,113.3h29.8L486,54h-1.1
	C484.9,54,470.6,113.3,470.6,113.3z M606.9,145.7c10.7,0,16-5.8,16-17.5c0-5-2-9.2-6-12.5c-4-3.4-9.5-6.7-16.6-9.9l-12.2-5.6
	c-3.8-2-7.5-4.2-11-6.6l-4.4-4.3c-1.7-1.6-3-3.5-3.9-5.7c-2-4.9-3.1-10-3.1-15.3c0-10.3,3.5-18.8,10.6-25.4s17.2-9.9,30.3-9.9
	c9.6,0,19,1.3,28.4,4l4.9,1.3L636.4,56c-10-2.1-20.1-3.4-30.3-3.8c-7,0-11.8,1.1-14.5,3.4c-2.7,2.2-4,5.8-4,10.7s1.7,8.7,5,11.5
	c3.3,2.7,7.2,5.2,11.6,7.3l10.7,5l6.2,2.8c3.9,2,7.7,4.4,11.3,6.9l4.7,4.5c1.8,1.9,3.2,3.8,4,5.7c2.3,4.7,3.5,9.8,3.5,15.3
	c0,11.8-3.8,21.3-11.5,28.6c-8.1,7.5-18.9,11.4-30,10.9c-6.7,0-13.3-1-19.7-2.7c-5.4-1.3-10.7-3.1-15.7-5.5l-5.6-2.9
	c1.4-4.4,2.9-8.7,4.5-13l1.6-4.5C580.3,142,593.5,145.3,606.9,145.7L606.9,145.7z"/>
<g>
	<path class="st1" d="M4.2,26V5.4h2.6v18.4h6.6V26H4.2z M25.1,26L24,20.8h-5.7L17.1,26h-2.6l5-20.6h3.4L27.7,26H25.1z M21.1,7.4
		l-2.4,11.2h4.8C23.5,18.6,21.1,7.4,21.1,7.4z M49.7,15.4c0,2.2-0.1,4-0.4,5.4c-0.1,1.2-0.5,2.3-1.1,3.3c-0.5,0.8-1.1,1.4-1.9,1.7
		c-0.7,0.3-1.6,0.5-2.6,0.5h-1.8l-1.7-0.1l-1.7-0.1V5.4l1.6-0.1l1.5-0.1h1.6c1,0,2,0.1,2.7,0.4c0.8,0.2,1.4,0.7,2,1.5
		s0.9,1.8,1.2,3.1C49.6,11.5,49.7,13.2,49.7,15.4z M47.1,15.6c0-1.4-0.1-2.9-0.2-4.3c-0.1-1.1-0.4-1.9-0.6-2.5c-0.3-0.6-0.6-1-1-1.2
		l-1.2-0.3h-1.8c-0.3,0-0.7,0-1,0.1V24l0.9,0.1h1.9c0.5,0,0.9-0.1,1.3-0.4c0.4-0.3,0.7-0.7,1-1.4c0.3-0.7,0.5-1.5,0.6-2.6
		C47,19.7,47.1,15.6,47.1,15.6z M62.4,26l-1.1-5.2h-5.7L54.4,26h-2.6l5-20.6h3.4L65,26H62.4z M58.4,7.4L56,18.6h4.8
		C60.8,18.6,58.4,7.4,58.4,7.4z M75.1,26L70.6,7.6V26h-2.4V5.4h4.2L77,23.8V5.4h2.4V26H75.1z M85.8,23.8h7.3V26h-9.9v-2.6l7.6-15.8
		h-6.9V5.4h9.5V8L85.8,23.8z M106,26l-1.1-5.2h-5.7L98,26h-2.6l5-20.6h3.4l4.9,20.6H106z M102,7.4l-2.4,11.2h4.8
		C104.4,18.6,102,7.4,102,7.4z M130.6,15.4c0,2.2-0.1,4-0.4,5.4c-0.1,1.2-0.5,2.3-1.1,3.3c-0.5,0.8-1.1,1.4-1.9,1.7
		c-0.7,0.3-1.6,0.5-2.6,0.5h-1.8l-1.7-0.1l-1.7-0.1V5.4l1.6-0.1l1.5-0.1h1.6c1,0,2,0.1,2.7,0.4c0.8,0.2,1.4,0.7,2,1.5
		s0.9,1.8,1.2,3.1C130.5,11.5,130.6,13.2,130.6,15.4z M128,15.6c0-1.4-0.1-2.9-0.2-4.3c-0.1-1.1-0.4-1.9-0.6-2.5
		c-0.3-0.6-0.6-1-1-1.2L125,7.3h-1.8c-0.3,0-0.7,0-1,0.1V24l0.9,0.1h1.9c0.5,0,0.9-0.1,1.3-0.4c0.4-0.3,0.7-0.7,1-1.4
		c0.3-0.7,0.5-1.5,0.6-2.6L128,15.6L128,15.6z M135,26V5.4h9.7v2.1h-7.1v6.7h6.4v2.1h-6.4v7.4h7.1V26H135z M156.6,26V5.4h2.6v18.4
		h6.6V26H156.6L156.6,26z M177.5,26l-1.1-5.2h-5.7l-1.1,5.2H167l5-20.6h3.4l4.9,20.6H177.5L177.5,26z M173.5,7.4l-2.4,11.2h4.8
		L173.5,7.4L173.5,7.4z M192.1,20.2c0,1.2-0.1,2.2-0.4,3c-0.3,0.8-0.7,1.4-1.2,1.9s-1.1,0.8-1.8,0.9c-0.7,0.2-1.5,0.3-2.4,0.3
		l-1.7-0.1c-0.6-0.1-1.1-0.2-1.7-0.3v-2.1c1.2,0.2,2.5,0.3,3.7,0.4c1,0,1.8-0.3,2.2-0.9s0.7-1.5,0.7-2.7l-0.1-1.8l-0.4-1.2
		c-0.2-0.3-0.4-0.5-0.8-0.7l-1-0.4l-2.1-0.7c-0.6-0.3-1-0.6-1.4-1.1c-0.4-0.4-0.6-1-0.8-1.6s-0.3-1.4-0.3-2.2c0-1.1,0.1-1.9,0.4-2.7
		c0.3-0.7,0.7-1.3,1.2-1.8c0.5-0.5,1.1-0.8,1.8-1c0.7-0.2,1.5-0.3,2.3-0.3l1.6,0.1l1.5,0.3v2.1l-1.7-0.3L188,7.2l-1.1,0.2L186,8
		c-0.3,0.3-0.5,0.6-0.6,1c-0.2,0.4-0.3,0.9-0.3,1.5l0.1,1.5l0.3,1c0.2,0.3,0.4,0.5,0.7,0.6l1.1,0.4c1.3,0.2,2.5,0.8,3.4,1.7
		c0.4,0.5,0.7,1.1,0.9,1.8C192,18.2,192.1,19.1,192.1,20.2z"/>
</g>
</svg>
