<svg xmlns="http://www.w3.org/2000/svg" viewBox="0 0 648 171">
  <path fill="#dd3814" d="M4.3 162.4V35.3H73v19.1l-47.6-.5-.7 35.5h42.6v17.8H24.6l.9 55.3H4.3zM119 162.6l.7-58.6-.7-68.7h21.5l-.7 56.4.7 70.9H119zM195.9 162.4V35.3h68.7v18.6l-47.5-.5-.9 35.6H260v18h-43.8l.9 37.3 47.5-.4v18.6h-68.7zM357.4 32.9c29.2 0 43.8 13.6 43.8 40.9 0 20.1-8.9 32.7-26.6 37.6v.9l29.6 50h-24.9l-24.7-48-20-.7v48.7h-21.5l.9-59.7-.5-67.3c13.7-1.5 28.3-2.4 43.9-2.4zm-22.9 62.6c9.6 1.1 18 1.6 25.2 1.6 7.2 0 12.2-1.8 15.1-5.4 2.8-3.6 4.3-10 4.3-19.3s-1.5-15.5-4.4-18.8c-2.5-2.7-7.8-4-15.7-4-7.9 0-16 .5-24.3 1.6l-.2 44.3zM436.4 162.4l36.2-127.1h25.8l36 127.1h-22l-8-31.3h-37.8l-8.2 31.3h-22zm34.2-49.1h29.8L486 54h-1.1l-14.3 59.3zM606.9 145.7c10.7 0 16-5.8 16-17.5 0-5-2-9.2-6-12.5-4-3.4-9.5-6.7-16.6-9.9l-12.2-5.6a111.2 111.2 0 0 1-11-6.6l-4.4-4.3a16.2 16.2 0 0 1-3.9-5.7 40.6 40.6 0 0 1-3.1-15.3c0-10.3 3.5-18.8 10.6-25.4 7.1-6.6 17.2-9.9 30.3-9.9 9.6 0 19 1.3 28.4 4l4.9 1.3-3.5 17.7a177.6 177.6 0 0 0-30.3-3.8c-7 0-11.8 1.1-14.5 3.4-2.7 2.2-4 5.8-4 10.7 0 4.9 1.7 8.7 5 11.5 3.3 2.7 7.2 5.2 11.6 7.3l10.7 5 6.2 2.8a100.3 100.3 0 0 1 11.3 6.9l4.7 4.5c1.8 1.9 3.2 3.8 4 5.7 2.3 4.7 3.5 9.8 3.5 15.3 0 11.8-3.8 21.3-11.5 28.6a41.5 41.5 0 0 1-30 10.9 77 77 0 0 1-19.7-2.7 76.5 76.5 0 0 1-15.7-5.5l-5.6-2.9a546 546 0 0 1 4.5-13l1.6-4.5a96 96 0 0 0 38.7 9.5z"/>
  <g fill="#fff">
    <path d="M4.2 26V5.4h2.6v18.4h6.6V26H4.2zM25.1 26L24 20.8h-5.7L17.1 26h-2.6l5-20.6h3.4L27.7 26h-2.6zm-4-18.6l-2.4 11.2h4.8L21.1 7.4zM49.7 15.4c0 2.2-.1 4-.4 5.4a8.5 8.5 0 0 1-1.1 3.3c-.5.8-1.1 1.4-1.9 1.7-.7.3-1.6.5-2.6.5h-1.8l-1.7-.1-1.7-.1V5.4l1.6-.1 1.5-.1h1.6c1 0 2 .1 2.7.4.8.2 1.4.7 2 1.5s.9 1.8 1.2 3.1c.5 1.3.6 3 .6 5.2zm-2.6.2a46 46 0 0 0-.2-4.3c-.1-1.1-.4-1.9-.6-2.5-.3-.6-.6-1-1-1.2l-1.2-.3h-1.8a3 3 0 0 0-1 .1V24l.9.1h1.9a2 2 0 0 0 1.3-.4c.4-.3.7-.7 1-1.4.3-.7.5-1.5.6-2.6l.1-4.1zM62.4 26l-1.1-5.2h-5.7L54.4 26h-2.6l5-20.6h3.4L65 26h-2.6zm-4-18.6L56 18.6h4.8L58.4 7.4zM75.1 26L70.6 7.6V26h-2.4V5.4h4.2L77 23.8V5.4h2.4V26h-4.3zM85.8 23.8h7.3V26h-9.9v-2.6l7.6-15.8h-6.9V5.4h9.5V8l-7.6 15.8zM106 26l-1.1-5.2h-5.7L98 26h-2.6l5-20.6h3.4l4.9 20.6H106zm-4-18.6l-2.4 11.2h4.8L102 7.4zM130.6 15.4c0 2.2-.1 4-.4 5.4a8.5 8.5 0 0 1-1.1 3.3c-.5.8-1.1 1.4-1.9 1.7-.7.3-1.6.5-2.6.5h-1.8l-1.7-.1-1.7-.1V5.4l1.6-.1 1.5-.1h1.6c1 0 2 .1 2.7.4.8.2 1.4.7 2 1.5s.9 1.8 1.2 3.1c.5 1.3.6 3 .6 5.2zm-2.6.2a46 46 0 0 0-.2-4.3c-.1-1.1-.4-1.9-.6-2.5-.3-.6-.6-1-1-1.2l-1.2-.3h-1.8a3 3 0 0 0-1 .1V24l.9.1h1.9a2 2 0 0 0 1.3-.4c.4-.3.7-.7 1-1.4.3-.7.5-1.5.6-2.6l.1-4.1zM135 26V5.4h9.7v2.1h-7.1v6.7h6.4v2.1h-6.4v7.4h7.1V26H135zM156.6 26V5.4h2.6v18.4h6.6V26h-9.2zM177.5 26l-1.1-5.2h-5.7l-1.1 5.2H167l5-20.6h3.4l4.9 20.6h-2.8zm-4-18.6l-2.4 11.2h4.8l-2.4-11.2zM192.1 20.2c0 1.2-.1 2.2-.4 3-.3.8-.7 1.4-1.2 1.9s-1.1.8-1.8.9c-.7.2-1.5.3-2.4.3l-1.7-.1a57 57 0 0 1-1.7-.3v-2.1a47.8 47.8 0 0 0 3.7.4c1 0 1.8-.3 2.2-.9s.7-1.5.7-2.7l-.1-1.8-.4-1.2c-.2-.3-.4-.5-.8-.7l-1-.4-2.1-.7c-.6-.3-1-.6-1.4-1.1-.4-.4-.6-1-.8-1.6-.2-.6-.3-1.4-.3-2.2 0-1.1.1-1.9.4-2.7.3-.7.7-1.3 1.2-1.8a4 4 0 0 1 1.8-1c.7-.2 1.5-.3 2.3-.3l1.6.1 1.5.3v2.1l-1.7-.3-1.7-.1-1.1.2-.9.6a2 2 0 0 0-.6 1c-.2.4-.3.9-.3 1.5l.1 1.5.3 1c.2.3.4.5.7.6l1.1.4a6 6 0 0 1 3.4 1.7c.4.5.7 1.1.9 1.8.4.7.5 1.6.5 2.7z"/>
  </g>
</svg>