<svg xmlns="http://www.w3.org/2000/svg" width="648" height="171" fill="none">
  <path fill="#fff" d="M70.8 40.7v17l-47-.5h-1v1L22 94.2v1H65V111H22.1v1l.8 54.7H3.7v-126h67.1zm1-1.1H2.7v128H24L23 112H66V94H23l.8-35.7 48 .5V39.6zM138.7 40.7l-.7 55.7.7 70.4h-19.4l.7-58-.7-68.1h19.4zm1.1-1.1h-21.6l.8 69.3-.8 59h21.6l-.7-71.5.7-56.8zM264 40.7v16.5l-46.8-.5h-1v1l-1 36v1h44.1v16h-44.2v1l1 37.7v1h1l46.8-.3v16.6h-67.1v-126h67.1zm1-1.1h-69.3v128H265V149l-47.8.4-1-37.6h44.2v-18h-44.2l1-36 47.8.6V39.6zM358.5 38.3c14.4 0 25.2 3.3 32.3 10 7.1 6.7 10.8 16.7 10.8 30 0 20-8.5 32-26 37l-.8.1V117.6l.1.2 29 48.8h-22.6l-24.6-47.8-.4-.6h-.6l-20.2-.7h-1v49H315l.8-59-.5-66.7c13.4-1.6 28-2.5 43.2-2.5zm2.3 64.7c7.6 0 13-2 16-5.8 3-3.9 4.5-10.5 4.5-20.1 0-9.7-1.5-16.1-4.8-19.7-2.7-2.9-8.2-4.4-16.6-4.4-8 0-16.3.6-24.6 1.6l-1 .1v1l-.2 44.5v1h1c9.7 1.2 18.3 1.8 25.7 1.8zm-2.3-65.8c-15.8 0-30.5.9-44.2 2.6l.6 67.8-1 60h21.6v-49l20.2.7 25 48.3h25L376 117.3v-1c17.8-5 26.8-17.6 26.8-38 0-27.3-14.8-41-44.2-41zm2.3 64.7c-7.4 0-15.7-.5-25.4-1.6l.2-44.5c8.3-1 16.4-1.6 24.5-1.6 8 0 13.3 1.4 16 4 2.8 3.4 4.3 9.7 4.3 19S379 93 376.1 96.6c-3 3.5-8 5.3-15.3 5.3zM499.7 40.7l35.7 125.9h-19.9l-7.8-30.8-.3-.8h-39.8l-.2.7-8.1 30.8h-19.9l36-126h24.3v.2zm-28.6 78.6H504l-.3-1.3-14.5-59.7-.2-.9H486l-.2.9-14.5 59.7-.3 1.3zm29.4-79.7h-26l-36.5 128h22.2l8.2-31.4h38.2l8 31.4h22.2l-36.3-128zm-28 78.6l14.4-59.7h1l14.6 59.7h-30zM609.5 38.3c9.5 0 19 1.3 28.4 4l4 1-3.1 16a168.3 168.3 0 0 0-29.7-3.7c-7.3 0-12.4 1.2-15.3 3.6-2.9 2.5-4.4 6.4-4.4 11.6a15 15 0 0 0 5.5 12.4c3.5 2.8 7.4 5.3 12 7.4 4.5 2.2 8 3.9 10.8 5l6.2 2.9a70.6 70.6 0 0 1 11.2 6.8c1.3 1.2 3 2.7 4.7 4.5 1.8 1.9 3 3.7 3.9 5.5 2.3 4.6 3.3 9.7 3.3 15 0 11.4-3.7 20.9-11.1 27.9a41.2 41.2 0 0 1-29.5 10.7 93.7 93.7 0 0 1-35.1-8l-4.9-2.5 2.5-7c.8-2 1.3-3.7 1.8-5.2l1.2-3.5a94.7 94.7 0 0 0 38.3 9.1c11.4 0 17.2-6.2 17.2-18.6 0-5.3-2.2-10-6.5-13.5-4-3.4-9.8-6.8-17-10a256 256 0 0 1-12.2-5.8l-5.6-3a25.3 25.3 0 0 1-5.4-3.5c-1-1-2.4-2.5-4.4-4.3-1.8-1.7-3-3.6-3.6-5.4-2-5-3-10-3-15 0-10 3.4-18.4 10.4-24.8 6.5-6.4 16.5-9.6 29.4-9.6zm0-1a43.2 43.2 0 0 0-30.5 10 33.2 33.2 0 0 0-10.7 25.5c0 5 1 10 3 15.3.8 2 2.1 4 4 5.8a33.2 33.2 0 0 0 10 8 146.3 146.3 0 0 0 17.9 8.7 68.8 68.8 0 0 1 16.8 10c4 3.4 6 7.6 6 12.7 0 11.7-5.4 17.6-16.1 17.6a95.8 95.8 0 0 1-39-9.6l-1.6 4.5-1.8 5.2-2.8 8 5.7 2.8c3.7 1.9 9 3.7 16 5.5a77.7 77.7 0 0 0 19.8 2.8c12.5 0 22.6-3.6 30.2-11a37.6 37.6 0 0 0 11.5-28.7c0-5.5-1.2-10.7-3.4-15.4-1-2-2.2-3.9-4.1-5.8a36.7 36.7 0 0 0-10.4-8.5 91.8 91.8 0 0 0-5.9-3.1l-6.2-2.8-10.8-5a58.9 58.9 0 0 1-11.8-7.3c-3.3-2.8-5-6.6-5-11.5 0-5 1.3-8.6 4-10.9 2.8-2.2 7.6-3.4 14.7-3.4 7 0 17.2 1.3 30.5 3.8l3.5-17.9-5-1.3c-9.3-2.7-18.8-4-28.5-4zM2.3 24.7V5.3h2.4v17.3H11v2H2.3zm16-17.5L16 17.7h4.5L18.2 7.2zM22 24.7l-1-5h-5.5l-1 5H12l4.7-19.4h3.1l4.6 19.4H22zm20.6-9.8c0-1.7-.1-3-.3-4 0-1-.3-1.8-.5-2.4-.3-.5-.6-.9-1-1-.3-.2-.7-.3-1-.3a14.7 14.7 0 0 0-1.8 0h-1v15.5a113.6 113.6 0 0 0 1.8.1h.9a2 2 0 0 0 1.1-.4c.4-.2.7-.6 1-1.2l.5-2.5c.2-1 .3-2.3.3-3.8zm2.4-.2c0 2-.1 3.7-.3 5a8.4 8.4 0 0 1-1 3.2c-.6.7-1.1 1.2-1.8 1.5-.7.3-1.5.4-2.5.4a51.4 51.4 0 0 1-4.8-.1V5.3a578.5 578.5 0 0 1 4.5-.2c1 0 1.8.2 2.6.4.7.2 1.3.7 1.8 1.4s.9 1.6 1.1 2.9c.3 1.2.4 2.9.4 4.9zm8.2-7.5l-2.3 10.5h4.5L53.2 7.2zm3.7 17.5l-1-5h-5.4l-1 5H47l4.6-19.4h3.2l4.6 19.4h-2.5zm12 0L64.7 7.4v17.3h-2.3V5.3h4l4.2 17.3V5.3h2.2v19.4h-4zm10-2h6.8v2h-9.3v-2.5l7.1-14.8H77v-2h9v2.4l-7.1 14.8zM94 7.1l-2.2 10.5h4.5L94 7.2zm3.7 17.5l-1-5h-5.4l-1 5h-2.5l4.6-19.4h3.2l4.6 19.4h-2.5zm20.6-9.8c0-1.7 0-3-.2-4-.1-1-.3-1.8-.6-2.4-.2-.5-.5-.9-.9-1-.3-.2-.7-.3-1.1-.3a14.6 14.6 0 0 0-1.7 0h-1v15.5a113 113 0 0 0 1.7.1h1a2 2 0 0 0 1.1-.4c.4-.2.7-.6 1-1.2l.5-2.5c.2-1 .2-2.3.2-3.8zm2.5-.2c0 2-.1 3.7-.4 5a8.4 8.4 0 0 1-1 3.2c-.5.7-1 1.2-1.8 1.5-.7.3-1.5.4-2.4.4a51.5 51.5 0 0 1-4.8-.1V5.3a591.4 591.4 0 0 1 4.5-.2c1 0 1.8.2 2.5.4.8.2 1.4.7 1.9 1.4s.9 1.6 1.1 2.9c.3 1.2.4 2.9.4 4.9zm4.1 10V5.3h9v2h-6.6v6.4h6v2h-6v7h6.7v2h-9zm20.3 0V5.3h2.4v17.3h6.1v2h-8.5zM161 7.2L159 17.7h4.5L161 7.2zm3.8 17.5l-1-5h-5.5l-1 5h-2.5l4.7-19.4h3.2l4.5 19.4H165zm13.6-5.5c0 1.1 0 2-.3 2.8a4 4 0 0 1-1.1 1.7 4 4 0 0 1-1.8.9 9.2 9.2 0 0 1-3.8.1c-.6 0-1.1-.1-1.6-.3v-2a16.2 16.2 0 0 0 3.5.4c1 0 1.6-.2 2-.8.5-.5.7-1.4.7-2.6 0-.6 0-1.2-.2-1.6a3 3 0 0 0-.4-1.1l-.7-.7-1-.3-2-.6c-.4-.3-.9-.6-1.2-1a4 4 0 0 1-.8-1.5A8.7 8.7 0 0 1 170 8c.3-.7.7-1.2 1.1-1.7.5-.4 1.1-.7 1.8-.9a8.1 8.1 0 0 1 3.7-.1c.5 0 1 .1 1.4.3v2a16 16 0 0 0-3.2-.4l-1 .1-.9.5a3 3 0 0 0-.6 1l-.2 1.4v1.4l.4.9.6.6 1.1.3 1.8.5 1.4 1c.3.5.6 1 .8 1.7.2.7.3 1.6.3 2.6z"/>
  <path fill="#fff" d="M2.5 159.8V37.9h65.8v18.3l-45.6-.5-.7 34h40.7v17.1H22l.9 53H2.5zM112.4 160l.7-56.2-.7-65.9h20.5l-.7 54 .7 68h-20.5zM186 159.8V37.9h66v17.8l-45.5-.5-1 34.1h42v17.3h-42l1 35.8 45.4-.3v17.8H186v-.1zM340.8 35.7c28 0 42 13 42 39.2 0 19.3-8.5 31.3-25.5 36v1l28.4 48h-23.9l-23.7-46-19.2-.8V160h-20.5l1-57.2-.6-64.5c13-1.7 27-2.5 42-2.5zm-22 60c9.2 1 17.3 1.5 24.1 1.5 7 0 11.8-1.7 14.5-5.1 2.8-3.5 4.1-9.6 4.1-18.5 0-9-1.4-15-4.2-18-2.4-2.6-7.4-3.9-15-3.9s-15.4.5-23.4 1.5v42.5zM416.4 159.8L451 37.9h24.7l34.6 121.9h-21l-7.7-30h-36.3l-7.9 30h-21zm32.7-47h28.6l-13.8-56.9h-1L449 112.7zM579.7 143.7c10.3 0 15.4-5.6 15.4-16.8 0-4.8-2-8.8-5.8-12a69.6 69.6 0 0 0-15.9-9.5 260.1 260.1 0 0 1-17-8.3 31.7 31.7 0 0 1-5.3-3.5l-4.2-4c-1.8-2-3-3.7-3.7-5.6-2-5-3-9.9-3-14.6 0-10 3.4-18 10.2-24.3a41 41 0 0 1 29-9.5c9.2 0 18.2 1.3 27.2 3.8l4.7 1.3-3.3 17a166 166 0 0 0-29-3.6c-6.6 0-11.3 1-13.9 3.2-2.5 2.2-3.9 5.7-3.9 10.4S563 76 566 78.6c3.2 2.7 7 4.9 11.2 7 4.2 2 7.6 3.6 10.3 4.7l6 2.7a87 87 0 0 1 10.9 6.6l4.4 4.4c1.8 1.9 3.1 3.7 4 5.6 2.2 4.5 3.2 9.4 3.2 14.6 0 11.2-3.7 20.4-11 27.4a40 40 0 0 1-28.6 10.4c-6 0-12.4-1-19-2.7a87 87 0 0 1-15-5.2l-5.5-2.7c1-3.2 2-5.7 2.7-7.6l1.7-4.9 1.6-4.3a89 89 0 0 0 36.8 9.1zM2.3 24.9V5.5h2.4v17.3H11v2H2.3zm16-17.5L16 17.9h4.5L18.2 7.4zM22 24.9l-1-5h-5.5l-1 5H12l4.7-19.4h3.1L24.4 25H22zM42.6 15c0-1.7-.1-3-.3-4 0-1-.3-1.8-.5-2.4-.3-.5-.6-.9-1-1-.3-.2-.7-.3-1-.3a14.7 14.7 0 0 0-1.8 0h-1V23a113.6 113.6 0 0 0 1.8.1h.9a2 2 0 0 0 1.1-.3c.4-.3.7-.7 1-1.3l.5-2.5c.2-1 .3-2.3.3-3.8zm2.4-.2c0 2-.1 3.8-.3 5a8.4 8.4 0 0 1-1 3.2c-.6.7-1.1 1.3-1.8 1.5-.7.3-1.5.5-2.5.5a51.4 51.4 0 0 1-4.8-.2V5.5a578.5 578.5 0 0 1 4.5-.1c1 0 1.8 0 2.6.3.7.2 1.3.7 1.8 1.4s.9 1.6 1.1 2.9c.3 1.2.4 2.9.4 4.9zm8.2-7.5l-2.3 10.5h4.5L53.2 7.4zm3.7 17.5l-1-5h-5.4l-1 5H47l4.6-19.4h3.2L59.4 25h-2.5zm12 0L64.7 7.6v17.3h-2.3V5.5h4l4.2 17.3V5.5h2.2V25h-4zm10-2h6.8v2h-9.3v-2.5l7.1-14.8H77v-2h9V8l-7.1 14.8zM94 7.3l-2.2 10.5h4.5L94 7.4zm3.7 17.5l-1-5h-5.4l-1 5h-2.5l4.6-19.4h3.2l4.6 19.4h-2.5zm20.6-9.8c0-1.7 0-3-.2-4-.1-1-.3-1.8-.6-2.4-.2-.5-.5-.9-.9-1-.3-.2-.7-.3-1.1-.3a14.6 14.6 0 0 0-1.7 0h-1V23a113 113 0 0 0 1.7.1h1a2 2 0 0 0 1.1-.3c.4-.3.7-.7 1-1.3l.5-2.5c.2-1 .2-2.3.2-3.8zm2.5-.2c0 2-.1 3.8-.4 5a8.4 8.4 0 0 1-1 3.2c-.5.7-1 1.3-1.8 1.5-.7.3-1.5.5-2.4.5a51.5 51.5 0 0 1-4.8-.2V5.5a591.4 591.4 0 0 1 4.5-.1c1 0 1.8 0 2.5.3.8.2 1.4.7 1.9 1.4s.9 1.6 1.1 2.9c.3 1.2.4 2.9.4 4.9zm4.1 10V5.5h9v2h-6.6V14h6v2h-6v7h6.7v2h-9zm20.3 0V5.5h2.4v17.3h6.1v2h-8.5zM161 7.4L159 17.9h4.5L161 7.4zm3.8 17.5l-1-5h-5.5l-1 5h-2.5l4.7-19.4h3.2l4.5 19.4H165zm13.6-5.5c0 1.1 0 2-.3 2.8a4 4 0 0 1-1.1 1.7 4 4 0 0 1-1.8 1 9.2 9.2 0 0 1-3.8 0c-.6 0-1.1-.1-1.6-.3v-2a16.2 16.2 0 0 0 3.5.4c1 0 1.6-.2 2-.8.5-.5.7-1.4.7-2.5 0-.7 0-1.3-.2-1.7a3 3 0 0 0-.4-1.1l-.7-.7-1-.3-2-.6c-.4-.3-.9-.6-1.2-1a4 4 0 0 1-.8-1.5 8.7 8.7 0 0 1 .2-4.6c.3-.7.7-1.2 1.1-1.7.5-.4 1.1-.7 1.8-.9a8.1 8.1 0 0 1 3.7-.1c.5 0 1 .2 1.4.3v2a16 16 0 0 0-3.2-.4l-1 .1-.9.6a3 3 0 0 0-.6.9l-.2 1.4v1.4c.1.4.2.7.4.9l.6.6 1.1.3c.7.1 1.3.3 1.8.6.5.2 1 .5 1.4 1l.8 1.6c.2.7.3 1.6.3 2.6z"/>
</svg>