<svg xmlns="http://www.w3.org/2000/svg" viewBox="0 0 391.5 210">
  <path fill="#F4F4F4" d="M15.2 29c0 1.7-.2 3-.6 4.1a5.7 5.7 0 0 1-1.6 2.5c-.7.6-1.5 1-2.5 1.3-1 .2-2 .4-3.2.4L5 37.1l-2.4-.4v-2.9l2.2.4 2.9.2c1.4 0 2.4-.4 3-1.2.6-.8 1-2 1-3.7l-.2-2.4c-.1-.7-.3-1.2-.6-1.6l-1-1-1.5-.5a9.2 9.2 0 0 1-2.8-.9c-.8-.4-1.4-.9-1.9-1.4-.5-.6-.8-1.3-1.1-2.2-.2-.9-.3-1.9-.3-3 0-1.4.2-2.6.6-3.6A6.2 6.2 0 0 1 7 9.1c1-.3 2-.4 3.2-.4l2.2.2 2.1.4v2.9l-2.3-.4-2.3-.2-1.5.2c-.5.2-.9.4-1.2.8-.5.4-.8.8-1 1.4a11.5 11.5 0 0 0-.2 4c.1.5.2 1 .4 1.3.2.3.6.6 1 .8l1.6.5c1 .2 1.8.5 2.6.8.8.3 1.4.8 2 1.5.6.6 1 1.4 1.3 2.4s.3 2.3.3 3.7zm5.3 8V9h3.4v9.5c.6-.6 1.3-1 2-1.3a8.5 8.5 0 0 1 5.5-.1c.8.3 1.4.7 1.8 1.3a5 5 0 0 1 1 2.2c.2.9.3 1.9.3 3.2V37h-3.4V23.4a5 5 0 0 0-.6-2.8c-.4-.6-1.3-1-2.6-1-.6 0-1.1.1-1.6.3l-1.3.8-.8 1.1c-.2.4-.3.7-.3 1.1v14h-3.4zm33.3 0l-.7-.1-.8-.3c-.3-.2-.6-.3-.8-.6l-.6-1c-.5.7-1.2 1.3-2 1.7-.8.4-1.9.6-3.3.6l-2.2-.2a4 4 0 0 1-1.9-.8c-.6-.5-1-1.1-1.4-1.8-.3-.8-.5-1.8-.5-3 0-2.2.6-3.8 1.9-5 1.3-1.1 3-1.7 5.2-1.7h3.2v-2.2a3 3 0 0 0-.8-2.1c-.5-.6-1.2-.8-2.2-.8a26.6 26.6 0 0 0-5.8.8v-2.9a47 47 0 0 1 2.5-.6c.9-.2 1.9-.2 2.9-.2 1.3 0 2.4.1 3.2.4.9.2 1.6.6 2.1 1.2.5.5.9 1.2 1.1 2 .2.8.4 1.8.4 3V33c0 .4.1.7.4 1 .3.2.7.3 1.4.3V37h-1.3zm-7.5-2.6a4 4 0 0 0 1.7-.3c.5-.2.8-.5 1.1-.8.3-.3.5-.6.6-1l.2-.8v-4.2h-3.4l-1.3.2c-.4.1-.8.4-1.1.7-.3.3-.6.7-.8 1.2-.2.5-.3 1-.3 1.7 0 1.3.3 2.1.8 2.6a4 4 0 0 0 2.5.7zM60 37V17h2.8l.2 2c.5-.7 1-1.3 1.7-1.7.7-.4 1.5-.6 2.5-.6l1.2.1.9.1v3.6l-1.2-.2-1.2-.1a3 3 0 0 0-1.7.4c-.4.3-.8.6-1.1 1.1-.3.4-.5.9-.6 1.5l-.2 1.6V37H60zm15.8-8.8c0 1.3.1 2.4.3 3.2.2.8.4 1.4.7 1.9.3.5.6.8 1 .9l1.4.2 3-.2 2.3-.4v2.9l-2.4.4-2.5.2c-1.1 0-2.2-.1-3.1-.4a4 4 0 0 1-2.2-1.4 6.9 6.9 0 0 1-1.4-3.1 26 26 0 0 1-.1-10.1c.3-1.3.8-2.4 1.4-3.2.6-.8 1.4-1.4 2.3-1.8a8 8 0 0 1 3.2-.6c2.3 0 3.9.8 4.9 2.3 1 1.5 1.5 3.6 1.5 6.2v3H75.8zm3.8-8.6c-.6 0-1.2.1-1.6.3-.5.2-.8.5-1.1 1l-.7 1.8c-.2.7-.3 1.7-.3 2.8h7v-1.1c0-1.5-.2-2.7-.7-3.6-.6-.8-1.4-1.2-2.6-1.2zm37.2-2.7c0 2.1-.3 3.8-.9 5.1a5 5 0 0 1-3.1 2.8l5.5 12.2h-3.8l-5.1-11.6h-3.6V37h-3.5V9l2.1-.2 2.2-.1h2.5c1.5 0 2.8.2 3.8.6a6 6 0 0 1 2.4 1.6c.6.7 1 1.6 1.2 2.6.2 1 .3 2.2.3 3.4zm-3.6.3c0-1.9-.3-3.4-.8-4.2-.5-.9-1.5-1.3-2.9-1.3l-2.7.1-1 .1v10.6h3.8a6 6 0 0 0 1.5-.2c.5-.2.8-.4 1.2-.8.3-.4.6-.9.8-1.6l.1-2.7zm12.3 11c0 1.3.1 2.4.3 3.2.2.8.4 1.4.7 1.9.3.5.6.8 1 .9l1.4.2 3-.2 2.3-.4v2.9l-2.4.4-2.5.2c-1.1 0-2.2-.1-3.1-.4a4 4 0 0 1-2.2-1.4 6.9 6.9 0 0 1-1.4-3.1 26 26 0 0 1-.1-10.1c.3-1.3.8-2.4 1.4-3.2s1.4-1.4 2.3-1.8a8 8 0 0 1 3.2-.6c2.3 0 3.9.8 4.9 2.3 1 1.5 1.5 3.6 1.5 6.2v3h-10.3zm3.8-8.6c-.6 0-1.2.1-1.6.3-.5.2-.8.5-1.1 1l-.7 1.8c-.2.7-.3 1.7-.3 2.8h7v-1.1c0-1.5-.2-2.7-.7-3.6-.6-.8-1.4-1.2-2.6-1.2zM156 24c0 2.3-.7 4-2 5.1-1.3 1.1-3.3 1.6-6.1 1.6l-2.6-.2c-.3.6-.4 1.2-.4 1.7l.2 1.1 2.7-.2 2.3-.1 2.6.2c.8.2 1.5.5 2.1.9.6.4 1 1 1.4 1.8.3.8.5 1.8.5 3 0 1-.2 1.9-.6 2.6-.4.7-.9 1.3-1.6 1.8-.7.5-1.5.8-2.4 1-.9.2-1.9.3-3 .3l-1.8-.1-2.2-.2-2.1-.2-1.5-.2V41l1.7.2 2 .2 2.2.1 2 .1c1.4 0 2.3-.3 2.9-.8.6-.5.9-1.1.9-1.9 0-1-.2-1.8-.7-2.2-.5-.5-1.3-.7-2.6-.7h-1.4l-1.8.1-1.8.1-1.5.2c-.5-.4-.9-1-1.2-1.7a5.3 5.3 0 0 1-.2-4l.8-1.4a4.2 4.2 0 0 1-1.6-2.3c-.3-.9-.4-2.1-.4-3.4 0-1.4.2-2.6.7-3.5s1.1-1.6 1.8-2.1c.8-.5 1.7-.9 2.6-1 1-.2 2.1-.3 3.2-.3 1.2 0 2.2.2 3.1.6l5.8-.3v3l-2.8-.1c.5 1.1.8 2.5.8 4.1zm-3.4-.3l-.2-1.6c-.1-.5-.3-.9-.6-1.3s-.7-.7-1.3-.9c-.5-.2-1.2-.4-2-.4-1.7 0-2.9.4-3.6 1.1-.6.7-1 1.8-1 3.4l.2 1.6c.1.5.3.9.6 1.2.3.3.7.6 1.2.8a5 5 0 0 0 1.9.3 9 9 0 0 0 1.8-.2c.6-.1 1.1-.3 1.5-.6.4-.3.8-.8 1-1.3a4 4 0 0 0 .5-2.1zM172.7 37l-.3-1.6c-.6.6-1.2 1.1-2 1.4-.7.3-1.6.5-2.6.5-1.1 0-2.1-.1-2.8-.4-.7-.3-1.3-.7-1.8-1.3a7 7 0 0 1-.9-2.3c-.2-.9-.3-2-.3-3.2V17h3.4v13.4l.1 1.7.4 1.2c.2.3.5.6.9.8.4.2.9.2 1.5.2s1.1-.1 1.5-.3c.5-.2.8-.5 1.2-.8l.8-1 .3-1.1V17h3.4v20h-2.8zm15-.2l-1 .2-1.4.1a5 5 0 0 1-1.2-.2c-.4-.1-.8-.4-1.1-.7-.3-.3-.6-.8-.8-1.4-.2-.6-.3-1.4-.3-2.3V9h3.4v23.3l.2 1.5c.2.3.5.4 1.1.4l.6-.1.5-.1v2.8zm17.8.2l-.7-.1-.8-.3c-.3-.1-.6-.3-.8-.6l-.6-1c-.5.7-1.2 1.3-2 1.7-.8.4-1.9.6-3.3.6l-2.2-.2a4 4 0 0 1-1.9-.8c-.6-.5-1-1.1-1.4-1.8-.3-.8-.5-1.8-.5-3 0-2.2.6-3.8 1.9-5 1.3-1.1 3-1.7 5.2-1.7h3.2v-2.2a3 3 0 0 0-.8-2.1c-.5-.6-1.2-.8-2.2-.8a26.6 26.6 0 0 0-5.8.8v-2.9a47 47 0 0 1 2.5-.6c.9-.2 1.9-.2 2.9-.2 1.3 0 2.4.1 3.2.4.9.2 1.6.6 2.1 1.2.5.5.9 1.2 1.1 2 .2.8.4 1.8.4 3V33c0 .4.1.7.4 1 .3.2.7.3 1.4.3V37h-1.3zm-7.5-2.6a4 4 0 0 0 1.7-.3c.5-.2.8-.5 1.1-.8.3-.3.5-.6.6-1l.2-.8v-4.2h-3.4l-1.3.2c-.4.1-.8.4-1.1.7-.3.3-.6.7-.8 1.2-.2.5-.3 1-.3 1.7 0 1.3.3 2.1.8 2.6.6.5 1.5.7 2.5.7zm13.7 2.6V17h2.8l.2 2c.5-.7 1-1.3 1.7-1.7.7-.4 1.5-.6 2.5-.6l1.2.1.9.1v3.6l-1.2-.2-1.2-.1a3 3 0 0 0-1.7.4c-.4.3-.8.6-1.1 1.1-.3.4-.5.9-.6 1.5l-.2 1.6V37h-3.3zm35.8-.4l-.9.2-1.2.2-1.2.2-1.1.1c-1.4 0-2.7-.2-3.7-.6a5 5 0 0 1-2.5-2.3 14 14 0 0 1-1.4-4.5 50.5 50.5 0 0 1 .1-14.5c.3-1.8.9-3.2 1.6-4.2.7-1 1.6-1.7 2.7-2a14 14 0 0 1 5.8-.3l1.9.4v3l-2.3-.4-2.4-.2c-.7 0-1.4.1-1.9.4-.5.2-1 .8-1.3 1.6-.3.8-.6 1.9-.8 3.4-.2 1.4-.2 3.4-.2 5.8 0 2.5.1 4.5.3 6 .2 1.5.5 2.6.8 3.4.4.8.8 1.3 1.4 1.6.5.2 1.2.4 1.9.4l2.6-.2 2.1-.4v2.9zm18.1.4l-.7-.1-.8-.3c-.3-.1-.6-.3-.8-.6l-.6-1c-.5.7-1.2 1.3-2 1.7-.8.4-1.9.6-3.3.6l-2.2-.2a4 4 0 0 1-1.9-.8c-.6-.5-1-1.1-1.4-1.8-.3-.8-.5-1.8-.5-3 0-2.2.6-3.8 1.9-5s3-1.7 5.2-1.7h3.2v-2.2a3 3 0 0 0-.8-2.1c-.5-.6-1.2-.8-2.2-.8a26.6 26.6 0 0 0-5.8.8v-2.9a47 47 0 0 1 2.5-.6c.9-.2 1.9-.2 2.9-.2 1.3 0 2.4.1 3.2.4.9.2 1.6.6 2.1 1.2.5.5.9 1.2 1.1 2 .2.8.4 1.8.4 3V33c0 .4.1.7.4 1 .3.2.7.3 1.4.3V37h-1.3zm-7.5-2.6a4 4 0 0 0 1.7-.3c.5-.2.8-.5 1.1-.8.3-.3.5-.6.6-1l.2-.8v-4.2h-3.4l-1.3.2c-.4.1-.8.4-1.1.7-.3.3-.6.7-.8 1.2-.2.5-.3 1-.3 1.7 0 1.3.3 2.1.8 2.6.6.5 1.4.7 2.5.7zm13.7 9.4V17h2.8l.3 1.7c1.3-1.3 2.9-2 4.7-2 2.3 0 4 .8 4.9 2.3.9 1.5 1.4 3.7 1.4 6.7 0 2.2-.1 4-.4 5.5a10 10 0 0 1-1.4 3.6c-.7.9-1.5 1.5-2.6 1.9-1.1.4-2.4.6-4 .6h-1.2l-1-.1v6.7h-3.5zm7.2-24.2c-.6 0-1.1.1-1.6.3-.5.2-.9.5-1.2.8l-.8 1.1c-.2.4-.3.7-.3 1.1v11.2l1.1.1h1.6c1 0 1.7-.2 2.3-.5.6-.3 1.1-.9 1.4-1.6.3-.7.6-1.5.7-2.6a37 37 0 0 0 0-6.8c-.1-.8-.3-1.5-.6-2s-.6-.9-1.1-1l-1.5-.1zm23.6 11.6c0 2.2-.6 3.8-1.8 4.7a8 8 0 0 1-4.9 1.4l-2.9-.2-1.9-.4v-2.9l.9.2 1.3.2 1.4.2 1.5.1 1.3-.2c.4-.2.7-.4.9-.7l.5-1 .2-1.1c0-1-.2-1.7-.5-2.1-.3-.5-1-.8-2-1-2.1-.4-3.5-1-4.4-1.9a5.2 5.2 0 0 1-1.2-3.6c0-1.1.2-2 .5-2.8.3-.8.8-1.4 1.4-1.9.6-.5 1.3-.8 2.1-1a11 11 0 0 1 5.3-.1l1.7.4v2.9l-2-.5c-.6-.2-1.5-.2-2.6-.2-.6 0-1.1.1-1.5.3-.4.2-.7.4-.9.7-.2.3-.4.6-.4.9l-.1 1.1c0 1.5.9 2.3 2.6 2.6 2.1.3 3.5 1 4.4 2 .7.8 1.1 2.1 1.1 3.9z"/>
  <path fill="none" stroke="#F4F4F4" d="M0 56h371" stroke-width="2" vectoreffect="non-scaling-stroke"/>
  <path fill="#C64028" d="M0 166h367v44H0z"/>
  <path fill="#060809" d="M18.5 187.6l-.2-4.4a7 7 0 0 0-.6-2.5c-.2-.6-.5-.9-.9-1-.4-.2-.8-.2-1.4-.2h-1.6l-.6.1V196l.5.1.7.1h.9c.5 0 1-.1 1.4-.4.4-.3.7-.7 1-1.3.3-.7.4-1.5.6-2.6s.2-2.6.2-4.3zm4.9-.2a36 36 0 0 1-.5 6.4c-.4 1.7-.9 3-1.6 4-.7 1-1.6 1.6-2.6 2-1 .4-2.2.6-3.6.6l-2.1-.1-2.2-.1-2.4-.2v-24.5l2.4-.2 2-.1 1.8-.1c1.4 0 2.6.2 3.7.5a5 5 0 0 1 2.7 1.8c.7.9 1.3 2.1 1.7 3.7.5 1.6.7 3.7.7 6.3zm4.2 12.6v-24.5h12.5v3.8h-7.7v6.2h6.9v3.7h-6.9v7h7.7v3.8H27.6zm28.4-7.3c0 1.6-.2 3-.6 4-.4 1-1 1.7-1.7 2.3-.7.5-1.6.9-2.6 1.1-1 .2-2.1.2-3.2.2h-1.3l-1.4-.1-1.3-.2-1-.2v-4.2l1 .2 1.2.2 1.3.1h1.2c1.1 0 2-.2 2.6-.7.7-.5 1-1.3 1-2.4a7 7 0 0 0-.2-1.6c-.1-.4-.3-.8-.6-1.1l-.9-.7a5 5 0 0 0-1.3-.4c-2-.4-3.4-1.2-4.2-2.3a8.1 8.1 0 0 1-1.2-4.8c0-1.3.2-2.4.5-3.3a6 6 0 0 1 1.6-2.2c.7-.6 1.6-1 2.6-1.2 1.1-.3 2.2-.4 3.6-.4h1.1l1.2.1 1.1.2.9.2v4.1l-1.1-.2-1.3-.2-1.3-.1h-1.1c-1 0-1.8.2-2.3.6-.5.4-.8 1-.8 1.9l.1 1.4c.1.4.2.6.5.9l.8.5 1.4.4a9 9 0 0 1 2.3.8c.7.3 1.3.8 1.8 1.4.5.6.9 1.3 1.2 2.2.2 1.1.4 2.2.4 3.5zm3.1 7.3v-24.5h12.5v3.8h-7.7v6.2h6.9v3.7h-6.9v7h7.7v3.8H59.1zm28-.3l-.8.2-1.2.1-1.2.1-1 .1c-1.3 0-2.5-.2-3.5-.5s-1.8-1-2.5-1.9c-.6-1-1.1-2.3-1.4-3.9a38.2 38.2 0 0 1 0-12.9c.4-1.6.9-2.8 1.6-3.7.7-.8 1.6-1.4 2.6-1.6a12.5 12.5 0 0 1 4.4-.3l1.1.1 1.1.2.7.1v4.2c-.6-.1-1.3-.3-2.1-.3l-2.1-.2c-.5 0-1 .1-1.3.3-.4.2-.6.5-.9 1.1a44.2 44.2 0 0 0-.1 13.7c.2.6.5 1 .9 1.2.4.2.8.3 1.4.3a19.5 19.5 0 0 0 4.2-.5v4.1zm14.1.3v-10.4h-5.5V200H91v-24.5h4.8v10.1h5.5v-10.1h4.8V200h-4.9zm16.8-21.4l-2.1 11.6h4.3l-2.2-11.6zm4.1 21.4l-1.1-5.7h-5.8L114 200h-5l5.6-24.5h7.1L127 200h-4.9zm17.8-7.5l-.2-1.6-.7-1.1a2 2 0 0 0-1-.6l-1.1-.2h-2.1v6.9h.8l.8.1h.9c1 0 1.7-.3 2-.9.4-.6.6-1.5.6-2.6zm-.5-10.4c0-.9-.2-1.6-.6-2.1-.4-.5-.9-.7-1.6-.7h-1.6l-.7.1v5.7h1.9c1 0 1.7-.2 2.1-.7.3-.4.5-1.2.5-2.3zm5.4 10.4c0 1.6-.2 3-.6 4a6 6 0 0 1-1.6 2.4c-.7.6-1.5.9-2.5 1.2-1 .2-2 .3-3.1.3h-2.3l-2.2-.1-2.4-.2v-24.5l2.3-.2 2.1-.1h2c1.4 0 2.6.1 3.6.4 1 .3 1.8.7 2.4 1.2.6.5 1.1 1.2 1.3 2.1.3.8.4 1.8.4 3a6.2 6.2 0 0 1-1 3.6c-.3.4-.6.7-1 .9l-1.1.5c.5 0 .9.2 1.4.5.5.2.9.6 1.2 1.1.3.4.6 1 .8 1.7.1.4.3 1.2.3 2.2zm4.3 7.5v-24.5h4.8v20.4h7.1v4.1h-11.9zm14.7 0v-24.5h12.5v3.8h-7.7v6.2h6.9v3.7h-6.9v7h7.7v3.8h-12.5zm28.4-7.3c0 1.6-.2 3-.6 4-.4 1-1 1.7-1.7 2.3-.7.5-1.6.9-2.6 1.1-1 .2-2.1.2-3.2.2h-1.3l-1.4-.1-1.3-.2-1-.2v-4.2l1 .2 1.2.2 1.3.1h1.2c1.1 0 2-.2 2.6-.7.7-.5 1-1.3 1-2.4a7 7 0 0 0-.2-1.6c-.1-.4-.3-.8-.6-1.1l-.9-.7a5 5 0 0 0-1.3-.4c-2-.4-3.4-1.2-4.2-2.3a8.1 8.1 0 0 1-1.2-4.8c0-1.3.2-2.4.5-3.3a6 6 0 0 1 1.6-2.2c.7-.6 1.6-1 2.6-1.2 1.1-.3 2.2-.4 3.6-.4h1.1l1.2.1 1.1.2.9.2v4.1l-1.1-.2-1.3-.2-1.3-.1h-1.1c-1 0-1.8.2-2.3.6-.5.4-.8 1-.8 1.9l.1 1.4c.1.4.2.6.5.9l.8.5 1.4.4a9 9 0 0 1 2.3.8c.7.3 1.3.8 1.8 1.4.5.6.9 1.3 1.2 2.2.3 1.1.4 2.2.4 3.5z"/>
</svg>