<svg xmlns="http://www.w3.org/2000/svg" viewBox="0 0 391.5 210">
  <path fill="#F4F4F4" d="M38.5 112.9l1-.2h-2l1 .2zm-12.1 57.3l-1-.2-.3 1.2h1.2v-1zm24.4 0v1H52l-.3-1.2-.9.2zm8.1 37.8l-1 .2.2.8h.8v-1zm-5.7-26.6l1-.2-.2-.8h-.8v1zm-29.2 0v-1h-.8l-.2.8 1 .2zM18.1 208v1h.8l.2-.8-1-.2zm-13.3 0l-1-.2-.3 1.2h1.3v-1zm25.3-105v-1h-.8l-.2.8 1 .2zm17.2 0l1-.2-.2-.8h-.8v1zm24.9 105v1h1.3l-.3-1.2-1 .2zm-34.7-95.3L25.4 170l2 .4 12.1-57.3-2-.4zm-11.1 58.5h24.4v-2H26.4v2zm25.4-1.2l-12.3-57.3-2 .4 12.3 57.3 2-.4zm8.1 37.8l-5.7-26.5-2 .4 5.7 26.6 2-.5zm-6.7-27.4H24v2h29.2v-2zm-30.2.8l-5.9 26.6 2 .4 5.9-26.6-2-.4zM18.1 207H4.8v2h13.4v-2zm-12.4 1.2l25.4-105-1.9-.5-25.3 105 1.8.5zM30.1 104h17.2v-2H30.1v2zm16.3-.8l24.9 105 1.9-.5-24.9-105-1.9.5zM72.2 207H58.9v2h13.3v-2zm62 .7l-.2 1 .2-1zm-3.1-1.1l.4-.9-.4.9zm-3.2-2.2l-.7.7.7-.7zm-2.2-3.8l.9-.4-.7-1.7-1.1 1.5.9.6zm-7.5 6.3l.4.9-.4-.9zm-20.4 1.2l.2-1-.2 1zm-7.2-3.1l-.6.8.6-.8zm-5.2-6.9l-.9.4.9-.4zm5.2-29.9l.7.7-.7-.7zm31.5-6.4v1h1v-1h-1zm-2.9-15.9l-.8.7.8-.7zm-19.6-2.4l.2 1-.2-1zm-10.5 2.4h-1v1.3l1.3-.4-.3-.9zm0-11l-.3-1-.7.2v.8h1zm9.4-2l-.2-1 .2 1zm22.9.5l-.3 1 .3-1zm7.8 4.5l-.7.7.7-.7zm4.2 7.7l-1 .2 1-.2zm2.9 50.7l-.7.7.7-.7zm5.1 1.2h1v-1h-1v1zm0 10.5v1h1v-1h-1zm-26.1-10.9l.4.9-.4-.9zm4-2.9l.7.7-.7-.7zm2.1-3.6l-.9-.3.9.3zm.7-18.6h1v-1h-1v1zm-17.4.8l-.3-1 .3 1zm-4.1 2.5l.7.7-.7-.7zm-3 4.3l-.9-.4.9.4zm2.1 16.1l-.7.8.7-.8zm37.2 11.3l-2.5-.3-.4 2 2.9.3v-2zm-2.5-.3c-.9-.2-1.9-.5-2.9-1l-.8 1.8c1.2.5 2.3.9 3.4 1.1l.3-1.9zm-2.9-1a10 10 0 0 1-2.9-2l-1.4 1.4a13 13 0 0 0 3.4 2.5l.9-1.9zm-2.9-2c-.8-.9-1.5-2-2.1-3.5l-1.9.7c.6 1.6 1.4 2.9 2.4 4l1.6-1.2zm-3.8-3.6a18.9 18.9 0 0 1-7.1 6l.9 1.8c3.2-1.6 5.9-3.8 7.9-6.6l-1.7-1.2zm-7.1 5.9c-2.9 1.3-6.9 2-11.9 2v2c5.2 0 9.4-.7 12.7-2.2l-.8-1.8zm-11.9 2.1c-2.6 0-5.3-.3-7.9-.9l-.4 2c2.8.6 5.5.9 8.3.9v-2zm-7.9-.9c-2.6-.5-4.8-1.5-6.8-3l-1.2 1.6c2.2 1.7 4.8 2.8 7.6 3.3l.4-1.9zm-6.7-3a17 17 0 0 1-4.8-6.5l-1.8.8c1.4 3 3.1 5.5 5.4 7.3l1.2-1.6zm-4.8-6.5a26.8 26.8 0 0 1-1.9-10.8h-2c0 4.7.7 8.6 2 11.7l1.9-.9zm-1.9-10.8c0-7.9 2.3-13.8 6.7-17.9l-1.3-1.5c-5 4.5-7.4 11-7.4 19.3h2zm6.7-17.9a27 27 0 0 1 19-6.2v-2a29 29 0 0 0-20.3 6.7l1.3 1.5zm19-6.2h11.9v-2h-11.9v2zm12.9-1v-8.1h-2v8.1h2zm0-8.1c0-3.4-1-6.3-3.1-8.5l-1.5 1.4a9.8 9.8 0 0 1 2.6 7.1h2zm-3.1-8.5c-2.1-2.4-5.2-3.5-9.2-3.5v2c3.6 0 6.1 1 7.6 2.8l1.6-1.3zm-9.2-3.4c-4.3 0-8.1.3-11.4.8l.3 2c3.1-.5 6.8-.7 11.1-.7v-2.1zm-11.4.7c-3.2.5-6.8 1.3-10.6 2.4l.6 1.9c3.8-1.1 7.2-1.9 10.4-2.4l-.4-1.9zm-9.3 3.4V135h-2v10.9h2zm-.8-10c2.8-.8 5.9-1.5 9.3-2.1l-.3-2c-3.5.6-6.7 1.3-9.6 2.1l.6 2zm9.4-2.1c3.4-.6 7-.9 10.6-.9v-2c-3.8 0-7.4.3-11 .9l.4 2zm10.6-.9c4.8 0 8.8.5 11.9 1.5l.6-1.9c-3.3-1-7.5-1.5-12.4-1.5v1.9zm11.9 1.5c3.2.9 5.6 2.3 7.3 4.2l1.5-1.3a16.4 16.4 0 0 0-8.3-4.8l-.5 1.9zm7.3 4.3c1.9 1.9 3.2 4.2 3.9 7.2l1.9-.5c-.8-3.2-2.3-6-4.5-8.1l-1.3 1.4zm4 7.2a38 38 0 0 1 1.3 10.8h2c0-4.4-.5-8.2-1.4-11.4l-1.9.6zm1.3 10.8v36h2v-36h-2zm0 36c0 1.7.6 3.2 1.8 4.3l1.3-1.5a3.6 3.6 0 0 1-1.2-2.9h-1.9zm1.9 4.4c1.3 1 3.3 1.4 5.7 1.4v-2c-2.3 0-3.8-.4-4.5-1l-1.2 1.6zm4.7.4V208h2v-10.5h-2zm1 9.5h-4.5v2h4.5v-2zm-32.6-7.8c2.7 0 5-.4 6.9-1.3l-.9-1.8c-1.5.7-3.5 1.1-6 1.1v2zm6.9-1.2c1.8-.8 3.3-1.9 4.4-3.1l-1.5-1.3c-.9 1-2.1 1.9-3.7 2.6l.8 1.8zm4.4-3.2c1.1-1.3 1.8-2.6 2.3-3.9l-1.9-.6c-.4 1.1-1 2.2-1.9 3.3l1.5 1.2zm2.3-3.9c.4-1.2.7-2.3.7-3.2h-2l-.5 2.5 1.8.7zm.7-3.1V172h-2v15.8h2zm-1-16.8h-12.6v2h12.6v-2zm-12.7 0a18 18 0 0 0-5.1.8l.6 1.9c1.5-.5 3-.7 4.5-.7v-2zm-5.1.8c-1.7.6-3.1 1.5-4.4 2.8l1.4 1.4a8.5 8.5 0 0 1 3.7-2.3l-.7-1.9zm-4.4 2.8a13.5 13.5 0 0 0-3.2 4.7l1.8.8c.8-1.7 1.7-3 2.8-4l-1.4-1.5zm-3.2 4.7c-.8 1.9-1.1 4.1-1.1 6.7h2c0-2.4.3-4.4 1-5.9l-1.9-.8zm-1.1 6.6c0 4.8 1.1 8.4 3.5 10.5l1.3-1.5c-1.8-1.5-2.8-4.4-2.8-9h-2zm3.5 10.6c2.3 1.9 5.7 2.8 9.8 2.8v-2c-3.9 0-6.7-.8-8.5-2.3l-1.3 1.5zM15.2 29c0 1.7-.2 3-.6 4.1-.4 1.1-.9 1.9-1.6 2.5s-1.5 1-2.5 1.3c-1 .2-2 .4-3.2.4L5 37.1l-2.4-.4v-2.9l2.2.4 2.9.2c1.4 0 2.4-.4 3-1.2.6-.8 1-2 1-3.7l-.2-2.4c-.1-.7-.3-1.2-.6-1.6l-1-1-1.5-.5c-1.1-.2-2.1-.5-2.8-.9s-1.4-.9-1.9-1.4c-.5-.6-.8-1.3-1.1-2.2-.2-.9-.3-1.9-.3-3 0-1.4.2-2.6.6-3.6A6.2 6.2 0 0 1 7 9.1c.9-.3 2-.4 3.2-.4l2.2.2 2.1.4v2.9l-2.3-.4-2.3-.2-1.5.2c-.5.2-.9.4-1.2.8-.5.4-.8.8-1 1.4a11.5 11.5 0 0 0-.2 4c.1.5.2 1 .4 1.3.2.3.6.6 1 .8l1.6.5c1 .2 1.8.5 2.6.8.8.3 1.4.8 2 1.5.6.6 1 1.4 1.3 2.4.2 1 .3 2.3.3 3.7zm5.3 8V9h3.4v9.5c.6-.6 1.3-1 2-1.3a8.5 8.5 0 0 1 5.5-.1c.8.3 1.4.7 1.8 1.3a5 5 0 0 1 1 2.2c.2.9.3 1.9.3 3.2V37h-3.4V23.4a5 5 0 0 0-.6-2.8c-.4-.6-1.3-1-2.6-1-.6 0-1.1.1-1.6.3l-1.3.8-.8 1.1c-.2.4-.3.7-.3 1.1v14h-3.4zm33.3 0l-.7-.1-.8-.3c-.3-.1-.6-.3-.8-.6l-.6-1c-.5.7-1.2 1.3-2 1.7-.8.4-1.9.6-3.3.6l-2.2-.2a4 4 0 0 1-1.9-.8c-.6-.5-1-1.1-1.4-1.8-.3-.8-.5-1.8-.5-3 0-2.2.6-3.8 1.9-5 1.3-1.1 3-1.7 5.2-1.7h3.2v-2.2a3 3 0 0 0-.8-2.1c-.5-.6-1.2-.8-2.2-.8a26.6 26.6 0 0 0-5.8.8v-2.9a47 47 0 0 1 2.5-.6c.9-.2 1.9-.2 2.9-.2 1.3 0 2.4.1 3.2.4.9.2 1.6.6 2.1 1.2.5.5.9 1.2 1.1 2 .2.8.4 1.8.4 3V33c0 .4.1.7.4 1 .3.2.7.3 1.4.3V37h-1.3zm-7.5-2.6a4 4 0 0 0 1.7-.3c.5-.2.8-.5 1.1-.8.3-.3.5-.6.6-1l.2-.8v-4.2h-3.4l-1.3.2c-.4.1-.8.4-1.1.7-.3.3-.6.7-.8 1.2-.2.5-.3 1-.3 1.7 0 1.3.3 2.1.8 2.6a4 4 0 0 0 2.5.7zM60 37V17h2.8l.2 2c.5-.7 1-1.3 1.7-1.7.7-.4 1.5-.6 2.5-.6l1.2.1.9.1v3.6l-1.2-.2-1.2-.1a3 3 0 0 0-1.7.4c-.4.3-.8.6-1.1 1.1-.3.4-.5.9-.6 1.5l-.2 1.6V37H60zm15.8-8.8c0 1.3.1 2.4.3 3.2.2.8.4 1.4.7 1.9.3.5.6.8 1 .9l1.4.2 3-.2 2.3-.4v2.9l-2.4.4-2.5.2c-1.1 0-2.2-.1-3.1-.4a4 4 0 0 1-2.2-1.4 6.9 6.9 0 0 1-1.4-3.1 26 26 0 0 1-.1-10.1c.3-1.3.8-2.4 1.4-3.2.6-.8 1.4-1.4 2.3-1.8a8 8 0 0 1 3.2-.6c2.3 0 3.9.8 4.9 2.3 1 1.5 1.5 3.6 1.5 6.2v3H75.8zm3.8-8.6c-.6 0-1.2.1-1.6.3-.5.2-.8.5-1.1 1l-.7 1.8c-.2.7-.3 1.7-.3 2.8h7v-1.1c0-1.5-.2-2.7-.7-3.6-.6-.8-1.4-1.2-2.6-1.2zm37.2-2.7c0 2.1-.3 3.8-.9 5.1a5 5 0 0 1-3.1 2.8l5.5 12.2h-3.8l-5.1-11.6h-3.6V37h-3.5V9l2.1-.2 2.2-.1h2.5c1.5 0 2.8.2 3.8.6a6 6 0 0 1 2.4 1.6c.6.7 1 1.6 1.2 2.6.2 1 .3 2.2.3 3.4zm-3.6.3c0-1.9-.3-3.4-.8-4.2-.5-.9-1.5-1.3-2.9-1.3l-2.7.1-1 .1v10.6h3.8a6 6 0 0 0 1.5-.2c.5-.2.8-.4 1.2-.8.3-.4.6-.9.8-1.6l.1-2.7zm12.3 11c0 1.3.1 2.4.3 3.2.2.8.4 1.4.7 1.9s.6.8 1 .9l1.4.2 3-.2 2.3-.4v2.9l-2.4.4-2.5.2c-1.1 0-2.2-.1-3.1-.4-.9-.2-1.6-.7-2.2-1.4s-1.1-1.7-1.4-3.1a26 26 0 0 1-.1-10.1c.3-1.3.8-2.4 1.4-3.2s1.4-1.4 2.3-1.8a8 8 0 0 1 3.2-.6c2.3 0 3.9.8 4.9 2.3 1 1.5 1.5 3.6 1.5 6.2v3h-10.3zm3.8-8.6c-.6 0-1.2.1-1.6.3-.5.2-.8.5-1.1 1l-.7 1.8c-.2.7-.3 1.7-.3 2.8h7v-1.1c0-1.5-.2-2.7-.7-3.6-.6-.8-1.4-1.2-2.6-1.2zM156 24c0 2.3-.7 4-2 5.1-1.3 1.1-3.3 1.6-6.1 1.6l-2.6-.2c-.3.6-.4 1.2-.4 1.7l.2 1.1 2.7-.2 2.3-.1 2.6.2c.8.2 1.5.5 2.1.9.6.4 1 1 1.4 1.8.3.8.5 1.8.5 3 0 1-.2 1.9-.6 2.6-.4.7-.9 1.3-1.6 1.8-.7.5-1.5.8-2.4 1-.9.2-1.9.3-3 .3l-1.8-.1-2.2-.2-2.1-.2-1.5-.2V41l1.7.2 2 .2 2.2.1 2 .1c1.4 0 2.3-.3 2.9-.8.6-.5.9-1.1.9-1.9 0-1-.2-1.8-.7-2.2-.5-.5-1.3-.7-2.6-.7h-1.4l-1.8.1-1.8.1-1.5.2c-.5-.4-.9-1-1.2-1.7a5.3 5.3 0 0 1-.2-4l.8-1.4a4.2 4.2 0 0 1-1.6-2.3c-.3-.9-.4-2.1-.4-3.4 0-1.4.2-2.6.7-3.5s1.1-1.6 1.8-2.1c.8-.5 1.7-.9 2.6-1 1-.2 2.1-.3 3.2-.3 1.2 0 2.2.2 3.1.6l5.8-.3v3l-2.8-.1c.5 1.1.8 2.5.8 4.1zm-3.4-.3l-.2-1.6c-.1-.5-.3-.9-.6-1.3s-.7-.7-1.3-.9c-.5-.2-1.2-.4-2-.4-1.7 0-2.9.4-3.6 1.1-.6.7-1 1.8-1 3.4l.2 1.6c.1.5.3.9.6 1.2.3.3.7.6 1.2.8a5 5 0 0 0 1.9.3 9 9 0 0 0 1.8-.2c.6-.1 1.1-.3 1.5-.6.4-.3.8-.8 1-1.3a4 4 0 0 0 .5-2.1zM172.7 37l-.3-1.6c-.6.6-1.2 1.1-2 1.4-.7.3-1.6.5-2.6.5-1.1 0-2.1-.1-2.8-.4-.7-.3-1.3-.7-1.8-1.3a7 7 0 0 1-.9-2.3c-.2-.9-.3-2-.3-3.2V17h3.4v13.4l.1 1.7.4 1.2c.2.3.5.6.9.8.4.2.9.2 1.5.2s1.1-.1 1.5-.3c.5-.2.8-.5 1.2-.8l.8-1 .3-1.1V17h3.4v20h-2.8zm15-.2l-1 .2-1.4.1a5 5 0 0 1-1.2-.2c-.4-.1-.8-.4-1.1-.7-.3-.3-.6-.8-.8-1.4-.2-.6-.3-1.4-.3-2.3V9h3.4v23.3l.2 1.5c.2.3.5.4 1.1.4l.6-.1.5-.1v2.8zm17.8.2l-.7-.1-.8-.3c-.3-.1-.6-.3-.8-.6l-.6-1c-.5.7-1.2 1.3-2 1.7-.8.4-1.9.6-3.3.6l-2.2-.2a4 4 0 0 1-1.9-.8c-.6-.5-1-1.1-1.4-1.8-.3-.8-.5-1.8-.5-3 0-2.2.6-3.8 1.9-5 1.3-1.1 3-1.7 5.2-1.7h3.2v-2.2a3 3 0 0 0-.8-2.1c-.5-.6-1.2-.8-2.2-.8a26.6 26.6 0 0 0-5.8.8v-2.9a47 47 0 0 1 2.5-.6c.9-.2 1.9-.2 2.9-.2 1.3 0 2.4.1 3.2.4.9.2 1.6.6 2.1 1.2.5.5.9 1.2 1.1 2 .2.8.4 1.8.4 3V33c0 .4.1.7.4 1 .3.2.7.3 1.4.3V37h-1.3zm-7.5-2.6a4 4 0 0 0 1.7-.3c.5-.2.8-.5 1.1-.8.3-.3.5-.6.6-1l.2-.8v-4.2h-3.4l-1.3.2c-.4.1-.8.4-1.1.7-.3.3-.6.7-.8 1.2-.2.5-.3 1-.3 1.7 0 1.3.3 2.1.8 2.6.6.5 1.5.7 2.5.7zm13.7 2.6V17h2.8l.2 2c.5-.7 1-1.3 1.7-1.7.7-.4 1.5-.6 2.5-.6l1.2.1.9.1v3.6l-1.2-.2-1.2-.1a3 3 0 0 0-1.7.4c-.4.3-.8.6-1.1 1.1-.3.4-.5.9-.6 1.5l-.2 1.6V37h-3.3z"/>
  <path fill="none" stroke="#F4F4F4" stroke-width="2" d="M2 56h350" vectoreffect="non-scaling-stroke"/>
</svg>