<svg xmlns="http://www.w3.org/2000/svg" viewBox="0 0 783 270">
  <path fill="#F4F4F4" d="M13.6 8.5c6.4 0 9.6 3 9.6 9 0 4.4-1.9 7.2-5.8 8.3v.2l6.5 11h-5.5L13 26.4l-4.4-.2V37H3.9l.2-13.1L4 9.1c2.9-.4 6.2-.6 9.6-.6zm-5 13.8c2.1.2 3.9.4 5.5.4s2.7-.4 3.3-1.2c.6-.8 1-2.2 1-4.2 0-2.1-.3-3.4-1-4.2-.6-.6-1.7-.9-3.5-.9-1.7 0-3.5.1-5.3.4v9.7zM29.9 29V13.6h4.6v14.5c0 2.6.2 4.1.5 4.6.4.5 1.1.7 2 .7 1.6 0 3.6-.6 6-1.9V13.6h4.6V37h-3l-.6-2.3h-.2l-.9.5-1.2.6-1.2.6-1.5.6c-1.1.3-2.1.5-3 .5-4.1 0-6.1-2.8-6.1-8.5zm31.7 8.5c-2.3 0-4.2-1-5.6-3-1.4-2-2.1-5-2.1-8.9 0-5.5 1.3-9.2 3.9-11.1a8 8 0 0 1 4.9-1.4c1.3 0 2.9.3 4.9.8V6.7h4.6V37h-3l-.5-2.4h-.2L66.6 36c-.5.4-1.2.7-2.2 1-.9.3-1.8.5-2.8.5zM67.7 18c-1.6-.7-3.2-1-4.7-1s-2.5.3-2.9.8c-.9 1.1-1.3 3.7-1.3 7.8s.5 6.5 1.5 7.4c.3.3.9.5 1.8.5a10 10 0 0 0 4.8-1.3l.8-.4V18zm16.5 19.5c-2.1 0-3.7-.6-5-1.9-1.2-1.3-1.8-3.2-1.8-5.8 0-2.6.8-4.5 2.5-5.6 1.7-1.2 4.1-1.8 7.2-1.8h3.8c0-2.6-.2-4.1-.6-4.7-.4-.6-1.2-.8-2.4-.8s-2.5.1-4 .4c-1.5.3-3 .7-4.7 1.4L78 15.3l1.5-.6c.6-.3 1.8-.6 3.5-1s3.3-.6 4.7-.6c5.3 0 8 2.9 8 8.6V37h-3l-.7-2.5h-.2l-1.2.9a15.3 15.3 0 0 1-6.4 2.1zM91 26.2c-1.1-.2-2.6-.2-4.5-.2s-3 .2-3.5.7c-.6.5-.9 1.6-.9 3.1s.2 2.5.6 3.1c.4.5 1 .8 1.9.8.9 0 1.8-.1 2.9-.4 1.1-.3 2.2-.8 3.5-1.4v-5.7zm30.6-17.7c5.7 0 8.6 2.6 8.6 7.7 0 1.3-.2 2.2-.5 2.9l-.8 1.4a3 3 0 0 1-.8.8c-.5.4-1.1.7-1.8 1v.2c3.1.8 4.7 2.9 4.7 6.2 0 3.4-.9 5.8-2.8 7.2a11 11 0 0 1-6.2 1.7c-2.1 0-5.3-.2-9.5-.7l.2-12.9-.3-15c3.5-.3 6.6-.5 9.2-.5zm-4.5 25c1.9.2 3.6.4 5.1.4 1.5 0 2.5-.4 3-1.2.5-.8.8-2.1.8-3.9 0-1.8-.4-3-1.2-3.6-.8-.6-1.9-.9-3.3-.9H117v9.2zm0-12.9h4.8c1.3 0 2.2-.3 2.7-1 .5-.6.8-1.7.8-3.3 0-1.6-.3-2.7-.9-3.3-.6-.6-1.6-1-3-1l-4.4.2v8.4zm38.3 4.7c0 4-.7 7-2.2 9.1-1.4 2.1-3.9 3.1-7.3 3.1s-5.9-1-7.3-3.1c-1.4-2.1-2.2-5.1-2.2-9.1s.7-7 2.2-9.1c1.5-2.1 3.9-3.1 7.3-3.1s5.9 1 7.3 3.1c1.5 2.1 2.2 5.1 2.2 9.1zm-13.2 6.9c.7 1.1 1.9 1.6 3.8 1.6 1.8 0 3.1-.5 3.7-1.6.6-1.1 1-3.4 1-6.9 0-3.5-.3-5.8-1-6.9s-1.9-1.6-3.7-1.6c-1.8 0-3.1.5-3.8 1.6-.6 1.1-1 3.4-1 6.9.1 3.5.4 5.8 1 6.9zm19 4.8V6.7h4.6V37h-4.6zm18.1.5c-2.3 0-4.2-1-5.6-3-1.4-2-2.1-5-2.1-8.9 0-5.5 1.3-9.2 3.9-11.1a8 8 0 0 1 4.9-1.4c1.3 0 2.9.3 4.9.8V6.7h4.6V37h-3l-.5-2.4h-.2l-1.9 1.4c-.5.3-1.2.7-2.2 1-1 .3-1.9.5-2.8.5zm6-19.5c-1.6-.7-3.2-1-4.7-1s-2.5.3-2.9.8c-.9 1.1-1.3 3.7-1.3 7.8s.5 6.5 1.5 7.4c.3.3.9.5 1.8.5a10 10 0 0 0 4.8-1.3l.8-.4V18zM0 267h26l-1.1-67.9h52v-21.8h-52l.9-43.5 58.2.6V111H0v156zM140.3 110.9l.9 84.4-.9 71.9h26.2l-.9-87 .9-69.2h-26.2zM234.3 267h84v-22.8l-58 .4-1.1-45.7h53.6v-22.1h-53.6l1.1-43.7 58 .7V111h-84v156zM452.8 204.5c21.7-6.1 32.5-21.5 32.5-46.2.1-33.5-17.8-50.2-53.5-50.2-19.1 0-37 1.1-53.6 3.1l.7 82.6-1.2 73.3h26.2v-59.8l24.4.9 30.2 58.9H489l-36.2-61.4v-1.2zm-18.3-17.7a285 285 0 0 1-30.8-2l.2-54.3c10.1-1.3 20-2 29.7-2s16.1 1.6 19.2 4.9c3.5 4.1 5.3 11.7 5.3 23.1s-1.7 19.3-5.2 23.7c-3.4 4.4-9.6 6.6-18.4 6.6zM572.5 110.9l-44.2 156h26.9l10-38.4h46.2l9.8 38.4h26.9l-44-156h-31.6zm-2.5 95.8l17.6-72.8h1.3l17.6 72.8H570zM778.8 202.7c-1-2.4-2.7-4.7-4.9-7.1a42.5 42.5 0 0 0-12.7-10.3c-3-1.7-5.3-3-7-3.8l-7.5-3.5c-3.4-1.5-7.7-3.5-13.1-6.2a70.2 70.2 0 0 1-14.2-8.9 17.3 17.3 0 0 1-6.1-14.1c0-6.1 1.6-10.4 4.9-13.2 3.2-2.7 9.2-4.1 17.7-4.1s20.9 1.6 37 4.7l4.2-21.9-6-1.6c-11.4-3.3-23-4.9-34.7-4.9-16 0-28.4 4.1-37 12.2a41 41 0 0 0-13 31.2c0 6.1 1.3 12.4 3.8 18.7.9 2.4 2.5 4.7 4.8 7.1l5.3 5.3c1.3 1.2 3.5 2.7 6.8 4.5l6.8 3.7c1.3.7 6.2 3 14.9 6.9 8.7 3.9 15.5 8 20.3 12.2 4.9 4.2 7.3 9.3 7.3 15.4 0 14.3-6.5 21.4-19.6 21.4-14.4 0-30.1-3.8-47.1-11.6l-2 5.5-2.2 6.3-3.4 9.7 6.9 3.6c4.5 2.2 10.9 4.5 19.2 6.7s16.4 3.4 24.1 3.4a51 51 0 0 0 36.7-13.4c9.3-8.9 14-20.6 14-35 0-6.9-1.4-13.1-4.2-18.9z"/>
  <path fill="none" stroke="#F4F4F4" stroke-width="2" d="M2 63h780.5" vectoreffect="non-scaling-stroke"/>
</svg>