<svg width="674" height="220" viewBox="0 0 674 220" fill="none" xmlns="http://www.w3.org/2000/svg">
<circle cx="442" cy="149" r="55" fill="#060809"/>
<g filter="url(#filter0_d_207_675)">
<circle cx="576" cy="149" r="55" fill="#F4F4F4"/>
</g>
<circle cx="55" cy="149" r="55" fill="#55B8A2"/>
<circle cx="189" cy="149" r="54.5" fill="#1D51E0" stroke="#1A4CE0"/>
<path d="M399 6.10409L395.436 22.9121H402.608L399 6.10409ZM404.984 34.0001L403.312 26.2121H394.732L393.016 34.0001H389.1L396.536 3.20009H401.596L408.9 34.0001H404.984Z" fill="#060809"/>
<path d="M413.52 34.0001V12.0001H416.6L416.864 14.2441C417.363 13.4814 417.979 12.8654 418.712 12.3961C419.445 11.9268 420.355 11.6921 421.44 11.6921C421.968 11.6921 422.423 11.7214 422.804 11.7801C423.185 11.8094 423.508 11.8534 423.772 11.9121V15.8281C423.391 15.7401 422.951 15.6521 422.452 15.5641C421.983 15.4761 421.543 15.4321 421.132 15.4321C420.399 15.4321 419.783 15.5788 419.284 15.8721C418.815 16.1654 418.419 16.5614 418.096 17.0601C417.803 17.5294 417.583 18.0721 417.436 18.6881C417.319 19.2748 417.26 19.8614 417.26 20.4481V34.0001H413.52Z" fill="#060809"/>
<path d="M439.579 33.6041C438.875 33.8094 438.097 33.9708 437.247 34.0881C436.396 34.2348 435.575 34.3081 434.783 34.3081C433.521 34.3081 432.407 34.1761 431.439 33.9121C430.471 33.6188 429.664 33.0614 429.019 32.2401C428.373 31.3894 427.889 30.2014 427.567 28.6761C427.244 27.1214 427.083 25.0828 427.083 22.5601C427.083 20.5948 427.229 18.9228 427.523 17.5441C427.845 16.1654 428.315 15.0508 428.931 14.2001C429.547 13.3201 430.339 12.6894 431.307 12.3081C432.275 11.8974 433.419 11.6921 434.739 11.6921C435.472 11.6921 436.293 11.7654 437.203 11.9121C438.141 12.0588 438.933 12.2054 439.579 12.3521V15.6081C438.757 15.4321 437.98 15.2854 437.247 15.1681C436.513 15.0508 435.589 14.9921 434.475 14.9921C433.829 14.9921 433.287 15.1241 432.847 15.3881C432.407 15.6521 432.04 16.1214 431.747 16.7961C431.453 17.4414 431.233 18.3068 431.087 19.3921C430.969 20.4481 430.911 21.7974 430.911 23.4401C430.911 25.0828 430.984 26.4028 431.131 27.4001C431.307 28.3974 431.541 29.1601 431.835 29.6881C432.157 30.2161 432.539 30.5681 432.979 30.7441C433.419 30.9201 433.917 31.0081 434.475 31.0081C435.677 31.0081 436.66 30.9348 437.423 30.7881C438.215 30.6414 438.933 30.4948 439.579 30.3481V33.6041Z" fill="#060809"/>
<path d="M445.532 34.0001V3.20009H449.272V13.6281C449.946 13.0121 450.694 12.5428 451.516 12.2201C452.366 11.8681 453.305 11.6921 454.332 11.6921C455.593 11.6921 456.649 11.8534 457.5 12.1761C458.35 12.4694 459.025 12.9388 459.524 13.5841C460.052 14.2001 460.418 15.0068 460.624 16.0041C460.858 16.9721 460.976 18.1308 460.976 19.4801V34.0001H457.236V19.0401C457.236 17.6614 457.001 16.6201 456.532 15.9161C456.092 15.2121 455.138 14.8601 453.672 14.8601C453.056 14.8601 452.469 14.9774 451.912 15.2121C451.384 15.4468 450.914 15.7548 450.504 16.1361C450.122 16.5174 449.814 16.9281 449.58 17.3681C449.374 17.7788 449.272 18.1894 449.272 18.6001V34.0001H445.532Z" fill="#060809"/>
<path d="M467.57 7.16009V3.20009H471.75V7.16009H467.57ZM467.79 34.0001V12.0001H471.53V34.0001H467.79Z" fill="#060809"/>
<path d="M487.947 34.0001H482.535L476.595 12.0001H480.599L485.351 30.8761L489.971 12.0001H493.843L487.947 34.0001Z" fill="#060809"/>
<path d="M514.314 22.5601C514.314 24.8774 514.138 26.7988 513.786 28.3241C513.434 29.8201 512.906 31.0228 512.202 31.9321C511.498 32.8121 510.618 33.4281 509.562 33.7801C508.536 34.1321 507.333 34.3081 505.954 34.3081C504.605 34.3081 503.402 34.1321 502.346 33.7801C501.32 33.4281 500.454 32.8121 499.75 31.9321C499.046 31.0228 498.504 29.8201 498.122 28.3241C497.77 26.7988 497.594 24.8774 497.594 22.5601C497.594 18.8054 498.269 16.0628 499.618 14.3321C500.968 12.5721 503.08 11.6921 505.954 11.6921C508.829 11.6921 510.941 12.5721 512.29 14.3321C513.64 16.0628 514.314 18.8054 514.314 22.5601ZM510.486 23.2201C510.486 21.6654 510.413 20.3454 510.266 19.2601C510.12 18.1748 509.87 17.3094 509.518 16.6641C509.196 15.9894 508.741 15.5054 508.154 15.2121C507.568 14.9188 506.834 14.7721 505.954 14.7721C505.074 14.7721 504.341 14.9188 503.754 15.2121C503.168 15.5054 502.698 15.9894 502.346 16.6641C502.024 17.3094 501.789 18.1748 501.642 19.2601C501.496 20.3454 501.422 21.6654 501.422 23.2201C501.422 26.0948 501.76 28.1481 502.434 29.3801C503.109 30.6121 504.282 31.2281 505.954 31.2281C507.626 31.2281 508.8 30.6121 509.474 29.3801C510.149 28.1481 510.486 26.0948 510.486 23.2201Z" fill="#060809"/>
<path d="M544.566 25.0241C544.566 23.0881 544.243 21.6654 543.598 20.7561C542.982 19.8468 541.867 19.3921 540.254 19.3921H536.162V30.8761C536.573 30.9054 537.013 30.9348 537.482 30.9641C537.893 30.9934 538.333 31.0228 538.802 31.0521C539.271 31.0814 539.741 31.0961 540.21 31.0961C540.797 31.0961 541.354 31.0228 541.882 30.8761C542.41 30.7294 542.865 30.4361 543.246 29.9961C543.657 29.5561 543.979 28.9401 544.214 28.1481C544.449 27.3561 544.566 26.3148 544.566 25.0241ZM543.906 11.2521C543.906 9.43342 543.627 8.11342 543.07 7.29209C542.542 6.47076 541.457 6.06009 539.814 6.06009C538.758 6.06009 537.893 6.10409 537.218 6.19209C536.837 6.25076 536.485 6.29476 536.162 6.32409V16.2241H539.814C540.254 16.2241 540.709 16.1801 541.178 16.0921C541.677 16.0041 542.117 15.7988 542.498 15.4761C542.909 15.1534 543.246 14.6694 543.51 14.0241C543.774 13.3494 543.906 12.4254 543.906 11.2521ZM548.482 24.7161C548.482 26.5641 548.277 28.1041 547.866 29.3361C547.455 30.5388 546.869 31.5214 546.106 32.2841C545.373 33.0174 544.463 33.5454 543.378 33.8681C542.322 34.1614 541.134 34.3081 539.814 34.3081C538.875 34.3081 537.966 34.2934 537.086 34.2641C536.206 34.2641 535.414 34.2348 534.71 34.1761C533.889 34.1174 533.097 34.0588 532.334 34.0001V3.20009C533.155 3.14142 533.962 3.08276 534.754 3.02409C535.429 2.96542 536.177 2.93609 536.998 2.93609C537.819 2.90676 538.582 2.89209 539.286 2.89209C540.606 2.89209 541.779 3.03876 542.806 3.33209C543.862 3.59609 544.757 4.05076 545.49 4.69609C546.223 5.34142 546.781 6.17742 547.162 7.20409C547.543 8.23076 547.734 9.47742 547.734 10.9441C547.734 12.7921 547.367 14.2734 546.634 15.3881C545.901 16.4734 545.094 17.2068 544.214 17.5881C544.654 17.7348 545.123 17.9694 545.622 18.2921C546.121 18.5854 546.575 19.0108 546.986 19.5681C547.426 20.0961 547.778 20.7854 548.042 21.6361C548.335 22.4574 548.482 23.4841 548.482 24.7161Z" fill="#060809"/>
<path d="M570.689 22.5601C570.689 24.8774 570.513 26.7988 570.161 28.3241C569.809 29.8201 569.281 31.0228 568.577 31.9321C567.873 32.8121 566.993 33.4281 565.937 33.7801C564.911 34.1321 563.708 34.3081 562.329 34.3081C560.98 34.3081 559.777 34.1321 558.721 33.7801C557.695 33.4281 556.829 32.8121 556.125 31.9321C555.421 31.0228 554.879 29.8201 554.497 28.3241C554.145 26.7988 553.969 24.8774 553.969 22.5601C553.969 18.8054 554.644 16.0628 555.993 14.3321C557.343 12.5721 559.455 11.6921 562.329 11.6921C565.204 11.6921 567.316 12.5721 568.665 14.3321C570.015 16.0628 570.689 18.8054 570.689 22.5601ZM566.861 23.2201C566.861 21.6654 566.788 20.3454 566.641 19.2601C566.495 18.1748 566.245 17.3094 565.893 16.6641C565.571 15.9894 565.116 15.5054 564.529 15.2121C563.943 14.9188 563.209 14.7721 562.329 14.7721C561.449 14.7721 560.716 14.9188 560.129 15.2121C559.543 15.5054 559.073 15.9894 558.721 16.6641C558.399 17.3094 558.164 18.1748 558.017 19.2601C557.871 20.3454 557.797 21.6654 557.797 23.2201C557.797 26.0948 558.135 28.1481 558.809 29.3801C559.484 30.6121 560.657 31.2281 562.329 31.2281C564.001 31.2281 565.175 30.6121 565.849 29.3801C566.524 28.1481 566.861 26.0948 566.861 23.2201Z" fill="#060809"/>
<path d="M583.439 33.7801C583.116 33.8388 582.735 33.9121 582.295 34.0001C581.884 34.0881 581.386 34.1321 580.799 34.1321C580.359 34.1321 579.919 34.0588 579.479 33.9121C579.039 33.7654 578.643 33.5014 578.291 33.1201C577.939 32.7388 577.646 32.2254 577.411 31.5801C577.176 30.9054 577.059 30.0694 577.059 29.0721V3.20009H580.799V28.8521C580.799 29.6148 580.887 30.1574 581.063 30.4801C581.268 30.7734 581.664 30.9201 582.251 30.9201C582.486 30.9201 582.706 30.8908 582.911 30.8321C583.146 30.7734 583.322 30.7294 583.439 30.7001V33.7801Z" fill="#060809"/>
<path d="M600.76 34.0001L600.452 32.1521C599.777 32.8268 599.014 33.3548 598.164 33.7361C597.313 34.1174 596.33 34.3081 595.216 34.3081C593.808 34.3081 592.649 34.0881 591.74 33.6481C590.83 33.2081 590.097 32.5628 589.54 31.7121C588.982 30.8614 588.586 29.7908 588.352 28.5001C588.146 27.1801 588.044 25.6694 588.044 23.9681C588.044 19.6268 588.792 16.5028 590.288 14.5961C591.813 12.6601 594.262 11.6921 597.636 11.6921C598.134 11.6921 598.589 11.7068 599 11.7361C599.41 11.7654 599.777 11.8094 600.1 11.8681V3.20009H603.84V34.0001H600.76ZM595.92 31.1401C596.594 31.1401 597.196 31.0228 597.724 30.7881C598.252 30.5534 598.692 30.2454 599.044 29.8641C599.396 29.4828 599.66 29.0721 599.836 28.6321C600.012 28.1921 600.1 27.7814 600.1 27.4001V15.0361C599.777 14.9774 599.381 14.9334 598.912 14.9041C598.442 14.8748 597.87 14.8601 597.196 14.8601C596.14 14.8601 595.274 15.0801 594.6 15.5201C593.925 15.9308 593.382 16.5468 592.972 17.3681C592.561 18.1601 592.268 19.1574 592.092 20.3601C591.945 21.5334 591.872 22.8828 591.872 24.4081C591.872 25.7281 591.945 26.8281 592.092 27.7081C592.268 28.5588 592.517 29.2481 592.84 29.7761C593.162 30.2748 593.573 30.6268 594.072 30.8321C594.6 31.0374 595.216 31.1401 595.92 31.1401Z" fill="#060809"/>
<path d="M4.29688 5.85547H10.0781L18.0859 27.2422H18.7695L26.8164 5.85547H32.6172V34H29.5703V8.88281H28.8672L20.6836 30.6016H16.1719L8.04688 8.88281H7.34375V34H4.29688V5.85547Z" fill="#060809"/>
<path d="M47.4219 34.4492C45.2734 34.4492 43.5547 34.1042 42.2656 33.4141C40.9766 32.724 40.0326 31.6302 39.4336 30.1328C38.8477 28.6354 38.5547 26.6367 38.5547 24.1367C38.5547 21.793 38.8477 19.8659 39.4336 18.3555C40.0195 16.832 40.957 15.6927 42.2461 14.9375C43.5352 14.1823 45.2344 13.8047 47.3438 13.8047C49.362 13.8047 50.9766 14.1042 52.1875 14.7031C53.4115 15.3021 54.3034 16.2526 54.8633 17.5547C55.4232 18.8438 55.7031 20.569 55.7031 22.7305L55.6836 24.625H41.6016C41.6016 26.4349 41.7969 27.8867 42.1875 28.9805C42.5911 30.0612 43.2161 30.8555 44.0625 31.3633C44.9219 31.8581 46.0677 32.1055 47.5 32.1055C48.6589 32.1055 49.5898 31.9883 50.293 31.7539C51.0091 31.5195 51.5365 31.1484 51.875 30.6406C52.2266 30.1198 52.4219 29.4297 52.4609 28.5703H55.5273C55.5273 30.5755 54.8633 32.0599 53.5352 33.0234C52.2201 33.974 50.1823 34.4492 47.4219 34.4492ZM52.6367 22.3984C52.6758 20.901 52.5195 19.7031 52.168 18.8047C51.8164 17.9062 51.2435 17.2487 50.4492 16.832C49.6549 16.4154 48.5938 16.207 47.2656 16.207C45.8724 16.207 44.7786 16.3958 43.9844 16.7734C43.2031 17.151 42.6302 17.7826 42.2656 18.668C41.901 19.5534 41.6927 20.7969 41.6406 22.3984H52.6367Z" fill="#060809"/>
<path d="M67.2266 34.5078C63.6068 34.5078 61.7969 32.457 61.7969 28.3555V16.5781H58.2422V14.1953H61.7969V8.78516H64.7852V14.1953H69.6484V16.5781H64.8047V28.7656C64.8047 29.8724 65.0391 30.6667 65.5078 31.1484C65.9766 31.6172 66.7448 31.8516 67.8125 31.8516C68.5417 31.8516 69.2969 31.7799 70.0781 31.6367V34.2344C69.1667 34.4167 68.2161 34.5078 67.2266 34.5078Z" fill="#060809"/>
<path d="M74.8828 14.2539H77.5977L77.7148 17.3203C78.5872 16.1224 79.5247 15.237 80.5273 14.6641C81.5299 14.0911 82.6823 13.8047 83.9844 13.8047H84.3555V16.793H83.9258C82.4154 16.793 81.1133 17.0859 80.0195 17.6719C78.9258 18.2578 78.1771 19.1562 77.7734 20.3672V34H74.8828V14.2539Z" fill="#060809"/>
<path d="M96.3477 34.4492C94.1471 34.4492 92.3828 34.1042 91.0547 33.4141C89.7396 32.724 88.776 31.6302 88.1641 30.1328C87.5651 28.6224 87.2656 26.6172 87.2656 24.1172C87.2656 21.6172 87.5651 19.6185 88.1641 18.1211C88.776 16.6237 89.7396 15.5299 91.0547 14.8398C92.3828 14.1497 94.1471 13.8047 96.3477 13.8047C98.5742 13.8047 100.352 14.1497 101.68 14.8398C103.008 15.5169 103.978 16.6042 104.59 18.1016C105.202 19.5859 105.508 21.5716 105.508 24.0586C105.508 26.5716 105.202 28.5833 104.59 30.0938C103.978 31.6042 103.008 32.7109 101.68 33.4141C100.352 34.1042 98.5742 34.4492 96.3477 34.4492ZM96.4648 32.0078C98.0143 32.0078 99.2122 31.7669 100.059 31.2852C100.918 30.8034 101.53 30.0026 101.895 28.8828C102.259 27.763 102.441 26.1875 102.441 24.1562C102.441 22.112 102.253 20.5299 101.875 19.4102C101.497 18.2773 100.872 17.4701 100 16.9883C99.1406 16.4935 97.9232 16.2461 96.3477 16.2461C94.7982 16.2461 93.5938 16.4935 92.7344 16.9883C91.875 17.4701 91.2565 18.2839 90.8789 19.4297C90.5143 20.5625 90.332 22.151 90.332 24.1953C90.332 26.2135 90.5208 27.7826 90.8984 28.9023C91.276 30.0091 91.901 30.8034 92.7734 31.2852C93.6458 31.7669 94.8763 32.0078 96.4648 32.0078Z" fill="#060809"/>
<path d="M110.879 14.2734H113.281L113.633 16.9102C114.323 15.8034 115.182 15.0156 116.211 14.5469C117.253 14.0651 118.646 13.8242 120.391 13.8242C122.305 13.8242 123.835 14.1628 124.98 14.8398C126.126 15.5039 126.96 16.5716 127.48 18.043C128.014 19.5013 128.281 21.4479 128.281 23.8828C128.281 26.4479 128.014 28.4987 127.48 30.0352C126.947 31.5716 126.1 32.6914 124.941 33.3945C123.796 34.0977 122.266 34.4492 120.352 34.4492C118.685 34.4492 117.357 34.2604 116.367 33.8828C115.378 33.5052 114.551 32.8737 113.887 31.9883V41.5977H110.879V14.2734ZM119.629 32.0078C121.152 32.0078 122.305 31.7799 123.086 31.3242C123.867 30.8685 124.414 30.0742 124.727 28.9414C125.039 27.8086 125.195 26.1289 125.195 23.9023C125.195 21.819 125.039 20.2435 124.727 19.1758C124.427 18.1081 123.893 17.3594 123.125 16.9297C122.357 16.5 121.217 16.2852 119.707 16.2852C118.118 16.2852 116.914 16.5065 116.094 16.9492C115.273 17.3789 114.701 18.1406 114.375 19.2344C114.049 20.3151 113.887 21.9167 113.887 24.0391C113.887 26.6953 114.316 28.6875 115.176 30.0156C116.048 31.3438 117.533 32.0078 119.629 32.0078Z" fill="#060809"/>
<path d="M133.75 5.83594H136.738L136.68 16.9883C137.148 16.1419 137.663 15.4909 138.223 15.0352C138.796 14.5664 139.486 14.2344 140.293 14.0391C141.113 13.8307 142.155 13.7266 143.418 13.7266C145.189 13.7266 146.582 14.0326 147.598 14.6445C148.613 15.2565 149.336 16.2005 149.766 17.4766C150.208 18.7396 150.43 20.4193 150.43 22.5156V33.9805H147.422V21.9297C147.422 20.5495 147.259 19.4492 146.934 18.6289C146.608 17.7956 146.087 17.1901 145.371 16.8125C144.668 16.4349 143.724 16.2461 142.539 16.2461C140.573 16.2461 139.121 16.7474 138.184 17.75C137.246 18.7396 136.777 20.263 136.777 22.3203V33.9805H133.77L133.75 5.83594Z" fill="#060809"/>
<path d="M164.785 34.4492C162.585 34.4492 160.82 34.1042 159.492 33.4141C158.177 32.724 157.214 31.6302 156.602 30.1328C156.003 28.6224 155.703 26.6172 155.703 24.1172C155.703 21.6172 156.003 19.6185 156.602 18.1211C157.214 16.6237 158.177 15.5299 159.492 14.8398C160.82 14.1497 162.585 13.8047 164.785 13.8047C167.012 13.8047 168.789 14.1497 170.117 14.8398C171.445 15.5169 172.415 16.6042 173.027 18.1016C173.639 19.5859 173.945 21.5716 173.945 24.0586C173.945 26.5716 173.639 28.5833 173.027 30.0938C172.415 31.6042 171.445 32.7109 170.117 33.4141C168.789 34.1042 167.012 34.4492 164.785 34.4492ZM164.902 32.0078C166.452 32.0078 167.65 31.7669 168.496 31.2852C169.355 30.8034 169.967 30.0026 170.332 28.8828C170.697 27.763 170.879 26.1875 170.879 24.1562C170.879 22.112 170.69 20.5299 170.312 19.4102C169.935 18.2773 169.31 17.4701 168.438 16.9883C167.578 16.4935 166.361 16.2461 164.785 16.2461C163.236 16.2461 162.031 16.4935 161.172 16.9883C160.312 17.4701 159.694 18.2839 159.316 19.4297C158.952 20.5625 158.77 22.151 158.77 24.1953C158.77 26.2135 158.958 27.7826 159.336 28.9023C159.714 30.0091 160.339 30.8034 161.211 31.2852C162.083 31.7669 163.314 32.0078 164.902 32.0078Z" fill="#060809"/>
<path d="M188.926 34.4492C187.012 34.4492 185.553 34.1693 184.551 33.6094C183.548 33.0495 182.754 32.3073 182.168 31.3828L181.816 34H179.414V5.85547H182.422V16.4609C183.073 15.5104 183.893 14.8333 184.883 14.4297C185.885 14.026 187.22 13.8242 188.887 13.8242C190.931 13.8242 192.52 14.1497 193.652 14.8008C194.785 15.4388 195.592 16.5065 196.074 18.0039C196.569 19.5013 196.816 21.5977 196.816 24.293C196.816 26.7539 196.549 28.7266 196.016 30.2109C195.495 31.6823 194.661 32.7565 193.516 33.4336C192.37 34.1107 190.84 34.4492 188.926 34.4492ZM188.242 32.0078C189.661 32.0078 190.768 31.7734 191.562 31.3047C192.357 30.8359 192.923 30.0547 193.262 28.9609C193.6 27.8542 193.77 26.3112 193.77 24.332C193.77 22.2487 193.594 20.6276 193.242 19.4688C192.904 18.3099 192.337 17.4831 191.543 16.9883C190.749 16.4935 189.629 16.2461 188.184 16.2461C186.608 16.2461 185.417 16.4674 184.609 16.9102C183.802 17.3529 183.236 18.1276 182.91 19.2344C182.585 20.3411 182.422 21.9753 182.422 24.1367C182.422 26.168 182.598 27.75 182.949 28.8828C183.314 30.0026 183.913 30.8034 184.746 31.2852C185.579 31.7669 186.745 32.0078 188.242 32.0078Z" fill="#060809"/>
<path d="M202.285 6.92969H206.289V10.6797H202.285V6.92969ZM202.793 14.2539H205.781V34H202.793V14.2539Z" fill="#060809"/>
<path d="M220.859 34.4492C218.646 34.4492 216.875 34.1042 215.547 33.4141C214.232 32.7109 213.268 31.6042 212.656 30.0938C212.057 28.5833 211.758 26.5716 211.758 24.0586C211.758 21.5716 212.064 19.5794 212.676 18.082C213.288 16.5846 214.251 15.4974 215.566 14.8203C216.895 14.1302 218.665 13.7852 220.879 13.7852C223.457 13.7852 225.371 14.319 226.621 15.3867C227.884 16.4414 228.535 18.0755 228.574 20.2891H225.508C225.43 19.2995 225.221 18.5117 224.883 17.9258C224.557 17.3398 224.062 16.9102 223.398 16.6367C222.734 16.3633 221.868 16.2266 220.801 16.2266C219.251 16.2266 218.047 16.4674 217.188 16.9492C216.341 17.431 215.729 18.2383 215.352 19.3711C214.987 20.4909 214.805 22.0664 214.805 24.0977C214.805 26.2982 214.974 27.9583 215.312 29.0781C215.651 30.1979 216.25 30.9857 217.109 31.4414C217.969 31.8841 219.232 32.1055 220.898 32.1055C221.992 32.1055 222.871 31.9688 223.535 31.6953C224.199 31.4089 224.688 30.9661 225 30.3672C225.312 29.7552 225.482 28.9479 225.508 27.9453H228.574C228.561 29.5208 228.294 30.7839 227.773 31.7344C227.253 32.6719 226.432 33.362 225.312 33.8047C224.193 34.2344 222.708 34.4492 220.859 34.4492Z" fill="#060809"/>
<defs>
<filter id="filter0_d_207_675" x="507" y="82" width="138" height="138" filterUnits="userSpaceOnUse" color-interpolation-filters="sRGB">
<feFlood flood-opacity="0" result="BackgroundImageFix"/>
<feColorMatrix in="SourceAlpha" type="matrix" values="0 0 0 0 0 0 0 0 0 0 0 0 0 0 0 0 0 0 127 0" result="hardAlpha"/>
<feOffset dy="2"/>
<feGaussianBlur stdDeviation="7"/>
<feComposite in2="hardAlpha" operator="out"/>
<feColorMatrix type="matrix" values="0 0 0 0 0.145455 0 0 0 0 0.16 0 0 0 0 0.174545 0 0 0 0.13 0"/>
<feBlend mode="normal" in2="BackgroundImageFix" result="effect1_dropShadow_207_675"/>
<feBlend mode="normal" in="SourceGraphic" in2="effect1_dropShadow_207_675" result="shape"/>
</filter>
</defs>
</svg>
