<svg fill="none" xmlns="http://www.w3.org/2000/svg" viewBox="0 0 674 220">
    <circle cx="442" cy="149" r="55" fill="#060809" />
    <circle cx="576" cy="149" r="55" fill="#F4F4F4" filter="url(#a)" />
    <circle cx="55" cy="149" r="55" fill="#55B8A2" />
    <circle cx="189" cy="149" r="54.5" fill="#1D51E0" stroke="#1A4CE0" />
    <path
        d="m399 6.1-3.6 16.8h7.2L399 6.1zm6 27.9-1.7-7.8h-8.6L393 34h-3.9l7.4-30.8h5.1l7.3 30.8h-4zm8.5 0V12h3.1l.3 2.2a6.2 6.2 0 0 1 1.8-1.8 5 5 0 0 1 2.7-.7h1.4l1 .2v4a26 26 0 0 0-1.3-.3 7.2 7.2 0 0 0-1.4-.2c-.7 0-1.3.2-1.8.5s-.9.7-1.2 1.2a5.4 5.4 0 0 0-.7 1.6 9 9 0 0 0-.1 1.7V34h-3.8zm26-.4a16.3 16.3 0 0 1-2.3.5 14.5 14.5 0 0 1-2.4.2c-1.3 0-2.4-.1-3.4-.4-1-.3-1.7-.8-2.4-1.7a9 9 0 0 1-1.4-3.5 31.2 31.2 0 0 1 0-11.2c.2-1.3.7-2.4 1.3-3.3a5.2 5.2 0 0 1 2.4-1.9c1-.4 2.1-.6 3.4-.6a36.3 36.3 0 0 1 4.8.7v3.2a45.5 45.5 0 0 0-2.3-.4l-2.7-.2c-.7 0-1.2.1-1.7.4a3 3 0 0 0-1 1.4c-.3.6-.6 1.5-.7 2.6a37.8 37.8 0 0 0 0 8c.2 1 .4 1.8.7 2.3.4.5.7.9 1.2 1 .4.2 1 .3 1.5.3a16 16 0 0 0 5-.7v3.3zm6 .4V3.2h3.8v10.4a7.2 7.2 0 0 1 2.2-1.4 9 9 0 0 1 6 0c.8.3 1.5.7 2 1.4.6.6 1 1.4 1.1 2.4.3 1 .4 2.1.4 3.5V34h-3.8V19c0-1.3-.2-2.4-.7-3-.4-.8-1.4-1.1-2.8-1.1-.6 0-1.2 0-1.8.3a5 5 0 0 0-1.4 1c-.4.3-.7.7-1 1.2l-.2 1.2V34h-3.8zm22-26.8v-4h4.2v4h-4.1zm.3 26.8V12h3.7v22h-3.7zm20.1 0h-5.4l-5.9-22h4l4.8 18.9L490 12h3.8L488 34zm26.4-11.4c0 2.3-.2 4.2-.5 5.7a9.3 9.3 0 0 1-1.6 3.6 5.6 5.6 0 0 1-2.6 1.9c-1 .3-2.3.5-3.6.5-1.4 0-2.6-.2-3.7-.5-1-.4-1.8-1-2.6-1.9-.7-.9-1.2-2-1.6-3.6-.3-1.5-.5-3.4-.5-5.7 0-3.8.7-6.5 2-8.3 1.4-1.7 3.5-2.6 6.4-2.6 2.8 0 5 .9 6.3 2.6 1.3 1.8 2 4.5 2 8.3zm-3.8.6c0-1.5 0-2.9-.2-4-.2-1-.4-1.9-.8-2.5a3 3 0 0 0-1.3-1.5c-.6-.3-1.4-.4-2.2-.4-1 0-1.7.1-2.2.4-.6.3-1.1.8-1.5 1.5-.3.6-.5 1.5-.7 2.6l-.2 4c0 2.8.4 4.8 1 6 .7 1.3 1.9 2 3.6 2s2.8-.7 3.5-2c.6-1.2 1-3.2 1-6zm34 1.8c0-2-.3-3.3-.9-4.2-.6-1-1.7-1.4-3.3-1.4h-4.1v11.5a120 120 0 0 0 4 .2c.6 0 1.2 0 1.7-.2s1-.5 1.3-.9c.5-.4.8-1 1-1.9s.4-1.8.4-3zm-.6-13.7c0-1.9-.3-3.2-.8-4-.6-.8-1.6-1.2-3.3-1.2a20.8 20.8 0 0 0-3.6.2v10h3.6l1.4-.2a2.7 2.7 0 0 0 1.3-.6c.4-.3.7-.8 1-1.5.3-.7.4-1.6.4-2.7zm4.6 13.4c0 1.9-.2 3.4-.6 4.6-.4 1.2-1 2.2-1.8 3-.7.7-1.6 1.2-2.7 1.6-1 .3-2.3.4-3.6.4a82.8 82.8 0 0 1-7.5-.3V3.2a932.9 932.9 0 0 0 2.5-.2 26 26 0 0 1 2.2 0l2.3-.1c1.3 0 2.5.1 3.5.4 1 .3 2 .8 2.7 1.4.7.6 1.3 1.5 1.7 2.5s.5 2.3.5 3.7a8 8 0 0 1-1 4.5c-.8 1-1.6 1.8-2.5 2.2a6.3 6.3 0 0 1 2.8 2 6 6 0 0 1 1 2c.3.9.5 1.9.5 3.1zm22.2-2.1c0 2.3-.2 4.2-.5 5.7a9.3 9.3 0 0 1-1.6 3.6 5.6 5.6 0 0 1-2.7 1.9c-1 .3-2.2.5-3.6.5-1.3 0-2.5-.2-3.6-.5-1-.4-1.9-1-2.6-1.9-.7-.9-1.2-2-1.6-3.6-.4-1.5-.5-3.4-.5-5.7 0-3.8.6-6.5 2-8.3 1.3-1.7 3.5-2.6 6.3-2.6 2.9 0 5 .9 6.4 2.6 1.3 1.8 2 4.5 2 8.3zm-3.8.6c0-1.5-.1-2.9-.3-4-.1-1-.4-1.9-.7-2.5a3 3 0 0 0-1.4-1.5c-.6-.3-1.3-.4-2.2-.4-.9 0-1.6.1-2.2.4-.6.3-1 .8-1.4 1.5-.3.6-.5 1.5-.7 2.6l-.2 4c0 2.8.3 4.8 1 6 .7 1.3 1.9 2 3.5 2s2.9-.7 3.5-2c.7-1.2 1-3.2 1-6zm16.5 10.6a67.3 67.3 0 0 0-1.1.2l-1.5.1c-.4 0-.9 0-1.3-.2a2.8 2.8 0 0 1-1.2-.8c-.4-.4-.7-.9-.9-1.5-.2-.7-.3-1.5-.3-2.5V3.2h3.7v25.7c0 .7 0 1.3.3 1.6.2.3.6.4 1.2.4h.6l.5-.2v3zm17.4.2-.3-1.8a7.6 7.6 0 0 1-2.3 1.5c-.9.4-1.9.6-3 .6a8 8 0 0 1-3.5-.7 5.4 5.4 0 0 1-2.2-1.9c-.5-.8-1-2-1.1-3.2-.3-1.3-.4-2.8-.4-4.5 0-4.4.8-7.5 2.3-9.4 1.5-2 4-3 7.3-3a19.5 19.5 0 0 1 2.5.3V3.2h3.7V34h-3zm-4.9-2.9c.7 0 1.3 0 1.8-.3a4 4 0 0 0 1.3-1c.4-.3.7-.7.8-1.2l.3-1.2V15a10.4 10.4 0 0 0-1.2-.1h-1.7c-1 0-2 .2-2.6.6-.7.4-1.2 1-1.6 1.9-.4.8-.7 1.8-1 3a33 33 0 0 0 0 7.3l.8 2c.4.6.8 1 1.3 1.1a5 5 0 0 0 1.8.3zM4.3 6h5.8l8 21.3h.7l8-21.3h5.8V34h-3V8.9h-.7l-8.2 21.7h-4.5L8 8.9h-.7V34h-3V5.9zm43.1 28.6a11 11 0 0 1-5.1-1 6.2 6.2 0 0 1-2.9-3.4c-.6-1.5-.8-3.5-.8-6 0-2.3.2-4.2.8-5.7a6.5 6.5 0 0 1 2.8-3.5 10 10 0 0 1 5.1-1c2 0 3.7.2 4.9.8 1.2.6 2.1 1.6 2.7 2.9.5 1.2.8 3 .8 5.1v2H41.6c0 1.7.2 3.2.6 4.3.4 1 1 1.9 1.9 2.4.8.5 2 .7 3.4.7a9 9 0 0 0 2.8-.3 3 3 0 0 0 1.6-1.2 4 4 0 0 0 .6-2h3c0 2-.6 3.5-2 4.4-1.3 1-3.3 1.5-6 1.5zm5.2-12.1c0-1.5 0-2.7-.4-3.6-.4-.9-1-1.5-1.8-2-.7-.4-1.8-.6-3.1-.6-1.4 0-2.5.2-3.3.6-.8.4-1.4 1-1.7 1.9a11 11 0 0 0-.7 3.7h11zm14.6 12.1c-3.6 0-5.4-2-5.4-6.1V16.6h-3.6v-2.4h3.6V8.8h3v5.4h4.8v2.4h-4.8v12.2c0 1 .2 1.9.7 2.3.5.5 1.2.8 2.3.8l2.3-.3v2.6a14.5 14.5 0 0 1-2.9.3zM75 14.3h2.7l.1 3c.9-1.2 1.8-2 2.8-2.6 1-.6 2.2-.9 3.5-.9h.4v3h-.5c-1.5 0-2.8.3-3.9.9-1 .6-1.8 1.5-2.2 2.7V34h-3V14.3zm21.4 20.1c-2.2 0-4-.3-5.2-1a6.2 6.2 0 0 1-3-3.3c-.5-1.5-.8-3.5-.8-6s.3-4.5.9-6a6.2 6.2 0 0 1 2.9-3.3c1.3-.6 3-1 5.2-1 2.3 0 4 .4 5.4 1a6 6 0 0 1 2.9 3.3 16 16 0 0 1 1 6c0 2.5-.4 4.5-1 6a6.3 6.3 0 0 1-3 3.3c-1.2.7-3 1-5.3 1zm.2-2.4c1.5 0 2.7-.2 3.6-.7a4 4 0 0 0 1.8-2.4c.4-1.1.5-2.7.5-4.7s-.1-3.7-.5-4.8c-.4-1.1-1-2-1.9-2.4-.9-.5-2-.8-3.7-.8-1.5 0-2.7.3-3.6.8-.8.5-1.4 1.3-1.8 2.4-.4 1.2-.6 2.8-.6 4.8s.2 3.6.6 4.7a4 4 0 0 0 1.9 2.4c.8.5 2 .7 3.7.7zm14.4-17.7h2.4l.3 2.6a6 6 0 0 1 2.6-2.4c1-.4 2.4-.7 4.2-.7 2 0 3.4.4 4.6 1 1.1.7 2 1.8 2.5 3.2.5 1.5.8 3.4.8 5.9 0 2.5-.3 4.6-.8 6.1a6 6 0 0 1-2.6 3.4c-1.1.7-2.6 1-4.5 1-1.7 0-3-.1-4-.5s-1.8-1-2.5-2v9.7h-3V14.3zm8.7 17.7a7 7 0 0 0 3.5-.7c.8-.4 1.3-1.2 1.6-2.4.3-1 .5-2.8.5-5 0-2-.2-3.7-.5-4.7s-.8-1.8-1.6-2.3c-.7-.4-1.9-.6-3.4-.6-1.6 0-2.8.2-3.6.7-.8.4-1.4 1.1-1.7 2.2-.4 1.1-.5 2.7-.5 4.8 0 2.7.4 4.7 1.3 6 .8 1.3 2.3 2 4.4 2zm14.2-26.2h3l-.1 11.2c.4-.9 1-1.5 1.5-2 .6-.4 1.3-.8 2-1a13 13 0 0 1 3.2-.3 8 8 0 0 1 4.2 1 5 5 0 0 1 2.2 2.8c.4 1.2.6 3 .6 5V34h-3V22c0-1.5-.1-2.6-.5-3.4-.3-.8-.8-1.4-1.5-1.8a6 6 0 0 0-2.9-.6c-2 0-3.4.5-4.3 1.5-1 1-1.4 2.6-1.4 4.6V34h-3V5.8zm31 28.6c-2.2 0-4-.3-5.3-1a6.2 6.2 0 0 1-2.9-3.3c-.6-1.5-.9-3.5-.9-6s.3-4.5.9-6a6.2 6.2 0 0 1 2.9-3.3c1.3-.6 3-1 5.3-1 2.2 0 4 .4 5.3 1a6 6 0 0 1 3 3.3 16 16 0 0 1 .8 6c0 2.5-.3 4.5-.9 6a6.3 6.3 0 0 1-2.9 3.3c-1.3.7-3 1-5.3 1zm.1-2.4c1.6 0 2.7-.2 3.6-.7.9-.5 1.5-1.3 1.8-2.4s.6-2.7.6-4.7-.2-3.7-.6-4.8c-.4-1.1-1-2-1.9-2.4-.8-.5-2-.8-3.6-.8s-2.8.3-3.6.8c-.9.5-1.5 1.3-1.9 2.4-.3 1.2-.5 2.8-.5 4.8s.2 3.6.5 4.7a4 4 0 0 0 2 2.4c.8.5 2 .7 3.6.7zm24 2.4c-1.9 0-3.3-.2-4.3-.8-1-.6-1.8-1.3-2.4-2.2l-.4 2.6h-2.4V5.9h3v10.6c.7-1 1.5-1.7 2.5-2 1-.5 2.3-.7 4-.7 2 0 3.6.3 4.8 1 1 .6 1.9 1.7 2.4 3.2.5 1.5.7 3.6.7 6.3a18 18 0 0 1-.8 6 5.8 5.8 0 0 1-2.5 3.1 9 9 0 0 1-4.6 1zm-.7-2.4c1.5 0 2.6-.2 3.4-.7a4 4 0 0 0 1.7-2.3c.3-1.1.5-2.7.5-4.7s-.2-3.7-.6-4.8c-.3-1.2-.9-2-1.7-2.5-.8-.5-1.9-.8-3.3-.8-1.6 0-2.8.3-3.6.7-.8.5-1.4 1.2-1.7 2.3-.3 1.1-.5 2.8-.5 5 0 2 .2 3.5.5 4.7a4 4 0 0 0 1.8 2.4c.9.5 2 .7 3.5.7zm14-25h4v3.7h-4V6.9zm.6 7.3h3V34h-3V14.3zm18 20.1c-2.2 0-4-.3-5.3-1a6.3 6.3 0 0 1-2.8-3.3c-.6-1.5-1-3.5-1-6s.4-4.5 1-6a6.1 6.1 0 0 1 2.9-3.3c1.3-.7 3-1 5.3-1 2.6 0 4.5.5 5.7 1.6 1.3 1 2 2.7 2 4.9h-3c-.2-1-.4-1.8-.7-2.4a3 3 0 0 0-1.5-1.3 7 7 0 0 0-2.6-.4c-1.5 0-2.8.3-3.6.7-.9.5-1.5 1.3-1.8 2.5a16 16 0 0 0-.6 4.7c0 2.2.2 3.9.5 5 .4 1.1 1 1.9 1.8 2.3.9.5 2.1.7 3.8.7 1 0 2-.1 2.6-.4.7-.3 1.2-.7 1.5-1.3.3-.6.5-1.5.5-2.5h3a8 8 0 0 1-.7 3.8c-.5 1-1.4 1.7-2.5 2.1-1.1.4-2.6.6-4.4.6z"
        fill="#060809" />
    <defs>
        <filter id="a" x="507" y="82" width="138" height="138" filterUnits="userSpaceOnUse"
            color-interpolation-filters="sRGB">
            <feFlood flood-opacity="0" result="BackgroundImageFix" />
            <feColorMatrix in="SourceAlpha" values="0 0 0 0 0 0 0 0 0 0 0 0 0 0 0 0 0 0 127 0" result="hardAlpha" />
            <feOffset dy="2" />
            <feGaussianBlur stdDeviation="7" />
            <feComposite in2="hardAlpha" operator="out" />
            <feColorMatrix values="0 0 0 0 0.145455 0 0 0 0 0.16 0 0 0 0 0.174545 0 0 0 0.13 0" />
            <feBlend in2="BackgroundImageFix" result="effect1_dropShadow_207_675" />
            <feBlend in="SourceGraphic" in2="effect1_dropShadow_207_675" result="shape" />
        </filter>
    </defs>
</svg>