<svg width="115" height="93" viewBox="0 0 115 93" fill="none" xmlns="http://www.w3.org/2000/svg">
<path d="M62.8141 37.9555L63.0496 38.7947H63.6158V35.249H60.6639V36.0034H62.8141C62.8263 36.3115 62.786 36.6006 62.6921 36.871C62.5969 37.1351 62.4553 37.3677 62.2674 37.5688C62.0844 37.7637 61.8586 37.9178 61.5877 38.0309C61.318 38.144 61.0068 38.2006 60.6542 38.2006C60.2771 38.2006 59.944 38.1283 59.6548 37.9837C59.3716 37.8329 59.1337 37.6348 58.9384 37.3896C58.7432 37.1381 58.5955 36.8521 58.4955 36.5315C58.3942 36.2046 58.3442 35.8651 58.3442 35.5131C58.3442 35.1547 58.3881 34.8058 58.4759 34.4663C58.5638 34.1206 58.6993 33.8156 58.8823 33.5516C59.0702 33.2813 59.3094 33.0643 59.5986 32.9009C59.8939 32.7374 60.2466 32.6558 60.6542 32.6558C60.9068 32.6558 61.1423 32.6871 61.3619 32.7501C61.5877 32.8066 61.7891 32.8946 61.966 33.014C62.1417 33.1335 62.2894 33.2875 62.409 33.4762C62.5285 33.6585 62.6103 33.8785 62.6542 34.1362H63.5499C63.4865 33.7402 63.3669 33.4038 63.1912 33.1273C63.0216 32.8443 62.808 32.6117 62.5505 32.4294C62.2991 32.2471 62.0099 32.115 61.6829 32.0333C61.3619 31.9453 61.019 31.9014 60.6542 31.9014C60.1209 31.9014 59.6523 32.0019 59.2496 32.203C58.853 32.3979 58.5199 32.662 58.2502 32.9952C57.9854 33.3284 57.7853 33.7181 57.6461 34.1645C57.5144 34.6046 57.4485 35.0699 57.4485 35.5602C57.4485 36.0002 57.5205 36.4246 57.6657 36.8333C57.8097 37.2419 58.0208 37.6034 58.2966 37.9178C58.5736 38.232 58.9104 38.4835 59.3057 38.6722C59.7023 38.8545 60.1514 38.9456 60.6542 38.9456C61.0508 38.9456 61.4437 38.8702 61.833 38.7193C62.2235 38.5621 62.5505 38.3075 62.8141 37.9555ZM64.9337 32.0616V38.7947H69.3939V38.0403H65.8295V32.0616H64.9337ZM70.6923 35.4281C70.6923 35.0887 70.7363 34.7555 70.8241 34.4286C70.9132 34.0953 71.0511 33.7967 71.239 33.5328C71.4282 33.2687 71.6698 33.0581 71.9651 32.9009C72.2616 32.7374 72.6131 32.6558 73.0219 32.6558C73.4307 32.6558 73.7821 32.7374 74.0786 32.9009C74.3739 33.0581 74.6156 33.2687 74.8047 33.5328C74.9926 33.7967 75.1305 34.0953 75.2196 34.4286C75.3075 34.7555 75.3514 35.0887 75.3514 35.4281C75.3514 35.7676 75.3075 36.1041 75.2196 36.4372C75.1305 36.7641 74.9926 37.0595 74.8047 37.3236C74.6156 37.5877 74.3739 37.8014 74.0786 37.9649C73.7821 38.1221 73.4307 38.2006 73.0219 38.2006C72.6131 38.2006 72.2616 38.1221 71.9651 37.9649C71.6698 37.8014 71.4282 37.5877 71.239 37.3236C71.0511 37.0595 70.9132 36.7641 70.8241 36.4372C70.7363 36.1041 70.6923 35.7676 70.6923 35.4281ZM69.7966 35.4281C69.7966 35.8871 69.8625 36.3303 69.9943 36.7578C70.1334 37.179 70.3372 37.553 70.6081 37.88C70.8778 38.2069 71.2146 38.4678 71.6173 38.6627C72.0188 38.8513 72.4874 38.9456 73.0219 38.9456C73.5564 38.9456 74.0249 38.8513 74.4264 38.6627C74.8291 38.4678 75.1659 38.2069 75.4356 37.88C75.7065 37.553 75.9079 37.179 76.0396 36.7578C76.1775 36.3303 76.2471 35.8871 76.2471 35.4281C76.2471 34.9692 76.1775 34.5292 76.0396 34.1079C75.9079 33.6804 75.7065 33.3032 75.4356 32.9763C75.1659 32.6494 74.8291 32.3885 74.4264 32.1936C74.0249 31.9987 73.5564 31.9014 73.0219 31.9014C72.4874 31.9014 72.0188 31.9987 71.6173 32.1936C71.2146 32.3885 70.8778 32.6494 70.6081 32.9763C70.3372 33.3032 70.1334 33.6804 69.9943 34.1079C69.8625 34.5292 69.7966 34.9692 69.7966 35.4281ZM78.235 34.9566V32.816H80.0263C80.2216 32.816 80.4034 32.8287 80.5731 32.8538C80.7488 32.8726 80.9037 32.9198 81.0355 32.9952C81.1673 33.0707 81.271 33.1776 81.3467 33.3158C81.4224 33.4542 81.4602 33.6427 81.4602 33.8817C81.4602 34.2399 81.3467 34.5104 81.1197 34.6927C80.9001 34.8686 80.5352 34.9566 80.0263 34.9566H78.235ZM77.338 32.0616V38.7947H80.5926C80.9257 38.7947 81.2174 38.7412 81.4687 38.6345C81.7262 38.5212 81.941 38.3766 82.1106 38.2006C82.2863 38.0183 82.4181 37.8109 82.506 37.5783C82.5939 37.3456 82.6378 37.1068 82.6378 36.8615C82.6378 36.4466 82.528 36.0945 82.3083 35.8053C82.0887 35.5162 81.7714 35.3276 81.3565 35.2396V35.2207C81.6762 35.095 81.9215 34.9033 82.0911 34.6454C82.268 34.3815 82.3559 34.0702 82.3559 33.7119C82.3559 33.3724 82.2766 33.0864 82.1192 32.8538C81.9691 32.6211 81.7836 32.4388 81.5639 32.3067C81.4626 32.2439 81.3406 32.1968 81.1954 32.1653C81.0575 32.134 80.9062 32.1119 80.7427 32.0993C80.5791 32.0805 80.4132 32.0711 80.2436 32.0711C80.08 32.0648 79.9251 32.0616 79.7811 32.0616H77.338ZM78.235 38.0403V35.7111H80.2814C80.4693 35.7111 80.6524 35.7299 80.8281 35.7676C81.0038 35.7991 81.1576 35.8588 81.2894 35.9469C81.4285 36.0285 81.5383 36.1418 81.62 36.2864C81.7018 36.4309 81.7421 36.6133 81.7421 36.8333C81.7421 37.2105 81.6298 37.5059 81.4028 37.7197C81.1832 37.9334 80.8744 38.0403 80.4791 38.0403H78.235ZM84.9539 36.0129L86.0949 32.8726H86.1144L87.2358 36.0129H84.9539ZM85.6238 32.0616L83.0027 38.7947H83.9166L84.6708 36.7673H87.519L88.2548 38.7947H89.2444L86.6135 32.0616H85.6238ZM89.9095 32.0616V38.7947H94.3697V38.0403H90.8052V32.0616H89.9095ZM61.6731 45.0151H62.5224C62.509 44.6443 62.437 44.3268 62.3052 44.0627C62.1796 43.7924 62.0026 43.5692 61.7769 43.3932C61.5572 43.2172 61.2985 43.0883 61.0032 43.0065C60.7079 42.9248 60.3869 42.884 60.0416 42.884C59.7341 42.884 59.4314 42.9248 59.1361 43.0065C58.8469 43.0819 58.5858 43.2014 58.3539 43.3649C58.1269 43.5221 57.9451 43.7264 57.8072 43.9779C57.6681 44.223 57.5998 44.5154 57.5998 44.8549C57.5998 45.1629 57.6596 45.4206 57.7779 45.6281C57.9049 45.8293 58.0672 45.9959 58.2685 46.1279C58.4759 46.2536 58.709 46.3573 58.9665 46.4391C59.224 46.5145 59.4851 46.5837 59.7499 46.6465C60.0196 46.7032 60.2832 46.7598 60.5419 46.8163C60.7994 46.8729 61.0288 46.9483 61.2302 47.0427C61.4376 47.1306 61.6011 47.2469 61.7207 47.3915C61.8464 47.5361 61.9086 47.7248 61.9086 47.9574C61.9086 48.2025 61.8586 48.4038 61.7586 48.5609C61.6573 48.7181 61.5255 48.8438 61.3619 48.9381C61.1984 49.0261 61.0129 49.089 60.8055 49.1267C60.6041 49.1644 60.4028 49.1833 60.2014 49.1833C59.9501 49.1833 59.706 49.1518 59.4668 49.089C59.2277 49.0261 59.0165 48.9286 58.8347 48.7966C58.659 48.6647 58.5138 48.498 58.4003 48.2969C58.2941 48.0894 58.2404 47.8441 58.2404 47.5613H57.3923C57.3923 47.97 57.4643 48.3252 57.6083 48.6268C57.7596 48.9224 57.961 49.1676 58.2124 49.3624C58.4699 49.5511 58.7652 49.6925 59.0983 49.7869C59.4388 49.8811 59.7963 49.9283 60.1734 49.9283C60.4821 49.9283 60.7896 49.8906 61.0984 49.815C61.412 49.746 61.6951 49.6327 61.9465 49.4756C62.1978 49.3122 62.4029 49.1047 62.5591 48.8532C62.7226 48.5955 62.8043 48.2875 62.8043 47.9291C62.8043 47.5959 62.7421 47.3193 62.6164 47.0993C62.4968 46.8791 62.3333 46.6968 62.1259 46.5522C61.9245 46.4077 61.6951 46.2945 61.4376 46.2127C61.1801 46.1248 60.9153 46.0493 60.6456 45.9865C60.3808 45.9236 60.1209 45.867 59.8622 45.8167C59.6047 45.7601 59.3716 45.6909 59.1642 45.6093C58.9641 45.5275 58.8005 45.4238 58.6749 45.2981C58.5553 45.1661 58.4955 44.9963 58.4955 44.7889C58.4955 44.5688 58.5357 44.3864 58.6175 44.242C58.7054 44.091 58.8189 43.9715 58.9567 43.8836C59.102 43.7956 59.2655 43.7327 59.4473 43.6949C59.6304 43.6572 59.8158 43.6384 60.0038 43.6384C60.4687 43.6384 60.8494 43.7484 61.1447 43.9684C61.4474 44.1822 61.6231 44.531 61.6731 45.0151ZM63.8928 43.0442V49.7773H64.7898V46.6938H68.3347V49.7773H69.2304V43.0442H68.3347V45.9393H64.7898V43.0442H63.8928ZM71.8589 46.9956L72.9999 43.8552H73.0182L74.1409 46.9956H71.8589ZM72.5289 43.0442L69.9064 49.7773H70.8217L71.5758 47.7499H74.424L75.1598 49.7773H76.1495L73.5185 43.0442H72.5289ZM77.709 46.2694V43.7986H79.4638C79.9727 43.7986 80.3436 43.9055 80.5767 44.1193C80.8147 44.3268 80.9342 44.6317 80.9342 45.0341C80.9342 45.4364 80.8147 45.7444 80.5767 45.9582C80.3436 46.172 79.9727 46.2757 79.4638 46.2694H77.709ZM76.8133 43.0442V49.7773H77.709V47.0237H79.7652C80.4449 47.0301 80.9562 46.8572 81.3028 46.5051C81.6542 46.1531 81.83 45.6627 81.83 45.0341C81.83 44.4054 81.6542 43.9181 81.3028 43.5724C80.9562 43.2203 80.4449 43.0442 79.7652 43.0442H76.8133ZM82.9282 43.0442V49.7773H87.6056V49.023H83.8239V46.6938H87.3225V45.9393H83.8239V43.7986H87.5775V43.0442H82.9282ZM88.6929 43.0442V49.7773H89.5898V46.9012H91.7766C91.9974 46.9012 92.1732 46.9358 92.305 47.005C92.4368 47.0678 92.5441 47.1558 92.6259 47.269C92.7077 47.3758 92.7674 47.5047 92.8053 47.6556C92.8431 47.8002 92.8736 47.9542 92.8992 48.1177C92.931 48.2811 92.9493 48.4477 92.9554 48.6175C92.9627 48.7872 92.9688 48.9475 92.9749 49.0984C92.981 49.243 92.9932 49.375 93.0127 49.4945C93.0371 49.6139 93.0811 49.7083 93.1445 49.7773H94.1439C94.05 49.6642 93.978 49.5354 93.9267 49.3907C93.8828 49.2399 93.8486 49.0827 93.823 48.9192C93.7986 48.7558 93.7827 48.5891 93.7766 48.4194C93.7705 48.2497 93.7608 48.0831 93.7486 47.9197C93.729 47.7562 93.701 47.599 93.6631 47.4482C93.6314 47.2972 93.5777 47.1621 93.5033 47.0427C93.4337 46.917 93.3361 46.8101 93.2104 46.722C93.0908 46.634 92.9334 46.5711 92.7394 46.5334V46.5145C93.1482 46.4014 93.4435 46.1908 93.6253 45.8828C93.8145 45.5746 93.9084 45.2164 93.9084 44.8077C93.9084 44.2608 93.7266 43.8301 93.3617 43.5158C93.003 43.2014 92.5026 43.0442 91.862 43.0442H88.6929ZM91.4568 46.1468H89.5898V43.7986H91.8144C92.2366 43.7986 92.5405 43.9055 92.7296 44.1193C92.9188 44.3331 93.0127 44.6096 93.0127 44.9491C93.0127 45.1944 92.9688 45.3955 92.8809 45.5527C92.7992 45.7036 92.6857 45.8261 92.5405 45.9205C92.4026 46.0085 92.2391 46.0683 92.0511 46.0996C91.862 46.1311 91.6643 46.1468 91.4568 46.1468ZM99.0434 45.0151H99.8928C99.8793 44.6443 99.8073 44.3268 99.6755 44.0627C99.5498 43.7924 99.3741 43.5692 99.1471 43.3932C98.9275 43.2172 98.67 43.0883 98.3747 43.0065C98.0782 42.9248 97.7585 42.884 97.4119 42.884C97.1044 42.884 96.803 42.9248 96.5064 43.0065C96.2172 43.0819 95.9573 43.2014 95.7242 43.3649C95.4985 43.5221 95.3154 43.7264 95.1775 43.9779C95.0396 44.223 94.9701 44.5154 94.9701 44.8549C94.9701 45.1629 95.0299 45.4206 95.1495 45.6281C95.2752 45.8293 95.4387 45.9959 95.64 46.1279C95.8475 46.2536 96.0793 46.3573 96.3368 46.4391C96.5955 46.5145 96.8554 46.5837 97.1202 46.6465C97.3899 46.7032 97.6547 46.7598 97.9122 46.8163C98.1697 46.8729 98.3991 46.9483 98.6005 47.0427C98.8079 47.1306 98.9714 47.2469 99.091 47.3915C99.2167 47.5361 99.2789 47.7248 99.2789 47.9574C99.2789 48.2025 99.2289 48.4038 99.1288 48.5609C99.0276 48.7181 98.8958 48.8438 98.7323 48.9381C98.5687 49.0261 98.3832 49.089 98.1758 49.1267C97.9744 49.1644 97.7743 49.1833 97.573 49.1833C97.3216 49.1833 97.0763 49.1518 96.8371 49.089C96.5979 49.0261 96.3881 48.9286 96.205 48.7966C96.0293 48.6647 95.8841 48.498 95.7718 48.2969C95.6644 48.0894 95.6107 47.8441 95.6107 47.5613H94.7626C94.7626 47.97 94.8346 48.3252 94.9798 48.6268C95.1299 48.9224 95.3313 49.1676 95.5827 49.3624C95.8401 49.5511 96.1355 49.6925 96.4698 49.7869C96.8091 49.8811 97.1666 49.9283 97.5449 49.9283C97.8524 49.9283 98.1599 49.8906 98.4687 49.815C98.7823 49.746 99.0654 49.6327 99.3168 49.4756C99.5682 49.3122 99.7732 49.1047 99.9306 48.8532C100.094 48.5955 100.176 48.2875 100.176 47.9291C100.176 47.5959 100.112 47.3193 99.9867 47.0993C99.8671 46.8791 99.7036 46.6968 99.4961 46.5522C99.2948 46.4077 99.0654 46.2945 98.8079 46.2127C98.5504 46.1248 98.2856 46.0493 98.0159 45.9865C97.7523 45.9236 97.4912 45.867 97.2325 45.8167C96.975 45.7601 96.7432 45.6909 96.5357 45.6093C96.3344 45.5275 96.1709 45.4238 96.0452 45.2981C95.9256 45.1661 95.8658 44.9963 95.8658 44.7889C95.8658 44.5688 95.906 44.3864 95.9878 44.242C96.0769 44.091 96.1892 43.9715 96.3283 43.8836C96.4723 43.7956 96.6358 43.7327 96.8176 43.6949C97.0007 43.6572 97.1861 43.6384 97.3741 43.6384C97.8402 43.6384 98.2197 43.7484 98.515 43.9684C98.8177 44.1822 98.9934 44.531 99.0434 45.0151ZM62.5127 56.0544H63.4084C63.3583 55.696 63.251 55.3817 63.0874 55.1114C62.9239 54.8347 62.7201 54.6053 62.4749 54.423C62.2296 54.2407 61.9501 54.1023 61.6353 54.0081C61.3217 53.9138 60.9873 53.8667 60.6359 53.8667C60.1209 53.8667 59.6609 53.9609 59.2594 54.1495C58.8628 54.3318 58.5296 54.5833 58.26 54.9039C57.9952 55.2246 57.7938 55.6018 57.6559 56.0355C57.518 56.4631 57.4485 56.9219 57.4485 57.4124C57.4485 57.9027 57.5119 58.3616 57.6376 58.7891C57.7694 59.2167 57.9634 59.5875 58.2221 59.9019C58.4796 60.2162 58.803 60.4646 59.1935 60.6469C59.5828 60.823 60.0391 60.9109 60.5602 60.9109C61.4217 60.9109 62.1002 60.6752 62.5969 60.2037C63.0935 59.7321 63.3864 59.0721 63.4743 58.2234H62.5786C62.5591 58.5 62.5029 58.7577 62.409 58.9965C62.315 59.2355 62.182 59.4429 62.0124 59.619C61.8488 59.7888 61.6512 59.9238 61.4181 60.0245C61.1923 60.1187 60.9312 60.166 60.6359 60.166C60.2332 60.166 59.8878 60.0905 59.5986 59.9396C59.3094 59.7888 59.0702 59.5875 58.8823 59.336C58.6993 59.0783 58.5638 58.7797 58.4759 58.4402C58.3881 58.0945 58.3442 57.7299 58.3442 57.3463C58.3442 56.9943 58.3881 56.6548 58.4759 56.3279C58.5638 56.001 58.6993 55.7118 58.8823 55.4603C59.0702 55.2025 59.3058 54.9982 59.5889 54.8473C59.8781 54.6965 60.2246 54.6211 60.6261 54.6211C61.0984 54.6211 61.5035 54.7405 61.8428 54.9793C62.1881 55.2183 62.4114 55.5767 62.5127 56.0544ZM65.1021 57.3934C65.1021 57.054 65.1473 56.7208 65.2352 56.3939C65.323 56.0606 65.4609 55.762 65.6501 55.4981C65.838 55.234 66.0808 55.0234 66.3761 54.8662C66.6715 54.7027 67.0229 54.6211 67.4317 54.6211C67.8405 54.6211 68.1932 54.7027 68.4885 54.8662C68.7838 55.0234 69.0254 55.234 69.2146 55.4981C69.4025 55.762 69.5416 56.0606 69.6294 56.3939C69.7173 56.7208 69.7612 57.054 69.7612 57.3934C69.7612 57.7329 69.7173 58.0694 69.6294 58.4025C69.5416 58.7294 69.4025 59.0248 69.2146 59.2889C69.0254 59.553 68.7838 59.7667 68.4885 59.9302C68.1932 60.0874 67.8405 60.166 67.4317 60.166C67.0229 60.166 66.6715 60.0874 66.3761 59.9302C66.0808 59.7667 65.838 59.553 65.6501 59.2889C65.4609 59.0248 65.323 58.7294 65.2352 58.4025C65.1473 58.0694 65.1021 57.7329 65.1021 57.3934ZM64.2065 57.3934C64.2065 57.8524 64.2723 58.2956 64.4054 58.7231C64.5433 59.1443 64.747 59.5183 65.0179 59.8453C65.2876 60.1722 65.6244 60.4331 66.0271 60.628C66.4286 60.8166 66.8972 60.9109 67.4317 60.9109C67.9662 60.9109 68.4348 60.8166 68.8375 60.628C69.2389 60.4331 69.5758 60.1722 69.8454 59.8453C70.1163 59.5183 70.3177 59.1443 70.4495 58.7231C70.5874 58.2956 70.6569 57.8524 70.6569 57.3934C70.6569 56.9345 70.5874 56.4944 70.4495 56.0732C70.3177 55.6457 70.1163 55.2685 69.8454 54.9416C69.5758 54.6147 69.2389 54.3538 68.8375 54.1589C68.4348 53.9641 67.9662 53.8667 67.4317 53.8667C66.8972 53.8667 66.4286 53.9641 66.0271 54.1589C65.6244 54.3538 65.2876 54.6147 65.0179 54.9416C64.747 55.2685 64.5433 55.6457 64.4054 56.0732C64.2723 56.4944 64.2065 56.9345 64.2065 57.3934ZM71.7674 54.0269V60.76H72.6167V55.1586H72.635L74.7376 60.76H75.5015L77.6053 55.1586H77.6236V60.76H78.4729V54.0269H77.2465L75.1147 59.685L72.9938 54.0269H71.7674ZM79.9824 54.0269V60.76H80.8305V55.1586H80.85L82.9526 60.76H83.7165L85.8191 55.1586H85.8386V60.76H86.6867V54.0269H85.4615L83.3297 59.685L81.2076 54.0269H79.9824ZM93.5533 58.3271V54.0269H92.6576V58.3271C92.6576 58.9306 92.5063 59.3895 92.2049 59.7038C91.9084 60.012 91.4752 60.166 90.9028 60.166C90.3 60.166 89.8375 60.012 89.5166 59.7038C89.1956 59.3895 89.0358 58.9306 89.0358 58.3271V54.0269H88.1401V58.3271C88.1401 59.2261 88.3817 59.8831 88.8662 60.298C89.3567 60.7065 90.0352 60.9109 90.9028 60.9109C91.7522 60.9109 92.405 60.6971 92.8651 60.2697C93.3239 59.8359 93.5533 59.1884 93.5533 58.3271ZM94.9737 54.0269V60.76H95.8231V55.3565H95.8414L99.3583 60.76H100.339V54.0269H99.4913V59.487H99.4718L95.9268 54.0269H94.9737ZM101.827 54.0269V60.76H102.723V54.0269H101.827ZM105.757 54.7813V60.76H106.653V54.7813H108.897V54.0269H103.512V54.7813H105.757ZM112.426 58.0064L115 54.0269H113.982L112.011 57.2332L109.993 54.0269H108.928L111.531 58.0064V60.76H112.426V58.0064Z" fill="#2B67DD"/>
<path d="M47.3308 92.6698C47.0624 90.6662 47.0306 88.6485 46.9721 86.6348C46.9062 84.3539 46.9525 82.071 46.944 79.7882C46.944 79.3461 46.9306 78.8746 47.5334 78.8687C48.3058 78.859 48.3681 78.3736 48.2924 77.8099C48.196 77.1065 48.4535 76.7666 49.1796 76.7705C49.4737 76.7613 49.7653 76.7204 50.0496 76.6488C51.0015 76.4424 51.6568 76.6134 51.6787 77.7764C51.6787 78.2264 51.9435 78.519 52.4646 78.3658C53.1663 78.1694 53.3493 78.6252 53.3884 79.1418C53.4726 80.2479 54.1035 80.5387 55.1065 80.4934C55.9778 80.4541 57.0053 80.2008 57.2896 81.5072C57.3348 81.7193 57.563 81.7666 57.7729 81.7351C57.934 81.7096 58.0914 81.6683 58.2525 81.6388C59.0066 81.5032 59.7986 80.8 60.4649 81.1988C61.0933 81.5759 61.1324 82.5602 61.4313 83.2753C62.0976 84.8667 62.6968 86.4856 63.396 88.0611C63.7194 88.7959 63.5729 89.179 62.8578 89.4972C60.4002 90.5975 57.7826 91.1318 55.1737 91.6917C53.4482 92.0417 51.7031 92.285 49.9484 92.4206C49.7226 92.4403 49.4017 92.2968 49.2955 92.6685L47.3308 92.6698Z" fill="#2B67DD"/>
<path d="M7.20641 48.7124C9.13179 48.7124 11.057 48.7321 12.9805 48.7026C13.6425 48.6928 13.945 48.85 14.0512 49.5925C14.3537 51.7084 14.3988 51.6907 16.6051 51.4197C18.1257 51.233 19.6522 51.0954 21.1708 50.899C21.8859 50.8087 22.1433 51.0857 22.0373 51.7673C21.9665 52.2173 21.9155 52.673 21.8172 53.1171C21.6424 53.8931 21.9803 54.06 22.6561 53.8656C23.1807 53.7124 23.6639 53.5649 23.8958 54.3195C24.1276 55.0738 23.6384 55.2388 23.1492 55.4491C17.0138 58.0935 10.9903 60.9853 5.04148 64.0207C4.29686 64.3998 4.00996 64.2564 3.70355 63.4784C2.01222 59.1663 0.942023 54.6359 0.524805 50.0228C0.404972 48.7261 0.432423 48.7045 1.7252 48.7105C3.55223 48.7125 5.37938 48.7124 7.20641 48.7124Z" fill="#2B67DD"/>
<path d="M42.4582 6.79611C42.7645 7.6508 42.2849 7.92781 41.4991 8.00042C40.884 8.05936 40.2678 8.13794 39.6589 8.24216C38.8632 8.37761 38.0688 8.51318 38.2738 9.67039C38.3495 10.1065 37.9468 10.2598 37.5856 10.36C36.8644 10.5564 36.1322 10.7352 35.4244 10.9906C34.8472 11.2008 34.5727 11.0023 34.3933 10.4759C34.1395 9.73714 33.8234 9.01814 33.6074 8.26766C33.411 7.56038 33.0375 7.54464 32.4286 7.76466C31.8197 7.9848 31.4011 8.21263 31.6916 8.94346C32.4481 10.8492 33.1657 12.7725 33.9747 14.6585C34.3677 15.5583 34.4421 16.1968 33.317 16.5249C32.8887 16.6506 32.7081 17.0023 32.9045 17.46C33.2108 18.1772 32.8447 18.5602 32.2346 18.8353C31.9673 18.9551 31.716 19.1084 31.4597 19.2518C29.7196 20.2341 29.7232 20.2341 28.6701 18.5896C26.5093 15.2146 24.3738 11.8197 22.1459 8.48573C21.5565 7.61932 21.753 7.24408 22.5389 6.75486C26.5899 4.22836 31.0265 2.64491 35.5819 1.3542C37.2842 0.875605 39.0231 0.544296 40.7828 0.364058C41.554 0.281566 41.8151 0.560525 41.8786 1.31101C42.0262 3.13608 42.2556 4.93955 42.4582 6.79611Z" fill="#2B67DD"/>
<path d="M55.4984 0.930581C57.8108 1.35829 60.0842 1.97674 62.2942 2.77921C65.5402 3.97339 68.6519 5.50778 71.5745 7.35677C72.3177 7.82049 72.386 8.1662 71.871 8.86957C70.8326 10.29 69.8344 11.7476 68.924 13.2526C68.4237 14.0777 67.9417 14.1426 67.2071 13.6454C66.6714 13.2762 66.082 12.9834 65.5389 12.6239C64.8897 12.1917 64.4565 12.231 64.099 13.0169C63.6414 14.0228 63.0361 14.9637 62.5773 15.9638C62.2649 16.6514 61.9208 16.6847 61.296 16.3567C59.6998 15.536 58.028 14.8715 56.3037 14.3724C55.6729 14.1916 55.5008 13.9068 55.7595 13.3291C56.1903 12.3666 55.6753 12.0876 54.8284 11.9108C53.1627 11.565 53.1249 11.5179 53.4214 9.84008C53.9132 7.04633 54.4684 4.2665 54.9932 1.47862C55.0566 1.1251 55.1249 0.806721 55.4984 0.930581Z" fill="#2B67DD"/>
<path d="M59.8669 66.1748C60.4233 67.3635 61.2837 66.7642 62.1208 66.5893C62.4124 66.5285 62.5894 66.8998 62.7651 67.1297C66.6139 72.1473 70.4627 77.1649 74.3103 82.1825C74.6605 82.6363 74.7508 82.9153 74.198 83.3298C71.7818 85.1624 69.1728 86.7255 66.4162 87.9918C65.6865 88.3239 65.3326 88.2177 64.9982 87.4692C62.4625 81.7561 59.9047 76.0529 57.325 70.3594C57.1127 69.886 56.9321 69.4479 57.4959 69.0805C57.6679 68.9666 57.796 68.7367 57.6923 68.5698C57.0846 67.5265 57.9278 67.2966 58.5685 66.9371C58.9712 66.7152 59.358 66.4755 59.8669 66.1748Z" fill="#2B67DD"/>
<path d="M8.53174 46.8953C5.84221 46.9464 3.47484 47.2195 1.09966 47.1429C0.484751 47.1213 0.2352 46.9778 0.274493 46.302C0.553452 41.5713 1.0722 36.8857 2.53192 32.3395C2.81283 31.4614 3.14084 31.2001 4.05838 31.5341C6.75182 32.5163 9.46892 33.4397 12.1919 34.3396C12.9776 34.5969 13.2606 34.9426 12.9286 35.76C12.6864 36.4346 12.4811 37.1218 12.3137 37.8189C12.1526 38.3788 12.1388 38.8758 12.8873 38.9976C13.4551 39.088 13.518 39.4809 13.4532 39.9465C13.2567 41.3355 13.0602 42.7225 12.8854 44.1134C12.8303 44.5516 12.5985 44.7833 12.1958 44.7853C11.4689 44.7853 11.188 45.1331 11.3058 45.8285C11.4453 46.6517 11.0621 46.9484 10.2783 46.915C9.58876 46.8718 8.90308 46.8953 8.53174 46.8953Z" fill="#2B67DD"/>
<path d="M45.6958 76.1586C45.7447 81.243 45.2907 86.3176 45.4835 91.4021C45.5104 92.125 45.2065 92.4099 44.5109 92.4C41.3784 92.3435 38.2655 91.8887 35.2477 91.0465C34.6583 90.8854 34.4618 90.4983 34.6131 89.9305C35.2635 87.4414 35.9298 84.9582 36.7303 82.5122C36.9268 81.8835 37.3027 81.8049 37.8591 82.0053C38.7292 82.3197 39.1734 82.0172 39.3454 81.08C39.6566 79.3845 40.0825 77.7088 40.4205 76.0172C40.5499 75.3669 40.7463 74.9701 41.5127 75.2216C42.1216 75.4181 42.3303 75.0368 42.4011 74.5162C42.5463 73.418 42.7037 72.3198 42.8355 71.2196C42.9075 70.6008 42.9758 70.0723 43.8349 70.0939C45.2492 70.1332 45.6507 70.3022 45.68 71.2727C45.7251 72.8955 45.6958 74.528 45.6958 76.1586Z" fill="#2B67DD"/>
<path d="M25.8359 33.4357C25.722 33.6616 25.5844 33.9209 25.4587 34.1862C25.1129 34.9209 24.6867 35.634 24.4529 36.4042C24.2053 37.2175 23.7947 37.2175 23.1385 36.966C19.4555 35.5633 15.7673 34.1743 12.0738 32.7991C9.48057 31.8168 6.88928 30.8483 4.28224 29.9111C3.63975 29.6813 3.48453 29.4376 3.78716 28.7834C4.76938 26.6518 5.75171 24.5262 6.95797 22.4967C7.30966 21.9073 7.61425 21.7266 8.26247 22.1372C13.9442 25.7245 19.635 29.2956 25.335 32.8502C25.5492 32.9838 25.8221 33.0683 25.8359 33.4357Z" fill="#2B67DD"/>
<path d="M29.8867 74.5259C29.8086 74.6693 29.7036 74.8697 29.5901 75.0623C28.4943 76.913 27.4113 78.7695 26.2895 80.6025C25.928 81.1918 25.8062 81.6143 26.5252 82.0386C27.3111 82.5003 27.6132 82.0524 27.8353 81.461C28.1819 80.5494 28.6505 80.3746 29.5352 80.8716C31.0081 81.7086 32.6238 82.2469 34.2089 82.848C34.7349 83.0444 35.0363 83.2409 34.8081 83.9089C34.1638 85.7871 33.578 87.6849 32.9716 89.5749C32.8178 90.0542 32.6506 90.3607 32.0124 90.117C27.7218 88.4452 23.5449 86.5474 19.7454 83.9128C17.8476 82.5966 17.8653 82.5749 19.2503 80.8166C21.429 78.0504 23.6157 75.2922 25.7708 72.5083C26.1638 71.9936 26.4723 71.8639 27.0242 72.2961C27.7938 72.8973 28.6249 73.416 29.429 73.9758C29.6072 74.1055 29.8488 74.1782 29.8867 74.5259Z" fill="#2B67DD"/>
<path d="M19.1711 67.183C17.9923 68.2596 18.0768 69.4285 18.4285 70.6937C18.8214 72.1239 18.957 73.5974 18.4187 75.0276C18.179 75.6643 18.6407 75.8351 18.9747 76.1043C20.3047 77.1769 20.3086 77.1711 19.1986 78.4756C18.566 79.2221 17.8882 79.9353 17.3146 80.7251C16.8096 81.4186 16.4501 81.338 15.8529 80.8076C11.811 77.2243 8.44816 72.9417 5.92569 68.1653C4.74701 65.9374 4.74701 65.9335 7.05532 64.8667C7.49938 64.6703 7.95711 64.4738 8.38739 64.2518C9.08283 63.8824 9.73118 63.4659 10.0926 64.6447C10.2204 65.0632 10.7174 65.1476 11.0985 65.0986C12.9315 64.8589 14.407 65.7036 15.8136 66.6702C16.6171 67.2242 17.3617 67.5975 18.3322 67.1791C18.5129 67.1104 18.7625 67.183 19.1711 67.183Z" fill="#2B67DD"/>
<path d="M8.51099 20.1353C8.59153 19.9977 8.69171 19.7974 8.82142 19.6146C11.7625 15.4491 15.3716 11.7981 19.5029 8.80922C20.0059 8.44776 20.2691 8.43398 20.6405 8.98018C22.3431 11.4857 24.0772 13.9742 25.8427 16.4457C26.2101 16.9604 26.1315 17.2826 25.7308 17.7031C25.0235 18.4251 24.3547 19.1839 23.7268 19.9761C23.2063 20.65 22.7563 20.5458 22.3359 19.9643C21.4184 18.6952 21.1198 19.1391 20.3084 19.7914C19.1906 20.6893 18.0826 21.6047 17.0334 22.5812C16.4558 23.1175 15.9726 23.2983 15.3753 22.6912C14.7113 22.0154 14.0885 21.872 13.4539 22.76C13.1238 23.2216 12.6563 23.2825 12.1652 22.9407C11.0669 22.1784 9.96484 21.424 8.86658 20.6617C8.76627 20.613 8.68061 20.5386 8.61813 20.4462C8.55565 20.3537 8.5188 20.2466 8.51099 20.1353Z" fill="#2B67DD"/>
<path d="M47.1212 0.00511653C48.9858 -0.030272 50.8223 0.291885 52.6711 0.453086C53.341 0.512027 53.4569 0.824301 53.3678 1.41968C52.8443 4.83285 52.333 8.24735 51.8364 11.6631C51.7571 12.2034 51.5142 12.4352 50.9602 12.502C48.3964 12.8084 48.8637 12.3665 48.2658 15.0285C48.2182 15.1501 48.1865 15.2776 48.1718 15.4077C48.2951 17.3232 47.0711 17.8949 45.486 18.1856C44.8758 18.2976 44.6135 18.2661 44.5707 17.5471C44.2657 12.4077 43.9106 7.27026 43.5884 2.1288C43.4664 0.121046 43.4957 0.113113 45.5531 0.00902212C46.0754 -0.00867215 46.5976 0.00511653 47.1212 0.00511653Z" fill="#2B67DD"/>
<path d="M77.8127 26.8832C77.7615 26.7472 77.6992 26.6158 77.626 26.4902C77.31 26.0148 76.9549 25.6847 76.3472 26.1111C75.9981 26.3566 75.8127 26.0364 75.6406 25.8125C75.2196 25.2721 74.8242 24.7123 74.4057 24.1701C74.0762 23.7437 73.7247 23.3685 74.3044 22.838C74.5777 22.5905 74.4594 22.2113 74.1799 21.9716C73.5478 21.4255 73.7675 20.9894 74.2922 20.5237C74.856 20.0287 75.3673 19.4707 75.9518 19.0031C76.5375 18.5355 76.4472 18.2172 75.986 17.7321C74.5631 16.2467 73.0243 14.8775 71.383 13.6377C70.8302 13.2212 70.8034 12.9088 71.228 12.3785C71.9602 11.4629 72.6338 10.4983 73.3038 9.53375C73.6186 9.07993 73.8822 8.92471 74.3923 9.31569C78.7731 12.6342 82.5316 16.7021 85.4945 21.3312C85.7556 21.7399 85.7849 21.9834 85.3273 22.2644C82.9941 23.6986 80.6731 25.1562 78.3472 26.6042C78.2386 26.6729 78.1178 26.726 77.8127 26.8832Z" fill="#2B67DD"/>
<path d="M76.2473 81.5521C75.8544 81.5874 75.6921 81.3753 75.5261 81.1749C73.8604 79.171 72.2045 77.1572 70.529 75.1612C70.169 74.7348 70.2459 74.4422 70.6401 74.1003C71.9238 72.993 73.127 71.7976 74.2436 70.5227C74.6975 70.0021 75.0587 69.9766 75.5261 70.4305C75.7128 70.6112 75.9337 70.7585 76.1155 70.9373C76.6232 71.4127 77.1357 71.5129 77.6421 70.9589C78.1985 70.3498 78.7135 70.4186 79.3285 70.9137C80.4671 71.8311 81.6459 72.7094 82.8247 73.5738C83.2921 73.9117 83.375 74.1965 83.0114 74.6799C81.1883 77.1044 79.0857 79.3056 76.7464 81.2378C76.589 81.3558 76.4218 81.461 76.2473 81.5521Z" fill="#2B67DD"/>
</svg>
