<svg width="676" height="75" viewBox="0 0 676 75" fill="none" xmlns="http://www.w3.org/2000/svg">
<path d="M55.9521 37.005C57.4033 35.9103 58.6403 34.6253 59.6632 33.1736C61.5902 30.2942 62.5655 26.6294 62.5655 22.2269C62.5655 19.2523 62.0659 16.4204 61.0668 13.8265C60.0439 11.1374 58.45 8.82909 56.3565 6.97291C54.1917 5.09293 51.5273 3.6413 48.4585 2.64182C45.3422 1.68993 41.6786 1.19019 37.5155 1.19019H2.85471H0V4.04585V70.3211V73.1767H2.85471H37.801C42.0592 73.1767 45.7704 72.6532 48.7678 71.6299C51.8842 70.6304 54.5486 69.1788 56.6182 67.3226C58.783 65.3474 60.3769 63.0629 61.3761 60.469C62.3514 57.8037 62.8272 54.9957 62.8272 52.0686C62.8272 47.6185 61.7805 43.8586 59.7584 40.9553C58.7117 39.4799 57.4508 38.1472 55.9521 37.005ZM17.0806 18.2766H37.8961C40.5843 18.2766 42.5826 18.8239 43.6769 19.8472C44.6998 20.8705 45.1994 22.2269 45.1994 24.0831C45.1994 25.8679 45.1994 29.1757 37.8248 29.1757H17.1044V18.2766H17.0806ZM43.9148 54.5197C42.8681 55.4954 40.846 55.9951 38.0627 55.9951H17.0568V44.5249H38.0627C44.5333 44.5249 45.4373 47.2616 45.4373 50.2362C45.4611 52.1638 44.9615 53.5678 43.9148 54.5197Z" fill="#F4F4F4"/>
<path d="M99.9388 55.8989C97.655 55.8989 95.7519 55.6609 94.3246 55.1611C92.9924 54.709 91.9456 54.1141 91.2082 53.4002C90.5183 52.7338 90.0187 51.9247 89.757 50.9966C89.424 49.8544 89.2337 48.6407 89.2337 47.3557V4.06856V1.21289H86.379H74.7937H71.939V4.06856V47.4747C71.939 51.0918 72.4385 54.471 73.3901 57.5171C74.413 60.7059 76.0545 63.514 78.3382 65.8461C80.5982 68.1782 83.5243 70.0106 87.0213 71.2957C90.4231 72.5569 94.5387 73.1994 99.2489 73.1994H125.655H128.51V70.3438V58.7545V55.8989H125.655H99.9388V55.8989Z" fill="#F4F4F4"/>
<path d="M176.039 1.21289H166.999C156.532 1.21289 148.349 4.28273 142.687 10.3748C137.072 16.3955 134.218 25.486 134.218 37.3608C134.218 49.1881 137.072 58.2072 142.711 64.1565C148.372 70.1534 156.556 73.1994 167.023 73.1994H176.063C186.53 73.1994 194.69 70.1534 200.375 64.1565C206.013 58.2072 208.868 49.1881 208.868 37.3608C208.868 25.4622 206.013 16.3955 200.399 10.3748C194.69 4.28273 186.506 1.21289 176.039 1.21289ZM187.767 51.8295C185.436 54.5424 181.487 55.8989 176.039 55.8989H166.999C161.409 55.8989 157.412 54.5424 155.128 51.8771C152.726 49.0929 151.512 44.1906 151.512 37.337C151.512 30.4121 152.75 25.4622 155.2 22.6066C157.531 19.8699 161.504 18.4897 167.023 18.4897H176.063C181.558 18.4897 185.531 19.8699 187.839 22.5828C190.265 25.4384 191.478 30.3645 191.478 37.2419C191.454 44.1192 190.217 49.0215 187.767 51.8295Z" fill="#F4F4F4"/>
<path d="M247.407 1.21289C236.94 1.21289 228.78 4.28273 223.094 10.3034C217.456 16.3003 214.625 25.3671 214.625 37.2419C214.625 49.0691 217.48 58.112 223.094 64.0851C228.78 70.1296 236.94 73.1756 247.407 73.1756H273.028H275.883V70.32V58.7307V55.8751H273.028H247.407C241.84 55.8751 237.844 54.5186 235.536 51.8057C233.133 48.9739 231.896 44.0717 231.896 37.2181C231.896 30.2931 233.133 25.3671 235.56 22.5352C237.891 19.8461 241.864 18.4659 247.383 18.4659H273.004H275.859V15.6102V4.06856V1.21289H273.004H247.407Z" fill="#F4F4F4"/>
<path d="M341.279 48.2135C340.256 46.2145 339.257 44.4773 338.281 43.0019C337.258 41.4313 336.164 40.051 335.022 38.9088C334.047 37.9331 332.976 37.0764 331.858 36.3387C332.81 35.6009 333.666 34.768 334.428 33.8876C336.259 31.7696 338.02 29.1043 339.614 25.9631L350.033 5.3309L352.127 1.19019H347.488H335.022H333.286L332.501 2.737L322.39 22.5839C321.558 24.2735 320.773 25.5823 320.059 26.5342C319.512 27.2719 318.846 27.8193 318.061 28.2C317.204 28.6284 316.039 28.9139 314.611 29.0329C312.898 29.1995 310.662 29.2709 307.95 29.2709H304.429V4.06965V1.21398H301.575H289.989H287.135V4.06965V70.3449V73.2005H289.989H301.575H304.429V70.3449V45.5006H307.95C310.995 45.5006 313.493 45.572 315.373 45.7386C317.014 45.8813 318.346 46.1669 319.345 46.6191C320.249 47.0236 320.963 47.5709 321.534 48.2611C322.248 49.1416 323.033 50.4028 323.865 51.9972L333.976 71.6299L334.761 73.1767H336.497H349.462H354.125L351.984 69.0122L341.279 48.2135Z" fill="#F4F4F4"/>
<path d="M418.452 35.814C416.525 33.6961 413.884 31.9589 410.625 30.65C407.414 29.3888 403.346 28.7225 398.493 28.7225H382.863C381.174 28.7225 379.818 28.5559 378.843 28.2227C377.963 27.9134 377.273 27.5326 376.821 27.0567C376.369 26.6045 376.059 26.1048 375.893 25.5574C375.679 24.8435 375.56 24.1296 375.56 23.3919C375.56 21.7499 376.012 20.4648 376.94 19.4653C377.82 18.5373 379.414 18.0613 381.674 18.0613H415.906H418.499V15.4674V3.78299V1.21289H415.906H382.054C378.082 1.21289 374.585 1.73643 371.682 2.8073C368.685 3.90198 366.187 5.4488 364.236 7.44776C362.286 9.44673 360.834 11.8264 359.954 14.5393C359.122 17.1332 358.693 19.9889 358.693 23.0111C358.693 25.5336 359.05 28.1037 359.716 30.6262C360.454 33.3153 361.762 35.7426 363.642 37.8844C365.521 40.0261 368.114 41.7633 371.325 43.0484C374.489 44.3096 378.391 44.9046 383.268 44.9046H398.802C400.562 44.9046 401.99 45.0949 403.06 45.4519C404.036 45.7851 404.821 46.2134 405.32 46.7131C405.796 47.1653 406.129 47.6888 406.343 48.3076C406.581 49.0691 406.724 49.8306 406.724 50.6397C406.724 52.4007 406.224 53.7809 405.225 54.8518C404.25 55.8751 402.537 56.3748 400.11 56.3748H362.5H359.907V58.9687V70.6531V73.247H362.5H399.706C403.821 73.247 407.414 72.6997 410.34 71.605C413.361 70.4866 415.883 68.8921 417.857 66.8694C419.855 64.8466 421.307 62.4193 422.234 59.6826C423.114 57.0649 423.543 54.1617 423.543 51.0442C423.543 48.4503 423.186 45.8326 422.52 43.2626C421.758 40.4545 420.403 37.9558 418.452 35.814Z" fill="#F4F4F4"/>
<path d="M431.891 1.21289H429.298V3.78299V15.4674V18.0613H431.891H448.805V70.6055V73.1994H451.375H463.15H465.743V70.6055V18.0613H482.657H485.227V15.4674V3.78299V1.21289H482.657H431.891Z" fill="#F4F4F4"/>
<path d="M515.869 56.351C513.109 56.351 511.135 55.8275 509.969 54.7804C508.875 53.8047 508.352 52.4007 508.352 50.5207C508.352 47.784 509.255 44.9759 515.964 44.9759H549.102H551.695V42.3821V31.7923V29.1984H549.102H516.249C508.637 29.1984 508.637 25.605 508.637 23.8678C508.637 22.0116 509.16 20.6076 510.207 19.5843C511.278 18.5611 513.323 18.0375 516.131 18.0375H549.578H552.171V15.4436V3.75919V1.21289H549.578H516.131C511.92 1.21289 508.233 1.71263 505.211 2.66452C502.071 3.664 499.43 5.09183 497.361 6.94802C495.244 8.828 493.65 11.1125 492.651 13.754C491.675 16.2765 491.199 19.0608 491.199 22.0116C491.199 28.6273 493.531 33.7437 497.979 37.0753C496.362 38.2889 494.982 39.7644 493.888 41.4302C491.961 44.381 490.985 48.0696 490.985 52.4007C490.985 55.2563 491.461 57.993 492.389 60.5155C493.364 63.157 494.934 65.4653 497.052 67.3453C499.121 69.2015 501.762 70.6531 504.878 71.6764C507.923 72.6759 511.611 73.1994 515.821 73.1994H549.673H552.266V70.6055V58.9211V56.3272H549.673H515.869V56.351Z" fill="#F4F4F4"/>
<path d="M674.091 69.702L653.418 14.0641C651.991 9.89964 649.873 6.49664 647.162 3.99793C644.283 1.35644 640.239 0 635.172 0C629.486 0 625.133 1.64201 622.183 4.85463C619.304 7.99586 617.853 12.1366 617.853 17.134V56.6374C617.853 57.2799 617.663 57.494 617.568 57.5892C617.425 57.7558 617.282 57.8272 616.973 57.8272C616.473 57.8272 616.307 57.6844 616.236 57.6368C615.974 57.4227 615.784 57.1371 615.617 56.7087L599.369 14.0641C598.037 9.94723 595.991 6.54423 593.327 4.04553C590.496 1.38024 586.452 0.0237978 581.313 0.0237978C575.556 0.0237978 571.155 1.66581 568.229 4.87843C565.351 8.04346 563.899 12.1604 563.899 17.1578V70.6063V73.2002H566.492H578.173H580.766V70.6063V17.7527C580.766 17.3958 580.814 16.9198 581.051 16.658C581.099 16.5867 581.218 16.4677 581.67 16.4677C581.955 16.4677 582.098 16.5391 582.241 16.658C582.526 16.896 582.764 17.2292 582.931 17.6813L599.155 60.3259C600.582 64.4666 602.676 67.8696 605.34 70.3445C608.195 73.0098 612.215 74.3425 617.282 74.3425C622.968 74.3425 627.345 72.7243 630.319 69.5116C633.245 66.3704 634.72 62.1821 634.72 57.1133V17.7527C634.72 17.3958 634.767 16.9198 635.005 16.658C635.077 16.5629 635.172 16.4677 635.505 16.4677C635.957 16.4677 636.1 16.5867 636.171 16.658C636.456 16.896 636.694 17.2292 636.861 17.6813L656.725 71.4868L657.343 73.1764H659.151H671.712H675.423L674.091 69.702Z" fill="#F4F4F4"/>
</svg>
