<svg width="860" height="180" fill="none" xmlns="http://www.w3.org/2000/svg"><path d="M102.472 89.979a19.938 19.938 0 0 0 4.31-4.45c2.238-3.344 3.371-7.6 3.371-12.714 0-3.455-.58-6.744-1.741-9.756-1.188-3.123-3.039-5.804-5.47-7.96-2.515-2.183-5.61-3.87-9.173-5.03-3.62-1.106-7.875-1.686-12.71-1.686H37.488v83.606H81.391c4.945 0 9.256-.608 12.737-1.796 3.62-1.161 6.714-2.847 9.118-5.003 2.514-2.294 4.365-4.947 5.525-7.96 1.133-3.095 1.686-6.357 1.686-9.756 0-5.169-1.216-9.535-3.564-12.907a21.047 21.047 0 0 0-4.421-4.588zM57.326 68.227H81.5c3.123 0 5.443.636 6.714 1.824 1.188 1.189 1.769 2.764 1.769 4.92 0 2.073 0 5.915-8.565 5.915H57.354V68.227h-.028zm31.166 42.094c-1.216 1.133-3.565 1.713-6.797 1.713H57.298V98.712h24.397c7.515 0 8.565 3.179 8.565 6.634.027 2.238-.553 3.869-1.768 4.975zm65.066 1.6c-2.652 0-4.862-.276-6.52-.857-1.547-.525-2.763-1.216-3.619-2.045a6.184 6.184 0 0 1-1.686-2.791 15.033 15.033 0 0 1-.608-4.229V48.408h-20.086v53.729c0 4.201.58 8.126 1.685 11.664 1.188 3.703 3.095 6.965 5.747 9.673 2.625 2.709 6.023 4.837 10.085 6.329 3.951 1.465 8.731 2.211 14.201 2.211h33.984v-20.093h-33.183zm88.384-63.513h-10.499c-12.157 0-21.66 3.566-28.236 10.641-6.522 6.992-9.836 17.55-9.836 31.342 0 13.736 3.314 24.211 9.863 31.121 6.575 6.965 16.08 10.502 28.237 10.502h10.499c12.157 0 21.634-3.537 28.236-10.502 6.548-6.91 9.864-17.385 9.864-31.121 0-13.82-3.316-24.35-9.836-31.342-6.63-7.075-16.135-10.64-28.292-10.64zm13.621 58.787c-2.707 3.151-7.293 4.726-13.621 4.726h-10.499c-6.492 0-11.135-1.575-13.787-4.671-2.79-3.233-4.2-8.927-4.2-16.887 0-8.042 1.438-13.791 4.283-17.108 2.708-3.178 7.322-4.781 13.732-4.781h10.499c6.382 0 10.996 1.603 13.677 4.754 2.817 3.316 4.226 9.037 4.226 17.025-.028 7.987-1.464 13.681-4.31 16.942zm69.267-58.787c-12.156 0-21.633 3.566-28.237 10.558-6.548 6.965-9.836 17.495-9.836 31.287 0 13.736 3.316 24.239 9.836 31.176 6.604 7.02 16.081 10.558 28.237 10.558h33.073v-20.093H324.83c-6.465 0-11.106-1.576-13.787-4.727-2.791-3.288-4.227-8.982-4.227-16.942 0-8.043 1.436-13.764 4.255-17.053 2.707-3.123 7.322-4.726 13.731-4.726h33.073V48.408H324.83zm109.024 54.588c-1.188-2.321-2.348-4.339-3.482-6.052-1.188-1.825-2.458-3.428-3.785-4.754a23.46 23.46 0 0 0-3.674-2.985 20.925 20.925 0 0 0 2.985-2.847c2.126-2.46 4.171-5.555 6.023-9.204l12.1-23.962 2.432-4.81H424.571l-.912 1.797-11.743 23.05c-.966 1.963-1.878 3.483-2.707 4.589a6.234 6.234 0 0 1-2.32 1.934c-.996.498-2.349.83-4.007.968-1.99.193-4.587.276-7.736.276h-4.09V48.41h-20.085v83.607h20.085V99.846h4.09c3.536 0 6.437.082 8.621.276 1.906.166 3.453.497 4.613 1.023 1.05.469 1.879 1.105 2.542 1.907.829 1.022 1.741 2.487 2.707 4.339l11.744 22.802.911 1.796h22.49l-2.487-4.837-12.433-24.156zm89.631-14.402c-2.238-2.46-5.306-4.477-9.091-5.997-3.729-1.465-8.454-2.239-14.09-2.239h-18.153c-1.962 0-3.537-.193-4.669-.58-1.022-.36-1.823-.802-2.348-1.354-.525-.526-.885-1.106-1.078-1.742a8.67 8.67 0 0 1-.387-2.515c0-1.907.525-3.4 1.603-4.56 1.022-1.078 2.873-1.63 5.498-1.63H523.539V48.407h-42.328c-4.613 0-8.674.608-12.046 1.852-3.481 1.271-6.382 3.068-8.648 5.39a20.962 20.962 0 0 0-4.973 8.236c-.966 3.012-1.464 6.329-1.464 9.839 0 2.93.414 5.915 1.188 8.844.857 3.123 2.376 5.942 4.559 8.43 2.183 2.487 5.194 4.505 8.924 5.998 3.674 1.464 8.206 2.155 13.87 2.155h18.042c2.044 0 3.702.221 4.945.636 1.134.387 2.045.884 2.625 1.465a4.542 4.542 0 0 1 1.188 1.852c.276.884.443 1.769.443 2.708 0 2.045-.581 3.648-1.741 4.892-1.133 1.189-3.122 1.769-5.941 1.769H455.49V132.07H501.713c4.779 0 8.952-.636 12.35-1.907 3.509-1.299 6.438-3.151 8.731-5.5 2.32-2.35 4.006-5.169 5.083-8.347 1.022-3.04 1.52-6.412 1.52-10.033 0-3.013-.414-6.053-1.188-9.038-.885-3.261-2.458-6.163-4.724-8.65zm15.608-40.186h-3.012V67.976h22.656v64.038h19.672V67.976H601.038V48.408h-61.945zm97.533 64.038c-3.205 0-5.498-.608-6.852-1.824-1.271-1.133-1.878-2.764-1.878-4.947 0-3.178 1.049-6.44 8.841-6.44H678.235V80.911h-41.167c-8.841 0-8.841-4.173-8.841-6.191 0-2.156.607-3.787 1.823-4.975 1.244-1.188 3.619-1.796 6.881-1.796h41.857V48.408h-41.857c-4.891 0-9.173.58-12.683 1.686-3.647 1.161-6.714 2.82-9.117 4.975-2.459 2.183-4.31 4.837-5.47 7.905-1.134 2.93-1.687 6.163-1.687 9.59 0 7.684 2.709 13.626 7.875 17.495a20.168 20.168 0 0 0-4.752 5.058c-2.238 3.427-3.371 7.711-3.371 12.741 0 3.317.552 6.495 1.63 9.425a19.579 19.579 0 0 0 5.416 7.932c2.403 2.156 5.47 3.842 9.089 5.031 3.537 1.16 7.82 1.768 12.709 1.768h42.328v-19.595H636.626v.027zm183.762 15.507l-24.01-64.619c-1.657-4.836-4.117-8.789-7.266-11.69-3.344-3.069-8.04-4.644-13.925-4.644-6.604 0-11.66 1.907-15.086 5.638-3.344 3.648-5.029 8.458-5.029 14.262v45.88c0 .746-.22.994-.331 1.105-.166.193-.332.276-.691.276-.581 0-.773-.165-.856-.221-.304-.248-.525-.58-.719-1.078l-18.87-49.528c-1.547-4.781-3.924-8.733-7.018-11.636-3.288-3.095-7.984-4.67-13.953-4.67-6.686 0-11.798 1.907-15.196 5.638-3.342 3.676-5.029 8.457-5.029 14.261v65.089h19.59V67.618c0-.414.056-.967.331-1.271.056-.083.194-.221.719-.221.331 0 .497.083.663.22.331.277.607.664.801 1.19l18.843 49.527c1.657 4.809 4.089 8.762 7.183 11.636 3.316 3.096 7.985 4.644 13.87 4.644 6.604 0 11.687-1.88 15.141-5.611 3.399-3.648 5.112-8.513 5.112-14.4V67.618c0-.414.054-.967.331-1.271.083-.11.194-.221.58-.221.525 0 .692.138.774.22.331.277.607.664.801 1.19l23.071 62.49.717 1.962h20.999l-1.547-4.035z" fill="#F4F4F4"/></svg>