<svg width="860" height="180" viewBox="0 0 860 180" fill="none" xmlns="http://www.w3.org/2000/svg">
<path d="M102.472 89.9787C104.157 88.7073 105.594 87.2149 106.782 85.5288C109.02 82.1846 110.153 77.9283 110.153 72.8152C110.153 69.3604 109.573 66.0714 108.412 63.0588C107.224 59.9357 105.373 57.2547 102.942 55.099C100.427 52.9155 97.3329 51.2296 93.7687 50.0688C90.1494 48.9632 85.8944 48.3828 81.0593 48.3828H40.8038H37.4883V51.6994V128.672V131.989H40.8038H81.3909C86.3365 131.989 90.6467 131.381 94.1279 130.193C97.7474 129.032 100.842 127.346 103.246 125.19C105.76 122.896 107.611 120.243 108.771 117.23C109.904 114.135 110.457 110.873 110.457 107.474C110.457 102.305 109.241 97.9385 106.893 94.5666C105.677 92.8531 104.213 91.3052 102.472 89.9787ZM57.3259 68.2272H81.5014C84.6235 68.2272 86.9444 68.8629 88.2153 70.0513C89.4033 71.2398 89.9835 72.8152 89.9835 74.971C89.9835 77.0439 89.9835 80.8856 81.4186 80.8856H57.3536V68.2272H57.3259ZM88.4916 110.321C87.2759 111.454 84.9274 112.034 81.6949 112.034H57.2983V98.7124H81.6949C89.2099 98.7124 90.2598 101.891 90.2598 105.346C90.2875 107.584 89.7072 109.215 88.4916 110.321Z" fill="#F4F4F4"/>
<path d="M153.558 111.921C150.906 111.921 148.696 111.645 147.038 111.064C145.491 110.539 144.275 109.848 143.419 109.019C142.617 108.245 142.037 107.306 141.733 106.228C141.346 104.901 141.125 103.492 141.125 101.999V51.7248V48.4082H137.81H124.355H121.039V51.7248V102.137C121.039 106.338 121.619 110.263 122.724 113.801C123.912 117.504 125.819 120.766 128.471 123.474C131.096 126.183 134.494 128.311 138.556 129.803C142.507 131.268 147.287 132.014 152.757 132.014H183.426H186.741V128.698V115.238V111.921H183.426H153.558Z" fill="#F4F4F4"/>
<path d="M241.942 48.4082H231.443C219.286 48.4082 209.783 51.9736 203.207 59.049C196.685 66.0415 193.371 76.5994 193.371 90.3909C193.371 104.127 196.685 114.602 203.234 121.512C209.809 128.477 219.314 132.014 231.471 132.014H241.97C254.127 132.014 263.604 128.477 270.206 121.512C276.754 114.602 280.07 104.127 280.07 90.3909C280.07 76.5717 276.754 66.0415 270.234 59.049C263.604 51.9736 254.099 48.4082 241.942 48.4082ZM255.563 107.195C252.856 110.346 248.27 111.921 241.942 111.921H231.443C224.951 111.921 220.308 110.346 217.656 107.25C214.866 104.017 213.456 98.3232 213.456 90.3633C213.456 82.3206 214.894 76.5717 217.739 73.2552C220.447 70.0767 225.061 68.4737 231.471 68.4737H241.97C248.352 68.4737 252.966 70.0767 255.647 73.2275C258.464 76.5441 259.873 82.2653 259.873 90.2528C259.845 98.2402 258.409 103.934 255.563 107.195Z" fill="#F4F4F4"/>
<path d="M324.83 48.4082C312.674 48.4082 303.197 51.9736 296.593 58.9661C290.045 65.9309 286.757 76.4613 286.757 90.2528C286.757 103.989 290.073 114.492 296.593 121.429C303.197 128.449 312.674 131.987 324.83 131.987H354.587H357.903V128.67V115.21V111.894H354.587H324.83C318.365 111.894 313.724 110.318 311.043 107.167C308.252 103.879 306.816 98.1851 306.816 90.2252C306.816 82.1824 308.252 76.4613 311.071 73.1723C313.778 70.0491 318.393 68.4461 324.802 68.4461H354.559H357.875V65.1295V51.7248V48.4082H354.559H324.83Z" fill="#F4F4F4"/>
<path d="M433.854 102.996C432.666 100.675 431.506 98.6571 430.372 96.9436C429.184 95.1194 427.914 93.5163 426.587 92.1898C425.455 91.0566 424.211 90.0616 422.913 89.2048C424.018 88.3479 425.013 87.3806 425.898 86.3581C428.024 83.8982 430.069 80.8027 431.921 77.1544L444.021 53.1919L446.453 48.3828H441.066H426.587H424.571L423.659 50.1793L411.916 73.2298C410.95 75.1921 410.038 76.7122 409.209 77.8177C408.574 78.6745 407.8 79.3103 406.889 79.7524C405.893 80.25 404.54 80.5815 402.882 80.7198C400.892 80.9132 398.295 80.9962 395.146 80.9962H391.056V51.7271V48.4104H387.742H374.285H370.971V51.7271V128.7V132.017H374.285H387.742H391.056V128.7V99.8456H395.146C398.682 99.8456 401.583 99.9285 403.767 100.122C405.673 100.288 407.22 100.619 408.38 101.145C409.43 101.614 410.259 102.25 410.922 103.052C411.751 104.074 412.663 105.539 413.629 107.391L425.373 130.193L426.284 131.989H428.3H443.358H448.774L446.287 127.152L433.854 102.996Z" fill="#F4F4F4"/>
<path d="M523.485 88.5944C521.247 86.1347 518.179 84.1171 514.394 82.5969C510.665 81.1321 505.94 80.3583 500.304 80.3583H482.151C480.189 80.3583 478.614 80.1648 477.482 79.7778C476.46 79.4186 475.659 78.9763 475.134 78.4236C474.609 77.8984 474.249 77.318 474.056 76.6823C473.807 75.8531 473.669 75.024 473.669 74.1672C473.669 72.2602 474.194 70.7677 475.272 69.6068C476.294 68.529 478.145 67.9762 480.77 67.9762H520.528H523.539V64.9636V51.3932V48.4082H520.528H481.211C476.598 48.4082 472.537 49.0163 469.165 50.26C465.684 51.5314 462.783 53.3279 460.517 55.6495C458.253 57.9711 456.566 60.7349 455.544 63.8857C454.578 66.8983 454.08 70.2149 454.08 73.725C454.08 76.6546 454.494 79.6396 455.268 82.5693C456.125 85.6924 457.644 88.5115 459.827 90.999C462.01 93.4864 465.021 95.5041 468.751 96.9966C472.425 98.4614 476.957 99.1524 482.621 99.1524H500.663C502.707 99.1524 504.365 99.3734 505.608 99.7881C506.742 100.175 507.653 100.672 508.233 101.253C508.786 101.778 509.172 102.386 509.421 103.105C509.697 103.989 509.864 104.874 509.864 105.813C509.864 107.858 509.283 109.461 508.123 110.705C506.99 111.894 505.001 112.474 502.182 112.474H458.501H455.49V115.487V129.057V132.07H458.501H501.713C506.492 132.07 510.665 131.434 514.063 130.163C517.572 128.864 520.501 127.012 522.794 124.663C525.114 122.313 526.8 119.494 527.877 116.316C528.899 113.276 529.397 109.904 529.397 106.283C529.397 103.27 528.983 100.23 528.209 97.2454C527.324 93.984 525.751 91.082 523.485 88.5944Z" fill="#F4F4F4"/>
<path d="M539.093 48.4082H536.081V51.3932V64.9636V67.9762H539.093H558.737V129.002V132.014H561.722H575.397H578.409V129.002V67.9762H598.053H601.038V64.9636V51.3932V48.4082H598.053H539.093Z" fill="#F4F4F4"/>
<path d="M636.626 112.446C633.421 112.446 631.128 111.838 629.774 110.622C628.503 109.489 627.896 107.858 627.896 105.675C627.896 102.497 628.945 99.2352 636.737 99.2352H675.224H678.235V96.2227V83.9236V80.911H675.224H637.068C628.227 80.911 628.227 76.7376 628.227 74.72C628.227 72.5641 628.834 70.9335 630.05 69.745C631.294 68.5567 633.669 67.9486 636.931 67.9486H675.776H678.788V64.936V51.3655V48.4082H675.776H636.931C632.04 48.4082 627.758 48.9886 624.248 50.0941C620.601 51.255 617.534 52.9133 615.131 55.0691C612.672 57.2525 610.821 59.9058 609.661 62.9736C608.527 65.9033 607.974 69.137 607.974 72.5641C607.974 80.2477 610.683 86.19 615.849 90.0593C613.971 91.4688 612.368 93.1825 611.097 95.1172C608.859 98.5443 607.726 102.828 607.726 107.858C607.726 111.175 608.278 114.353 609.356 117.283C610.489 120.351 612.312 123.032 614.772 125.215C617.175 127.371 620.242 129.057 623.861 130.246C627.398 131.406 631.681 132.014 636.57 132.014H675.887H678.898V129.002V115.431V112.419H675.887H636.626V112.446Z" fill="#F4F4F4"/>
<path d="M820.388 127.953L796.378 63.3343C794.721 58.4976 792.261 54.5453 789.112 51.6433C785.768 48.5754 781.072 47 775.187 47C768.583 47 763.527 48.9071 760.101 52.6382C756.757 56.2865 755.072 61.0956 755.072 66.8997V112.78C755.072 113.526 754.852 113.774 754.741 113.885C754.575 114.078 754.409 114.161 754.05 114.161C753.469 114.161 753.277 113.996 753.194 113.94C752.89 113.692 752.669 113.36 752.475 112.862L733.605 63.3343C732.058 58.5529 729.681 54.6006 726.587 51.6985C723.299 48.603 718.603 47.0276 712.634 47.0276C705.948 47.0276 700.836 48.9347 697.438 52.6659C694.096 56.3418 692.409 61.1233 692.409 66.9273V129.003V132.016H695.421H708.987H711.999V129.003V67.6183C711.999 67.2037 712.055 66.6509 712.33 66.3469C712.386 66.264 712.524 66.1258 713.049 66.1258C713.38 66.1258 713.546 66.2088 713.712 66.3469C714.043 66.6233 714.319 67.0103 714.513 67.5353L733.356 117.063C735.013 121.872 737.445 125.825 740.539 128.699C743.855 131.795 748.524 133.343 754.409 133.343C761.013 133.343 766.096 131.463 769.55 127.732C772.949 124.084 774.662 119.219 774.662 113.332V67.6183C774.662 67.2037 774.716 66.6509 774.993 66.3469C775.076 66.2364 775.187 66.1258 775.573 66.1258C776.098 66.1258 776.265 66.264 776.347 66.3469C776.678 66.6233 776.954 67.0103 777.148 67.5353L800.219 130.026L800.936 131.988H803.036H817.625H821.935L820.388 127.953Z" fill="#F4F4F4"/>
</svg>
