<svg width="330" height="87" fill="none" xmlns="http://www.w3.org/2000/svg"><path fill-rule="evenodd" clip-rule="evenodd" d="M63.153 33.507c-2.792 2.787-8.328 8.06-12.768 12.453C39.904 55.496 39.736 61.642 40.3 64.52c-7.716-9.02-1.596-15.778 2.328-19.606 1.8-1.765 12.92-12.663 15.467-15.084 9.005-8.566 9.003-11.13 9.003-11.13 3.422 8.055-1.156 12.024-3.945 14.807zm-.267 13.367c-2.741 2.673-1.64 1.603-6.081 5.936-7.223 7.03-7.264 11.71-7.264 11.71-4.03-4.402-1.557-11.722 2.778-15.945 1.801-1.76 5.154-4.922 7.542-7.178 4.88-4.606 6.404-5.955 7.094-7.732 1.868 7.723-2.237 11.258-4.07 13.209zm-29.893-5.562c2-1.926 14.737-14.39 17.17-16.743 7.89-7.642 7.535-10.042 7.535-10.042 3.408 8.054-1.263 12.456-4.072 15.218-3.06 3.01-10.805 10.584-15.266 14.948-11.204 10.957-7.188 19.826-7.188 19.826-7.114-5.244-5.518-16.074 1.82-23.207zm-4.65-8.6A6005.56 6005.56 0 0 1 44.84 16.63c7.693-7.447 7.247-10.406 7.595-11.958 5.388 5.5 2.08 11.079-.842 13.976-2.56 2.54-14.576 14.61-19.46 19.04-1.245 1.13-9.334 8.51-8.807 15.35-4.514-5.686-3.3-12.893 5.017-20.326zm-9.89-3.018c1.813-1.878 15.568-15.225 17.9-17.56 5.69-5.682 4.565-10.263 4.565-10.263 6.586 4.983 4.164 10.365.591 13.806-2.899 2.807-13.17 13.082-17.916 17.608-7.531 7.197-6.617 13.14-5.192 18.226-5.519-5.635-8.024-13.45.051-21.817zM41.18.093C18.437.093 0 18.427 0 41.044 0 61.927 15.72 79.16 36.035 81.677v-5.798c-6.788-1.014-13.56-3.3-18.073-9.46h46.434c-4.514 6.16-11.285 8.446-18.073 9.46v5.798C66.64 79.158 82.36 61.927 82.36 41.044 82.36 18.427 63.922.093 41.18.093zm80.017 25.001c1.979 0 3.871-.043 5.892-.13.689 0 .947-.17.947-.854 0-2.181-1.119-4.319-3.053-4.319-1.764 0-3.398 1.924-3.786 5.303zm11.355 8.381c-2.623 3.635-5.85 4.49-7.484 4.49-5.547 0-8.686-4.234-8.686-9.15 0-3.167 1.246-5.817 3.053-7.613 1.85-1.924 4.214-3.079 6.45-3.079h.044c3.826 0 6.794 3.293 6.794 6.715 0 .854-.258 1.325-1.162 1.495-.73.086-6.019.513-10.578.685.129 5.047 2.967 7.398 6.021 7.398 1.676 0 3.31-.599 4.816-1.967l.732 1.026zm18.796-.042c-1.937 2.65-4.777 4.532-7.354 4.532-5.72 0-9.075-4.404-9.075-9.023 0-3.207 1.549-6.158 4.344-8.253 2.58-1.924 5.331-2.566 6.967-2.566h.043c1.589 0 3.01.514 3.74 1.069.602.47.774.898.774 1.497-.043 1.112-1.074 2.138-1.719 2.138-.259 0-.517-.128-.904-.471-1.593-1.41-3.01-2.052-4.342-2.052-2.108 0-4.215 1.925-4.215 6.457 0 5.773 4.085 7.655 6.149 7.655 1.806 0 3.095-.47 4.816-1.967l.776.984zm13.457 4.022v-1.282c2.064-.258 2.321-.472 2.321-3.465v-7.226c0-3.037-1.289-4.321-3.31-4.321-1.332 0-2.536.684-3.744 1.625v10.222c0 2.737.261 2.907 2.281 3.165v1.282h-9.976v-1.282c2.751-.344 2.968-.472 2.968-3.294v-8.851c0-2.61-.217-2.78-2.41-3.209v-1.111c2.278-.342 4.818-.899 7.137-1.668v3.25c.862-.599 1.766-1.283 2.755-1.924 1.246-.813 2.191-1.24 3.44-1.24 3.44 0 5.59 2.48 5.59 6.714v8.168c0 2.737.258 2.865 2.582 3.165v1.282h-9.634zm16.731-10.48c0 5.303 1.936 9.408 4.946 9.408 2.021 0 3.913-1.368 3.913-7.526 0-5.56-1.72-9.152-4.859-9.152-2.064 0-4 2.394-4 7.27zm14.234.727c0 6.886-4.988 10.263-9.76 10.263-6.451 0-9.85-4.789-9.85-9.493 0-6.928 5.463-10.349 10.022-10.349 5.719 0 9.588 4.405 9.588 9.58zm1.203 9.749v-1.282c2.623-.344 2.925-.557 2.925-3.337v-19.8c0-2.736-.217-2.822-2.753-3.122V8.755c2.408-.256 5.419-.897 7.482-1.496v25.573c0 2.865.301 3.079 2.968 3.337v1.282h-10.622zm20.468-21.55c.688-1.839 2.107-6.115 2.409-6.928.428-.256 3.61-.598 4.257-.47l.214.428-5.59 7.526-1.29-.556zm-2.925 11.077c0 5.302 1.936 9.407 4.946 9.407 2.021 0 3.913-1.368 3.913-7.526 0-5.56-1.721-9.152-4.859-9.152-2.064 0-4 2.395-4 7.27zm14.233.726c0 6.886-4.987 10.264-9.761 10.264-6.45 0-9.847-4.79-9.847-9.494 0-6.928 5.461-10.349 10.021-10.349 5.719 0 9.587 4.405 9.587 9.58zm7.872-3.21c0 3.123 1.204 5.518 3.355 5.518 1.719 0 2.923-1.712 2.923-4.961 0-2.993-1.159-5.431-3.395-5.431-1.464 0-2.883 1.668-2.883 4.874zm-.215 14.584c-.817.726-1.332 1.581-1.332 2.608 0 2.18 2.236 4.106 5.589 4.106 3.527 0 5.504-1.882 5.504-4.277 0-1.54-.946-2.48-2.236-2.907-1.117-.342-2.149-.428-3.87-.428-2.063 0-3.008.257-3.655.898zm14.192-20.1c-.302.727-1.119 2.01-1.849 2.48l-2.495-.17c.732.898 1.204 2.009 1.204 3.463 0 4.534-3.957 6.757-7.954 6.757-.732 0-1.464-.128-2.151-.213-.43.342-.861.898-.861 1.41 0 .728.731 1.626 2.752 1.583 1.462 0 2.796-.043 4.172-.043 2.666 0 6.45.77 6.45 5.131 0 4.748-5.461 8.724-11.181 8.724-5.245 0-7.784-2.82-7.827-5.216 0-.983.473-1.71 1.249-2.395.989-.855 2.278-1.71 3.31-2.438-1.676-.555-2.623-1.411-3.182-2.352-.432-.641-.645-1.582-.602-2.096 2.063-.77 3.441-1.923 4.171-2.736-2.364-.813-4.042-2.951-4.042-5.688 0-4.833 4.43-7.056 8.084-7.056h.043c1.636 0 2.925.385 4.429 1.111 2.151-.084 4.387-.342 6.065-.555l.215.3zm3.096-6.626a2.737 2.737 0 0 1 2.754-2.738c1.504 0 2.708 1.198 2.708 2.738 0 1.453-1.204 2.694-2.752 2.694-1.462 0-2.71-1.241-2.71-2.694zm-2.192 25.102v-1.282c2.58-.258 2.838-.472 2.838-3.465v-8.596c0-2.736-.213-2.908-2.494-3.249v-1.198c2.451-.3 5.032-.856 7.225-1.582v14.625c0 2.908.215 3.165 2.881 3.465v1.282h-10.45zm28.466-4.021c-1.935 2.65-4.773 4.532-7.351 4.532-5.721 0-9.076-4.404-9.076-9.023 0-3.207 1.549-6.158 4.344-8.253 2.581-1.924 5.332-2.566 6.967-2.566h.043c1.591 0 3.01.514 3.74 1.069.604.47.775.898.775 1.497-.043 1.112-1.075 2.138-1.721 2.138-.256 0-.515-.128-.904-.471-1.59-1.41-3.009-2.052-4.342-2.052-2.107 0-4.213 1.925-4.213 6.457 0 5.773 4.083 7.655 6.148 7.655 1.808 0 3.096-.47 4.817-1.967l.773.984zm6.623-6.457c0 5.302 1.936 9.407 4.946 9.407 2.02 0 3.915-1.368 3.915-7.526 0-5.56-1.721-9.152-4.859-9.152-2.066 0-4.002 2.394-4.002 7.27zm14.236.726c0 6.886-4.99 10.263-9.764 10.263-6.45 0-9.846-4.789-9.846-9.493 0-6.928 5.46-10.349 10.02-10.349 5.717 0 9.59 4.405 9.59 9.58zM109.45 60.49c-.817-1.497-2.193-2.181-3.612-2.181-1.376 0-4.773 1.283-4.773 7.698 0 5.175 3.096 7.355 5.375 7.355 1.075 0 2.021-.342 3.01-.984V60.49zm7.827 14.282c-1.032.172-4.73.685-7.827 1.67v-2.61l-2.623 1.625c-1.29.77-2.106.941-2.58.941-3.612 0-8.514-3.036-8.514-9.28 0-5.817 5.16-10.563 11.567-10.563.431 0 1.161.087 2.15.3V51.38c0-2.48-.258-2.694-3.053-2.951v-1.24c2.581-.3 5.806-.897 7.784-1.496v24.974c0 2.352.258 2.522 1.979 2.736l1.117.13v1.238zm6.599-11.246c1.978 0 3.872-.042 5.893-.128.687 0 .946-.17.946-.856 0-2.18-1.119-4.319-3.054-4.319-1.764 0-3.398 1.924-3.785 5.303zm11.354 8.382c-2.625 3.635-5.848 4.49-7.482 4.49-5.548 0-8.687-4.234-8.687-9.151 0-3.165 1.246-5.816 3.052-7.613 1.85-1.923 4.214-3.08 6.452-3.08h.042c3.827 0 6.793 3.294 6.793 6.715 0 .856-.256 1.327-1.159 1.497-.732.086-6.022.513-10.579.684.129 5.047 2.967 7.399 6.02 7.399 1.678 0 3.31-.6 4.816-1.967l.732 1.026zm35.348 3.978v-1.369c3.313-.341 3.527-.641 3.485-4.79l-.086-16.805h-.216l-9.848 22.664h-1.073l-9.075-22.194h-.172l-.558 11.547c-.174 3.549-.174 5.474-.044 6.97.13 1.967 1.032 2.31 3.914 2.566v1.411h-10.236v-1.411c2.452-.214 3.269-.898 3.571-2.481.257-1.41.556-3.506.858-7.996l.646-8.596c.387-5.132.086-5.603-3.655-5.945v-1.368h8.213l8.817 19.672 8.986-19.672h8.17v1.368c-3.568.342-3.739.6-3.653 4.448l.387 15.823c.128 4.148.302 4.448 3.783 4.79v1.368h-12.214zm18.99-10.48c0 5.304 1.937 9.41 4.947 9.41 2.021 0 3.914-1.368 3.914-7.527 0-5.56-1.721-9.151-4.86-9.151-2.064 0-4.001 2.394-4.001 7.269zm14.235.729c0 6.885-4.988 10.263-9.762 10.263-6.45 0-9.848-4.789-9.848-9.494 0-6.928 5.461-10.35 10.02-10.35 5.721 0 9.59 4.406 9.59 9.58zm13.794 9.752v-1.284c2.062-.256 2.321-.47 2.321-3.463v-7.227c0-3.037-1.289-4.32-3.312-4.32-1.334 0-2.536.685-3.74 1.625v10.222c0 2.736.257 2.907 2.277 3.163v1.284h-9.974v-1.284c2.751-.342 2.966-.47 2.966-3.293v-8.851c0-2.61-.215-2.78-2.408-3.208v-1.112c2.278-.342 4.817-.899 7.139-1.668v3.25c.859-.598 1.762-1.283 2.752-1.924 1.247-.813 2.192-1.24 3.441-1.24 3.44 0 5.59 2.48 5.59 6.714v8.169c0 2.736.258 2.864 2.579 3.163v1.284h-9.631zm19.318 0c-.776.34-1.419.513-1.764.513-3.097 0-4.903-1.583-4.903-5.304V58.994h-2.794l-.218-.471 1.206-1.454h1.806v-3.122l4.129-3.165.602.214v6.073h4.429c.473.47.387 1.582-.257 1.925h-4.172v10.69c0 3.38 1.506 3.85 2.452 3.85.859 0 1.677-.257 2.364-.556l.388 1.325-3.268 1.582zm8.994-12.361c1.979 0 3.872-.042 5.893-.128.687 0 .945-.17.945-.856 0-2.18-1.118-4.319-3.053-4.319-1.764 0-3.398 1.924-3.785 5.303zm11.354 8.382c-2.623 3.635-5.848 4.49-7.482 4.49-5.548 0-8.688-4.234-8.688-9.151 0-3.165 1.248-5.816 3.053-7.613 1.849-1.923 4.214-3.08 6.452-3.08h.042c3.827 0 6.793 3.294 6.793 6.715 0 .856-.257 1.327-1.161 1.497-.73.086-6.019.513-10.576.684.126 5.047 2.966 7.399 6.019 7.399 1.676 0 3.312-.6 4.816-1.967l.732 1.026zm9.129-10.818c1.463-2.524 3.226-4.534 4.987-4.534 1.635 0 2.754 1.198 2.754 2.48 0 1.284-.818 2.354-1.849 2.738-.559.257-.991.128-1.248-.128-.732-.6-1.248-.856-1.934-.856-.948 0-1.98.77-2.796 2.737v7.913c0 2.693.215 2.907 3.526 3.163v1.284h-11.095v-1.284c2.451-.256 2.84-.47 2.84-3.163v-9.153c0-2.437-.261-2.608-2.453-3.036v-1.112c2.409-.3 4.73-.812 7.182-1.668v4.619h.086zm16.889 0c1.461-2.524 3.225-4.534 4.987-4.534 1.635 0 2.752 1.198 2.752 2.48 0 1.284-.817 2.354-1.848 2.738-.56.257-.99.128-1.246-.128-.733-.6-1.248-.856-1.937-.856-.946 0-1.978.77-2.794 2.737v7.913c0 2.693.214 2.907 3.527 3.163v1.284h-11.096v-1.284c2.451-.256 2.838-.47 2.838-3.163v-9.153c0-2.437-.257-2.608-2.451-3.036v-1.112c2.407-.3 4.73-.812 7.182-1.668v4.619h.086zm13.177 2.436c1.977 0 3.87-.042 5.891-.128.689 0 .946-.17.946-.856 0-2.18-1.117-4.319-3.054-4.319-1.764 0-3.395 1.924-3.783 5.303zm11.353 8.382c-2.624 3.635-5.848 4.49-7.483 4.49-5.547 0-8.687-4.234-8.687-9.151 0-3.165 1.247-5.816 3.053-7.613 1.849-1.923 4.213-3.08 6.454-3.08h.039c3.827 0 6.797 3.294 6.797 6.715 0 .856-.26 1.327-1.163 1.497-.732.086-6.019.513-10.577.684.128 5.047 2.965 7.399 6.018 7.399 1.68 0 3.31-.6 4.818-1.967l.731 1.026zm21.459-13.598c-2.149.385-2.534.77-3.651 3.122-1.08 2.266-2.454 5.816-5.163 12.188-2.882 6.842-3.742 9.45-4.473 11.845-.256.899-.817 1.113-1.505 1.113-1.204 0-2.794-1.154-2.794-2.481 0-.684.299-1.068 1.118-1.625 1.591-.854 2.536-1.795 3.399-3.336.6-1.026.858-1.667 1.03-2.18.215-.685.129-1.283-.131-2.01-2.062-5.688-4.256-11.461-5.245-13.77-.818-2.01-1.289-2.524-3.44-2.866v-1.24h9.933v1.24c-1.891.385-2.192.685-1.678 2.139l3.484 9.964c1.076-2.61 2.666-7.184 3.483-9.708.472-1.498.131-2.01-2.105-2.395v-1.24h7.738v1.24z" fill="#2B67DD"/><path fill-rule="evenodd" clip-rule="evenodd" d="M95.116 9.09c-.112 2.531-.316 4.836-.462 7.347h1.447c.512-2.084.981-3.474 1.62-4.213.597-.827 1.404-1.216 4.899-1.216h1.917V31.81c0 3.604-.428 3.95-4.09 4.257v1.388h13.288v-1.388c-3.875-.306-4.258-.653-4.258-4.257V11.008h2.299c2.771 0 3.706.26 4.475 1.128.638.742 1.147 2.085 1.659 4.258l1.406-.087c-.177-2.247-.353-4.821-.407-7.218H95.116z" fill="#2B67DD"/></svg>