<svg width="330" height="87" viewBox="0 0 330 87" fill="none" xmlns="http://www.w3.org/2000/svg">
<path fill-rule="evenodd" clip-rule="evenodd" d="M63.1529 33.5071C60.3607 36.2944 54.825 41.5667 50.3854 45.9596C39.9039 55.4957 39.7364 61.6416 40.3 64.5209C32.5843 55.5009 38.7037 48.7415 42.6284 44.914C44.4287 43.1489 55.5487 32.2505 58.0953 29.83C67.1005 21.264 67.0979 18.6999 67.0979 18.6999C70.5203 26.7553 65.9424 30.7244 63.1529 33.5071ZM62.8858 46.874C60.1448 49.5472 61.2451 48.4768 56.8046 52.81C49.5822 59.8402 49.5411 64.5209 49.5411 64.5209C45.5101 60.1176 47.9843 52.7975 52.3194 48.5749C54.12 46.8159 57.4727 43.6535 59.8608 41.3968C64.7405 36.7907 66.2645 35.4422 66.9551 33.6654C68.8232 41.3876 64.7182 44.9234 62.8858 46.874ZM32.9929 41.3122C34.9938 39.3857 47.7305 26.9215 50.1621 24.5687C58.0534 16.9267 57.6982 14.527 57.6982 14.527C61.1059 22.5814 56.4353 26.9828 53.6265 29.745C50.5665 32.7557 42.8212 40.3286 38.3596 44.6927C27.1561 55.6499 31.1716 64.5189 31.1716 64.5189C24.0581 59.2749 25.6536 48.445 32.9929 41.3122ZM28.3428 32.7121C30.3567 30.7335 41.1774 20.1757 44.8404 16.6305C52.5329 9.1828 52.0868 6.22374 52.4348 4.67247C57.8232 10.1712 54.5157 15.7507 51.5928 18.6484C49.0323 21.1872 37.017 33.2582 32.1325 37.6884C30.8881 38.8176 22.799 46.1977 23.326 53.0375C18.8117 47.3516 20.0259 40.1454 28.3428 32.7121ZM18.4524 29.6942C20.2655 27.8164 34.0209 14.4693 36.3532 12.1341C42.0436 6.45192 40.9182 1.87064 40.9182 1.87064C47.5035 6.85423 45.0818 12.2356 41.509 15.677C38.6102 18.4841 28.3382 28.7594 23.5931 33.2847C16.0617 40.4815 16.9762 46.4249 18.4009 51.5111C12.8821 45.876 10.3773 38.0607 18.4524 29.6942ZM41.1805 0.0927734C18.4369 0.0927734 0.000244141 18.427 0.000244141 41.0442C0.000244141 61.9273 15.7204 79.1585 36.0358 81.6767V75.8793C29.2482 74.8645 22.4759 72.5781 17.9627 66.4197H64.3972C59.8831 72.5781 53.1117 74.8645 46.3242 75.8793V81.6767C66.6394 79.1585 82.3597 61.9273 82.3597 41.0442C82.3597 18.427 63.9224 0.0927734 41.1805 0.0927734Z" fill="#2B67DD"/>
<path fill-rule="evenodd" clip-rule="evenodd" d="M121.198 25.0943C123.177 25.0943 125.069 25.0509 127.09 24.9649C127.779 24.9649 128.037 24.7943 128.037 24.1099C128.037 21.9288 126.918 19.7911 124.984 19.7911C123.22 19.7911 121.586 21.7146 121.198 25.0943ZM132.553 33.4752C129.93 37.1102 126.703 37.9654 125.069 37.9654C119.522 37.9654 116.383 33.7313 116.383 28.8143C116.383 25.6485 117.629 22.9981 119.436 21.2017C121.286 19.2782 123.65 18.123 125.886 18.123H125.93C129.756 18.123 132.724 21.4158 132.724 24.8379C132.724 25.6921 132.466 26.1626 131.562 26.3332C130.832 26.419 125.543 26.8461 120.984 27.0176C121.113 32.0646 123.951 34.4165 127.005 34.4165C128.681 34.4165 130.315 33.8174 131.821 32.4492L132.553 33.4752Z" fill="#2B67DD"/>
<path fill-rule="evenodd" clip-rule="evenodd" d="M151.349 33.4328C149.412 36.0833 146.572 37.9654 143.995 37.9654C138.275 37.9654 134.92 33.5611 134.92 28.9424C134.92 25.7354 136.469 22.7838 139.264 20.6886C141.844 18.7651 144.595 18.123 146.231 18.123H146.274C147.863 18.123 149.284 18.6368 150.014 19.192C150.616 19.6628 150.788 20.0899 150.788 20.6886C150.745 21.8012 149.714 22.8274 149.069 22.8274C148.81 22.8274 148.552 22.6991 148.165 22.3557C146.572 20.9454 145.155 20.3039 143.823 20.3039C141.715 20.3039 139.608 22.2285 139.608 26.7613C139.608 32.5342 143.693 34.4165 145.757 34.4165C147.563 34.4165 148.852 33.9466 150.573 32.4492L151.349 33.4328Z" fill="#2B67DD"/>
<path fill-rule="evenodd" clip-rule="evenodd" d="M164.806 37.4551V36.1728C166.87 35.9152 167.127 35.7013 167.127 32.7083V25.4816C167.127 22.4454 165.838 21.1609 163.817 21.1609C162.485 21.1609 161.281 21.8454 160.073 22.7863V33.0083C160.073 35.7446 160.334 35.9152 162.354 36.1728V37.4551H152.378V36.1728C155.129 35.8294 155.346 35.7013 155.346 32.8789V24.0275C155.346 21.4183 155.129 21.2476 152.936 20.8194V19.7078C155.214 19.3656 157.754 18.8091 160.073 18.0396V21.2909C160.935 20.6911 161.839 20.0069 162.828 19.3656C164.074 18.5528 165.019 18.1257 166.268 18.1257C169.708 18.1257 171.858 20.6066 171.858 24.8405V33.0083C171.858 35.7446 172.116 35.8731 174.44 36.1728V37.4551H164.806Z" fill="#2B67DD"/>
<path fill-rule="evenodd" clip-rule="evenodd" d="M181.537 26.9756C181.537 32.2777 183.473 36.383 186.483 36.383C188.504 36.383 190.396 35.0151 190.396 28.8566C190.396 23.2969 188.676 19.7053 185.537 19.7053C183.473 19.7053 181.537 22.0994 181.537 26.9756ZM195.771 27.7024C195.771 34.588 190.783 37.9654 186.011 37.9654C179.56 37.9654 176.161 33.1762 176.161 28.4718C176.161 21.544 181.624 18.123 186.183 18.123C191.902 18.123 195.771 22.5277 195.771 27.7024Z" fill="#2B67DD"/>
<path fill-rule="evenodd" clip-rule="evenodd" d="M196.974 37.4506V36.1685C199.597 35.8251 199.899 35.6119 199.899 32.8321V13.0319C199.899 10.2956 199.682 10.2098 197.146 9.91036V8.7554C199.554 8.49909 202.565 7.85817 204.628 7.25928V32.8321C204.628 35.6969 204.929 35.9107 207.596 36.1685V37.4506H196.974Z" fill="#2B67DD"/>
<path fill-rule="evenodd" clip-rule="evenodd" d="M217.442 15.9015C218.13 14.062 219.549 9.78613 219.851 8.97313C220.279 8.71666 223.461 8.37455 224.108 8.50302L224.322 8.93094L218.732 16.457L217.442 15.9015ZM214.517 26.9776C214.517 32.2799 216.453 36.3852 219.463 36.3852C221.484 36.3852 223.376 35.0173 223.376 28.859C223.376 23.2991 221.655 19.7073 218.517 19.7073C216.453 19.7073 214.517 22.1015 214.517 26.9776ZM228.75 27.7045C228.75 34.5902 223.763 37.9675 218.989 37.9675C212.539 37.9675 209.142 33.1783 209.142 28.4739C209.142 21.5462 214.603 18.1251 219.163 18.1251C224.882 18.1251 228.75 22.5297 228.75 27.7045Z" fill="#2B67DD"/>
<path fill-rule="evenodd" clip-rule="evenodd" d="M236.622 24.4945C236.622 27.6166 237.826 30.0116 239.977 30.0116C241.696 30.0116 242.9 28.3002 242.9 25.0509C242.9 22.058 241.741 19.6195 239.505 19.6195C238.041 19.6195 236.622 21.2885 236.622 24.4945ZM236.407 39.0784C235.59 39.8045 235.075 40.6595 235.075 41.6865C235.075 43.8665 237.311 45.7921 240.664 45.7921C244.191 45.7921 246.168 43.9098 246.168 41.5149C246.168 39.9759 245.222 39.0351 243.932 38.6076C242.815 38.2655 241.783 38.1796 240.062 38.1796C237.999 38.1796 237.054 38.437 236.407 39.0784ZM250.599 18.9782C250.297 19.7053 249.48 20.9879 248.75 21.4579L246.255 21.2883C246.987 22.1863 247.459 23.2969 247.459 24.7511C247.459 29.2847 243.502 31.508 239.505 31.508C238.773 31.508 238.041 31.3799 237.354 31.2952C236.924 31.6366 236.493 32.1929 236.493 32.7056C236.493 33.4328 237.224 34.3313 239.245 34.2879C240.707 34.2879 242.041 34.2447 243.417 34.2447C246.083 34.2447 249.867 35.0151 249.867 39.3761C249.867 44.1241 244.406 48.1004 238.686 48.1004C233.441 48.1004 230.902 45.2792 230.859 42.8841C230.859 41.9007 231.332 41.1735 232.108 40.4888C233.097 39.6338 234.386 38.7783 235.418 38.0511C233.742 37.4961 232.795 36.6398 232.236 35.6987C231.804 35.0576 231.591 34.1172 231.634 33.6032C233.697 32.8339 235.075 31.6799 235.805 30.8669C233.441 30.0541 231.763 27.9155 231.763 25.1792C231.763 20.3464 236.193 18.123 239.847 18.123H239.89C241.526 18.123 242.815 18.5078 244.319 19.2345C246.47 19.15 248.706 18.8923 250.384 18.6791L250.599 18.9782Z" fill="#2B67DD"/>
<path fill-rule="evenodd" clip-rule="evenodd" d="M253.695 12.3518C253.695 10.8119 254.943 9.61426 256.449 9.61426C257.953 9.61426 259.157 10.8119 259.157 12.3518C259.157 13.8049 257.953 15.0458 256.405 15.0458C254.943 15.0458 253.695 13.8049 253.695 12.3518ZM251.503 37.4541V36.1718C254.083 35.9142 254.341 35.7001 254.341 32.7072V24.1115C254.341 21.3749 254.128 21.2033 251.847 20.862V19.6644C254.298 19.3646 256.879 18.8083 259.072 18.0822V32.7072C259.072 35.6154 259.287 35.872 261.953 36.1718V37.4541H251.503Z" fill="#2B67DD"/>
<path fill-rule="evenodd" clip-rule="evenodd" d="M279.969 33.4328C278.034 36.0833 275.196 37.9654 272.618 37.9654C266.897 37.9654 263.542 33.5611 263.542 28.9424C263.542 25.7354 265.091 22.7838 267.886 20.6886C270.467 18.7651 273.218 18.123 274.853 18.123H274.896C276.487 18.123 277.906 18.6368 278.636 19.192C279.24 19.6628 279.411 20.0899 279.411 20.6886C279.368 21.8012 278.336 22.8274 277.69 22.8274C277.434 22.8274 277.175 22.6991 276.786 22.3557C275.196 20.9454 273.777 20.3039 272.444 20.3039C270.337 20.3039 268.231 22.2285 268.231 26.7613C268.231 32.5342 272.314 34.4165 274.379 34.4165C276.187 34.4165 277.475 33.9466 279.196 32.4492L279.969 33.4328Z" fill="#2B67DD"/>
<path fill-rule="evenodd" clip-rule="evenodd" d="M286.592 26.9756C286.592 32.2777 288.528 36.383 291.538 36.383C293.558 36.383 295.453 35.0151 295.453 28.8566C295.453 23.2969 293.732 19.7053 290.594 19.7053C288.528 19.7053 286.592 22.0994 286.592 26.9756ZM300.828 27.7024C300.828 34.588 295.838 37.9654 291.064 37.9654C284.614 37.9654 281.218 33.1762 281.218 28.4718C281.218 21.544 286.678 18.123 291.238 18.123C296.955 18.123 300.828 22.5277 300.828 27.7024Z" fill="#2B67DD"/>
<path fill-rule="evenodd" clip-rule="evenodd" d="M109.45 60.4886C108.633 58.9923 107.257 58.3076 105.838 58.3076C104.462 58.3076 101.065 59.5909 101.065 66.0062C101.065 71.181 104.161 73.361 106.44 73.361C107.515 73.361 108.461 73.0187 109.45 72.3773V60.4886ZM117.277 74.7714C116.245 74.9432 112.547 75.4561 109.45 76.4409V73.8305L106.827 75.4562C105.537 76.2255 104.721 76.3973 104.247 76.3973C100.635 76.3973 95.7327 73.361 95.7327 67.1177C95.7327 61.3004 100.893 56.5538 107.3 56.5538C107.731 56.5538 108.461 56.6407 109.45 56.8536V51.3798C109.45 48.8997 109.192 48.6857 106.397 48.429V47.1893C108.978 46.8892 112.203 46.2918 114.181 45.6929V70.6668C114.181 73.0187 114.439 73.1894 116.16 73.4035L117.277 73.5326V74.7714Z" fill="#2B67DD"/>
<path fill-rule="evenodd" clip-rule="evenodd" d="M123.876 63.5247C125.854 63.5247 127.748 63.4825 129.769 63.3965C130.456 63.3965 130.715 63.2262 130.715 62.5414C130.715 60.3602 129.596 58.2225 127.661 58.2225C125.897 58.2225 124.263 60.1463 123.876 63.5247ZM135.23 71.9068C132.605 75.5422 129.382 76.3972 127.748 76.3972C122.2 76.3972 119.061 72.1634 119.061 67.2457C119.061 64.0812 120.307 61.4297 122.113 59.6333C123.963 57.7096 126.327 56.5537 128.565 56.5537H128.607C132.434 56.5537 135.4 59.8473 135.4 63.2682C135.4 64.1236 135.144 64.5953 134.241 64.7648C133.509 64.8508 128.219 65.2776 123.662 65.4495C123.791 70.496 126.629 72.848 129.682 72.848C131.36 72.848 132.992 72.248 134.498 70.8808L135.23 71.9068Z" fill="#2B67DD"/>
<path fill-rule="evenodd" clip-rule="evenodd" d="M170.578 75.8854V74.5163C173.891 74.175 174.105 73.8749 174.063 69.7268L173.977 52.9207H173.761L163.913 75.5853H162.84L153.765 53.3912H153.593L153.035 64.9377C152.861 68.487 152.861 70.4115 152.991 71.9081C153.121 73.875 154.023 74.2171 156.905 74.4738V75.8854H146.669V74.4738C149.121 74.2596 149.938 73.576 150.24 71.9928C150.497 70.5822 150.796 68.487 151.098 63.9966L151.744 55.4005C152.131 50.2692 151.83 49.7984 148.089 49.4562V48.0879H156.302L165.119 67.7601L174.105 48.0879H182.275V49.4562C178.707 49.7984 178.536 50.056 178.622 53.9039L179.009 69.7268C179.137 73.8749 179.311 74.175 182.792 74.5163V75.8854H170.578Z" fill="#2B67DD"/>
<path fill-rule="evenodd" clip-rule="evenodd" d="M189.568 65.4059C189.568 70.7092 191.505 74.815 194.515 74.815C196.536 74.815 198.429 73.4465 198.429 67.2882C198.429 61.7285 196.708 58.1369 193.569 58.1369C191.505 58.1369 189.568 60.5309 189.568 65.4059ZM203.803 66.1339C203.803 73.0186 198.815 76.3972 194.041 76.3972C187.591 76.3972 184.193 71.608 184.193 66.9035C184.193 59.9754 189.654 56.5537 194.213 56.5537C199.934 56.5537 203.803 60.9593 203.803 66.1339Z" fill="#2B67DD"/>
<path fill-rule="evenodd" clip-rule="evenodd" d="M217.597 75.8856V74.6021C219.659 74.3459 219.918 74.1318 219.918 71.1388V63.9119C219.918 60.8747 218.629 59.5923 216.606 59.5923C215.272 59.5923 214.07 60.277 212.866 61.2169V71.4385C212.866 74.1752 213.123 74.3459 215.143 74.6021V75.8856H205.169V74.6021C207.92 74.2598 208.135 74.1318 208.135 71.3093V62.4579C208.135 59.8487 207.92 59.678 205.727 59.2501V58.1383C208.005 57.796 210.544 57.2394 212.866 56.4702V59.7205C213.725 59.1216 214.628 58.4371 215.618 57.796C216.865 56.9831 217.81 56.5551 219.059 56.5551C222.499 56.5551 224.649 59.0358 224.649 63.2696V71.4385C224.649 74.1752 224.907 74.3034 227.228 74.6021V75.8856H217.597Z" fill="#2B67DD"/>
<path fill-rule="evenodd" clip-rule="evenodd" d="M236.915 75.8855C236.139 76.2267 235.496 76.3985 235.151 76.3985C232.054 76.3985 230.248 74.8162 230.248 71.0952V58.9937H227.454L227.236 58.5228L228.442 57.0687H230.248V53.9466L234.377 50.7822L234.979 50.996V57.0687H239.408C239.881 57.5394 239.795 58.6511 239.151 58.9937H234.979V69.6847C234.979 73.0633 236.485 73.5337 237.431 73.5337C238.29 73.5337 239.108 73.2773 239.795 72.9775L240.183 74.3033L236.915 75.8855Z" fill="#2B67DD"/>
<path fill-rule="evenodd" clip-rule="evenodd" d="M245.909 63.5247C247.888 63.5247 249.781 63.4825 251.802 63.3965C252.489 63.3965 252.747 63.2262 252.747 62.5414C252.747 60.3602 251.629 58.2225 249.694 58.2225C247.93 58.2225 246.296 60.1463 245.909 63.5247ZM257.263 71.9068C254.64 75.5422 251.415 76.3972 249.781 76.3972C244.233 76.3972 241.093 72.1634 241.093 67.2457C241.093 64.0812 242.341 61.4297 244.146 59.6333C245.995 57.7096 248.36 56.5537 250.598 56.5537H250.64C254.467 56.5537 257.433 59.8473 257.433 63.2682C257.433 64.1236 257.176 64.5953 256.272 64.7648C255.542 64.8508 250.253 65.2776 245.696 65.4495C245.822 70.496 248.662 72.848 251.715 72.848C253.391 72.848 255.027 72.248 256.531 70.8808L257.263 71.9068Z" fill="#2B67DD"/>
<path fill-rule="evenodd" clip-rule="evenodd" d="M266.392 61.0888C267.855 58.5654 269.618 56.5551 271.379 56.5551C273.014 56.5551 274.133 57.7527 274.133 59.0358C274.133 60.3191 273.315 61.3885 272.284 61.7732C271.725 62.0299 271.293 61.9015 271.036 61.6452C270.304 61.0455 269.788 60.789 269.102 60.789C268.154 60.789 267.122 61.5592 266.306 63.5262V71.4385C266.306 74.1318 266.521 74.3459 269.832 74.6021V75.8856H258.737V74.6021C261.188 74.3459 261.577 74.1318 261.577 71.4385V62.2862C261.577 59.8486 261.316 59.678 259.124 59.2501V58.1383C261.533 57.8385 263.854 57.3256 266.306 56.4702V61.0888H266.392Z" fill="#2B67DD"/>
<path fill-rule="evenodd" clip-rule="evenodd" d="M283.281 61.0888C284.742 58.5654 286.506 56.5551 288.268 56.5551C289.903 56.5551 291.02 57.7527 291.02 59.0358C291.02 60.3191 290.203 61.3885 289.172 61.7732C288.612 62.0299 288.182 61.9015 287.926 61.6452C287.193 61.0455 286.678 60.789 285.989 60.789C285.043 60.789 284.011 61.5592 283.195 63.5262V71.4385C283.195 74.1318 283.409 74.3459 286.722 74.6021V75.8856H275.626V74.6021C278.077 74.3459 278.464 74.1318 278.464 71.4385V62.2862C278.464 59.8486 278.207 59.678 276.013 59.2501V58.1383C278.42 57.8385 280.743 57.3256 283.195 56.4702V61.0888H283.281Z" fill="#2B67DD"/>
<path fill-rule="evenodd" clip-rule="evenodd" d="M296.458 63.5247C298.435 63.5247 300.328 63.4825 302.349 63.3965C303.038 63.3965 303.295 63.2262 303.295 62.5414C303.295 60.3602 302.178 58.2225 300.241 58.2225C298.477 58.2225 296.846 60.1463 296.458 63.5247ZM307.811 71.9068C305.187 75.5422 301.963 76.3972 300.328 76.3972C294.781 76.3972 291.641 72.1634 291.641 67.2457C291.641 64.0812 292.888 61.4297 294.694 59.6333C296.543 57.7096 298.907 56.5537 301.148 56.5537H301.187C305.014 56.5537 307.984 59.8473 307.984 63.2682C307.984 64.1236 307.724 64.5953 306.821 64.7648C306.089 64.8508 300.802 65.2776 296.244 65.4495C296.372 70.496 299.209 72.848 302.262 72.848C303.942 72.848 305.572 72.248 307.08 70.8808L307.811 71.9068Z" fill="#2B67DD"/>
<path fill-rule="evenodd" clip-rule="evenodd" d="M329.27 58.309C327.121 58.6936 326.736 59.0793 325.619 61.4311C324.539 63.6971 323.165 67.2471 320.456 73.6186C317.574 80.4607 316.714 83.0691 315.983 85.464C315.727 86.363 315.166 86.5769 314.478 86.5769C313.274 86.5769 311.684 85.4229 311.684 84.0959C311.684 83.4123 311.983 83.0278 312.802 82.4713C314.393 81.617 315.338 80.676 316.201 79.1352C316.801 78.1092 317.059 77.4679 317.231 76.9549C317.446 76.2703 317.36 75.6717 317.1 74.9445C315.038 69.2567 312.844 63.4839 311.855 61.1745C311.037 59.1651 310.566 58.6512 308.415 58.309V57.0688H318.348V58.309C316.457 58.6936 316.156 58.9937 316.67 60.4478L320.154 70.4118C321.23 67.8026 322.82 63.2276 323.637 60.7041C324.109 59.2064 323.768 58.6936 321.532 58.309V57.0688H329.27V58.309Z" fill="#2B67DD"/>
<path fill-rule="evenodd" clip-rule="evenodd" d="M95.1156 9.08936C95.0039 11.6211 94.8001 13.9263 94.6541 16.4374H96.101C96.6133 14.3534 97.0823 12.9635 97.7206 12.2241C98.3183 11.3967 99.1255 11.0077 102.62 11.0077H104.537V31.8113C104.537 35.4153 104.109 35.7615 100.447 36.068V37.4556H113.735V36.068C109.86 35.7615 109.477 35.4153 109.477 31.8113V11.0077H111.776C114.547 11.0077 115.482 11.2686 116.251 12.1361C116.889 12.8777 117.398 14.2212 117.91 16.3939L119.316 16.307C119.139 14.0597 118.963 11.4857 118.909 9.08936H95.1156Z" fill="#2B67DD"/>
</svg>
