<svg xmlns="http://www.w3.org/2000/svg" viewBox="0 0 89 58.2" role="img" aria-label="[title]">
  <title>Google Adsense</title>
  <path fill="#969696" d="M43.9 12.1a6.3 6.3 0 00-5.4 3L25.9 36.6 36.7 43l12.6-21.5c.6-.9.9-2 .9-3.2a6.4 6.4 0 00-6.3-6.2z"/>
  <path fill="#afafaf" d="M57.7 22.9a6.3 6.3 0 00-5.4 3L46 36.6c-.6.9-.9 2-.9 3.2 0 3.4 2.8 6.2 6.3 6.2 2.3 0 4.3-1.2 5.4-3l6.3-10.7c.6-.9.9-2 .9-3.2 0-3.4-2.8-6.2-6.3-6.2z"/>
  <path fill="#c7c7c7" d="M31.2 46.1c3.5 0 6.3-2.8 6.3-6.2s-2.8-6.2-6.3-6.2a6.2 6.2 0 100 12.4z"/>
</svg>