<svg xmlns="http://www.w3.org/2000/svg" viewBox="0 0 89 58.2" role="img" aria-label="[title]">
  <title>Amazon Web Services</title>
  <path fill="#969696" d="M30.8 23.9l.2 1.9.7 1.5.1.5c0 .2-.1.4-.4.6l-1.3.9-.5.2-.6-.3-.8-1-.6-1.2a7.8 7.8 0 01-6.2 2.9c-1.8 0-3.2-.5-4.2-1.5s-1.6-2.4-1.6-4.1c0-1.8.6-3.3 1.9-4.4 1.3-1.1 3-1.6 5.1-1.6l2.2.2 2.4.5v-1.5c0-1.6-.3-2.7-1-3.4-.7-.7-1.8-1-3.4-1l-2.3.3a20.2 20.2 0 00-3.3 1.1c-.3 0-.4-.2-.4-.7v-1l.1-.7.6-.4a12.8 12.8 0 015.9-1.4c2.5 0 4.3.6 5.5 1.7 1.2 1.1 1.7 2.9 1.7 5.2l.2 6.7zm-8.6 3.2a6 6 0 002.2-.4c.8-.3 1.4-.7 2-1.4.3-.4.6-.8.7-1.4l.2-1.8v-.9l-1.9-.4-2-.1c-1.4 0-2.4.3-3.1.8a3 3 0 00-1 2.4c0 1 .3 1.7.8 2.2.5.8 1.2 1 2.1 1zm16.9 2.3l-.8-.2c-.2-.1-.3-.4-.4-.8l-5-16.4-.2-.8c0-.3.2-.5.5-.5h2.1l.8.2c.2.1.3.4.4.8l3.5 14 3.3-14c.1-.4.2-.7.4-.8l.8-.2h1.7l.8.2c.2.1.3.4.4.8l3.3 14.2 3.6-14.2.4-.8.8-.2h1.9c.3 0 .5.2.5.5v.3l-.1.5-5 16.3a2 2 0 01-.4.8l-.8.2h-1.8l-.8-.2c-.2-.1-.3-.4-.4-.8l-3.2-13.6-3.2 13.6c-.1.4-.2.7-.4.8l-.8.2h-1.9zM66 30c-1.1 0-2.2-.1-3.2-.4-1-.3-1.9-.5-2.4-.8-.3-.2-.6-.4-.6-.6l-.1-.6v-1.1c0-.4.2-.7.5-.7l.4.1.5.2c.7.3 1.5.6 2.3.7.8.2 1.7.3 2.5.3 1.3 0 2.3-.2 3.1-.7.7-.5 1.1-1.1 1.1-2a2 2 0 00-.6-1.5 5 5 0 00-2.1-1.1l-3-1a6.5 6.5 0 01-3.4-2.2 5 5 0 01-1-3.1c0-.9.2-1.7.6-2.3a5 5 0 011.5-1.7c.6-.5 1.3-.8 2.2-1.1.8-.3 1.7-.4 2.6-.4l1.4.1 1.4.2 1.2.3.9.4.6.5.2.7v1c0 .4-.2.7-.5.7l-.8-.3c-1.2-.5-2.5-.8-4-.8-1.2 0-2.1.2-2.8.6-.6.4-1 1-1 1.9 0 .6.2 1.1.6 1.5s1.2.8 2.3 1.2l3 1c1.5.5 2.6 1.2 3.2 2 .6.9 1 1.9 1 3a7 7 0 01-.5 2.5 7 7 0 01-1.5 1.9c-.6.5-1.4.9-2.3 1.2-1.3.2-2.2.4-3.3.4z"/>
  <path fill="#c8c8c8" d="M70 40.2a46 46 0 01-56.7-4.1c-.6-.6-.1-1.4.7-.9a62.3 62.3 0 0055 3.4c1.1-.5 2.1.8 1 1.6zm2.8-3.3c-.9-1.1-5.8-.5-8.1-.3-.7.1-.8-.5-.2-1 3.9-2.8 10.4-2 11.2-1.1.8 1-.2 7.5-3.9 10.6-.6.5-1.1.2-.9-.4.9-1.9 2.8-6.6 1.9-7.8z"/>
</svg>