<svg xmlns="http://www.w3.org/2000/svg" fill="none" viewBox="0 0 142 23">
    <path fill="#828282" d="M22.7 2.4H13v17.3h9.7V2.4z" />
    <path fill="#4F4F4F" d="M13.6 11a11 11 0 014.2-8.6 11 11 0 100 17.3 11 11 0 01-4.2-8.7z" />
    <path fill="#C8C8C8"
        d="M35.7 11A11 11 0 0118 19.7a11 11 0 000-17.3A11 11 0 0135.7 11zM67 18.7l2.7-15.4H74l-2.6 15.4H67zM86.5 3.7a10 10 0 00-3.7-.6c-4 0-7 2-7 5 0 2.2 2 3.5 3.6 4.2 1.7.7 2.2 1.2 2.2 2 0 1-1.3 1.4-2.5 1.4-1.7 0-2.5-.3-4-.9l-.5-.2-.6 3.5c1 .5 2.8.8 4.7.8 4.5 0 7.3-2 7.3-5.3 0-1.8-1-3-3.4-4.2-1.5-.7-2.4-1.2-2.4-1.9 0-.6.7-1.3 2.4-1.3 1.3 0 2.4.2 3 .6l.4.1.5-3.2zM97.2 3.3H94c-1 0-1.8.3-2.2 1.3l-6.2 14H90l.8-2.2h5.4l.5 2.3h3.9L97.2 3.3zM92 13.2l1.7-4.4.6-1.4.3 1.3 1 4.5H92zM63.6 3.3l-4 10.5-.6-2.2a12 12 0 00-5.7-6.5L57 18.6h4.4L68 3.2h-4.4v.1z" />
    <path fill="#828282" d="M55.7 3.3H49v.4C54 4.9 57.6 8 59 11.6l-1.4-7c-.2-1-1-1.3-2-1.3z" />
    <path fill="#C8C8C8" fill-rule="evenodd"
        d="M142 14.2c0 .5-.4.7-1 .7h-1.2v-.5h1.4v-.2-.2h-.2c-.6 0-1.3 0-1.3-.8 0-.4.3-.8.9-.8h1.2v.6h-1.3l-.1.2v.2h.6c.4 0 .6 0 .8.2l.1.6zm-2.6-.6l-.7-.2h-.6l-.1-.2V13H139.5v-.6h-1.2c-.6 0-.8.4-.8.8 0 .8.7.7 1.2.8h.2l.1.2v.2h-1.5v.5h1.2c.6 0 1-.2 1-.7l-.2-.6zm-2.3.8h-1.5V14h1.4v-.5h-1.4V13h1.5v-.5h-2V15h2v-.5zm-2.7-1.9H132.3v2.4h.6V14h.6l.5.1v.8h.7v-.4l-.1-.5-.3-.2c.1 0 .4-.3.4-.7 0-.3-.1-.4-.3-.6zm-3.4 0h-2l-.8.8-.7-.9h-2.4V15h2.4l.8-.8.7.8h1.2v-.8h.7c.5 0 1-.1 1-.8 0-.7-.5-.9-1-.9zm3 1h-1.1V13h.7l.3.1.1.2v.3zm-3 0h-.8V13h.8c.2 0 .3.1.3.4 0 .2-.1.3-.3.3zm-2.4.2l1-1v2l-1-1zm-1.4.7h-1.5V14h1.3v-.5h-1.3V13h1.5l.7.8-.7.7zm13-3.8h-.8l-1.2-2v2H137l-.2-.6h-1.3l-.2.6h-.7c-.3 0-.7 0-1-.3l-.2-1c0-.3 0-.7.3-1l1-.2h.5v.5h-.6l-.4.1-.2.6c0 .3 0 .5.2.6l.4.2h.2l1-2h.8l1 2.3V8.1h1l1 1.7V8.1h.7v2.5zM133.2 8h-.6v2.5h.6V8zm-1.3 0H129.7v2.5h.6v-1h.6c.2 0 .4 0 .5.2v.8h.7V10l-.1-.5-.3-.2c.1 0 .4-.3.4-.7 0-.2-.1-.4-.3-.5zm-2.6 2h-1.4v-.5h1.4V9h-1.4v-.4h1.4V8h-2v2.5h2V10zm-2.4-2h-1l-.8 1.7-.8-1.7h-1v2.3l-1-2.3h-.9l-1 2.5h.6l.2-.6h1.3l.2.6h1.3v-2l.8 2h.6l.9-2v2h.6V8zm9.8 1.4l-.4-1-.5 1h.9zm-5.3-.4h-1v-.5h1l.1.3V9zm-10 .4l.5-1 .4 1h-.9zM141.8 0h-21.6v9.1l.8-1.6h1.5l.3.4v-.4h1.8l.4.9.4-1h5.9c.3 0 .5.1.7.3v-.2h1.6v.2c.3-.2.6-.2 1-.2h2.3l.2.4v-.4h1.8l.2.4v-.4h1.7V11H139l-.3-.5v.5h-2.1l-.3-.6h-.5l-.2.6h-1.1l-1-.2v.2H131v-.8l-.1-.1h-.1v.9h-5v-.5l-.3.5h-1l-.2-.4v.4h-2l-.3-.6h-.5l-.2.6h-1v10.7h21.5v-6.5l-.9.2h-1.6v-.3c-.1.2-.5.3-.8.3h-5v-.9h-.1v.9h-1.7v-1l-.8.1h-.2v.9h-2l-.4-.6-.6.6h-3.2v-3.6h3.3l.5.6.5-.6h2.1c.3 0 .7 0 .9.2V12h2c.1 0 .5 0 .8.2V12h3v.2l.7-.2h1.6v.2l.8-.2h1V.1z"
        clip-rule="evenodd" />
</svg>