<svg xmlns="http://www.w3.org/2000/svg" fill="none" viewBox="0 0 146 24">
    <path fill="#C7C7C7"
        d="M111.41 10.37c-.01.07-.08.13-.19.13h-1.82c-.1 0-.16-.06-.14-.13l.01-.05a1.4 1.4 0 011.23-.78c.76 0 .95.66.91.83zm-2.5 1.82l.02-.16c.02-.1.08-.15.18-.15h3.65c.1 0 .16-.04.17-.14l.22-1.16c.22-1.2-.64-2.55-2.37-2.55-1.36 0-2.49.82-3.03 1.74-.15.27-.25.54-.3.8l-.34 1.79c-.27 1.5.65 2.55 2.39 2.55 1.33 0 2.1-.54 2.71-1.27l.11-.13v-.03.03c.11-.14.2-.26.2-.3.01-.05-.01-.09-.07-.12l-1.05-.53a.77.77 0 00-.24-.1c-.04 0-.1.03-.13.09-.4.61-.85.85-1.25.85-.63 0-1.01-.48-.9-1.04l.03-.17z" />
    <path fill="#828282"
        d="M117.55 11.37l2.2-3.16c.04-.1.07-.14.06-.2-.02-.07-.07-.12-.19-.12h-1.8c-.06 0-.1.03-.13.08l-1.12 1.6-.96-1.6a.12.12 0 00-.03-.03.12.12 0 00-.1-.06h-1.8c-.1 0-.16.05-.18.13l.03.1.03.1 1.81 3.13-2.19 3.16-.04.08-.02.11c.02.08.07.13.19.13h1.8c.04 0 .09-.03.1-.08l1.14-1.6 1.84 3.36.03.06c.03.04.07.07.13.07h16.09c.06 0 .1-.02.13-.08l.18-.76c.03-.1.03-.16-.04-.2-.05-.04-.1-.04-.21-.03h-14.53a.14.14 0 01-.09-.04l-2.33-4.15z" />
    <path fill="#C7C7C7"
        d="M143.83 12.7h.18a6.82 6.82 0 00-5.46 2.66 6.84 6.84 0 01-5.66 2.93h-22.73a6.84 6.84 0 01-5.25-2.39c-.05-.02-.33-.42-.35-.45a6.8 6.8 0 00-5.53-2.75h-1.01s-.04.41 0 3.5c.03 3.08 3.2 2.8 3.2 2.8l40.1-.04s3.68.03 3.68-2.76v-3.5h-1.17zM141.43 5c-10.63.05-37.2.05-40.1 0-3.68-.06-3.31 2.65-3.31 2.65v3.65h1.01a6.8 6.8 0 005.54-2.76 6.85 6.85 0 015.59-2.84h22.73a6.84 6.84 0 015.66 2.94 6.82 6.82 0 005.46 2.66h.99V7.97s.23-2.98-3.57-2.96z" />
    <path fill="#C7C7C7"
        d="M124.94 8.18h-1.07c-.11 0-.15-.05-.13-.15l.17-.95c.02-.1-.02-.15-.12-.15h-1.2c-.1 0-.16.05-.18.15l-.01.08-.05.22-.13.65c-.02.1-.07.14-.17.14h-1.02c-.1 0-.16.05-.18.15v.04l-.24 1.18a.2.2 0 000 .07c0 .05.05.07.12.07H121.56c.08.02.12.06.1.15l-.47 2.53c-.2 1.05.2 1.89 1.18 2.29.42.17.96.26 1.25.26h.01c.09 0 .15-.05.17-.15l.23-1.23c.02-.1-.02-.15-.11-.15-.79-.06-1.09-.5-.99-1.02l.44-2.37.03-.16c.02-.1.07-.14.18-.14h1.02c.1 0 .15-.05.17-.15l.23-1.23c.03-.13-.06-.13-.06-.13zM133.54 12.93c-.24.26-.62.47-.97.47h-.58c-.25 0-.38-.2-.34-.42l.04-.22c.04-.21.26-.4.49-.4h1.62l-.04.23c-.05.12-.12.23-.22.34zm1.38 1.98c.1 0 .16-.05.18-.15l.75-4.06c.28-1.5-.64-2.53-2.39-2.53-1.18 0-1.94.4-2.56 1.1-.19.21-.4.5-.43.57 0 .04.02.07.08.1l1.05.58c.06.03.11.07.17.07.05 0 .1-.03.14-.09.48-.6.9-.82 1.27-.82.63 0 1.04.42.94.98l-.04.18c-.01.08-.07.13-.17.14h-1.47c-.96 0-1.84.47-2.28 1.25-.11.2-.2.43-.24.68l-.01.07c-.22 1.15.59 1.93 1.8 1.93h.57c.3 0 .62-.1.98-.26a.3.3 0 01.15-.05c.08 0 .1.08.07.19-.01.09.03.12.14.12h1.3zM126.53 14.9c.1 0 .15-.04.17-.14l.7-3.77a1.33 1.33 0 011.29-1c.32 0 .44.12.53.12.08 0 .16-.06.18-.15l.27-1.46c.01-.07-.02-.13-.1-.14a1.87 1.87 0 00-.42-.05c-.49 0-1.06.28-1.24.44-.03.02-.05.04-.11.04-.07 0-.12-.06-.1-.14l.04-.2c.02-.12-.02-.14-.13-.14h-1.3c-.1 0-.16.05-.18.15l-.01.05-1.16 6.25c-.02.1.02.14.13.14h1.43z" />
    <path fill="#C7C7C7" fill-rule="evenodd"
        d="M71.23 23.28v-1h4.59c.46 0 .83-.47.83-1.06l1.95-19.8c0-.6-.46-1.07-1.03-1.07H58.5c-.57 0-1.04.47-1.04 1.06l1.98 19.8c0 .6.37 1.07.83 1.07H65v1h6.24zm-8.68-10.34h-2.02v3.56h2.02v-.76h-.88v-.67h.88v-.67h-.88v-.67h.88v-.8zm2.68 0h2.03v.79h-.89v.67h.89v.67h-.89v.67h.89v.76h-2.03v-3.56zm7.2 0h-2v3.56h2v-.76h-.88v-.67h.89v-.67h-.89v-.67h.89v-.8zm-8.37 2.8h.9v.76h-2.02v-3.56h1.12v2.8zm3.97.76l-.56-3.56h1l.42 2.4.44-2.4h.84l-.67 3.56h-1.47zm5.99-3.56h-1.1v3.56h1.1v-3.56zm.62.98c0-.22-.57-.32-.62.07v-.47l.01-.37c.8-.57 1.7-.32 1.7.33v3.02h-1.1v-2.58z"
        clip-rule="evenodd" />
    <path fill="#828282" d="M60.94 3.24H73.7c-1.26.47-5.09 3.03-6.04 4.77h-6.72l-.01-4.77z" />
    <path fill="#737373"
        d="M71.11 16.9c-.18 1.72-.18 3.82-.18 6.03h-5.54c0-2.21.1-4.31.28-6.04h5.44zM71.63 12.44c.1-1.37 2-3.59 3.82-4.18V2.99c-5.03 2.23-8.3 5.6-9 9.44h5.18z" />
    <path fill="#C8C8C8"
        d="M1.16 3.08A1.2 1.2 0 000 4.28v.55h36.95V4.3c0-.66-.52-1.2-1.15-1.2H1.16zM2.95 11.74c0-1.76 1.38-3.2 3.07-3.2 1.7 0 3.06 1.44 3.06 3.2 0 1.75-1.38 3.2-3.06 3.2a3.15 3.15 0 01-3.07-3.2zM28.23 11.74c0-1.76 1.39-3.2 3.07-3.2 1.7 0 3.07 1.44 3.07 3.2 0 1.75-1.39 3.2-3.07 3.2a3.15 3.15 0 01-3.07-3.2z" />
    <path fill="#C8C8C8" fill-rule="evenodd"
        d="M36.95 5.73h-5.88c-2.63-.06-3.98 1.58-5.7 3.67l-.42.5-1.83 2.21 2.9 3.62c.7 1.11-.63 2.2-1.45 1.2l-2.66-3.33-2.61 3.16c-.84 1-2.12-.11-1.43-1.23l2.84-3.44-1.85-2.3 1.2-1.54 1.89 2.37 1.62-1.97.59-.75c.62-.8 1.28-1.67 2.08-2.17H0v12.5h6.14c2.72 0 4.01-1.64 5.79-3.88l.22-.29 1.79-2.26-2.99-3.55c-.71-1.1.57-2.23 1.41-1.22l2.76 3.26 2.54-3.22c.8-1.03 2.12.07 1.45 1.18l-2.75 3.51 1.9 2.26-1.19 1.49-1.89-2.24-1.58 2.02-.52.69c-.62.82-1.27 1.7-2.08 2.24h25.95V5.73zm-26.08 6a4.98 4.98 0 01-4.85 5.07 4.98 4.98 0 01-4.86-5.06 4.98 4.98 0 014.86-5.06 5 5 0 014.85 5.06zM31.3 16.8a4.98 4.98 0 01-4.85-5.06 4.98 4.98 0 014.85-5.06 4.98 4.98 0 014.86 5.06 4.98 4.98 0 01-4.86 5.06z"
        clip-rule="evenodd" />
    <path fill="#C8C8C8" d="M36.95 19.1H0v.55c0 .65.53 1.2 1.16 1.2H35.8a1.2 1.2 0 001.15-1.2v-.55z" />
</svg>