<svg xmlns="http://www.w3.org/2000/svg" viewBox="0 0 89 58.2" role="img" aria-label="[title]">
  <title>Contentful</title>
  <path fill="#c7c7c7"
    d="M39.1 36.6a10.5 10.5 0 01-.1-15 4 4 0 000-5.9 4.2 4.2 0 00-6 0 19 19 0 00.1 26.8 4.2 4.2 0 006 0 4.2 4.2 0 000-5.9z" />
  <path fill="#afafaf"
    d="M39.1 21.6c1.9-2 4.6-3.2 7.6-3.2s5.6 1.2 7.6 3.1a4.2 4.2 0 006 0 4 4 0 000-5.9 19.3 19.3 0 00-27.1.1 4 4 0 000 5.9 4.2 4.2 0 005.9 0z" />
  <path fill="#828282"
    d="M54.2 36.6c-1.9 2-4.6 3.2-7.6 3.2a11 11 0 01-7.6-3.1 4.2 4.2 0 00-6 0 4 4 0 000 5.9c3.5 3.3 8.3 5.5 13.5 5.5 5.3 0 10.1-2.1 13.5-5.6a4 4 0 000-5.9c-1.4-1.6-4.1-1.6-5.8 0z" />
  <path fill="#0D1111" fill-opacity=".1"
    d="M36.1 22.8c2.3 0 4.2-1.9 4.2-4.2 0-2.3-1.9-4.2-4.2-4.2a4.2 4.2 0 00-4.2 4.2c0 2.3 1.9 4.2 4.2 4.2z" />
  <path fill="#0D1111"
    d="M36.1 43.7c2.3 0 4.2-1.9 4.2-4.2 0-2.3-1.9-4.2-4.2-4.2a4.2 4.2 0 00-4.2 4.2c0 2.3 1.9 4.2 4.2 4.2z"
    opacity=".1" />
</svg>