<svg xmlns="http://www.w3.org/2000/svg" viewBox="0 0 89 58.2" role="img" aria-label="[title]">
  <title>Facebook Business Manager</title>
  <path fill="#c8c8c8" d="M35.5 26.7l6.9 6.2h.2l3.2-2.5h.2l7.3 6.2c.1.1 0 .3-.1.3H35.4l-.1-.1V27c0-.4.1-.4.2-.3zM47.8 24h-7.1l-.1-.1v-2.7l.1-.1h7.1l.1.1v2.7l-.1.1z"/>
  <path fill="#c8c8c8" d="M30.7 12.1h27.6c1.8 0 3.2 1.4 3.2 3.2V43c0 1.7-1.4 3.2-3.2 3.2H30.7a3.2 3.2 0 01-3.2-3.2V15.3c0-1.8 1.4-3.2 3.2-3.2zM33 38.3c0 .6.4 1 1 1h21.2c.6 0 1-.4 1-1V25c0-.6-.4-1-1-1h-5v-4.2c0-.5-.4-.9-.9-.9h-9.9c-.5 0-.9.4-.9.9V24H34c-.6 0-1 .4-1 1v13.3z"/>
</svg>