<svg xmlns="http://www.w3.org/2000/svg" viewBox="0 0 89 58.2" role="img" aria-label="[title]">
  <title>G Suite</title>
  <path fill="#c7c7c7" d="M43.2 33.6c0 1.7-.6 3-1.8 4.1a7 7 0 01-4.6 1.5 6.8 6.8 0 01-6.7-5.2l2.4-1 .7 1.6c.3.5.6.9 1 1.2l1.3.8 1.5.3c1.1 0 2.1-.3 2.8-.9a3 3 0 001.1-2.3c0-.8-.3-1.5-.9-2.1a8.6 8.6 0 00-3.1-1.6 27 27 0 01-2.9-1.1c-2-1-3.1-2.6-3.1-4.6 0-1.4.6-2.6 1.7-3.6 1.2-1 2.5-1.5 4.2-1.5 1.5 0 2.7.4 3.8 1.1 1.1.7 1.8 1.7 2.2 2.8l-2.3.9c-.2-.7-.6-1.3-1.3-1.8-.6-.5-1.4-.7-2.3-.7-1 0-1.8.3-2.4.8-.7.5-1 1.2-1 1.9s.3 1.2.8 1.7c.6.5 1.8 1.1 3.7 1.7 1.9.7 3.3 1.5 4.2 2.4a7 7 0 011 3.6zM56.9 38.7h-2.4v-1.8h-.1c-.4.6-1 1.2-1.7 1.6-.8.4-1.6.6-2.4.6a5 5 0 01-3.7-1.4c-.9-.9-1.3-2.2-1.3-3.9v-8.3h2.5v8.1c.1 2.2 1.1 3.2 3.2 3.2 1 0 1.8-.4 2.5-1.2.7-.8 1-1.8 1-2.9v-7.3H57v13.3zM62.5 21c0 .5-.2.9-.5 1.2-.3.3-.8.5-1.2.5s-.9-.2-1.2-.5c-.4-.3-.6-.7-.6-1.2s.2-.9.5-1.2c.3-.3.8-.5 1.2-.5s.9.2 1.2.5c.4.3.6.7.6 1.2zm-.5 4.6v13.1h-2.5V25.6H62zM69.6 38.9c-1.1 0-2-.3-2.7-1a3.8 3.8 0 01-1.1-2.8v-7.4h-2.3v-2.3h2.3v-4h2.5v4h3.2v2.3h-3.2v6.5c0 .9.2 1.5.5 1.8s.7.5 1.2.5l.6-.1.5-.2.8 2.2c-.7.4-1.5.5-2.3.5zM78.8 39.1c-1.9 0-3.5-.7-4.8-2a7.2 7.2 0 01-1.9-5c0-2 .6-3.7 1.8-5 1.2-1.3 2.8-2 4.7-2 1.9 0 3.5.6 4.7 1.9 1.2 1.3 1.7 3 1.7 5.3v.3H74.6c0 1.3.5 2.3 1.3 3.1a4 4 0 003 1.2c1.6 0 2.8-.8 3.7-2.4l2.2 1.1c-.6 1.1-1.4 2-2.5 2.6-1 .6-2.2.9-3.5.9zm-4-8.6h7.5c-.1-.9-.4-1.7-1.1-2.3a4 4 0 00-2.7-.9c-.9 0-1.7.3-2.4.9-.6.6-1 1.4-1.3 2.3zM18.9 24.7a9.5 9.5 0 00-2-1.5 6.8 6.8 0 00-5.1 0c-.8.3-1.4.7-2 1.3a6 6 0 00-1.9 4.6c0 1 .2 1.8.5 2.6s.8 1.4 1.4 2c.6.5 1.2 1 2 1.3a6.9 6.9 0 004.8.1c.7-.3 1.3-.6 1.8-1.1l.9-1.1c.3-.5.5-.9.6-1.5h-5.8v-3.3h9.5l.1.8.1.9c0 1.3-.2 2.5-.6 3.6-.4 1.1-1 2-1.7 2.9-.9.9-1.9 1.6-3.1 2.1A10.7 10.7 0 017 36.3c-.9-.9-1.6-1.9-2.2-3.2a10.6 10.6 0 010-8 10.2 10.2 0 019.3-6.1c1.6 0 3 .3 4.2.8a9 9 0 013.2 2.3l-2.6 2.6z"/>
</svg>