<svg xmlns="http://www.w3.org/2000/svg" viewBox="0 0 89 58.2" role="img" aria-label="[title]">
  <title>Linux</title>
  <path fill="#C8C8C8" d="M63.8 44.5c-.2-.5-.4-.8-.7-1l-.6-.8-.4-1.1c-.1-.5-.3-1.1-.6-1.6s-.7-1-1.1-1.2l-.1-.6.2-1c.3-1.7.2-3.3-.3-4.9-.2-1.2-.7-2.3-1.2-3.3l-1.7-2.8-1.2-1.6a25 25 0 00-1.2-1.7 9 9 0 01-1.7-3.4c-.3-1.2-.2-2.4-.2-3.6A18 18 0 0052 9c-.4-.9-1-1.7-1.7-2.3a5.3 5.3 0 00-2.9-1.2 8.4 8.4 0 00-5.4.8c-1.1.5-3.2 2.2-3.2 5.8 0 2 .1 4-.1 6L38 21a7 7 0 01-1.3 2.4l-1.8 2.3-1.3 1.9-1.7 3.1c-.4.7-.6 1.5-.9 2.3-.5 1.4-.6 2.8-.5 4.3l-.2.6-.7.8c-.5 1-1.5 1.4-2.4 1.7-.7.3-1.2.7-1.6 1.4-.4.7-.3 1.5-.1 2.2a7 7 0 01-.3 3.2c-.2.8-.2 1.6.6 2.3.6.5 1.3.6 2.1.8l3.8.7c.8.2 1.5.6 2.2 1 1 .4 2 .6 3 .5 1.2-.1 2.1-.5 2.9-1.5.2-.3.6-.6 1-.6l1.8-.2c1.2-.3 2.5-.3 3.7-.1l2.7.3h.3l.4.3.2.1c.2.5.6 1 1.1 1.5.6.6 1.4.8 2.7.8 1.6 0 2.4-.7 3.2-1.6.4-.5.9-.8 2.2-1.7l.7-.5 1.1-.6c1.5-.9 3.6-2 2.9-4.2zm-19-31.4c.3-.6.9-1.7 2.2-1.4.7.1 1.4.4 1.9 1.3.6 1 .4 2 .2 2.8-.1.5-.2 1-.5 1.2h-.3l-1.3-.7.5-.4c.2-.3.2-.6.2-1-.1-.7-.4-1.3-1-1.3-.2 0-.5.1-.6.3-.2.3-.3.8-.3 1.2v.5c-.7-.3-1.3-.5-1.3-.7a3 3 0 01.3-1.8zm-1.3 2.6c.8 0 1.3.3 1.9.6l.6.3.3.1c.8.3 2.5 1 2.5 1.7.1.8-.9 1.5-2.1 2.3 0 0-1.5 1.2-2.6 1.2s-2-.6-2.9-1.3l-.5-.4c-.7-.5-1-.8-1-1.4 0-.7.3-.9 1.2-1.5l.4-.3s1.2-1.2 2.2-1.3zm-4-1.2c.1-.6.2-1.8 1.2-2.3.5-.2 1.1-.1 1.5.4.4.6.8 1.1.8 1.9v.7l-.1.1-1.1.7v-.7l-.2-.9c-.2-.2-.4-.4-.6-.4-.2 0-.3.1-.4.3-.2.3-.1.7-.1.9 0 .3.3 1.1.5 1.4l-.4.2-.3.1-.5-.8c-.3-.6-.4-.8-.3-1.6zm-.6 34.9c-.3.8-.9 1.2-1.8 1.5a5 5 0 01-3.4-.5c-1.6-.8-3.3-1.2-5.1-1.3-.6 0-1.2-.2-1.7-.5-.3-.1-.5-.6-.5-.9l.2-1.6.2-1.1-.2-1.4c-.1-.7 0-1.5.7-1.9l.9-.4c1-.3 1.7-.9 2.2-1.7 1-1.5 2.4-1.4 3.4-.1.8.9 1.2 2 1.7 3l.6 1.1 2.3 3.1c.6.8.9 1.7.5 2.7zm10.2-2.7c-1.1.7-2.3 1-3.5 1.3-1 .2-2 .2-3-.1-.7-.2-1.4-.4-2.1-.8a4 4 0 01-1.4-1.2l-.4-.6c-.1-.2-.1-.4.2-.5.9-.3 1.3-1.1.9-2a5 5 0 00-1.6-2.2l-2-1.6c-1.1-.9-1.6-2.4-1.4-4.6.1-.8.2-1.7.6-2.5l1.7-3.8 1.3-2.5c.7-1.4 1.2-2.8 1.4-4.4l.3-.6.1.1.5.4c1 .7 1.9 1.4 3.2 1.4 1.2 0 2.8-1.1 2.9-1.3l1.5-1.1c.3-.2.7 0 .8.3l.7 2.3 1.1 2.9 1.6 3.4c.7 1.5 1.3 3 1.6 4.6 0 .2.3.3.4.4 1 .2 2 .4 2.9 1 .9.6 1.6 1.4 1.7 2.6 0 .3-.1.5-.4.5-.2-.8-.7-1.4-1.5-1.7-.7-.4-1.5-.8-2.3-.9-1-.1-1.6.3-1.9 1.2-.1.3-.3.6-.6.8l-.2.1-.2.2h-.1l-.5.7c-.4.6-.7 1.4-.7 2.3l-.2 2.4-.1.8-.1.6c-.1.5-.2 1-.5 1.4.2.3-.3.5-.7.7zm11.3 1l-1.2.7-.7.5-2.4 1.8c-.8.9-1.4 1.3-2.4 1.3-1.2 0-1.6-.3-1.9-.5-.3-.3-1.2-1.1-1.2-2.4 0-.6.2-1.2.5-1.9.3-.8.6-1.8.7-3l.1-.8.2-2.5c0-1.1.8-2.2 1.1-2.3l.4-.1h.1l.3.3a7 7 0 001 2.1c.5.5 1.4-.1 2.4-.7l.1-.1c.4-.3.9-.6 1.8-.6 1 0 1.4.7 1.6 1l.5 1.4.5 1.3c.2.5.5.8.7 1l.4.6c.2 1.3-.9 2-2.6 2.9z"/>
  <path fill="#C8C8C8" fill-rule="evenodd" d="M47.5 18.5s-2.4 1.8-4.1 1.9c-1.7.1-3-1.6-3-1.6" clip-rule="evenodd"/>
  <path fill="#C8C8C8" d="M43.2 20.6c-1.8 0-3-1.6-3.1-1.7-.1-.1-.1-.3.1-.4.1-.1.3-.1.4.1 0 0 1.2 1.5 2.8 1.5 1.6-.1 4-1.8 4-1.8.1-.1.3-.1.4.1.1.1.1.3-.1.4-.1.1-2.5 1.9-4.3 1.9l-.2-.1z"/>
</svg>