<svg xmlns="http://www.w3.org/2000/svg" viewBox="0 0 89 58.2" role="img" aria-label="[title]">
  <title>Sass</title>
  <path fill="#C8C8C8" fill-rule="evenodd" d="M26.7 45.8h-.3l-1.3-.1c-.4-.1-.7-.3-.9-.7-.4-.5-.7-1.2-.8-1.8a4 4 0 01.4-2.4c.3-.8.8-1.3 1.4-2 1-1 2.2-1.8 3.5-2.5l1.8-1 .1-.1-.4-.4-2.2-1.6-2.6-2c-.9-.8-1.8-1.7-2.5-2.8-.4-.4-.8-1.2-.9-2v-1.1c.3-1.2.7-2.1 1.3-3.1.7-1.2 1.6-2.1 2.6-3 1.6-1.4 3.4-2.6 5.2-3.7 1.8-.9 3.8-1.8 5.8-2.5l3-.7 1.6-.1h1c1.6 0 3 .3 4.3.9.9.4 1.7.9 2.4 1.7.4.7.7 1.3.8 2v.7a7.7 7.7 0 01-2.1 5.4c-1 1.3-2.4 2.4-3.9 3.1-1 .5-2.1.8-3.2 1l-2.1.4h-2a5 5 0 01-2.1-.4 7 7 0 01-2.1-1.4c-.1 0-.3-.4-.3-.7v-.3l.3-.1.3.3c.4.4.9.7 1.4.9.5.3 1.1.3 1.7.4l2.4-.1c1.6-.3 3-.8 4.3-1.4 1.2-.7 2.4-1.4 3.3-2.5.8-.8 1.3-1.7 1.7-2.8.1-.4.3-.9.3-1.4 0-.9-.5-1.7-1.3-2.1-.7-.4-1.3-.5-2-.7l-1.9-.1a19.8 19.8 0 00-9 2.8 10 10 0 00-3.4 1.8c-.9.7-1.8 1.3-2.6 2.2-.7.5-1.2 1.3-1.7 2.2-.3.5-.4 1.2-.5 1.7-.1 1.2.3 2.4 1 3.3.5.7 1.2 1.3 1.8 1.8l2.5 2 1.4 1.4c0 .1.1 0 .1 0 1-.7 2.2-1.2 3.3-1.8l.9-.5.1-.1c.8-.9 1.6-1.8 2.8-2.4l1.2-.3c.7 0 1 .3 1.3 1l.1 1.2-.1.7c.1-.1.3-.3.5-.3.4 0 .7 0 .9.4l.1.5c-.3.8-.4 1.6-.7 2.2l-.5 2.2v1.1l.1-.1.4-.5 1.4-3.2 1.8-4.2c.3-.7.7-1.4.8-2.1 0-.3.1-.4.4-.4l.8-.1h.7l.5.1.1.1.1.3c.3.3.1.7.1 1l-.1 2c.1.7.4 1.3.7 2v0a41 41 0 002.7-5.7c0-.3.1-.5.3-.8 0-.1.1-.3.3-.3l.7-.1h.8l.7.1.3.1.1.4-.4 1.2-.1 1.4c0 .7.1 1.3.5 2l.5.9c0 .1.1.1.1 0 .8-.4 1.6-.7 2.4-.8l1-.1H61a7 7 0 014.1 1.4c.8.7 1.4 1.6 1.7 2.6.1.9 0 1.7-.5 2.5L65 38.9l-.4.1-.1-.1v-.1l.3-.1c.4-.3.8-.7 1.1-1.2.3-.7.3-1.2 0-1.8-.3-.8-.9-1.4-1.7-1.8-.7-.4-1.3-.7-2.1-.8l-1.3-.1a9 9 0 00-3.3.4c-.3.1-.3.1-.1.4l.3 1.3c0 .7-.1 1.2-.5 1.6a5 5 0 01-2.5 1.8l-.9.3c-.7.1-1.2-.3-1.3-.8-.1-.4 0-.8.1-1 .1-.8.7-1.4 1-2a8 8 0 011.3-1.3c.1 0 .1-.1 0-.1l-.7-1.3c-.3-.7-.4-1.3-.5-2.1v-.1l-.1.1c-.7 1.4-1.4 2.8-2.4 4.1-.1.1-.1.3-.3.3v.1c.1.4.4.9.4 1.4.1 1.1 0 2-.8 2.8a7 7 0 01-1.8 1.2l-1.4.4h-1.1c-.3-.1-.5-.3-.5-.5l.1-.7c.1-.3.4-.5.7-.8l2-2.5.5-.7v-.1l-.5-1.2-.7-2-.1-.5v-.1l-.1.1c-.7 1.8-1.4 3.5-2.4 5.2-.5.9-1.1 1.8-1.4 2.8-.3.5-.7.9-1.2 1.3l-.5.3a1 1 0 01-1-.4l-.3-1v-1.2l.1-.9v-.1.1l-1.3 2.9c-.1.4-.4.7-.7.9-.4.3-.7.4-1.2.3-.3 0-.5-.1-.8-.3l-.5-.8a6 6 0 01-.8-2.1l-.1-1.3c0-.5.1-1.2.3-1.7l.4-1.3v-.1h-.1l-2.4 1.3s-.1.1 0 .1c.3.5.4 1.1.5 1.7.1.5.1 1 0 1.6a7.8 7.8 0 01-1.4 4.1 6.4 6.4 0 01-3.8 2.6l-1.7.3h-.6c.1 0 .1 0 0 0zm5.2-9.6l-.3.1c-1.2.7-2.4 1.4-3.4 2.4-.7.5-1.2 1-1.4 1.8-.3.7-.5 1.2-.4 2 0 .4.3.8.7.8l.4.1c.7 0 1.2-.1 1.7-.5 1-.5 1.8-1.4 2.5-2.5.4-.7.7-1.4.7-2.2V37c-.3-.3-.5-.6-.5-.8zm5.6.9l.1 1 .3.7c.1.1.3.1.4 0l.1-.1.5-.8c.3-.8.7-1.4.9-2.2l1.2-3.3.3-1.2c0-.1 0-.3-.3-.3h-.4c-.5.1-.8.5-1.2.8-.4.5-.7 1.1-.9 1.6-.7 1.3-1 2.5-1 3.8zm17.9-2.6c-.1 0-.1 0 0 0l-.7.7c-.5.7-.9 1.3-1.2 2.1v.3l.1.1c.5-.3 1.1-.5 1.3-1 .4-.5.4-1 .4-1.7l.1-.5zm-5.9 1.9s-.1 0 0 0c-.1 0-.1 0 0 0l-1.4 1.7-.7.8v.1h.1l.4-.1c.4-.3.8-.5 1-.9.4-.4.7-.9.7-1.4l-.1-.2z" clip-rule="evenodd"/>
</svg>