<svg xmlns="http://www.w3.org/2000/svg" viewBox="0 0 89 58.2" role="img" aria-label="[title]">
  <title>Slack</title>
  <path fill="#c8c8c8" d="M35.2 33.3c0 1.9-1.5 3.4-3.4 3.4a3.4 3.4 0 01-3.4-3.4c0-1.9 1.5-3.4 3.4-3.4h3.4v3.4zM36.9 33.3c0-1.9 1.5-3.4 3.4-3.4s3.4 1.5 3.4 3.4v8.4c0 1.9-1.5 3.4-3.4 3.4a3.4 3.4 0 01-3.4-3.4v-8.4zM40.3 19.8a3.4 3.4 0 01-3.4-3.4c0-1.9 1.5-3.4 3.4-3.4s3.4 1.5 3.4 3.4v3.4h-3.4zM40.3 21.5c1.9 0 3.4 1.5 3.4 3.4s-1.5 3.4-3.4 3.4h-8.4a3.4 3.4 0 01-3.4-3.4c0-1.9 1.5-3.4 3.4-3.4h8.4zM53.8 24.9c0-1.9 1.5-3.4 3.4-3.4s3.4 1.5 3.4 3.4-1.5 3.4-3.4 3.4h-3.4v-3.4zM52.1 24.9c0 1.9-1.5 3.4-3.4 3.4a3.4 3.4 0 01-3.4-3.4v-8.4c0-1.9 1.5-3.4 3.4-3.4s3.4 1.5 3.4 3.4v8.4zM48.7 38.4c1.9 0 3.4 1.5 3.4 3.4s-1.5 3.4-3.4 3.4a3.4 3.4 0 01-3.4-3.4v-3.4h3.4zM48.7 36.7a3.4 3.4 0 01-3.4-3.4c0-1.9 1.5-3.4 3.4-3.4h8.4c1.9 0 3.4 1.5 3.4 3.4s-1.5 3.4-3.4 3.4h-8.4z"/>
</svg>