<svg xmlns="http://www.w3.org/2000/svg" viewBox="0 0 89 58.2" role="img" aria-label="[title]">
  <title>Snapchat</title>
  <path fill="#c7c7c7" d="M63.8 38c-.3-.7-.8-1.1-1.4-1.5l-.3-.2-.5-.3c-1.8-1-3.3-2.2-4.2-3.6-.3-.5-.6-.9-.7-1.3v-.5l.2-.2.9-.6.9-.6c.8-.5 1.3-1.1 1.6-1.7.5-.9.5-1.9.2-2.8a3.3 3.3 0 00-3.2-2.1l-.9.1-.2.1-.1-2.8c-.3-3.3-1.4-5-2.6-6.3a12.6 12.6 0 00-14.9-2.1c-1.3.7-2.2 1.6-2.7 2.1a10.3 10.3 0 00-2.6 6.3c-.3.9-.3 1.9-.3 2.8l-.2-.1-.9-.1c-1.5 0-2.7.8-3.2 2.1a3 3 0 00.2 2.8c.3.6.9 1.2 1.6 1.7l.9.6.8.5.3.3v.5l-.7 1.3c-1 1.4-2.4 2.6-4.1 3.6-.9.5-1.9.8-2.3 1.9-.3.8-.1 1.8.7 2.6l1 .8a18 18 0 002.9 1.2c.3.3.2.6.6 1.2l.7.7c.8.6 1.7.6 2.7.6.9 0 1.8.1 3 .4l1.5.8c1.3.8 3.2 2 6.2 2 3.1 0 4.9-1.1 6.3-2l1.5-.8c1.1-.4 2.1-.4 3-.4 1 0 1.9-.1 2.7-.6.3-.2.6-.5.8-.9l.5-1 .5-.2c.7-.2 1.5-.4 2.5-1 .4-.2.8-.5 1-.8.4-.8.6-1.7.3-2.5zm-2.7 1.4c-1.7.9-2.8.8-3.6 1.4-.7.5-.3 1.5-.8 1.9-.7.5-2.6 0-5.1.8-2.1.7-3.4 2.6-7.1 2.6-3.7 0-5-1.9-7.1-2.6-2.5-.8-4.4-.3-5.1-.8-.5-.4-.1-1.4-.8-1.9-.9-.6-2-.5-3.6-1.4-1.1-.6-.5-.9-.1-1.1 6-2.9 7-7.4 7-7.8.1-.4.1-.7-.3-1.1-.4-.4-2.3-1.6-2.9-2-.9-.6-1.3-1.2-1-2 .2-.5.7-.7 1.2-.7l.5.1c1 .2 1.9.7 2.4.8h.2c.3 0 .4-.1.4-.5-.1-1.1-.2-3.1 0-5a8 8 0 012.1-5.1c.5-.6 2.8-3 7.1-3a9 9 0 017.1 3 8 8 0 012.1 5.1c.2 1.9 0 4 0 5 0 .3.1.5.4.5h.2l2.4-.8.5-.1c.5 0 1 .2 1.2.7.3.8-.1 1.4-1 2l-2.9 2c-.4.4-.4.7-.3 1.1 0 .3 1 4.8 7 7.8.4.2 1 .6-.1 1.1z"/>
</svg>