<svg xmlns="http://www.w3.org/2000/svg" viewBox="0 0 50 50">
  <path fill="#f4f4f4" d="M25 .3A24.9 24.9 0 0 0 .3 25 24.8 24.8 0 1 0 25 .3zM36.3 36c-.4.8-1.4 1-2.2.6a28.5 28.5 0 0 0-21.7-2.3c-.8.2-1.6-.4-1.8-1.2-.2-.8.4-1.6 1.2-1.8A31.9 31.9 0 0 1 35.9 34c.6.4 1 1.4.4 2zm3.2-6.7c-.6 1-1.8 1.2-2.7.6A32.5 32.5 0 0 0 12.1 27c-1 .4-2-.2-2.3-1.2-.4-1 .2-2.2 1.4-2.3 9-2.7 20.2-1.4 27.8 3.3.7.4 1.1 1.5.5 2.5zm.2-7c-8-4.7-21.1-5.1-28.8-2.9-1.2.4-2.5-.2-2.7-1.4-.4-1.4.2-2.5 1.4-2.9a45.3 45.3 0 0 1 32.5 3.3c1.2.6 1.4 2.2.8 3.1-.7 1-2.1 1.3-3.2.8z"/>
</svg>