<svg xmlns="http://www.w3.org/2000/svg" viewBox="0 0 151.5 67" role="img" aria-label="[title]">
  <title>Starbucks Corporation</title>
  <path fill="#c8c8c8" d="M100.3 34.2c0 4.4-2.5 6.8-7.1 6.8-4.5 0-7.1-2.4-7.1-6.8v-7.9h5.1v7.6c0 2.1.6 3.1 1.9 3.1 1.4 0 2.1-.9 2.1-3.3v-7.4h5.1v7.9zM27 30v10.7h-5.2V30h-4.4v-3.7h13.9V30H27zM40 29.6l-1.3 4.9h2.6L40 29.6zm3.3 11.1l-.9-2.6h-4.9l-.9 2.6h-5.2l5.2-14.4h6.5l5.2 14.4h-5zM116.9 39.6l-1.6-3.7a5 5 0 01-3.4 1.3c-2 0-3.4-1.7-3.4-3.7 0-2.1 1.2-3.8 3.3-3.8 1.3 0 2.5.7 3.4 1.4l1.5-3.6c-1.7-.9-3.4-1.4-5.8-1.4-4.4 0-7.6 3-7.6 7.4 0 4.6 3.2 7.6 7.8 7.6 2.7-.1 4.5-.7 5.8-1.5zM128.5 40.7l-3.2-5.2v5.2h-5V26.3h5v5.3l3.1-5.3h5.6l-4.7 7.1 5.3 7.3h-6.1zM8.9 41c3.3 0 6.6-1.1 6.6-4.8 0-3.3-2.8-4.2-5-4.7-1.7-.4-2.5-.6-2.5-1.2 0-.9 1.1-.9 1.7-.9 1.5 0 2.9.6 4.1 1.3l1.3-3.3a15 15 0 00-5.9-1.3c-3.3 0-6 1.6-6 4.9 0 2.7 2.1 3.7 4.3 4.3 1.5.4 2.6.5 2.6 1.3s-.8 1-1.5 1c-1.7 0-3.2-.7-4.2-1.5l-1.7 3.1c1.9 1.1 4 1.8 6.2 1.8zM142.2 41c3.3 0 6.6-1.1 6.6-4.8 0-3.3-2.8-4.2-5-4.7-1.7-.4-2.5-.5-2.5-1.2 0-.9 1.1-.9 1.7-.9 1.5 0 2.9.6 4.1 1.3l1.3-3.3c-1.7-.8-3.9-1.3-5.8-1.3-3.4 0-6.1 1.6-6.1 4.9 0 2.7 2.1 3.7 4.3 4.3 1.6.4 2.6.5 2.6 1.3s-.7 1-1.5 1c-1.7 0-3.2-.7-4.2-1.5l-1.6 3.1c1.8 1.1 3.9 1.8 6.1 1.8zM62.1 35.3c1.8-.6 2.7-2.4 2.7-4.1 0-3.4-2.3-4.9-5.6-4.9h-7.8v14.4h5v-4.3h1.3l2.6 4.3h5.4l-3.6-5.4zm-2.3-4c0 .9-.6 1.5-1.6 1.5h-1.7v-3.1h1.8c.9 0 1.5.6 1.5 1.6zM79.5 33.4c1.8-.4 2.8-1.4 2.8-3.2 0-2.5-1.8-3.8-5.1-3.8H69v14.4h7.8c3.8 0 5.7-1.3 5.7-4.1.1-1.9-1.1-3.2-3-3.3zM74 29.5h1.8c.9 0 1.5.4 1.5 1.3 0 .8-.6 1.3-1.6 1.3H74v-2.6zm3.5 6.7c0 .9-.6 1.3-1.7 1.3H74v-2.7h1.8c1 .1 1.7.5 1.7 1.4z"/>
</svg>