<svg xmlns="http://www.w3.org/2000/svg" viewBox="0 0 89 58.2" role="img" aria-label="[title]">
  <title>Tableau</title>
  <path fill="#c7c7c7" d="M43.4 36.3h2.3v-6.2h5.8v-2.2h-5.8v-6.2h-2.3v6.2h-5.7v2.2h5.7v6.2z"/>
  <path fill="#404141" d="M32.7 45.3h2v-5.5h5.2V38h-5.2v-5.6h-1.9V38h-5.2v1.7h5.2v5.6z"/>
  <path fill="#9c9c9c" d="M54.4 25.3h2v-5.5h5.2v-1.7h-5.2v-5.6h-2v5.6h-5.2v1.7h5.2v5.5zM43.7 49.6h1.7v-3.9H49v-1.4h-3.6v-3.9h-1.7v3.9h-3.5v1.4h3.5v3.9zM32.8 25.3h1.8v-5.6h5.2v-1.6h-5.2v-5.6h-1.8v5.6h-5.2v1.6h5.2v5.6z"/>
  <path fill="#7e7e7f" d="M60.3 33.6H62v-3.9h3.6v-1.5H62v-3.9h-1.7v3.9h-3.5v1.5h3.5v3.9z"/>
  <path fill="#4f4f4f" fill-rule="evenodd" d="M54.4 45.3h2v-5.5h5.2V38h-5.2v-5.6h-2V38h-5.2v1.7h5.2v5.6z" clip-rule="evenodd"/>
  <path fill="#7e7e7f" d="M48.6 13.6v-1.2h-3.5V8.6h-1.3v3.8h-3.5v1.2h3.5v3.8h1.3v-3.8h3.5zM27 33.3h1.3v-3.8h3.5v-1.2h-3.5v-3.7H27v3.7h-3.5v1.2l3.5-.1v3.9z"/>
</svg>