<svg xmlns="http://www.w3.org/2000/svg" viewBox="0 0 89 58.2" role="img" aria-label="[title]">
  <title>Todoist</title>
  <path fill="#c8c8c8" d="M55.8 14.1H33.3a3.8 3.8 0 00-3.8 3.8v4.8l5.2 3c.3.2.8.2 1.2 0l10.2-5.9c.3-.2.8-.1 1 0l1 .6c.3.1.3.6 0 .8-.3.1-11.6 6.7-12.2 6.9-.4.3-.8.3-1.2 0l-5.2-3v2.6l5.2 3c.3.2.8.2 1.2 0l10.2-5.9c.3-.2.8-.1 1 0l1 .6c.3.1.3.6 0 .8-.3.1-11.6 6.7-12.2 6.9-.4.3-.8.3-1.3 0l-5.1-2.9v2.5l5.2 3c.3.2.8.2 1.2 0l10.2-5.9c.3-.2.8-.1 1 0l1 .6c.3.1.3.6 0 .8-.3.1-11.6 6.7-12.2 6.9-.4.3-.8.3-1.2 0l-5.2-3v5.1c0 2.1 1.7 3.8 3.8 3.8h22.5c2.1 0 3.8-1.7 3.8-3.8V17.8c0-2-1.7-3.7-3.8-3.7z"/>
</svg>