<svg xmlns="http://www.w3.org/2000/svg" viewBox="0 0 89 58.2" role="img" aria-label="[title]">
  <title>Typescript</title>
  <path fill="#c8c8c8" d="M59.8 44.6c.2 0 .2 0 .2-.2V13.8v-.2H29v31h30.8zM47.7 39l2.1-1.2h.2l.8 1c.4.4.9.6 1.5.7.5.1.9 0 1.4-.1l.9-.6c.3-.4.3-1.3-.3-1.7l-.9-.5-1.9-.9a5 5 0 01-1.9-1.3c-.5-.5-.8-1.1-.9-1.7l-.1-1.5c.1-.9.4-1.7 1.1-2.3.6-.6 1.3-.9 2.1-1l1.6-.1 1.1.2c.9.2 1.6.7 2.1 1.5l.3.5c.1.1.1.2 0 .2l-1.8 1.2H55c-.2.2-.2.2-.4-.1l-.6-.7c-.3-.2-.5-.3-.9-.3l-.8.1c-.5.2-.7.6-.8 1 0 .6.3 1 .8 1.3l1.5.7c.8.4 1.7.8 2.4 1.3a4.2 4.2 0 011.4 4.8c-.3.9-1 1.6-1.9 2-.6.3-1.1.4-1.8.5H53c-1 0-1.9-.2-2.8-.6a4.7 4.7 0 01-2.4-2.2c-.3-.1-.3-.1-.1-.2zM35.8 28.2c0-.3 0-.3.3-.3h10.5c.1 0 .2 0 .2.2v2.2c0 .2 0 .2-.2.2h-3.7c-.2 0-.2 0-.2.2v11.1c0 .2 0 .2-.2.2H40c-.2 0-.2 0-.2-.2V30.7c0-.2 0-.2-.2-.2H36c-.2 0-.2 0-.2-.2v-2.1z"/>
</svg>