<svg xmlns="http://www.w3.org/2000/svg" viewBox="0 0 89 58.2" role="img" aria-label="[title]">
  <title>WhatsApp For Business</title>
  <path fill="#c7c7c7" d="M57.6 16a18.4 18.4 0 00-28.9 22.1L26 47.6l9.8-2.5A18.4 18.4 0 0057.6 16zm-13 28.2c-2.8 0-5.4-.7-7.8-2.1l-.6-.3-5.8 1.5 1.5-5.6-.3-.7a15.3 15.3 0 0123.8-18.8c2.9 2.9 4.5 6.7 4.5 10.8 0 8.3-6.9 15.2-15.3 15.2z"/>
  <path fill="#c7c7c7" d="M48.3 28.5c1.6-.8 2.5-1.9 2.5-3.6l-.2-1.3-.7-1.2-1-.9-1.5-.6-2-.1H41c-.7 0-1.2.2-1.5.5-.3.3-.5.8-.5 1.5V35c0 .7.2 1.2.5 1.5.3.3.8.5 1.5.5h3.9l2.3-.1 1.7-.4c.8-.3 1.4-.9 1.9-1.6a4 4 0 00.7-2.5c0-1.9-1.1-3.2-3.2-3.9zm-6-5.2h1.6c1.2 0 2.1.1 2.7.4.6.3.9.8.9 1.6 0 .4-.1.7-.3 1-.2.4-.6.7-1 .9-.5.2-1.1.2-1.9.2h-1.9l-.1-4.1zm2.5 11.4h-2.5v-4.8h2.4c1.2 0 2 .2 2.6.6.6.4.9 1 .9 1.8-.1 1.5-1.2 2.4-3.4 2.4z"/>
</svg>