<?xml version="1.0" encoding="utf-8"?>
<!-- Generator: Adobe Illustrator 24.0.1, SVG Export Plug-In . SVG Version: 6.00 Build 0)  -->
<svg version="1.1" id="Capa_1" xmlns="http://www.w3.org/2000/svg" xmlns:xlink="http://www.w3.org/1999/xlink" x="0px" y="0px"
	 viewBox="0 0 89 58.2" style="enable-background:new 0 0 89 58.2;" xml:space="preserve">
<style type="text/css">
	.st0{fill:none;}
	.st1{fill-rule:evenodd;clip-rule:evenodd;fill:#070909;}
</style>
<title>Facebook</title>
<path class="st0" d="M0,0"/>
<path class="st1" d="M44.6,9.5c5.2,0,10.1,2,13.8,5.7c3.7,3.7,5.7,8.5,5.7,13.7c0,10.7-8.8,19.3-19.5,19.3h0c-3.3,0-6.5-0.8-9.3-2.4
	l-10.3,2.7l2.8-10c-1.7-2.9-2.6-6.3-2.6-9.7C25.1,18.2,33.8,9.5,44.6,9.5z M53.5,32.9c-0.5-0.2-2.9-1.4-3.3-1.6
	c-0.4-0.2-0.8-0.2-1.1,0.2c-0.3,0.5-1.3,1.6-1.5,1.9c-0.3,0.3-0.6,0.4-1.1,0.1c-0.1,0-0.2-0.1-0.3-0.1c-0.7-0.3-2-0.9-3.6-2.3
	c-1.4-1.3-2.4-2.9-2.7-3.3c-0.3-0.5,0-0.7,0.2-1c0.1-0.1,0.3-0.3,0.5-0.5c0.1-0.1,0.2-0.2,0.3-0.3c0.2-0.2,0.3-0.4,0.4-0.7
	c0,0,0-0.1,0.1-0.1c0.2-0.3,0.1-0.6,0-0.8c-0.1-0.1-0.4-1-0.8-1.9c-0.3-0.6-0.5-1.3-0.7-1.7c-0.3-0.8-0.7-0.8-1-0.8c0,0-0.1,0-0.1,0
	c-0.3,0-0.6,0-0.9,0c-0.3,0-0.8,0.1-1.3,0.6c0,0-0.1,0.1-0.1,0.1c-0.5,0.5-1.6,1.7-1.6,3.9c0,2.3,1.7,4.6,2,5c0,0,0,0,0,0
	c0,0,0,0.1,0.1,0.1c0.6,0.8,3.7,5.2,8.2,7.2c1.2,0.5,2.1,0.8,2.8,1c1.2,0.4,2.2,0.3,3.1,0.2c0.9-0.1,2.9-1.2,3.3-2.3
	c0.4-1.1,0.4-2.1,0.3-2.3c-0.1-0.2-0.3-0.3-0.7-0.4C53.7,33,53.6,33,53.5,32.9z"/>
</svg>
