<svg xmlns="http://www.w3.org/2000/svg" fill="none" viewBox="0 0 100 100">
    <path fill="#F4F4F4"
        d="M34.7 26.7c-.7 0-2 .8-2 .8-4 2.5-4.7 8.4-4.8 9.7a16 16 0 001.9 8.5c2 4.6 7.2 10.7 13.4 16.6 6.1 5.7 15.3 8.2 18.6 9.1l.3.1c2.9.8 9-.6 12-3.7 2.5-2.8 2.3-5.7 2.2-7v-.5c-.1-1-1.1-1.2-1.1-1.2l-9.6-4.7c-1.7-.7-2.5.5-2.5.5l-3.2 4c0 .2-.1.2-.2.3-.7 1-1.2 1.6-3 1a31.5 31.5 0 01-16.1-14c-.7-1.2.1-2 .1-2l3.1-3.6c1-1.3.4-2.7.2-3.3l-4-9.4c-.5-1-1.5-1.2-1.5-1.2h-3.8z" />
    <path fill="#F4F4F4" fill-rule="evenodd"
        d="M2.5 48.7a48.8 48.8 0 1148.7 48.8c-13.5 0-23.5-6-23.5-6L1 100l8.5-26s-7-11.9-7-25.3zM28.7 83s10 6.8 22.5 6.8a41 41 0 10-41-41c0 13.3 8 24.3 8 24.3l-5 15 15.5-5z"
        clip-rule="evenodd" /></svg>