<svg xmlns="http://www.w3.org/2000/svg" viewBox="0 0 89 58.2"><path fill="#070909" fill-rule="evenodd" d="M44.6 9.5c5.2 0 10.1 2 13.8 5.7 3.7 3.7 5.7 8.5 5.7 13.7 0 10.7-8.8 19.3-19.5 19.3-3.3 0-6.5-.8-9.3-2.4L25 48.5l2.8-10a19.3 19.3 0 01-2.6-9.7c-.1-10.6 8.6-19.3 19.4-19.3zm8.9 23.4c-.5-.2-2.9-1.4-3.3-1.6-.4-.2-.8-.2-1.1.2-.3.5-1.3 1.6-1.5 1.9-.3.3-.6.4-1.1.1-.1 0-.2-.1-.3-.1-.7-.3-2-.9-3.6-2.3-1.4-1.3-2.4-2.9-2.7-3.3-.3-.5 0-.7.2-1l.5-.5.3-.3c.2-.2.3-.4.4-.7 0 0 0-.1.1-.1.2-.3.1-.6 0-.8-.1-.1-.4-1-.8-1.9-.3-.6-.5-1.3-.7-1.7-.3-.8-.7-.8-1-.8h-1c-.3 0-.8.1-1.3.6l-.1.1c-.5.5-1.6 1.7-1.6 3.9 0 2.3 1.7 4.6 2 5 0 0 0 .1.1.1.6.8 3.7 5.2 8.2 7.2 1.2.5 2.1.8 2.8 1 1.2.4 2.2.3 3.1.2.9-.1 2.9-1.2 3.3-2.3.4-1.1.4-2.1.3-2.3-.1-.2-.3-.3-.7-.4-.3-.1-.4-.1-.5-.2z" clip-rule="evenodd"/></svg>