<svg width="803" height="890" viewBox="0 0 803 890" fill="none" xmlns="http://www.w3.org/2000/svg">
<path d="M551.318 421.798C550.301 419.998 549.753 417.102 549.753 413.267C549.753 408.022 548.423 403.717 544.981 401.056H545.685C548.345 401.056 549.831 399.569 549.831 396.908V395.029V377.027V375.148C549.831 372.487 548.345 371 545.685 371H543.807H523.076H521.199C518.539 371 517.053 372.487 517.053 375.148V377.027V413.267C517.053 415.615 517.053 421.094 514.236 423.207C517.053 423.755 522.138 423.911 524.797 422.346C527.223 421.015 528.631 419.528 528.631 413.267V401.134H529.569C537.158 403.326 537.627 409.275 538.097 414.362C538.253 419.763 539.661 421.172 541.93 422.424C542.79 422.894 543.807 423.207 544.981 423.364C546.389 423.598 547.797 423.677 549.205 423.598C550.457 423.52 551.63 423.442 552.569 423.285C552.022 422.816 551.63 422.346 551.318 421.798ZM531.525 390.724H529.491C529.022 390.724 528.709 390.411 528.709 389.942V387.907V384.541V382.506C528.709 382.036 529.022 381.723 529.491 381.723H531.525H535.359H537.393C537.862 381.723 538.175 382.036 538.175 382.506V384.541V387.907V389.942C538.175 390.411 537.862 390.724 537.393 390.724H535.359H531.525Z" fill="#31302E"/>
<path d="M590.315 413.295V377.031V375.151C590.315 372.488 588.836 371 586.188 371H584.32H563.841H561.972C559.325 371 557.845 372.488 557.845 375.151V377.031V413.295C557.845 415.645 557.845 421.128 555.042 423.243C557.845 423.791 562.906 423.948 565.554 422.381C567.968 421.049 569.369 419.561 569.369 413.295V402.565C569.369 401.625 569.759 401.155 570.615 401.155H577.39C578.635 401.155 578.635 401.782 578.635 402.643V413.295C578.635 419.561 580.037 421.049 582.451 422.381C585.176 423.869 590.237 423.713 592.963 423.243C590.315 421.128 590.315 415.645 590.315 413.295ZM570.148 390.738C569.681 390.738 569.369 390.425 569.369 389.955V387.918V384.55V382.514C569.369 382.044 569.681 381.73 570.148 381.73H572.173H575.988H578.012C578.48 381.73 578.791 382.044 578.791 382.514V384.55V387.918V389.955C578.791 390.425 578.48 390.738 578.012 390.738H575.988H572.173H570.148Z" fill="#31302E"/>
<path d="M626.594 372.19C624.189 373.521 622.792 375.008 622.792 381.273L622.715 387.85V389.886C622.715 390.356 622.405 390.669 621.939 390.669H620H613.483H611.466C611.001 390.669 610.69 390.356 610.69 389.886V387.85V381.273C610.69 378.924 610.69 373.442 613.483 371.328C610.69 370.858 605.57 370.702 602.932 372.19C600.528 373.521 599.131 375.008 599.131 381.273L599.054 413.298C599.054 415.647 599.054 421.129 596.261 423.243C599.054 423.791 604.096 423.947 606.734 422.381C609.139 421.05 610.535 419.562 610.535 413.298L610.613 403.902V401.866C610.613 401.396 610.923 401.083 611.388 401.083H613.405H619.922H621.939C622.405 401.083 622.715 401.396 622.715 401.866V403.902V413.298C622.715 415.647 622.715 421.129 619.922 423.243C622.715 423.791 627.757 423.947 630.395 422.381C632.8 421.05 634.196 419.562 634.196 413.298L634.274 381.273C634.274 378.924 634.274 373.442 637.067 371.328C634.352 370.858 629.309 370.702 626.594 372.19Z" fill="#31302E"/>
<path d="M646.641 372.19C644.201 373.521 642.785 375.008 642.785 381.273C642.785 393.488 642.785 400.848 642.785 413.298C642.785 415.647 642.785 421.129 639.952 423.243C642.785 423.791 647.9 423.947 650.575 422.381C653.015 421.05 654.431 419.562 654.431 413.298C654.431 401.005 654.431 393.723 654.431 381.273C654.431 378.924 654.431 373.442 657.264 371.328C654.51 370.858 649.395 370.702 646.641 372.19Z" fill="#31302E"/>
<path d="M682.313 371H663.813C662.323 371 660.834 371.157 659.736 371.392C662.558 373.506 662.558 378.988 662.558 381.338V413.29C662.558 415.64 662.558 421.122 659.736 423.236C660.834 423.471 662.245 423.628 663.813 423.628H682.313C689.995 423.628 698.069 418.929 698.069 410.627V384C698.069 375.699 689.995 371 682.313 371ZM686.389 408.591C686.389 411.019 685.135 412.899 681.921 412.899H676.982H674.944C674.474 412.899 674.16 412.585 674.16 412.115V410.079V384.549V382.512C674.16 382.042 674.474 381.729 674.944 381.729H676.982H681.921C685.056 381.729 686.389 383.295 686.389 386.036V408.591Z" fill="#31302E"/>
<path d="M533.34 432.12H535.624L536.711 435.564L537.799 432.12H540.083L538.288 437.15L539.376 440.048L542.041 432.12H544.76L540.464 442.891H538.397L536.711 438.681L535.026 442.891H532.959L528.663 432.12H531.328L534.047 440.048L535.08 437.15L533.34 432.12Z" fill="#31302E"/>
<path d="M562.651 432.12V442.891H560.149V438.462H555.853V442.891H553.352V432.12H555.853V436.275H560.149V432.12H562.651Z" fill="#31302E"/>
<path d="M577.116 443C576.301 443 575.594 442.836 574.941 442.508C574.289 442.18 573.745 441.797 573.255 441.25C572.766 440.758 572.44 440.157 572.168 439.501C571.896 438.845 571.787 438.189 571.787 437.478C571.787 436.767 571.896 436.111 572.168 435.4C572.44 434.744 572.82 434.143 573.31 433.651C573.799 433.159 574.343 432.776 574.996 432.448C575.648 432.12 576.355 432.011 577.116 432.011C577.932 432.011 578.639 432.175 579.292 432.503C579.944 432.831 580.488 433.214 580.977 433.76C581.467 434.252 581.793 434.854 582.065 435.51C582.337 436.166 582.446 436.822 582.446 437.533C582.446 438.243 582.337 438.899 582.065 439.61C581.793 440.266 581.412 440.868 580.977 441.36C580.488 441.852 579.944 442.289 579.292 442.562C578.639 442.836 577.932 443 577.116 443ZM574.343 437.533C574.343 437.97 574.397 438.353 574.506 438.735C574.615 439.118 574.832 439.446 575.05 439.774C575.267 440.102 575.594 440.321 575.92 440.485C576.246 440.649 576.681 440.758 577.116 440.758C577.606 440.758 577.986 440.649 578.367 440.485C578.693 440.266 579.02 440.048 579.237 439.72C579.455 439.391 579.618 439.063 579.781 438.681C579.89 438.298 579.944 437.915 579.944 437.478C579.944 437.041 579.89 436.658 579.781 436.275C579.672 435.892 579.455 435.564 579.237 435.236C579.02 434.908 578.693 434.69 578.367 434.526C578.041 434.362 577.606 434.252 577.171 434.252C576.681 434.252 576.301 434.362 575.92 434.526C575.594 434.69 575.267 434.963 575.05 435.236C574.832 435.564 574.615 435.892 574.506 436.275C574.397 436.713 574.343 437.095 574.343 437.533Z" fill="#31302E"/>
<path d="M591.636 442.891V432.12H594.137V440.704H599.358V442.891H591.636Z" fill="#31302E"/>
<path d="M615.727 440.704V442.891H608.168V432.12H615.564V434.307H610.615V436.385H614.857V438.407H610.615V440.704H615.727Z" fill="#31302E"/>
<path d="M631.17 435.236C631.116 435.182 631.061 435.127 630.844 435.018C630.681 434.908 630.409 434.799 630.137 434.69C629.865 434.58 629.593 434.471 629.267 434.362C628.941 434.252 628.614 434.252 628.288 434.252C627.418 434.252 626.983 434.526 626.983 435.127C626.983 435.291 627.037 435.455 627.146 435.564C627.255 435.674 627.363 435.783 627.581 435.892C627.744 436.002 628.016 436.056 628.288 436.166C628.56 436.22 628.886 436.33 629.267 436.439C629.756 436.603 630.246 436.713 630.681 436.877C631.116 437.041 631.442 437.259 631.714 437.478C631.986 437.751 632.203 438.025 632.366 438.407C632.53 438.735 632.584 439.173 632.584 439.665C632.584 440.266 632.475 440.813 632.258 441.196C632.04 441.633 631.714 441.961 631.333 442.234C630.953 442.508 630.518 442.672 630.028 442.781C629.539 442.89 629.049 442.945 628.505 442.945C628.125 442.945 627.69 442.89 627.309 442.836C626.874 442.781 626.493 442.672 626.113 442.562C625.732 442.453 625.351 442.289 624.971 442.125C624.59 441.961 624.264 441.797 623.938 441.578L625.025 439.391C625.079 439.446 625.188 439.555 625.406 439.665C625.623 439.829 625.895 439.938 626.221 440.102C626.548 440.266 626.928 440.376 627.309 440.485C627.69 440.594 628.125 440.649 628.56 440.649C629.43 440.649 629.865 440.376 629.865 439.829C629.865 439.61 629.811 439.446 629.647 439.337C629.539 439.227 629.321 439.063 629.104 438.954C628.886 438.845 628.614 438.735 628.288 438.681C627.962 438.571 627.635 438.462 627.255 438.353C626.765 438.189 626.33 438.025 625.95 437.861C625.569 437.697 625.297 437.478 625.025 437.259C624.808 437.041 624.59 436.767 624.481 436.439C624.373 436.111 624.318 435.783 624.318 435.4C624.318 434.854 624.427 434.307 624.644 433.87C624.862 433.432 625.134 433.049 625.515 432.776C625.895 432.503 626.276 432.229 626.765 432.12C627.255 431.956 627.744 431.901 628.288 431.901C628.669 431.901 629.049 431.956 629.376 432.011C629.756 432.065 630.082 432.175 630.409 432.284C630.735 432.393 631.061 432.503 631.333 432.667C631.605 432.831 631.877 432.94 632.149 433.104L631.17 435.236Z" fill="#31302E"/>
<path d="M644.439 432.12H646.668L650.584 442.891H648.028L647.212 440.485H643.895L643.079 442.891H640.523L644.439 432.12ZM646.832 438.735L645.581 434.908L644.276 438.735H646.832Z" fill="#31302E"/>
<path d="M659.394 442.891V432.12H661.895V440.704H667.116V442.891H659.394Z" fill="#31302E"/>
<path d="M683.485 440.704V442.891H675.926V432.12H683.322V434.307H678.427V436.385H682.669V438.407H678.427V440.704H683.485Z" fill="#31302E"/>
<path d="M79.676 189.002C77.4908 185.068 76.3141 178.74 76.3141 170.359C76.3141 158.9 73.4565 149.493 66.0605 143.678H67.5733C73.2885 143.678 76.4822 140.428 76.4822 134.613V130.508V91.1697V87.0649C76.4822 81.2497 73.2885 78 67.5733 78H63.5391H18.9945H14.9603C9.24511 78 6.05134 81.2497 6.05134 87.0649V91.1697V170.359C6.05134 175.49 6.05134 187.463 0 192.081C6.05134 193.278 16.9774 193.62 22.6925 190.199C27.9034 187.292 30.9291 184.042 30.9291 170.359V143.849H32.9462C49.2512 148.638 50.2597 161.636 51.2683 172.754C51.6045 184.555 54.6302 187.634 59.5049 190.37C61.3539 191.397 63.5391 192.081 66.0605 192.423C69.0861 192.936 72.1118 193.107 75.1375 192.936C77.827 192.765 80.3484 192.594 82.3655 192.252C81.1888 191.226 80.3484 190.199 79.676 189.002ZM37.1485 121.101H32.7781C31.7695 121.101 31.0972 120.417 31.0972 119.391V114.944V107.589V103.142C31.0972 102.116 31.7695 101.432 32.7781 101.432H37.1485H45.3851H49.7555C50.764 101.432 51.4364 102.116 51.4364 103.142V107.589V114.944V119.391C51.4364 120.417 50.764 121.101 49.7555 121.101H45.3851H37.1485Z" fill="#31302E"/>
<path d="M163.471 170.422V91.1787V87.0711C163.471 81.2519 160.292 78 154.604 78H150.588H106.586H102.57C96.8817 78 93.7028 81.2519 93.7028 87.0711V91.1787V170.422C93.7028 175.557 93.7028 187.537 87.6797 192.158C93.7028 193.357 104.578 193.699 110.266 190.276C115.453 187.366 118.465 184.114 118.465 170.422V146.974C118.465 144.92 119.301 143.894 121.142 143.894H135.698C138.375 143.894 138.375 145.263 138.375 147.145V170.422C138.375 184.114 141.386 187.366 146.573 190.276C152.429 193.528 163.304 193.185 169.16 192.158C163.471 187.537 163.471 175.557 163.471 170.422ZM120.138 121.13C119.134 121.13 118.465 120.446 118.465 119.419V114.969V107.609V103.159C118.465 102.132 119.134 101.448 120.138 101.448H124.488H132.686H137.036C138.04 101.448 138.709 102.132 138.709 103.159V107.609V114.969V119.419C138.709 120.446 138.04 121.13 137.036 121.13H132.686H124.488H120.138Z" fill="#31302E"/>
<path d="M241.42 80.5995C236.253 83.5082 233.252 86.7592 233.252 100.447L233.086 114.82V119.269C233.086 120.295 232.419 120.98 231.419 120.98H227.252H213.25H208.916C207.915 120.98 207.249 120.295 207.249 119.269V114.82V100.447C207.249 95.3143 207.249 83.3371 213.25 78.7173C207.249 77.6907 196.247 77.3485 190.58 80.5995C185.412 83.5082 182.412 86.7592 182.412 100.447L182.245 170.429C182.245 175.562 182.245 187.539 176.244 192.159C182.245 193.356 193.08 193.699 198.747 190.277C203.915 187.368 206.915 184.117 206.915 170.429L207.082 149.896V145.448C207.082 144.421 207.749 143.737 208.749 143.737H213.083H227.085H231.419C232.419 143.737 233.086 144.421 233.086 145.448V149.896V170.429C233.086 175.562 233.086 187.539 227.085 192.159C233.086 193.356 243.921 193.699 249.588 190.277C254.756 187.368 257.756 184.117 257.756 170.429L257.923 100.447C257.923 95.3143 257.923 83.3371 263.924 78.7173C258.089 77.6907 247.254 77.3485 241.42 80.5995Z" fill="#31302E"/>
<path d="M284.495 80.5995C279.253 83.5082 276.21 86.7592 276.21 100.447C276.21 127.14 276.21 143.223 276.21 170.429C276.21 175.562 276.21 187.539 270.123 192.159C276.21 193.356 287.2 193.699 292.949 190.277C298.19 187.368 301.234 184.117 301.234 170.429C301.234 143.565 301.234 127.653 301.234 100.447C301.234 95.3143 301.234 83.3371 307.32 78.7173C301.403 77.6907 290.412 77.3485 284.495 80.5995Z" fill="#31302E"/>
<path d="M361.144 78H321.393C318.193 78 314.993 78.3423 312.635 78.8557C318.698 83.4762 318.698 95.4554 318.698 100.589V170.411C318.698 175.545 318.698 187.524 312.635 192.144C314.993 192.658 318.025 193 321.393 193H361.144C377.651 193 395 182.732 395 164.592V106.408C395 88.2679 377.651 78 361.144 78ZM369.903 160.143C369.903 165.448 367.208 169.555 360.302 169.555H349.691H345.311C344.301 169.555 343.627 168.871 343.627 167.844V163.394V107.606V103.156C343.627 102.129 344.301 101.445 345.311 101.445H349.691H360.302C367.04 101.445 369.903 104.868 369.903 110.857V160.143Z" fill="#31302E"/>
<path d="M606.472 141.558C602.142 147.106 591.954 147.611 586.097 147.611C573.107 147.611 574.126 139.792 574.126 136.009C583.804 136.009 608 136.765 608 117.093C608 109.274 600.105 103.221 588.898 105.239C578.201 107.257 580.239 123.146 580.239 123.146C580.239 123.146 593.992 130.965 582.276 127.181C576.928 125.164 573.107 118.102 573.107 110.283C573.107 104.987 573.871 101.708 574.381 98.9336H579.984C581.003 98.9336 581.512 98.177 581.512 97.4204L581.003 79.5133C581.003 78.5044 580.239 78 579.475 78H541.271C540.252 78 539.743 78.7567 539.743 79.5133L539.233 97.4204C539.233 98.4292 539.997 98.9336 540.761 98.9336H546.365C546.874 101.456 547.638 104.987 547.638 110.535C547.638 118.102 545.601 124.911 539.997 127.181C527.772 131.217 541.271 123.146 541.271 123.146C541.271 123.146 542.799 107.509 532.102 105.239C521.15 103.221 513 109.274 513 117.093C513 136.765 537.196 136.009 546.874 136.009C546.874 139.54 547.638 147.611 534.903 147.611C529.3 147.611 518.858 147.106 514.528 141.558C514.273 142.566 514.273 143.575 514.019 144.836C512.745 153.411 509.18 192 560.627 192C603.161 192 607.745 165.518 607.491 151.394C607.236 147.611 606.981 144.08 606.472 141.558ZM560.373 176.615C547.893 176.615 538.979 171.571 538.979 163.752C538.979 162.743 539.743 162.239 540.507 162.239H544.836H575.654H579.984C581.003 162.239 581.512 162.996 581.512 163.752C581.767 171.066 572.853 176.615 560.373 176.615Z" fill="#31302E"/>
<path d="M37.9217 422.429C36.8817 420.607 36.3217 417.675 36.3217 413.792C36.3217 408.482 34.9616 404.124 31.4414 401.43H32.1615C34.8816 401.43 36.4017 399.924 36.4017 397.23V395.328V377.102V375.2C36.4017 372.506 34.8816 371 32.1615 371H30.2414H9.04041H7.12033C4.4002 371 2.88013 372.506 2.88013 375.2V377.102V413.792C2.88013 416.169 2.88013 421.716 0 423.856C2.88013 424.41 8.08037 424.569 10.8005 422.984C13.2806 421.637 14.7207 420.131 14.7207 413.792V401.509H15.6807C23.4411 403.728 23.9211 409.75 24.4011 414.901C24.5611 420.369 26.0012 421.795 28.3213 423.063C29.2013 423.539 30.2414 423.856 31.4414 424.014C32.8815 424.252 34.3216 424.331 35.7616 424.252C37.0417 424.173 38.2417 424.093 39.2018 423.935C38.6418 423.459 38.2418 422.984 37.9217 422.429ZM17.6808 390.969H15.6007C15.1207 390.969 14.8007 390.652 14.8007 390.177V388.117V384.709V382.649C14.8007 382.173 15.1207 381.856 15.6007 381.856H17.6808H21.601H23.6811C24.1611 381.856 24.4811 382.173 24.4811 382.649V384.709V388.117V390.177C24.4811 390.652 24.1611 390.969 23.6811 390.969H21.601H17.6808Z" fill="#31302E"/>
<path d="M77.8033 413.821V377.106V375.203C77.8033 372.507 76.2903 371 73.5828 371H71.6717H50.7288H48.8176C46.1102 371 44.5972 372.507 44.5972 375.203V377.106V413.821C44.5972 416.2 44.5972 421.751 41.7305 423.892C44.5972 424.447 49.7732 424.605 52.4806 423.019C54.9492 421.671 56.3826 420.165 56.3826 413.821V402.957C56.3826 402.005 56.7807 401.53 57.6567 401.53H64.5845C65.8586 401.53 65.8586 402.164 65.8586 403.036V413.821C65.8586 420.165 67.292 421.671 69.7606 423.019C72.5476 424.526 77.7237 424.367 80.5107 423.892C77.8033 421.751 77.8033 416.2 77.8033 413.821ZM57.1789 390.983C56.7011 390.983 56.3826 390.666 56.3826 390.19V388.128V384.719V382.657C56.3826 382.181 56.7011 381.864 57.1789 381.864H59.2493H63.1512H65.2216C65.6994 381.864 66.0179 382.181 66.0179 382.657V384.719V388.128V390.19C66.0179 390.666 65.6994 390.983 65.2216 390.983H63.1512H59.2493H57.1789Z" fill="#31302E"/>
<path d="M114.904 372.204C112.445 373.552 111.017 375.058 111.017 381.4L110.938 388.059V390.121C110.938 390.596 110.62 390.913 110.144 390.913H108.161H101.496H99.4337C98.9577 390.913 98.6404 390.596 98.6404 390.121V388.059V381.4C98.6404 379.022 98.6404 373.473 101.496 371.332C98.6404 370.857 93.4042 370.698 90.7067 372.204C88.2473 373.552 86.8192 375.058 86.8192 381.4L86.7399 413.824C86.7399 416.202 86.7399 421.751 83.8838 423.892C86.7399 424.447 91.8968 424.605 94.5942 423.02C97.0536 421.672 98.4817 420.166 98.4817 413.824L98.561 404.311V402.25C98.561 401.774 98.8784 401.457 99.3544 401.457H101.417H108.081H110.144C110.62 401.457 110.938 401.774 110.938 402.25V404.311V413.824C110.938 416.202 110.937 421.751 108.081 423.892C110.937 424.447 116.094 424.605 118.792 423.02C121.251 421.672 122.679 420.166 122.679 413.824L122.759 381.4C122.759 379.022 122.759 373.473 125.615 371.332C122.838 370.857 117.681 370.698 114.904 372.204Z" fill="#31302E"/>
<path d="M135.406 372.204C132.911 373.552 131.462 375.058 131.462 381.4C131.462 393.767 131.462 401.219 131.462 413.824C131.462 416.202 131.462 421.751 128.565 423.892C131.462 424.447 136.693 424.605 139.429 423.02C141.924 421.672 143.372 420.166 143.372 413.824C143.372 401.378 143.372 394.005 143.372 381.4C143.372 379.022 143.372 373.473 146.269 371.332C143.453 370.857 138.222 370.698 135.406 372.204Z" fill="#31302E"/>
<path d="M171.886 371H152.967C151.443 371 149.92 371.159 148.798 371.396C151.684 373.537 151.684 379.087 151.684 381.466V413.816C151.684 416.194 151.684 421.744 148.798 423.885C149.92 424.123 151.363 424.282 152.967 424.282H171.886C179.742 424.282 188 419.524 188 411.12V384.162C188 375.757 179.742 371 171.886 371ZM176.055 409.058C176.055 411.516 174.772 413.419 171.485 413.419H166.435H164.35C163.869 413.419 163.549 413.102 163.549 412.626V410.565V384.717V382.655C163.549 382.18 163.869 381.862 164.35 381.862H166.435H171.485C174.692 381.862 176.055 383.448 176.055 386.223V409.058Z" fill="#31302E"/>
<path d="M19.0789 436.099C19.0211 436.041 18.9634 435.984 18.7324 435.869C18.5592 435.754 18.3282 435.639 18.0394 435.524C17.7507 435.409 17.462 435.294 17.1155 435.179C16.769 435.064 16.4803 435.064 16.1915 435.064C15.2676 435.064 14.8633 435.352 14.8633 435.984C14.8633 436.156 14.9211 436.329 15.0366 436.444C15.0366 436.559 15.2098 436.674 15.3831 436.731C15.5563 436.846 15.845 436.961 16.1338 437.018C16.4225 437.076 16.769 437.191 17.1155 437.306C17.6352 437.421 18.0972 437.593 18.5014 437.766C18.9056 437.938 19.2521 438.168 19.5986 438.398C19.8873 438.628 20.1183 438.973 20.2916 439.317C20.4648 439.662 20.5226 440.122 20.5226 440.582C20.5226 441.214 20.4071 441.731 20.1761 442.134C19.9451 442.594 19.6564 442.938 19.2521 443.168C18.8479 443.456 18.4437 443.628 17.9239 443.743C17.4042 443.858 16.9422 443.916 16.4225 443.916C16.0183 443.916 15.6141 443.858 15.2098 443.801C14.8056 443.743 14.4014 443.628 13.9971 443.513C13.5929 443.398 13.1887 443.283 12.8422 443.111C12.4957 442.938 12.0915 442.766 11.8027 442.536L12.8999 440.352C12.9577 440.41 13.0732 440.524 13.3042 440.639C13.5352 440.754 13.8239 440.927 14.1704 441.042C14.5169 441.157 14.8633 441.329 15.2676 441.444C15.6718 441.559 16.076 441.616 16.538 441.616C17.4042 441.616 17.8662 441.329 17.8662 440.812C17.8662 440.582 17.8084 440.467 17.693 440.295C17.5775 440.18 17.3465 440.065 17.1155 439.95C16.8845 439.835 16.5958 439.72 16.2493 439.662C15.9028 439.605 15.5563 439.49 15.2098 439.375C14.6901 439.203 14.2859 439.03 13.8816 438.858C13.4774 438.685 13.1887 438.513 12.8999 438.283C12.6112 438.053 12.4957 437.766 12.3802 437.421C12.2647 437.133 12.207 436.789 12.207 436.386C12.207 435.811 12.3225 435.294 12.5534 434.892C12.7844 434.432 13.0732 434.087 13.4197 433.8C13.7661 433.512 14.2281 433.283 14.6901 433.11C15.1521 432.938 15.7295 432.823 16.2493 432.823C16.6535 432.823 17 432.88 17.3465 432.938C17.693 432.995 18.0972 433.11 18.3859 433.225C18.7324 433.34 19.0211 433.455 19.3099 433.627C19.5986 433.742 19.8873 433.915 20.1183 434.03L19.0789 436.099Z" fill="#31302E"/>
<path d="M37.8465 443.801V437.306L35.4789 442.019H34.1507L31.7831 437.306V443.801H29.2422V432.88H31.9563L34.7859 438.57L37.6155 432.88H40.3297V443.801H37.8465Z" fill="#31302E"/>
<path d="M54.5357 443.916C53.7272 443.916 52.9765 443.743 52.3413 443.456C51.6483 443.111 51.1286 442.709 50.6089 442.191C50.1469 441.674 49.7426 441.099 49.5117 440.41C49.2229 439.72 49.1074 439.088 49.1074 438.34C49.1074 437.651 49.2229 436.961 49.5117 436.271C49.8004 435.582 50.1469 435.007 50.6666 434.49C51.1286 433.972 51.706 433.57 52.399 433.283C53.092 432.995 53.7849 432.823 54.5934 432.823C55.4019 432.823 56.1526 432.995 56.7878 433.283C57.4808 433.627 58.0005 434.03 58.5202 434.547C58.9822 435.122 59.3287 435.697 59.6174 436.386C59.8484 437.076 60.0216 437.708 60.0216 438.398C60.0216 439.088 59.9062 439.777 59.6174 440.467C59.3287 441.157 58.9822 441.731 58.4625 442.249C57.9427 442.766 57.423 443.168 56.7301 443.456C56.0371 443.743 55.3441 443.916 54.5357 443.916ZM51.706 438.398C51.706 438.8 51.7638 439.203 51.8793 439.605C51.9948 440.007 52.168 440.352 52.399 440.639C52.63 440.927 52.9187 441.214 53.323 441.387C53.6695 441.559 54.0737 441.674 54.5357 441.674C54.9976 441.674 55.4596 441.559 55.8061 441.387C56.1526 441.214 56.4413 440.927 56.6723 440.639C56.9033 440.352 57.0765 439.95 57.192 439.605C57.3075 439.203 57.3653 438.8 57.3653 438.398C57.3653 437.996 57.3075 437.593 57.192 437.191C57.0765 436.789 56.9033 436.444 56.6146 436.156C56.3836 435.869 56.0948 435.639 55.6906 435.409C55.2864 435.179 54.9976 435.122 54.5357 435.122C54.0737 435.122 53.6117 435.237 53.2652 435.409C52.9187 435.582 52.63 435.869 52.399 436.156C52.168 436.444 51.9948 436.789 51.8793 437.191C51.7638 437.593 51.706 437.996 51.706 438.398Z" fill="#31302E"/>
<path d="M68.6836 443.801V432.88H71.2245V437.593L75.209 432.88H78.0387L73.9386 437.766L78.3274 443.801H75.44L72.3217 439.433L71.1667 440.64V443.858H68.6836V443.801Z" fill="#31302E"/>
<path d="M94.0925 441.617V443.801H86.4121V432.88H93.977V435.122H88.953V437.249H93.284V439.26H88.953V441.559H94.0925V441.617Z" fill="#31302E"/>
<path d="M120.309 436.099C120.252 436.042 120.194 435.984 119.963 435.869C119.79 435.754 119.559 435.639 119.27 435.524C118.981 435.409 118.692 435.294 118.346 435.179C117.999 435.064 117.711 435.064 117.364 435.064C116.44 435.064 116.036 435.352 116.036 435.984C116.036 436.156 116.094 436.329 116.209 436.444C116.325 436.559 116.44 436.674 116.614 436.789C116.787 436.904 117.018 436.961 117.307 437.076C117.595 437.134 117.942 437.248 118.288 437.363C118.808 437.478 119.27 437.651 119.732 437.823C120.136 437.996 120.483 438.226 120.829 438.455C121.118 438.685 121.349 439.03 121.522 439.375C121.695 439.72 121.753 440.18 121.753 440.64C121.753 441.272 121.638 441.789 121.407 442.191C121.176 442.594 120.887 442.939 120.483 443.226C120.078 443.513 119.674 443.686 119.154 443.801C118.635 443.916 118.173 443.973 117.653 443.973C117.249 443.973 116.845 443.916 116.44 443.858C116.036 443.801 115.632 443.686 115.228 443.571C114.823 443.456 114.419 443.341 114.073 443.168C113.726 442.996 113.322 442.824 113.033 442.594L114.13 440.41C114.188 440.467 114.304 440.582 114.535 440.697C114.766 440.812 115.054 440.984 115.401 441.099C115.747 441.214 116.094 441.387 116.498 441.502C116.902 441.617 117.307 441.674 117.768 441.674C118.635 441.674 119.097 441.387 119.097 440.869C119.097 440.64 119.039 440.525 118.923 440.352C118.808 440.237 118.577 440.122 118.346 440.007C118.115 439.892 117.826 439.777 117.48 439.72C117.133 439.662 116.787 439.548 116.44 439.433C115.921 439.26 115.516 439.088 115.112 438.915C114.708 438.743 114.419 438.513 114.188 438.283C113.957 438.053 113.784 437.766 113.668 437.478C113.553 437.191 113.495 436.789 113.495 436.386C113.495 435.812 113.611 435.294 113.842 434.892C114.073 434.432 114.361 434.087 114.708 433.8C115.054 433.513 115.516 433.283 115.978 433.11C116.44 432.938 116.96 432.88 117.537 432.88C117.942 432.88 118.288 432.938 118.635 432.995C118.981 433.053 119.385 433.168 119.674 433.283C120.021 433.398 120.309 433.513 120.598 433.685C120.887 433.8 121.176 433.972 121.407 434.087L120.309 436.099Z" fill="#31302E"/>
<path d="M139.886 432.938V443.858H137.346V439.375H133.015V443.858H130.474V432.938H133.015V437.133H137.403V432.938H139.886Z" fill="#31302E"/>
<path d="M154.034 443.916C153.225 443.916 152.475 443.743 151.839 443.456C151.146 443.111 150.627 442.709 150.107 442.191C149.645 441.674 149.241 441.099 149.01 440.41C148.721 439.72 148.605 439.088 148.605 438.34C148.605 437.651 148.721 436.961 149.01 436.271C149.298 435.582 149.645 435.007 150.165 434.49C150.627 433.972 151.204 433.57 151.897 433.283C152.59 432.995 153.283 432.823 154.091 432.823C154.9 432.823 155.651 432.995 156.286 433.283C156.979 433.627 157.499 434.03 158.018 434.547C158.48 435.064 158.884 435.639 159.115 436.329C159.346 437.018 159.52 437.651 159.52 438.34C159.52 439.03 159.404 439.72 159.115 440.41C158.827 441.099 158.48 441.674 157.961 442.191C157.441 442.709 156.921 443.111 156.228 443.398C155.535 443.686 154.784 443.916 154.034 443.916ZM151.146 438.398C151.146 438.8 151.204 439.203 151.32 439.605C151.435 440.007 151.608 440.352 151.839 440.639C152.07 440.927 152.359 441.214 152.763 441.387C153.11 441.559 153.514 441.674 153.976 441.674C154.438 441.674 154.9 441.559 155.246 441.387C155.593 441.214 155.882 440.927 156.113 440.639C156.344 440.352 156.517 439.95 156.632 439.605C156.748 439.203 156.806 438.8 156.806 438.398C156.806 437.996 156.748 437.593 156.632 437.191C156.517 436.789 156.344 436.444 156.055 436.156C155.824 435.869 155.535 435.639 155.131 435.409C154.727 435.179 154.496 435.122 154.034 435.122C153.572 435.122 153.11 435.237 152.763 435.409C152.417 435.582 152.128 435.869 151.897 436.156C151.666 436.444 151.493 436.789 151.377 437.191C151.204 437.593 151.146 437.996 151.146 438.398Z" fill="#31302E"/>
<path d="M168.183 443.801V432.88H172.86C173.38 432.88 173.842 432.995 174.304 433.225C174.766 433.455 175.112 433.743 175.401 434.087C175.69 434.432 175.978 434.835 176.152 435.294C176.325 435.754 176.44 436.156 176.44 436.616C176.44 437.076 176.383 437.536 176.209 437.996C176.036 438.455 175.805 438.858 175.517 439.203C175.228 439.548 174.824 439.835 174.419 440.007C174.015 440.237 173.495 440.295 172.976 440.295H170.781V443.801H168.183ZM170.723 438.111H172.802C173.091 438.111 173.38 437.996 173.553 437.708C173.784 437.478 173.9 437.076 173.9 436.616C173.9 436.386 173.842 436.156 173.784 435.984C173.726 435.812 173.611 435.639 173.495 435.524C173.38 435.409 173.264 435.294 173.091 435.237C172.976 435.179 172.802 435.179 172.687 435.179H170.723V438.111Z" fill="#31302E"/>
<rect x="0.5" y="649.5" width="155" height="69" fill="#F9F5F0" stroke="black"/>
<rect y="820" width="69" height="70" fill="#E9AFA3"/>
<rect x="258.5" y="649.5" width="155" height="69" fill="#31302E" stroke="black"/>
<rect x="86" y="820" width="70" height="70" fill="#3A405A"/>
<rect y="734" width="414" height="70" fill="#8893CE"/>
<rect x="173" y="820" width="70" height="70" fill="#E2C391"/>
<rect x="259" y="820" width="70" height="70" fill="#F6E27F"/>
<rect x="344" y="820" width="70" height="70" fill="#80AE7E"/>
<path d="M18.59 707.35L15.093 700.057V708H14.157V698.9H15.548L18.59 705.374L21.632 698.9H23.023V708H22.074V700.083L18.59 707.35ZM30.4113 707.272C30.0473 707.558 29.6703 707.77 29.2803 707.909C28.8903 708.048 28.4743 708.117 28.0323 708.117C27.5903 708.117 27.1743 708.035 26.7843 707.87C26.4029 707.697 26.0693 707.463 25.7833 707.168C25.5059 706.873 25.2849 706.527 25.1203 706.128C24.9643 705.721 24.8863 705.287 24.8863 704.828C24.8863 704.369 24.9599 703.94 25.1073 703.541C25.2633 703.134 25.4756 702.787 25.7443 702.501C26.0129 702.206 26.3293 701.977 26.6933 701.812C27.0573 701.639 27.4516 701.552 27.8763 701.552C28.2923 701.552 28.6779 701.634 29.0333 701.799C29.3886 701.964 29.6963 702.189 29.9563 702.475C30.2163 702.752 30.4199 703.09 30.5673 703.489C30.7146 703.879 30.7883 704.299 30.7883 704.75V705.036H25.8093C25.8526 705.677 26.0909 706.215 26.5243 706.648C26.9576 707.073 27.4733 707.285 28.0713 707.285C28.4006 707.285 28.7169 707.229 29.0203 707.116C29.3323 706.995 29.5966 706.834 29.8133 706.635L30.4113 707.272ZM27.8633 702.371C27.3433 702.371 26.8969 702.557 26.5243 702.93C26.1516 703.303 25.9219 703.779 25.8353 704.36H29.8523C29.7829 703.788 29.5619 703.316 29.1893 702.943C28.8253 702.562 28.3833 702.371 27.8633 702.371ZM32.4086 708V701.656H33.3576V702.943C33.5223 702.501 33.7563 702.159 34.0596 701.916C34.3716 701.665 34.7269 701.539 35.1256 701.539C35.2383 701.539 35.3423 701.548 35.4376 701.565C35.5329 701.574 35.6283 701.595 35.7236 701.63V702.488C35.6196 702.453 35.5069 702.427 35.3856 702.41C35.2729 702.384 35.1646 702.371 35.0606 702.371C34.6706 702.371 34.3283 702.484 34.0336 702.709C33.7476 702.934 33.5223 703.251 33.3576 703.658V708H32.4086ZM37.4599 700.096C37.2692 700.096 37.1046 700.031 36.9659 699.901C36.8359 699.762 36.7709 699.598 36.7709 699.407C36.7709 699.225 36.8359 699.069 36.9659 698.939C37.1046 698.8 37.2692 698.731 37.4599 698.731C37.6419 698.731 37.7979 698.8 37.9279 698.939C38.0666 699.069 38.1359 699.225 38.1359 699.407C38.1359 699.598 38.0709 699.762 37.9409 699.901C37.8109 700.031 37.6506 700.096 37.4599 700.096ZM37.9279 701.656V708H36.9789V701.656H37.9279ZM39.8734 708V701.656H40.8224V702.683C41.0651 702.31 41.3554 702.029 41.6934 701.838C42.0314 701.647 42.4128 701.552 42.8374 701.552C43.5134 701.552 44.0638 701.769 44.4884 702.202C44.9218 702.635 45.1384 703.199 45.1384 703.892V708H44.1894V704.165C44.1894 703.61 44.0334 703.168 43.7214 702.839C43.4181 702.51 43.0064 702.345 42.4864 702.345C42.1398 702.345 41.8234 702.427 41.5374 702.592C41.2514 702.757 41.0131 702.999 40.8224 703.32V708H39.8734ZM46.7603 704.828C46.7603 704.36 46.8383 703.927 46.9943 703.528C47.1503 703.129 47.3626 702.783 47.6313 702.488C47.9086 702.193 48.238 701.964 48.6193 701.799C49.0006 701.634 49.408 701.552 49.8413 701.552C50.2833 701.552 50.6906 701.634 51.0633 701.799C51.4446 701.964 51.774 702.193 52.0513 702.488C52.3286 702.783 52.5453 703.129 52.7013 703.528C52.8573 703.927 52.9353 704.36 52.9353 704.828C52.9353 705.296 52.853 705.734 52.6883 706.141C52.5323 706.548 52.3156 706.899 52.0383 707.194C51.7696 707.48 51.4446 707.71 51.0633 707.883C50.682 708.048 50.2746 708.13 49.8413 708.13C49.408 708.13 49.0006 708.048 48.6193 707.883C48.2466 707.71 47.9216 707.476 47.6443 707.181C47.3756 706.886 47.159 706.54 46.9943 706.141C46.8383 705.734 46.7603 705.296 46.7603 704.828ZM49.8413 707.285C50.4566 707.285 50.968 707.055 51.3753 706.596C51.7913 706.128 51.9993 705.543 51.9993 704.841C51.9993 704.139 51.7913 703.554 51.3753 703.086C50.968 702.618 50.4566 702.384 49.8413 702.384C49.226 702.384 48.7146 702.618 48.3073 703.086C47.9 703.554 47.6963 704.139 47.6963 704.841C47.6963 705.543 47.9 706.128 48.3073 706.596C48.7146 707.055 49.226 707.285 49.8413 707.285Z" fill="#31302E"/>
<path d="M14.157 878V868.9H17.914C18.7893 868.9 19.4913 869.147 20.02 869.641C20.5487 870.135 20.813 870.785 20.813 871.591C20.813 872.397 20.5487 873.047 20.02 873.541C19.4913 874.035 18.7893 874.282 17.914 874.282H15.158V878H14.157ZM17.797 869.784H15.158V873.424H17.797C18.421 873.424 18.9107 873.259 19.266 872.93C19.63 872.601 19.812 872.154 19.812 871.591C19.812 871.036 19.63 870.599 19.266 870.278C18.9107 869.949 18.421 869.784 17.797 869.784ZM24.1392 878.117C23.4632 878.117 22.9085 877.939 22.4752 877.584C22.0505 877.22 21.8382 876.752 21.8382 876.18C21.8382 875.617 22.0548 875.162 22.4882 874.815C22.9302 874.468 23.5065 874.295 24.2172 874.295C24.5812 874.295 24.9235 874.338 25.2442 874.425C25.5735 874.503 25.8768 874.624 26.1542 874.789V873.918C26.1542 873.398 26.0155 873.008 25.7382 872.748C25.4608 872.479 25.0535 872.345 24.5162 872.345C24.2215 872.345 23.9182 872.388 23.6062 872.475C23.3028 872.562 22.9648 872.7 22.5922 872.891L22.2412 872.163C22.6745 871.955 23.0862 871.803 23.4762 871.708C23.8662 871.604 24.2518 871.552 24.6332 871.552C25.4132 871.552 26.0155 871.747 26.4402 872.137C26.8735 872.518 27.0902 873.069 27.0902 873.788V878H26.1542V877.259C25.8768 877.545 25.5692 877.762 25.2312 877.909C24.8932 878.048 24.5292 878.117 24.1392 878.117ZM22.7482 876.154C22.7482 876.527 22.8955 876.826 23.1902 877.051C23.4848 877.276 23.8662 877.389 24.3342 877.389C24.6895 877.389 25.0145 877.328 25.3092 877.207C25.6125 877.086 25.8942 876.904 26.1542 876.661V875.439C25.8855 875.283 25.6082 875.17 25.3222 875.101C25.0362 875.023 24.7155 874.984 24.3602 874.984C23.8748 874.984 23.4848 875.092 23.1902 875.309C22.8955 875.526 22.7482 875.807 22.7482 876.154ZM28.4079 877.181L28.9149 876.557C29.2876 876.834 29.6343 877.038 29.9549 877.168C30.2843 877.289 30.6179 877.35 30.9559 877.35C31.4153 877.35 31.7966 877.242 32.0999 877.025C32.4033 876.808 32.5549 876.535 32.5549 876.206C32.5549 875.946 32.4639 875.742 32.2819 875.595C32.0999 875.448 31.8096 875.335 31.4109 875.257L30.3709 875.075C29.7556 874.962 29.3006 874.772 29.0059 874.503C28.7199 874.234 28.5769 873.87 28.5769 873.411C28.5769 872.865 28.7893 872.419 29.2139 872.072C29.6473 871.725 30.1976 871.552 30.8649 871.552C31.2983 871.552 31.7099 871.617 32.0999 871.747C32.4899 871.877 32.8843 872.076 33.2829 872.345L32.8149 873.008C32.4856 872.774 32.1563 872.605 31.8269 872.501C31.4976 872.388 31.1639 872.332 30.8259 872.332C30.4099 872.332 30.0763 872.423 29.8249 872.605C29.5736 872.787 29.4479 873.034 29.4479 873.346C29.4479 873.606 29.5259 873.805 29.6819 873.944C29.8466 874.083 30.1326 874.187 30.5399 874.256L31.6059 874.451C32.2386 874.564 32.7023 874.759 32.9969 875.036C33.3003 875.313 33.4519 875.686 33.4519 876.154C33.4519 876.7 33.2136 877.164 32.7369 877.545C32.2689 877.926 31.6839 878.117 30.9819 878.117C30.4619 878.117 29.9809 878.039 29.5389 877.883C29.0969 877.718 28.7199 877.484 28.4079 877.181ZM35.5239 876.57V872.436H34.2109V871.656H35.5239V869.914L36.4729 869.693V871.656H38.2929V872.436H36.4729V876.323C36.4729 876.661 36.5423 876.904 36.6809 877.051C36.8283 877.198 37.0666 877.272 37.3959 877.272C37.5606 877.272 37.7079 877.259 37.8379 877.233C37.9679 877.207 38.1196 877.164 38.2929 877.103V877.948C38.1196 878.009 37.9376 878.052 37.7469 878.078C37.5563 878.104 37.3699 878.117 37.1879 878.117C36.6419 878.117 36.2259 877.987 35.9399 877.727C35.6626 877.458 35.5239 877.073 35.5239 876.57ZM44.7697 877.272C44.4057 877.558 44.0287 877.77 43.6387 877.909C43.2487 878.048 42.8327 878.117 42.3907 878.117C41.9487 878.117 41.5327 878.035 41.1427 877.87C40.7613 877.697 40.4277 877.463 40.1417 877.168C39.8643 876.873 39.6433 876.527 39.4787 876.128C39.3227 875.721 39.2447 875.287 39.2447 874.828C39.2447 874.369 39.3183 873.94 39.4657 873.541C39.6217 873.134 39.834 872.787 40.1027 872.501C40.3713 872.206 40.6877 871.977 41.0517 871.812C41.4157 871.639 41.81 871.552 42.2347 871.552C42.6507 871.552 43.0363 871.634 43.3917 871.799C43.747 871.964 44.0547 872.189 44.3147 872.475C44.5747 872.752 44.7783 873.09 44.9257 873.489C45.073 873.879 45.1467 874.299 45.1467 874.75V875.036H40.1677C40.211 875.677 40.4493 876.215 40.8827 876.648C41.316 877.073 41.8317 877.285 42.4297 877.285C42.759 877.285 43.0753 877.229 43.3787 877.116C43.6907 876.995 43.955 876.834 44.1717 876.635L44.7697 877.272ZM42.2217 872.371C41.7017 872.371 41.2553 872.557 40.8827 872.93C40.51 873.303 40.2803 873.779 40.1937 874.36H44.2107C44.1413 873.788 43.9203 873.316 43.5477 872.943C43.1837 872.562 42.7417 872.371 42.2217 872.371ZM47.716 868.51V878H46.767V868.705L47.716 868.51Z" fill="#31302E"/>
<path d="M269.364 699.784V698.9H276.644V699.784H273.511V708H272.51V699.784H269.364ZM278.414 701.656V705.478C278.414 706.041 278.565 706.488 278.869 706.817C279.172 707.146 279.584 707.311 280.104 707.311C280.45 707.311 280.767 707.229 281.053 707.064C281.339 706.899 281.577 706.661 281.768 706.349V701.656H282.717V708H281.768V706.973C281.525 707.346 281.235 707.627 280.897 707.818C280.559 708.009 280.177 708.104 279.753 708.104C279.077 708.104 278.522 707.887 278.089 707.454C277.664 707.012 277.452 706.444 277.452 705.751V701.656H278.414ZM286.626 708.117C285.95 708.117 285.396 707.939 284.962 707.584C284.538 707.22 284.325 706.752 284.325 706.18C284.325 705.617 284.542 705.162 284.975 704.815C285.417 704.468 285.994 704.295 286.704 704.295C287.068 704.295 287.411 704.338 287.731 704.425C288.061 704.503 288.364 704.624 288.641 704.789V703.918C288.641 703.398 288.503 703.008 288.225 702.748C287.948 702.479 287.541 702.345 287.003 702.345C286.709 702.345 286.405 702.388 286.093 702.475C285.79 702.562 285.452 702.7 285.079 702.891L284.728 702.163C285.162 701.955 285.573 701.803 285.963 701.708C286.353 701.604 286.739 701.552 287.12 701.552C287.9 701.552 288.503 701.747 288.927 702.137C289.361 702.518 289.577 703.069 289.577 703.788V708H288.641V707.259C288.364 707.545 288.056 707.762 287.718 707.909C287.38 708.048 287.016 708.117 286.626 708.117ZM285.235 706.154C285.235 706.527 285.383 706.826 285.677 707.051C285.972 707.276 286.353 707.389 286.821 707.389C287.177 707.389 287.502 707.328 287.796 707.207C288.1 707.086 288.381 706.904 288.641 706.661V705.439C288.373 705.283 288.095 705.17 287.809 705.101C287.523 705.023 287.203 704.984 286.847 704.984C286.362 704.984 285.972 705.092 285.677 705.309C285.383 705.526 285.235 705.807 285.235 706.154ZM292.07 706.57V702.436H290.757V701.656H292.07V699.914L293.019 699.693V701.656H294.839V702.436H293.019V706.323C293.019 706.661 293.088 706.904 293.227 707.051C293.374 707.198 293.612 707.272 293.942 707.272C294.106 707.272 294.254 707.259 294.384 707.233C294.514 707.207 294.665 707.164 294.839 707.103V707.948C294.665 708.009 294.483 708.052 294.293 708.078C294.102 708.104 293.916 708.117 293.734 708.117C293.188 708.117 292.772 707.987 292.486 707.727C292.208 707.458 292.07 707.073 292.07 706.57ZM298.192 708.117C297.516 708.117 296.961 707.939 296.528 707.584C296.103 707.22 295.891 706.752 295.891 706.18C295.891 705.617 296.108 705.162 296.541 704.815C296.983 704.468 297.559 704.295 298.27 704.295C298.634 704.295 298.976 704.338 299.297 704.425C299.626 704.503 299.93 704.624 300.207 704.789V703.918C300.207 703.398 300.068 703.008 299.791 702.748C299.514 702.479 299.106 702.345 298.569 702.345C298.274 702.345 297.971 702.388 297.659 702.475C297.356 702.562 297.018 702.7 296.645 702.891L296.294 702.163C296.727 701.955 297.139 701.803 297.529 701.708C297.919 701.604 298.305 701.552 298.686 701.552C299.466 701.552 300.068 701.747 300.493 702.137C300.926 702.518 301.143 703.069 301.143 703.788V708H300.207V707.259C299.93 707.545 299.622 707.762 299.284 707.909C298.946 708.048 298.582 708.117 298.192 708.117ZM296.801 706.154C296.801 706.527 296.948 706.826 297.243 707.051C297.538 707.276 297.919 707.389 298.387 707.389C298.742 707.389 299.067 707.328 299.362 707.207C299.665 707.086 299.947 706.904 300.207 706.661V705.439C299.938 705.283 299.661 705.17 299.375 705.101C299.089 705.023 298.768 704.984 298.413 704.984C297.928 704.984 297.538 705.092 297.243 705.309C296.948 705.526 296.801 705.807 296.801 706.154ZM303.072 708V701.656H304.021V702.943C304.185 702.501 304.419 702.159 304.723 701.916C305.035 701.665 305.39 701.539 305.789 701.539C305.901 701.539 306.005 701.548 306.101 701.565C306.196 701.574 306.291 701.595 306.387 701.63V702.488C306.283 702.453 306.17 702.427 306.049 702.41C305.936 702.384 305.828 702.371 305.724 702.371C305.334 702.371 304.991 702.484 304.697 702.709C304.411 702.934 304.185 703.251 304.021 703.658V708H303.072ZM309.313 708.117C308.637 708.117 308.082 707.939 307.649 707.584C307.224 707.22 307.012 706.752 307.012 706.18C307.012 705.617 307.229 705.162 307.662 704.815C308.104 704.468 308.68 704.295 309.391 704.295C309.755 704.295 310.097 704.338 310.418 704.425C310.747 704.503 311.051 704.624 311.328 704.789V703.918C311.328 703.398 311.189 703.008 310.912 702.748C310.635 702.479 310.227 702.345 309.69 702.345C309.395 702.345 309.092 702.388 308.78 702.475C308.477 702.562 308.139 702.7 307.766 702.891L307.415 702.163C307.848 701.955 308.26 701.803 308.65 701.708C309.04 701.604 309.426 701.552 309.807 701.552C310.587 701.552 311.189 701.747 311.614 702.137C312.047 702.518 312.264 703.069 312.264 703.788V708H311.328V707.259C311.051 707.545 310.743 707.762 310.405 707.909C310.067 708.048 309.703 708.117 309.313 708.117ZM307.922 706.154C307.922 706.527 308.069 706.826 308.364 707.051C308.659 707.276 309.04 707.389 309.508 707.389C309.863 707.389 310.188 707.328 310.483 707.207C310.786 707.086 311.068 706.904 311.328 706.661V705.439C311.059 705.283 310.782 705.17 310.496 705.101C310.21 705.023 309.889 704.984 309.534 704.984C309.049 704.984 308.659 705.092 308.364 705.309C308.069 705.526 307.922 705.807 307.922 706.154Z" fill="#FFFDFA"/>
<path d="M103.157 878V868.9H106.914C107.789 868.9 108.491 869.147 109.02 869.641C109.549 870.135 109.813 870.785 109.813 871.591C109.813 872.397 109.549 873.047 109.02 873.541C108.491 874.035 107.789 874.282 106.914 874.282H104.158V878H103.157ZM106.797 869.784H104.158V873.424H106.797C107.421 873.424 107.911 873.259 108.266 872.93C108.63 872.601 108.812 872.154 108.812 871.591C108.812 871.036 108.63 870.599 108.266 870.278C107.911 869.949 107.421 869.784 106.797 869.784ZM116.339 877.272C115.975 877.558 115.598 877.77 115.208 877.909C114.818 878.048 114.402 878.117 113.96 878.117C113.518 878.117 113.102 878.035 112.712 877.87C112.331 877.697 111.997 877.463 111.711 877.168C111.434 876.873 111.213 876.527 111.048 876.128C110.892 875.721 110.814 875.287 110.814 874.828C110.814 874.369 110.888 873.94 111.035 873.541C111.191 873.134 111.403 872.787 111.672 872.501C111.941 872.206 112.257 871.977 112.621 871.812C112.985 871.639 113.379 871.552 113.804 871.552C114.22 871.552 114.606 871.634 114.961 871.799C115.316 871.964 115.624 872.189 115.884 872.475C116.144 872.752 116.348 873.09 116.495 873.489C116.642 873.879 116.716 874.299 116.716 874.75V875.036H111.737C111.78 875.677 112.019 876.215 112.452 876.648C112.885 877.073 113.401 877.285 113.999 877.285C114.328 877.285 114.645 877.229 114.948 877.116C115.26 876.995 115.524 876.834 115.741 876.635L116.339 877.272ZM113.791 872.371C113.271 872.371 112.825 872.557 112.452 872.93C112.079 873.303 111.85 873.779 111.763 874.36H115.78C115.711 873.788 115.49 873.316 115.117 872.943C114.753 872.562 114.311 872.371 113.791 872.371ZM118.336 878V871.656H119.285V872.943C119.45 872.501 119.684 872.159 119.987 871.916C120.299 871.665 120.655 871.539 121.053 871.539C121.166 871.539 121.27 871.548 121.365 871.565C121.461 871.574 121.556 871.595 121.651 871.63V872.488C121.547 872.453 121.435 872.427 121.313 872.41C121.201 872.384 121.092 872.371 120.988 872.371C120.598 872.371 120.256 872.484 119.961 872.709C119.675 872.934 119.45 873.251 119.285 873.658V878H118.336ZM122.219 877.181L122.726 876.557C123.099 876.834 123.446 877.038 123.766 877.168C124.096 877.289 124.429 877.35 124.767 877.35C125.227 877.35 125.608 877.242 125.911 877.025C126.215 876.808 126.366 876.535 126.366 876.206C126.366 875.946 126.275 875.742 126.093 875.595C125.911 875.448 125.621 875.335 125.222 875.257L124.182 875.075C123.567 874.962 123.112 874.772 122.817 874.503C122.531 874.234 122.388 873.87 122.388 873.411C122.388 872.865 122.601 872.419 123.025 872.072C123.459 871.725 124.009 871.552 124.676 871.552C125.11 871.552 125.521 871.617 125.911 871.747C126.301 871.877 126.696 872.076 127.094 872.345L126.626 873.008C126.297 872.774 125.968 872.605 125.638 872.501C125.309 872.388 124.975 872.332 124.637 872.332C124.221 872.332 123.888 872.423 123.636 872.605C123.385 872.787 123.259 873.034 123.259 873.346C123.259 873.606 123.337 873.805 123.493 873.944C123.658 874.083 123.944 874.187 124.351 874.256L125.417 874.451C126.05 874.564 126.514 874.759 126.808 875.036C127.112 875.313 127.263 875.686 127.263 876.154C127.263 876.7 127.025 877.164 126.548 877.545C126.08 877.926 125.495 878.117 124.793 878.117C124.273 878.117 123.792 878.039 123.35 877.883C122.908 877.718 122.531 877.484 122.219 877.181ZM130.735 878.117C130.059 878.117 129.504 877.939 129.071 877.584C128.646 877.22 128.434 876.752 128.434 876.18C128.434 875.617 128.651 875.162 129.084 874.815C129.526 874.468 130.102 874.295 130.813 874.295C131.177 874.295 131.519 874.338 131.84 874.425C132.169 874.503 132.473 874.624 132.75 874.789V873.918C132.75 873.398 132.611 873.008 132.334 872.748C132.057 872.479 131.649 872.345 131.112 872.345C130.817 872.345 130.514 872.388 130.202 872.475C129.899 872.562 129.561 872.7 129.188 872.891L128.837 872.163C129.27 871.955 129.682 871.803 130.072 871.708C130.462 871.604 130.848 871.552 131.229 871.552C132.009 871.552 132.611 871.747 133.036 872.137C133.469 872.518 133.686 873.069 133.686 873.788V878H132.75V877.259C132.473 877.545 132.165 877.762 131.827 877.909C131.489 878.048 131.125 878.117 130.735 878.117ZM129.344 876.154C129.344 876.527 129.491 876.826 129.786 877.051C130.081 877.276 130.462 877.389 130.93 877.389C131.285 877.389 131.61 877.328 131.905 877.207C132.208 877.086 132.49 876.904 132.75 876.661V875.439C132.481 875.283 132.204 875.17 131.918 875.101C131.632 875.023 131.311 874.984 130.956 874.984C130.471 874.984 130.081 875.092 129.786 875.309C129.491 875.526 129.344 875.807 129.344 876.154Z" fill="#FFFDFA"/>
<path d="M14.157 793V783.9H17.914C18.7893 783.9 19.4913 784.147 20.02 784.641C20.5487 785.135 20.813 785.785 20.813 786.591C20.813 787.397 20.5487 788.047 20.02 788.541C19.4913 789.035 18.7893 789.282 17.914 789.282H15.158V793H14.157ZM17.797 784.784H15.158V788.424H17.797C18.421 788.424 18.9107 788.259 19.266 787.93C19.63 787.601 19.812 787.154 19.812 786.591C19.812 786.036 19.63 785.599 19.266 785.278C18.9107 784.949 18.421 784.784 17.797 784.784ZM21.814 789.828C21.814 789.36 21.892 788.927 22.048 788.528C22.204 788.129 22.4163 787.783 22.685 787.488C22.9623 787.193 23.2917 786.964 23.673 786.799C24.0543 786.634 24.4617 786.552 24.895 786.552C25.337 786.552 25.7443 786.634 26.117 786.799C26.4983 786.964 26.8277 787.193 27.105 787.488C27.3823 787.783 27.599 788.129 27.755 788.528C27.911 788.927 27.989 789.36 27.989 789.828C27.989 790.296 27.9067 790.734 27.742 791.141C27.586 791.548 27.3693 791.899 27.092 792.194C26.8233 792.48 26.4983 792.71 26.117 792.883C25.7357 793.048 25.3283 793.13 24.895 793.13C24.4617 793.13 24.0543 793.048 23.673 792.883C23.3003 792.71 22.9753 792.476 22.698 792.181C22.4293 791.886 22.2127 791.54 22.048 791.141C21.892 790.734 21.814 790.296 21.814 789.828ZM24.895 792.285C25.5103 792.285 26.0217 792.055 26.429 791.596C26.845 791.128 27.053 790.543 27.053 789.841C27.053 789.139 26.845 788.554 26.429 788.086C26.0217 787.618 25.5103 787.384 24.895 787.384C24.2797 787.384 23.7683 787.618 23.361 788.086C22.9537 788.554 22.75 789.139 22.75 789.841C22.75 790.543 22.9537 791.128 23.361 791.596C23.7683 792.055 24.2797 792.285 24.895 792.285ZM30.6027 783.51V793H29.6537V783.705L30.6027 783.51ZM32.2622 789.828C32.2622 789.36 32.3402 788.927 32.4962 788.528C32.6522 788.129 32.8646 787.783 33.1332 787.488C33.4106 787.193 33.7399 786.964 34.1212 786.799C34.5026 786.634 34.9099 786.552 35.3432 786.552C35.7852 786.552 36.1926 786.634 36.5652 786.799C36.9466 786.964 37.2759 787.193 37.5532 787.488C37.8306 787.783 38.0472 788.129 38.2032 788.528C38.3592 788.927 38.4372 789.36 38.4372 789.828C38.4372 790.296 38.3549 790.734 38.1902 791.141C38.0342 791.548 37.8176 791.899 37.5402 792.194C37.2716 792.48 36.9466 792.71 36.5652 792.883C36.1839 793.048 35.7766 793.13 35.3432 793.13C34.9099 793.13 34.5026 793.048 34.1212 792.883C33.7486 792.71 33.4236 792.476 33.1462 792.181C32.8776 791.886 32.6609 791.54 32.4962 791.141C32.3402 790.734 32.2622 790.296 32.2622 789.828ZM35.3432 792.285C35.9586 792.285 36.4699 792.055 36.8772 791.596C37.2932 791.128 37.5012 790.543 37.5012 789.841C37.5012 789.139 37.2932 788.554 36.8772 788.086C36.4699 787.618 35.9586 787.384 35.3432 787.384C34.7279 787.384 34.2166 787.618 33.8092 788.086C33.4019 788.554 33.1982 789.139 33.1982 789.841C33.1982 790.543 33.4019 791.128 33.8092 791.596C34.2166 792.055 34.7279 792.285 35.3432 792.285Z" fill="#31302E"/>
<path d="M190.382 877.233C190.902 877.233 191.405 877.125 191.89 876.908C192.375 876.691 192.783 876.384 193.112 875.985L193.762 876.648C193.32 877.125 192.804 877.493 192.215 877.753C191.626 878.013 191.006 878.143 190.356 878.143C189.706 878.143 189.095 878.022 188.523 877.779C187.96 877.528 187.47 877.194 187.054 876.778C186.647 876.353 186.322 875.855 186.079 875.283C185.845 874.711 185.728 874.1 185.728 873.45C185.728 872.8 185.845 872.189 186.079 871.617C186.322 871.036 186.651 870.538 187.067 870.122C187.483 869.697 187.973 869.364 188.536 869.121C189.099 868.878 189.706 868.757 190.356 868.757C191.023 868.757 191.656 868.887 192.254 869.147C192.852 869.407 193.363 869.775 193.788 870.252L193.125 870.941C192.787 870.542 192.371 870.23 191.877 870.005C191.383 869.78 190.876 869.667 190.356 869.667C189.845 869.667 189.368 869.767 188.926 869.966C188.484 870.157 188.103 870.421 187.782 870.759C187.461 871.097 187.206 871.5 187.015 871.968C186.833 872.427 186.742 872.921 186.742 873.45C186.742 873.979 186.833 874.477 187.015 874.945C187.206 875.404 187.461 875.803 187.782 876.141C188.103 876.479 188.484 876.748 188.926 876.947C189.377 877.138 189.862 877.233 190.382 877.233ZM197.371 878.117C196.695 878.117 196.14 877.939 195.707 877.584C195.282 877.22 195.07 876.752 195.07 876.18C195.07 875.617 195.286 875.162 195.72 874.815C196.162 874.468 196.738 874.295 197.449 874.295C197.813 874.295 198.155 874.338 198.476 874.425C198.805 874.503 199.108 874.624 199.386 874.789V873.918C199.386 873.398 199.247 873.008 198.97 872.748C198.692 872.479 198.285 872.345 197.748 872.345C197.453 872.345 197.15 872.388 196.838 872.475C196.534 872.562 196.196 872.7 195.824 872.891L195.473 872.163C195.906 871.955 196.318 871.803 196.708 871.708C197.098 871.604 197.483 871.552 197.865 871.552C198.645 871.552 199.247 871.747 199.672 872.137C200.105 872.518 200.322 873.069 200.322 873.788V878H199.386V877.259C199.108 877.545 198.801 877.762 198.463 877.909C198.125 878.048 197.761 878.117 197.371 878.117ZM195.98 876.154C195.98 876.527 196.127 876.826 196.422 877.051C196.716 877.276 197.098 877.389 197.566 877.389C197.921 877.389 198.246 877.328 198.541 877.207C198.844 877.086 199.126 876.904 199.386 876.661V875.439C199.117 875.283 198.84 875.17 198.554 875.101C198.268 875.023 197.947 874.984 197.592 874.984C197.106 874.984 196.716 875.092 196.422 875.309C196.127 875.526 195.98 875.807 195.98 876.154ZM203.199 868.51V878H202.25V868.705L203.199 868.51ZM205.626 870.096C205.435 870.096 205.271 870.031 205.132 869.901C205.002 869.762 204.937 869.598 204.937 869.407C204.937 869.225 205.002 869.069 205.132 868.939C205.271 868.8 205.435 868.731 205.626 868.731C205.808 868.731 205.964 868.8 206.094 868.939C206.233 869.069 206.302 869.225 206.302 869.407C206.302 869.598 206.237 869.762 206.107 869.901C205.977 870.031 205.817 870.096 205.626 870.096ZM206.094 871.656V878H205.145V871.656H206.094ZM210.938 877.259C211.285 877.259 211.61 877.194 211.913 877.064C212.225 876.934 212.49 876.748 212.706 876.505L213.291 877.09C212.988 877.411 212.624 877.662 212.199 877.844C211.783 878.026 211.346 878.117 210.886 878.117C210.453 878.117 210.041 878.035 209.651 877.87C209.27 877.697 208.941 877.463 208.663 877.168C208.386 876.873 208.165 876.527 208 876.128C207.836 875.721 207.753 875.287 207.753 874.828C207.753 874.369 207.831 873.94 207.987 873.541C208.152 873.142 208.373 872.796 208.65 872.501C208.936 872.206 209.27 871.977 209.651 871.812C210.033 871.639 210.444 871.552 210.886 871.552C211.354 871.552 211.801 871.639 212.225 871.812C212.65 871.985 213.018 872.228 213.33 872.54L212.719 873.203C212.494 872.96 212.221 872.77 211.9 872.631C211.58 872.484 211.255 872.41 210.925 872.41C210.613 872.41 210.319 872.475 210.041 872.605C209.773 872.726 209.539 872.895 209.339 873.112C209.149 873.329 208.993 873.584 208.871 873.879C208.759 874.174 208.702 874.49 208.702 874.828C208.702 875.513 208.919 876.089 209.352 876.557C209.786 877.025 210.314 877.259 210.938 877.259ZM214.177 874.828C214.177 874.36 214.255 873.927 214.411 873.528C214.567 873.129 214.78 872.783 215.048 872.488C215.326 872.193 215.655 871.964 216.036 871.799C216.418 871.634 216.825 871.552 217.258 871.552C217.7 871.552 218.108 871.634 218.48 871.799C218.862 871.964 219.191 872.193 219.468 872.488C219.746 872.783 219.962 873.129 220.118 873.528C220.274 873.927 220.352 874.36 220.352 874.828C220.352 875.296 220.27 875.734 220.105 876.141C219.949 876.548 219.733 876.899 219.455 877.194C219.187 877.48 218.862 877.71 218.48 877.883C218.099 878.048 217.692 878.13 217.258 878.13C216.825 878.13 216.418 878.048 216.036 877.883C215.664 877.71 215.339 877.476 215.061 877.181C214.793 876.886 214.576 876.54 214.411 876.141C214.255 875.734 214.177 875.296 214.177 874.828ZM217.258 877.285C217.874 877.285 218.385 877.055 218.792 876.596C219.208 876.128 219.416 875.543 219.416 874.841C219.416 874.139 219.208 873.554 218.792 873.086C218.385 872.618 217.874 872.384 217.258 872.384C216.643 872.384 216.132 872.618 215.724 873.086C215.317 873.554 215.113 874.139 215.113 874.841C215.113 875.543 215.317 876.128 215.724 876.596C216.132 877.055 216.643 877.285 217.258 877.285ZM218.09 868.822H219.377L217.505 870.408H216.634L218.09 868.822Z" fill="#31302E"/>
<path d="M272.117 878L275.718 868.9H276.914L280.463 878H279.384L278.305 875.14H274.249L273.17 878H272.117ZM274.561 874.347H278.006L276.277 869.797L274.561 874.347ZM281.557 878V871.656H282.506V872.943C282.671 872.501 282.905 872.159 283.208 871.916C283.52 871.665 283.875 871.539 284.274 871.539C284.387 871.539 284.491 871.548 284.586 871.565C284.681 871.574 284.777 871.595 284.872 871.63V872.488C284.768 872.453 284.655 872.427 284.534 872.41C284.421 872.384 284.313 872.371 284.209 872.371C283.819 872.371 283.477 872.484 283.182 872.709C282.896 872.934 282.671 873.251 282.506 873.658V878H281.557ZM290.96 877.272C290.596 877.558 290.219 877.77 289.829 877.909C289.439 878.048 289.023 878.117 288.581 878.117C288.139 878.117 287.723 878.035 287.333 877.87C286.952 877.697 286.618 877.463 286.332 877.168C286.055 876.873 285.834 876.527 285.669 876.128C285.513 875.721 285.435 875.287 285.435 874.828C285.435 874.369 285.509 873.94 285.656 873.541C285.812 873.134 286.024 872.787 286.293 872.501C286.562 872.206 286.878 871.977 287.242 871.812C287.606 871.639 288 871.552 288.425 871.552C288.841 871.552 289.227 871.634 289.582 871.799C289.937 871.964 290.245 872.189 290.505 872.475C290.765 872.752 290.969 873.09 291.116 873.489C291.263 873.879 291.337 874.299 291.337 874.75V875.036H286.358C286.401 875.677 286.64 876.215 287.073 876.648C287.506 877.073 288.022 877.285 288.62 877.285C288.949 877.285 289.266 877.229 289.569 877.116C289.881 876.995 290.145 876.834 290.362 876.635L290.96 877.272ZM288.412 872.371C287.892 872.371 287.446 872.557 287.073 872.93C286.7 873.303 286.471 873.779 286.384 874.36H290.401C290.332 873.788 290.111 873.316 289.738 872.943C289.374 872.562 288.932 872.371 288.412 872.371ZM292.957 878V871.656H293.906V872.683C294.149 872.31 294.439 872.029 294.777 871.838C295.115 871.647 295.497 871.552 295.921 871.552C296.597 871.552 297.148 871.769 297.572 872.202C298.006 872.635 298.222 873.199 298.222 873.892V878H297.273V874.165C297.273 873.61 297.117 873.168 296.805 872.839C296.502 872.51 296.09 872.345 295.57 872.345C295.224 872.345 294.907 872.427 294.621 872.592C294.335 872.757 294.097 872.999 293.906 873.32V878H292.957ZM302.093 878.117C301.417 878.117 300.863 877.939 300.429 877.584C300.005 877.22 299.792 876.752 299.792 876.18C299.792 875.617 300.009 875.162 300.442 874.815C300.884 874.468 301.461 874.295 302.171 874.295C302.535 874.295 302.878 874.338 303.198 874.425C303.528 874.503 303.831 874.624 304.108 874.789V873.918C304.108 873.398 303.97 873.008 303.692 872.748C303.415 872.479 303.008 872.345 302.47 872.345C302.176 872.345 301.872 872.388 301.56 872.475C301.257 872.562 300.919 872.7 300.546 872.891L300.195 872.163C300.629 871.955 301.04 871.803 301.43 871.708C301.82 871.604 302.206 871.552 302.587 871.552C303.367 871.552 303.97 871.747 304.394 872.137C304.828 872.518 305.044 873.069 305.044 873.788V878H304.108V877.259C303.831 877.545 303.523 877.762 303.185 877.909C302.847 878.048 302.483 878.117 302.093 878.117ZM300.702 876.154C300.702 876.527 300.85 876.826 301.144 877.051C301.439 877.276 301.82 877.389 302.288 877.389C302.644 877.389 302.969 877.328 303.263 877.207C303.567 877.086 303.848 876.904 304.108 876.661V875.439C303.84 875.283 303.562 875.17 303.276 875.101C302.99 875.023 302.67 874.984 302.314 874.984C301.829 874.984 301.439 875.092 301.144 875.309C300.85 875.526 300.702 875.807 300.702 876.154Z" fill="#31302E"/>
<path d="M357.157 868.9H360.836C361.668 868.9 362.331 869.112 362.825 869.537C363.328 869.953 363.579 870.512 363.579 871.214C363.579 871.708 363.432 872.137 363.137 872.501C362.851 872.865 362.461 873.121 361.967 873.268C362.565 873.407 363.042 873.671 363.397 874.061C363.752 874.451 363.93 874.923 363.93 875.478C363.93 876.232 363.657 876.843 363.111 877.311C362.574 877.77 361.863 878 360.979 878H357.157V868.9ZM360.758 869.758H358.158V872.878H360.758C361.304 872.878 361.742 872.735 362.071 872.449C362.409 872.163 362.578 871.786 362.578 871.318C362.578 870.85 362.409 870.473 362.071 870.187C361.742 869.901 361.304 869.758 360.758 869.758ZM360.875 877.142C361.49 877.142 361.984 876.986 362.357 876.674C362.73 876.353 362.916 875.933 362.916 875.413C362.916 874.893 362.73 874.477 362.357 874.165C361.993 873.853 361.499 873.697 360.875 873.697H358.158V877.142H360.875ZM367.634 878.117C366.958 878.117 366.404 877.939 365.97 877.584C365.546 877.22 365.333 876.752 365.333 876.18C365.333 875.617 365.55 875.162 365.983 874.815C366.425 874.468 367.002 874.295 367.712 874.295C368.076 874.295 368.419 874.338 368.739 874.425C369.069 874.503 369.372 874.624 369.649 874.789V873.918C369.649 873.398 369.511 873.008 369.233 872.748C368.956 872.479 368.549 872.345 368.011 872.345C367.717 872.345 367.413 872.388 367.101 872.475C366.798 872.562 366.46 872.7 366.087 872.891L365.736 872.163C366.17 871.955 366.581 871.803 366.971 871.708C367.361 871.604 367.747 871.552 368.128 871.552C368.908 871.552 369.511 871.747 369.935 872.137C370.369 872.518 370.585 873.069 370.585 873.788V878H369.649V877.259C369.372 877.545 369.064 877.762 368.726 877.909C368.388 878.048 368.024 878.117 367.634 878.117ZM366.243 876.154C366.243 876.527 366.391 876.826 366.685 877.051C366.98 877.276 367.361 877.389 367.829 877.389C368.185 877.389 368.51 877.328 368.804 877.207C369.108 877.086 369.389 876.904 369.649 876.661V875.439C369.381 875.283 369.103 875.17 368.817 875.101C368.531 875.023 368.211 874.984 367.855 874.984C367.37 874.984 366.98 875.092 366.685 875.309C366.391 875.526 366.243 875.807 366.243 876.154ZM372.514 878V868.705L373.463 868.51V872.683C373.706 872.31 373.996 872.029 374.334 871.838C374.672 871.647 375.053 871.552 375.478 871.552C376.154 871.552 376.704 871.769 377.129 872.202C377.562 872.635 377.779 873.199 377.779 873.892V878H376.83V874.165C376.83 873.61 376.674 873.168 376.362 872.839C376.059 872.51 375.647 872.345 375.127 872.345C374.78 872.345 374.464 872.427 374.178 872.592C373.892 872.757 373.654 872.999 373.463 873.32V878H372.514ZM380.636 871.656V878H379.687V871.656H380.636ZM380.987 868.822H382.274L380.402 870.408H379.531L380.987 868.822ZM384.544 878.117C383.868 878.117 383.314 877.939 382.88 877.584C382.456 877.22 382.243 876.752 382.243 876.18C382.243 875.617 382.46 875.162 382.893 874.815C383.335 874.468 383.912 874.295 384.622 874.295C384.986 874.295 385.329 874.338 385.649 874.425C385.979 874.503 386.282 874.624 386.559 874.789V873.918C386.559 873.398 386.421 873.008 386.143 872.748C385.866 872.479 385.459 872.345 384.921 872.345C384.627 872.345 384.323 872.388 384.011 872.475C383.708 872.562 383.37 872.7 382.997 872.891L382.646 872.163C383.08 871.955 383.491 871.803 383.881 871.708C384.271 871.604 384.657 871.552 385.038 871.552C385.818 871.552 386.421 871.747 386.845 872.137C387.279 872.518 387.495 873.069 387.495 873.788V878H386.559V877.259C386.282 877.545 385.974 877.762 385.636 877.909C385.298 878.048 384.934 878.117 384.544 878.117ZM383.153 876.154C383.153 876.527 383.301 876.826 383.595 877.051C383.89 877.276 384.271 877.389 384.739 877.389C385.095 877.389 385.42 877.328 385.714 877.207C386.018 877.086 386.299 876.904 386.559 876.661V875.439C386.291 875.283 386.013 875.17 385.727 875.101C385.441 875.023 385.121 874.984 384.765 874.984C384.28 874.984 383.89 875.092 383.595 875.309C383.301 875.526 383.153 875.807 383.153 876.154Z" fill="#31302E"/>
<path d="M514.848 800V784.6H521.69C523.201 784.6 524.433 785.033 525.386 785.898C526.354 786.763 526.838 787.885 526.838 789.264C526.838 790.261 526.56 791.134 526.002 791.882C525.46 792.63 524.726 793.165 523.802 793.488L527.036 800H524.11L521.14 793.84H517.488V800H514.848ZM521.47 786.822H517.488V791.728H521.47C522.277 791.728 522.93 791.508 523.428 791.068C523.927 790.613 524.176 790.019 524.176 789.286C524.176 788.553 523.927 787.959 523.428 787.504C522.93 787.049 522.277 786.822 521.47 786.822Z" fill="#31302E"/>
<path d="M538.245 798.592C537.57 799.149 536.881 799.56 536.177 799.824C535.488 800.088 534.718 800.22 533.867 800.22C533.09 800.22 532.356 800.073 531.667 799.78C530.978 799.487 530.384 799.083 529.885 798.57C529.386 798.057 528.99 797.448 528.697 796.744C528.404 796.04 528.257 795.292 528.257 794.5C528.257 793.693 528.389 792.945 528.653 792.256C528.932 791.552 529.306 790.951 529.775 790.452C530.259 789.939 530.831 789.535 531.491 789.242C532.151 788.949 532.862 788.802 533.625 788.802C534.373 788.802 535.062 788.949 535.693 789.242C536.338 789.521 536.888 789.909 537.343 790.408C537.812 790.907 538.179 791.508 538.443 792.212C538.707 792.901 538.839 793.657 538.839 794.478V795.094H530.699C530.816 795.959 531.183 796.678 531.799 797.25C532.43 797.822 533.163 798.108 533.999 798.108C534.512 798.108 534.996 798.02 535.451 797.844C535.92 797.653 536.309 797.397 536.617 797.074L538.245 798.592ZM533.603 790.826C532.87 790.826 532.246 791.075 531.733 791.574C531.22 792.073 530.89 792.74 530.743 793.576H536.485C536.338 792.769 536.001 792.109 535.473 791.596C534.96 791.083 534.336 790.826 533.603 790.826Z" fill="#31302E"/>
<path d="M549.315 800V798.526C548.933 799.025 548.442 799.413 547.841 799.692C547.254 799.971 546.616 800.11 545.927 800.11C545.237 800.11 544.585 799.963 543.969 799.67C543.353 799.377 542.817 798.981 542.363 798.482C541.923 797.969 541.571 797.375 541.307 796.7C541.057 796.011 540.933 795.277 540.933 794.5C540.933 793.723 541.065 792.989 541.329 792.3C541.593 791.611 541.952 791.017 542.407 790.518C542.876 790.019 543.426 789.623 544.057 789.33C544.687 789.037 545.362 788.89 546.081 788.89C546.711 788.89 547.298 789.022 547.841 789.286C548.398 789.535 548.882 789.887 549.293 790.342V784.27L551.779 783.852V800H549.315ZM543.397 794.5C543.397 795.497 543.712 796.333 544.343 797.008C544.973 797.683 545.751 798.02 546.675 798.02C547.203 798.02 547.687 797.917 548.127 797.712C548.581 797.507 548.97 797.206 549.293 796.81V792.168C548.97 791.801 548.581 791.515 548.127 791.31C547.672 791.09 547.188 790.98 546.675 790.98C545.736 790.98 544.951 791.317 544.321 791.992C543.705 792.652 543.397 793.488 543.397 794.5Z" fill="#31302E"/>
<path d="M560.006 800V784.6H562.646V791.09H570.302V784.6H572.942V800H570.302V793.4H562.646V800H560.006Z" fill="#31302E"/>
<path d="M579.351 800.176C578.207 800.176 577.268 799.868 576.535 799.252C575.816 798.621 575.457 797.815 575.457 796.832C575.457 795.849 575.831 795.065 576.579 794.478C577.342 793.891 578.368 793.598 579.659 793.598C580.172 793.598 580.671 793.657 581.155 793.774C581.639 793.877 582.13 794.045 582.629 794.28V793.07C582.629 792.351 582.416 791.809 581.991 791.442C581.566 791.061 580.935 790.87 580.099 790.87C579.644 790.87 579.153 790.943 578.625 791.09C578.097 791.222 577.518 791.435 576.887 791.728L576.007 789.924C576.828 789.543 577.613 789.264 578.361 789.088C579.109 788.897 579.85 788.802 580.583 788.802C582.006 788.802 583.113 789.154 583.905 789.858C584.697 790.547 585.093 791.53 585.093 792.806V800H582.629V798.878C582.13 799.333 581.617 799.663 581.089 799.868C580.561 800.073 579.982 800.176 579.351 800.176ZM577.789 796.788C577.789 797.287 577.994 797.69 578.405 797.998C578.816 798.291 579.358 798.438 580.033 798.438C580.532 798.438 580.994 798.365 581.419 798.218C581.859 798.071 582.262 797.844 582.629 797.536V795.732C582.233 795.541 581.83 795.409 581.419 795.336C581.008 795.248 580.561 795.204 580.077 795.204C579.373 795.204 578.816 795.351 578.405 795.644C577.994 795.923 577.789 796.304 577.789 796.788Z" fill="#31302E"/>
<path d="M589.144 797.096V790.958H586.922V788.978H589.144V785.942L591.63 785.414V788.978H594.71V790.958H591.63V796.546C591.63 797.089 591.748 797.477 591.982 797.712C592.217 797.932 592.613 798.042 593.17 798.042C593.42 798.042 593.647 798.027 593.852 797.998C594.072 797.954 594.344 797.881 594.666 797.778V799.868C594.344 799.971 593.984 800.044 593.588 800.088C593.207 800.147 592.855 800.176 592.532 800.176C591.432 800.176 590.589 799.919 590.002 799.406C589.43 798.878 589.144 798.108 589.144 797.096Z" fill="#31302E"/>
<path d="M600.841 786.888V784.6H613.777V786.888H608.651V800H606.011V786.888H600.841Z" fill="#31302E"/>
<path d="M623.022 798.592C622.348 799.149 621.658 799.56 620.954 799.824C620.265 800.088 619.495 800.22 618.644 800.22C617.867 800.22 617.134 800.073 616.444 799.78C615.755 799.487 615.161 799.083 614.662 798.57C614.164 798.057 613.768 797.448 613.474 796.744C613.181 796.04 613.034 795.292 613.034 794.5C613.034 793.693 613.166 792.945 613.43 792.256C613.709 791.552 614.083 790.951 614.552 790.452C615.036 789.939 615.608 789.535 616.268 789.242C616.928 788.949 617.64 788.802 618.402 788.802C619.15 788.802 619.84 788.949 620.47 789.242C621.116 789.521 621.666 789.909 622.12 790.408C622.59 790.907 622.956 791.508 623.22 792.212C623.484 792.901 623.616 793.657 623.616 794.478V795.094H615.476C615.594 795.959 615.96 796.678 616.576 797.25C617.207 797.822 617.94 798.108 618.776 798.108C619.29 798.108 619.774 798.02 620.228 797.844C620.698 797.653 621.086 797.397 621.394 797.074L623.022 798.592ZM618.38 790.826C617.647 790.826 617.024 791.075 616.51 791.574C615.997 792.073 615.667 792.74 615.52 793.576H621.262C621.116 792.769 620.778 792.109 620.25 791.596C619.737 791.083 619.114 790.826 618.38 790.826Z" fill="#31302E"/>
<path d="M624.145 800L628.281 794.39L624.255 788.978H627.159L629.733 792.608L632.307 788.978H635.079L631.119 794.324L635.387 800H632.461L629.689 796.106L626.917 800H624.145Z" fill="#31302E"/>
<path d="M638.322 797.096V790.958H636.1V788.978H638.322V785.942L640.808 785.414V788.978H643.888V790.958H640.808V796.546C640.808 797.089 640.926 797.477 641.16 797.712C641.395 797.932 641.791 798.042 642.348 798.042C642.598 798.042 642.825 798.027 643.03 797.998C643.25 797.954 643.522 797.881 643.844 797.778V799.868C643.522 799.971 643.162 800.044 642.766 800.088C642.385 800.147 642.033 800.176 641.71 800.176C640.61 800.176 639.767 799.919 639.18 799.406C638.608 798.878 638.322 798.108 638.322 797.096Z" fill="#31302E"/>
<path d="M659.237 798.9L653.759 787.922V800H651.317V784.6H654.749L659.259 793.928L663.747 784.6H667.179V800H664.693V787.988L659.237 798.9Z" fill="#31302E"/>
<path d="M680.063 798.592C679.389 799.149 678.699 799.56 677.995 799.824C677.306 800.088 676.536 800.22 675.685 800.22C674.908 800.22 674.175 800.073 673.485 799.78C672.796 799.487 672.202 799.083 671.703 798.57C671.205 798.057 670.809 797.448 670.515 796.744C670.222 796.04 670.075 795.292 670.075 794.5C670.075 793.693 670.207 792.945 670.471 792.256C670.75 791.552 671.124 790.951 671.593 790.452C672.077 789.939 672.649 789.535 673.309 789.242C673.969 788.949 674.681 788.802 675.443 788.802C676.191 788.802 676.881 788.949 677.511 789.242C678.157 789.521 678.707 789.909 679.161 790.408C679.631 790.907 679.997 791.508 680.261 792.212C680.525 792.901 680.657 793.657 680.657 794.478V795.094H672.517C672.635 795.959 673.001 796.678 673.617 797.25C674.248 797.822 674.981 798.108 675.817 798.108C676.331 798.108 676.815 798.02 677.269 797.844C677.739 797.653 678.127 797.397 678.435 797.074L680.063 798.592ZM675.421 790.826C674.688 790.826 674.065 791.075 673.551 791.574C673.038 792.073 672.708 792.74 672.561 793.576H678.303C678.157 792.769 677.819 792.109 677.291 791.596C676.778 791.083 676.155 790.826 675.421 790.826Z" fill="#31302E"/>
<path d="M691.133 800V798.526C690.752 799.025 690.26 799.413 689.659 799.692C689.072 799.971 688.434 800.11 687.745 800.11C687.056 800.11 686.403 799.963 685.787 799.67C685.171 799.377 684.636 798.981 684.181 798.482C683.741 797.969 683.389 797.375 683.125 796.7C682.876 796.011 682.751 795.277 682.751 794.5C682.751 793.723 682.883 792.989 683.147 792.3C683.411 791.611 683.77 791.017 684.225 790.518C684.694 790.019 685.244 789.623 685.875 789.33C686.506 789.037 687.18 788.89 687.899 788.89C688.53 788.89 689.116 789.022 689.659 789.286C690.216 789.535 690.7 789.887 691.111 790.342V784.27L693.597 783.852V800H691.133ZM685.215 794.5C685.215 795.497 685.53 796.333 686.161 797.008C686.792 797.683 687.569 798.02 688.493 798.02C689.021 798.02 689.505 797.917 689.945 797.712C690.4 797.507 690.788 797.206 691.111 796.81V792.168C690.788 791.801 690.4 791.515 689.945 791.31C689.49 791.09 689.006 790.98 688.493 790.98C687.554 790.98 686.77 791.317 686.139 791.992C685.523 792.652 685.215 793.488 685.215 794.5Z" fill="#31302E"/>
<path d="M697.917 786.734C697.491 786.734 697.125 786.587 696.817 786.294C696.523 786.001 696.377 785.641 696.377 785.216C696.377 784.805 696.531 784.446 696.839 784.138C697.147 783.83 697.506 783.676 697.917 783.676C698.342 783.676 698.709 783.83 699.017 784.138C699.325 784.446 699.479 784.805 699.479 785.216C699.479 785.641 699.325 786.001 699.017 786.294C698.723 786.587 698.357 786.734 697.917 786.734ZM699.171 788.978V800H696.685V788.978H699.171Z" fill="#31302E"/>
<path d="M704.648 788.978V795.534C704.648 796.326 704.868 796.964 705.308 797.448C705.748 797.932 706.334 798.174 707.068 798.174C707.566 798.174 708.021 798.064 708.432 797.844C708.842 797.609 709.194 797.265 709.488 796.81V788.978H711.974V800H709.488V798.174C709.077 798.819 708.571 799.318 707.97 799.67C707.383 800.007 706.716 800.176 705.968 800.176C704.853 800.176 703.936 799.809 703.218 799.076C702.514 798.343 702.162 797.397 702.162 796.238V788.978H704.648Z" fill="#31302E"/>
<path d="M715.032 800V788.978H717.518V790.738C717.929 790.107 718.406 789.631 718.948 789.308C719.506 788.971 720.122 788.802 720.796 788.802C721.53 788.802 722.182 789 722.754 789.396C723.326 789.777 723.752 790.291 724.03 790.936C724.441 790.232 724.954 789.704 725.57 789.352C726.201 788.985 726.905 788.802 727.682 788.802C728.738 788.802 729.604 789.176 730.278 789.924C730.953 790.672 731.29 791.633 731.29 792.806V800H728.804V793.334C728.804 792.571 728.599 791.963 728.188 791.508C727.792 791.039 727.257 790.804 726.582 790.804C726.128 790.804 725.717 790.914 725.35 791.134C724.984 791.354 724.654 791.677 724.36 792.102C724.375 792.219 724.382 792.337 724.382 792.454C724.397 792.571 724.404 792.689 724.404 792.806V800H721.918V793.334C721.918 792.571 721.713 791.963 721.302 791.508C720.906 791.039 720.371 790.804 719.696 790.804C719.256 790.804 718.853 790.914 718.486 791.134C718.12 791.339 717.797 791.647 717.518 792.058V800H715.032Z" fill="#31302E"/>
<path d="M516.014 733V649.553H553.088C561.274 649.553 567.95 651.897 573.115 656.586C578.361 661.275 580.983 667.355 580.983 674.826C580.983 680.23 579.473 684.958 576.453 689.011C573.513 693.065 569.539 695.965 564.532 697.714L582.056 733H566.201L550.108 699.621H530.319V733H516.014ZM551.896 661.593H530.319V688.177H551.896C556.267 688.177 559.804 686.985 562.506 684.601C565.208 682.137 566.559 678.918 566.559 674.945C566.559 670.971 565.208 667.752 562.506 665.289C559.804 662.825 556.267 661.593 551.896 661.593Z" fill="#31302E"/>
<path d="M594.439 733V673.276H607.91V686.27C609.499 681.74 611.685 678.283 614.466 675.898C617.327 673.435 620.626 672.203 624.361 672.203C625.474 672.282 626.467 672.402 627.341 672.561C628.215 672.719 629.169 672.998 630.202 673.395V685.197C629.169 684.72 627.977 684.362 626.626 684.124C625.354 683.885 624.083 683.766 622.811 683.766C619.632 683.766 616.731 684.64 614.109 686.389C611.486 688.137 609.42 690.561 607.91 693.661V733H594.439Z" fill="#31302E"/>
<path d="M514.469 832V820.45H519.204C520.304 820.45 521.19 820.758 521.861 821.374C522.543 821.99 522.884 822.793 522.884 823.783C522.884 824.542 522.664 825.202 522.224 825.763C521.795 826.313 521.212 826.692 520.475 826.901L522.933 832H521.531L519.188 827.066H515.739V832H514.469ZM519.105 821.572H515.739V826.01H519.105C519.864 826.01 520.469 825.807 520.92 825.4C521.382 824.993 521.613 824.459 521.613 823.799C521.613 823.128 521.382 822.589 520.92 822.182C520.469 821.775 519.864 821.572 519.105 821.572Z" fill="#31302E"/>
<path d="M531.151 831.076C530.689 831.439 530.211 831.708 529.716 831.884C529.221 832.06 528.693 832.148 528.132 832.148C527.571 832.148 527.043 832.044 526.548 831.835C526.064 831.615 525.64 831.318 525.277 830.944C524.925 830.57 524.645 830.13 524.436 829.624C524.238 829.107 524.139 828.557 524.139 827.974C524.139 827.391 524.232 826.846 524.419 826.34C524.617 825.823 524.887 825.383 525.228 825.02C525.569 824.646 525.97 824.355 526.432 824.146C526.894 823.926 527.395 823.816 527.934 823.816C528.462 823.816 528.951 823.92 529.402 824.129C529.853 824.338 530.244 824.624 530.574 824.987C530.904 825.339 531.162 825.768 531.349 826.274C531.536 826.769 531.63 827.303 531.63 827.875V828.238H525.31C525.365 829.052 525.668 829.734 526.218 830.284C526.768 830.823 527.422 831.092 528.181 831.092C528.599 831.092 529.001 831.021 529.386 830.878C529.782 830.724 530.117 830.52 530.392 830.267L531.151 831.076ZM527.917 824.855C527.257 824.855 526.691 825.092 526.218 825.565C525.745 826.038 525.453 826.643 525.343 827.38H530.442C530.354 826.654 530.073 826.054 529.6 825.581C529.138 825.097 528.577 824.855 527.917 824.855Z" fill="#31302E"/>
<path d="M539.626 832V830.927C539.318 831.312 538.944 831.609 538.504 831.818C538.064 832.016 537.58 832.115 537.052 832.115C536.535 832.115 536.046 832.011 535.584 831.802C535.133 831.582 534.742 831.29 534.412 830.927C534.082 830.553 533.818 830.113 533.62 829.607C533.433 829.101 533.34 828.562 533.34 827.99C533.34 827.407 533.433 826.863 533.62 826.357C533.818 825.851 534.088 825.416 534.429 825.053C534.77 824.679 535.171 824.388 535.633 824.179C536.095 823.959 536.59 823.849 537.118 823.849C537.613 823.849 538.075 823.948 538.504 824.146C538.933 824.333 539.307 824.608 539.626 824.971V820.202L540.831 819.955V832H539.626ZM534.528 827.974C534.528 828.854 534.797 829.591 535.336 830.185C535.875 830.768 536.546 831.059 537.349 831.059C537.822 831.059 538.257 830.966 538.653 830.779C539.049 830.592 539.373 830.328 539.626 829.987V825.994C539.362 825.653 539.027 825.389 538.62 825.202C538.224 825.004 537.8 824.905 537.349 824.905C536.546 824.905 535.875 825.196 535.336 825.779C534.797 826.362 534.528 827.094 534.528 827.974Z" fill="#31302E"/>
<path d="M547.372 832V820.45H548.642V825.614H555.275V820.45H556.546V832H555.275V826.753H548.642V832H547.372Z" fill="#31302E"/>
<path d="M561.556 832.148C560.698 832.148 559.994 831.923 559.444 831.472C558.905 831.01 558.636 830.416 558.636 829.69C558.636 828.975 558.911 828.397 559.461 827.957C560.022 827.517 560.753 827.297 561.655 827.297C562.117 827.297 562.552 827.352 562.959 827.462C563.377 827.561 563.762 827.715 564.114 827.924V826.819C564.114 826.159 563.938 825.664 563.586 825.334C563.234 824.993 562.717 824.822 562.035 824.822C561.661 824.822 561.276 824.877 560.88 824.987C560.495 825.097 560.066 825.273 559.593 825.515L559.147 824.591C559.697 824.327 560.22 824.135 560.715 824.014C561.21 823.882 561.699 823.816 562.183 823.816C563.173 823.816 563.938 824.063 564.477 824.558C565.027 825.042 565.302 825.741 565.302 826.654V832H564.114V831.059C563.762 831.422 563.371 831.697 562.942 831.884C562.513 832.06 562.051 832.148 561.556 832.148ZM559.791 829.657C559.791 830.13 559.978 830.509 560.352 830.795C560.726 831.081 561.21 831.224 561.804 831.224C562.255 831.224 562.667 831.147 563.041 830.993C563.426 830.839 563.784 830.608 564.114 830.3V828.749C563.773 828.551 563.421 828.408 563.058 828.32C562.695 828.221 562.288 828.172 561.837 828.172C561.221 828.172 560.726 828.309 560.352 828.584C559.978 828.859 559.791 829.217 559.791 829.657Z" fill="#31302E"/>
<path d="M568.465 830.185V824.938H566.799V823.948H568.465V821.737L569.67 821.456V823.948H571.98V824.938H569.67V829.871C569.67 830.3 569.758 830.608 569.934 830.795C570.121 830.982 570.423 831.076 570.841 831.076C571.05 831.076 571.237 831.059 571.402 831.026C571.567 830.993 571.76 830.938 571.98 830.861V831.934C571.76 832.011 571.529 832.066 571.287 832.099C571.045 832.132 570.808 832.148 570.577 832.148C569.884 832.148 569.356 831.983 568.993 831.653C568.641 831.312 568.465 830.823 568.465 830.185Z" fill="#31302E"/>
<path d="M576.82 821.572V820.45H586.06V821.572H582.083V832H580.813V821.572H576.82Z" fill="#31302E"/>
<path d="M592.752 831.076C592.29 831.439 591.812 831.708 591.317 831.884C590.822 832.06 590.294 832.148 589.733 832.148C589.172 832.148 588.644 832.044 588.149 831.835C587.665 831.615 587.241 831.318 586.878 830.944C586.526 830.57 586.246 830.13 586.037 829.624C585.839 829.107 585.74 828.557 585.74 827.974C585.74 827.391 585.833 826.846 586.02 826.34C586.218 825.823 586.488 825.383 586.829 825.02C587.17 824.646 587.571 824.355 588.033 824.146C588.495 823.926 588.996 823.816 589.535 823.816C590.063 823.816 590.552 823.92 591.003 824.129C591.454 824.338 591.845 824.624 592.175 824.987C592.505 825.339 592.763 825.768 592.95 826.274C593.137 826.769 593.231 827.303 593.231 827.875V828.238H586.911C586.966 829.052 587.269 829.734 587.819 830.284C588.369 830.823 589.023 831.092 589.782 831.092C590.2 831.092 590.602 831.021 590.987 830.878C591.383 830.724 591.718 830.52 591.993 830.267L592.752 831.076ZM589.518 824.855C588.858 824.855 588.292 825.092 587.819 825.565C587.346 826.038 587.054 826.643 586.944 827.38H592.043C591.955 826.654 591.674 826.054 591.201 825.581C590.739 825.097 590.178 824.855 589.518 824.855Z" fill="#31302E"/>
<path d="M593.749 832L596.818 827.858L593.897 823.948H595.333L597.56 827L599.755 823.948H601.124L598.237 827.825L601.355 832H599.92L597.511 828.716L595.118 832H593.749Z" fill="#31302E"/>
<path d="M603.608 830.185V824.938H601.942V823.948H603.608V821.737L604.813 821.456V823.948H607.123V824.938H604.813V829.871C604.813 830.3 604.901 830.608 605.077 830.795C605.264 830.982 605.566 831.076 605.984 831.076C606.193 831.076 606.38 831.059 606.545 831.026C606.71 830.993 606.903 830.938 607.123 830.861V831.934C606.903 832.011 606.672 832.066 606.43 832.099C606.188 832.132 605.951 832.148 605.72 832.148C605.027 832.148 604.499 831.983 604.136 831.653C603.784 831.312 603.608 830.823 603.608 830.185Z" fill="#31302E"/>
<path d="M612.969 832V820.45H617.705C618.805 820.45 619.69 820.758 620.361 821.374C621.043 821.99 621.384 822.793 621.384 823.783C621.384 824.542 621.164 825.202 620.724 825.763C620.295 826.313 619.712 826.692 618.975 826.901L621.434 832H620.031L617.688 827.066H614.24V832H612.969ZM617.606 821.572H614.24V826.01H617.606C618.365 826.01 618.97 825.807 619.421 825.4C619.883 824.993 620.114 824.459 620.114 823.799C620.114 823.128 619.883 822.589 619.421 822.182C618.97 821.775 618.365 821.572 617.606 821.572Z" fill="#31302E"/>
<path d="M629.652 831.076C629.19 831.439 628.711 831.708 628.216 831.884C627.721 832.06 627.193 832.148 626.632 832.148C626.071 832.148 625.543 832.044 625.048 831.835C624.564 831.615 624.141 831.318 623.778 830.944C623.426 830.57 623.145 830.13 622.936 829.624C622.738 829.107 622.639 828.557 622.639 827.974C622.639 827.391 622.733 826.846 622.92 826.34C623.118 825.823 623.387 825.383 623.728 825.02C624.069 824.646 624.471 824.355 624.933 824.146C625.395 823.926 625.895 823.816 626.434 823.816C626.962 823.816 627.452 823.92 627.903 824.129C628.354 824.338 628.744 824.624 629.074 824.987C629.404 825.339 629.663 825.768 629.85 826.274C630.037 826.769 630.13 827.303 630.13 827.875V828.238H623.811C623.866 829.052 624.168 829.734 624.718 830.284C625.268 830.823 625.923 831.092 626.682 831.092C627.1 831.092 627.501 831.021 627.886 830.878C628.282 830.724 628.618 830.52 628.893 830.267L629.652 831.076ZM626.418 824.855C625.758 824.855 625.191 825.092 624.718 825.565C624.245 826.038 623.954 826.643 623.844 827.38H628.942C628.854 826.654 628.574 826.054 628.101 825.581C627.639 825.097 627.078 824.855 626.418 824.855Z" fill="#31302E"/>
<path d="M635.553 832.099C635.036 832.099 634.546 831.994 634.084 831.785C633.633 831.565 633.243 831.274 632.913 830.911C632.583 830.537 632.319 830.097 632.121 829.591C631.934 829.085 631.84 828.546 631.84 827.974C631.84 827.402 631.934 826.863 632.121 826.357C632.319 825.851 632.588 825.416 632.929 825.053C633.27 824.679 633.672 824.388 634.134 824.179C634.596 823.959 635.091 823.849 635.619 823.849C636.125 823.849 636.592 823.948 637.021 824.146C637.45 824.333 637.824 824.613 638.143 824.987V823.948H639.331V832.412C639.331 833.402 639.034 834.167 638.44 834.706C637.857 835.245 637.021 835.514 635.932 835.514C635.393 835.514 634.849 835.437 634.299 835.283C633.76 835.14 633.259 834.937 632.797 834.673L633.309 833.749C633.804 834.002 634.255 834.189 634.662 834.31C635.069 834.431 635.476 834.491 635.883 834.491C636.609 834.491 637.164 834.315 637.549 833.963C637.934 833.611 638.127 833.1 638.127 832.429V830.911C637.819 831.296 637.445 831.593 637.005 831.802C636.565 832 636.081 832.099 635.553 832.099ZM633.028 827.974C633.028 828.854 633.298 829.591 633.837 830.185C634.376 830.768 635.047 831.059 635.85 831.059C636.323 831.059 636.757 830.966 637.153 830.779C637.549 830.581 637.874 830.311 638.127 829.97V825.994C637.863 825.653 637.527 825.389 637.12 825.202C636.724 825.004 636.301 824.905 635.85 824.905C635.047 824.905 634.376 825.196 633.837 825.779C633.298 826.362 633.028 827.094 633.028 827.974Z" fill="#31302E"/>
<path d="M642.978 823.948V828.799C642.978 829.514 643.171 830.08 643.556 830.498C643.941 830.916 644.463 831.125 645.123 831.125C645.563 831.125 645.965 831.021 646.328 830.812C646.691 830.603 646.993 830.3 647.235 829.904V823.948H648.44V832H647.235V830.696C646.927 831.169 646.559 831.527 646.13 831.769C645.701 832.011 645.217 832.132 644.678 832.132C643.82 832.132 643.116 831.857 642.566 831.307C642.027 830.746 641.757 830.025 641.757 829.145V823.948H642.978Z" fill="#31302E"/>
<path d="M652.115 819.955V832H650.911V820.202L652.115 819.955Z" fill="#31302E"/>
<path d="M657.076 832.148C656.218 832.148 655.514 831.923 654.964 831.472C654.425 831.01 654.155 830.416 654.155 829.69C654.155 828.975 654.43 828.397 654.98 827.957C655.541 827.517 656.273 827.297 657.175 827.297C657.637 827.297 658.071 827.352 658.478 827.462C658.896 827.561 659.281 827.715 659.633 827.924V826.819C659.633 826.159 659.457 825.664 659.105 825.334C658.753 824.993 658.236 824.822 657.554 824.822C657.18 824.822 656.795 824.877 656.399 824.987C656.014 825.097 655.585 825.273 655.112 825.515L654.667 824.591C655.217 824.327 655.739 824.135 656.234 824.014C656.729 823.882 657.219 823.816 657.703 823.816C658.693 823.816 659.457 824.063 659.996 824.558C660.546 825.042 660.821 825.741 660.821 826.654V832H659.633V831.059C659.281 831.422 658.891 831.697 658.462 831.884C658.033 832.06 657.571 832.148 657.076 832.148ZM655.31 829.657C655.31 830.13 655.497 830.509 655.871 830.795C656.245 831.081 656.729 831.224 657.323 831.224C657.774 831.224 658.187 831.147 658.561 830.993C658.946 830.839 659.303 830.608 659.633 830.3V828.749C659.292 828.551 658.94 828.408 658.577 828.32C658.214 828.221 657.807 828.172 657.356 828.172C656.74 828.172 656.245 828.309 655.871 828.584C655.497 828.859 655.31 829.217 655.31 829.657Z" fill="#31302E"/>
<path d="M663.269 832V823.948H664.474V825.581C664.683 825.02 664.98 824.586 665.365 824.278C665.761 823.959 666.212 823.799 666.718 823.799C666.861 823.799 666.993 823.81 667.114 823.832C667.235 823.843 667.356 823.871 667.477 823.915V825.004C667.345 824.96 667.202 824.927 667.048 824.905C666.905 824.872 666.767 824.855 666.635 824.855C666.14 824.855 665.706 824.998 665.332 825.284C664.969 825.57 664.683 825.972 664.474 826.489V832H663.269Z" fill="#31302E"/>
</svg>
