<svg xmlns="http://www.w3.org/2000/svg" fill="none" viewBox="0 0 803 890">
  <path fill="#31302E" d="M551.3 421.8c-1-1.8-1.5-4.7-1.5-8.5 0-5.3-1.4-9.6-4.8-12.2h.7c2.6 0 4.1-1.5 4.1-4.2V375.1c0-2.6-1.5-4.1-4.1-4.1H521.2c-2.7 0-4.1 1.5-4.1 4.1v38.2c0 2.3 0 7.8-2.9 10 2.9.5 8 .6 10.6-1 2.4-1.3 3.8-2.8 3.8-9V401h1c7.6 2.2 8 8.2 8.5 13.3.2 5.4 1.6 6.8 3.8 8 .9.5 2 .8 3 1 1.5.2 2.9.3 4.3.2 1.3 0 2.4-.2 3.4-.3-.6-.5-1-1-1.3-1.5zm-19.8-31h-2c-.5 0-.8-.4-.8-.9v-7.4c0-.5.3-.8.8-.8h7.9c.5 0 .8.3.8.8v7.4c0 .5-.3.8-.8.8h-5.9zM590.3 413.3V375.2c0-2.7-1.5-4.2-4.1-4.2H562c-2.7 0-4.2 1.5-4.2 4.2V413.3c0 2.3 0 7.8-2.8 10 2.8.5 8 .6 10.6-1 2.4-1.3 3.8-2.7 3.8-9v-10.7c0-1 .4-1.4 1.2-1.4h6.8c1.2 0 1.2.6 1.2 1.4v10.7c0 6.3 1.4 7.7 3.9 9 2.7 1.6 7.7 1.4 10.5 1-2.7-2.2-2.7-7.7-2.7-10zm-20.2-22.6c-.4 0-.7-.3-.7-.7v-7.4c0-.6.3-.9.7-.9h7.9c.5 0 .8.3.8.8v7.4c0 .5-.3.8-.8.8h-7.8zM626.6 372.2c-2.4 1.3-3.8 2.8-3.8 9v8.7c0 .5-.4.8-.9.8h-10.4c-.5 0-.8-.3-.8-.8v-8.6c0-2.4 0-7.9 2.8-10-2.8-.4-8-.6-10.6.9-2.4 1.3-3.8 2.8-3.8 9v32.1c0 2.3 0 7.8-2.8 10 2.8.5 7.8.6 10.4-1 2.4-1.3 3.8-2.7 3.8-9l.1-9.4v-2c0-.5.3-.8.8-.8h10.5c.5 0 .8.3.8.8v11.4c0 2.3 0 7.8-2.8 10 2.8.5 7.9.6 10.5-1 2.4-1.3 3.8-2.7 3.8-9v-32c0-2.4 0-7.9 2.9-10-2.7-.4-7.8-.6-10.5.9zM646.6 372.2c-2.4 1.3-3.8 2.8-3.8 9v32.1c0 2.3 0 7.8-2.8 10 2.8.5 7.9.6 10.6-1 2.4-1.3 3.8-2.7 3.8-9v-32c0-2.4 0-7.9 2.9-10-2.8-.4-7.9-.6-10.7.9zM682.3 371h-18.5c-1.5 0-3 .2-4 .4 2.8 2.1 2.8 7.6 2.8 10v31.9c0 2.3 0 7.8-2.9 10 1.1.2 2.5.3 4.1.3h18.5c7.7 0 15.8-4.7 15.8-13V384c0-8.3-8.1-13-15.8-13zm4 37.6c0 2.4-1.2 4.3-4.4 4.3h-7c-.4 0-.7-.3-.7-.8v-29.6c0-.5.3-.8.7-.8h7c3.2 0 4.5 1.6 4.5 4.3v22.6zM533.3 432.1h2.3l1.1 3.5 1.1-3.5h2.3l-1.8 5 1 3 2.7-8h2.8l-4.3 10.8h-2.1l-1.7-4.2-1.7 4.2h-2l-4.3-10.8h2.6l2.7 8 1-3-1.7-5zM562.7 432.1V443H560v-4.4H556v4.4h-2.5V432h2.5v4.2h4.2V432h2.6zM577.1 443c-.8 0-1.5-.2-2.2-.5a5.5 5.5 0 01-2.7-3 5.6 5.6 0 010-4.1c.2-.7.6-1.3 1.1-1.7.5-.5 1-1 1.7-1.3.6-.3 1.4-.4 2.1-.4.8 0 1.5.2 2.2.5a5.5 5.5 0 012.8 3c.2.7.3 1.3.3 2a5.6 5.6 0 01-1.4 3.9c-.5.5-1 .9-1.7 1.2-.7.2-1.4.4-2.2.4zm-2.8-5.5l.2 1.2.5 1c.3.4.6.6 1 .8.2.1.7.3 1.1.3a3 3 0 001.3-.3l.8-.8c.3-.3.4-.6.6-1a4.3 4.3 0 000-2.4c-.1-.4-.3-.7-.6-1-.2-.4-.5-.6-.8-.8l-1.2-.2a3 3 0 00-1.3.2l-.9.7-.5 1a5 5 0 00-.2 1.3zM591.6 442.9V432h2.5v8.6h5.3v2.2h-7.8zM615.7 440.7v2.2h-7.5V432h7.4v2.2h-5v2h4.3v2.1h-4.3v2.3h5.1zM631.2 435.2l-.4-.2-.7-.3-.8-.3-1-.1c-.9 0-1.3.2-1.3.8l.1.5c.2 0 .3.2.5.3l.7.3 1 .2 1.4.5c.4.1.7.4 1 .6a2.9 2.9 0 01.9 2.2c0 .6-.1 1.1-.3 1.5-.3.4-.6.8-1 1-.3.3-.8.5-1.3.6a6.9 6.9 0 01-2.7 0 7.6 7.6 0 01-2.3-.7l-1-.5 1-2.2.4.3.8.4a6.4 6.4 0 002.4.5c.8 0 1.3-.2 1.3-.8 0-.2 0-.4-.3-.5l-.5-.3a22.6 22.6 0 00-1.8-.6l-1.3-.5-1-.6c-.2-.3-.4-.5-.5-.9l-.2-1 .3-1.5c.3-.5.5-.9 1-1.1.3-.3.7-.6 1.2-.7l1.5-.2 1 .1c.5 0 .8.2 1.1.3.3 0 .7.2 1 .4l.7.4-1 2.1zM644.4 432.1h2.3l3.9 10.8H648l-.8-2.4H644l-.8 2.4h-2.6l4-10.8zm2.4 6.6l-1.2-3.8-1.3 3.8h2.5zM659.4 442.9V432h2.5v8.6h5.2v2.2h-7.7zM683.5 440.7v2.2h-7.6V432h7.4v2.2h-4.9v2h4.3v2.1h-4.3v2.3h5zM79.7 189c-2.2-4-3.4-10.3-3.4-18.6 0-11.5-2.8-21-10.2-26.7h1.5c5.7 0 8.9-3.3 8.9-9V87c0-5.9-3.2-9.1-9-9.1H15c-5.8 0-9 3.2-9 9v83.4c0 5 0 17-6 21.7 6 1.2 17 1.5 22.7-1.9 5.2-3 8.2-6.2 8.2-19.8v-26.6h2c16.4 4.8 17.4 17.8 18.4 29 .3 11.8 3.3 14.8 8.2 17.6 1.9 1 4 1.7 6.6 2 3 .5 6 .7 9 .5a75 75 0 007.3-.6c-1.2-1-2-2.1-2.7-3.3zM37 121.1h-4.3c-1 0-1.7-.7-1.7-1.7V103c0-1 .7-1.7 1.7-1.7h17c1 0 1.6.7 1.6 1.7v16.3c0 1-.6 1.7-1.6 1.7H37zM163.5 170.4V87.1c0-5.8-3.2-9.1-8.9-9.1h-52c-5.7 0-8.9 3.3-8.9 9v83.4c0 5.2 0 17.1-6 21.8 6 1.2 16.9 1.5 22.6-2 5.2-2.8 8.2-6 8.2-19.8V147c0-2 .8-3.1 2.6-3.1h14.6c2.7 0 2.7 1.4 2.7 3.2v23.3c0 13.7 3 17 8.2 19.9 5.8 3.2 16.7 2.9 22.6 1.9-5.7-4.7-5.7-16.6-5.7-21.8zM120 121.1c-1 0-1.6-.7-1.6-1.7V103.2c0-1 .6-1.8 1.6-1.8H137c1 0 1.7.7 1.7 1.8V119.4c0 1-.7 1.7-1.7 1.7h-16.9zM241.4 80.6c-5.1 3-8.1 6.2-8.1 19.8l-.2 14.4v4.5c0 1-.7 1.7-1.7 1.7H209c-1 0-1.7-.7-1.7-1.7v-18.9c0-5 0-17 6-21.7-6-1-17-1.4-22.6 1.9-5.2 3-8.2 6.2-8.2 19.8l-.2 70c0 5.2 0 17.1-6 21.8 6 1.2 16.9 1.5 22.5-2 5.2-2.8 8.2-6 8.2-19.8l.2-20.5v-4.5c0-1 .6-1.7 1.6-1.7h22.7c1 0 1.7.7 1.7 1.7v25c0 5.2 0 17.1-6 21.8 6 1.2 16.8 1.5 22.5-2 5.2-2.8 8.2-6 8.2-19.8l.1-70c0-5 0-17 6-21.7-5.8-1-16.6-1.4-22.5 1.9zM284.5 80.6c-5.2 3-8.3 6.2-8.3 19.8v70c0 5.2 0 17.1-6 21.8 6 1.2 17 1.5 22.7-2 5.3-2.8 8.3-6 8.3-19.8v-70c0-5 0-17 6.1-21.7-5.9-1-16.9-1.4-22.8 1.9zM361.1 78h-39.7c-3.2 0-6.4.3-8.8.9 6.1 4.6 6.1 16.6 6.1 21.7v69.8c0 5.1 0 17.1-6 21.7 2.3.6 5.3.9 8.7.9H361c16.6 0 33.9-10.3 33.9-28.4v-58.2c0-18.1-17.3-28.4-33.9-28.4zm8.8 82.1c0 5.3-2.7 9.5-9.6 9.5h-15c-1 0-1.7-.7-1.7-1.8v-64.6c0-1 .7-1.8 1.7-1.8h15c6.7 0 9.6 3.5 9.6 9.5V160zM606.5 141.6c-4.4 5.5-14.5 6-20.4 6-13 0-12-7.8-12-11.6 9.7 0 33.9.8 33.9-19 0-7.7-7.9-13.8-19.1-11.8-10.7 2-8.7 18-8.7 18s13.8 7.8 2 4c-5.3-2-9-9.1-9-17 0-5.2.7-8.5 1.2-11.3h5.6c1 0 1.5-.7 1.5-1.5l-.5-17.9c0-1-.8-1.5-1.5-1.5h-38.2c-1 0-1.6.8-1.6 1.5l-.5 18c0 1 .8 1.4 1.6 1.4h5.6c.5 2.6 1.2 6 1.2 11.6 0 7.6-2 14.4-7.6 16.7-12.2 4 1.3-4 1.3-4s1.5-15.7-9.2-18c-11-2-19.1 4-19.1 11.9 0 19.7 24.2 19 33.9 19 0 3.4.7 11.5-12 11.5-5.6 0-16-.5-20.4-6-.2 1-.2 2-.5 3.2-1.3 8.6-4.8 47.2 46.6 47.2 42.6 0 47.1-26.5 46.9-40.6-.3-3.8-.5-7.3-1-9.8zm-46.1 35c-12.5 0-21.4-5-21.4-12.8 0-1 .7-1.6 1.5-1.6H580c1 0 1.5.8 1.5 1.6.3 7.3-8.6 12.8-21.1 12.8zM38 422.4c-1.1-1.8-1.7-4.7-1.7-8.6 0-5.3-1.3-9.7-4.9-12.4h.8c2.7 0 4.2-1.5 4.2-4.2V375.2c0-2.7-1.5-4.2-4.2-4.2H7c-2.7 0-4.2 1.5-4.2 4.2v38.6c0 2.4 0 8-2.9 10 2.9.6 8 .8 10.8-.8 2.5-1.4 4-2.9 4-9.2v-12.3h.9c7.7 2.2 8.2 8.3 8.7 13.4.2 5.5 1.6 6.9 4 8.2.8.4 1.8.8 3 1a36.7 36.7 0 007.8 0c-.6-.6-1-1.1-1.3-1.7zM17.6 391h-2.1c-.5 0-.8-.3-.8-.8v-7.5c0-.5.3-.8.8-.8h8c.6 0 .9.3.9.7v7.5c0 .6-.3.9-.8.9h-6.1zM77.8 413.8v-38.6c0-2.7-1.5-4.2-4.2-4.2H48.8c-2.7 0-4.2 1.5-4.2 4.2v38.6c0 2.4 0 8-2.9 10 2.9.6 8 .8 10.8-.8 2.4-1.3 3.9-2.8 3.9-9.2V403c0-1 .4-1.5 1.3-1.5h6.9c1.3 0 1.3.7 1.3 1.5v10.8c0 6.4 1.4 7.9 3.9 9.2 2.7 1.5 8 1.4 10.7.9-2.7-2.1-2.7-7.7-2.7-10zM57.2 391c-.5 0-.8-.3-.8-.8v-7.5c0-.5.3-.8.8-.8h8c.5 0 .8.3.8.8v7.4c0 .6-.3.9-.8.9h-8zM114.9 372.2c-2.5 1.4-3.9 2.9-3.9 9.2v8.7c0 .5-.4.8-.9.8H99.5c-.5 0-.9-.3-.9-.8v-8.7c0-2.4 0-8 2.9-10-2.9-.5-8.1-.7-10.8.8-2.5 1.4-3.9 2.9-3.9 9.2v32.4c0 2.4 0 8-3 10 3 .6 8.1.8 10.8-.8 2.5-1.3 3.9-2.8 3.9-9.2v-11.5c0-.5.4-.8.9-.8H110c.5 0 .8.3.8.8v11.5c0 2.4 0 8-2.8 10 2.8.6 8 .8 10.7-.8 2.5-1.3 3.9-2.8 3.9-9.2v-32.4c0-2.4 0-8 3-10-2.9-.5-8-.7-10.8.8zM135.4 372.2c-2.5 1.4-4 2.9-4 9.2v32.4c0 2.4 0 8-2.8 10 2.9.6 8 .8 10.8-.8 2.5-1.3 4-2.8 4-9.2v-32.4c0-2.4 0-8 2.9-10-2.8-.5-8-.7-10.9.8zM171.9 371h-19c-1.5 0-3 .2-4.1.4 2.9 2.1 2.9 7.7 2.9 10v32.4c0 2.4 0 8-2.9 10 1.1.3 2.6.5 4.2.5h18.9c7.8 0 16.1-4.8 16.1-13.2v-27c0-8.3-8.3-13.1-16.1-13.1zm4.2 38c0 2.5-1.3 4.4-4.6 4.4h-7.2c-.4 0-.8-.3-.8-.8v-29.9c0-.5.4-.8.8-.8h7.1c3.3 0 4.7 1.5 4.7 4.3v22.9zM19 436.1l-.3-.2-.7-.4-.9-.3-1-.1c-.8 0-1.2.3-1.2.9l.1.4c0 .2.2.3.4.3.2.1.4.3.7.3l1 .3 1.4.5c.4.1.8.4 1.1.6.3.2.5.6.7 1 .2.3.2.7.2 1.2a3 3 0 01-.3 1.5c-.3.5-.5.8-1 1-.4.4-.8.5-1.3.6-.5.2-1 .2-1.5.2l-1.2-.1-1.2-.3-1.2-.4c-.3-.2-.7-.3-1-.6l1.1-2.1.4.2c.2.2.5.3.9.4l1 .4c.5.2.9.2 1.3.2.9 0 1.4-.3 1.4-.8 0-.2 0-.3-.2-.5l-.6-.4a3 3 0 00-.9-.2l-1-.3-1.3-.5a4 4 0 01-1-.6c-.3-.2-.4-.5-.5-.9l-.2-1c0-.6.1-1.1.4-1.5.2-.5.5-.8.8-1.1l1.3-.7a4.7 4.7 0 012.6-.2l1 .3 1 .4.8.4-1 2.1zM37.8 443.8v-6.5l-2.3 4.7h-1.3l-2.4-4.7v6.5h-2.6v-11H32l2.8 5.8 2.8-5.7h2.7v10.9h-2.5zM54.5 444c-.8 0-1.5-.3-2.2-.5-.7-.4-1.2-.8-1.7-1.3s-.9-1.1-1-1.8a5 5 0 01-.5-2c0-.7.1-1.4.4-2.1.3-.7.6-1.3 1.2-1.8.4-.5 1-1 1.7-1.2a5.5 5.5 0 014.4 0c.7.3 1.2.7 1.7 1.2.5.6.8 1.2 1.1 1.9.2.7.4 1.3.4 2s0 1.4-.4 2a5.2 5.2 0 01-2.9 3c-.7.3-1.4.5-2.2.5zm-2.8-5.6c0 .4 0 .8.2 1.2 0 .4.3.8.5 1 .2.3.5.6 1 .8.3.2.7.3 1.1.3.5 0 1-.1 1.3-.3.4-.2.6-.5.9-.8l.5-1a4.4 4.4 0 000-2.4c-.1-.4-.3-.8-.6-1a3 3 0 00-1-.8 2 2 0 00-1-.3 3 3 0 00-1.3.3c-.4.2-.7.5-.9.8a3 3 0 00-.5 1l-.2 1.2zM68.7 443.8v-11h2.5v4.8l4-4.7H78l-4 4.9 4.3 6h-2.9l-3-4.4-1.2 1.2v3.3h-2.5v-.1zM94 441.6v2.2h-7.6v-11H94v2.3h-5v2.1h4.3v2H89v2.4h5zM120.3 436.1l-.3-.2-.7-.4-1-.3-1-.1c-.9 0-1.3.3-1.3.9 0 .2 0 .3.2.4l.4.4.7.3 1 .3c.5 0 1 .3 1.4.4l1.1.7c.3.2.5.5.7.9.2.3.3.8.3 1.2a3 3 0 01-.4 1.6c-.2.4-.5.7-1 1-.3.3-.7.5-1.2.6a6.7 6.7 0 01-2.8 0l-1.2-.2-1.1-.4-1-.6 1-2.2.4.3.9.4 1.1.4 1.3.2c.8 0 1.3-.3 1.3-.8 0-.3 0-.4-.2-.5 0-.2-.3-.3-.6-.4a3 3 0 00-.8-.3 16.2 16.2 0 01-2.4-.8l-1-.6-.4-.8-.2-1.1c0-.6.1-1.1.3-1.5a4.5 4.5 0 013.7-2h1.1l1 .4 1 .4.8.4-1 2zM139.9 433v10.9h-2.6v-4.5H133v4.5h-2.5v-11h2.5v4.2h4.4V433h2.5zM154 444c-.8 0-1.5-.3-2.2-.5-.7-.4-1.2-.8-1.7-1.3s-.9-1.1-1-1.8a5 5 0 01-.5-2c0-.7.1-1.4.4-2.1.3-.7.6-1.3 1.2-1.8.4-.5 1-1 1.7-1.2a5.5 5.5 0 014.4 0 5.1 5.1 0 012.8 3c.2.7.4 1.4.4 2 0 .7-.1 1.4-.4 2.1a5.2 5.2 0 01-2.9 3c-.7.3-1.4.5-2.2.5zm-2.9-5.6l.2 1.2.5 1 1 .8c.3.2.7.3 1.2.3.4 0 .9-.1 1.2-.3l1-.8.4-1a4.3 4.3 0 000-2.4c0-.4-.3-.8-.5-1a3 3 0 00-1-.8c-.4-.2-.6-.3-1-.3a3 3 0 00-1.3.3c-.4.2-.7.5-.9.8a3 3 0 00-.5 1 3 3 0 00-.3 1.2zM168.2 443.8v-11h4.7c.5 0 1 .2 1.4.4a4.3 4.3 0 011.8 2 3.6 3.6 0 01.1 2.8c-.2.5-.4.9-.7 1.2a3 3 0 01-1 .8 3 3 0 01-1.5.3h-2.2v3.5h-2.6zm2.5-5.7h2.1c.3 0 .6-.1.8-.4.2-.2.3-.6.3-1l-.1-.7c0-.2-.2-.4-.3-.5a1 1 0 00-.4-.3h-2.4v3z"/>
  <path stroke="#000" d="M.5 649.5h155v69H.5z"/>
  <path fill="#E9AFA3" d="M0 820h69v70H0z"/>
  <path fill="#31302E" stroke="#000" d="M258.5 649.5h155v69h-155z"/>
  <path fill="#3A405A" d="M86 820h70v70H86z"/>
  <path fill="#8893CE" d="M0 734h414v70H0z"/>
  <path fill="#E2C391" d="M173 820h70v70h-70z"/>
  <path fill="#F6E27F" d="M259 820h70v70h-70z"/>
  <path fill="#80AE7E" d="M344 820h70v70h-70z"/>
  <path fill="#31302E" d="M18.6 707.4L15 700v7.9h-1v-9.1h1.4l3 6.5 3.1-6.5H23v9.1h-1v-8l-3.4 7.4zm11.8-.1a3.7 3.7 0 01-2.4.8c-.4 0-.8 0-1.2-.2A3.3 3.3 0 0125 706l-.2-1.3c0-.4 0-.9.2-1.3a3.1 3.1 0 011.6-1.7c.4-.2.8-.2 1.2-.2a2.7 2.7 0 012 .9l.7 1 .2 1.3v.2h-5c0 .7.3 1.2.7 1.6.5.5 1 .7 1.6.7.3 0 .6 0 1-.2l.7-.5.6.7zm-2.5-5c-.6 0-1 .3-1.4.6-.3.4-.6.9-.7 1.5h4c0-.6-.2-1-.6-1.5-.4-.3-.8-.5-1.3-.5zm4.5 5.7v-6.3h1v1.2c.1-.4.4-.7.7-1a1.7 1.7 0 011.3-.3h.3v.9h-.3l-.3-.1c-.4 0-.8 0-1 .3-.4.2-.6.6-.7 1v4.3h-1zm5-7.9c-.1 0-.3 0-.4-.2a.7.7 0 01-.2-.5c0-.2 0-.3.2-.5l.5-.2.4.2c.2.2.2.3.2.5s0 .4-.2.5l-.4.2zm.5 1.6v6.3h-1v-6.3h1zm2 6.3v-6.3h1v1c.2-.4.5-.7.8-.9.3-.2.7-.2 1.1-.2a2.2 2.2 0 012.3 2.3v4.1h-1v-3.8c0-.6 0-1-.4-1.4-.3-.3-.7-.5-1.2-.5a1.9 1.9 0 00-1.7 1v4.7h-1zm6.9-3.2a3.5 3.5 0 01.8-2.3 3 3 0 012.2-1 3 3 0 012.3 1l.6 1c.2.4.2.9.2 1.3a3.5 3.5 0 01-.9 2.4 3 3 0 01-2.2 1 3 3 0 01-1.2-.3A3.1 3.1 0 0147 706c-.2-.4-.2-.8-.2-1.3zm3 2.5a2 2 0 001.6-.7c.4-.5.6-1 .6-1.8 0-.7-.2-1.2-.6-1.7a2 2 0 00-1.6-.7 2 2 0 00-1.5.7c-.4.5-.6 1-.6 1.7s.2 1.3.6 1.8c.4.5 1 .7 1.5.7zM14.2 878v-9.1h3.7a3 3 0 012.1.7c.5.5.8 1.2.8 2s-.3 1.4-.8 2a3 3 0 01-2 .7h-2.8v3.7h-1zm3.6-8.2h-2.6v3.6h2.6a2 2 0 001.5-.5c.3-.3.5-.7.5-1.3 0-.6-.2-1-.5-1.3a2 2 0 00-1.5-.5zm6.3 8.3c-.6 0-1.2-.2-1.6-.5-.4-.4-.7-.8-.7-1.4 0-.6.3-1 .7-1.4.4-.3 1-.5 1.7-.5a4 4 0 012 .5v-.9c0-.5-.2-.9-.5-1.2-.2-.2-.6-.4-1.2-.4-.3 0-.6 0-.9.2-.3 0-.6.2-1 .4l-.4-.7a6.3 6.3 0 012.4-.6c.8 0 1.4.1 1.8.5.5.4.7 1 .7 1.7v4.2h-1v-.7c-.2.2-.5.5-.9.6l-1 .2zm-1.4-2c0 .4.2.7.5 1 .3.2.7.3 1.1.3a2.5 2.5 0 001.9-.7v-1.3l-.9-.3-1-.1a2 2 0 00-1.1.3 1 1 0 00-.5.9zm5.7 1l.5-.5 1 .6 1 .1a2 2 0 001.2-.3c.3-.2.5-.5.5-.8 0-.3-.1-.5-.3-.6a2 2 0 00-.9-.3l-1-.2c-.6-.1-1.1-.3-1.4-.6-.3-.3-.4-.6-.4-1 0-.6.2-1 .6-1.4.4-.4 1-.5 1.7-.5l1.2.1 1.2.6-.5.7a3.6 3.6 0 00-2-.7c-.4 0-.7.1-1 .3-.2.2-.4.4-.4.7 0 .3.1.5.3.6.1.2.4.3.8.4l1.1.2c.6 0 1.1.3 1.4.5.3.3.5.7.5 1.2s-.3 1-.8 1.3c-.4.4-1 .6-1.7.6-.5 0-1 0-1.5-.2-.4-.2-.8-.4-1-.7zm7.1-.5v-4.2h-1.3v-.7h1.3v-1.8l1-.2v2h1.8v.7h-1.8v4c0 .3 0 .5.2.7l.7.2a2.3 2.3 0 00.9-.2v.8l-.6.2h-.5c-.6 0-1-.1-1.3-.4-.2-.2-.4-.6-.4-1.1zm9.3.7a3.7 3.7 0 01-2.4.8c-.5 0-.9 0-1.3-.2a3.3 3.3 0 01-1.6-1.8c-.2-.4-.3-.8-.3-1.3 0-.4.1-.9.3-1.3a3.1 3.1 0 011.6-1.7c.3-.2.7-.2 1.1-.2a2.7 2.7 0 012.1.9c.3.3.5.6.6 1 .2.4.2.8.2 1.3v.2h-5c.1.7.3 1.2.8 1.6.4.5 1 .7 1.5.7.4 0 .7 0 1-.2l.8-.5.6.7zm-2.6-5c-.5 0-1 .3-1.3.6-.4.4-.6.9-.7 1.5h4c0-.6-.3-1-.7-1.5-.3-.3-.8-.5-1.3-.5zm5.5-3.8v9.5h-1v-9.3l1-.2z"/>
  <path fill="#FFFDFA" d="M269.4 699.8v-.9h7.2v.9h-3v8.2h-1v-8.2h-3.2zm9 1.9v3.8c0 .5.2 1 .5 1.3.3.3.7.5 1.2.5a1.9 1.9 0 001.7-1v-4.6h1v6.3h-1v-1l-.9.8c-.3.2-.7.3-1.1.3-.7 0-1.3-.2-1.7-.6-.4-.5-.6-1-.6-1.7v-4.1h1zm8.2 6.4c-.7 0-1.2-.2-1.6-.5-.5-.4-.7-.8-.7-1.4 0-.6.2-1 .7-1.4.4-.3 1-.5 1.7-.5a3.9 3.9 0 012 .5v-.9c0-.5-.2-.9-.5-1.2-.3-.2-.7-.4-1.2-.4-.3 0-.6 0-1 .2l-1 .4-.3-.7a6.4 6.4 0 012.4-.6c.8 0 1.4.1 1.8.5.5.4.7 1 .7 1.7v4.2h-1v-.7c-.2.2-.5.5-.9.6l-1 .2zm-1.4-2c0 .4.2.7.5 1 .3.2.7.3 1.1.3a2.5 2.5 0 001.8-.7v-1.3a3.7 3.7 0 00-1.8-.5 2 2 0 00-1.1.4 1 1 0 00-.5.9zm6.9.5v-4.2h-1.3v-.7h1.3v-1.8l1-.2v2h1.7v.7H293v4c0 .3 0 .5.2.7l.7.2a2.3 2.3 0 001-.2v.8l-.6.2h-.6c-.5 0-1-.1-1.2-.4-.3-.2-.4-.6-.4-1.1zm6 1.5c-.6 0-1.1-.2-1.6-.5-.4-.4-.6-.8-.6-1.4 0-.6.2-1 .6-1.4.5-.3 1-.5 1.8-.5a4 4 0 012 .5v-.9c0-.5-.2-.9-.5-1.2-.3-.2-.7-.4-1.2-.4-.3 0-.6 0-1 .2l-1 .4-.3-.7a6.3 6.3 0 012.4-.6c.8 0 1.4.1 1.8.5.4.4.6 1 .6 1.7v4.2h-.9v-.7c-.3.2-.6.5-1 .6l-1 .2zm-1.3-2c0 .4.1.7.4 1 .3.2.7.3 1.2.3a2.5 2.5 0 001.8-.7v-1.3l-.8-.3-1-.1a2 2 0 00-1.2.3 1 1 0 00-.4.9zm6.3 1.9v-6.3h1v1.2c0-.4.3-.7.6-1a1.7 1.7 0 011.4-.3h.3v.9h-.4l-.3-.1c-.4 0-.7 0-1 .3-.3.2-.5.6-.7 1v4.3h-1zm6.2.1c-.7 0-1.2-.2-1.7-.5-.4-.4-.6-.8-.6-1.4 0-.6.2-1 .7-1.4.4-.3 1-.5 1.7-.5a4 4 0 012 .5v-.9c0-.5-.2-.9-.5-1.2-.3-.2-.7-.4-1.2-.4-.3 0-.6 0-1 .2l-1 .4-.3-.7a6.3 6.3 0 012.4-.6c.8 0 1.4.1 1.8.5.4.4.7 1 .7 1.7v4.2h-1v-.7l-.9.6-1 .2zm-1.4-2c0 .4.2.7.5 1 .3.2.6.3 1.1.3a2.5 2.5 0 001.8-.7v-1.3l-.8-.3-1-.1a2 2 0 00-1.1.3 1 1 0 00-.5.9zM103.2 878v-9.1h3.7a3 3 0 012.1.7c.5.5.8 1.2.8 2s-.3 1.4-.8 2a3 3 0 01-2 .7h-2.8v3.7h-1zm3.6-8.2h-2.6v3.6h2.6a2 2 0 001.5-.5c.3-.3.5-.7.5-1.3 0-.6-.2-1-.5-1.3a2 2 0 00-1.5-.5zm9.5 7.5a3.7 3.7 0 01-2.4.8c-.4 0-.8 0-1.2-.2a3.3 3.3 0 01-1.7-1.8l-.2-1.3c0-.4 0-.9.2-1.3a3.1 3.1 0 011.6-1.7c.4-.2.8-.2 1.2-.2a2.7 2.7 0 012 .9l.7 1 .2 1.3v.2h-5c0 .7.3 1.2.8 1.6.4.5.9.7 1.5.7.3 0 .6 0 1-.2l.7-.5.6.7zm-2.5-5c-.5 0-1 .3-1.3.6-.4.4-.7.9-.7 1.5h4c0-.6-.3-1-.7-1.5-.3-.3-.8-.5-1.3-.5zm4.5 5.7v-6.3h1v1.2l.7-1a1.7 1.7 0 011.4-.3h.3v.9h-.4l-.3-.1c-.4 0-.7 0-1 .3-.3.2-.5.6-.7 1v4.3h-1zm4-.8l.4-.6 1 .6 1 .1a2 2 0 001.2-.3c.3-.2.5-.5.5-.8 0-.3-.1-.5-.3-.6a2 2 0 00-.9-.3l-1-.2c-.6-.1-1-.3-1.4-.6-.3-.3-.4-.6-.4-1 0-.6.2-1 .6-1.4.5-.4 1-.5 1.7-.5l1.2.1 1.2.6-.5.7a3.6 3.6 0 00-2-.7c-.4 0-.7.1-1 .3-.2.2-.3.4-.3.7 0 .3 0 .5.2.6.2.2.4.3.9.4l1 .2c.6 0 1.1.3 1.4.5.3.3.5.7.5 1.2s-.3 1-.8 1.3c-.4.4-1 .6-1.7.6-.5 0-1 0-1.5-.2-.4-.2-.8-.4-1-.7zm8.4 1c-.6 0-1.2-.3-1.6-.6-.5-.4-.7-.8-.7-1.4 0-.6.3-1 .7-1.4.4-.3 1-.5 1.7-.5a4 4 0 012 .5v-.9c0-.5-.2-.9-.5-1.2-.2-.2-.7-.4-1.2-.4-.3 0-.6 0-.9.2-.3 0-.6.2-1 .4l-.4-.7a6.3 6.3 0 012.4-.6c.8 0 1.4.1 1.8.5.5.4.7 1 .7 1.7v4.2h-1v-.7c-.2.2-.5.5-.9.6l-1 .2zm-1.4-2c0 .3.2.6.5.9.3.2.7.3 1.1.3a2.5 2.5 0 001.8-.7v-1.3l-.8-.3-1-.1a2 2 0 00-1.1.3 1 1 0 00-.5.9z"/>
  <path fill="#31302E" d="M14.2 793v-9.1h3.7a3 3 0 012.1.7c.5.5.8 1.2.8 2s-.3 1.4-.8 2a3 3 0 01-2 .7h-2.8v3.7h-1zm3.6-8.2h-2.6v3.6h2.6a2 2 0 001.5-.5c.3-.3.5-.7.5-1.3 0-.6-.2-1-.5-1.3a2 2 0 00-1.5-.5zm4 5a3.5 3.5 0 01.9-2.3 3 3 0 012.2-1 3 3 0 012.2 1l.7 1 .2 1.3a3.5 3.5 0 01-1 2.4 3 3 0 01-2.2 1 3 3 0 01-1.1-.3A3.1 3.1 0 0122 791l-.2-1.3zm3 2.5a2 2 0 001.6-.7c.4-.5.7-1 .7-1.8 0-.7-.3-1.2-.7-1.7a2 2 0 00-1.5-.7 2 2 0 00-1.5.7c-.4.5-.6 1-.6 1.7s.2 1.3.6 1.8c.4.5.9.7 1.5.7zm5.8-8.8v9.5h-1v-9.3l1-.2zm1.7 6.3a3.5 3.5 0 01.8-2.3 3 3 0 012.2-1 3 3 0 012.3 1l.6 1c.2.4.2.9.2 1.3a3.5 3.5 0 01-.9 2.4 3 3 0 01-2.2 1 3 3 0 01-1.2-.3 3.1 3.1 0 01-1.6-1.8c-.2-.4-.2-.8-.2-1.3zm3 2.5a2 2 0 001.6-.7c.4-.5.6-1 .6-1.8 0-.7-.2-1.2-.6-1.7a2 2 0 00-1.6-.7 2 2 0 00-1.5.7c-.4.5-.6 1-.6 1.7s.2 1.3.6 1.8c.4.5 1 .7 1.5.7zM190.4 877.2a3.7 3.7 0 002.7-1.2l.7.6a4.6 4.6 0 01-6.7.2 4.8 4.8 0 01-1.3-3.3 4.8 4.8 0 011.3-3.4 4.6 4.6 0 013.3-1.3 4.7 4.7 0 013.4 1.5l-.7.6c-.3-.4-.7-.7-1.2-.9a3.6 3.6 0 00-3 0c-.4.2-.8.4-1.1.8a3.8 3.8 0 00-1 2.7c0 .5 0 1 .2 1.4.2.5.5.9.8 1.2.3.4.7.6 1.1.8l1.5.3zm7 1c-.7 0-1.3-.3-1.7-.6-.4-.4-.6-.8-.6-1.4 0-.6.2-1 .6-1.4.5-.3 1-.5 1.7-.5a4 4 0 012 .5v-.9c0-.5-.2-.9-.4-1.2-.3-.2-.7-.4-1.3-.4-.2 0-.5 0-.9.2-.3 0-.6.2-1 .4l-.3-.7a6.3 6.3 0 012.4-.6c.7 0 1.3.1 1.8.5.4.4.6 1 .6 1.7v4.2h-1v-.7c-.2.2-.5.5-.8.6l-1.1.2zm-1.4-2c0 .3.1.6.4.9.3.2.7.3 1.2.3a2.5 2.5 0 001.8-.7v-1.3l-.8-.3-1-.1a2 2 0 00-1.2.3 1 1 0 00-.4.9zm7.2-7.7v9.5h-1v-9.3l1-.2zm2.4 1.6c-.2 0-.3 0-.5-.2a.7.7 0 01-.2-.5l.2-.5.5-.2.5.2.2.5c0 .2 0 .4-.2.5l-.5.2zm.5 1.6v6.3h-1v-6.3h1zm4.8 5.6a2.4 2.4 0 001.8-.8l.6.6c-.3.3-.7.6-1.1.7a3.2 3.2 0 01-2.5 0 3.1 3.1 0 01-1.7-1.7c-.2-.4-.2-.8-.2-1.3 0-.4 0-.9.2-1.3l.7-1a3 3 0 012.2-1 3.5 3.5 0 012.4 1l-.6.7-.8-.6-1-.2a2.1 2.1 0 00-1.6.7l-.4.8-.2 1c0 .6.2 1.2.7 1.7.4.4 1 .7 1.5.7zm3.3-2.5a3.5 3.5 0 01.8-2.3 3 3 0 012.3-1 3 3 0 012.2 1c.2.3.5.6.6 1 .2.4.3.9.3 1.3a3.5 3.5 0 01-1 2.4 3 3 0 01-3.4.7 3.2 3.2 0 01-1.6-1.8l-.2-1.3zm3 2.5a2 2 0 001.6-.7c.4-.5.6-1 .6-1.8 0-.7-.2-1.2-.6-1.7a2 2 0 00-1.5-.7 2 2 0 00-1.6.7c-.4.5-.6 1-.6 1.7s.2 1.3.6 1.8c.4.5 1 .7 1.6.7zm.9-8.5h1.3l-1.9 1.6h-.9l1.5-1.6zM272.1 878l3.6-9.1h1.2l3.6 9.1h-1.1l-1-2.9h-4.2l-1 2.9h-1zm2.5-3.7h3.4l-1.7-4.5-1.7 4.5zm7 3.7v-6.3h1v1.2c0-.4.3-.7.6-1a1.7 1.7 0 011.4-.3h.3v.9h-.4l-.3-.1c-.4 0-.7 0-1 .3-.3.2-.5.6-.7 1v4.3h-1zm9.4-.7a3.7 3.7 0 01-2.4.8c-.5 0-.9 0-1.3-.2a3.3 3.3 0 01-1.6-1.8c-.2-.4-.3-.8-.3-1.3 0-.4.1-.9.3-1.3a3.1 3.1 0 011.5-1.7c.4-.2.8-.2 1.2-.2a2.7 2.7 0 012.1.9c.3.3.5.6.6 1 .2.4.2.8.2 1.3v.2h-5c.1.7.3 1.2.8 1.6.4.5 1 .7 1.5.7.3 0 .7 0 1-.2l.8-.5.6.7zm-2.6-5c-.5 0-1 .3-1.3.6-.4.4-.6.9-.7 1.5h4c0-.6-.3-1-.7-1.5-.3-.3-.8-.5-1.3-.5zm4.6 5.7v-6.3h1v1c.1-.4.4-.7.8-.9.3-.2.7-.2 1.1-.2a2.2 2.2 0 012.3 2.3v4.1h-1v-3.8c0-.6 0-1-.4-1.4-.3-.3-.7-.5-1.2-.5a1.9 1.9 0 00-1.7 1v4.7h-1zm9 .1c-.6 0-1.1-.2-1.6-.5-.4-.4-.6-.8-.6-1.4 0-.6.2-1 .6-1.4.5-.3 1-.5 1.8-.5a3.9 3.9 0 012 .5v-.9c0-.5-.2-.9-.5-1.2-.3-.2-.7-.4-1.2-.4-.3 0-.6 0-1 .2l-1 .4-.3-.7a6.4 6.4 0 012.4-.6c.8 0 1.4.1 1.8.5.4.4.6 1 .6 1.7v4.2h-.9v-.7c-.3.2-.6.5-1 .6l-1 .2zm-1.3-2c0 .4.2.7.4 1 .3.2.7.3 1.2.3a2.5 2.5 0 001.8-.7v-1.3a3.7 3.7 0 00-1.8-.5 2 2 0 00-1.2.4 1 1 0 00-.4.9zM357.2 868.9h3.6a3 3 0 012 .6c.5.5.8 1 .8 1.7 0 .5-.2 1-.5 1.3-.2.4-.6.6-1.1.8.6.1 1 .4 1.4.8.4.4.5.8.5 1.4 0 .7-.2 1.3-.8 1.8-.5.5-1.2.7-2.1.7h-3.8v-9.1zm3.6.9h-2.6v3h2.6c.5 0 1 0 1.3-.4.3-.2.5-.6.5-1 0-.5-.2-1-.5-1.2a2 2 0 00-1.3-.4zm0 7.3c.7 0 1.2-.1 1.6-.4.3-.3.5-.8.5-1.3s-.2-1-.5-1.2c-.4-.3-.9-.5-1.5-.5h-2.7v3.4h2.7zm6.8 1c-.6 0-1.2-.2-1.6-.5-.5-.4-.7-.8-.7-1.4 0-.6.3-1 .7-1.4.4-.3 1-.5 1.7-.5a3.9 3.9 0 012 .5v-.9c0-.5-.2-.9-.5-1.2-.2-.2-.7-.4-1.2-.4-.3 0-.6 0-.9.2-.3 0-.6.2-1 .4l-.4-.7a6.4 6.4 0 012.4-.6c.8 0 1.4.1 1.8.5.5.4.7 1 .7 1.7v4.2h-1v-.7c-.2.2-.5.5-.9.6l-1 .2zm-1.4-2c0 .4.2.7.5 1 .3.2.7.3 1.1.3a2.5 2.5 0 001.8-.7v-1.3a3.7 3.7 0 00-1.8-.5 2 2 0 00-1.1.4 1 1 0 00-.5.9zm6.3 1.9v-9.3l1-.2v4.2c.2-.4.5-.7.8-.9.4-.2.8-.2 1.2-.2a2.2 2.2 0 012.3 2.3v4.1h-1v-3.8c0-.6-.1-1-.4-1.4-.3-.3-.8-.5-1.3-.5a1.9 1.9 0 00-1.6 1v4.7h-1zm8.1-6.3v6.3h-1v-6.3h1zm.4-2.9h1.3l-1.9 1.6h-.9l1.5-1.6zm3.5 9.3c-.6 0-1.2-.2-1.6-.5-.4-.4-.7-.8-.7-1.4 0-.6.3-1 .7-1.4.4-.3 1-.5 1.7-.5a3.9 3.9 0 012 .5v-.9c0-.5-.2-.9-.5-1.2-.2-.2-.6-.4-1.2-.4-.3 0-.6 0-.9.2-.3 0-.6.2-1 .4l-.4-.7a6.4 6.4 0 012.4-.6c.8 0 1.4.1 1.8.5.5.4.7 1 .7 1.7v4.2h-1v-.7c-.2.2-.5.5-.9.6l-1 .2zm-1.3-2c0 .4.1.7.4 1 .3.2.7.3 1.1.3a2.5 2.5 0 001.9-.7v-1.3a3.7 3.7 0 00-1.8-.5 2 2 0 00-1.2.4 1 1 0 00-.4.9zM514.8 800v-15.4h6.9c1.5 0 2.7.4 3.7 1.3s1.4 2 1.4 3.4c0 1-.2 1.8-.8 2.6-.5.7-1.3 1.3-2.2 1.6l3.2 6.5h-2.9l-3-6.2h-3.6v6.2h-2.7zm6.7-13.2h-4v5h4c.8 0 1.4-.3 2-.7.4-.5.7-1 .7-1.8 0-.7-.3-1.3-.8-1.8s-1.1-.7-2-.7zM538.2 798.6a6.4 6.4 0 01-6.6 1.2 5.4 5.4 0 01-2.9-3c-.3-.8-.4-1.5-.4-2.3 0-.8 0-1.6.4-2.2.2-.7.6-1.3 1-1.8a5.3 5.3 0 016-1.3 5.3 5.3 0 012.8 3c.2.7.3 1.5.3 2.3v.6h-8.1c.1.9.5 1.6 1.1 2.1.6.6 1.4 1 2.2 1 .5 0 1-.2 1.5-.4.4-.1.8-.4 1.1-.7l1.6 1.5zm-4.6-7.8c-.7 0-1.4.3-1.9.8s-.8 1.1-1 2h5.8c-.2-.8-.5-1.5-1-2s-1.2-.8-1.9-.8zM549.3 800v-1.5c-.4.5-.9 1-1.5 1.2-.5.3-1.2.4-1.9.4s-1.3-.1-2-.4a5.1 5.1 0 01-2.6-3 6.4 6.4 0 010-4.4c.3-.7.7-1.3 1.1-1.8.5-.5 1-.9 1.7-1.2.6-.3 1.3-.4 2-.4a4 4 0 011.7.4c.6.2 1 .6 1.5 1v-6l2.5-.4V800h-2.5zm-5.9-5.5c0 1 .3 1.8 1 2.5a3 3 0 002.3 1 3.4 3.4 0 002.6-1.2v-4.6c-.3-.4-.7-.7-1.2-.9-.4-.2-1-.3-1.4-.3a3 3 0 00-2.4 1c-.6.7-.9 1.5-.9 2.5zM560 800v-15.4h2.6v6.5h7.7v-6.5h2.6V800h-2.6v-6.6h-7.7v6.6H560zM579.4 800.2c-1.2 0-2.1-.3-2.9-1a3 3 0 01-1-2.4c0-1 .3-1.7 1-2.3a5 5 0 013.2-.9c.5 0 1 0 1.5.2.4 0 1 .2 1.4.5V793c0-.7-.2-1.3-.6-1.7-.4-.3-1-.5-1.9-.5-.5 0-1 0-1.5.2l-1.7.6-.9-1.8a12.3 12.3 0 014.6-1.1c1.4 0 2.5.4 3.3 1 .8.7 1.2 1.7 1.2 3v7.2h-2.5v-1.1a5 5 0 01-1.5 1c-.5.2-1.1.3-1.7.3zm-1.6-3.4c0 .5.2.9.6 1.2.4.3 1 .4 1.6.4.5 0 1 0 1.4-.2.5-.1.9-.4 1.2-.7v-1.8l-1.2-.4-1.3-.1c-.7 0-1.3.2-1.7.4-.4.3-.6.7-.6 1.2zM589.1 797.1V791H587v-2h2.2v-3l2.5-.6v3.6h3.1v2h-3v5.5c0 .6 0 1 .3 1.2.2.2.6.3 1.2.3h.7l.8-.2v2l-1.1.3a7 7 0 01-1 0c-1.2 0-2-.2-2.6-.7-.6-.5-.9-1.3-.9-2.3zM600.8 786.9v-2.3h13v2.3h-5.1V800H606v-13.1h-5.2zM623 798.6c-.7.5-1.3 1-2 1.2a6.4 6.4 0 01-4.6 0 5.4 5.4 0 01-3-3c-.2-.8-.4-1.5-.4-2.3 0-.8.2-1.6.4-2.2.3-.7.7-1.3 1.2-1.8a5.3 5.3 0 015.9-1.3 5.3 5.3 0 012.8 3c.2.7.3 1.5.3 2.3v.6h-8.1c0 .9.5 1.6 1 2.1.7.6 1.4 1 2.3 1 .5 0 1-.2 1.4-.4.5-.1.9-.4 1.2-.7l1.6 1.5zm-4.6-7.8c-.8 0-1.4.3-1.9.8s-.8 1.1-1 2h5.8c-.2-.8-.5-1.5-1-2-.6-.5-1.2-.8-2-.8zM624.1 800l4.2-5.6-4-5.4h2.9l2.5 3.6 2.6-3.6h2.8l-4 5.3 4.3 5.7h-3l-2.7-3.9-2.8 3.9h-2.8zM638.3 797.1V791h-2.2v-2h2.2v-3l2.5-.6v3.6h3v2h-3v5.5c0 .6.1 1 .4 1.2.2.2.6.3 1.1.3h.7l.8-.2v2c-.3.2-.6.2-1 .3a7 7 0 01-1 0c-1.2 0-2-.2-2.6-.7-.6-.5-.9-1.3-.9-2.3zM659.2 798.9l-5.4-11V800h-2.5v-15.4h3.4l4.6 9.3 4.4-9.3h3.5V800h-2.5v-12l-5.5 10.9zM680 798.6a6.4 6.4 0 01-6.6 1.2 5.4 5.4 0 01-2.9-3c-.3-.8-.4-1.5-.4-2.3 0-.8.1-1.6.4-2.2.3-.7.6-1.3 1-1.8a5.3 5.3 0 016-1.3 5.3 5.3 0 012.8 3c.2.7.4 1.5.4 2.3v.6h-8.2c.1.9.5 1.6 1.1 2.1.6.6 1.4 1 2.2 1 .5 0 1-.2 1.5-.4.4-.1.8-.4 1.1-.7l1.7 1.5zm-4.6-7.8c-.7 0-1.3.3-1.8.8-.6.5-.9 1.1-1 2h5.7c-.1-.8-.5-1.5-1-2s-1.1-.8-1.9-.8zM691.1 800v-1.5c-.3.5-.8 1-1.4 1.2-.6.3-1.3.4-2 .4-.6 0-1.3-.1-2-.4a5.1 5.1 0 01-2.6-3 6.4 6.4 0 010-4.4c.3-.7.7-1.3 1.1-1.8.5-.5 1-.9 1.7-1.2.6-.3 1.3-.4 2-.4a4 4 0 011.8.4c.5.2 1 .6 1.4 1v-6l2.5-.4V800h-2.5zm-5.9-5.5c0 1 .3 1.8 1 2.5a3 3 0 002.3 1 3.4 3.4 0 002.6-1.2v-4.6c-.3-.4-.7-.7-1.2-.9a3.3 3.3 0 00-3.8.7c-.6.7-.9 1.5-.9 2.5zM698 786.7c-.5 0-.9-.1-1.2-.4a1.5 1.5 0 010-2.2c.3-.3.7-.4 1.1-.4.4 0 .8.1 1.1.4.3.3.5.7.5 1.1 0 .4-.2.8-.5 1-.3.4-.6.5-1 .5zm1.2 2.3v11h-2.5v-11h2.5zM704.6 789v6.5c0 .8.3 1.5.7 2 .4.4 1 .7 1.8.7.5 0 1-.1 1.3-.4.4-.2.8-.5 1-1V789h2.6v11h-2.5v-1.8c-.4.6-1 1.1-1.5 1.5a4 4 0 01-2 .5c-1.1 0-2-.4-2.8-1.1a4 4 0 01-1-2.9V789h2.4zM715 800v-11h2.5v1.7c.4-.6 1-1 1.4-1.4.6-.3 1.2-.5 1.9-.5s1.4.2 2 .6c.5.4 1 .9 1.2 1.5.4-.7 1-1.2 1.6-1.5.6-.4 1.3-.6 2-.6 1.1 0 2 .4 2.7 1.1.7.8 1 1.7 1 3v7.1h-2.5v-6.7c0-.7-.2-1.3-.6-1.8a2 2 0 00-1.6-.7c-.5 0-.9.1-1.3.3l-1 1v.4l.1.3v7.2h-2.5v-6.7c0-.7-.2-1.3-.6-1.8a2 2 0 00-1.6-.7l-1.2.3c-.4.2-.7.5-1 1v7.9H715zM516 733v-83.4h37c8.3 0 15 2.3 20.1 7a23.3 23.3 0 017.9 18.2 24.1 24.1 0 01-16.5 22.9l17.6 35.3h-15.9l-16-33.4h-19.9V733H516zm35.9-71.4h-21.6v26.6H552c4.4 0 7.9-1.2 10.6-3.6 2.7-2.5 4-5.7 4-9.7 0-4-1.3-7.1-4-9.6a15.1 15.1 0 00-10.6-3.7zM594.4 733v-59.7H608v13c1.6-4.6 3.8-8 6.6-10.4a14.7 14.7 0 0115.7-2.5v11.8a20.6 20.6 0 00-7.4-1.4c-3.2 0-6 .8-8.7 2.6a18 18 0 00-6.2 7.3V733h-13.5zM514.5 832v-11.5h4.7c1.1 0 2 .3 2.7.9a3 3 0 011 2.4 3.3 3.3 0 01-2.4 3.1l2.4 5.1h-1.4l-2.3-5h-3.5v5h-1.2zm4.6-10.4h-3.4v4.4h3.4c.8 0 1.4-.2 1.8-.6.5-.4.7-1 .7-1.6a2 2 0 00-.7-1.6c-.4-.4-1-.6-1.8-.6zM531.2 831a4.7 4.7 0 01-3 1 4 4 0 01-1.7-.2 4.3 4.3 0 01-2.4-3.9l.3-1.6a4 4 0 012-2.2l1.5-.3a3.4 3.4 0 012.7 1.2c.3.3.6.8.7 1.3.2.5.3 1 .3 1.6v.3h-6.3a3 3 0 001 2c.5.6 1.1.9 1.9.9.4 0 .8 0 1.2-.2l1-.6.8.8zm-3.3-6.1c-.6 0-1.2.2-1.7.7-.5.4-.7 1-.9 1.8h5.1a3 3 0 00-.8-1.8c-.5-.5-1-.7-1.7-.7zM539.6 832v-1a3.2 3.2 0 01-2.5 1.1 3.5 3.5 0 01-2.7-1.2 4.4 4.4 0 01-1-3c0-.5 0-1 .2-1.5a4 4 0 012-2.2 3.4 3.4 0 014 .8v-4.8l1.2-.2v12h-1.2zm-5-4c0 .9.2 1.6.7 2.2.6.6 1.2.9 2 .9.5 0 1-.1 1.4-.3l1-.8v-4l-1-.8a2.8 2.8 0 00-3.4.6c-.5.6-.8 1.3-.8 2.2zM547.4 832v-11.5h1.2v5.1h6.7v-5.1h1.2V832h-1.2v-5.2h-6.7v5.2h-1.2zM561.6 832.1c-.9 0-1.6-.2-2.2-.6-.5-.5-.8-1-.8-1.8 0-.7.3-1.3.9-1.7.5-.5 1.3-.7 2.2-.7a5 5 0 012.4.6v-1c0-.7-.2-1.2-.5-1.6-.4-.3-.9-.5-1.6-.5-.3 0-.7 0-1.1.2l-1.3.5-.5-1a8 8 0 013-.7c1 0 1.8.3 2.4.8.5.4.8 1.1.8 2v5.4h-1.2v-1c-.3.4-.7.7-1.2.9-.4.2-.8.2-1.3.2zm-1.8-2.4c0 .4.2.8.6 1 .3.4.8.5 1.4.5a3.2 3.2 0 002.3-.9v-1.6a4.6 4.6 0 00-2.3-.6c-.6 0-1 .2-1.4.5-.4.3-.6.6-.6 1zM568.5 830.2v-5.3h-1.7v-1h1.7v-2.2l1.2-.2v2.4h2.3v1h-2.3v5c0 .4 0 .7.2.9.2.2.5.3 1 .3a2.9 2.9 0 001-.2v1l-.6.2h-.7c-.7 0-1.2-.1-1.6-.4-.4-.4-.5-.9-.5-1.5zM576.8 821.6v-1.1h9.3v1h-4V832h-1.3v-10.4h-4zM592.8 831a4.7 4.7 0 01-3 1 4 4 0 01-1.7-.2 4.3 4.3 0 01-2.4-3.9l.3-1.6a4 4 0 012-2.2l1.5-.3a3.4 3.4 0 012.7 1.2l.8 1.3.2 1.6v.3H587a3 3 0 001 2c.5.6 1.1.9 1.9.9.4 0 .8 0 1.2-.2l1-.6.8.8zm-3.3-6.1c-.6 0-1.2.2-1.7.7-.5.4-.7 1-.9 1.8h5.1a3 3 0 00-.8-1.8c-.5-.5-1-.7-1.7-.7zM593.7 832l3.1-4.1-2.9-4h1.4l2.3 3.1 2.2-3h1.3l-2.9 3.8 3.2 4.2h-1.5l-2.4-3.3-2.4 3.3h-1.4zM603.6 830.2v-5.3H602v-1h1.7v-2.2l1.2-.2v2.4h2.3v1h-2.3v5c0 .4.1.7.3.9.2.2.5.3.9.3a2.9 2.9 0 001.1-.2v1l-.7.2h-.7c-.7 0-1.2-.1-1.6-.4-.3-.4-.5-.9-.5-1.5zM613 832v-11.5h4.7c1.1 0 2 .3 2.7.9a3 3 0 011 2.4 3.3 3.3 0 01-2.4 3.1l2.4 5.1H620l-2.3-5h-3.5v5H613zm4.6-10.4h-3.4v4.4h3.4c.8 0 1.4-.2 1.8-.6.5-.4.7-1 .7-1.6a2 2 0 00-.7-1.6c-.4-.4-1-.6-1.8-.6zM629.7 831a4.7 4.7 0 01-3 1 4 4 0 01-1.7-.2 4.1 4.1 0 01-2-2.2c-.3-.5-.4-1-.4-1.6 0-.6.1-1.2.3-1.7a4 4 0 012-2.2l1.5-.3a3.5 3.5 0 012.7 1.2l.8 1.3.2 1.6v.3h-6.3a3 3 0 001 2c.5.6 1.1.9 1.9.9.4 0 .8 0 1.2-.2l1-.6.8.8zm-3.3-6.1c-.6 0-1.2.2-1.7.7-.5.4-.7 1-.9 1.8h5.1a3 3 0 00-.8-1.8c-.5-.5-1-.7-1.7-.7zM635.6 832.1a3.5 3.5 0 01-2.7-1.2 4.4 4.4 0 01-1-3c0-.5 0-1 .2-1.5a4 4 0 012-2.2 3.4 3.4 0 014 .8v-1h1.2v8.4a3 3 0 01-.9 2.3c-.5.5-1.4.8-2.5.8-.5 0-1 0-1.6-.2l-1.5-.6.5-1 1.4.6 1.2.2c.7 0 1.3-.2 1.6-.5.4-.4.6-.9.6-1.6V831a3.2 3.2 0 01-2.5 1.2zM633 828c0 .9.3 1.6.8 2.2.6.6 1.2.9 2 .9.5 0 1-.1 1.4-.3l1-.8v-4l-1-.8c-.5-.2-.9-.3-1.4-.3-.8 0-1.4.3-2 .9-.5.6-.8 1.3-.8 2.2zM643 824v4.8c0 .7.2 1.3.6 1.7.3.4.9.6 1.5.6a2.4 2.4 0 002.1-1.2v-6h1.2v8.1h-1.2v-1.3c-.3.5-.6.8-1 1-.5.3-1 .4-1.5.4-.9 0-1.6-.2-2.1-.8a3 3 0 01-.8-2.2V824h1.2zM652.1 820v12H651v-11.8l1.2-.2zM657 832.1c-.8 0-1.5-.2-2-.6-.6-.5-.8-1-.8-1.8 0-.7.2-1.3.8-1.7.5-.5 1.3-.7 2.2-.7a5 5 0 012.4.6v-1c0-.7-.1-1.2-.5-1.6-.3-.3-.9-.5-1.5-.5-.4 0-.8 0-1.2.2l-1.3.5-.4-1a8 8 0 013-.7c1 0 1.8.3 2.3.8.5.4.8 1.1.8 2v5.4h-1.2v-1c-.3.4-.7.7-1.1.9-.5.2-1 .2-1.4.2zm-1.7-2.4c0 .4.2.8.6 1 .3.4.8.5 1.4.5a3.2 3.2 0 002.3-.9v-1.6a4.6 4.6 0 00-2.3-.6c-.6 0-1 .2-1.4.5-.4.3-.6.6-.6 1zM663.3 832v-8h1.2v1.6c.2-.6.5-1 .9-1.3a2.1 2.1 0 011.7-.5l.4.1v1.1l-.5-.1h-.4a2 2 0 00-1.3.4c-.3.3-.6.7-.8 1.2v5.5h-1.2z"/>
</svg>