<svg xmlns="http://www.w3.org/2000/svg" fill="none" viewBox="0 0 1440 893">
  <path fill="#31302E" fill-rule="evenodd" d="M143 678.3h45.7c10.8 0 16.2 8.1 16.2 16.2C207.4 769.2 122.2 826.6 0 832V893h347c116.7-96.4 134.2-238.5 132.6-331-2.6-40.6-5.4-78.4-10.8-105.4-45.7 59.4-153.4 64.8-215.3 64.8-128.6 0-127.4-73.4-126.8-116l.1-8.3h11c108.5.3 347.2 1 347.2-202.6 0-83.7-83.5-148.6-202-127-113 21.6-91.5 191.8-91.5 191.8S337 343 213.1 302.5c-56.5-21.7-97-97.3-97-181C116.2 64.8 129.7 0 129.7 0H0v678.1h143v.2z" clip-rule="evenodd"/>
</svg>