<svg width="1440" height="893" viewBox="0 0 1440 893" fill="none" xmlns="http://www.w3.org/2000/svg">
<path fill-rule="evenodd" clip-rule="evenodd" d="M142.993 678.259H188.748C199.532 678.259 204.924 686.402 204.924 694.544C207.418 769.159 122.167 826.636 0 831.945V893H347.023C463.742 796.586 481.238 654.495 479.608 561.964C476.989 521.407 474.216 483.615 468.824 456.577C423.069 516.03 315.383 521.407 253.452 521.407C124.917 521.407 126.063 447.992 126.728 405.353L126.728 405.352C126.774 402.456 126.817 399.703 126.817 397.124C130.322 397.124 134.007 397.133 137.856 397.143C246.346 397.424 485 398.044 485 194.491C485 110.765 401.501 45.9343 283.031 67.4419C169.953 89.1032 191.521 259.321 191.521 259.321C191.521 259.321 336.951 343.047 213.089 302.49C156.55 280.829 116.187 205.245 116.187 121.518C116.187 64.8303 129.59 0 129.59 0H0V678.106H142.993V678.259Z" fill="#31302E"/>
</svg>
