<svg width="460" height="136" viewBox="0 0 460 136" fill="none" xmlns="http://www.w3.org/2000/svg">
<path d="M93.898 129.411C91.3776 124.896 90.0204 117.632 90.0204 108.012C90.0204 94.8589 86.7245 84.0614 78.1939 77.3865H79.9388C86.5306 77.3865 90.2143 73.6564 90.2143 66.9816V62.2699V17.1166V12.4049C90.2143 5.73006 86.5306 2 79.9388 2H75.2857H23.9082H19.2551C12.6633 2 8.97959 5.73006 8.97959 12.4049V17.1166V108.012C8.97959 113.902 8.97959 127.644 2 132.945C8.97959 134.319 21.5816 134.712 28.1735 130.785C34.1837 127.448 37.6735 123.718 37.6735 108.012V77.5828H40C58.8061 83.0798 59.9694 98 61.1327 110.761C61.5204 124.307 65.0102 127.84 70.6327 130.982C72.7653 132.16 75.2857 132.945 78.1939 133.337C81.6837 133.926 85.1735 134.123 88.6633 133.926C91.7653 133.73 94.6735 133.534 97 133.141C95.6429 131.963 94.6735 130.785 93.898 129.411ZM44.8469 51.4724H39.8061C38.6429 51.4724 37.8673 50.6871 37.8673 49.5092V44.4049V35.9632V30.8589C37.8673 29.681 38.6429 28.8957 39.8061 28.8957H44.8469H54.3469H59.3878C60.551 28.8957 61.3265 29.681 61.3265 30.8589V35.9632V44.4049V49.5092C61.3265 50.6871 60.551 51.4724 59.3878 51.4724H54.3469H44.8469Z" fill="#31302E"/>
<path d="M190.437 108.085V17.1269V12.412C190.437 5.7326 186.77 2 180.207 2H175.575H124.811H120.179C113.616 2 109.949 5.7326 109.949 12.412V17.1269V108.085C109.949 113.978 109.949 127.73 103 133.034C109.949 134.409 122.495 134.802 129.057 130.873C135.041 127.533 138.515 123.801 138.515 108.085V81.1705C138.515 78.8131 139.48 77.6343 141.604 77.6343H158.396C161.485 77.6343 161.485 79.206 161.485 81.367V108.085C161.485 123.801 164.959 127.533 170.943 130.873C177.698 134.606 190.244 134.213 197 133.034C190.437 127.73 190.437 113.978 190.437 108.085ZM140.446 51.5061C139.287 51.5061 138.515 50.7203 138.515 49.5416V44.4338V35.9863V30.8786C138.515 29.6999 139.287 28.914 140.446 28.914H145.464H154.922H159.94C161.099 28.914 161.871 29.6999 161.871 30.8786V35.9863V44.4338V49.5416C161.871 50.7203 161.099 51.5061 159.94 51.5061H154.922H145.464H140.446Z" fill="#31302E"/>
<path d="M280.078 4.98374C274.125 8.32249 270.669 12.054 270.669 27.7658L270.477 44.2631V49.3694C270.477 50.5478 269.709 51.3333 268.557 51.3333H263.757H247.627H242.635C241.483 51.3333 240.715 50.5478 240.715 49.3694V44.2631V27.7658C240.715 21.8739 240.715 8.12609 247.627 2.82338C240.715 1.645 228.042 1.25221 221.513 4.98374C215.561 8.32249 212.105 12.054 212.105 27.7658L211.913 108.092C211.913 113.984 211.913 127.732 205 133.034C211.913 134.409 224.394 134.802 230.922 130.874C236.875 127.535 240.331 123.804 240.331 108.092L240.523 84.5244V79.4181C240.523 78.2397 241.291 77.4541 242.443 77.4541H247.435H263.565H268.557C269.709 77.4541 270.477 78.2397 270.477 79.4181V84.5244V108.092C270.477 113.984 270.477 127.732 263.565 133.034C270.477 134.409 282.958 134.802 289.487 130.874C295.439 127.535 298.895 123.804 298.895 108.092L299.087 27.7658C299.087 21.8739 299.087 8.12609 306 2.82338C299.279 1.645 286.798 1.25221 280.078 4.98374Z" fill="#31302E"/>
<path d="M329.614 4.98374C323.555 8.32249 320.036 12.054 320.036 27.7658C320.036 58.4036 320.036 76.8649 320.036 108.092C320.036 113.984 320.036 127.732 313 133.034C320.036 134.409 332.741 134.802 339.386 130.874C345.445 127.535 348.964 123.804 348.964 108.092C348.964 77.2577 348.964 58.9928 348.964 27.7658C348.964 21.8739 348.964 8.12609 356 2.82338C349.159 1.645 336.455 1.25221 329.614 4.98374Z" fill="#31302E"/>
<path d="M418.951 2H373.102C369.411 2 365.72 2.39286 363 2.98214C369.994 8.28571 369.994 22.0357 369.994 27.9286V108.071C369.994 113.964 369.994 127.714 363 133.018C365.72 133.607 369.217 134 373.102 134H418.951C437.99 134 458 122.214 458 101.393V34.6071C458 13.7857 437.99 2 418.951 2ZM429.053 96.2857C429.053 102.375 425.945 107.089 417.98 107.089H405.74H400.689C399.524 107.089 398.746 106.304 398.746 105.125V100.018V35.9821V30.875C398.746 29.6964 399.524 28.9107 400.689 28.9107H405.74H417.98C425.751 28.9107 429.053 32.8393 429.053 39.7143V96.2857Z" fill="#31302E"/>
</svg>
