<svg xmlns="http://www.w3.org/2000/svg" fill="none" viewBox="0 0 460 136">
  <path fill="#31302E" d="M93.9 129.4A46 46 0 0190 108c0-13.1-3.3-24-11.8-30.6h1.7c6.6 0 10.3-3.7 10.3-10.4V12.4C90.2 5.7 86.5 2 80 2H19.3C12.7 2 9 5.7 9 12.4v95.7c0 5.8 0 19.5-7 24.8 7 1.4 19.6 1.8 26.2-2.1 6-3.4 9.5-7 9.5-22.8V77.6H40C58.8 83 60 98 61.1 110.8c.4 13.5 4 17 9.5 20.2 2.2 1.2 4.7 2 7.6 2.3 3.5.6 7 .8 10.5.6 3-.2 6-.4 8.3-.8a13.8 13.8 0 01-3.1-3.7zm-49-78h-5c-1.3 0-2-.7-2-1.9V31c0-1.2.7-2 2-2h19.4c1.3 0 2 .8 2 2v18.6c0 1.2-.7 2-2 2H44.9zM190.4 108V12.5c0-6.7-3.6-10.4-10.2-10.4h-60c-6.6 0-10.3 3.7-10.3 10.4v95.7c0 5.9 0 19.6-6.9 25 7 1.3 19.5 1.7 26-2.2 6-3.4 9.5-7.1 9.5-22.8V81c0-2.3 1-3.5 3.1-3.5h16.8c3 0 3 1.6 3 3.8V108c0 15.7 3.6 19.4 9.5 22.8 6.8 3.7 19.3 3.3 26.1 2.1-6.6-5.3-6.6-19-6.6-25zm-50-56.5c-1.1 0-1.9-.8-1.9-2V31c0-1.2.8-2 2-2h19.4c1.2 0 2 .8 2 2v18.6c0 1.2-.8 2-2 2h-19.4zM280 5c-5.9 3.3-9.3 7-9.3 22.8l-.2 16.5v5c0 1.2-.8 2-2 2h-25.9c-1.1 0-1.9-.8-1.9-2V27.9c0-6 0-19.7 7-25-7-1.2-19.7-1.5-26.2 2.2-6 3.3-9.4 7-9.4 22.8L212 108c0 5.9 0 19.6-6.9 25 7 1.3 19.4 1.7 26-2.2 5.9-3.4 9.3-7.1 9.3-22.8l.2-23.6v-5c0-1.3.8-2 2-2h26c1.2 0 2 .7 2 2V108c0 5.9 0 19.6-7 25 7 1.3 19.5 1.7 26-2.2 6-3.4 9.4-7.1 9.4-22.8l.2-80.3c0-6 0-19.7 6.9-25-6.7-1.2-19.2-1.5-26 2.2zM329.6 5c-6 3.3-9.6 7-9.6 22.8V108c0 5.9 0 19.6-7 25 7 1.3 19.7 1.7 26.4-2.2 6-3.4 9.6-7.1 9.6-22.8V27.8c0-6 0-19.7 7-25-6.8-1.2-19.5-1.5-26.4 2.2zM419 2H373c-3.7 0-7.4.4-10.1 1 7 5.3 7 19 7 25v80c0 6 0 19.7-7 25 2.7.6 6.2 1 10.1 1H419c19 0 39-11.8 39-32.6V34.6C458 13.8 438 2 419 2zm10 94.3c0 6-3 10.8-11 10.8h-17.3c-1.2 0-2-.8-2-2V31c0-1.2.8-2 2-2H418c7.8 0 11 4 11 10.8v56.6z"/>
</svg>