<svg xmlns="http://www.w3.org/2000/svg" fill="none" viewBox="0 0 193 191">
  <g fill="#31302E" opacity=".15">
    <path d="M137.39 23.6c6.1-.77 8.45-.27 8.45-.27l2.2 4.64s5.93-9.23.14-17.4l-.92 1.41s-.5-3.07-3.17-4.08c0 0-4.09 8.54-9.97 7.53-5.88-1.01-8.17-10.2-8.17-10.2s-2.94 5.88-3.17 7.35c-.28 1.47-3.45 2.12-3.45 3.63 0 1.52-2.16-1-2.16-1l-.13 9.04-2.3.87-4.96 4.1-2.12 5.73 5.24.79.87.23.46 2.43s-2.39-2.39-5.33-1.38c-1.93.64-1.79 4.27.56 8.09 2.34 3.81 3.95 3.72 3.95 3.72l-1.29 1.24s.83 11.67.1 13.83c-.74 2.15.82 5.46 4.13 7.3 2.84 1.56 11.71 7.21 14.38 8.87.04.04.23.41.5.92-.37 1.28-.5 2.84-.5 2.84h-4.14l2.9.83-2.76 3.3 2.62-.54s-1.47 1.1-2.94 1.97c-.19.05-.28.05-.28.05s-.87.55-2.02 1c-1.1-.04-1.1-2.38-.41-3.85.04-.05.04-.1.09-.14.87-1.65.18.6.18.6s1.56-1.6 1.1-3.13c-.4-1.56-2.57-4.13-1.56-5.14 0 0-.78-.64-1.2-.23-.4.41.56 5 .15 5.93-.32.64-1.34 4.45-1.38 6.61-.28-.04-.55-.09-.74-.23-1.88-1-17.09-16.3-17.09-16.3l16.77 20.9s1.89 1.19 4.46.5c2.57-.69 8.04-2.2 8.04-2.2s-.74 2.34.18 4.22c0 0 2.11-1.47 4.09-2.3 1.97-.82 5.14-.36 5.14-.36s7.13 1.88 7.9-2.02c0 0-.32-.28-.91-.7 1.6-.77 1.84-3.12 1.47-4.5-.37-1.42-1.38-6.24-1.38-6.24l-1.66 2.3s1.34 2.1 1.3 3.35c-.06 1.28.22 2.43-2.17 1.51l-3.67-2.52 1-.28-.91-.5.69-.97-2.57-1.38-.92-1.33s.23 4.83-1.34 5.65h-.6c-.96.1-2.06.23-3.2.37-.79-.1-1.43-.41-1.62-.92l-.04-1.65.46.82.37-5.1-.74 1.43s-.92-1.8.18-3.13c0 0-1.24.14-1.88.83 1.24-1.93 3.72-1.33 5.15-1.51 1.51-.19 2.75.09 4.36-.23 1.6-.28 3.72-5.56 3.72-5.56l3.45-3.63-.7-8.36-2.38.23-2.11 2.7-3.82-.13-7.17 1.42-3.49-2.7-.36-1.02 8.45-5.79s4.04-.55 4.78-.23c.73.33 4.27 2.9 4.27 2.9l1.24-2.67-3.58-2.52s-3.77-.46-5.42-.46c-1.61 0-6.25 3.21-6.67 3.81-.4.64-5.74-.23-6.93-1.2-1.2-.96.32-5.97.32-5.97-1.06 0-2.25 2.03-2.25 2.03s-2.02-6.16-2.02-7.54 2.25-1.6 2.25-1.6c.87 1.37 3.26 5 7.4 4.77 4.13-.23 5.83-4.6 5.83-4.6v1.94c2.3-1.29 1.6-4.64 2.02-5.6.41-.97 3.03-.6 3.03-.6s1.33 3.9 3.26 4.77c1.93.88 4.28-.27 4.28-.27s.4-4.69.91-5.97c.56-1.29-.64-2.76-.64-2.76s-5.97.05-7.12.23c-1.2.23-1.15 1.8-1.15 1.8h-4.5l-.23-1.85s-8.73-.32-10.43-.13c-1.7.23-2.8 2.25-2.8 2.25l-6.11-1.57.41-.82 2.16.64 4.5-4.6s2.03-3.8 1.75-9.55c2.85 1.7 5.93 4 12.04 3.22zM88.37 96.65v5.47l-4.13-6.16s.87 6.62.68 11.16l9.79-1.28c-1.42-3.63-3.3-6.9-6.34-9.19zM168.72 64.58c-3.22-2.89-2.4-4.22-2.4-4.22s-.59-.19-1.42 1.33c-.82 1.56 2.48 4.32 2.48 4.32.79.46 2.12 2.16 3.4 3.95-.5.6-1 1.33-.87 1.2.41-.42.83-.7 1.1-.88 1.52 2.2 2.9 4.37 2.9 4.37.18-2.21-1.98-7.17-5.2-10.07zM164.5 66.33v1.84l2.8 3.4.91 2.9-1.56 2.66-3.3 4.64.59 4.04-2.48 2.16-.83 8.54.83 1.24-.19 4.05-.04 2.52 2.07.97c.09-4.41.69-7.3.69-7.3-.74-5.38.82-8.69.82-8.69l1.56-.1c-.09-.82-.6-6.38 1.29-8.12 1.93-1.75 3.95-5.88 2.11-9.28-1.88-3.4-5.28-5.47-5.28-5.47zM182.31 62.84c-1.74-.83-.73-2.8-.73-2.8l-2.48 1.33 1.15 2.57 2.06 6.48 2.99-1.24c-2.76-.87-2.99-6.34-2.99-6.34zM169.63 59.53c-1.65.32-1.56 1.66-1.56 1.66 2.58 1.05 4.97 3.67 6.8 6.15a8.94 8.94 0 00-1.28 1.47c.64-.5 1.19-.83 1.6-1a42.95 42.95 0 013.08 4.95c-1.28-7.53-8.64-13.23-8.64-13.23z"/>
    <path d="M176.2 66.97a9.06 9.06 0 012.9-1.37l-.5-.92c-1.02.78-2.72 2.52-2.4 2.3z"/>
  </g>
  <path fill="#31302E" d="M43.26 167.95c-.14-.14-.23-.14-.32-.05l-.37.41c-.1.1-.05.19.09.33l1.8 1.51c.13.1.22.14.31.05l.37-.41c.1-.1.05-.19-.1-.33l-1.78-1.51zM55.1 169.74c-.13-.1-.27-.19-.36-.23l-2.3-1.56c-.09-.05-.18-.14-.36-.23-.05.04-.1.14-.19.23-.27.41-.46.69-.5.78l-.1.14c0 .04-.04.04-.09.09 0 .04.05.04.05.09h.05s.04.05.09.05l.46.32c.04-.1.14-.23.32-.46l.18-.23c.1.04.19.09.23.14.1.04.14.09.23.18l-.18.28-4.09 5.97v.04c-.05.05-.05.1-.1.14 0 .05-.04.05-.08.1 0 0-.05 0-.14-.1l-.14-.09s-.05-.05-.1-.05c-.08.14-.18.23-.22.32-.1.14-.18.24-.23.37.18.14.32.23.41.28l.32.23c.14.09.33.23.65.41.09-.14.18-.23.23-.32.09-.14.18-.23.23-.32-.05-.05-.05-.05-.1-.05l-.13-.09s-.05-.04-.1-.04c-.04-.05-.04-.05 0-.14.33-.42.56-.78.7-1.01l3.3-4.87c.05-.1.14-.19.23-.33l.14-.13c.1.04.18.09.28.18.09.05.18.14.22.18 0 0-.04.1-.13.23-.1.1-.14.23-.28.37 0 .05-.04.1-.09.14l.28.18c.04.05.13.1.32.19h.04l.46-.7c.14-.18.23-.36.37-.59.32 0 .28-.05.23-.1zM61.95 173.69l-2.38-1.24c-.05-.05-.14-.05-.19-.05-.27 0-.5.1-.64.37l-3.72 7.17c-.05.09-.05.18-.05.27.05.28.14.46.37.55l2.3 1.2c.09.04.18.04.27.09.28 0 .5-.14.7-.46l3.62-6.98c.05-.1.05-.19.1-.32 0-.28-.15-.46-.38-.6zm-.78 1.24l-.41.78L58 181l-.09.14v.05c0 .04-.09 0-.23-.05l-1.7-.87s-.04 0-.04-.05h-.05c-.05-.04-.1-.04-.05-.14 0-.04.05-.04.05-.09l3.35-6.47c0-.05.05-.1.1-.23.04-.05.09-.1.13-.19.1.05.14.05.19.1l1.7.87c.04 0 .09.04.13.09-.09.32-.18.55-.32.78zM70.4 177.23c-.08-.05-.13-.05-.22-.1l-.37-.13c-.73-.28-1.29-.46-1.75-.65l-1.37-.5c-.05.1-.05.14-.1.18l-.09.23c0 .05-.04.1-.04.19 0 0 0 .04-.05.09l.41.14.42.13c0 .1-.05.23-.14.37-.05.19-.1.23-.1.23-.04.18-.08.28-.13.37l-2.25 6.15c-.05.14-.1.19-.1.28l-.36-.14-.14-.04c-.04 0-.18-.05-.32-.1v.05l-.18.46c0 .05 0 .05-.05.14.05 0 .05.04.1.04h.04c.5.19.92.32 1.2.42l2.34.87c.13.05.27.05.4.05.24-.1.38-.19.42-.37l.1-.28.91-2.48v-.09l.05-.18s0-.05.05-.1v-.09c0-.09-.05-.18-.14-.32-.28-.23-.42-.41-.46-.41-.05 0-.05-.05-.05-.14h.42c.36 0 .55-.1.64-.28l1.1-2.98c.05-.1.05-.14.05-.23.18-.5.04-.7-.23-.78zm-1.97 5.1l-1.05 2.89s0 .05-.05.05c0 .04-.05.04-.14 0h-.09l-1.29-.46c-.04-.05-.13-.05-.23-.1-.09-.04-.13-.04-.23-.09.14-.32.37-1 .74-2.02.05-.18.27-.69.55-1.51h.18l1.01.36c.14.14.28.37.46.6.14.1.19.18.14.28zm1.56-4.37l-.73 2.07c-.05.1-.05.18-.1.32a.5.5 0 01-.08.18c-.46.14-.79.23-1.02.23-.09-.04-.18-.04-.23-.09l-.78-.27-.09-.1c.1-.18.23-.68.55-1.47.05-.13.28-.68.6-1.65h.18l1.7.64v.14zM78.26 188.3c-.04 0-.13-.05-.18-.05-.05-.04-.05-.09-.05-.13v-.24-.13c0-.5.05-.97.05-1.38.05-.78.05-1.38.05-1.84v-.37-.18c0-.37.04-.73.04-1.06.05-1.2.05-1.97.1-2.34 0-.18 0-.55.04-1.15-.28-.04-.41-.09-.46-.09-.1 0-.23-.05-.32-.05-.05.05-.05.1-.1.14l-.13.32c-.05.05-.05.1-.1.19l-.68 1.6c0 .05-.28.6-.74 1.75-.27.69-.55 1.33-.82 1.98-.23.5-.37.91-.51 1.14-.14.37-.28.7-.37.88-.04.09-.14.09-.23.04l-.18-.04h-.1c-.04.14-.08.37-.13.64v.05c.1 0 .32.09.69.14.32.09.69.13 1 .22.1-.32.15-.55.15-.69h-.05a.2.2 0 01-.14-.04h-.04c-.05 0-.14-.05-.14-.1v-.04l.18-.55c.05-.14.1-.23.1-.27.04-.14.13-.28.18-.37.1 0 .18 0 .27.04.05 0 .19.05.33.1.04 0 .04 0 .09.04.09 0 .18.05.23.05.32.04.5.09.55.09.14.05.32.1.41.1v1.23c0 .05 0 .05-.04.1 0 0-.14 0-.33-.05l-.09.36c0 .05-.04.14-.04.28.55.14.92.23 1.1.23l.6.14c.04-.14.09-.28.09-.46l.04-.23h-.32zm-.73-6.48c-.05.19-.05.32-.05.37v.27l-.14 2.85v.51s0 .04-.04.09c-.14 0-.28-.05-.46-.1-.37-.08-.64-.13-.74-.13-.04 0-.18-.05-.32-.1-.04 0-.09-.04-.14-.08.23-.6.46-1.24.74-1.84.37-.92.69-1.66.87-2.2.14-.37.23-.56.23-.6h.09v.18c0 .14 0 .32-.04.5v.28zM87.86 180.81c-.04 0-.04 0 0 0v.23c0 .05-.04.14-.04.18l-.05-.09c-.14-.14-.23-.23-.32-.27a.35.35 0 01-.23-.1c-.1 0-.18 0-.23-.04l-1.38-.14c-.13 0-.27 0-.36.1-.14.08-.23.22-.23.36l-.7 8.04v.28a1 1 0 00.24.36c.09.05.18.1.27.1.37.04.7.04.92.09l1.33.09h.23c.19 0 .32 0 .46-.1.1-.09.19-.13.19-.18.09-.13.13-.32.13-.46l.19-2.2-.46-.05h-.32l-.19 2.25h-2.16c-.13 0-.18-.04-.18-.09l.64-7.72v-.04c0-.05.05-.1.05-.1h.18l.88.1h.23c.09 0 .18.04.32.09.09 0 .14.04.14.04.13.1.22.19.27.37v.74c0 .18-.05.41-.05.64v.32c.05 0 .19 0 .42.05.23 0 .37 0 .37.04 0-.22.04-.45.04-.6l.19-2.2c-.23-.04-.42-.04-.46-.04-.1-.05-.19-.05-.33-.05zM96.64 187.29c-.14 0-.23 0-.32.04l.09 2.25c-.1 0-.14.05-.23.05l-1.7.05c-.14 0-.18 0-.18-.05l-.28-7.76v-.05c0-.04 0-.1.05-.1h.18l.87-.04h.23c.1 0 .19.05.32.05h.14c.14.05.23.18.28.32.04.05.04.23.04.55V183.75h.83v-.6l-.1-2.2h-.77v.18c0 .05 0 .14-.05.19l-.09-.05c-.14-.14-.28-.18-.37-.23-.09 0-.18 0-.27-.05h-.23l-1.38.05c-.14 0-.23.05-.37.14a.56.56 0 00-.18.41l.27 8.09v.18l.05.1c.05.13.14.22.27.31.1.05.23.1.28.1.41 0 .69-.05.92-.05l1.33-.05h.23c.18 0 .32-.04.41-.13.1-.1.14-.14.19-.23.04-.19.09-.32.09-.46l-.1-2.2-.45.04zM105.46 180.63c0-.1-.05-.19-.14-.32a.67.67 0 00-.6-.28l-2.66.41c-.1 0-.14.05-.19.1-.22.13-.32.36-.32.64l1.24 8c0 .08.05.17.1.27.18.18.36.27.64.23l2.57-.42c.1 0 .19-.04.28-.09.23-.18.37-.41.27-.78l-1.2-7.76zm.46 7.9c0 .04-.05.09-.23.09l-1.88.28h-.05-.05c-.04 0-.09 0-.13-.05v-.1l-1.15-7.2c0-.05 0-.14-.05-.23v-.23c.1 0 .14-.05.18-.05l1.89-.28h.18l.14.7.14.82.92 5.88v.05l.04.18.05.14zM123.24 183.7s0-.04-.05-.04v-.05l-.05-.09-.22.1c-.05 0-.1.04-.19.04-.05 0-.1 0-.14-.1l-2.34-5.97-.23-.64s-.05-.09-.1-.27c-.04-.1-.04-.19-.08-.23 0 0 .04-.05.18-.1.1-.04.18-.04.23-.09h.05l-.28-.69c-.32.14-.6.23-.78.28l-.14.05c-.18.04-.41.18-.73.27.09.18.13.32.13.37 0 .04.05.14.14.32.19-.05.28-.1.32-.1.05-.04.1 0 .14.05l1.06 2.76c.04.1.09.18.14.32-.1.05-.19.1-.23.1l-1.43.54-.41.14a.35.35 0 01-.1-.18c0-.05-.04-.14-.08-.32-.1-.28-.33-.83-.7-1.75-.18-.46-.27-.78-.31-.87.04-.05.13-.05.22-.1l.19-.08-.28-.7c-.32.14-.55.24-.73.28l-.19.1c-.18.04-.41.18-.73.27l.23.6c0 .04 0 .04.04.13.28-.09.46-.13.46-.13l2.8 7.2c-.04.05-.18.1-.4.2l.18.5c.04.09.09.18.09.23l.32-.14c.1-.05.28-.1.46-.18.05 0 .05-.05.1-.05l.73-.28-.1-.27c0-.05-.04-.05-.04-.1l-.14-.36-.05.05-.36.13a.75.75 0 01-.14-.27l-.74-1.93c-.09-.23-.23-.65-.45-1.15v-.1c.09-.04.22-.08.4-.18.33-.13.51-.18.65-.23 0 0 .05 0 .1-.04h.04c.05 0 .23-.1.55-.23.05-.05.18-.05.32-.1 0 0 .05.05.1.19l1.23 3.17v.05l-.23.13-.13.05c0 .05.04.1.04.14 0 0 .05.14.14.32l.14.28.5-.19h.05l.6-.23.46-.18c-.05-.1-.05-.19-.1-.28l-.13-.37zM127.97 172.36c-.05-.05-.14-.14-.23-.28a.74.74 0 00-.69-.04l-2.34 1.28c-.05.05-.14.1-.19.14-.18.23-.18.46-.04.73l3.9 7.08c.05.1.1.14.19.23.22.14.46.14.64 0l2.3-1.24a.8.8 0 00.23-.19c.18-.22.18-.5 0-.82l-3.77-6.9zm3.08 7.3c0 .05-.05.1-.19.19l-1.65.91s-.05 0-.05.05c-.04.05-.09 0-.13 0 0-.05-.05-.05-.05-.1l-3.54-6.42c-.04-.05-.04-.1-.14-.23-.04-.05-.04-.14-.04-.19.09-.04.14-.09.18-.09l1.7-.92c.05-.04.1-.04.19-.04.09.18.23.41.32.6l.41.73 2.85 5.19v.05l.09.13.05.14zM139.96 173.5l-4.27-5.83-.14-.18c0-.05 0-.05.04-.1l.33-.22c-.1-.1-.14-.19-.19-.23l-.27-.37c-.14.1-.23.18-.28.23l-.83.6c-.09.04-.18.13-.32.23l.28.36c.09.14.14.19.23.28l.18-.14c.05-.04.14-.1.19-.1.04.06.09.1.18.24l4.4 6.06c.05.05 0 .1-.04.14l-1.65 1.2c-.05.04-.1.04-.14 0l-4.45-6.11c-.05-.05-.05-.1-.1-.14l.14-.14.19-.14c-.05-.09-.1-.14-.14-.18l-.32-.46c-.1.1-.19.14-.28.18l-1.15.83c.05.1.14.23.28.37.04.04.09.13.23.27l.23-.18c.04-.05.09-.05.14-.1l.27.33 4.41 6.02c.05.09.14.13.23.23.23.13.46.09.73-.1l1.98-1.47a.78.78 0 00.32-.45.92.92 0 00-.14-.51c-.13-.23-.23-.32-.27-.41zM146.07 165.93l-.14-.14a1.08 1.08 0 00-.6-.23c-.23-.05-.46-.05-.69-.1l-3.03-.4c-.14 0-.27-.05-.32-.1l-.23-.23-.55-.6c-.1-.09-.23-.22-.41-.45-.05-.05-.05-.1-.1-.14.05-.05.23-.19.42-.42.23-.18.41-.36.55-.5l.23-.14c.05-.04.14-.1.18-.1.14 0 .23 0 .37.1l.55.55.23.23v.05l.28.27.09.1c.04-.05.14-.1.23-.19.18-.18.32-.27.37-.32l-1.89-2.07c-.09.05-.18.19-.37.32-.04 0-.09.1-.23.23l.14.14.14.14c-.04.04-.1.04-.18.04-.1 0-.23 0-.32.05-.05 0-.1.05-.14.05-.1.04-.19.09-.23.09l-1.15 1.06c-.14.09-.18.27-.18.5 0 .1.04.19.13.28l.14.13 1.43 1.57c.09.04.18.09.32.13l.73.1c1.56.23 2.67.36 3.26.45.1 0 .19.05.23.1l1.38 1.47.05.04c.04.05.04.1.04.1l-.41.4-.55.51-.23.14c-.1.1-.19.14-.19.1a.49.49 0 01-.36-.05c-.05 0-.14-.1-.32-.28l-.19-.18-.18-.19-.23-.22-.23-.23c-.1.09-.18.13-.23.22l-.14.1-.23.23.14.13c.37.42.64.7.83.88.18.18.46.5.82.92l.14.13c.14-.13.23-.23.32-.27l.23-.23-.13-.19-.1-.09c.05-.04.1-.04.19-.04s.18 0 .27-.05c.1 0 .14-.05.14-.1.1-.04.18-.08.23-.08.23-.23.41-.37.55-.5l.19-.2c.09-.08.22-.22.4-.36.06-.05.1-.14.15-.23.04-.23.04-.41-.1-.55l-1.51-1.88zM154.06 160.23l-.73-.64c-.05.04-.14.18-.33.36-.04.1-.13.19-.18.23.23.19.37.28.42.32.13.14.22.24.27.24l-.14.18c-.04.05-.09.1-.13.18l-.05.05c-.05.04-.14.18-.37.41l-.27.28-.19-.14-.23-.23-1.88-1.56c-.1-.05-.19-.14-.37-.28-.09-.04-.14-.09-.14-.13 0 0 0-.05.05-.1l.23-.27.04-.05.1-.14h.04l.37-.46c.1-.09.23-.27.37-.45v-.05c-.14-.1-.23-.19-.28-.23l-.23-.19c-.09.14-.23.23-.32.37-.32.42-.55.65-.64.78-.1.1-.19.23-.32.37-.05-.05-.14-.1-.19-.14-.14-.09-.23-.18-.27-.23l-1.75-1.47c-.1-.04-.18-.13-.37-.27-.09-.1-.13-.14-.13-.19.04-.04.13-.18.32-.36l.5-.6.05-.05c.04-.04.1-.04.14 0l.6.46c.09-.09.13-.13.18-.23.14-.18.23-.27.27-.36-.09-.1-.18-.14-.23-.19l-.87-.73c-.05-.05-.1-.05-.18 0l-2.12 2.52c-.09.1-.18.23-.32.37.05.05.14.14.28.23.04.05.14.14.32.28.14-.14.18-.28.28-.33l.18-.22.04-.05c.05-.05.1-.05.14 0 .05 0 .05.04.05.04.37.28.64.51.87.7l4.96 4.13c.05.05.05.1.05.14-.1.09-.14.18-.19.27-.04.1-.18.19-.27.32.1.1.14.19.27.23.19.14.28.23.33.23 0 0 .04 0 .04-.04l2.4-2.9.04-.04-.5-.37zM157.1 152.1l-.47-.28c-.09-.04-.22-.04-.32.14l-1.28 1.93c-.1.14-.1.28 0 .32l.46.28c.09.04.18.04.27-.14l1.29-1.93c.14-.14.14-.23.04-.32zM12.2 105.7c.14 0 .23 0 .28.05l3.26.36c.14-.04.32-.09.5-.18.1-.05.42-.23 1.02-.64 2.11-1.34 3.53-2.3 4.31-2.76a.8.8 0 01.33-.14l3.12.37c.05 0 .1 0 .14.05.09.04.14.04.14.09-.05.41-.1.69-.1.92l-.13 1.15c0 .04-.05.18-.14.36-.05.23-.1.32-.1.32a.87.87 0 01-.5.33c-.04.04-.27.04-.69 0l-.41-.05h-.09l-.42-.05-.5-.04c-.1 0-.28-.05-.5-.05-.05.19-.05.32-.1.5l-.05.28c0 .1-.04.28-.04.5l.27.05c.88.1 1.47.19 1.89.23.41.05 1.05.14 1.88.23l.28.05c.04-.28.09-.5.09-.64v-.05c0-.18.05-.37.05-.55l-.37-.05c-.05 0-.14 0-.23-.04 0-.05.04-.14.14-.23.13-.1.23-.19.27-.32.05-.1.1-.19.1-.23.09-.14.13-.23.13-.33l.14-1.1.04-.41c.05-.23.05-.5.1-.87 0-.1 0-.23-.05-.37-.18-.37-.41-.55-.69-.6l-3.44-.41h-.33a2.4 2.4 0 00-.91.27c-.28.19-.6.42-.92.6-2.62 1.7-4 2.57-4 2.57-.18.14-.37.23-.46.19l-.5-.05-1.24-.14c-.23-.04-.56-.04-.97-.09a.77.77 0 01-.23-.09c0-.14.05-.46.1-.92l.13-1.2c0-.04.05-.18.14-.4 0-.14.04-.24.14-.33a.91.91 0 01.5-.27c0-.05.42 0 1.2.09l.5.04h.09l.6.1h.23c.05-.1.05-.28.1-.46.04-.42.08-.65.08-.78l-4.31-.51c0 .14-.05.37-.1.73 0 .05 0 .23-.04.51h.27l.33.05c0 .04-.05.13-.14.23-.14.09-.23.23-.32.36-.05.05-.05.1-.1.19-.09.18-.13.27-.13.32l-.28 2.43c-.05.28.05.5.28.74.09-.05.23.04.36.09zM14.55 92.93l.13-.41c.1.04.19.04.23.04l10.3 3.08c.22.1.55.18.96.28-.05.18-.1.32-.14.5l-.05.18c.42.14.65.19.7.23.09.05.27.1.5.14h.05l.73-2.43c-.32-.1-.46-.14-.5-.19-.28-.09-.51-.13-.65-.18h-.04c0 .1-.05.14-.05.18l-.05.14c-.04.14-.09.28-.18.41l-1.06-.32-6.8-2.06c-.13-.05-.27-.1-.4-.19 3.94.14 5.96.19 6 .19 1.16.04 2.12.09 2.81.09v-.23c-.32-.19-.83-.5-1.56-.97-3.12-1.93-4.96-3.07-5.56-3.4a.36.36 0 01-.18-.18v-.05l8.13 2.44c0 .1 0 .18-.05.32-.04.18-.09.28-.09.37l.78.23c.14.04.28.09.41.09l.74-2.44v-.04c-.1-.05-.28-.1-.46-.14l-.46-.14a.95.95 0 01-.27-.09l-.05.1c-.1.31-.18.5-.23.54-.18-.04-.28-.09-.37-.09l-9.92-2.98c-.28-.1-.69-.23-1.2-.37 0-.14.05-.28.1-.46l.04-.18v-.05l-.6-.18c-.13-.05-.27-.1-.55-.14-.04.04-.04.09-.04.09-.05.1-.05.18-.1.28-.09.13-.13.32-.22.55l-.19.64-.04.1.18.13 4.04 2.39c2.12 1.24 3.54 2.11 4.23 2.48-.1.05-.18.1-.23.1-.1 0-.37 0-.87-.05-5.52-.28-8.23-.42-8.27-.37a.93.93 0 00-.5 0c0 .09-.05.14-.05.18l-.19.64c-.09.37-.13.65-.23.88v.04l1.2.37.14-.1zM19.32 78.41l11.26 5.7c.14.1.27.1.46.1.41-.05.69-.24.87-.6l1.84-3.64.14-.4c0-.47-.23-.84-.7-1.07l-10.97-5.55a2.3 2.3 0 00-.55-.14c-.42 0-.74.18-.88.55l-1.88 3.72c-.05.1-.1.18-.1.32-.08.5.1.83.51 1.01zm.78-1.38l1.38-2.66c.05-.05.1-.14.19-.23.32.14.64.32.96.5l1.2.6h.04l8.27 4.18.05.05.23.14.09.04c.04.05.04.14-.1.37l-1.33 2.66s-.04.05-.04.1v.04c-.05.1-.1.1-.19.1-.04-.05-.09-.05-.09-.1l-10.2-5.19c-.04-.04-.18-.09-.32-.18a.96.96 0 01-.27-.19 1 1 0 01.13-.23zM25.34 66.84c.23.13.37.27.46.32l.37-.46c.04 0 .14 0 .23.09l9.14 6.75h.05v.05l.13.1.1.08c.04.05 0 .1-.1.28l-.23.32c.1.1.33.23.6.46.18.14.32.23.41.28l.05-.1 1.1-1.47.37-.5c-.18-.14-.32-.28-.41-.32-.05-.05-.28-.19-.6-.42l-.28.37c-.09.1-.18.14-.23.1l-.04-.05-3.4-2.53-.92-.69.14-.14 1.38.28c1.93.37 3.44.64 4.59.92 0 .09-.05.13-.05.18l-.18.23c.18.14.32.28.46.32l.14.1.41.27.05-.05c.36-.5.82-1.05 1.24-1.65l.27-.37c-.09-.09-.18-.18-.27-.23l-.1-.04-.09-.1-.04-.04-.42-.32-.23.32c-.09.14-.18.23-.23.18-3.76-.73-5.7-1.1-5.78-1.1-.6-.1-.92-.18-.97-.18l-.04-.05c-1.47-2.71-2.44-4.55-2.94-5.42-.05-.14-.05-.23.04-.37.1-.09.14-.14.14-.18l-.1-.05c-.18-.14-.31-.23-.36-.32-.1-.1-.32-.23-.6-.46l-1.56 2.11c.23.19.41.28.5.42l.47.32.32-.46.14.14c1.42 2.57 2.25 4.13 2.57 4.73.04.05.04.1-.05.23l-1.1-.78-2.9-2.11-.13-.19.36-.46c-.09-.09-.22-.18-.36-.32-.1-.05-.28-.23-.6-.46l-1.01 1.38-.41.55s-.05.05-.1.18c.05-.09.23.05.6.33zM34.3 56.4c.18-.22.37-.36.46-.45l.32-.32.05-.05c.04-.04.13-.04.23 0l.04.05c.5.5.92.92 1.2 1.24l7.02 7.26c.05.04.1.13.05.18l-.37.37-.5.5c.09.14.23.28.36.42l.42.4s.04 0 .09-.04l4.23-4.09.04-.04-.64-.64-.05-.05-1.05-1.1c-.05.04-.23.23-.55.5-.14.1-.23.23-.33.37l.56.55c.22.23.32.37.36.41-.04.1-.14.19-.23.28-.04.05-.13.14-.27.23l-.05.05-.6.6c-.13.13-.27.27-.46.4l-.27-.22-.37-.37-2.66-2.76-.5-.5c-.1-.1-.2-.19-.2-.28 0 0 0-.04.1-.14l.37-.36.04-.05.19-.18.04-.05.7-.64c.18-.14.36-.37.68-.65 0-.04.05-.04 0-.04l-.41-.41-.32-.33-.05-.04a5.5 5.5 0 01-.55.5c-.6.55-.97.92-1.1 1.1-.14.14-.32.33-.55.51-.1-.1-.19-.14-.28-.23-.18-.18-.28-.32-.41-.41l-2.48-2.53c-.1-.14-.28-.27-.51-.5-.14-.14-.18-.28-.18-.28l.55-.55.92-.87.04-.05c.1-.05.19 0 .23.05l.83.82c.14-.09.27-.23.32-.27l.5-.5c-.13-.15-.22-.28-.32-.33l-1.24-1.29c-.09-.09-.18-.09-.23 0l-3.67 3.59c-.14.14-.32.32-.55.5.09.14.23.28.37.42.18-.05.36.09.64.32zM50.65 43.09l1.61 2.89c.1.1.28.18.46.32l1.1.46c2.35.92 3.9 1.52 4.78 1.84.18.04.28.14.32.18l1.52 2.71c.04.05.04.1.04.1.05.09.05.13.05.18-.32.18-.6.37-.78.46l-1.01.55c-.05 0-.19.04-.37.14-.18.09-.32.13-.32.09a.97.97 0 01-.6-.23c-.04 0-.18-.19-.37-.55l-.18-.37-.04-.05h-.05l-.18-.36-.28-.46c-.05-.1-.14-.23-.23-.42-.14.1-.32.14-.46.23l-.23.14-.41.23.14.23c.4.74.73 1.29.91 1.65.19.37.51.92.92 1.66l.14.23a6 6 0 00.6-.32h.04c.19-.1.33-.19.46-.28l-.18-.32c-.05-.05-.05-.1-.1-.18.05-.05.15-.05.28 0 .14.04.28.04.42.04.09 0 .18 0 .27-.04.14 0 .28-.05.37-.1.41-.23.74-.41.96-.55l.37-.23c.19-.09.46-.23.78-.41.1-.05.19-.14.28-.28a.94.94 0 00.04-.92l-1.7-3.03c-.04-.14-.13-.18-.18-.23-.23-.27-.5-.5-.78-.6l-1.01-.4c-2.94-1.16-4.41-1.7-4.46-1.7-.23-.1-.36-.15-.41-.24l-.28-.46-.6-1.1c-.08-.18-.27-.46-.45-.83-.05-.04-.05-.13-.1-.23.14-.04.37-.23.83-.45.42-.23.74-.42 1.06-.56l.41-.13c.14-.1.23-.1.32-.1.19 0 .37.1.56.28.04 0 .23.32.64 1.01l.23.41v.1l.32.55c.05.04.05.09.1.18.08-.05.22-.1.4-.18l.65-.37-2.11-3.81c-.14.09-.33.18-.65.36-.04.05-.18.1-.46.28l.14.23.14.27c-.05.05-.14.05-.28 0-.13-.04-.32-.04-.5-.04a.5.5 0 00-.23.04c-.19.05-.32.05-.37.1l-2.11 1.2c-.23.13-.37.36-.46.68 0 .18 0 .32.09.46.1-.1.14-.05.18.05zM61.82 37.11c0 .05.04.1.04.19.46-.14.7-.23.7-.19l4.08 11.4-.64.27.27.78c.05.19.14.32.19.42l.5-.19c.19-.04.42-.13.74-.23.04-.04.09-.04.13-.04l1.15-.42c-.09-.23-.13-.41-.13-.46 0-.04-.05-.09-.05-.18l-.18-.55-.1.05c-.23.09-.41.13-.6.18-.04-.1-.13-.23-.18-.46l-1.1-3.03c-.14-.42-.37-1.01-.64-1.84v-.14l.64-.23c.5-.18.83-.27.97-.32.04 0 .04-.04.13-.04l.1-.05c.04 0 .36-.14.87-.32.09-.05.27-.1.5-.14l.14.32 1.8 5v.1c0 .05-.15.1-.38.18l-.22.1c.04.04.04.13.09.23 0 .04.09.18.18.55.1.27.18.41.18.41l.79-.27h.04c.41-.14.74-.28.97-.37l.69-.23-.14-.42-.19-.45s0-.05-.04-.1v-.09l-.05-.14-.32.14c-.1.05-.18.05-.28.1-.09.04-.18 0-.18-.14l-3.35-9.47c-.1-.23-.19-.6-.37-1l-.14-.42c-.04-.14-.09-.28-.09-.37 0-.05.1-.1.28-.18l.36-.14.05-.05-.41-1.1-1.24.41-.23.1-1.15.4c.14.33.18.51.23.6 0 .05.09.24.18.56.28-.1.46-.14.5-.14.1-.05.19 0 .19.05l1.56 4.31c.05.14.1.33.19.5-.14.1-.28.15-.37.2l-2.3.82c-.23.1-.46.14-.64.23l-.14-.28c0-.04-.1-.23-.18-.5v-.09a65.8 65.8 0 00-1.01-2.76 14.6 14.6 0 01-.46-1.38c.09-.04.18-.09.36-.14l.33-.09v-.04l-.42-1.1c-.5.18-.87.32-1.15.4l-.27.1-1.15.41.37.78zM77.85 45.24c.05.14.1.28.18.42.28.27.6.41.97.37l4-.7.4-.13c.38-.28.51-.64.42-1.2l-2.11-12.12c0-.14-.1-.28-.23-.5-.28-.33-.6-.47-.97-.42l-4.13.73a.5.5 0 00-.32.14.96.96 0 00-.46 1.06l2.25 12.35zm-.87-12.58c.13-.05.23-.05.32-.05l2.98-.5h.28c.05.32.14.69.18 1.1l.23 1.33v.05l1.57 9.14v.09l.04.28.05.09c0 .04-.1.09-.32.14l-2.94.5h-.1-.04c-.1 0-.14 0-.19-.09v-.14l-1.93-11.25c0-.1-.04-.19-.09-.37-.04-.1-.04-.18-.04-.32zM88.97 31.33c.13 0 .23 0 .32.04l.09 12c-.1.04-.23.04-.32.04h-.42v.78c0 .27 0 .46.05.5h2.53v-1.24h-.1c-.32 0-.5 0-.55-.04l-.04-4.37c0-.04 0-.09.04-.13 0 0 .14-.05.42-.05H93.47c.37 0 .69-.05 1-.1.38-.22.6-.5.6-.82l-.04-6.98c0-.28-.14-.5-.41-.7-.19-.08-.33-.13-.46-.13h-.37l-4.09.05c-.55.04-.83.04-.87.04h-.19v1.24l.33-.13zm1.6-.23h3.13c.04.09.09.18.09.27l.05 6.11c0 .05 0 .14-.05.23h-3.08c-.04-.1-.04-.18-.04-.23l-.05-6.1c-.1-.15-.1-.24-.05-.28zM132.7 36.01l-6.02.1 2.16.87 1.84.13s.6.6 1.29.6c.82 0 1.24-.69 1.24-.69h.73c0-.04-.73-1-1.24-1zM163.7 94.17c-.63.05-1.1.55-1.05 1.15.05.6.55 1.1 1.15 1.05.6-.04 1.1-.55 1.06-1.14 0-.65-.5-1.1-1.15-1.06zM145.29 38.54s1.51.6 1.2-.97c.04 0-.2.74-1.2.97zM112.86 43.04c.04-.18.04-.32.04-.5 0-.19.05-.37.05-.56 0-.13 0-.32-.05-.46V41.02l-.14-.55c-.04-.19-.14-.37-.23-.55-.09-.19-.18-.33-.27-.5-.1-.15-.23-.28-.32-.42a4.07 4.07 0 00-1.47-1.1c-.5-.23-.92-.33-1.2-.33-.32-.04-.46 0-.46 0l.32.32a15.37 15.37 0 011.24 1.38c.14.19.28.42.42.65.04.09.09.23.18.32.05.14.1.23.14.37 0 .04.05.13.05.18l-1.75.04 1.98 1.43c0 .27 0 .5.04.73v1.52c-.05.96-.05 1.6-.05 1.6s.14-.08.33-.31c.09-.14.23-.28.32-.42.09-.18.23-.36.37-.6.09-.22.22-.5.32-.78 0-.32.04-.64.14-.96zM131.19 38.68s-2.16-.28-3.27-1.1c0 0 1.01 1.74 3.27 1.1zM136.47 47.63c.82-.04 1.56-.04 2.39 0 0 0-1.15-1.2-2.53-.64 0-.05-.69.69.14.64zM133.53 47.77l.13.19.14.13.14.14c.05.05.1.05.14.1.1.04.18.08.27.08.1 0 .19 0 .23.05h.19l-.1-.18c-.04-.05-.04-.1-.09-.19-.04-.04-.04-.13-.09-.23-.04-.09-.09-.13-.09-.23 0-.04-.05-.09-.05-.13v-.14c-.04-.1-.04-.19-.04-.23v-.28-.27-.14-.14c0-.18 0-.41.04-.6v-.46-.18l-.18.1c-.1.04-.23.18-.37.31-.04.1-.14.19-.18.28l-.18.32c-.05.14-.1.23-.14.37-.05.14-.05.27-.05.46 0 .14.05.32.1.46.04.18.09.32.18.41z"/>
  <path fill="#31302E" d="M192.47 93.8a8.49 8.49 0 00-2.94-3.95 7.71 7.71 0 00-5.65-1.33 11.38 11.38 0 00-5.52 2.34c-.13.1-.27.19-.41.32l-.73-4.36a3.17 3.17 0 00-.92-1.33 3.22 3.22 0 00-1.2-.5l-.04-.28c.04.13.04.09.04.09v-.05c0-.04 0-.09.05-.18.04-.14.13-.32.27-.46.23-.32.6-.64.97-.97l.64-.5.69-.5 1.38-1.02a38.42 38.42 0 004.04-3.21c.23-.23.46-.42.64-.7.19-.22.37-.45.56-.77 1.19-1.38 2.43-2.71 3.63-4.05l.91-1 .23-.24.19-.18.09-.05.14-.13c.23-.28.27-.46.32-.65.04-.36 0-.6 0-.78a5.99 5.99 0 00-.64-1.51l-.7-1.24-.64-1.15c1.34-2.02 2.16-5 2.16-5 1.2-3.87-1.84-4.1-4.96-4.19-2.62-.1-1.93 2.02-1.93 2.02l-.32 1.33a5.4 5.4 0 00-1.29-.55c-.32-.09-.64-.14-1-.09a2 2 0 00-.97.32 4.5 4.5 0 00-2.67-.64c-.91.1-1.74.46-2.52 1.1-.28-.18-.56-.37-.83-.5a7.24 7.24 0 00-2.48-.88 4.24 4.24 0 00-1.52.05 3.5 3.5 0 00-1.28.69c-.05.04-.1.04-.14.09-.1.05-.14.1-.23.14-.1.04-.18.14-.23.18-3.9-1.05-7.76-2.16-10.47-2.9-1.34-.36-2.9-.73-4.5-1.1 1.19-1.65 1.37-4.5-1.57-6.24 0 0 2.57 3.12-1.38 3.44-.6.05-1.15 0-1.65-.13.46-2.67 1.01-5.89 1.47-8.27a5.81 5.81 0 002.44-1.61c2.15-2.3 2.25-6.07 2.15-8a3.08 3.08 0 00-.46-1.33c-.36-.5-.87-.92-1.47-.92h-2.06l-.46-3.63.14-.18a28.04 28.04 0 002.57-5.83l.41-1.57c.05-.27.14-.55.19-.82l.13-.87c.14-.6.19-1.2.28-1.8.09-.6.09-1.24.18-1.88 0-.32 0-.64.05-.96V13.9c0-.32 0-.64-.1-1 0-.19-.04-.37-.09-.56l-.09-.5a10.4 10.4 0 00-.64-2.02c-.28-.65-.6-1.29-1.01-1.89a15.43 15.43 0 00-6.2-5.37 19.44 19.44 0 00-3.54-1.29c-1.15-.27-2.3-.41-3.35-.46h-1.29c-3.72-1.28-8-1.05-11.26.65l-.82-.14a13.7 13.7 0 00-4.32.18 10.2 10.2 0 00-4.04 1.84c-.28.23-.55.46-.83.73-.27.28-.5.56-.73.83-.23.28-.51.6-.7.92-.18.28-.45.55-.55.83-.27.13-.5.23-.73.36-.37.19-.73.42-1.1.65-.37.23-.74.46-1.06.69-.37.23-.69.5-1.01.78-.32.27-.64.55-.96.87l-.46.46-.46.46-.83.96c-.14.19-.28.32-.37.5-.14.2-.27.38-.36.56l-.37.55-.32.55c-.1.19-.19.37-.33.55-.09.19-.18.37-.27.6l-.28.6-.23.6-.41 1.24c-.1.4-.23.82-.28 1.24l-.13.64-.1.64c-.09.42-.04.88-.09 1.29-.04.41 0 .87 0 1.28v.05l-.04.05c.04.32.04.6.09.87l.14.87a12 12 0 00.69 2.57c.09.28.18.56.32.83.09.28.23.55.36.83.14.27.28.55.46.78l.23.37.1.18.09.14c.09.18.23.41.27.69.19.46.28.96.32 1.47.05.5.05 1.05-.04 1.56-.05.28-.1.5-.14.78-.05.23-.14.5-.18.74h.04c-2.11 1.42-2.39 4.45-.69 8.4 1.1 2.58 3.4 6.02 5.47 6.8.05 1.66.14 6.07-.18 9.88l-4.83 1.47-4.22 11.02-28.16 15.03-.65 7.8c-.41 1.2-3.53 10.11-5.37 20.22-.6.6-1.2 1.15-1.8 1.79a54.25 54.25 0 00-4.59 5.7c.19-.46.37-.92.5-1.38a29.54 29.54 0 001.43-5.6c.14-.92.19-1.84.14-2.76a9.31 9.31 0 00-.83-3.59 7.37 7.37 0 00-3.35-3.53 7.99 7.99 0 00-4.92-.78c-1.83.23-3.62.96-5.32 2.16a21.68 21.68 0 00-4 3.53 37.25 37.25 0 00-2.99 3.77 18.44 18.44 0 00-7.03-2.25c-.87-.1-1.79-.14-2.7-.14-1.2 0-2.49.1-3.73.23a30.8 30.8 0 00-8.77 2.53 24.84 24.84 0 00-7.67 5.42 20.38 20.38 0 00-2.85 4 15.47 15.47 0 00-1.52 10.47c.19.92.5 1.79.88 2.57-.88.64-1.7 1.33-2.49 2.07a21.7 21.7 0 00-6.2 12.08c-.41 2.76-.23 5.28.6 7.4.87 2.3 2.3 4.13 4.27 5.46a14.9 14.9 0 006.11 2.35 22 22 0 006.39 0c1.93-.28 4-.74 6.06-1.38a45.87 45.87 0 006.16-2.53c1.7-.87 3.4-1.88 5.05-2.98a7.76 7.76 0 004.87 1.7c.37 0 .69-.05 1.06-.1a17.15 17.15 0 005.33-1.74c.78-.37 1.6-.78 2.38-1.24.74-.42 1.43-.83 2.12-1.24l.04-.05a114.2 114.2 0 004.83-3.3c.04-.05.09-.1.14-.1.09.19.13.41.22.6.7 1.6 1.61 3.08 2.76 4.27a11.91 11.91 0 004.5 2.99 11.61 11.61 0 005.8.55c2.7-.37 5.09-1.52 7.16-3.5a21.27 21.27 0 004.4-6.24c.28-.55.56-1.15.79-1.75.1.28.23.5.32.74a10.28 10.28 0 003.58 4.18 8.73 8.73 0 004.96 1.42c.51 0 .97-.04 1.47-.09 1.34-.18 2.72-.5 4.05-.96 1.2-.42 2.3-.88 3.4-1.43a22.3 22.3 0 002.3-1.24h.6a12.08 12.08 0 005-1.15 24.7 24.7 0 002.43-1.28 8.33 8.33 0 005.24.92c1.56-.19 3.12-.78 4.64-1.66a6.6 6.6 0 002.67.55c.32 0 .68 0 1-.04a7.77 7.77 0 005.47-3.4c.23-.28.41-.6.65-.92a8.43 8.43 0 007.44 2.53 17.04 17.04 0 005.56-2.07c.27-.19.6-.32.91-.55.51.27 1.02.5 1.57.64.82.28 1.74.41 2.7.41.51 0 1.06-.04 1.57-.09 1.38-.18 2.85-.6 4.36-1.28.88-.37 1.7-.83 2.58-1.3.04.05.09.05.13.1 1.24.64 2.62.97 4.14.97.5 0 1-.05 1.51-.1 1.24-.18 2.49-.5 3.72-1.1.97-.46 1.98-1 2.94-1.65l.42-.28a9.61 9.61 0 003.72 1.29c.46.04.83.09 1.24.09.37 0 .69 0 1.01-.05a13.37 13.37 0 004.69-1.8c.6-.35 1.24-.72 1.88-1.18.6-.41 1.15-.83 1.7-1.2a54.89 54.89 0 003.86-3.12 5.38 5.38 0 001.88-4.09l.05-4.78a5.4 5.4 0 00-4.64-5.46c.04-.05.04-.1.09-.14a70.36 70.36 0 003.3-6.39l2.72-5.97a31.71 31.71 0 002.34-7.76l.28-1.8c.18-1.19.27-2.34.23-3.44a8.23 8.23 0 00-.46-3.86zM188 69.4c0-.04 0-.04 0 0zm-38.08-27.37c.32-1.65.13-3.3.04-3.86l.23-.69h2.12c-.19 1.47-.6 3.03-1.61 4.09-.23.23-.5.46-.78.64-.05-.09 0-.13 0-.18zm25.54 45.3c-.1 0-.14.04-.23.09l-.05-.46c.14.09.23.23.28.36zm-.37 2.02c.23-.05.5-.14.74-.19l.55 3.36c-.7.64-1.33 1.37-1.98 2.2-.5.64-1 1.29-1.47 2.02-1.97.28-4.36.5-6.66.5-1.74 0-3.3-.13-4.6-.4v-.28l.56-6.85a27.88 27.88 0 0011.67-.05c.41-.08.78-.22 1.2-.31zm-3.49 9.37a43.9 43.9 0 00-3.3 6.84c-.6 1.52-1.11 2.99-1.66 4.32a7.4 7.4 0 00-4.69-6.16l.14-4.96c1.2.19 2.57.33 4.09.33 1.88 0 3.72-.19 5.42-.37zm-11.3-.37l-.14 4.87h-.04c-.46-.05-.97-.1-1.47-.1-.51 0-1.01.05-1.52.1-1.56.18-2.99.69-4.23 1.38a11.8 11.8 0 00-4.68 5.05 9.56 9.56 0 00-.7 6.66l-.13-.14a5.7 5.7 0 00-2.11-1.33 86.64 86.64 0 001.88-4.55c.64-1.83 1.1-3.44 1.33-5 .19-1.1.23-2.2.19-3.17a8.63 8.63 0 00-1.15-4.1 7.21 7.21 0 00-3.9-3.25 8.34 8.34 0 00-3.08-.55c-.28 0-.56 0-.83.04v-4.09c2.16 1.29 6.06 3.4 8.5 3.4.55 0 1.05-.09 1.47-.32 2.3-1.33 1.42-4.87.82-7.49-.18-.73-.36-1.56-.36-1.88 0-.83.18-1.84.32-2.8.37-2.16.64-4.05-.46-4.96-.41-.37-.97-.51-1.7-.51-1.01 0-2.34.32-3.77.83l1.01-1.15-.46-.41c.33-.14.56-.28.83-.46l17 5.23c-.32.65-.5 1.38-.55 2.07-.05.69.09 1.42.18 2.02.14.6.23 1.2.32 1.75v.09a3.3 3.3 0 00-1.56.73c-.37.33-.55.74-.69 1.06l-.96 10.8.64.18zm-37.12-16.63c-.14-.83-.46-2.53-.27-3.03 1.19 0 4.91 1.15 7.99 2.2-.05.37-.1.74-.1 1.1v4.78c0 .55.05 1.06.19 1.52-1.97 1.24-6.43 3.77-8.59 3.77-.32 0-.46-.05-.55-.1-.87-.5.05-3.03.69-4.73.46-1.28.87-2.43.87-3.3.1-.56-.05-1.38-.23-2.21zm5.24-3.58l.04-.05s-.32-.18-.87-.55l-2.3-1.52-3.21-2.16c-.6-.4-1.2-.82-1.8-1.24-.59-.4-1.19-.87-1.79-1.33-.6-.46-1.19-.92-1.79-1.33-.6-.46-1.14-.92-1.65-1.38-.28-.23-.5-.46-.78-.69-.23-.23-.5-.46-.74-.64-.46-.46-.87-.87-1.24-1.29-.04-.09-.13-.13-.18-.23 1.29-4 1.15-12.54 1.06-15.06.64-.23 1.2-.51 1.56-.88v.05h.73l-.78 1.1 1.1-.18-1.1.92s-.83 6.15-.96 7.85c-.14 1.75.69 2.99.96 3.59.28.64.05 1.88.05 1.88l.55-.7c1.38 3.32 9.83 7.45 10.75 7.68.92.23 3.45 2.44 3.45 2.44l1.56 1.56v-.83a5.83 5.83 0 001.38 1.65v-1c2.75 1.46 7.9-.1 7.9-.1l-.74.7 2.53-.79h.69l-2.07 2.3c-.41.18-.78.32-1.1.5a3.2 3.2 0 00-1.7-.5h-4.5c-.97 0-1.61.5-2.03 1.24-.82-.32-1.88-.65-2.98-1.01zm-.55-11.21v-.97s-.88.83-1.47 2.07c0 0 .55-2.39 1.65-3.22 0 0 .64.65.64 1.06l1.29-.78s-.18 1.75-1.6 2.62l.27-1.33-.78.55zm5.1.78l1.19-1.29-.1.92s1.06-.83 2.12-1.47c0 0-2.48 3.13-2.34 6.11 0 0-.41-2.16 0-3.86 0 0-1.15.5-1.56 1.56 0 0-.05-1.24.18-1.79 0 0-.92.42-1.2 1.01 0 0 .74-2.34 1.98-3.26-.04 0-.32 1.43-.27 2.07zm7.12-2.44s2.57 2.44 2.16 4.92c0 0-2.12-2.02-2.16-2.99l1.1.55-1.1-2.48zm3.44-1.14l1.24.96-.09-1.97.74.4-.1-1.92 2.16 1.93-.69.23s1.38 3.58.46 6.43c0 0-.18-3.72-1-4.92 0 0 .22 1.84.04 2.58 0 0 0-1.15-1.38-1.66v.83s-3.44-1.52-4.46-2.71c0 0 2.71 1.33 3.4 1.38l-.32-1.56zm-.14-18.84c-.13-.27-.46-1.29-.69-2.3.05.05.05.1.1.1a5.43 5.43 0 004.13 1.6c.28 0 .5 0 .74-.04-.37 1.97-.88 4.68-1.29 7.07-1.42-.96-2.57-2.34-4-2.9 2.58-1.28 1.34-2.93 1.01-3.53zm5.42 40.93c.42 1.8 1.15 4.83.05 5.47-.05.04-.23.1-.55.1-1.75 0-4.96-1.66-7.21-2.95.46-.55.78-1.29.78-2.07V82c0-.74-.28-1.52-.78-2.26 2.52-1.1 5.6-2.3 7.2-2.3.42 0 .56.1.56.1.32.28 0 2.3-.18 3.3a18.66 18.66 0 00-.37 3.09c.05.55.23 1.28.5 2.3zM132.47 82c0-1.06.32-2.71 1.29-2.71h4.5c1 0 2.07 1.7 2.07 2.7v4.78c0 1.06-1.06 2.12-2.07 2.12h-4.5c-1.06 0-1.29-1.2-1.29-2.12V82zm30.55 5.42v.6l-.55-.14c.04-.1.09-.19.18-.28a.88.88 0 01.37-.18zm23.89-30.28c.46.1.92.14 1.38.28.46.14 1.15.41 1.1.6-.1.4-1.88.32-2.67.18a7.47 7.47 0 01-1.37-.32c-.42-.14-1.34-.42-1.34-.65.05-.4 1.98-.22 2.9-.09zm-9.97 2.94c.6-.04 1.15.14 1.56.32-.1.19-.18.33-.23.56-.18.6-.14 1.28.05 1.83l.14.28c-.37-.32-.7-.64-1.06-.97-.6-.5-1.2-1-1.8-1.47a2 2 0 011.34-.55zm-11.48 5.65c.13.05.36.14.6.28 0 0 .91.69 1.1.87.18.19.4.42.64.6.23.23.46.5.73.78.5.5 1.01 1.15 1.52 1.75l1.42 1.83c.42.6.83 1.15 1.15 1.66.32.5.55.92.74 1.2.18.27.27.45.27.45v.05c.1.18.32.27.5.18.2-.1.28-.32.2-.5l-.24-.51a19.96 19.96 0 00-1.7-3.12c-.37-.65-.87-1.29-1.28-1.98-.51-.64-.92-1.33-1.43-1.88l-.69-.88c-.23-.27-.46-.5-.69-.73l-1.1-1.1a6.82 6.82 0 01-1.06-1.29 1.93 1.93 0 01-.32-1.24c0-.1.05-.14.05-.23l.09-.23v-.04l.05-.05c.09-.1.04-.1.18-.1.23-.04.78.15 1.29.37h.04l.1.05.54.32c.19.1.42.19.65.37.23.18.5.32.82.55.28.23.6.46.92.74.32.27.7.55 1.01.87.7.6 1.43 1.29 2.12 2.02.32.32.69.74 1 1.06.28.36.6.73.88 1.1.55.73 1.01 1.47 1.38 2.11.73 1.29 1.15 2.2 1.15 2.2.09.2.32.28.5.24.23-.1.32-.32.23-.5 0 0-.36-.97-1-2.4a23.8 23.8 0 00-1.25-2.34c-.23-.41-.55-.83-.87-1.29l-.97-1.2c-.69-.77-1.37-1.55-2.02-2.24-.37-.32-.69-.7-1-.97-.33-.32-.65-.6-.97-.87-.32-.27-.6-.46-.88-.69-.23-.18-.4-.32-.6-.46l.05-.04c.37-.33.83-.46 1.43-.37a6 6 0 011.83.69c1.25.69 2.44 1.65 3.54 2.62.55.5 1.1 1 1.66 1.56l.82.83c.23.23.46.5.65.78.41.55.78 1.2 1.14 1.83.37.65.7 1.34.97 2.03l.64 1.47 1.01-1.25.74-.87s-.6-1.97-.7-2.16a22.6 22.6 0 01-1.38-3.63l-.08-.27-.23-.19a3.56 3.56 0 01-1.2-1.51.91.91 0 01-.04-.6c.04-.1.1-.18.14-.27.04-.05.04-.1.09-.14l.1-.1.04-.04h.09c.09 0 .23 0 .37.05.32.09.64.23 1 .46a10.55 10.55 0 013.45 3.67l1.29 2.48.64 1.2c.14.27.32.6.37.87l-.1.09-.27.28-.96 1c-1.29 1.38-2.53 2.76-3.77 4.14l-.14.14-.09.18c0 .05-.14.23-.28.42a2.6 2.6 0 01-.5.5c-.37.37-.78.69-1.2 1.06-.87.69-1.74 1.33-2.66 1.97l-1.38.97-.69.5c-.23.19-.46.32-.69.5a8 8 0 00-1.42 1.39c-.23.27-.41.6-.55 1-.1.2-.14.42-.14.65v.74l.18 2.75a27.24 27.24 0 01-8.5.32c.05-.36.05-.69.05-1a18.96 18.96 0 00-.46-3.77l-.09-.42c0-.14-.04-.27-.04-.41l-.05-.37v-.37a3.74 3.74 0 011.33-2.61c.37-.37.83-.7 1.33-.97.23-.14.46-.27.83-.46.37-.23.69-.5.92-.87.5-.7.64-1.47.69-2.2a7.75 7.75 0 00-1.8-4.78l-.6-.7c-.36-.45-.73-.91-1.05-1.37-.27-.46-.5-.92-.55-1.29.1-.41.14-.64.42-.92zM149.5 57.1c4.32 1.33 9.1 2.7 11.44 3.35.74.23 1.84.5 3.13.87-.05.14-.1.33-.1.46-.13.88.19 1.7.56 2.35-.1.09-.23.13-.28.23l-.18.18c-.1.1-.14.18-.19.27-.13.19-.23.37-.32.6-.18.42-.23.92-.14 1.33.1.88.5 1.47.88 2.07.36.55.78 1.06 1.2 1.52l.59.69c.18.23.32.41.46.64.27.46.5.96.69 1.47.32 1.01.36 2.16-.1 2.76-.09.13-.22.27-.4.36-.2.14-.51.28-.79.46-.55.32-1.1.74-1.6 1.2l-.24.23-16.54-5.1a6.68 6.68 0 001.38-3.54c.19-1.38-.55-5.47-.55-5.47h.87l-.6-2.57.65.69c.14-3.81-1.93-4.69-1.93-4.69l-.37-.32h.37v-.04c.64.13 1.38.13 2.11 0zm-1.28-18.75s.32 1.7 0 3.36l-.23 1.15c-.32.04-.7.09-1.1.09-1.2 0-2.16-.46-2.9-1.24-1.1-1.15-1.56-3.03-1.75-4.69l2.07-.09s.37.69.83.69c.46 0 .69-.55.69-.55h.73s-.46-1.1-.96-1.1h-3.36c-.04-.51-.04-.97 0-1.3 0-.17.19-.82.24-.82h6.06l.27 2.3-.6 2.07v.13zm-12.91-5.97h-9.7c-1.05 0-1.83 1.15-1.92 2.12l-7.63.13 1.7-3.17.92 2.07.83-1.42c.6-.97.92-2.4 1.1-3.77l.55 1.33.92-1.28c1.05-1.52 1.28-4 .69-7.3-.6-3.13 1.93-5.25 3.17-6.07.18.46.46.92.73 1.38.5.78 1.2 1.56 2.07 2.2.83.64 1.84 1.1 2.85 1.42 1 .33 2.06.51 3.17.56.27 0 .55.04.78.04h.78c.37 0 .73-.04 1.1-.09.23.05.5.14.74.18.41.1.78.14 1.2.19.4.04.82.04 1.23.04.23 0 .41 0 .65-.04.22 0 .4-.05.64-.1l.64-.13c.23-.05.41-.14.64-.23.37-.14.79-.37 1.1-.6l-.13.55-.14.5-.1.24-.08.23c-.23.36-.1.87.27 1.1.23.14.46.14.7.05l.22-.1a6.5 6.5 0 001.1-.6l.28-.18.23-.18c.1-.1.18-.14.28-.23l1.42 11.16h-5.93c-1.1 0-1.93 1.29-1.97 2.3h-3.17v-.05c-.05-.96-.83-2.25-1.93-2.25zm-1.42 9.14c-.92.97-2.12 1.38-3.77 1.38-1.2 0-2.16-.46-2.9-1.24-1.79-1.84-1.88-5.65-1.88-7.07 0-.19.18-.83.23-.83h9.7c.04 0 .22.6.22.78.14 1.38.14 5.1-1.6 6.98zM113.73 28.2l1.05 2.57s2.12-5.23 2.99-4.36c.78-1.24.5-8.4.5-8.4s1.25.73 1.66 2.43c.41-.5.04-1.29.69-2.85.82-1.98 1.65-3.35 3.63-4.46.09-3.44 1.65-5.55 1.65-5.55s1.88 8.72 6.85 9.87c2.52.6 8.26 1.8 11.44-7.72 2.84 1.89 1.83 6.53 1.83 6.53s1.52-1.43 1.8-2.99c2.52.64 2.1 7.03 1.51 12.31-.05.14-.1.23-.18.37l-.88-6.8c.05-.04.05-.14.1-.18.13-.42.27-.78.32-1.2.04-.41.09-.82.09-1.2-.05-.4-.1-.77-.19-1.19-.09-.36-.22-.73-.45-1.1l-.28 1.1-.14.51-.14.5c-.09.33-.23.65-.36.97l-.19.46c-.04.14-.13.28-.23.41-.09.14-.18.28-.23.42-.09.13-.18.27-.27.36-.1.1-.19.23-.28.33.05-.28.05-.56.1-.83v-.64c0-.1-.05-.23-.05-.37-.05-.14-.05-.23-.1-.37l-1.65.05v.04l-.04.1c-.05.04-.05.13-.1.18l-.22.37c-.19.23-.42.4-.65.6-.41.27-.87.5-1.38.59a7.46 7.46 0 002.8-3.54 6.6 6.6 0 00.42-2.16 6 6 0 00-.14-1.65 4.69 4.69 0 00-.46-1.38l-.23 1.38c-.18.83-.41 2.02-.96 3.26-.28.6-.7 1.24-1.2 1.75-.5.55-1.2.96-1.97 1.28-.78.32-1.61.5-2.53.6-.46.05-.92.05-1.38.1h-.73c-.28 0-.46-.05-.7-.05-.9-.05-1.83-.23-2.7-.46a7.6 7.6 0 01-5.05-4.69 17.1 17.1 0 01-1.02-3.3l-.22-1.02c-.05-.23-.1-.36-.1-.36l-.13.36a7.45 7.45 0 00-.23 4.14c-1.29.78-5.2 3.53-4.37 8.08.32 1.61.37 2.99.23 4.1l-2.3-5.48.1 4.55c0 .92-.05 3.03-.42 4.73l-.78-1.79-3.08 5.65-1.1-2.57-3.63 3.68c-.23 0-.46.04-.73.09 1.2-1.98 4.4-6.16 4.4-6.16zm-.19 6.48h-1.15c-.04 0-.09-.05-.18-.05l.92-.92.41.97zm-6.24 7.76c-.46-1.28-1.38-4.4.45-5.51 2.85-1.65 4.74-.5 5.66.41l.82 1.06h9.7c.27 1.7.91 3.5 2.1 4.73a5.44 5.44 0 004.14 1.6 6.6 6.6 0 005.01-2.01c1.47-1.56 1.98-3.77 2.11-5.65h3.27c.13 1.65.55 3.54 1.47 5.05 0 2.34.78 4.5.78 4.78a5.9 5.9 0 01-.6 1.93 3.51 3.51 0 00-1.24-.23c-3.3 0-6.39-.78-8.32 1.88-1.93 2.67-3.58 4.73-5.92 4.73s-2.53-3.72-1.47-4.64c-2.48-.04-4.41 7.03 1.84 7.77 6.01.69 9.28-4.41 9.28-4.41h4.31v.09c.14.18.78.46 1.75.83a9.7 9.7 0 003.26 1.97v.46h.1l-.15 1.56-.68-.23.5 1.89-1.51-1.24s.68 1.65.6 2.48c-.05.82-1.75 1.24-3.18 1.1-1.47-.14-.73-2.85-.73-2.85l.82.37s-.4-3.26-2.52-3.17c-2.11.1-1.66 2.16-1.66 2.16l.23 1.05s1.1-.36.83.6c-.28.97 1.06 2.99-1.84 3.17-2.84.23-4.91-1.05-4.91-1.05l-2.48-1.89.87.28-.18-1.66-2.99-.04-1.2.55-.45-.87v1.19l-2.12-.83-1.38 1.8.14-1.93v-2.9h.92s-2.7-5-3.44-6.8c-.5-1.28-2.07-5.92-2.07-5.92l-.32-3.82-1.34 4.74-.55-.7-.13 3.45-.97.32v-.04c.05.23-.23.73-1.56 1.1-.74.14-3.58-2.66-5.05-6.7zm.55 21.13l3.17-.96c-.1.6-.19 1.2-.32 1.7a14.35 14.35 0 00-.92-.74l-.28-.18s0 .1-.05.32c0 .19 0 .5.1.88.09.36.23.78.46 1.19.13.23.27.41.41.64.18.23.32.46.5.7.37.45.79.96 1.25 1.42.22.23.45.5.73.73.23.23.5.5.78.74a42.92 42.92 0 003.45 2.94c.6.46 1.24.91 1.84 1.37.6.46 1.23.88 1.83 1.29.64.41 1.24.83 1.8 1.2-.1 0-.24 0-.33.04-1.83.46-1.38 2.94-.96 5.15.13.73.27 1.47.27 1.88 0 .55-.41 1.6-.78 2.66-.36 1.01-.78 2.12-1 3.17l-15.86-16.26 3.9-9.88zM75.23 96.42l.05-.1.55-7.02 26.96-14.38 17.28 17.73c.18.37.5.7.92.97.4.23.87.32 1.47.32 2.89 0 7.99-3.08 9.55-4.04.37.27.87.41 1.47.41h4.5c.14 0 .28 0 .46-.05v4.23a18 18 0 00-2.25.6c-.09-1.1-.5-1.8-.5-1.8l-.1 1.38a1.84 1.84 0 00-1.19-.45c-1.01 0-1.8.78-1.8 1.79 0 .36 0 .69.05.92-.22.13-.4.32-.64.5a23.31 23.31 0 00-4.82 5.28 39.96 39.96 0 00-3.59 6.53 55.1 55.1 0 00-2.61 7.3l-1.2 4.18a7.44 7.44 0 00-1.38-.32c-.27-.05-.55-.05-.87-.05h-.32c-.1-.04-.19-.13-.23-.18a6.28 6.28 0 00-3.54-1.06c-.32 0-.64 0-.96.05-1.56.18-3.13.69-4.64 1.47.27-1.84.23-3.58-.14-5.2a12.3 12.3 0 00-5.33-7.7 16.8 16.8 0 00-8.27-2.67c-.46-.05-.96-.05-1.42-.05-.65 0-1.29.05-1.93.1a2.8 2.8 0 00-.32-.65c-.14-.28-.28-.6-.46-.92l-.5-.87.36.92c.14.32.23.64.32.92.1.18.14.4.18.6-.23.04-.45.04-.68.04-.74.1-1.47.23-2.26.37l-1.33-5.33.46 5.56a35.85 35.85 0 00-5.7 1.83 39.42 39.42 0 00-7.8 4.37c-.92.64-1.8 1.38-2.67 2.06 1.98-9.41 4.82-17.45 4.87-17.59zm116.09 4.5l-.28 1.8a28.4 28.4 0 01-2.25 7.34l-2.7 5.98a67.1 67.1 0 01-3.22 6.24c-.74 1.29-1.34 2.3-1.8 3.13a3.8 3.8 0 013.82-.32 3.87 3.87 0 012.3 3.63l-.05 4.77c0 1.1-.5 2.16-1.33 2.9a51.36 51.36 0 01-3.77 3.03c-.5.37-1.06.78-1.66 1.15-.6.41-1.19.78-1.79 1.1-.64.37-1.24.69-1.83.92-.78.37-1.57.55-2.3.64-.28.05-.5.05-.83.05-.32 0-.64 0-1.06-.05a6.7 6.7 0 01-2.7-.87 8.73 8.73 0 01-1.2-.78c-.41.32-.83.6-1.24.92-.92.6-1.8 1.1-2.71 1.51-1.06.5-2.16.83-3.26.97-.46.04-.88.09-1.29.09a7.9 7.9 0 01-3.44-.78c-.28-.14-.55-.32-.83-.5-1.06.64-2.16 1.19-3.22 1.7a13.66 13.66 0 01-5.33 1.23 6.69 6.69 0 01-4.23-1.33 26.1 26.1 0 01-4 2.11 10.42 10.42 0 01-3.8.83 6.95 6.95 0 01-3.63-1 7.81 7.81 0 01-2.66-2.95c-.24.41-.46.78-.65 1.15-.37.73-.73 1.33-1.1 1.84a7.06 7.06 0 01-1.65 1.65c-.78.6-1.75.97-2.76 1.1-.28.05-.55.05-.83.05a4.93 4.93 0 01-2.7-.78l-.7.41a10.34 10.34 0 01-4.09 1.52c-.36.04-.69.09-1.05.09-1.52 0-2.9-.46-4-1.33-.14.09-.27.18-.46.27-.87.55-1.74 1.06-2.66 1.47a11.66 11.66 0 01-4.37 1.01c-.32 0-.64-.04-.96-.04-.83.5-1.7.96-2.62 1.42a25 25 0 01-6.94 2.25c-.46.05-.87.1-1.28.1a7.14 7.14 0 01-4.1-1.2 9.11 9.11 0 01-3.02-3.54c-.55-1.2-.97-2.52-1.24-4.04-.1-.46-.14-.97-.19-1.42a45.12 45.12 0 01-2.52 6.38 20.52 20.52 0 01-4.1 5.79 10.9 10.9 0 01-6.29 3.08c-.55.09-1.1.09-1.6.09a10.17 10.17 0 01-7.4-3.17 12.05 12.05 0 01-2.44-3.81 19.16 19.16 0 01-1.19-4.1 3.95 3.95 0 01-1.56 3c-1.61 1.19-3.17 2.3-4.73 3.26 0 0-.05 0-.05.04a40.96 40.96 0 01-4.36 2.44c-.78.36-1.57.69-2.35.96-.87.32-1.74.5-2.52.65-.28.04-.55.04-.88.04a6.3 6.3 0 01-4.64-2.07l-.04-.04-.19.13a45.79 45.79 0 01-5.7 3.45c-1.97.97-3.94 1.8-5.92 2.44-1.97.64-3.95 1.1-5.79 1.33-1.05.13-2.1.23-3.12.23-.96 0-1.93-.05-2.85-.19a13.3 13.3 0 01-5.46-2.06 9.78 9.78 0 01-3.68-4.78 12.47 12.47 0 01-.5-6.62c.27-1.97.91-3.95 1.88-5.88a18.77 18.77 0 013.9-5.28 18.34 18.34 0 013.45-2.71 9.72 9.72 0 01-1.43-3.4 14.27 14.27 0 011.33-9.46 17.07 17.07 0 012.58-3.68 20.24 20.24 0 013.35-2.9c1.2-.82 2.48-1.55 3.82-2.15a27.6 27.6 0 0114.33-2.48c2.11.23 4.04.78 5.65 1.6.73.37 1.38.83 1.97 1.3a37.2 37.2 0 013.72-4.91 20.5 20.5 0 013.73-3.32 10.8 10.8 0 015.74-1.98 5.98 5.98 0 015.56 3.5c.41.87.64 1.88.69 2.98a11 11 0 01-.14 2.44 29.39 29.39 0 01-1.38 5.33c-.6 1.7-1.38 3.44-2.2 5.19-.83 1.7-1.8 3.44-2.8 5.19-1.02 1.7-2.03 3.35-3.13 5.05-1.06 1.65-2.11 3.3-3.17 4.87-.05.1-.1.18-.18.28a3.96 3.96 0 012.98-.23 3.97 3.97 0 012.62 2.7l1.15 4.32c-.1-1-.18-2.02-.18-3.07 0-1.52.13-3.08.36-4.6A40.63 40.63 0 0162 125.91a46.64 46.64 0 015.28-6.8c1.98-2.1 4.18-4 6.48-5.7a38.86 38.86 0 017.53-4.17 33.52 33.52 0 018.41-2.3 18.5 18.5 0 014.09-.14c1.38.1 2.71.32 3.95.7 1.29.4 2.53.96 3.58 1.7 1.2.77 2.16 1.74 2.99 2.89a11.25 11.25 0 011.7 3.85c.32 1.43.37 2.95.14 4.6-.14 1.05-.5 2.2-.97 3.35l-.27.6a21.24 21.24 0 013.08-2.07 13.75 13.75 0 014.54-1.56c.28-.05.5-.05.78-.05 1.02 0 1.93.28 2.67.78.23.14.41.33.64.47.28-.05.55-.05.83-.05.23 0 .46 0 .69.05.96.09 1.83.5 2.52 1.1l1.75-6.11a51.74 51.74 0 012.57-7.08 38.98 38.98 0 013.45-6.3 22.43 22.43 0 014.5-4.95c1.88-1.52 4-2.44 6.3-2.71.45-.05.91-.1 1.33-.1.91 0 1.74.14 2.52.42a5.95 5.95 0 013.08 2.62c.55.96.87 2.11.92 3.35.04.87-.05 1.84-.19 2.85a27.43 27.43 0 01-1.23 4.68 47.06 47.06 0 01-2.07 4.92c-.19.41-.37.83-.6 1.24a5.54 5.54 0 013.26 1.38c.55.55 1.01 1.2 1.29 1.97.27-.4.64-.82 1.06-1.19.32-.28.64-.55.96-.78a6.72 6.72 0 01-.74-4.64 9.47 9.47 0 014.78-6.61 9.96 9.96 0 013.63-1.2c.46-.05.87-.1 1.29-.1.41 0 .82.05 1.24.1 1.06.14 2.02.5 2.8 1.1a5.28 5.28 0 012.11 2.85c.37 1.01.46 2.11.28 3.35a9.38 9.38 0 01-2.48 5.2l-.5.5a17.97 17.97 0 014.68-2.71c.32-1.33.69-2.62 1.15-3.77l1.93-5.14a38.61 38.61 0 015.83-10.43 19.21 19.21 0 013.68-3.58 10.13 10.13 0 014.77-2.03c.33-.04.65-.04.97-.04 1.33 0 2.57.37 3.58 1.1a7.09 7.09 0 012.4 3.22c.36 1 .54 2.16.54 3.4.05.82-.04 1.88-.18 2.98zM56.49 133.91a38.65 38.65 0 00-1.84 7.3c0 .14-.05.23-.05.37a5.75 5.75 0 00-1.88-1.01c-.14-.05-.23-.1-.37-.1.5-.82 1.06-1.65 1.57-2.47.91-1.34 1.74-2.72 2.57-4.1z"/>
  <path fill="#31302E" d="M47.71 148.47c-.46.32-.91.69-1.42 1.01-.5.32-.96.64-1.42.92-.46.28-.88.5-1.3.64-.4.19-.73.28-1.05.32-.14 0-.23-.04-.32-.23a3.56 3.56 0 01-.41-1.7c-.05-.36 0-.78.04-1.19l.05-.32c.1-.32.18-.64.32-1.01.14-.32.23-.65.37-.97.14-.32.23-.6.37-.82l.32-.65c.92-1.51 1.88-3.07 2.94-4.64 1.05-1.6 2.07-3.21 3.12-4.82 1.06-1.65 2.07-3.3 3.03-4.96a60.07 60.07 0 004.73-9.7c.56-1.56.97-3.12 1.2-4.59.1-.6.14-1.2.1-1.75 0-.55-.15-1.05-.33-1.47-.18-.4-.5-.73-.92-.96-.41-.23-.96-.27-1.65-.18a7 7 0 00-2.94 1.24c-1.01.69-2.02 1.6-3.03 2.7a39.22 39.22 0 00-2.99 3.82 55.52 55.52 0 00-2.8 4.6c-.46.82-.92 1.74-1.38 2.8 0-.05.04-.14.04-.19a5.9 5.9 0 00-.6-4 6.51 6.51 0 00-2.75-2.57 11.67 11.67 0 00-4.27-1.2 21.57 21.57 0 00-5.15.1c-1.19.14-2.43.41-3.63.78a23.43 23.43 0 00-6.75 3.17 14.84 14.84 0 00-4.68 5.15 10.06 10.06 0 00-1.06 3.26 8.86 8.86 0 00.1 3.49 5.65 5.65 0 001.37 2.71c.69.74 1.6 1.24 2.76 1.6 1.14.33 2.52.38 4.18.2a23.52 23.52 0 00-6.57 1.97c-1.89.92-3.5 2.02-4.83 3.3a15.97 15.97 0 00-4.64 8.92 8.7 8.7 0 00.33 4.6 6.28 6.28 0 002.25 2.93c1 .74 2.3 1.2 3.76 1.43 1.47.22 3.13.22 4.87 0a29 29 0 005.1-1.2c1.8-.55 3.54-1.29 5.33-2.2 1.8-.88 3.5-1.93 5.2-3.13a31.7 31.7 0 003.8-3.17c.05.32.14.65.23.92a6.54 6.54 0 001.38 2.71c.6.64 1.29.92 2.12.78.5-.09 1.1-.23 1.74-.41.64-.23 1.29-.5 1.93-.83.69-.32 1.33-.69 2.02-1.06.7-.36 1.33-.78 1.98-1.14a60.23 60.23 0 004.45-3.08l-1.24-4.69a40.54 40.54 0 01-3.4 2.76zm-3.07-15.71l1.1-3.26s.5-1.2 1.51-3.54a53.34 53.34 0 012.44-5.15 25.39 25.39 0 011.8-2.61c.54-.65 1.05-1.02 1.46-1.06.1 0 .14.14.14.46-.05.32-.1.69-.14 1.15a33.1 33.1 0 01-1.65 4.78 54.62 54.62 0 01-2.53 5.23 93.16 93.16 0 01-2.9 5.15c-1 1.65-1.92 3.17-2.8 4.55a43.7 43.7 0 011.57-5.7zm-5.33 1.42l-1.24 3.9a42.07 42.07 0 00-1.57 6.25 34.03 34.03 0 00-.27 2.9c-.46.55-.97 1.1-1.6 1.65-.84.74-1.75 1.47-2.81 2.16a46.4 46.4 0 01-3.35 2.07c-1.2.64-2.4 1.24-3.63 1.8-1.24.5-2.44.96-3.68 1.32-1.2.37-2.34.65-3.44.78-.88.1-1.66.14-2.4.05a3.18 3.18 0 01-1.78-.74c-.51-.36-.83-.96-1.02-1.65a6.98 6.98 0 01-.04-2.8c.18-1.2.6-2.3 1.33-3.26a12.2 12.2 0 015.84-4.37c1.19-.46 2.38-.78 3.58-.92.55-.09 1.1-.13 1.65-.13l1.47-.14c.92-.14 1.61-.42 1.98-.87.37-.46.64-1.2.78-2.12.04-.32.1-.64.1-1 0-.33.04-.7.04-1.02-.05-.5-.23-.92-.55-1.24a3.16 3.16 0 00-1.3-.73c-.5-.19-1.1-.33-1.74-.42-.64-.09-1.28-.23-1.93-.32-.64-.1-1.28-.28-1.88-.41-.6-.19-1.1-.42-1.56-.78a3.23 3.23 0 01-.97-1.34 4.25 4.25 0 01-.13-2.06 6.64 6.64 0 012.94-4.64 12.14 12.14 0 015.5-1.89c1.11-.13 2.21-.18 3.27-.18 1.1.05 2.11.14 3.08.28.96.13 1.79.36 2.52.6.74.22 1.3.5 1.66.77a95.68 95.68 0 00-1.29 3.17c-.27.83-.46 1.52-.55 2.03-.1.6.05.82.37.82.37-.04.87-.23 1.47-.6a10.48 10.48 0 003.35-2.89c.1-.1.14-.23.23-.32-.32.73-.64 1.52-.96 2.39a95.29 95.29 0 01-1.47 3.9zM156.22 116.27a5.5 5.5 0 002.02-.65 5.5 5.5 0 001.52-1.15c.41-.45.73-.91 1-1.47.24-.5.42-1.05.47-1.6.1-.6.05-1.06-.1-1.47a1.76 1.76 0 00-.68-.92 2.29 2.29 0 00-1.15-.42 7.83 7.83 0 00-1.47 0c-.83.1-1.56.33-2.16.7-.6.36-1.1.73-1.52 1.19-.4.46-.69.92-.91 1.38-.23.46-.37.92-.42 1.24-.18 1.1 0 1.93.55 2.48.6.69 1.56.87 2.85.69z"/>
  <path fill="#31302E" d="M186.36 94.26a2.3 2.3 0 00-1.7-.32c-.97.14-1.98.55-2.94 1.29a15.8 15.8 0 00-2.94 2.89 35.16 35.16 0 00-5.2 9.33c-.68 1.83-1.33 3.53-1.92 5.14-.6 1.6-1.06 3.4-1.43 5.47-1.15.27-2.3.69-3.35 1.24-1.06.6-2.16 1.38-3.26 2.34a16.29 16.29 0 00-2.76 3.22c-.73 1.14-1.42 2.2-2.02 3.26a16.53 16.53 0 00-1.52 3.17 13.69 13.69 0 00-.82 3.12c-.05.19-.05.37-.05.55l-.55.46c-.78.65-1.52 1.2-2.2 1.7-.74.46-1.34.74-1.89.83-.46.05-.73-.1-.83-.5-.09-.42-.09-.97.05-1.66.1-.73.32-1.52.69-2.44.37-.91.64-1.79.92-2.7.27-.92.69-2.03 1.28-3.36a81.96 81.96 0 002.16-5.42c.23-.64.42-1.15.46-1.47.05-.41 0-.73-.18-.92-.19-.23-.6-.27-1.2-.18a7.73 7.73 0 00-2.44.83c-.4.23-.82.5-1.14.82-.37.37-.64.74-.78 1.15-.23.6-.74 1.84-1.6 3.77-.97 2.39-1.61 3.9-1.9 4.6-.08.22-.31.82-.63 1.88a63.3 63.3 0 01-2.8 3.03c-.42.41-.83.78-1.25 1.15-.46.36-.87.73-1.33 1-.46.33-.87.56-1.33.79-.42.23-.83.32-1.2.36-.27.05-.5-.13-.6-.46a3.05 3.05 0 01-.04-1.47c.19-1.14.46-2.3.92-3.4a22.8 22.8 0 012.2-4 28.57 28.57 0 002.21-3.94c.46-1.06.74-2.16.92-3.22.1-.55.1-.96 0-1.28a2.2 2.2 0 00-.37-.74 1.1 1.1 0 00-.6-.32c-.23-.05-.4-.05-.6-.05-.73.1-1.5.46-2.43 1.15-.92.7-2.11 1.75-3.58 3.22a59.52 59.52 0 00-3.58 3.86 91.83 91.83 0 00-2.49 3.07l-.4-.27c.64-1.06 1.42-2.3 2.29-3.68.87-1.37 1.74-2.89 2.66-4.45.92-1.56 1.84-3.17 2.71-4.83.92-1.65 1.7-3.3 2.48-4.87.74-1.6 1.38-3.12 1.93-4.59.56-1.47.88-2.76 1.06-3.95.14-.78.18-1.47.14-2.11a3.13 3.13 0 00-.42-1.56 2 2 0 00-1.1-.92 3.7 3.7 0 00-1.93-.1 8.68 8.68 0 00-4.36 1.93 19 19 0 00-3.72 4.1 32.85 32.85 0 00-3.08 5.64 62.12 62.12 0 00-2.39 6.57c-.64 2.3-1.29 4.6-1.98 6.9-.64 2.29-1.19 4.5-1.65 6.65-.37 1.89-.69 3.63-.96 5.2-.5.64-1.06 1.24-1.56 1.74-.37.41-.74.78-1.15 1.15-.42.37-.79.73-1.2 1.01a13 13 0 01-1.15.78c-.36.23-.73.32-1 .37-.42.04-.7-.1-.74-.5-.05-.38-.05-.93.04-1.66.14-.83.42-1.88.83-3.13.41-1.24.83-2.38 1.15-3.35.32-.96.64-1.93.92-2.85.27-.91.5-1.74.6-2.52.09-.5.09-.88.04-1.15a1.47 1.47 0 00-.23-.6c-.14-.14-.27-.23-.46-.23h-.64c-.19 0-.32.05-.5.1-.19.04-.37.04-.51.08-.19.05-.37.05-.55.05a2.3 2.3 0 01-.55-.1.73.73 0 01-.42-.31c-.09-.14-.18-.32-.27-.5a.9.9 0 00-.42-.42c-.18-.14-.46-.14-.78-.1-1.05.14-2.11.51-3.17 1.11-1.05.6-2.11 1.33-3.17 2.25a31.35 31.35 0 00-2.94 3.08 31.86 31.86 0 00-2.7 4 31.73 31.73 0 00-2.08 4.18c-.5 1.28-.82 2.48-1 3.67-.1.78-.14 1.47-.05 2.07-.32.23-.64.41-.97.64-.69.41-1.33.74-1.97 1.01-.65.28-1.2.41-1.7.5-.55.1-.97-.04-1.2-.36a3 3 0 01-.6-1.33 10.8 10.8 0 01-.27-1.93c-.1-.74-.14-1.47-.18-2.25-.05-.78-.14-1.61-.32-2.53-.19-.87-.46-1.7-.83-2.43a6.38 6.38 0 00-1.43-1.89 5.1 5.1 0 00-2.38-1.2c1.74-.31 3.35-.77 4.77-1.37a25.9 25.9 0 003.9-1.98 18.75 18.75 0 005.33-4.96c.6-.87 1.11-1.74 1.48-2.62.36-.87.6-1.65.73-2.43a7.5 7.5 0 00-1.1-5.6 6.72 6.72 0 00-1.93-1.84c-.78-.5-1.6-.92-2.57-1.2a15.92 15.92 0 00-6.34-.46c-2.53.33-5 1.01-7.4 2.03a34.75 34.75 0 00-6.75 3.76 41.77 41.77 0 00-5.93 5.15 40.45 40.45 0 00-8.31 13.1 34.96 34.96 0 00-1.93 7.2 29.28 29.28 0 00-.32 4c0 1.33.09 2.62.32 3.81.23 1.24.55 2.34.96 3.35a10.6 10.6 0 001.66 2.62 6.27 6.27 0 005.65 1.89 7.07 7.07 0 004.09-2.02 16.5 16.5 0 003.26-4.69 46.26 46.26 0 002.7-7.17c.84-2.75 1.75-5.88 2.72-9.32l1.56-.19a1.5 1.5 0 011.52.65c.36.5.6 1.24.73 2.16.14.91.28 2.02.32 3.26.1 1.24.14 2.39.19 3.44.04 1.06.18 2.16.36 3.31.19 1.15.51 2.11.88 2.99.41.82.96 1.51 1.65 1.97.69.46 1.6.6 2.71.46a17.1 17.1 0 005.74-1.88c.88-.46 1.7-.87 2.48-1.38.42-.28.83-.5 1.15-.74l.28.14c.64.23 1.33.28 2.02.19.69-.1 1.38-.28 2.11-.6a15.24 15.24 0 004.04-2.62c.6-.5 1.1-1.01 1.57-1.52.27 1.2.73 2.07 1.28 2.62.56.56 1.34.78 2.35.65.82-.1 1.7-.42 2.57-.97a19.32 19.32 0 004.09-3.35c0 .09 0 .18-.05.27-.04.6-.04 1.1.05 1.52.09.46.23.78.5 1.01.23.23.6.32 1.1.28.37-.05.7-.19.97-.37.28-.19.5-.46.78-.78.23-.32.5-.78.83-1.33a64.36 64.36 0 013.95-6.3 84.73 84.73 0 012.9-3.86 48.56 48.56 0 012.47-2.9c.74-.77 1.2-1.28 1.47-1.46h.46c-.04.05-.18.23-.36.55-.19.32-.46.73-.74 1.24-.28.5-.6 1.06-.92 1.7-.32.64-.64 1.29-.92 1.93-.27.64-.55 1.29-.78 1.93-.23.64-.36 1.2-.46 1.7-.09.73-.14 1.47-.04 2.25.09.78.27 1.47.55 2.11.32.65.73 1.1 1.28 1.47.56.37 1.25.46 2.12.37.55-.1 1.1-.23 1.74-.5.65-.28 1.24-.56 1.89-.92a30.23 30.23 0 003.72-2.39c.5-.37.96-.74 1.42-1.06v1.01c.05.55.23 1.01.5 1.38.28.37.65.64 1.16.78.5.14 1.14.19 1.93.1.87-.1 1.83-.42 2.84-.88a32.1 32.1 0 003.03-1.6c.88-.56 1.75-1.11 2.53-1.75.1.27.23.5.37.78.37.64.87 1.1 1.52 1.47a4.5 4.5 0 002.43.32c.69-.1 1.42-.32 2.11-.64.74-.33 1.47-.74 2.16-1.24.74-.51 1.47-1.06 2.16-1.66.7-.64 1.38-1.28 2.02-1.93.23.92.55 1.61.97 2.16.41.5.82.87 1.28 1.15.46.23.88.37 1.29.41.41.05.73.05.92.05.37-.05.78-.18 1.24-.37.46-.18.96-.46 1.42-.73.5-.28 1.01-.6 1.52-.97.5-.36 1.01-.69 1.52-1.05 1.14-.88 2.3-1.8 3.53-2.85l.05-4.78a61.06 61.06 0 01-2.9 2.48c-.4.32-.82.64-1.24.92-.4.32-.82.6-1.24.83-.41.27-.78.45-1.14.64-.37.18-.7.28-.97.32a.88.88 0 01-.69-.18 1.65 1.65 0 01-.37-.7c-.09-.31-.09-.63-.09-1.05 0-.41.05-.83.14-1.28.05-.37.14-.74.23-1.15.1-.42.23-.78.37-1.15.13-.37.23-.74.36-1.06.14-.32.23-.6.37-.83.5-1.05 1.66-3.07 3.36-6.06a59.83 59.83 0 003.03-5.88c.87-1.97 1.79-3.95 2.7-5.97a25.1 25.1 0 001.94-6.39l.27-1.7c.14-.87.19-1.74.19-2.57 0-.83-.14-1.52-.33-2.11a4.8 4.8 0 00-1.14-1.52zm-103.87 35.7c.46-1.34.92-2.58 1.38-3.59.46-1.05.73-1.88.87-2.48l.05-.23c.09-.55.04-1-.19-1.33-.18-.32-.69-.46-1.42-.32-.6.09-1.1.27-1.52.6-.46.32-.82.69-1.2 1.14-.36.46-.64.97-.91 1.47-.23.56-.46 1.06-.64 1.57-.19.5-.28.96-.42 1.37-.09.42-.18.78-.23 1.1v-.04c-.09 0-.27.05-.55.1-.27.04-.6.09-.96.18-.37.04-.7.13-1.01.18-.33.05-.5.1-.65.1a1.2 1.2 0 00-.6.27c-.18.18-.27.36-.4.55-.1.23-.2.46-.24.69l-.13.64c-.1.64.13 1.15.64 1.52.55.41 1.33.78 2.39 1.2-.05.36-.14.86-.28 1.55l-.5 2.35c-.23.87-.46 1.83-.7 2.84-.22 1.02-.5 2.03-.73 3.04a19.37 19.37 0 01-.92 2.9c-.36.96-.73 1.78-1.15 2.52a8.17 8.17 0 01-1.28 1.79c-.46.46-.92.73-1.43.78a3.02 3.02 0 01-2.43-.6 4.47 4.47 0 01-1.38-2.25c-.32-.96-.46-2.06-.46-3.3 0-1.25.05-2.49.28-3.77.23-1.66.64-3.4 1.2-5.24a34.93 34.93 0 015.5-10.93 28.65 28.65 0 014.41-4.73 24.21 24.21 0 0112.45-5.56c1.34-.19 2.53-.19 3.5 0 .96.18 1.74.5 2.38.96a3.7 3.7 0 011.47 3.77 8.1 8.1 0 01-.96 2.57c-.5.92-1.33 1.8-2.44 2.66-1.1.88-2.52 1.61-4.27 2.35-1.79.69-3.95 1.2-6.52 1.6zm27.8 6.93c-.15.5-.38 1.15-.7 1.93-.32.78-.69 1.56-1.15 2.3-.45.73-.91 1.42-1.47 1.97-.5.56-1.05.88-1.6.97-.37.04-.6 0-.83-.19a1.3 1.3 0 01-.41-.64c-.1-.27-.14-.6-.14-.96a9.67 9.67 0 01.69-3.36c.27-.78.73-1.74 1.28-2.8.56-1.06 1.15-1.97 1.66-2.76.55-.73 1.1-1.42 1.7-2.06.6-.6 1.2-1.1 1.84-1.52a4.6 4.6 0 011.88-.73l-2.76 7.85zm17.4-7.71c.46-1.8.97-3.63 1.56-5.56.24-.78.46-1.66.74-2.58.28-.92.5-1.83.78-2.75.28-.92.6-1.89.92-2.85.37-.97.74-1.88 1.1-2.76a73.08 73.08 0 013.59-6.15c.96-1.43 1.65-2.16 2.02-2.2.32-.05.41.54.23 1.7-.14.77-.5 2.01-1.15 3.71-.64 1.7-1.61 3.82-2.85 6.3-.37.73-.83 1.65-1.42 2.7-.56 1.06-1.15 2.21-1.8 3.4-.64 1.2-1.28 2.4-1.92 3.64a193.2 193.2 0 01-1.8 3.4zm42-7.08c-.06.32-.1.74-.15 1.29-.09.5-.13 1.1-.23 1.7l-.32 2.43a47 47 0 00-.27 2.2c-.05.47-.05.83-.05 1.06-.46.83-.96 1.61-1.47 2.3-.23.32-.46.6-.73.87-.28.28-.51.55-.79.78-.27.23-.55.42-.82.6-.28.14-.55.28-.83.28-.5.09-.96.04-1.24 0-.32-.1-.55-.19-.69-.37a1.43 1.43 0 01-.27-.6 1.97 1.97 0 010-.73c.13-.78.36-1.7.78-2.71a45.7 45.7 0 011.7-3.68 14.08 14.08 0 012.43-3.54 15.7 15.7 0 012.94-2.34c.05-.05.05.14 0 .46zm13.59-20.49c-.1.64-.28 1.52-.55 2.62-.19.83-.46 1.75-.78 2.66-.32.97-.7 1.93-1.15 2.9-.42.96-.83 1.97-1.29 2.94-.41 1.01-.87 1.93-1.28 2.85a172.38 172.38 0 01-3.27 6.52l.05-.23c.05-.23.1-.6.14-1.01.04-.46.14-.97.27-1.56.1-.6.23-1.24.37-1.98.14-.73.32-1.47.5-2.25l.47-1.93c.23-.92.46-1.93.78-3.08.32-1.14.69-2.3 1.15-3.53.46-1.2.87-2.35 1.28-3.36.41-1 .83-1.88 1.33-2.57.5-.69.97-1.06 1.47-1.1.28-.05.46.1.55.41.1.28.1.88-.04 1.7z"/>
</svg>