<svg xmlns="http://www.w3.org/2000/svg" fill="none" viewBox="0 0 193 191">
  <g fill="#31302E" opacity=".1">
    <path d="M137.4 23.6c6-.8 8.4-.3 8.4-.3L148 28s6-9.3.2-17.4l-1 1.4s-.4-3-3.1-4.1c0 0-4.1 8.5-10 7.5S126 5.2 126 5.2s-2.9 6-3.1 7.4c-.3 1.5-3.5 2.1-3.5 3.6s-2.1-1-2.1-1l-.2 9-2.3 1-5 4-2 5.8 5.2.7.9.3.4 2.4S111.8 36 109 37c-2 .7-1.8 4.3.6 8.1 2.3 3.8 4 3.7 4 3.7l-1.4 1.3s.8 11.6.1 13.8c-.7 2.1.8 5.5 4.1 7.3 2.9 1.6 11.8 7.2 14.4 8.9l.5.9-.5 2.8h-4.1l2.9.9-2.8 3.3 2.6-.6-2.9 2h-.3s-.8.6-2 1c-1 0-1-2.3-.4-3.8v-.1c1-1.7.3.6.3.6s1.5-1.6 1-3.2c-.3-1.5-2.5-4.1-1.5-5.1 0 0-.8-.7-1.2-.2-.4.4.6 5 .2 5.9-.4.6-1.4 4.4-1.4 6.6l-.8-.2c-1.8-1-17-16.3-17-16.3L120 95.5s2 1.1 4.5.5l8-2.2s-.7 2.3.2 4.2c0 0 2.1-1.5 4-2.3 2-.8 5.2-.4 5.2-.4s7.2 1.9 8-2l-1-.7c1.6-.8 1.9-3.1 1.5-4.5l-1.4-6.2-1.7 2.3s1.4 2 1.3 3.3c0 1.3.3 2.4-2.1 1.5l-3.7-2.5 1-.3-.9-.5.7-1-2.6-1.3-.9-1.4s.2 4.9-1.3 5.7h-.6c-1 0-2.1.2-3.2.4-.8-.1-1.5-.4-1.7-1v-1.6l.5.8.3-5-.7 1.3s-1-1.8.2-3c0 0-1.3 0-2 .7 1.3-1.9 3.8-1.3 5.2-1.5 1.6-.2 2.8.1 4.4-.2 1.6-.3 3.7-5.6 3.7-5.6l3.5-3.6-.7-8.4-2.4.3-2.1 2.7-3.8-.2-7.2 1.5-3.5-2.7-.4-1 8.5-5.8s4-.6 4.8-.3a64 64 0 014.2 3l1.3-2.7-3.6-2.6s-3.8-.4-5.4-.4c-1.6 0-6.3 3.2-6.7 3.8-.4.6-5.7-.2-7-1.2-1.1-1 .4-6 .4-6-1 0-2.2 2-2.2 2s-2-6.1-2-7.5 2.2-1.6 2.2-1.6c.9 1.4 3.2 5 7.4 4.8 4.1-.3 5.8-4.6 5.8-4.6v2c2.3-1.4 1.6-4.7 2-5.7.4-1 3-.6 3-.6s1.4 4 3.3 4.8c2 .9 4.3-.3 4.3-.3s.4-4.7 1-6c.5-1.2-.7-2.7-.7-2.7s-6 0-7.1.2c-1.2.2-1.2 1.8-1.2 1.8h-4.5l-.2-1.8s-8.8-.4-10.5-.2c-1.7.3-2.8 2.3-2.8 2.3l-6-1.6.3-.8 2.2.6 4.5-4.6s2-3.8 1.8-9.5c2.8 1.7 5.9 4 12 3.2zm-49 73v5.5L84.2 96s1 6.6.7 11.1l9.8-1.3a20.2 20.2 0 00-6.3-9.1zm80.3-32c-3.2-3-2.4-4.2-2.4-4.2s-.6-.2-1.4 1.3c-.8 1.5 2.5 4.3 2.5 4.3.8.5 2.1 2.2 3.4 4l-.9 1.2c.4-.5.8-.7 1.1-1l3 4.4c0-2.2-2-7.1-5.3-10zm-4.2 1.7v1.9l2.8 3.4 1 2.9-1.7 2.6-3.2 4.7.5 4-2.4 2.2-.9 8.5.9 1.3-.2 4v2.5l2 1c0-4.4.7-7.3.7-7.3-.7-5.4.8-8.7.8-8.7l1.6-.1c-.1-.8-.6-6.4 1.3-8.1 1.9-1.8 4-5.9 2-9.3-1.8-3.4-5.2-5.5-5.2-5.5zm17.8-3.5c-1.7-.8-.7-2.8-.7-2.8l-2.5 1.4 1.2 2.5 2 6.5 3-1.2c-2.8-.9-3-6.4-3-6.4zm-12.7-3.3c-1.6.4-1.5 1.7-1.5 1.7 2.5 1 5 3.7 6.8 6.1a9 9 0 00-1.3 1.5c.6-.5 1.2-.8 1.6-1a43 43 0 013 5c-1.2-7.6-8.6-13.3-8.6-13.3z"/>
    <path d="M176.2 67a9 9 0 012.9-1.4l-.5-1-2.4 2.4z"/>
  </g>
  <path fill="#31302E" d="M43.3 168c-.2-.2-.3-.2-.4-.1l-.3.4v.3l1.9 1.5c0 .1.2.2.3.1l.3-.4v-.3l-1.8-1.6zm11.8 1.7a2 2 0 00-.4-.2l-2.3-1.5-.3-.3-.2.3-.5.7-.1.2h-.1v.2h.1l.6.3s0-.2.3-.4l.1-.3c.2 0 .2.1.3.2l.2.1-.2.3-4 6-.2.2h-.2l-.1-.1H48l-.2.3-.3.3.4.3.4.2.6.4.2-.3.3-.3h-.1l-.2-.1c-.1-.1-.1-.1 0-.2l.6-1L53 170l.3-.3.1-.2.3.2.2.2-.1.2-.3.4v.1l.2.2.3.2.5-.7.4-.6h.2zm6.9 4l-2.4-1.2-.2-.1c-.3 0-.5.1-.7.4l-3.7 7.1v.3c0 .3.1.5.3.6l2.3 1.2h.3c.3 0 .5 0 .7-.4l3.6-7 .1-.3c0-.3-.1-.5-.3-.6zm-.8 1.2l-.4.8L58 181v.1h-.3l-1.7-.8h-.1c0-.1-.1-.1 0-.2v-.1l3.3-6.5.1-.2.2-.2.2.1 1.7.9c0 .4 0 .6-.2.8zm9.2 2.3h-.2l-.4-.2-1.7-.7-1.4-.5-.1.2-.1.3v.2l.3.2.4.1-.1.4-.1.2-.1.4-2.3 6.1v.3l-.4-.1H64l-.3-.2-.2.5v.2h.1l1.2.4 2.4 1h.4l.4-.4v-.3l1-2.5v-.2-.2-.4l-.5-.4v-.1h.4c.3 0 .5-.1.6-.3l1-3 .1-.2c.2-.5 0-.7-.2-.8zm-2 5.1l-1 3H67l-1.3-.5h-.2l-.2-.2.7-2 .5-1.5h.2l1 .3.5.6c.1.1.2.2.1.3zM70 178l-.7 2-.1.3a.5.5 0 01-.1.2l-1 .3-.3-.1-.7-.3-.1-.1.5-1.5.6-1.6h.2l1.7.6v.2zm8.3 10.3H78V187.7v-1.3-2.4-1l.2-2.4v-1.2H78l-.4-.1v.1l-.2.3-.1.2-.7 1.6-.7 1.8-.8 2-.5 1.1-.4.9h-.5l-.2.6.7.2 1 .2.2-.7a.2.2 0 01-.2 0h-.2v-.1l.2-.6v-.3l.3-.3h.2l.4.1.3.1.5.1.5.1v1.3h-.4l-.1.3v.3l1 .2.7.2v-.7h-.2zm-.8-6.5v.7l-.2 2.8v.6h-.5c-.3-.2-.6-.2-.7-.2l-.3-.1-.2-.1.8-1.8.9-2.2c0-.4.2-.6.2-.6V181.8zm10.4-1v.4h-.1l-.4-.3a.3.3 0 01-.2-.1H87l-1.4-.2h-.3l-.3.4-.7 8v.4a1 1 0 00.3.3l.2.1 1 .1 1.3.1h.2l.5-.1.2-.2v-.4l.3-2.2h-.8l-.2 2.2h-2.2l-.1-.1.6-7.7v-.2h.2l1 .1h.1l.4.1h.1l.3.4v1.7h.3l.4.1v-.6l.2-2.2H88zm8.7 6.5h-.3l.1 2.3h-2.1L94 182v-.2h1.8c.2 0 .2.2.3.4v1.7h.9v-.7l-.1-2.1H96V181.3H96l-.4-.3h-1.9l-.4.2a.6.6 0 00-.1.4l.2 8v.3l.3.4H96.5c.2 0 .3 0 .4-.2l.2-.2v-2.7h-.5zm8.9-6.7s0-.2-.2-.3a.7.7 0 00-.6-.3l-2.6.4-.2.1c-.3.2-.4.4-.4.7l1.3 8v.2l.7.3 2.6-.4.3-.1c.2-.2.3-.4.2-.8l-1.2-7.8zm.4 8h-.2l-1.9.3h-.2v-.2l-1.2-7.1v-.5h.2l1.9-.3h.1l.2.7.1.8 1 5.9V188.5zm17.3-4.9v-.2l-.3.1h-.2-.1l-2.3-6-.3-.7v-.2l-.2-.3h.2l.3-.1-.3-.7a6 6 0 01-.8.2l-.1.1-.7.3.1.3.1.4.4-.1h.1l1 2.8.2.3h-.2l-1.5.6-.4.2a.3.3 0 010-.2l-.2-.3c0-.3-.3-.9-.7-1.8l-.3-.9h.3l.1-.1-.2-.7-.8.2-.2.1-.7.3.2.6v.1h.5l2.8 7.1-.4.2.2.5.1.2h.3l.5-.3h.1l.7-.3v-.3h-.1l-.2-.4-.4.1a.8.8 0 01-.1-.2l-.7-2-.5-1.1v-.1l.4-.2.7-.2h.1l.5-.3h.4v.1l1.3 3.2-.2.2h-.2v.1l.2.4.2.2.5-.1.6-.3.5-.2-.1-.2-.2-.4zm4.8-11.3l-.3-.3a.7.7 0 00-.7 0l-2.3 1.2-.2.2c-.2.2-.2.4 0 .7l3.9 7c0 .2 0 .2.2.3h.6l2.3-1.2a.8.8 0 00.2-.2c.2-.3.2-.5 0-.9l-3.7-6.8zm3 7.3l-.1.2-1.7.9h-.2l-3.6-6.5-.1-.2v-.2l.1-.1 1.7-1h.2l.3.6.5.8 2.8 5.1.1.2v.2zm9-6.2l-4.3-5.8-.1-.2v-.1l.3-.2-.2-.3-.2-.3c-.2 0-.3.1-.3.2l-.8.6-.4.2.3.4.2.3.2-.2h.2l.2.2 4.4 6v.2l-1.7 1.2h-.1l-4.5-6.1V169.3l.2-.2-.1-.1-.3-.5-.3.2-1.1.8.2.4.3.3.2-.2.1-.1.3.3 4.4 6 .2.3.8-.1 2-1.5a.8.8 0 00.3-.5 1 1 0 00-.2-.5l-.2-.4zm6-7.6v-.1a1 1 0 00-.7-.2l-.7-.1-3-.4-.3-.1-.2-.3-.6-.6-.4-.4-.1-.2.4-.4.6-.5.2-.1.2-.1h.4l.5.6.2.3.3.3h.1l.2-.1.4-.3-1.9-2.1-.4.3-.2.3h.2v.2l-.4.1h-.1l-.3.2-1.1 1c-.2.1-.2.3-.2.5l.1.3.2.1 1.4 1.6.3.1.7.1 3.3.5h.2l1.4 1.6h.1l-.4.5-.6.5-.2.1-.2.1a.5.5 0 01-.3 0l-.4-.3-.2-.2-.1-.2-.3-.2-.2-.2-.2.2-.2.1-.2.2.2.2.8.8.8 1 .1.1.4-.3.2-.2-.1-.2h-.1l.2-.1h.2l.2-.2h.2l.5-.6.2-.2.4-.3.2-.2-.1-.6-1.5-1.9zm8-5.7l-.7-.6-.3.4-.2.2.4.3.3.2-.1.2-.2.2-.4.5-.3.2-.1-.1-.3-.2-1.8-1.6c-.2 0-.2-.1-.4-.3l-.2-.1v-.1l.3-.3.2-.2.4-.4.3-.5-.2-.2-.3-.2-.3.3-.6.8-.3.4-.2-.2c-.2 0-.3-.1-.3-.2l-1.8-1.5-.3-.2-.2-.2.4-.4.5-.6h.2l.6.4.1-.2.3-.4-.2-.1-.9-.8h-.2l-2.1 2.5-.3.4s.1.2.3.2l.3.3.3-.3.1-.2c.1-.1.2-.1.2 0l1 .7 4.9 4v.2l-.1.3-.3.3.3.3c.2 0 .2.2.3.2l2.4-3-.4-.4zm3.1-8.1l-.5-.3s-.2 0-.3.2l-1.3 1.9v.3l.5.3s.2 0 .3-.2l1.3-1.9v-.3zM12.2 105.7h.3l3.2.4c.2 0 .4 0 .5-.2l1-.6 4.4-2.8a.8.8 0 01.3-.1l3.1.4h.2l.1.1-.1 1-.1 1-.2.4v.4a.9.9 0 01-.6.3h-1.1l-.5-.1h-.5l-.5-.1v.5l-.1.3v.5h.2l1.9.2 1.9.3h.2l.1-.6v-.6h-.3l-.2-.1.1-.2c.2-.1.3-.2.3-.4l.1-.2.1-.3.2-1.1v-.4l.1-.9v-.4l-.7-.6-3.5-.4h-.3a2.4 2.4 0 00-1 .3l-.8.6-4 2.6-.5.2H15l-1.2-.2-1-.1a.8.8 0 01-.2-.1v-1l.2-1.1.1-.4c0-.2 0-.3.2-.4a1 1 0 01.5-.2h1.2l.5.1.7.1h.2l.1-.5v-.7l-4.2-.6-.1.8v.5h.5l-.1.3c-.2 0-.2.2-.3.3l-.1.2-.2.3-.2 2.5c0 .2 0 .5.2.7l.4.1zm2.4-12.8v-.4h.3l10.3 3.1 1 .3-.2.5v.2l.7.2.5.2.8-2.5-.5-.1-.7-.2v.2h-.1l-.2.5-1-.3-6.9-2-.4-.3 6 .2 2.8.1v-.2l-1.5-1c-3.1-2-5-3-5.6-3.4a.4.4 0 01-.2-.2l8.2 2.4v.3l-.2.4.8.2.4.1.8-2.4-.5-.2-.5-.1a1 1 0 01-.2-.1l-.3.6h-.4L18 86l-1.2-.4.1-.5V85l-.6-.2-.5-.1-.2.3c0 .2 0 .4-.2.6l-.2.6v.1l.2.2 4 2.3 4.3 2.5-.3.1h-.9l-8.2-.4a1 1 0 00-.5 0v.2l-.3.6c0 .4 0 .7-.2 1l1.2.3h.1zm4.7-14.5l11.3 5.7.4.1c.4 0 .7-.2 1-.6l1.8-3.6v-.4c0-.5-.1-.9-.6-1.1l-11-5.5a2.3 2.3 0 00-.5-.2c-.5 0-.8.2-1 .6L19 77v.3c-.2.5 0 .8.4 1zm.8-1.4l1.4-2.6s0-.2.2-.3l1 .5 1.1.6 8.3 4.2.3.2h.1v.4L31 82.7v.1l-.3.1-10.2-5.3-.4-.1a1 1 0 01-.2-.2 1 1 0 01.1-.3zm5.2-10.2l.5.4.4-.5h.2l9.1 6.8.2.2h.1v.3l-.3.4.6.4.4.3 1.2-1.6.3-.5-.4-.3-.6-.4-.3.4s-.1.1-.2 0L33 70.2l-1-.7.2-.1 1.4.2 4.6 1-.1.1-.2.3c.2.1.3.3.5.3h.1l.4.4 1.3-1.7.3-.4-.3-.2-.2-.2-.4-.3-.3.3-.2.2-5.8-1.1-1-.2c-1.4-2.8-2.4-4.6-3-5.5l.1-.4.2-.1h-.1l-.4-.4-.6-.5-1.6 2.1c.3.2.5.3.5.5l.5.3.3-.5.2.2 2.5 4.7v.2l-1.1-.8-3-2v-.3l.3-.4-.3-.3-.6-.5-1 1.4-.5.5v.2s.2 0 .5.3zm9-10.4l.5-.5.3-.3h.3l1.2 1.3 7 7.2s.1.2 0 .2l-.3.4-.5.5.4.4.4.4 4.3-4.1-.6-.7-1.1-1.2s-.2.3-.6.5l-.3.4.6.6.3.4-.2.2-.3.3-.6.6-.5.4-.2-.2-.4-.4-2.7-2.7-.5-.5-.2-.3.1-.1.4-.4.2-.2.8-.7.6-.7s.1 0 0 0l-.4-.4-.3-.3a5.5 5.5 0 01-.6.4l-1 1.1-.6.5-.3-.2-.4-.4-2.5-2.5-.5-.5-.2-.3.6-.6.9-.8V53h.3l.8.9.3-.3.5-.5-.3-.3-1.3-1.3c0-.1-.1-.1-.2 0l-3.7 3.6-.5.5.4.4c.1 0 .3 0 .6.3zm16.4-13.3l1.6 2.9.4.3 1.1.5 4.8 1.8c.2 0 .3.1.3.2l1.5 2.7.1.3-.7.4-1 .6-.4.1-.3.1a1 1 0 01-.6-.2l-.4-.6-.2-.3-.3-.4-.2-.5-.3-.4-.4.2-.3.1-.4.3.2.2.9 1.7.9 1.6.1.2a6 6 0 00.6-.3c.3 0 .4-.2.5-.3l-.1-.3-.1-.2H59.3l1-.6.3-.2.8-.4.3-.3a1 1 0 000-1l-1.7-3-.2-.2a2 2 0 00-.7-.6l-1-.4-4.5-1.7-.4-.2-.3-.5-.6-1.1-.4-.8-.1-.3.8-.4 1-.6.5-.1.3-.1c.2 0 .3 0 .5.3l.7 1 .2.4.3.6.1.2.4-.2.7-.3-2.1-3.8-.7.3-.4.3v.2l.2.3h-.7a.5.5 0 00-.3 0l-.3.1-2.2 1.2c-.2.1-.3.4-.4.7v.4h.3zm11.1-6v.2l.8-.2 4 11.4-.6.3.3.8.2.4.5-.2.7-.2h.1L69 49l-.2-.5v-.1l-.2-.6c-.3.2-.5.2-.7.2l-.2-.4-1-3-.7-1.9v-.1l.6-.3 1-.3h.2l1-.4.4-.1.1.3 1.8 5-.3.3h-.3l.1.3.2.6.2.4.8-.3 1-.4.7-.2-.1-.4-.2-.5v-.2l-.1-.1-.3.1-.3.1-.2-.1-3.4-9.5-.3-1-.2-.4v-.4l.2-.2h.4v-.1l-.4-1.1-1.2.4h-.2l-1.2.5.2.6.2.5.5-.1h.2l1.6 4.3c0 .2 0 .4.2.5l-.4.2-2.3.9-.7.2-.1-.3-.2-.5a65.8 65.8 0 00-1-2.8 14.6 14.6 0 01-.4-1.4l.3-.2h.3l-.4-1.2-1.1.4-.3.1-1.1.4.3.8zm16 8.1l.2.5c.3.2.6.4 1 .3l4-.7.4-.1c.4-.3.5-.6.4-1.2l-2-12.1c0-.2-.2-.3-.3-.5-.3-.4-.6-.5-1-.4l-4.1.7a.5.5 0 00-.3.1 1 1 0 00-.5 1l2.3 12.4zM77 32.7h.3l3-.6h.3l.1 1.1.3 1.3 1.5 9.2v.4h.1c0 .1 0 .2-.3.2l-3 .5H79v-.2l-1.9-11.2V33l-.1-.3zm12-1.4h.3v12l-.2.1h-.5v1.3h2.6v-1.3h-.6V39l.4-.1h2.5l1-.1c.3-.3.6-.5.6-.9v-7c0-.2-.2-.4-.5-.6l-.4-.2h-4.5l-.9.1h-.2v1.3l.4-.2zm1.6-.2h3.1v.3l.1 6v.3h-3l-.1-.2v-6.1c-.2-.2-.2-.3-.1-.3zm42.1 5h-6l2.1.9 1.9.1s.6.6 1.3.6c.8 0 1.2-.7 1.2-.7h.7s-.7-1-1.2-1zm31 58c-.6.1-1.1.6-1 1.2 0 .6.5 1.1 1.1 1 .6 0 1.1-.5 1-1 0-.7-.4-1.2-1-1.1zm-18.4-55.6s1.5.6 1.2-1c0 0-.2.8-1.2 1zM112.9 43v-.5-.5-1l-.1-.5-.3-.6-.2-.5-.4-.4a4 4 0 00-1.4-1.1l-1.2-.3h-.5l.3.3a15.4 15.4 0 011.3 1.4l.4.6c0 .1 0 .3.2.3l.1.4v.2h-1.7l2 1.5V46l.3-.3.3-.4.4-.6.3-.8c0-.3 0-.6.2-1zm18.3-4.3s-2.2-.3-3.3-1.1c0 0 1 1.7 3.3 1zm5.3 9h2.4s-1.2-1.3-2.6-.7c0 0-.7.7.2.6zm-3 0l.2.3h.1l.1.2.2.1.2.1h.5l-.1-.1-.1-.2-.1-.2-.1-.3v-.2-1.1V45.1h-.2l-.4.4-.2.3-.2.3-.1.3v1l.2.4z"/>
  <path fill="#31302E" d="M192.5 93.8a8.5 8.5 0 00-3-4 7.7 7.7 0 00-5.6-1.3 11.4 11.4 0 00-5.5 2.4c-.2 0-.3.1-.5.3l-.7-4.4a3.2 3.2 0 00-.9-1.3 3.2 3.2 0 00-1.2-.5v-.3-.1c0-.2.2-.4.3-.5l1-1 .6-.5.7-.5 1.4-1a38.4 38.4 0 004-3.2l.7-.7.5-.8 3.7-4 .9-1 .2-.2.2-.2.2-.2c.3-.3.3-.5.3-.7v-.7a6 6 0 00-.6-1.5l-.7-1.3-.6-1.1c1.3-2 2.1-5 2.1-5 1.2-4-1.8-4.1-5-4.2-2.6-.1-1.9 2-1.9 2l-.3 1.3a5.4 5.4 0 00-1.3-.5c-.3-.1-.6-.2-1-.1a2 2 0 00-1 .3 4.5 4.5 0 00-2.6-.6c-1 0-1.7.4-2.5 1l-.9-.4a7.2 7.2 0 00-2.4-1 4.2 4.2 0 00-1.6.1 3.5 3.5 0 00-1.2.7l-.2.1-.2.2-.2.1c-4-1-7.8-2.1-10.5-2.9l-4.5-1c1.2-1.7 1.4-4.6-1.6-6.3 0 0 2.6 3.1-1.4 3.4l-1.6-.1 1.5-8.3a5.8 5.8 0 002.4-1.6c2.2-2.3 2.3-6 2.2-8a3 3 0 00-.5-1.3c-.4-.5-.9-1-1.5-1h-2l-.5-3.6.1-.1a28 28 0 002.6-5.9l.4-1.5.2-.9.1-.8.3-1.8.2-2V14v-1l-.1-.6-.1-.5a10.4 10.4 0 00-.7-2c-.2-.6-.6-1.3-1-1.9a15.4 15.4 0 00-6.2-5.3 19.4 19.4 0 00-3.5-1.3c-1.2-.3-2.3-.4-3.4-.5h-1.3c-3.7-1.3-8-1-11.2.7l-.8-.2a13.7 13.7 0 00-4.4.2 10.2 10.2 0 00-4 1.8l-.8.8-.8.8-.7 1-.5.7-.7.4-1.1.7-1.1.7-1 .7-1 .9-.4.5-.5.4-.8 1-.4.5-.3.5-.4.6-.3.5-.4.6-.2.6-.3.6-.2.6-.5 1.2-.2 1.3-.2.6v.7c-.2.4-.1.8-.2 1.2V23.7l.2.9a12 12 0 00.7 2.5l.3.9.4.8.5.8.2.3v.2l.2.2.3.7.3 1.4V34l-.2.8-.2.7c-2 1.4-2.3 4.5-.6 8.4 1 2.6 3.4 6 5.4 6.8 0 1.7.2 6-.1 9.9l-4.9 1.5-4.2 11L74 88l-.6 7.8c-.4 1.2-3.5 10.1-5.4 20.2l-1.8 1.8a54.3 54.3 0 00-4.6 5.7l.5-1.4a29.5 29.5 0 001.5-5.6c.1-.9.2-1.8.1-2.7a9.3 9.3 0 00-.8-3.6 7.4 7.4 0 00-3.4-3.5 8 8 0 00-4.9-.8c-1.8.2-3.6 1-5.3 2.1a21.7 21.7 0 00-4 3.6 37.3 37.3 0 00-3 3.7 18.4 18.4 0 00-7-2.2 24 24 0 00-6.5 0 30.8 30.8 0 00-8.7 2.6 24.8 24.8 0 00-7.7 5.4 20.4 20.4 0 00-2.9 4A15.5 15.5 0 008 135.7c.2 1 .5 1.8.9 2.6a26 26 0 00-2.5 2 21.7 21.7 0 00-6.2 12.1c-.4 2.8-.2 5.3.6 7.4.9 2.3 2.3 4.1 4.3 5.5a14.9 14.9 0 006 2.3 22 22 0 006.5 0c2-.3 4-.7 6-1.4a45.9 45.9 0 006.2-2.5c1.7-.9 3.4-1.9 5-3a7.8 7.8 0 005 1.7h1a17.1 17.1 0 005.3-1.8 30 30 0 004.5-2.5 114.2 114.2 0 004.9-3.3l.1-.1.2.6c.7 1.6 1.7 3 2.8 4.2a12 12 0 004.5 3 11.6 11.6 0 005.8.6c2.7-.4 5-1.5 7.2-3.5a21.3 21.3 0 004.4-6.3l.8-1.7c0 .3.2.5.3.7a10.3 10.3 0 003.6 4.2 8.7 8.7 0 005 1.4h1.4a21 21 0 007.4-2.5 22.3 22.3 0 002.3-1.2h.6a12 12 0 005-1.1 24.7 24.7 0 002.5-1.3 8.3 8.3 0 005.2.9c1.6-.2 3.1-.8 4.6-1.7a6.6 6.6 0 002.7.6h1a7.8 7.8 0 005.5-3.5l.6-.9a8.4 8.4 0 007.5 2.6 17 17 0 005.5-2.1l1-.6c.4.3 1 .5 1.5.7.8.2 1.7.4 2.7.4l1.6-.1c1.4-.2 2.8-.6 4.3-1.3l2.6-1.3.2.1c1.2.6 2.6 1 4 1l1.6-.1c1.2-.2 2.5-.5 3.7-1.1 1-.5 2-1 3-1.7l.4-.3a9.6 9.6 0 003.7 1.3l1.2.1h1a13.4 13.4 0 004.7-1.8l2-1.2 1.6-1.2a54.9 54.9 0 003.9-3.1 5.4 5.4 0 001.9-4.1v-4.8a5.4 5.4 0 00-4.6-5.5 70.4 70.4 0 003.4-6.5l2.7-6a31.7 31.7 0 002.3-7.7l.3-1.8c.2-1.2.3-2.4.2-3.5a8.2 8.2 0 00-.4-3.8zM188 69.4zM150 42a12 12 0 000-3.8l.2-.7h2.1c-.2 1.5-.6 3-1.6 4l-.8.7V42zm25.5 45.3l-.3.1V87l.3.3zm-.4 2l.7-.1.6 3.3-2 2.2-1.5 2a49 49 0 01-11.2.1v-.2l.5-6.9a27.9 27.9 0 0011.7 0l1.2-.4zm-3.5 9.4a43.9 43.9 0 00-3.3 6.9l-1.7 4.3a7.4 7.4 0 00-4.7-6.2l.2-5c1.2.3 2.6.4 4 .4 2 0 3.8-.2 5.5-.4zm-11.3-.4l-.1 5-1.5-.2-1.6.1c-1.5.2-3 .7-4.2 1.4a11.8 11.8 0 00-4.7 5 9.6 9.6 0 00-.7 6.7l-.1-.1a5.7 5.7 0 00-2.1-1.4 86.6 86.6 0 001.9-4.5c.6-1.8 1-3.5 1.3-5 .2-1.1.2-2.2.2-3.2a8.6 8.6 0 00-1.2-4 7.2 7.2 0 00-3.9-3.3 8.3 8.3 0 00-3-.6h-.9v-4c2.2 1.3 6 3.4 8.5 3.4.6 0 1-.1 1.5-.3 2.3-1.4 1.4-5 .8-7.5a12 12 0 01-.4-2c0-.7.2-1.8.4-2.7.3-2.2.6-4-.5-5-.4-.3-1-.5-1.7-.5-1 0-2.3.3-3.8.8l1-1.1-.4-.4.8-.5 17 5.3c-.3.6-.5 1.3-.5 2l.1 2 .4 1.8a3.3 3.3 0 00-1.6.8c-.4.3-.5.8-.7 1l-1 10.9.7.2zm-37.1-16.6c-.2-.8-.5-2.5-.3-3 1.2 0 5 1.1 8 2.2l-.1 1v4.9c0 .5 0 1 .2 1.5-2 1.2-6.4 3.8-8.6 3.8l-.6-.1c-.8-.5.1-3 .7-4.8.5-1.3 1-2.4 1-3.3l-.3-2.2zm5.2-3.6l-.8-.6-2.3-1.5L122 74l-1.8-1.3-1.8-1.3c-.6-.5-1.2-1-1.8-1.3l-1.7-1.4-.7-.7c-.3-.2-.5-.5-.8-.6l-1.2-1.3-.2-.3c1.3-4 1.2-12.5 1-15 .7-.3 1.3-.5 1.6-1v.1h.8l-.8 1.1 1-.1-1 .9-1 7.8c-.1 1.8.7 3 1 3.6.3.7 0 1.9 0 1.9l.6-.7c1.4 3.3 9.8 7.5 10.7 7.7 1 .2 3.5 2.4 3.5 2.4L131 76v-.8a5.8 5.8 0 001.4 1.6v-1c2.8 1.5 8-.1 8-.1l-.8.7 2.5-.8h.7l-2 2.3-1.2.5a3.2 3.2 0 00-1.7-.5h-4.5c-1 0-1.6.5-2 1.3-.8-.4-1.9-.7-3-1zM128 67v-1s-1 .9-1.5 2.1c0 0 .5-2.4 1.6-3.2 0 0 .7.7.7 1l1.3-.7s-.2 1.7-1.6 2.6l.2-1.3-.7.5zm5 .8l1.3-1.3-.1 1 2-1.5s-2.4 3.1-2.3 6c0 0-.4-2 0-3.8 0 0-1.1.5-1.5 1.6 0 0 0-1.3.2-1.8 0 0-1 .4-1.2 1 0 0 .7-2.3 2-3.3a8 8 0 00-.3 2.1zm7.2-2.4s2.6 2.4 2.2 4.9c0 0-2.2-2-2.2-3l1 .6-1-2.5zm3.4-1.2l1.3 1-.1-2 .7.4v-1.9l2 2-.6.2s1.4 3.5.5 6.4c0 0-.2-3.7-1-5 0 0 .2 2 0 2.6 0 0 0-1.1-1.4-1.6v.8s-3.4-1.5-4.4-2.7c0 0 2.7 1.3 3.4 1.4l-.4-1.6zm-.1-18.8l-.7-2.3h.1a5.4 5.4 0 004.1 1.7h.8c-.4 2-1 4.6-1.3 7-1.4-1-2.6-2.3-4-2.9 2.6-1.3 1.3-3 1-3.5zm5.4 41c.4 1.7 1.2 4.8 0 5.4h-.5c-1.7 0-5-1.6-7.2-2.9.5-.5.8-1.3.8-2V82c0-.7-.3-1.5-.8-2.3 2.5-1 5.6-2.3 7.2-2.3l.6.1c.3.3 0 2.3-.2 3.3a18.7 18.7 0 00-.4 3.1c0 .6.2 1.3.5 2.3zM132.5 82c0-1 .3-2.7 1.3-2.7h4.5c1 0 2 1.7 2 2.7v4.8c0 1-1 2-2 2h-4.5c-1.1 0-1.3-1.1-1.3-2V82zm30.5 5.4v.6l-.5-.1.1-.3a.9.9 0 01.4-.2zm24-30.3l1.3.3c.5.2 1.1.4 1 .6 0 .4-1.8.3-2.6.2a7.5 7.5 0 01-1.3-.3c-.5-.2-1.4-.4-1.4-.7 0-.4 2-.2 3 0zm-10 3l1.5.3-.2.6a3 3 0 000 1.8l.2.3-1.1-1-1.8-1.5a2 2 0 011.3-.5zm-11.5 5.6l.6.3a27.6 27.6 0 001.7 1.5l.7.8 1.6 1.7 1.4 1.8 1.1 1.7.8 1.2.2.5c.1.2.4.3.5.2.2-.1.3-.3.2-.5l-.2-.5a20 20 0 00-1.7-3.2c-.4-.6-.9-1.2-1.3-2l-1.4-1.8-.7-.9-.7-.7-1.1-1.1a6.8 6.8 0 01-1-1.3 2 2 0 01-.4-1.2v-.3l.2-.2v-.1l.2-.1 1.3.4h.1l.6.3.6.4.8.6 1 .7 1 .9 2 2 1 1 1 1.2 1.3 2 1.2 2.3c0 .2.3.2.5.2.2-.1.3-.3.2-.5 0 0-.3-1-1-2.4a23.8 23.8 0 00-1.2-2.3l-.9-1.3-1-1.2-2-2.3-1-1-1-.8-.8-.7-.6-.5c.4-.3.8-.5 1.4-.4a6 6 0 011.9.7 20.6 20.6 0 015.2 4.2l.8.8c.2.3.5.5.6.8l1.2 1.8 1 2 .6 1.5 1-1.2.7-.9-.7-2.1a22.6 22.6 0 01-1.3-3.7l-.1-.2-.3-.2a3.6 3.6 0 01-1.2-1.5 1 1 0 010-.6l.2-.3V61H181c.4 0 .7.2 1 .4a10.6 10.6 0 013.5 3.7l1.3 2.5.6 1.2.4.8-.1.1-.3.3-1 1-3.7 4.1-.2.2v.2l-.3.4a2.6 2.6 0 01-.5.5l-1.2 1-2.7 2-1.4 1-.7.5-.6.5a8 8 0 00-1.5 1.4 3 3 0 00-.5 1l-.2.6v.8l.2 2.7a27.2 27.2 0 01-8.5.3v-1a19 19 0 00-.4-3.7V83l-.1-.4V82a3.7 3.7 0 011.3-2.6c.3-.4.8-.7 1.3-1l.8-.4c.4-.3.7-.5 1-1 .5-.6.6-1.4.6-2.1a7.8 7.8 0 00-1.8-4.8l-.6-.7-1-1.4a4 4 0 01-.6-1.3c.1-.4.2-.6.5-.9zm-16-8.6a484 484 0 0011.4 3.4l3.2.8-.1.5c-.2.9.2 1.7.5 2.3l-.2.3-.2.1-.2.3-.3.6c-.2.4-.3 1-.2 1.3.1 1 .5 1.5.9 2.1l1.2 1.5.6.7a6.4 6.4 0 011.1 2.1c.4 1 .4 2.2 0 2.8-.1.1-.3.3-.5.3l-.7.5c-.6.3-1.1.7-1.6 1.2l-.3.2-16.5-5a6.7 6.7 0 001.4-3.6c.1-1.4-.6-5.5-.6-5.5h.9l-.6-2.5.6.6c.2-3.8-2-4.6-2-4.6l-.3-.4h2.5zm-1.3-18.8s.3 1.8 0 3.4L148 43h-1.1c-1.2 0-2.2-.4-3-1.2-1-1.1-1.5-3-1.7-4.7h2.1s.4.6.8.6c.5 0 .7-.5.7-.5h.8s-.5-1.1-1-1.1h-3.4v-1.3l.3-.9h6l.3 2.4-.6 2v.1zm-12.9-6h-9.7c-1 0-1.8 1.2-2 2.2l-7.5.1 1.7-3.1.9 2 .8-1.4c.6-1 1-2.4 1.1-3.8l.6 1.4.9-1.3c1-1.5 1.3-4 .7-7.3-.6-3.1 1.9-5.3 3.1-6l.8 1.3c.5.8 1.2 1.6 2 2.2a11.8 11.8 0 006 2h2.7l.8.1 1.2.2H141.2l.7-.1.6-.1.7-.3c.3-.1.7-.3 1-.6v.6l-.2.5-.1.2v.3c-.3.3-.2.8.2 1 .2.2.4.2.7.1h.2a6.5 6.5 0 001.1-.7l.3-.2.2-.2c.1 0 .2 0 .3-.2l1.4 11.2h-6c-1 0-1.9 1.3-1.9 2.3h-3.2c0-1-.8-2.3-1.9-2.3zm-1.4 9.2c-1 1-2.1 1.4-3.8 1.4-1.2 0-2.1-.5-2.9-1.2-1.8-1.9-1.9-5.7-1.9-7.1l.3-.8h9.7l.2.7c.1 1.4.1 5.1-1.6 7zm-20.2-13.3l1 2.6s2.2-5.3 3-4.4c.8-1.2.6-8.4.6-8.4s1.2.7 1.6 2.4c.4-.5 0-1.3.7-2.8.8-2 1.7-3.4 3.6-4.5.1-3.4 1.7-5.5 1.7-5.5s1.9 8.7 6.8 9.8c2.6.6 8.3 1.8 11.5-7.7 2.8 2 1.8 6.6 1.8 6.6s1.5-1.5 1.8-3c2.5.6 2.1 7 1.5 12.3l-.1.3-1-6.7.2-.2.3-1.2v-1.2l-.1-1.2c-.1-.4-.2-.7-.5-1.1l-.2 1-.2.6-.1.5-.4 1-.2.4-.2.4-.2.5-.3.3-.3.3.1-.8V18v-.4l-.1-.4h-1.7v.2l-.1.2-.2.4-.7.6c-.4.2-.9.5-1.4.6a7.5 7.5 0 002.8-3.6 6.6 6.6 0 00.5-2.1 6 6 0 00-.2-1.7 4.7 4.7 0 00-.4-1.4l-.3 1.4c-.2.8-.4 2-1 3.3-.2.6-.6 1.2-1.1 1.7-.5.6-1.2 1-2 1.3-.8.3-1.6.5-2.5.6l-1.4.1h-1.4l-2.7-.5a7.6 7.6 0 01-5.1-4.7 17.1 17.1 0 01-1-3.3l-.2-1-.1-.4-.2.4a7.5 7.5 0 00-.2 4.1c-1.3.8-5.2 3.5-4.4 8.1.4 1.6.4 3 .3 4.1L119 20v4.6c0 .9 0 3-.4 4.7l-.7-1.8-3.1 5.7-1.1-2.6-3.6 3.7a4 4 0 00-.8 0c1.2-2 4.4-6.1 4.4-6.1zm-.2 6.5h-1.1-.2l1-1 .3 1zm-6.2 7.7c-.5-1.2-1.4-4.4.5-5.5 2.8-1.6 4.7-.5 5.6.4l.8 1.1h9.7c.3 1.7 1 3.5 2.1 4.7a5.4 5.4 0 004.2 1.6 6.6 6.6 0 005-2c1.4-1.5 2-3.8 2-5.6h3.4c0 1.6.5 3.5 1.4 5 0 2.4.8 4.5.8 4.8a5.9 5.9 0 01-.6 2 3.5 3.5 0 00-1.2-.3c-3.3 0-6.4-.8-8.4 1.9-1.9 2.7-3.5 4.7-5.9 4.7s-2.5-3.7-1.4-4.6c-2.5 0-4.4 7 1.8 7.7 6 .7 9.3-4.4 9.3-4.4h4.3v.1c.1.2.8.5 1.7.9a9.7 9.7 0 003.3 2v.4h.1l-.2 1.5-.6-.2.5 1.9-1.5-1.2s.6 1.6.6 2.4c0 .9-1.8 1.3-3.2 1.1-1.5-.1-.8-2.8-.8-2.8l.9.4s-.4-3.3-2.6-3.2c-2 0-1.6 2.2-1.6 2.2l.2 1s1.1-.4.8.6c-.2 1 1.1 3-1.8 3.2-2.8.2-4.9-1-4.9-1l-2.5-2 .9.3-.2-1.6h-3l-1.2.5-.4-1v1.3l-2.2-.8-1.3 1.8.1-2v-2.9h1s-2.8-5-3.5-6.8l-2-5.9-.4-3.8-1.3 4.7-.6-.7-.1 3.5-1 .3c0 .2-.2.7-1.6 1-.7.2-3.5-2.6-5-6.6zm.6 21.2l3.1-1c0 .6-.2 1.2-.3 1.7a14.3 14.3 0 00-1-.7l-.2-.2v1.2l.5 1.2.4.6.5.7 1.3 1.4.7.8.8.7a43 43 0 003.4 3l1.9 1.3 1.8 1.3 1.8 1.2h-.3c-1.9.5-1.4 3-1 5.2l.3 1.9c0 .5-.4 1.6-.8 2.6s-.8 2.2-1 3.2l-15.9-16.2 4-10zM75.2 96.4l.6-7.1 27-14.4L120 92.7c.1.3.5.7.9 1 .4.2.9.2 1.5.2 2.8 0 8-3 9.5-4 .4.3.9.4 1.5.4h4.9v4.2a18 18 0 00-2.2.6c-.1-1.1-.5-1.8-.5-1.8l-.1 1.4a1.8 1.8 0 00-1.2-.5c-1 0-1.8.8-1.8 1.8v1c-.2 0-.3.3-.6.4a23.3 23.3 0 00-4.8 5.3 40 40 0 00-3.6 6.5 55.1 55.1 0 00-2.6 7.3l-1.2 4.2a7.4 7.4 0 00-1.4-.3h-1.2a.6.6 0 01-.2-.2 6.3 6.3 0 00-3.5-1h-1c-1.6.1-3.1.6-4.6 1.4a14 14 0 00-.2-5.2 12.3 12.3 0 00-5.3-7.7 16.8 16.8 0 00-8.3-2.6h-3.4a2.8 2.8 0 00-.3-.6l-.4-1-.5-.8.3.9.4 1 .1.5h-.6l-2.3.4-1.3-5.3.4 5.5a35.9 35.9 0 00-5.7 1.9 39.4 39.4 0 00-7.8 4.3l-2.6 2.1c2-9.4 4.8-17.4 4.8-17.6zm116.1 4.5l-.3 1.8a28.4 28.4 0 01-2.2 7.4l-2.7 6a67.1 67.1 0 01-3.2 6.2l-1.8 3.1a3.8 3.8 0 013.8-.3 3.9 3.9 0 012.3 3.6v4.8a4 4 0 01-1.4 2.9 51.4 51.4 0 01-3.8 3 23.9 23.9 0 01-3.4 2.3l-1.8.9c-.8.4-1.6.5-2.3.6h-1.9a6.7 6.7 0 01-2.7-.8 8.7 8.7 0 01-1.2-.8l-1.3.9a20 20 0 01-2.7 1.5c-1 .5-2.1.8-3.2 1h-1.3a7.9 7.9 0 01-3.5-.7l-.8-.5-3.2 1.7a13.7 13.7 0 01-5.4 1.2 6.7 6.7 0 01-4.2-1.3 26.1 26.1 0 01-4 2.1 10.4 10.4 0 01-3.8.8 7 7 0 01-3.6-1 7.8 7.8 0 01-2.7-3l-.6 1.2-1.1 1.9a7 7 0 01-1.7 1.6c-.8.6-1.7 1-2.7 1.1h-.9a5 5 0 01-2.7-.7l-.7.4a10.3 10.3 0 01-4 1.5l-1.1.1c-1.5 0-2.9-.5-4-1.3l-.5.2c-.8.6-1.7 1.1-2.6 1.5a11.7 11.7 0 01-4.4 1h-1l-2.6 1.4a25 25 0 01-7 2.3h-1.2a7.1 7.1 0 01-4-1.1 9.1 9.1 0 01-3.1-3.6c-.6-1.2-1-2.5-1.3-4l-.1-1.4a45.1 45.1 0 01-2.6 6.3 20.5 20.5 0 01-4 5.8 10.9 10.9 0 01-6.4 3.1l-1.6.1a10.2 10.2 0 01-7.4-3.2 12 12 0 01-2.4-3.8 19.2 19.2 0 01-1.2-4 4 4 0 01-1.5 3 68.3 68.3 0 01-4.8 3.2 41 41 0 01-4.4 2.5 25.8 25.8 0 01-4.9 1.6h-.8a6.3 6.3 0 01-4.7-2v-.1l-.2.1a45.8 45.8 0 01-5.7 3.5 44.3 44.3 0 01-11.7 3.8 25.6 25.6 0 01-6 0 13.3 13.3 0 01-5.4-2 9.8 9.8 0 01-3.7-4.8 12.5 12.5 0 01-.5-6.7c.2-2 .9-4 1.9-5.8a18.8 18.8 0 013.9-5.3A18.3 18.3 0 0111 139a9.7 9.7 0 01-1.4-3.4 14.3 14.3 0 011.3-9.5 17 17 0 012.6-3.7 20.2 20.2 0 013.3-2.9c1.2-.8 2.5-1.5 3.9-2.1a27.6 27.6 0 0114.3-2.5c2.1.2 4 .8 5.6 1.6.8.4 1.4.8 2 1.3a37.2 37.2 0 013.7-5 20.5 20.5 0 013.8-3.2 10.8 10.8 0 015.7-2 6 6 0 015.6 3.5c.4.8.6 1.9.6 3a11 11 0 010 2.4 29.4 29.4 0 01-1.5 5.3 57.9 57.9 0 01-5 10.4l-3.1 5-3.2 5-.2.2a4 4 0 013-.2 4 4 0 012.6 2.7l1.2 4.3a30.7 30.7 0 01.2-7.7 40.6 40.6 0 016-15.6 46.6 46.6 0 015.3-6.8c2-2 4.2-4 6.5-5.7a38.9 38.9 0 017.5-4.2 33.5 33.5 0 018.4-2.3 18.5 18.5 0 014-.1c1.5.1 2.8.3 4 .7a12.8 12.8 0 016.6 4.6 11.3 11.3 0 011.7 3.8 12.8 12.8 0 01-.8 8l-.3.6a21.2 21.2 0 013-2 13.8 13.8 0 014.6-1.6h.8c1 0 2 .2 2.7.7l.6.5h1.5c1 0 1.9.5 2.6 1l1.7-6a51.7 51.7 0 012.6-7.1 39 39 0 013.4-6.3 22.4 22.4 0 014.5-5 12.2 12.2 0 017.7-2.8c.9 0 1.7.1 2.5.4a6 6 0 013 2.7c.6 1 1 2 1 3.3 0 .9 0 1.8-.2 2.9a27.4 27.4 0 01-1.2 4.6 47 47 0 01-2.1 5l-.6 1.2a5.5 5.5 0 013.3 1.4c.5.5 1 1.2 1.2 2l1.1-1.3 1-.7a6.7 6.7 0 01-.8-4.7 9.5 9.5 0 014.8-6.6 10 10 0 013.6-1.2h2.6c1 .2 2 .5 2.8 1.1a5.3 5.3 0 012 2.9c.4 1 .5 2 .4 3.3a9.4 9.4 0 01-2.5 5.2l-.5.5a18 18 0 014.7-2.7c.3-1.3.6-2.6 1.1-3.8l2-5.1a38.6 38.6 0 015.8-10.4 19.2 19.2 0 013.6-3.6 10.1 10.1 0 014.8-2h1a6 6 0 013.6 1 7 7 0 012.4 3.2 17.1 17.1 0 01.4 6.4zM56.5 134a38.6 38.6 0 00-1.8 7.3l-.1.4a5.8 5.8 0 00-1.9-1l-.3-.1 1.5-2.5c1-1.3 1.8-2.7 2.6-4.1z"/>
  <path fill="#31302E" d="M47.7 148.5l-1.4 1-1.4.9-1.3.6-1 .4c-.2 0-.3 0-.4-.3a3.6 3.6 0 01-.4-1.7V148l.4-1 .4-1 .3-.8.4-.6 2.9-4.7 3.1-4.8 3-5a60 60 0 004.8-9.6c.5-1.6 1-3.2 1.2-4.6V114c0-.5 0-1-.2-1.5a2 2 0 00-1-1c-.4-.1-1-.2-1.6-.1a7 7 0 00-3 1.2c-1 .7-2 1.6-3 2.7a39.2 39.2 0 00-3 3.9 55.5 55.5 0 00-2.8 4.6l-1.4 2.8v-.2a5.9 5.9 0 00-.5-4 6.5 6.5 0 00-2.8-2.6 11.7 11.7 0 00-4.2-1.2 21.6 21.6 0 00-5.2.1c-1.2.1-2.4.4-3.6.8a23.4 23.4 0 00-6.8 3.1 14.8 14.8 0 00-4.6 5.2 10 10 0 00-1.1 3.3 8.9 8.9 0 000 3.5 5.7 5.7 0 001.5 2.7c.7.7 1.6 1.2 2.7 1.6 1.2.3 2.5.3 4.2.2a23.5 23.5 0 00-6.6 2c-1.9.9-3.5 2-4.8 3.2a16 16 0 00-4.6 9 8.7 8.7 0 00.3 4.5 6.3 6.3 0 002.2 3c1 .7 2.3 1.2 3.8 1.4 1.5.2 3.1.2 4.9 0a29 29 0 005-1.2 37.8 37.8 0 0010.5-5.3 31.7 31.7 0 003.9-3.2l.2 1a6.5 6.5 0 001.4 2.6c.6.7 1.3 1 2.1.8.5 0 1.1-.2 1.8-.4a16 16 0 001.9-.8l2-1 2-1.2a60.2 60.2 0 004.5-3.1l-1.3-4.7a40.5 40.5 0 01-3.4 2.8zm-3-15.7l1-3.3 1.5-3.5a53.3 53.3 0 012.5-5.2 25.4 25.4 0 011.8-2.6c.5-.7 1-1 1.4-1 .1 0 .2 0 .2.4l-.2 1.1a33.1 33.1 0 01-1.6 4.8 54.6 54.6 0 01-2.5 5.3 93.2 93.2 0 01-3 5.1l-2.7 4.6a43.7 43.7 0 011.5-5.7zm-5.4 1.4l-1.2 3.9a42 42 0 00-1.6 6.2 34 34 0 00-.3 3l-1.6 1.6-2.8 2.1a46.4 46.4 0 01-3.3 2.1 64.4 64.4 0 01-7.3 3.1c-1.2.4-2.4.7-3.5.8h-2.4a3.2 3.2 0 01-1.8-.7c-.5-.3-.8-1-1-1.6a7 7 0 010-2.8 7 7 0 011.3-3.3 12.2 12.2 0 015.8-4.4 14.6 14.6 0 015.3-1l1.4-.1c1-.2 1.7-.5 2-1 .4-.4.7-1.1.8-2l.1-1v-1c0-.6-.2-1-.5-1.3a3.2 3.2 0 00-1.3-.7l-1.7-.5c-.7 0-1.3-.2-2-.3-.6 0-1.3-.2-1.9-.4-.6-.2-1-.4-1.5-.8a3.2 3.2 0 01-1-1.3 4.3 4.3 0 01-.1-2 6.6 6.6 0 013-4.7 12.1 12.1 0 015.4-1.9 28.2 28.2 0 016.4.1c1 .1 1.8.4 2.5.6.7.2 1.3.5 1.7.8a95.7 95.7 0 00-1.3 3.1l-.6 2c0 .7 0 .9.4.9s.9-.2 1.5-.6a10.5 10.5 0 003.3-2.9l.2-.3-1 2.4a95.3 95.3 0 01-1.4 3.9zm117-18a5.5 5.5 0 002-.6 5.5 5.5 0 001.5-1.1l1-1.5c.2-.5.4-1 .4-1.6v-1.5a1.8 1.8 0 00-.7-.9 2.3 2.3 0 00-1.2-.4 7.8 7.8 0 00-1.5 0c-.8 0-1.5.3-2.1.7-.6.3-1.1.7-1.5 1.2a6 6 0 00-1.4 2.6c-.2 1.1 0 2 .6 2.5.6.7 1.5.8 2.8.7z"/>
  <path fill="#31302E" d="M186.4 94.3a2.3 2.3 0 00-1.7-.4c-1 .2-2 .6-3 1.3a15.8 15.8 0 00-3 3 35.2 35.2 0 00-5.1 9.3l-2 5c-.5 1.7-1 3.5-1.4 5.6a14.4 14.4 0 00-6.6 3.5 16.3 16.3 0 00-2.7 3.3c-.8 1.1-1.5 2.2-2 3.2a16.5 16.5 0 00-1.6 3.2 13.7 13.7 0 00-.8 3.1v.6l-.6.4-2.2 1.7c-.7.5-1.3.8-1.9.9-.4 0-.7-.1-.8-.5v-1.7l.7-2.4 1-2.7c.2-1 .6-2 1.2-3.4a82 82 0 002.2-5.4l.4-1.5-.1-1c-.2-.1-.6-.2-1.2-.1a7.7 7.7 0 00-2.5.8c-.4.3-.8.5-1.1.9a3 3 0 00-.8 1.1 86 86 0 01-1.6 3.8l-1.9 4.6-.6 1.9a63.3 63.3 0 01-2.8 3l-1.3 1.1c-.4.4-.8.8-1.3 1l-1.3.8c-.5.3-.9.3-1.2.4-.3 0-.5-.1-.6-.5a3 3 0 010-1.4c.1-1.2.4-2.3.8-3.4a22.8 22.8 0 012.2-4 28.6 28.6 0 002.3-4c.4-1 .7-2.1.9-3.2v-1.3a2.2 2.2 0 00-.4-.7 1.1 1.1 0 00-.6-.3l-.6-.1c-.7.1-1.5.5-2.4 1.2a37 37 0 00-3.6 3.2 59.5 59.5 0 00-3.6 3.8 91.8 91.8 0 00-2.5 3.1l-.4-.3 2.3-3.6 2.7-4.5 2.7-4.8 2.5-4.9 1.9-4.6a18.9 18.9 0 001.2-6 3.1 3.1 0 00-.4-1.6 2 2 0 00-1.1-1 3.7 3.7 0 00-2 0 8.7 8.7 0 00-4.3 1.9 19 19 0 00-3.7 4.1 32.9 32.9 0 00-3.1 5.6 62.1 62.1 0 00-2.4 6.6l-2 7a111 111 0 00-2.6 11.8 19.5 19.5 0 01-2.7 2.9l-1.2 1a13 13 0 01-1.2.7c-.3.3-.7.4-1 .4-.4 0-.7 0-.7-.5v-1.6l.9-3.2 1.1-3.3a116 116 0 001.5-5.4v-1.1a1.5 1.5 0 00-.2-.6c0-.2-.2-.3-.4-.3h-.7l-.5.1-.5.1h-.5a2.3 2.3 0 01-.6 0 .7.7 0 01-.4-.4l-.3-.5a.9.9 0 00-.4-.4c-.2-.1-.4-.1-.8 0-1 0-2 .4-3.1 1L107 128a31.4 31.4 0 00-3 3 31.9 31.9 0 00-2.6 4 31.7 31.7 0 00-2.1 4.2 17 17 0 00-1 3.7c-.1.8-.2 1.5 0 2l-1 .7-2 1-1.7.5c-.6.1-1 0-1.2-.3a3 3 0 01-.6-1.4 10.8 10.8 0 01-.3-1.9 27 27 0 01-.2-2.2c0-.8 0-1.7-.3-2.6-.2-.8-.4-1.7-.8-2.4a6.4 6.4 0 00-1.4-1.9 5.1 5.1 0 00-2.4-1.2c1.7-.3 3.3-.8 4.8-1.4a25.9 25.9 0 003.9-2 18.8 18.8 0 005.3-4.9c.6-.9 1.1-1.7 1.5-2.6l.7-2.4a7.5 7.5 0 00-1.1-5.6 6.7 6.7 0 00-2-1.9c-.7-.5-1.5-1-2.5-1.2a16 16 0 00-6.3-.4c-2.6.3-5 1-7.4 2a34.8 34.8 0 00-6.8 3.7 41.8 41.8 0 00-6 5.2 40.5 40.5 0 00-8.2 13 35 35 0 00-2 7.3 29.3 29.3 0 00-.3 4 20.3 20.3 0 001.3 7.2 10.6 10.6 0 001.7 2.6 6.3 6.3 0 005.6 1.9 7 7 0 004.1-2 16.5 16.5 0 003.3-4.8 46.3 46.3 0 002.7-7.1l2.7-9.3 1.5-.2a1.5 1.5 0 011.6.6c.3.5.6 1.3.7 2.2.1.9.3 2 .3 3.2l.2 3.5c0 1 .2 2.1.4 3.3.1 1.1.5 2.1.8 3a5 5 0 001.7 2c.7.4 1.6.6 2.7.4a17.1 17.1 0 005.7-1.9c1-.4 1.7-.8 2.5-1.3l1.2-.8.2.2c.7.2 1.4.2 2 .1a8 8 0 002.2-.6 15.2 15.2 0 004-2.6l1.6-1.5c.3 1.2.7 2 1.3 2.6.5.6 1.3.8 2.3.7.8-.1 1.7-.5 2.6-1a19.3 19.3 0 004-3.4v1.8c.2.5.3.8.6 1 .2.3.6.4 1 .3.4 0 .8-.2 1-.3l.8-.8.9-1.3a64.4 64.4 0 014-6.3 84.7 84.7 0 012.8-4 48.6 48.6 0 012.5-2.8l1.4-1.5h.5l-.4.6-.7 1.2-1 1.7-.8 2-.8 1.9-.5 1.7v2.2c0 .8.3 1.5.5 2.1.4.7.8 1.1 1.3 1.5.6.4 1.3.5 2.1.4l1.8-.5 1.9-1a30.2 30.2 0 003.7-2.3l1.4-1v1c0 .5.2 1 .5 1.3.3.4.7.6 1.2.8a5 5 0 001.9 0c.9 0 1.8-.3 2.8-.8a32.1 32.1 0 003-1.6c1-.6 1.8-1.1 2.6-1.8l.4.8a4 4 0 001.5 1.5 4.5 4.5 0 002.4.3c.7 0 1.4-.3 2.1-.6a24.3 24.3 0 006.3-4.8c.3.9.6 1.6 1 2.1l1.3 1.2 1.3.4h1l1.2-.3 1.4-.8 1.5-1 1.5-1 3.6-2.9v-4.7a61 61 0 01-2.9 2.5 18 18 0 01-2.5 1.7c-.4.3-.7.5-1.1.6l-1 .4a.9.9 0 01-.7-.2 1.6 1.6 0 01-.3-.7l-.1-1 .1-1.4.2-1.1.4-1.2.4-1 .3-.8 3.4-6.1a59.8 59.8 0 003-5.9l2.7-6a25.1 25.1 0 002-6.3l.2-1.7c.2-1 .2-1.8.2-2.6s-.1-1.5-.3-2.1a4.8 4.8 0 00-1.1-1.5zM82.4 130l1.5-3.6.8-2.5v-.2c.2-.6.1-1-.1-1.4-.2-.3-.7-.4-1.4-.3-.6.1-1.1.3-1.5.6-.5.3-.9.7-1.2 1.2l-1 1.4-.6 1.6-.4 1.4-.2 1-.6.1-1 .2-1 .2h-.6a1.2 1.2 0 00-.6.4l-.4.5-.2.7-.2.6c0 .7.2 1.2.7 1.6.5.4 1.3.7 2.4 1.2l-.3 1.5-.5 2.4-.7 2.8-.8 3a19.4 19.4 0 01-.9 3l-1.1 2.5a8.2 8.2 0 01-1.3 1.7c-.5.5-1 .8-1.4.8a3 3 0 01-2.5-.6 4.5 4.5 0 01-1.4-2.2 21 21 0 01-.2-7c.3-1.8.7-3.5 1.3-5.3a35 35 0 015.5-11 28.6 28.6 0 014.4-4.7 24.2 24.2 0 0112.4-5.6c1.4-.2 2.6-.2 3.5 0 1 .2 1.8.5 2.4 1a3.7 3.7 0 011.5 3.8 8.1 8.1 0 01-1 2.5c-.5 1-1.3 1.8-2.4 2.7-1.1.9-2.5 1.6-4.3 2.3a32 32 0 01-6.5 1.6zm27.9 6.9a21.5 21.5 0 01-1.9 4.2c-.4.8-.9 1.4-1.4 2-.5.6-1 .9-1.6 1-.4 0-.6 0-.9-.2a1.3 1.3 0 01-.4-.7l-.1-1a9.7 9.7 0 01.7-3.3l1.3-2.8 1.6-2.7 1.7-2.1c.6-.6 1.2-1.1 1.9-1.5a4.6 4.6 0 011.8-.8l-2.7 7.9zm17.4-7.7l1.5-5.6.8-2.6.8-2.7a116 116 0 012-5.6 73 73 0 013.6-6.2c1-1.4 1.6-2.1 2-2.2.3 0 .4.6.2 1.7a70 70 0 01-4 10c-.3.8-.8 1.7-1.4 2.7l-1.8 3.4-2 3.7a193.2 193.2 0 01-1.7 3.4zm42-7.1l-.2 1.3c0 .5 0 1-.2 1.7l-.3 2.4a47 47 0 00-.3 2.2v1a21.1 21.1 0 01-2.2 3.3l-.8.7-.8.6-.9.3h-1.2c-.3 0-.6-.2-.7-.4a1.4 1.4 0 01-.3-.6 2 2 0 010-.7l.8-2.7a45.7 45.7 0 011.7-3.7 14 14 0 012.4-3.5 15.7 15.7 0 013-2.4v.5zm13.6-20.5a32.6 32.6 0 01-2.5 8.2l-1.3 3-1.3 2.8a172.4 172.4 0 01-3.2 6.5v-.2l.1-1 .3-1.6.4-2 .5-2.2.5-2 .7-3 1.2-3.6 1.3-3.3c.4-1 .8-2 1.3-2.6.5-.7 1-1 1.5-1.1.2 0 .4.1.5.4v1.7z"/>
</svg>