<svg xmlns="http://www.w3.org/2000/svg" x="0" y="0" version="1.1" viewBox="0 0 860 180" xml:space="preserve">
  <path
    d="M297.8 149.5a44.4 44.4 0 01-3.8-20.9c0-12.9-3.2-23.4-11.6-29.9h1.7c6.4 0 10-3.6 10-10.2V35.2c0-6.5-3.6-10.2-10-10.2h-59.2c-6.4 0-10 3.6-10 10.2V128.6c0 5.8 0 19.2-6.8 24.4 6.8 1.3 19.1 1.7 25.6-2.1 5.9-3.3 9.3-6.9 9.3-22.3V98.9h2.3c18.4 5.4 19.5 20 20.6 32.4.4 13.2 3.8 16.7 9.3 19.8 2.1 1.2 4.5 1.9 7.4 2.3 3.4.6 6.8.8 10.2.6 3-.2 5.9-.4 8.1-.8a11.8 11.8 0 01-3.1-3.7zm-47.9-76.2H245c-1.1 0-1.9-.8-1.9-1.9V53.2c0-1.2.8-1.9 1.9-1.9h19.1c1.1 0 1.9.8 1.9 1.9v18.2c0 1.2-.8 1.9-1.9 1.9H249.9zM392.2 128.7V35.2c0-6.5-3.6-10.2-10-10.2h-58.6c-6.4 0-10 3.6-10 10.2v93.5c0 5.8 0 19.2-6.8 24.4 6.8 1.3 19 1.7 25.4-2.1 5.8-3.3 9.2-6.9 9.2-22.3v-26.3c0-2.3.9-3.5 3-3.5h16.4c3 0 3 1.5 3 3.6v26.1c0 15.4 3.4 19 9.2 22.3 6.6 3.6 18.8 3.3 25.4 2.1-6.2-5.1-6.2-18.6-6.2-24.3zm-48.9-55.3c-1.1 0-1.9-.8-1.9-1.9V53.2c0-1.2.8-1.9 1.9-1.9h19c1.1 0 1.9.8 1.9 1.9v18.3c0 1.2-.8 1.9-1.9 1.9h-19zM480 27.9c-5.8 3.3-9.2 6.9-9.2 22.3l-.2 16.1v5c0 1.2-.8 1.9-1.9 1.9h-25.4c-1.1 0-1.9-.8-1.9-1.9V50.2c0-5.8 0-19.2 6.8-24.4-6.8-1.2-19.2-1.5-25.5 2.1-5.8 3.3-9.2 6.9-9.2 22.3l-.2 78.5c0 5.8 0 19.2-6.8 24.4 6.8 1.3 19 1.7 25.4-2.1 5.8-3.3 9.2-6.9 9.2-22.3l.2-23v-5c0-1.2.8-1.9 1.9-1.9h25.6c1.1 0 1.9.8 1.9 1.9v28c0 5.8 0 19.2-6.8 24.4 6.8 1.3 19 1.7 25.4-2.1 5.8-3.3 9.2-6.9 9.2-22.3l.2-78.5c0-5.8 0-19.2 6.8-24.4-6.7-1.1-18.9-1.5-25.5 2.1zM528.5 27.9c-5.9 3.3-9.3 6.9-9.3 22.3v78.5c0 5.8 0 19.2-6.9 24.4 6.9 1.3 19.2 1.7 25.7-2.1 5.9-3.3 9.3-6.9 9.3-22.3V50.2c0-5.8 0-19.2 6.9-24.4-6.6-1.1-19-1.5-25.7 2.1zM615.9 25h-44.8a48 48 0 00-9.9 1c6.8 5.2 6.8 18.6 6.8 24.4v78.3c0 5.8 0 19.2-6.8 24.4 2.7.6 6.1 1 9.9 1h44.8c18.6 0 38.1-11.5 38.1-31.9V56.9c0-20.4-19.5-31.9-38.1-31.9zm9.8 92.1c0 6-3 10.6-10.8 10.6H598c-1.1 0-1.9-.8-1.9-1.9V53.2c0-1.2.8-1.9 1.9-1.9h16.9c7.6 0 10.8 3.8 10.8 10.6v55.2z"
    fill="#F4F4F4" />
</svg>