<svg xmlns="http://www.w3.org/2000/svg" viewBox="0 0 1000 1000">
  <path fill="#8893ce" d="M1.5 1.2H1000v998.5H1.5z" />
  <path fill="#0D1111"
    d="M222.4 724.6h-48.8v-.2H-.2V0h159.5S145 69.3 145 129.8c0 89.5 43.1 170.2 103.4 193.3 132.2 43.3-23-46.1-23-46.1S202.4 95.1 323 72c126.4-23 215.5 46.3 215.5 135.7 0 217.5-254.6 216.8-370.4 216.5h-11.8l-.1 8.8c-.7 45.6-1.9 124 135.2 124 66.1 0 181-5.7 229.8-69.3 5.8 28.9 8.7 69.3 11.5 112.6 2 114.9-23.5 301.4-211 399.6H-.3V889.3h1.5c140.9 0 241.3-63.5 238.5-147.2 0-8.8-5.8-17.5-17.3-17.5z" />
</svg>