<?xml version="1.0" encoding="utf-8"?>
<!-- Generator: Adobe Illustrator 23.0.3, SVG Export Plug-In . SVG Version: 6.00 Build 0)  -->
<svg version="1.1" id="Layer_1" xmlns="http://www.w3.org/2000/svg" xmlns:xlink="http://www.w3.org/1999/xlink" x="0px" y="0px"
	 viewBox="0 0 860 180" style="enable-background:new 0 0 860 180;" xml:space="preserve">
<style type="text/css">
	.st0{fill:#FFFFFF;}
</style>
<path class="st0" d="M297.8,149.5c-2.5-4.4-3.8-11.5-3.8-20.9c0-12.9-3.2-23.4-11.6-29.9h1.7c6.4,0,10-3.6,10-10.2v-4.6V39.8v-4.6
	c0-6.5-3.6-10.2-10-10.2h-4.5h-50.2h-4.5c-6.4,0-10,3.6-10,10.2v4.6v88.8c0,5.8,0,19.2-6.8,24.4c6.8,1.3,19.1,1.7,25.6-2.1
	c5.9-3.3,9.3-6.9,9.3-22.3V98.9h2.3c18.4,5.4,19.5,20,20.6,32.4c0.4,13.2,3.8,16.7,9.3,19.8c2.1,1.2,4.5,1.9,7.4,2.3
	c3.4,0.6,6.8,0.8,10.2,0.6c3-0.2,5.9-0.4,8.1-0.8C299.5,152,298.5,150.9,297.8,149.5z M249.9,73.3h-4.9c-1.1,0-1.9-0.8-1.9-1.9v-5
	v-8.2v-5c0-1.2,0.8-1.9,1.9-1.9h4.9h9.3h4.9c1.1,0,1.9,0.8,1.9,1.9v5v8.2v5c0,1.2-0.8,1.9-1.9,1.9h-4.9H249.9z"/>
<path class="st0" d="M392.2,128.7V39.8v-4.6c0-6.5-3.6-10.2-10-10.2h-4.5h-49.6h-4.5c-6.4,0-10,3.6-10,10.2v4.6v88.9
	c0,5.8,0,19.2-6.8,24.4c6.8,1.3,19,1.7,25.4-2.1c5.8-3.3,9.2-6.9,9.2-22.3v-26.3c0-2.3,0.9-3.5,3-3.5h16.4c3,0,3,1.5,3,3.6v26.1
	c0,15.4,3.4,19,9.2,22.3c6.6,3.6,18.8,3.3,25.4,2.1C392.2,147.9,392.2,134.4,392.2,128.7z M343.3,73.4c-1.1,0-1.9-0.8-1.9-1.9v-5
	v-8.3v-5c0-1.2,0.8-1.9,1.9-1.9h4.9h9.2h4.9c1.1,0,1.9,0.8,1.9,1.9v5v8.3v5c0,1.2-0.8,1.9-1.9,1.9h-4.9h-9.2H343.3z"/>
<path class="st0" d="M480,27.9c-5.8,3.3-9.2,6.9-9.2,22.3l-0.2,16.1v5c0,1.2-0.8,1.9-1.9,1.9H464h-15.8h-4.9c-1.1,0-1.9-0.8-1.9-1.9
	v-5V50.2c0-5.8,0-19.2,6.8-24.4c-6.8-1.2-19.2-1.5-25.5,2.1c-5.8,3.3-9.2,6.9-9.2,22.3l-0.2,78.5c0,5.8,0,19.2-6.8,24.4
	c6.8,1.3,19,1.7,25.4-2.1c5.8-3.3,9.2-6.9,9.2-22.3l0.2-23v-5c0-1.2,0.8-1.9,1.9-1.9h4.9h15.8h4.9c1.1,0,1.9,0.8,1.9,1.9v5v23
	c0,5.8,0,19.2-6.8,24.4c6.8,1.3,19,1.7,25.4-2.1c5.8-3.3,9.2-6.9,9.2-22.3l0.2-78.5c0-5.8,0-19.2,6.8-24.4
	C498.8,24.7,486.6,24.3,480,27.9z"/>
<path class="st0" d="M528.5,27.9c-5.9,3.3-9.3,6.9-9.3,22.3c0,29.9,0,48,0,78.5c0,5.8,0,19.2-6.9,24.4c6.9,1.3,19.2,1.7,25.7-2.1
	c5.9-3.3,9.3-6.9,9.3-22.3c0-30.1,0-48,0-78.5c0-5.8,0-19.2,6.9-24.4C547.6,24.7,535.2,24.3,528.5,27.9z"/>
<path class="st0" d="M615.9,25h-44.8c-3.6,0-7.2,0.4-9.9,1c6.8,5.2,6.8,18.6,6.8,24.4v78.3c0,5.8,0,19.2-6.8,24.4
	c2.7,0.6,6.1,1,9.9,1h44.8c18.6,0,38.1-11.5,38.1-31.9V56.9C654,36.5,634.5,25,615.9,25z M625.7,117.1c0,6-3,10.6-10.8,10.6h-12H598
	c-1.1,0-1.9-0.8-1.9-1.9v-5V58.2v-5c0-1.2,0.8-1.9,1.9-1.9h4.9h12c7.6,0,10.8,3.8,10.8,10.6V117.1z"/>
</svg>
