<?xml version="1.0" encoding="utf-8"?>
<!-- Generator: Adobe Illustrator 23.0.3, SVG Export Plug-In . SVG Version: 6.00 Build 0)  -->
<svg version="1.1" id="Layer_1" xmlns="http://www.w3.org/2000/svg" xmlns:xlink="http://www.w3.org/1999/xlink" x="0px" y="0px"
	 viewBox="0 0 1000 1000" style="enable-background:new 0 0 1000 1000;" xml:space="preserve">
<style type="text/css">
	.st0{fill:#8893CE;}
	.st1{fill:#060809;}
</style>
<rect x="1.5" y="1.2" class="st0" width="998.5" height="998.5"/>
<path class="st1" d="M222.4,724.6h-48.8v-0.2H-0.2V0h159.5c0,0-14.3,69.3-14.3,129.8c0,89.5,43.1,170.2,103.4,193.3
	c132.2,43.3-23-46.1-23-46.1s-23-181.9,97.6-205c126.4-23,215.5,46.3,215.5,135.7c0,217.5-254.6,216.8-370.4,216.5
	c-4.1,0-8,0-11.8,0c0,2.8,0,5.7-0.1,8.8c-0.7,45.6-1.9,124,135.2,124c66.1,0,181-5.7,229.8-69.3c5.8,28.9,8.7,69.3,11.5,112.6
	c2,114.9-23.5,301.4-211,399.6H-0.3V889.3h1.5c140.9,0,241.3-63.5,238.5-147.2C239.7,733.3,233.9,724.6,222.4,724.6z"/>
</svg>
