<?xml version="1.0" encoding="utf-8"?>
<!-- Generator: Adobe Illustrator 23.0.3, SVG Export Plug-In . SVG Version: 6.00 Build 0)  -->
<svg version="1.1" id="Layer_1" xmlns="http://www.w3.org/2000/svg" xmlns:xlink="http://www.w3.org/1999/xlink" x="0px" y="0px"
	 viewBox="0 0 629.9 800" style="enable-background:new 0 0 629.9 800;" xml:space="preserve">
<style type="text/css">
	.st0{fill:#B5DC11;}
</style>
<g>
	<rect x="26.4" y="38.8" class="st0" width="559.5" height="244.2"/>
	<rect x="421.6" y="552.6" class="st0" width="77.4" height="87.9"/>
	<g>
		<path d="M620.9,551.7c-10.8,27.3-24.2,53.2-39.7,78.1c-0.8,1.2-2.3,2.8-3.5,2.8c-15,0.2-30,0.1-45.8,0.1
			c14-34.6,23.2-69.2,27.3-104.9c-10.6,0.6-20.7,1.6-30.8,1.6c-19.8,0-38.9-3.8-55.8-14.8c-22.9-15-35.5-36.4-37.6-63.9
			c-2-25.4-2-50.8-0.3-76.2c0.8-11.2,5.3-20.8,10.9-30.1c16.4-26.8,40.9-41.5,71.6-46c21.9-3.2,43.5-2.1,64.4,6
			c15.6,6,28.5,15.7,38.8,28.8c0.6,0.8,1.2,1.5,2.3,2.8c0.1-1.8,0.2-2.8,0.2-3.9c0-94.2,0.1-188.4-0.1-282.7
			c0-6.8-1.3-13.8-3.2-20.4c-3-10.6-9-19.2-19.9-23.3c-189.7,0-379.5,0-569.2,0C16.2,11,11.1,23.1,8.3,36.6C7.3,41.2,7,46,7,50.7
			C7,143.9,7,237.1,7,330.3c0,1.2,0,2.5,0,3.6c6.3-5.6,12.1-11.6,18.8-16.5c22.5-16.4,48.4-20.9,75.6-19.5
			c20.1,1.1,39,6.4,55.4,18.5c18.5,13.6,30.5,31.8,35.8,54c1.6,6.7,1.1,14,1.1,21.1c-0.1,29.3-0.1,58.5-0.8,87.8
			c-0.5,23-6.9,44.8-14.8,66.2c-11,29.7-25.4,57.7-41.9,84.7c-1.5,2.5-3.2,3.4-6.1,3.3c-13.5-0.4-26.9-0.5-40.4-0.8
			c-0.9,0-1.7-0.2-2.5-0.2c4-11.4,8.2-22.5,11.6-33.9c3.5-11.5,6.5-23.2,9-35c2.5-11.6,4.2-23.4,6.4-35.6
			c-6.2,0.6-11.5,1.3-16.8,1.7c-19.8,1.5-39.2,0-57.8-7.8c-12.5-5.2-23.2-13.1-32.4-24.3c-0.1,2-0.2,3.2-0.2,4.3
			c0,82.5,0,165.1,0,247.6c0,8.3,1.1,16.4,4.2,24.1c3.7,9.4,9.3,17.1,19.3,20.6c189.7,0,379.5,0,569.2,0c16.8-7.1,20.9-22,23-38
			c0.2-1.8,0.2-3.6,0.2-5.4c0-66.4,0-132.7,0-199.1c0-1,0-2,0-3.1c-0.2-0.1-0.4-0.2-0.6-0.2C621.8,549.6,621.3,550.6,620.9,551.7z
			 M479.1,116.3c18-17.3,59.3-18.9,77.4,4.4c8.1,10.4,11.1,21.9,10.6,35.1c-0.8,20.2-0.8,40.5-0.6,60.8c0.2,15.7-7.1,27.1-20.2,34.2
			c-18.7,10.2-38.7,10.9-58.2,2.1c-14.9-6.7-22.5-19.3-22.8-35.8c-0.2-12.3,0-24.6,0-36.9c0,0,0,0,0,0c0-10.9,0.5-21.8-0.1-32.7
			C464.6,134.4,470.3,124.7,479.1,116.3z M303.5,103.7c12.3-1.3,24.5-0.4,35.4,6c12.8,7.5,22,18,22.8,33.4c0.7,13.9,1,28,0.2,41.9
			c-0.9,16-10.6,25.8-25.6,30.7c-9.2,3-18.6,3.5-28.1,3.2c-2.2-0.1-4.3,0-7.1,0c1.6,17.8,6.1,34.7,13.1,51.4
			c-7.6,0-14.7,0.1-21.9-0.1c-1,0-2.3-1.1-2.9-2c-14.1-22.2-25.6-45.4-27.1-72.2c-0.9-16-1.4-32-1.4-48
			C261,126,278.1,106.4,303.5,103.7z M104.5,252.7c-12.9,0-25.1,0-37.8,0c-0.1-1.5-0.3-2.9-0.3-4.2c0-44.1,0.1-88.2-0.1-132.3
			c0-3.9,1.1-5,5-4.9c9.4,0.3,18.7,0.1,28.1,0.1c5.1,0,5.1,0,5.1,4.9c0,41.7,0,83.4,0,125C104.5,245,104.5,248.7,104.5,252.7z
			 M104.2,88.7c-0.7,4-3.5,6.6-7.1,8c-7.3,2.9-14.8,3-22-0.3c-4.2-1.9-6.6-5.1-6.7-9.9c0-3.2-0.2-6.4-0.1-9.6
			c0.1-6.8,2.9-10.4,9.7-11.8c3-0.6,6.1-0.8,8.1-1c2.3,0.1,3.6,0.2,4.9,0.3c9.9,0.6,13.3,3.8,13.9,13.7
			C105,81.5,104.8,85.2,104.2,88.7z M157.1,251.7c-13.8-6.9-21.5-18.6-21.7-34.2c-0.3-22.9-0.1-45.9,0-68.9
			c0.1-21.6,7.7-41.1,17.5-60c3.8-7.3,8-14.3,11.8-21.6c1.3-2.4,2.9-3.2,5.5-3.1c5.6,0.2,11.3,0.1,16.7,0.1c-3.3,13.3-6.6,26-9.8,39
			c7.4,0.7,14,1.1,20.5,2.1c8.8,1.3,17.1,4.3,24.5,9.5c10.3,7.4,14.4,18,14.4,30c-0.1,26.7-0.3,53.4-1.6,80
			c-0.7,13.9-9,24.2-22,29.2C194.3,261,175.2,260.8,157.1,251.7z M414.1,538.5c-3.1,39.6-24.3,67.1-59.8,84
			c-10.6,5-21.7,9.2-33.4,10c-34.9,2.3-63.7-9.7-84.4-38.6c-13.7-19.1-20.6-40.8-22.6-64.2c-3.7-44.4-4.3-88.8,1.1-133
			c4.4-36.1,20.7-66.6,52.6-86.4c29.6-18.4,79.1-19.9,110.3,10.1c17.7,17,27.9,38,34.8,61.1c4,13.6,3.3,27.4,3.6,41.2
			c0.3,14.2,0.1,28.5,0.1,42.7C416.6,465.5,416,514.3,414.1,538.5z M424.7,247.2c0,1.7,0,3.3,0,5.3c-11.5,0-22.9,0-34.6,0
			c-0.1-1.7-0.3-3.1-0.3-4.6c0-35.3,0.3-70.6-0.2-105.9c-0.2-16.2,7.4-26.3,21.6-32.4c7.5-3.2,15.2-5.2,23.5-4.9
			c6.3,0.2,12.5,0,19.2,0c0,6.1,0,11.7,0,17.8c-4.8,0-9.4,0-14,0c-9.5,0-15.3,5.8-15.3,15.3C424.7,174.3,424.7,210.7,424.7,247.2z
			 M491.9,605.8c0,13.5-9.4,22.8-20,25.3c-10.9,2.5-21.7,2.7-31.8-2.9c-7.6-4.2-12-10.7-12.1-19.6c-0.2-8.8-0.3-17.7-0.2-26.5
			c0.1-9,4.9-15.3,13.1-18.7c11.4-4.7,23.2-4.7,35.1-1.7c10.1,2.6,14.4,10,15.6,19.7c0.6,4.9,0.7,10.9,0.7,15
			C492.2,599.6,491.9,602,491.9,605.8z"/>
		<path d="M117.2,358c0-2.3-0.6-4.9-1.6-7c-8.4-18.3-33.2-18.1-43.5-7.4c-3.4,3.6-6.3,7.6-6.3,12.8c0,37.5-0.1,74.9,0,112.4
			c0.1,14.3,11.1,24.6,25.3,24.4c14.8-0.3,26.8-11.9,26.7-25.8c-0.1-18.1,0-36.2,0-54.3c-0.2,0-0.4,0-0.6,0
			C117.3,394.7,117.3,376.3,117.2,358z"/>
		<path d="M511.2,467.2c0.1,14.6,10.6,24.9,25.2,24.9c14.7,0,27-11.7,26.9-25.6c-0.2-36-0.5-72.1-0.6-108.1c0-5.1-1.7-9.2-4.6-13.1
			c-7.5-9.8-23-13-34.5-7c-7.9,4.1-12.6,10.4-12.5,20c0.2,17.7,0.1,35.4,0.1,53.1C511.2,430,511.1,448.6,511.2,467.2z"/>
		<path d="M339.7,464.7c0-23.7,0-47.5,0-71.2c0-9.2,0.1-18.5-4.2-27.1c-7.1-14.1-23.9-18.1-36.5-8.5c-9.2,7-12.1,16.9-12.2,27.9
			c-0.1,52.9-0.2,105.7,0.1,158.6c0,10.3,3.6,19.7,11.2,27.1c11.4,11.2,29.3,8.4,36.8-5.6c3.5-6.5,5.3-13.6,5.3-21.1
			c0.1-26.7,0-53.4,0-80.1C340.1,464.7,339.9,464.7,339.7,464.7z"/>
		<path d="M201.5,135.4c0-8.3-5-13.1-13.5-13.4c-9.1-0.2-14.5,4-14.6,12.5c-0.2,31.5-0.1,63.1,0,94.7c0,5,3.1,8.9,8,10
			c3.2,0.7,6.7,0.9,9.9,0.4c7.7-1.1,10.2-4.3,10.2-12.2c0-15.1,0-30.3,0-45.4C201.6,166.5,201.6,150.9,201.5,135.4z"/>
		<path d="M502,181.7c0,15.4,0,30.8,0,46.2c0,7,3.1,11.1,9.9,12.6c8.3,1.8,15.5-1.2,17.9-7.4c0.5-1.3,0.8-2.7,0.8-4.1
			c0.1-30.9,0.1-61.8,0.1-92.7c0-8-6.3-14.2-14.2-14.1c-8.6,0.1-14.8,7.4-14.6,14.2C502.3,151.4,502,166.5,502,181.7z"/>
		<path d="M302.4,198.8c5.1,4,11.1,4.4,17.1,1.8c5.4-2.4,6.5-7.2,6.5-12.5c0-8.8,0-17.7,0-26.5c0,0,0,0-0.1,0c0-9.2,0.1-18.5,0-27.7
			c-0.1-6.7-2.9-10.4-8.3-11.8c-6.8-1.7-14.4,0.5-17.2,5.4c-1,1.7-1.9,3.8-1.9,5.7c-0.1,19.4-0.2,38.7,0.1,58.1
			C298.6,193.9,300.4,197.2,302.4,198.8z"/>
	</g>
</g>
</svg>
