<?xml version="1.0" encoding="utf-8"?>
<!-- Generator: Adobe Illustrator 23.0.3, SVG Export Plug-In . SVG Version: 6.00 Build 0)  -->
<svg version="1.1" id="Layer_1" xmlns="http://www.w3.org/2000/svg" xmlns:xlink="http://www.w3.org/1999/xlink" x="0px" y="0px"
	 viewBox="0 0 1440 401.9" style="enable-background:new 0 0 1440 401.9;" xml:space="preserve">
<style type="text/css">
	.st0{fill:#060809;}
</style>
<path class="st0" d="M948.8,162.5c-14.5-11.6-28.9-18.5-46.1-13.5c-2.3,0.7-6.8,3.1-8.5,4.9c-7.7,8.4,1.3,20,10.8,24.4
	c19.4,9.1,35,13.2,51.1,27.9c11.6,10.4,16.9,22.7,33.1,24.4c2-12.2-4.1-20.9-10.9-30.8C969.3,186.6,961.3,172.6,948.8,162.5z"/>
<path class="st0" d="M792.2,165.3c-16.3,3.4-30.5,12.1-46.4,16.3c-9,2.4-27,2-31.9,11.6c-4.4,8.3,3.9,18.3,11.9,20.5
	c9.6,2.6,18.9-3.9,27-7.8c15.5-7.5,31.6-16.6,48.9-19.2c16-2.3,29.6,4.1,43.2,12.4c9.6,5.7,7.3,4.2,16.6,1.1
	c7-2.3,15.5-2.8,21.8-6.5c15.3-9.3-3.3-14.5-13.7-17.4C843.2,168.7,820.6,159.3,792.2,165.3z"/>
<path class="st0" d="M684.9,222.3c-6-5.2-13-2.9-19.9-3.7c-9-1-16.3-5.2-24.9-7.8c-26.4-7.7-59.6,15.6-81.6,28.2
	c-13.2,7.5-33.2,21.8-29.6,39.9c3.3,16.1,14.3,8,21.8-0.2c14.3-15.6,26.4-29.7,47.6-35.5c23.9-6.7,46.1,1.6,69.7-1.1
	C678.2,240.7,699.1,234.7,684.9,222.3z"/>
<path class="st0" d="M744.3,151.1c-19.4-2.9-38.3,3.9-56.5,9c-50.2,14-105.6-6.7-154.8,12.4c-10.8,4.1-24.6,13-26.9,25.3
	c-2.6,13.4,9.3,22.3,21.7,18.3c12.7-4.2,22.5-18.3,34.5-24.4c15.1-8,35-12.7,52.3-10.9c19.5,2,39.9,15.6,59.6,13.9
	c11.4-1.1,15.8-9.9,25.1-15c14-7.5,31.9-5.7,46.8-11.4C761.6,162.2,761.1,153.6,744.3,151.1z"/>
<path class="st0" d="M617,123.9c-17.3-2.1-34.2-6.2-51.6-8.6c-36.5-5.1-64.7,15-92.4,36c-6.7,5.1-19.5,13.9-13.5,23.8
	c6.8,11.4,22,2.8,29.3-2.9c16.3-12.5,29.2-26.2,49.8-31.6c26.2-6.7,54.6-2.8,81.1-0.3c0,0,10.4,1.8,9.8-7.2
	C629,126.3,622.5,124.5,617,123.9z"/>
<path class="st0" d="M1158.6,121.8c-8.3-4.1-24-9.5-30.6,0.3c-6.5,9.8,4.6,23.8,4.6,23.8c11.9,18.9,23.5,38.3,27.1,60.6
	c2.4,15,0.2,30.6,3.2,45.6c2.3,10.8,11.7,33.7,26.2,23.5c15.5-11.1,5.4-52.5,6-68.4C1196.7,173.4,1192.6,138.6,1158.6,121.8z"/>
<path class="st0" d="M910.7,208.5c-4.6,5.9,3.1,17.3,10.4,14.3c0.5-0.2,1-0.5,1.5-0.8c2.6-1.8,3.1-5.9,2.6-8.8
	C924.2,206.7,915.2,202.6,910.7,208.5z"/>
<path class="st0" d="M432.2,173.3c-23.5-2.9-37.1,16.6-47.7,34.5c-11.4,19.2-8.5,60.6-25.7,75.1c-2.3,2-9.1-4.1-12.1-2.8
	c-17.6,8-9.9,52.5,1.3,68.8c10.4,15.2,12.5,1.5,17.1-8.8c5.7-13.2,11.2-25.9,16.1-39.4c9.1-24.9,9-50,31.4-68
	c7.8-6.2,52.9-14.7,49.5-26.2c-2.6-9.1-25.4-2.3-30.9-2.1C429.6,194,436.5,183.7,432.2,173.3z"/>
<path class="st0" d="M870.2,103.1c1.8,3.5,5,3.7,9.3,1.2C898.5,93.1,858.8,80.3,870.2,103.1z"/>
<path class="st0" d="M732.9,236.5c-9.4-0.2-20.2,0.5-27.5,7.2c-7.3,6.8-2.8,10.9,6.2,13.4c10.3,2.8,31.3,1.8,38.1,11.2
	c4.7,6.5,1.5,9,12.4,9c12.1,0,25.1-4.7,37-1.3c7.3,2.1,12.7,9.1,20.5,9.9c7.5,0.7,14.5-4.2,11.1-12.1c-9.1-20.7-52.1-11.9-69.4-22
	C752.3,246.4,744,236.8,732.9,236.5z"/>
<path class="st0" d="M845,218.3c-10.8,0.2-20.9,2.8-31.4-0.3c-8.1-2.4-18.1-5.4-26.7-5.2c-7.2,0.3-20.4,5.5-14.2,14.7
	c6,9,26.6,4.1,35.3,4.9c16.3,1.8,23,9.5,34.9,18.6c7,5.4,13,4.9,14.8-4.4c1-4.9,2.1-15.5,1.5-20.5C858.4,218.1,852,218.1,845,218.3z
	"/>
<path class="st0" d="M1113.1,161.4l-1.3,8.8c-2.8,11.7,5.7,24.8,12.9,9.8C1128.5,172,1124.5,157.1,1113.1,161.4z"/>
<path class="st0" d="M1289.2,227.5c-6.7,18.1,8.5,35.2,20.4,46.6c8.1,8,16.5,15.3,22.6,25.1c3.9,6.2,6.7,17.3,13.5,21
	c5.4,2.9,13.8,1.3,18.4-2.6c8-6.8,4.7-15.3,0.5-23.5c-8.3-15.6-34.9-33.7-29.7-53.1c5.7-21.7,33.9-38.1,30.8-62.6
	c-2.3-17.6-59.3-86.2-64.7-43.7c-1.3,10.6,1.1,20.9,6.2,30.1c4.4,8,15.6,16.8,17.4,25.7C1327.8,205.7,1294.9,211.9,1289.2,227.5z"/>
<path class="st0" d="M371.4,101.8c-3.1-8.8-17.8-11.2-25.4-9c-27,8-13.5,50.4-22.8,70.6c-12.5,27.4-41.9,42.4-52.8,71.5
	c-13.4,36,31.9,41.6,47.4,14.3c9.4-16.6,15-30.3,29.6-43.7c13.2-11.7,21.8-16.9,18.6-36.2c-3.4-20-9.9-29.7-2.1-48.9
	C366.7,113.5,374.5,110.7,371.4,101.8z"/>
<path class="st0" d="M0,220v48.1c16.2-16.2,43.1-24.1,43.5-50.3C28.6,214.6,14.4,220.5,0,220z"/>
<path class="st0" d="M0,179.3v21C29.7,204.3,7.4,167.5,0,179.3z"/>
<path class="st0" d="M1440,0.1L0,0v155.7c0.4-0.4,0.7-0.8,1-1.3c8.1-11.2,8-26.2,13.5-38.6C21.7,100,32.3,94.7,47,86.2
	c10.4-6,36.5-14.7,45.7-40c5.3-14.5,15.9-12.9,21.2-7.2c8.7,9.4-4,26.7-10.7,35.4c-15,19.6-37.8,38.3-54.9,55.4
	c-10.3,10.4-29.6,41.1-10.9,53.1c18.9,12.2,43.5-22.2,51.8-34.5c9.6-14,15.5-31.9,27.2-44.5c9.9-10.4,23.9-14.7,35.7-22.3
	c9.9-5.7,11.5-12.4,21.2-23.1c13.3-14.6,30.5,3,17.4,20.8c-13.4,18.2-31.4,25.8-48.4,46.2c-12.3,14.8-21.7,45.5-24.6,52.7
	c-15.1,38.1-51.1,53.1-74.4,85.2c-7.5,10.4-30.5,59.8-11.2,61.9c28,3.1,46.6-3.5,60.7-28.1c12.9-22.6,6.2-35.3,17.8-41.3
	c10.7-5.5,10.7,5.8,21.3,0.9c13.1-6-7.4-39,10.9-51c10.3-6.8,25.8,1.6,16.6,20.4c-15,30.7,9.4,26.8-0.2,58.4
	c-9.9,32.4-16.4,85.3,4.3,103.5c12.4,10.8,23.6-9.8,10.9-20.8c-21.4-18.7,15.7-60.2,23-82.3c9.4-28.5-11.7-59.3-3.7-87.8
	c5.5-18.9,15.4-16.5,30.6-22.5c20.7-8.1,27-20.9,21.4-40.1c-10.1-34.6,13.5-41.1,16.6-16.8c2.3,18.1,0.5,31.8,8.9,50.2
	c35,4.7,32.6-58.8,39.6-79c9-25.8,42-25.8,48.1-52.8c4.8-21.3,18.9-23.6,29-14.3c6.8,6.2,3.8,21.2-3.7,30.9
	c-14.5,18.9,17.5,19.1,33.1,13.8c11.7-3.8,20.5-13.1,29.7-21.8c1.3-0.8,2.6-1.6,4-2.4c16.1-10.3,73.2-17.3,107.9-17.3
	s48.1,10.1,23,19.7c-17.9,3-35.4,8-53.4,10.6c-20.4,2.8-40.4,4.4-59.9,11.2c-25.6,9-73.1,26.7-74.3,59.5c-1,28.4,28,17.3,42.5,7.8
	c29.8-19.4,53.9-40.6,91.4-41.9c28.3-1,60.3,10.1,87.6,0c10.1-3.7,15.1-17.5,25.4-16.6c11.4,1,11.4,15.1,5.6,20.8
	c-17.2,16.9,17.5,23.7,18.4,29.6c1.3,7-4.8,11.3-2.5,14.9c2.4,3.9,19.7,3.6,23.9,3.3c24.1-1.6,47.7-17.1,71.5-7.5
	c13.4,5.4,28.3,21.8,43.5,13.2c6.8-3.9,21.1-11.2,16.3-19.6c-13.4-23.1-64.5-12.4-89.1-19.8c-22.6-6.9-45.9-30.5-52.5-45.9
	c-7.7-18.1,17.8-20.9,22.5-8.9c5.8,14.7,22.9,39.7,83,37.3c26.2-1,45,15.5,64.6,36.3c5.2,5.6,28.9,24.5,30.2,5.9
	c0.7-9.6-12.3-12.4-23-23.5C835,92.2,818.1,71,772.3,67.3c-10.4-0.8-13.7-15.1,3.5-17.7c12.7-1.9,31.9,3.7,47.5,13.5
	c9.1,5.7,24.5,20.7,31.2,16.6c7-4.3,2-12.1-4.9-20.7c-5.1-6.5-10.5-12.8-15.7-19.2c-0.4-0.5-3.6-4.8-3.4-8.4
	c0.3-3.8,10-0.5,19.1,4.2c23.1,13.4,42,38.9,47.6,65.2c2.8,12.9-0.8,23.6,13.2,29.3c9.4,3.9,19.7,6,29.3,9.3
	c12.5,4.4,22.3,12.1,32.7,20c5.4,4.2,16.1,20.2,23.6,17.6c7.3-2.5-8.2-21.9-14.3-37.1c-6.5-16.1,10.9-20.3,15.1-14.1
	c7.2,10.4,2.9,20.7,6.7,31.8c4.1,12.1,13.8,14.8,25.1,17.3c11.1,2.4,70.4,30.5,67.4,10.4c-2.3-16.1-34-35.2-45.7-42.7
	c-15.6-9.9-24.5-56.4-59.6-88.4c-14.4-13.1-29.5-14.3-29.5-27.5c0-27.8,26.8-6.3,45.7,12.8c33,33.4,37.8,76.9,52.5,76.9
	c8.5,0,8.2-8.5,5.9-16.4c-2.6-31.4,27.9-7.6,28.1,1.6c0,0.3-0.1,0.7-0.1,1c-1.7,7.9-4.3,14.6-4.6,15.4c-2.4,5.7-4.6,11.4-2.4,17.6
	c3.8,10.3,13.5,10.9,20.2,3.3c8.2-9.5,2.7-27.2,12.7-34.9c20-15.4,30.9-27.9,30.6-48.5c-0.2-15,23.3-14.9,22.2,1.8
	c-0.2,3.7-1.5,7.4-0.7,11.6c3.6,18.9,23.4,28.7,34.6,43.1c24.6,31.1,27.2,68,18.4,104.6c-2.1,8.6-9.1,34.1,6.7,32.8
	c15.6-1.3,29.8-31.6,35-43.4c10.1-22.2,13.5-46.6,3.7-69.4c-6.6-15.3-19.7-24.1-28.8-36.7c-14.1-19.7,7.2-38,24.2-16.9
	c7.3,9,18.4,10.7,28,11.2c24.6,1.1,28.2-44,30.8-62.6c0.6-4.2,7.2-8.1,17.7-4.9c9.8,3,5.1,18.1,10,29.4
	c5.4,12.1,28.8,18.9,39.3,24.9c14.7,8.5,28.5,18.7,35.7,34.5c5.5,12.3,5.4,27.2,13.4,38.4V0.1z"/>
<path class="st0" d="M1440,184.7c-13.8-2.5-21.9-5.6-29.8-24.6c-7.7-18.3-9.8-37-21.3-53.6c-9-13-23-28.2-40.6-21.3
	c-11.1,4.4-9,16.2-1,21.7c28.1,19.5,39.5,27.1,41.1,48.2c1.2,15.4-4.3,28.7-2.8,38.3c4.2,27.7,29.6,13.7,49.7,21.7
	c1.7,0.7,3.2,1.5,4.7,2.5V184.7z"/>
</svg>
