<?xml version="1.0" encoding="utf-8"?>
<!-- Generator: Adobe Illustrator 23.0.3, SVG Export Plug-In . SVG Version: 6.00 Build 0)  -->
<svg version="1.1" id="Layer_1" xmlns="http://www.w3.org/2000/svg" xmlns:xlink="http://www.w3.org/1999/xlink" x="0px" y="0px"
	 viewBox="0 0 1440 675.7" style="enable-background:new 0 0 1440 675.7;" xml:space="preserve">
<style type="text/css">
	.st0{fill:#F4F4F4;}
</style>
<g>
	<path class="st0" d="M1181.4,587.5c-9.5-8.3-20.9-10-32.6-9.7c2.8,5.1,8.1,20.1,13.4,22C1166.4,601.3,1183,588.8,1181.4,587.5z"/>
	<path class="st0" d="M497.8,627.9c35.9-19.3,113.8-96.6,113.8-96.6c-1.2-0.8-3,0-3.4-1.9c-48.3,22.4-97.4,46.2-143.8,73.1
		c15-0.6,43.6-5.3,59.2-14.2C516.9,601.5,491.8,612.7,497.8,627.9z"/>
	<path class="st0" d="M1379.5,212.3c19.7,0.3,40.5-3.2,60.5-3.6v-43.1C1419.8,181.4,1396.2,193.8,1379.5,212.3z"/>
	<path class="st0" d="M71.1,459.4c19.5-1.9,40,0.2,58.6-8c-41-5.9-87.7,1.9-129.7,2.5v20.6c1.7-0.6,3.5-1.2,5.2-1.7
		C26.3,466,49,461.7,71.1,459.4z"/>
	<path class="st0" d="M1326.2,157.2c10.3-9.7,21.7-19.1,33.9-26c14.2-7.8,30.4-7.6,44.6-14.6c12.1-5.9,23.6-14.7,35.3-23.6V0H0
		v150.9c27.7,5.7,83.6,27.1,80,53.6c-2.9,21.3-50.2,20.1-80,14.2v152.4c59.7-17.2,126.6-30.1,182.7-17.6
		c-15.6,1.5-32.3,9.5-46.4,16.9c16,7.4,35.9,3.6,53.1,11.2c-62.8,0.9-126.5,8.2-189.5,18.1v45.6c7.8,0.2,15,0.5,20.6,0.5
		c37.5-0.4,75.2,0,112.6,0c44.8,0,89.4,1.1,134.1,1.1l-10.7,11.6c-17.9,0.4-37.1,9.5-54.4,14.2c-40.4,10.8-81.9,11.4-123.1,16.7
		C53,492.9,26.5,498.4,0,503v37.2c38-5.5,93.4-17.2,135.6-20.5c0,0-46.2,29-135.6,57.9v29.5c35.1-12.8,68.6-29.5,105.4-48.9
		C222,496.7,351,437.4,482.6,443.7c15.8-1.1,30.8,2.1,45,9.3c-84.6,13.6-154.4,15.5-237.1,48.7c-54.4,21.8-107.7,62.7-152.9,100.4
		c-6.9,5.7-13.6,11.4-20.5,17.4c-11.8,29.6-22.7,61.6-5.1,44c40.8-40.9,66.9-82.2,130.2-86.8c25.1-1.9-25.1,38.7-41.4,59.3
		c-12.8,16.1,18.1,11.4,35.5,10.6c90.5-56.1,191.3-110.1,209.1-91c-73,46.6-88.8,61.4-75,65.6C530.1,540.7,556.5,519.9,715.9,452
		c-41.4,84.3-164.1,148-154.6,159c4.3,8,52.9-50,73.4,16.5c11,25.8,43.4-103.8,56.2-95.7c-1.6,4-7.1,115.6,8.9,68.2
		c15.8-46.6,9.1-74.1,28-125.3c2.6,24.8,65.3,181.7,47.9,190.8c51.7-27.3,6.9-128.5-15.8-173.4c51.1,30.3,83.8,209.6,165.9,175.7
		c8.7-6.4-9.1-21.2-26-45.9c17.4,9.7,35.3,17.4,53.9,22.7c4.5-6.4-43.8-36.2-67.7-51.2c1.2,0.2-52.5-37.3-60-63.1
		c57.2,27.5,124.3,74.1,134.1,57.2c-17.6-12.1-67.1-42.3-96.1-62.9c75.9,0.8,173.6,63.7,239.9,100.6c12-5.7-72.8-65-65.3-69.5
		c3.9-0.2,65.5,23.5,83.2,25.6c10.5,1.3-64.5-43.6-71-46.6c-29.6-13.3-49.7-11.6-80.9-23.3l37.5-16.9c45.8-12.1,100.8-7.8,146.4-0.6
		c48.3,7.6,165.3,32.4,147.7,48.7c-85-14.2-221.5-32.6-225.1-24.8c-5.9,12.7,63.1,10.6,159.8,59.3c60.9,30.7,110.5,69.9,161.8,95.3
		c17.8-14.8-5.9-27.5-41.4-48.7c-10.8-6.4-55.2-25.4-68.8-49.5c5.7-5.5,53.1,17.8,84.6,17.8c7.1,0-30.2-34.5-36.3-38.5
		c8.4-11.2,52.7,1.8,103.9,19.7v-41.1c-51.6-10.6-94.3-20.4-92.7-23.8l-41.6-15.9c24.5-3.2,58.6,0,84.8,2.3
		c14.7,1.2,31.8,2.9,49.5,5.2v-42c-13,0-26,0-39,0.2c-36.1,0.4-72.2,1.9-108.1,1.9l-4.9-0.6c7.9-5.1,39.7-5.3,52.7-6.1
		c33.2-2.1,66.3-4,99.4-6v-46.9c-18.9,8.9-50.1,4.2-67.8,4.4c12.4-11.9,44.4-15.7,61.1-17.8l6.7,3.1v-52.1
		c-12.4,1.2-24.9,2.4-37.3,4.4c-16.2,2.5-31.9,3-48.1,4.7c-31,3.4-59.2,14.4-88.8,24.4l-4.5,0.6c24.3-16.1,54-23.1,80.5-32
		c17.6-5.9,37.3-5.5,55.4-8c14.2-2,28.5-4.7,42.8-6.1v-93.8c-14.3,7.5-31,12.6-40.4,16.2c-39.1,15-79.9,25.8-120.5,34.1
		c-14,2.8-29.8,8-43.4,0.8l43-44.9c22.3-34.7,97.4-61.2,130.6-76.2c6.9-3.1,18.9-6.8,30.8-11.3v-33.9c-16.6,9.7-33.5,18.8-51.1,26.7
		c-20.5,9.3-41,17.8-61.3,27.7c-10.2,5.1-20.5,11.6-31.4,15C1303.5,174.6,1316.6,166.3,1326.2,157.2z M293.8,586.6
		c-3.9,13.1-25.6,16.3-24.1,3c5.9-48.7-45.4-21.2-16.6-44.5c53.8-43.6,40.2-4.2,30.4,27.7C279.6,585.4,297.3,574.8,293.8,586.6z
		 M416.5,533.7c-30.6,14.4-71.2,28.2-101.4,43.2c29.6-52.9,80.1-73.1,124.9-88.1c0,0,66.5-6.4,76.5-5.9
		C501.7,503.9,438.6,523.3,416.5,533.7z M1113.6,106c20.3-31.3,41-62.2,62.9-92.3c-3.8,41.2-28.2,91.5-50.7,121.4
		c-11.8,15.9-27.6,36.4-45.6,44.3l-10.1,0.2c-1.2,0.8-2.2,1.9-3.4,2.8C1077.3,154.9,1097.8,130.1,1113.6,106z M935.3,291.7
		c-9.1,20.5-25.4,40.7-40,56.7c-16.2,17.8-33.7,35.1-52.5,49.8c-15,11.6-30.6,22.4-46.7,32.2c-6.3,3.8-18.7,13.8-27.2,10.6l-1.8-4.7
		c2.2-14.6,10.1-15,21.1-23.7c21.3-16.9,41-33.5,60.6-52.9C874.7,333.8,911.2,319.6,935.3,291.7z M822.2,185
		c5.5-5.9,29-56.7,36.5-58.7c5.9-1.3,12.6,2.8,22.5,3.2c-2.8,11-39.3,91.3-47.3,97.6c-30.4,23.7-64.7,136.1-92.1,163.7
		c0.8-6.4,3.4-11,5.3-16.9c12.2-35.1,47.3-162.2,62.7-196.1l21.7-84.5C831.3,102.8,821.8,175.4,822.2,185z M749.1,152.8
		c1.8-12.7,3.4-25.2,4.7-37.9c1.4-12.5,1-28.6,5.1-40.7L772.5,34c0,18.2-0.6,36.8,0,55.1c11-22.9,22.9-43.2,41.4-61.4
		c-5.3,26.3-18.5,52.3-29.8,76c-10.5,22-21.5,45.3-37.9,63.1C748.5,162.5,748.5,157.7,749.1,152.8z M676.9,210.2
		c0.2,33.7-3.9,68.6-3.4,102.1c-1.4-4.7-2.4-9.3-4.7-13.8c-13.4-24.8-47.3-34.9-60.8-58.4l-2.4-14.6c4.5,1.9,10.3,2.8,14.4,5.1
		c2.4,1.3,4.5,3.4,6.3,5.1c5.5,5.3,18.5,24.1,26.2,23.7c1.8-3.6,4.5-6.6,6.5-10.2C666.2,237.1,669,221.4,676.9,210.2z M616.3,97.1
		c4.1-19.9,0-41.3,2-61.6c18.1,41.5,20.7,91,27,135.7c2.8,19.1,6.7,38.3,7.7,57.6l-8.3-0.2c-31.4-19.5-48.7-74.1-62.9-106.1
		c-11.4-25.8-23.3-52.1-32.5-79C578.6,48.4,599.5,73.8,616.3,97.1z M509.6,203.4c-11.6-16.7-18.3-18.8-10.7-40.7
		c9.5,1.7,95.7,104,101.8,112.2c11.2,14.8,21.3,28.4,34.5,41.5c25.6,25.2,44.8,61.6,62.5,92.5h-0.2v5.9c-11-13.8-23.9-25-35.9-37.9
		c-16.4-17.6-32.5-32-51.5-46.6C593.4,317.5,493,224.1,481.8,204.7C490.7,202.8,500.5,204.9,509.6,203.4z M300.9,31.9
		c17.2,15,36.3,27.3,54,41.5c14.6,11.6,28.8,23.5,43,35.8c8.3,6.1,15.4,13.6,20.9,22.2c0.2-0.8,1.8,4.9,1.8,4.9
		c-19.1-2.5-52.1-18.8-64.5-35.1l-62.3-76C296,27.9,298.3,29.6,300.9,31.9z M129.1,136.5c12.8,2.8,33.1,15,31,32.2
		c-12-1.1-33.3-12.9-38.5-25L129.1,136.5z M32,301.4c-0.8-0.8,18.5-17.2,22.7-15.5c6.5,2.5,10.1,26.3,10.7,33.2
		C54.1,314.6,40.9,310.7,32,301.4z M71.1,263.1l1.4-15c10.3,0,21.3,0.4,31.4,3.8c6.7,2.5,12.2,6.8,17.8,10.6
		c12.6,9.1,26,15.9,39.5,23.7c7.5,4.2,24.9,11.6,26.4,21.8C147.2,299.3,110.5,276.4,71.1,263.1z M106,206.6l17.2-21.4
		c20.3,2.3,115.6,56.1,132.2,64.2c33.1,16.3,66.3,32.8,100.4,47.2c35.5,15,72.8,23.9,108.3,37.5c-20.3,21-106.9-14.6-125.3-19.7
		c-36.7-10.4-74.8-19.7-108.9-37.9C212.1,266.9,125.1,213.6,106,206.6z M486.7,410.1c-69.8-3.8-139.1,3-209.1,0.8
		c-22.9-0.6-66.3,3.4-86.2-8.3c-0.2-0.8-0.2-1.5-0.4-2.3c16.4-12.9,54.8-13.1,75.3-14.2c-15-6.4-31-9.7-46.2-15.2
		c61.3-9.5,130,4.2,191.1,11.2c22.7,2.5,56.8,9.1,76.9,19.7L486.7,410.1z M502.1,388c1.4-1.7,2.6-2.3,3.7-4l-11.6-12.3
		c-0.2-3-0.2-5.7,0.2-8.5C531.5,352,514.1,411.5,502.1,388z M548.1,482.7c2.6-20.1,24.3-15.7,34.3-25.2c-14.2-0.8-35.5-15-46-24.3
		c42.8,2.3,85.8,9.7,128,18c-0.4,2.3,1,2.5,1.4,4.2C666,455.4,580.6,486.3,548.1,482.7z M698,435c-7.5,8.5-22.5-2.5-31.2-5.3
		c-17.8-5.5-35.1-12.7-53.1-15.9c-25.2-4.4-56-8.3-81.3-7.8c6.3-4.9,12.2-10.2,18.1-15.2c10.3-8.5,11.8-6.6,5.1-16.9
		c-11-16.7-36.3-25.4-52.7-35.1c-16.8-10-32-22.7-49.5-31.3c-12.6-6.1-26.2-12.1-37.9-20.5c41.6-1.9,85.6,30.1,121.3,49.3
		c54,29,112,59.1,161.7,95.7L698,435z M722.2,428.5l-3.4-15c-4.3-12.5-8.9-26.7-10.3-39.4c-0.6-4.4-0.6-8.3-2-12.7
		c5.1-4.7,13.4-12.1,20.3-12.1c-0.6,19.5-3,38.7-3.9,58.2C722.8,410.9,723.8,425.5,722.2,428.5z M704.3,340
		c-2.4-37.7-15.8-137-7.5-173c6.5-28.6,11.2-74.5,30.2-97.2c7.1,46.2-1.6,97.6-3.5,144c8.1-1.5,22.9-19.3,26.6-23.3
		c17.9-19.7,34.1-41.1,46.7-65c-18.5,43.4-32.9,89.6-47.5,134.7c-5.5,17.2-13.2,34.3-16.2,52.5L704.3,340z M916.5,204.2
		c-0.2,12.9-16.6,26.5-23.5,34.9c-27.2,33.7-48.7,75.4-77.5,107.1l-73.8,90.4C734.3,414.3,889.3,216.3,916.5,204.2z M812.8,518
		c-9.1-5.3-18.1-13.6-22.7-23.9c9.9,2.5,19.7,10.4,27.4,17.2L812.8,518z M742.9,461.5c19.5-0.2,117,8,116.6,30.5
		C829.1,494.5,770.9,471,742.9,461.5z M830.3,453c-1-10.2,26.2-34.7,34.3-44.7c31.2-38.7,67.1-71.1,102.4-105.4
		c37.1-35.8,66.3-71.1,115.2-88.3c25.8-9.1,54.6-15.9,81.9-14.4c-51.5,59.1-231.6,176.2-288,228.9
		c21.7-12.1,179.1-101.4,202.6-108.6c51.1-15.2,92.9-38.3,146.4-26.7c-6.5,7.2-17.6,9.7-26.2,13.1c-28.2,11.2-56,24.1-84,36.4
		c-76.5,33.9-167.5,64.8-232.2,120.9L830.3,453z M1146.7,373.4c-9.9,5.1-15.8,8-25.4,11c-20.1,6.4-39.1,11.6-58.6,21.6
		c-16.8,8.7-37.1,18.4-55.4,20.3c2.6-13.3,15.6-16.9,26.2-22.2c30.2-15,60.2-31.3,93.5-37.3L1146.7,373.4z M904.1,492.2l-18.3-10.4
		c4.5-3.8,9.5-4.9,15.2-6.8c33.1-10.8,77.3-22.7,112.6-23.1C981.8,469.1,940,494.8,904.1,492.2z M1226.2,479.7
		c-1.4-1.7,16.8-11.2,20.7-8.9c4.9,2.5,8.1,18.2,10.2,23.7C1245.5,492.8,1234.5,489.5,1226.2,479.7z M1323.2,397.4
		c-5.7,14-24.8,22.9-35.9,28.6c-51.1,25.8-113,26-168.4,26.9c-20.7,0.4-79.7,6.4-79.7,1.3c-0.2-8.5,89.4-26.3,89.4-26.3
		c4.9,4,54.8-17.6,62.9-19.5C1234.3,398.6,1279.7,395.2,1323.2,397.4z M1262.1,318c-9.1,0.8-18.7,4.2-28,3.6
		C1236.3,297.8,1253.8,318.8,1262.1,318z M1230.2,193.4l3.3-9.1c-10.7-10.2,44.2-37.1,58-32.6C1277.7,172.9,1254,189.6,1230.2,193.4
		z M1265.8,109.4c-8.5,5.9-17.5,10-27.2,12.1c0.6,0.6-4.9,0-4.9,0c9.7-17.8,36.5-44,55.2-50l87.1-31.3c0.8-0.3,1.6-0.7,2.5-0.9
		l-2.5,0.9c-2,0.9-3.9,2.1-6,3.3c-19.5,11-37.7,25.2-56.6,37.3C1297.6,90.8,1281.8,100.3,1265.8,109.4z"/>
	<path class="st0" d="M41.5,197.3C39.7,182.6,17,168.5,0,157.7v52.1C19.7,208.7,40.4,205.3,41.5,197.3z"/>
</g>
</svg>
