<svg xmlns="http://www.w3.org/2000/svg" viewBox="0 0 629.9 800"><path fill="#b5dc11" d="M26.4 38.8h559.5V283H26.4zM421.6 552.6H499v87.9h-77.4z"/><path d="M620.9 551.7a485.8 485.8 0 0 1-39.7 78.1c-.8 1.2-2.3 2.8-3.5 2.8-15 .2-30 .1-45.8.1 14-34.6 23.2-69.2 27.3-104.9-10.6.6-20.7 1.6-30.8 1.6a99.8 99.8 0 0 1-55.8-14.8 80 80 0 0 1-37.6-63.9c-2-25.4-2-50.8-.3-76.2a67.2 67.2 0 0 1 10.9-30.1 96.1 96.1 0 0 1 71.6-46 125 125 0 0 1 64.4 6 89.5 89.5 0 0 1 38.8 28.8l2.3 2.8.2-3.9c0-94.2.1-188.4-.1-282.7 0-6.8-1.3-13.8-3.2-20.4-3-10.6-9-19.2-19.9-23.3H30.5C16.2 11 11.1 23.1 8.3 36.6 7.3 41.2 7 46 7 50.7V333.9c6.3-5.6 12.1-11.6 18.8-16.5 22.5-16.4 48.4-20.9 75.6-19.5 20.1 1.1 39 6.4 55.4 18.5a91.8 91.8 0 0 1 35.8 54c1.6 6.7 1.1 14 1.1 21.1-.1 29.3-.1 58.5-.8 87.8a204 204 0 0 1-14.8 66.2 487 487 0 0 1-41.9 84.7c-1.5 2.5-3.2 3.4-6.1 3.3-13.5-.4-26.9-.5-40.4-.8l-2.5-.2c4-11.4 8.2-22.5 11.6-33.9 3.5-11.5 6.5-23.2 9-35 2.5-11.6 4.2-23.4 6.4-35.6-6.2.6-11.5 1.3-16.8 1.7-19.8 1.5-39.2 0-57.8-7.8a81.9 81.9 0 0 1-32.4-24.3l-.2 4.3v247.6c0 8.3 1.1 16.4 4.2 24.1 3.7 9.4 9.3 17.1 19.3 20.6h569.2c16.8-7.1 20.9-22 23-38 .2-1.8.2-3.6.2-5.4V551.7v-3.1l-.6-.2-1.4 3.3zM479.1 116.3c18-17.3 59.3-18.9 77.4 4.4a51.3 51.3 0 0 1 10.6 35.1c-.8 20.2-.8 40.5-.6 60.8a36.2 36.2 0 0 1-20.2 34.2 63 63 0 0 1-58.2 2.1 37.5 37.5 0 0 1-22.8-35.8c-.2-12.3 0-24.6 0-36.9 0-10.9.5-21.8-.1-32.7a39 39 0 0 1 13.9-31.2zm-175.6-12.6a56.4 56.4 0 0 1 35.4 6c12.8 7.5 22 18 22.8 33.4.7 13.9 1 28 .2 41.9-.9 16-10.6 25.8-25.6 30.7-9.2 3-18.6 3.5-28.1 3.2h-7.1c1.6 17.8 6.1 34.7 13.1 51.4-7.6 0-14.7.1-21.9-.1-1 0-2.3-1.1-2.9-2-14.1-22.2-25.6-45.4-27.1-72.2-.9-16-1.4-32-1.4-48 .1-22 17.2-41.6 42.6-44.3zm-199 149H66.7l-.3-4.2c0-44.1.1-88.2-.1-132.3 0-3.9 1.1-5 5-4.9 9.4.3 18.7.1 28.1.1 5.1 0 5.1 0 5.1 4.9v136.4zm-.3-164c-.7 4-3.5 6.6-7.1 8-7.3 2.9-14.8 3-22-.3a10.4 10.4 0 0 1-6.7-9.9c0-3.2-.2-6.4-.1-9.6.1-6.8 2.9-10.4 9.7-11.8 3-.6 6.1-.8 8.1-1l4.9.3c9.9.6 13.3 3.8 13.9 13.7.1 3.4-.1 7.1-.7 10.6zm52.9 163a36.9 36.9 0 0 1-21.7-34.2c-.3-22.9-.1-45.9 0-68.9.1-21.6 7.7-41.1 17.5-60 3.8-7.3 8-14.3 11.8-21.6 1.3-2.4 2.9-3.2 5.5-3.1 5.6.2 11.3.1 16.7.1l-9.8 39c7.4.7 14 1.1 20.5 2.1a56.3 56.3 0 0 1 24.5 9.5 34.8 34.8 0 0 1 14.4 30c-.1 26.7-.3 53.4-1.6 80-.7 13.9-9 24.2-22 29.2a66.8 66.8 0 0 1-55.8-2.1zm257 286.8c-3.1 39.6-24.3 67.1-59.8 84a94.2 94.2 0 0 1-33.4 10c-34.9 2.3-63.7-9.7-84.4-38.6a126.2 126.2 0 0 1-22.6-64.2 649.6 649.6 0 0 1 1.1-133c4.4-36.1 20.7-66.6 52.6-86.4 29.6-18.4 79.1-19.9 110.3 10.1 17.7 17 27.9 38 34.8 61.1 4 13.6 3.3 27.4 3.6 41.2.3 14.2.1 28.5.1 42.7.2.1-.4 48.9-2.3 73.1zm10.6-291.3v5.3h-34.6l-.3-4.6c0-35.3.3-70.6-.2-105.9-.2-16.2 7.4-26.3 21.6-32.4a54.2 54.2 0 0 1 23.5-4.9c6.3.2 12.5 0 19.2 0v17.8h-14c-9.5 0-15.3 5.8-15.3 15.3l.1 109.4zm67.2 358.6c0 13.5-9.4 22.8-20 25.3a43.3 43.3 0 0 1-31.8-2.9 21.6 21.6 0 0 1-12.1-19.6c-.2-8.8-.3-17.7-.2-26.5.1-9 4.9-15.3 13.1-18.7a54.8 54.8 0 0 1 35.1-1.7c10.1 2.6 14.4 10 15.6 19.7.6 4.9.7 10.9.7 15-.1 3.2-.4 5.6-.4 9.4z"/><path d="M117.2 358a17 17 0 0 0-1.6-7c-8.4-18.3-33.2-18.1-43.5-7.4-3.4 3.6-6.3 7.6-6.3 12.8v112.4a24.2 24.2 0 0 0 25.3 24.4 25.7 25.7 0 0 0 25.7-25.8c-.1-18.1.5-91.1.4-109.4zM511.2 467.2a24.2 24.2 0 0 0 25.2 24.9c14.7 0 27-11.7 26.9-25.6l-.6-108.1a21 21 0 0 0-4.6-13.1c-7.5-9.8-23-13-34.5-7-7.9 4.1-12.6 10.4-12.5 20 .2 17.7.1 35.4.1 53.1v55.8zM339.7 393.5c0-9.2.1-18.5-4.2-27.1a23.8 23.8 0 0 0-36.5-8.5c-9.2 7-12.1 16.9-12.2 27.9-.1 52.9-.2 105.7.1 158.6 0 10.3 3.6 19.7 11.2 27.1a22.9 22.9 0 0 0 36.8-5.6 43.6 43.6 0 0 0 4.8-21.1c.1-26.7 0-127.6 0-151.3zM201.5 135.4c0-8.3-5-13.1-13.5-13.4-9.1-.2-14.5 4-14.6 12.5-.2 31.5-.1 63.1 0 94.7 0 5 3.1 8.9 8 10 3.2.7 6.7.9 9.9.4 7.7-1.1 10.2-4.3 10.2-12.2V182v-46.6zM502 181.7v46.2c0 7 3.1 11.1 9.9 12.6 8.3 1.8 15.5-1.2 17.9-7.4.5-1.3.8-2.7.8-4.1l.1-92.7a14 14 0 0 0-14.2-14.1c-8.6.1-14.8 7.4-14.6 14.2.4 15 .1 30.1.1 45.3zM302.4 198.8a16 16 0 0 0 17.1 1.8c5.4-2.4 6.5-7.2 6.5-12.5v-26.5h-.1v-27.7c-.1-6.7-2.9-10.4-8.3-11.8-6.8-1.7-14.4.5-17.2 5.4a12 12 0 0 0-1.9 5.7c-.1 19.4-.2 38.7.1 58.1a11 11 0 0 0 3.8 7.5z"/></svg>