<svg xmlns="http://www.w3.org/2000/svg" viewBox="0 0 244.5 245">
  <path d="M122.2 22.9c32.5 0 36.5 0 49.4.6 12 .6 18.4 2.5 22.7 4.3a36 36 0 0 1 14.1 9.2 36 36 0 0 1 9.2 14.1 72.8 72.8 0 0 1 4.3 22.7c.6 12.9.6 16.9.6 49.4s0 36.5-.6 49.4c-.6 12-2.5 18.4-4.3 22.7a36 36 0 0 1-9.2 14.1 36 36 0 0 1-14.1 9.2 72.8 72.8 0 0 1-22.7 4.3c-12.9.6-16.9.6-49.4.6s-36.5 0-49.4-.6c-12-.6-18.4-2.5-22.7-4.3a36 36 0 0 1-14.1-9.2 36 36 0 0 1-9.2-14.1 72.8 72.8 0 0 1-4.3-22.7c-.6-12.9-.6-16.9-.6-49.4s0-36.5.6-49.4c.6-12 2.5-18.4 4.3-22.7A36 36 0 0 1 36 37a36 36 0 0 1 14.1-9.2 72.8 72.8 0 0 1 22.7-4.3c12.9-.6 16.9-.6 49.4-.6m0-22.1c-33.1 0-37.4 0-50.3.6S50.1 4.2 42.1 6.9c-8 3.1-14.7 7.4-21.5 14.1S9.6 34.6 6.5 42.5A81.1 81.1 0 0 0 1 72.3C.4 85.2.4 89.5.4 122.6s0 37.4.6 50.3a103 103 0 0 0 5.5 29.8c3.1 8 7.4 14.7 14.1 21.5 6.8 6.8 13.5 11 21.5 14.1a81.1 81.1 0 0 0 29.8 5.5c12.9.6 17.2.6 50.3.6s37.4 0 50.3-.6a103 103 0 0 0 29.8-5.5c8-3.1 14.7-7.4 21.5-14.1 6.8-6.8 11-13.5 14.1-21.5a81.1 81.1 0 0 0 5.5-29.8c.6-12.9.6-17.2.6-50.3s0-37.4-.6-50.3a103 103 0 0 0-5.5-29.8c-3.1-8-7.4-14.7-14.1-21.5a59.4 59.4 0 0 0-21.5-14.1 81.1 81.1 0 0 0-29.8-5.5C159.6.8 155.3.8 122.2.8z"/>
  <path d="M122.2 60.3a62.6 62.6 0 1 0 0 125.3 62.6 62.6 0 0 0 0-125.3zm0 103.5a40.8 40.8 0 1 1 0-81.6 40.8 40.8 0 0 1 0 81.6z"/>
  <circle cx="187.3" cy="57.9" r="14.7"/>
</svg>