<svg xmlns="http://www.w3.org/2000/svg" viewBox="0 0 1440 906">
  <path fill="#3cb3e0" d="M1390.8 760.8c-12.6-10.8 7.7-31 14-39.1 9.8-12.8 28.5-25.6 35.2-40.9v-37.9c-3.7-14.8-10.5-29.7-18.3-39.3-1-1.3-1.7-2.8-1.8-4.5l-.1-2c-.3-4 2.5-7.6 6.5-8.4 4.8-1 9.4-1.5 13.8-1.3v-26-.1c-10.1-8-4.4-19.5-3.4-30.3 1.8-18.1-3.4-37-6.7-54.8-3.6-19.1-12.2-38.5-3.6-57.5 3.3-7.2 8.8-13.1 13.7-19.2V225.2c-1.3-.8-2.7-1.5-4.1-2.1-20-8-45.4 6-49.7-21.7-1.5-9.6 2.8-19.1 2.6-28.5-.3-12.5-6-19.6-13.7-29-8.1-9.9-17.6-21.4-29.9-25.7-6-2.1-9.1-8.8-6.6-14.7 1.8-4.3 4.5-7.9 10.3-10.2 17.6-6.8 31.6 8.3 40.6 21.3 11.6 16.6 13.7 35.4 21.3 53.6 7.8 18.6 15.7 22 29.2 24.5v-32.8c-.2-.2-.3-.4-.5-.6-8.1-11.2-8-26.2-13.5-38.6-7.2-15.8-21-26.1-35.7-34.5-10.4-6-33.9-12.9-39.3-24.9-4.9-11.2 7.6-19.3 13.5-27.7 2.6-3.7 5.7-12.4 7.6-16.5a6.2 6.2 0 0 1 6.1-3.5c17.8 2 34.8 6.3 48.5 19 5.5 5 9.6 10.7 13.2 16.7V-.5h-127.4c8 10.1 12.4 25.3 10.8 37.2-2.6 18.6-6.2 63.7-30.8 62.6-18.6-1-23.8-19.4-35.7-29.8-20.2-17.8-23.7-38.3-9.1-59.3 2.5-3.6 13.6-10.7 13.6-10.7h-250c4.5 3.7 9.3 8.3 12.1 13.3 7 12.7.3 28.8 4.6 42.4 4.9 16.3 22.5 24 31.3 37.8 3.8 5.9 13.5 28.7-.5 28.7-14.7 0-26.9-36.8-33.2-45.5-18.1-24.4-45.6-43-32.1-76.7H0v49.7c3.6-6 7.7-11.7 13.2-16.7C28 18.8 49.1 3.4 66 13.1c4.9 2.8 1.1 18.8 3.9 23.7 5.1 8.9 24 13.2 19 24.4-5.4 12.1-28.8 18.9-39.3 24.9C35 94.6 21.2 104.8 14 120.6 8.5 133 8.6 148 .5 159.3c-.2.2-.3.4-.5.6v28.7c6.7-15.1 31.4 24.5 0 19.8v19.8c11.3.2 22.5-3.3 34-3.1 5.3.1 9.1 5.3 7.5 10.4C35.8 254.3 14 262.1 0 275.7v133.9c.1 0 .2-.1.3-.1 21.5-6.2 21.3 15.5 17.1 29.8-5.7 19.2-9.3 30.5-4.2 50.4 4.6 17.9 11.1 45.5-4.9 60-2.5 2.3-5.3 3.8-8.3 4.8v32.8c4.4-.2 9 .3 13.8 1.3 3.9.8 6.7 4.4 6.4 8.4l-.1 2.1c-.1 1.6-.7 3.2-1.8 4.5-7.8 9.7-14.7 24.5-18.3 39.3v37.9c6.7 15.3 25.4 28.1 35.2 40.9 6.4 8.1 26.6 28.4 14 39.1-11.4 9.8-34-6.6-49.2-20.7v166.4h1440V740.1c-15.2 14.1-37.8 30.5-49.2 20.7zm22.7-498.1c21.8 20.2 29.2 48.7 17.4 76.6-11.2 26.6-50.5 51-50 81.3.2 11.6 7.5 22.5 11.4 33.1 6.2 17.1 9.1 35.4 10.8 53.5 2.1 23.1 3.3 103.5-37.5 62.7-14.7-14.8-25.9-37.5-27-58.5-.8-15.6 6-27.4 11.1-41.4 5.7-15.6 5-30.3 2-46.6-2.1-10.8-10-21.4-2.9-37 8.1-17.7 47.2-28.2 40.6-74-4.4-30.3-51.8-44.7-18.6-64.5 14.3-8.5 32.6 5.6 42.7 14.8zM1308.9 569c-4.4-17.9-18.9-25.1-27-40.1-7.3-13.5-2.8-33.2-1-47.6 2-16.6 4.1-55.4 21-65.3 19.1-11.1 15.1 24 13.8 33.7-3.6 27.4-10.3 52.5-1 79.7 9.4 27.5 27 51.5 27.2 81.6.2 24-10.3 47.6-27 64.5-9.1 9.3-22.7 22-37.1 13.9-13-7.3-2.8-15.2 4.1-23 20.8-23.3 34.6-66.5 27-97.4zm-19.1-333.3c5.7-15.6 38.6-21.8 35.5-36.8-1.8-9-13-17.8-17.4-25.7-5-9.3-7.5-19.6-6.2-30.1 5.4-42.5 62.4 26.1 64.7 43.7 3.1 24.4-25.1 40.9-30.8 62.6-5.2 19.4 21.3 37.5 29.7 53.1 4.2 8.1 7.5 16.6-.5 23.5-4.6 3.9-13 5.5-18.4 2.6-6.8-3.7-9.6-14.8-13.5-21-6.2-9.8-14.5-17.1-22.7-25.1-11.9-11.6-27.1-28.7-20.4-46.8zm7.7 84.4c8.8 10.8 20.5 21.8 25.9 34.7 10.8 25.7-21.2 33.2-38.4 42.7-27.8 15.3-20.7 40.9-23.8 68.3-1.6 14.8-17.8 59.8-27.5 23.3-9-33.4-3.3-70.2 20.5-94.8 10.9-11.4 34.2-26.7 32.2-45-2.6-24-41.2-28.7-45.6-54.8-4.1-24.1 14.2-30.6 27.7-13 9.7 12.7 18.7 26.1 29 38.6zm-193 380.4c-1.8-14.3-18.7-26.8-15.1-40.4 3.6-15.2 18.6-23.3 29.8-32.4 9.4-7.8 18.7-22.7 30.3-27.2 5.9-2.3 23.3-2.4 25.1 6.2 2 9.3-23.3 29-27.8 36.8-13.2 22.3-12.9 46.1-13.7 71.2-.5 11.9-18.8 49.3-33.7 35.9-18.2-16.4 7.3-33.4 5.1-50.1zM988 653.7c-11.9 20.5-1.8 41.7-9.4 62.9-2.1 5.9-8.1 16.6-16 11.7-7-4.4-2.3-16.9-.5-22.8 2.9-9.9 6.4-18.3 5-28.8-.8-7.8-6.7-17.6-4.6-25.6 2.3-8.5 10.9-11.4 17.6-15.6 10.1-6.5 18.1-30.3 25.6-24.1 7.5 6.3-11.2 31.4-17.7 42.3zm14.8 64.2a7 7 0 0 1-.8 1c-2.1 2.3-5.4 4.1-8 1.3-4.1-4.4 2.8-15.8 8-16.6 7.1-1 3.7 10.6.8 14.3zm-56.4-92.1c-19.2 6.8-38.1-2.4-17.3-19.4 9.4-7.7 21-12.2 30.6-19.9 12.9-10.1 21.5-23.8 27.5-39 8.9-22.1 11.7-46 19.5-68.4 2.1-6 9.2-8.6 14.7-5.3l.8.5c21 13.9 15.8 49.5 8.5 69.1-13.2 36.2-47.9 69.6-84.3 82.4zM336.9 508.3c.5 8.6 9.5 41.1 11.4 62.8.8 9.2-12.1 12.1-15.4 3.5-6-15.6-6.6-35.1-9-50-3.7-22.3-9.9-45.5-7.8-68.4.8-8 2.4-22.2 7.8-28.5 2-2.4 22.5-15 25.1-7.8 4.4 11.9-4.6 25.3-7.7 36.7-4.4 15.6-5.6 35.3-4.4 51.7zm.5-97.6c-27.9 1.8-42.8 16.8-48.5 43.7-2.3 10.8.7 75.6-24.6 58.3-16.6-11.6-6.5-52.6-2.4-67.1 7.2-26.2 17.9-47.9 19.1-75.8.8-16.6-6.8-78.7 16.9-84.7 36.5-9.3 10.9 76.8 28.2 90.3 9.9 7.7 35.5 2 40.1 16.1 5.2 16.6-18.4 18.6-28.8 19.2zm-44.3 265.8c-2.4 7.2-10.1 23.1-19.9 16.3-7.5-5.2-3.3-42.7-3.3-51.5 0-7 5.2-35.4-3.9-38.1-11.4-3.5-16.5 19.3-21.1 30.6-.9 2.3-4.2 2.6-5.3.4-15.1-28 13.6-78.3 38.7-89.5 27.5-12.2 25.6 27.4 21.3 44.8-6.9 28 2.7 59.3-6.5 87zM137 464.5c-1.3-10.8-12.5-17.1-16.6-26.7-5.2-12.2-12.9-29.5-4.6-42 9.6-14.3 22.3-7.8 28.7 4.2 8.3 15.6 8.3 20.2 25.9 18.9 11.2-.8 18.9 1.6 19.5 13.4.8 13-4.2 31.3-9.3 43-5 11.7-9.1 35.7-19.4 43.5-20.5 15.6-26.4-9.5-27.2-25.9-.4-9.5 4.1-19.4 3-28.4zm-63.9 8.6c-9.8 7.8-17.8 2.1-21.3-7.5-7-19.4-9-53.1-3.1-72.7 8.3-27.4 38.6-37.5 53.1-60.5 8.3-13.2 8.3-35.2 19.7-46.1 13.5-12.9 16.1 5.9 16.5 16.8.5 16.6 1 35.5-10.4 48.7-9.3 10.6-24.4 13.7-33.2 24.3-11.2 13.4-12.5 37.3-12.9 53.9-.2 13.6 3.9 33.4-8.4 43.1zm92.4-272.9c7.2-22.5 18.1-41.7 44.5-43.8 19.1-1.5 34.4 13.7 13.7 23.1-14.8 6.8-25.1 3.6-30.6 22.5-8 28.5 13.2 59.3 3.7 87.8-7.3 22.2-27 30.8-23.6 57.4 1.6 12.4 14.2 41.7-3.9 45.5-3.6.7-7.2-1-8.8-4.3-14.2-30-11-60.3-1.6-91.2 9.7-31.7-3.7-64.4 6.6-97zm97.6 63.4c14.3 20.4-10.8 92.8-37.5 90.1-4.3-.4-7.3-4.4-6.9-8.6 1.1-11.8 4.7-22 10.5-33.1 4.7-9.3 21-27.1 17.4-38-4.2-13-16-6.7-16-24.9 0-8.1 11.6-43.3 21.8-44 13-.8 10.8 21.8 7 29.3-10.3 20.7-9 11.1 3.7 29.2zM231 533.1c2 26.1-16 68-27.4 21.8-12.5-50.2-2.4-110.7 17.3-157.8 17.1-40.7 25.6 11.4 17.3 30.3-6.2 14-14 23.8-15 39.8-1.3 22.1 6.3 44.1 7.8 65.9zm-39.3 86.4c6.5-12.4 13-11.9 18.4.5 4.4 10.3-3.4 21.3 4.1 31.1 7.2 9.5 23.3 6.5 30.6 15 9.3 10.6 1.3 32.9 2.8 45.3 1.5 11.4 10.9 24.8 8.5 36.5-5.4 25.7-37.1 6.8-43.7-10.6-6.8-18.3-9.8-39.3-14.8-58.2-4.2-15.8-14.3-43.6-5.9-59.6zm240.2-414.7c-.5 4 3 7.3 7 6.6 8.9-1.6 21.9-3.6 23.9 3.2 3.4 11.6-41.7 20-49.5 26.2-22.5 17.9-22.3 43-31.4 68-4.9 13.5-10.4 26.2-16.1 39.4-4.6 10.3-6.7 24-17.1 8.8-11.2-16.3-18.6-60.2-1.3-68.8 3.6-1.8 6.6-1.1 8.7.1 2.6 1.4 5.8.6 7.5-1.7 12.8-17.2 11.2-53.2 21.5-70.7 9.2-15.5 20.7-32.3 38.8-34.6 5.7-.7 10.5 3.9 10.1 9.6-.2 4.7-1.5 9.3-2.1 13.9zm452-3c-6.4 3.7-14.8 4.2-21.8 6.5-9.3 3.1-7 4.6-16.6-1.1-13.5-8.3-27.2-14.7-43.2-12.4-17.3 2.6-33.4 11.7-48.9 19.2-8.1 3.9-17.4 10.4-27 7.8-8-2.3-16.3-12.2-11.9-20.5 4.9-9.6 23-9.1 31.9-11.6 16-4.2 30.1-12.9 46.4-16.3 28.3-6 51 3.4 77.4 10.9 10.4 3 29 8.2 13.7 17.5zm-14.6-101.1l.5-.7c1.9-2.5 5.2-3.7 8.2-2.7 12 4-16.9 27.3-9.8 5.6.2-.8.6-1.6 1.1-2.2zm136.4 259.8c-1.1-4.7-2-13.4 5.4-12.7 10.1 1 8.1 25.3 6.5 31.6-2.9 11.4-11.1 19.9-16.1 30.1-3.7 7.8-2.9 13.9 1 21.5 3.1 6.2 11.4 16.5 7.8 24.1-2.4 4.9-7.8 3.6-11.4 7.3-1.3 1.3-2.1 3-2.8 4.8-1.8 4.2-8 2.6-7.7-1.9.5-6.4 1.3-12.8 1.4-19.1.3-12.2-5.2-22.5-6.4-34.2-1.5-14.3 13.5-22 20.5-32.8 4.8-7.3 3.6-10.9 1.8-18.7zm79.8-116.8c19.2 24.8 16.6 57.5 10.9 86.9-1.3 7-2.6 19.7-9.9 11.9-6.5-7.2-4.6-27.1-3.9-35.7.8-11.2 3.1-21.5-1.5-32.4-6.3-15.5-20.7-28.4-33.2-39-6.3-5.4-28.7-16.5-30.9-24.8-.5-1.9.2-3.8 1.6-5.5 4.2-5.3 12-6.2 17.6-2.2 13.3 9.5 40.9 30.1 49.3 40.8zM1033.2 451c-10.4-8-21-28.2-16-41.2 4.2-10.9 10.8-17.6 12.7-30.3 2.8-18.1 2.3-37.6 1.6-56.1-.7-16-2.6-31.8-6.3-47.4-1.6-6.7-9.5-23.8-4.9-30.5 10.8-15.6 30.1 21 33.2 28.4 18.1 43-2.3 85.6-5.2 129.2-.7 10.1 8.1 65.6-15.1 47.9zm20.4 60.6c-.2-11.1-6-27.2-1.3-37.8 4.6-10.3 18.2-14.3 24.4-24.1 12.2-19.4 7.7-46.8 5.2-68.5-.2-1.7.2-3.5 1.1-5 3.3-5.6 11.6-5.1 14.3.8 7 15.5 9 31.2 5.5 50.1-3.4 17.6-11.7 31.6-21.2 46.4-8.3 13.2-10.4 25.1-10.9 40.6-.5 16.5.8 37.6-8.5 52.3-7 11.2-12.4 5.9-12.7-5.2-.6-16.5 4.4-33 4.1-49.6zm-63.5-162.5c-1.8 5.2-6.8 25.6-13.2 27.5-6.2 2-5.4-8-5.2-12.4 1-27.5 12.5-47.4-4.2-73-7-10.9-32.3-29.2-26.1-44.2 3.9-9.6 15.6-5.1 22-.7 10.3 7.2 14.5 17.9 20.9 28.2 15.2 24.9 15.1 47.4 5.8 74.6zm-.2-118.7c.6 4.5-4 8.1-8.2 6.3-10.2-4.3-15.6-13.9-25-22.3-16.1-14.7-31.8-18.7-51.1-27.9-7.7-3.6-13.2-10.8-12.4-18.9.3-3.1 2.2-5.8 4.9-7.4l3-1.7c1.5-.9 3.1-1.3 4.9-1.3 16.6-.3 29.7 2.7 43.4 13.6 12.5 10.1 20.5 24.1 29.5 37.3 5.1 7.4 9.8 14.2 11 22.3zm-66.8-.3c-.5.3-1 .7-1.5.8-7.3 2.9-15-8.5-10.4-14.3 4.6-5.9 13.5-1.8 14.5 4.7.5 3 0 7.1-2.6 8.8zm-11.7 30.4c5 22.2 30.5 33.1 39.6 54.4 6.2 14.3 9.1 29.3 9.9 44.8 1.1 19.6-2.9 41.1 3.4 60 4.2 12.7 22.6 33.4-3.4 25.9-9.7-2.8-11.6 2.8-18.1 5.2-2.6 1-5.3-.9-5.4-3.6-.6-12.8 2.1-26.7 1.4-39.6-1-16.8-1.5-34.4-6.5-50.7-9.1-28.8-27.5-49.5-46.3-73-10.3-12.9-15.1-40.6-1.5-53 17.9-15.9 24.5 19 26.9 29.6zm-467 237.6c-20 13.7-14.2-69.8-13.2-78.1 1.8-16.1 7.5-28 15.1-42 9-16.6 12.7-33.2 17.3-51.3 4.1-17.1 12.1-32.9 32.1-32.9 14.7.2 21.5 9.9 12.4 21.2-8.5 10.6-16.1 15.8-16.8 30.5-.8 19.2-4.4 32.4-14.5 49.2-11.9 19.9-24.6 38.6-27.2 62.3-1 8.8 3.7 35-5.2 41.1zm-40.7-122.6c-14.3-4.2-11.2-21.3-8-32.4 7.8-25.9 22.2-53.6 39.4-74.5 8.3-9.9 17.3-23.5 31-25.7 9.1-1.5 31-.8 35.7 8.3 6 11.6-12.4 21-20 25.6-14.2 8.3-32.3 14.7-39.9 30.3-7 14.3-2.9 31.5-8.1 46.3-4.2 11.4-16.1 26.2-30.1 22.1zM514 385.8c3.9-3.6 10.2-.7 10.1 4.6-1.2 35.9-12.2 73.5-7.3 109.2 2.8 20.4 19.7 37.3 19.5 57.7-35.3-3.9-43.5-54.4-47.9-83.3-5-32.3 1.3-66.1 25.6-88.2zM754.9 464c11.1 6.8-6.8 19.4-13.5 21-15 3.6-32.3-23.6-17.4-31.9 9.3-5.2 9 .2 12.5 6.2 4.8 8.1 11.8.8 18.4 4.7zM742 434l1.4-1.6c1.8-2.2 4.9-2.9 7.4-1.5 1.2.7 2.3 1.7 3 3 1.6 2.9 2.6 14.2-.5 16.5-3.4 2.4-5.9-2.3-8-4.2-2.7-2.4-6.9-8.8-3.3-12.2zm-9 66.4c.4-.3 1-.5 1.5-.4 19.6 1.8 39.8-5.6 45.5-26.5 4.9-18.2-2.1-30.6-7.7-46.6-.5-1.6.3-3.3 1.9-3.8 14.5-4.3 29.8 30.4 29.9 39.3 0 24.1-9.3 48.6-35.7 51.8-7.8.9-29-2.9-35.8-10.4-.9-1-.7-2.6.4-3.4zM767.2 385c-9.8-3.9-17.6-10.6-28.2-13.4-13.5-3.6-27.8-3.1-41.6-2.4-.4 0-.8-.1-1.1-.2-1.4-.7-1.6-2.6-.3-3.6 22-17.6 59.6-30.2 78.8-2.5 8.1 11.8 10.2 29.2-7.6 22.1zm-68.5-6.2c4.4-.7 16.1.3 15.8 7.2-.2 4.9-6.5 4.2-10.1 4.4-4.6.3-11.7 4.6-14.5-1-3-6.1 4.2-10 8.8-10.6zm5 24.3c7.5-4.2 27-8.5 26.2 4.9-.8 13.2-27.7 23.5-32.6 37.2-4.1 11.4 9 37.6.8 45.1-7.3 6.8-18.9-2.9-21.3-9.5-3.3-8.8 1.3-19.2 2.8-27.9 3.3-18.4 5.7-39.4 24.1-49.8zM677 499.5l3.6 2.6c17.8 6 27.4 26.1 45.4 32.3 26.7 9.1 51.3-8.8 77-7.8.5.8 1 1.6 1.1 2.6-19.1 43-129.4 22-127.1-29.7zm93.8 73.9c2.1-18.6 32.7-11.6 44.5-21.2 7.2-5.9 25.4-22.8 35.7-13.5 7.8 7.2-8 20.5-12.7 25.6-11.1 11.9-23.9 14.8-39.1 19.2-6 1.8-26.1 11.6-29.5 2.9-.7-1.3 1-11.4 1.1-13zm57-51.8c-1.7 0-3.1-1.4-3.1-3.1.6-25.2 9-51.3 3.4-76.2-4.4-19.7-34.5-40.6-17.3-58.3 50.6 7.9 67.5 137.2 17 137.6zM791 334.5c-8.8-4.1-33.9-14.3-24.9-28.8 9.8-15.6 42.7 1.3 51 9.8 56.7 57.1 71.3 106.7 61.4 119.7-1.5 2-4.5 2.1-6.2.1-11.4-13.5-28.9-77.1-81.3-100.8zm66.4-44.4l3.9 1.7c16.5 10.9 35.3 46 43.3 63.1 8.6 18.4 19.1 53.9 14.9 68.1-1.2 4.1-7.1 3.7-7.8-.5-4.1-24.2-14.8-46.9-29.1-66.8-9.2-13-50.2-44.5-34.6-63.5 2.4-2.6 6.2-3.4 9.4-2.1zm.9-35.5c-1.8 9.3-7.8 9.8-14.8 4.4-11.9-9.1-18.6-16.8-34.9-18.6-8.8-.8-29.3 4.1-35.3-4.9-6.2-9.1 7-14.3 14.2-14.7 8.6-.2 18.6 2.8 26.7 5.2 10.6 3.1 20.7.5 31.4.3 7-.2 13.4-.2 14.2 7.7.6 5.1-.5 15.7-1.5 20.6zm-27 27.4c3.4 7.8-3.6 12.7-11.1 12.1-7.8-.8-13.2-7.8-20.5-9.9-11.9-3.4-24.9 1.3-37 1.3-10.9 0-7.7-2.4-12.4-9-6.8-9.5-27.9-8.5-38.1-11.2-9-2.4-13.5-6.5-6.2-13.4 7.3-6.7 18.1-7.3 27.5-7.2 11.1.3 19.4 9.9 28.3 15.3 17.3 10.1 60.3 1.3 69.5 22zm-123.7 10.1c10.4-2.4 26.6-7.3 32.7 5.1 2.1 4.1.8 8 1.3 12.2.5 4.4 2.3 5.9 4.1 9.6 4.6 9.6-4.7 10.6-13.7 9.3-10.6-1.5-18.1-5.2-29.2-3.4-13.4 2.1-17.8 8.1-23.9 19.7-6.2 11.4-14.7 32.6-30 32.9-15 .5-9.4-9-9-17.8.7-12.2-18.7-15.5-16.9-26.1 1-6.4 12.1-12.1 16.6-15.5 6.2-4.7 12.5-9.8 19.4-13.5 15.1-8 32.2-8.8 48.6-12.5zm-39.1-41.9c-23.6 2.8-45.8-5.5-69.7 1.1-21.2 5.9-33.2 19.9-47.6 35.5-7.5 8.1-18.6 16.3-21.8.2-3.6-18.1 16.5-32.4 29.6-39.9 22-12.5 55.2-35.9 81.6-28.2 8.6 2.6 16 6.8 24.9 7.8 6.8.8 13.8-1.5 19.9 3.7 14.2 12.5-6.6 18.5-16.9 19.8zm-97.4 51.2c23.4-19 41.8-35.1 71.1-30.6 6.5 1 8.2 9.5 2.6 12.9-3.6 2.2-7.9 4.6-11.5 8.1-11.4 11.2-38 20.2-47.1 39.1-9.3 18.9-15.6 68-28 61-1.3-8.8 4.1-29.2-1.3-36-5.5-7-17.4.5-26.4.3-36.8-.7 35.7-51.1 40.6-54.8zm-27.5 87.8c-8.3 7-9.6-10.4-4.7-14.2 7.5-6 9.4 10.1 4.7 14.2zm-6.4 40.4c9.9-11.7 25.9-16.6 38-25.6 13.7-9.9 19.9-23 25.2-38.1 3.7-10.9 15-17.4 20.7-2.1 4.1 10.6-3.4 24-8.6 32.9-6.4 10.9-14.5 19.2-26.1 24.6-19.2 8.8-26.9 9.6-25.6 33.6 1.5 27.2 6 49.4 26.1 68.6 5 4.9 43.3 43.2 19.9 41.2-8.1-.7-16.8-10.4-24.1-13.9-7.2-3.4-14.5-3.1-21.7-5.7-19.5-7-16.6-27.7-19.5-44.5-4.1-23.2-22.5-49.3-4.3-71zm63.6 77.3c-5.9-8.6-12.9-16.1-17.9-25.1-5.7-10.1-14.8-37.2 4.9-38.8 18.6-1.8 8.8 27.1 9.9 37.3 1.6 15.8 18.7 25.2 18.2 40.5-.1 2.7-3.4 3.8-5.2 1.9-4.1-4.6-6.7-11-9.9-15.8zm11.4-58.7c2.1-16 4.2-36.7 17.3-47.9 6.4-5.5 38.1-21 40.4-6.8 1.1 7-14.2 21.8-17.6 27.2-8 12.4-14.7 25.9-15 41.1-.6 19.7 15.4 49.8 21.1 59.7 1.1 2-.2 4.5-2.5 4.5-7.4.1-15.2-2.3-19.1-5.5-22.1-17.9-28.5-43.5-24.6-72.3zM634 554c2.8 1.2 2.1 11.1 1.4 17.2-.4 3.1-3.9 4.6-6.4 2.7-7.6-5.9-3-23.1 5-19.9zm-3.8 39.6c3.1-5.4 7.3-.3 11.1 2.3 9.4 6.4 19.5 10.3 30.5 13 12.2 3.1 24.1 5.7 35.7 10.6 9.1 3.9 25.4 9.6 30.6 18.9 7.5 13.9-16.9 16.5-24.6 13.9-11.6-3.9-21.2-13.4-32.7-17.8-13.2-5.1-26.9-10.3-38.1-18.9-4.8-3.6-16.9-14.5-12.5-22zm22.3-42.4c22.1 23 72.8 12.8 95.1 36.1 1.7 1.8.7 4.7-1.7 5.1-46.5 7.4-91.1-3.4-98.5-38.5-.6-2.9 3.1-4.8 5.1-2.7zm126.1 59.5c88.7-9.6 111.5-77.9 114.3-154.3.1-3.3-.2-6.5-.5-9.7-.5-6.5 12.3-8.4 16.3 2.5 23.8 63.9-47.9 194.9-151.3 179.9-.1.2-34.8-12.2 21.2-18.4zm-14.8 45c1.1-11.1 39.1-10.8 49-11.4 11.2-.8 26.1-.5 35.2-8.1 5.4-4.6 10.3-12.5 15.1-17.9 5.4-6 12-24.9 21.6-26.7 1.7-.3 3.2.9 3.5 2.6 1 8.1 6.1 8.3 13.8 8.5 1.8 0 3.1 1.6 2.9 3.3-1.1 9.8-13.2 14.5-19.7 20.5-9 8.3-14.3 19.9-24.6 26.9-15.3 10.4-32.9 11.4-50.8 11.2-11.8-.1-47 2.1-46-8.9zm139-88.9c2.3-11.6 22.2-26.7 28.2-37.6 7.2-12.7 10.4-57.7 20.9-64.9 16.5-11.1 21.7 19.6 20.4 31-2.9 24-20.4 52.3-38 68.6-11.2 10.3-36.1 26.2-31.5 2.9zM746.7 176.2c-14.8 5.7-32.7 3.9-46.8 11.4-9.3 5.1-13.7 13.9-25.1 15-19.7 1.8-40.1-11.9-59.6-13.9-17.3-1.8-37.1 2.9-52.3 10.9-12.1 6.2-21.8 20.2-34.5 24.4-12.4 4.1-24.3-4.9-21.7-18.3 2.3-12.2 16.1-21.2 26.9-25.3 49.2-19.1 104.6 1.6 154.8-12.4 18.2-5.1 37.1-11.9 56.5-9 16.8 2.7 17.3 11.3 1.8 17.2zm-126.4-27.9c-26.6-2.4-54.9-6.4-81.1.3-20.7 5.4-33.6 19.1-49.8 31.6-7.3 5.7-22.5 14.3-29.3 2.9-6-9.9 6.8-18.7 13.5-23.8 27.7-21 55.9-41.1 92.4-36 17.4 2.4 34.4 6.5 51.6 8.6 5.5.7 12.1 2.4 12.5 9.1.6 9.1-9.8 7.3-9.8 7.3zM396.5 392.8h6.4c15 21.8-22 76.6-15.8 111.1 5.3 29.7 29.8 57.9 30.8 87.9.2 5.7-5.6 9.7-11 7.6-63.7-24.7-52.7-172.2-10.4-206.6zm20.2 117.3c10.4 8 6.4 26.4 19.1 27.2 19.2 1.1 17.3-29.2 28.5-38.1 15.1 19.7-5.9 69.1-4.7 94.4.4 8.7 1.4 17 4 24.9 1.4 4.3-3.3 8.1-7.2 5.6-.8-.5-1.4-1.2-1.8-2-18.9-38.3-36.6-67.7-37.9-112zm46.9 156.2c28.2 16 46.3 39.1 72.2 59.2 28.4 22 62.9 21.9 91.9 39.8 2.9 1.8 3.2 6.1.5 8.2-39.5 30-152.6-59.9-172.5-100.9a5 5 0 0 1 6.2-6.9l1.7.6zm24.1-79.7c9.3-52.8 43.8 43.2 64.7 65 20.9 21.8 54.3 39.4 83.4 54.7 4.8 2.5 2.7 9.9-2.8 9.4-62-5.1-156.7-64.7-145.3-129.1zm158.2 91.6c-38.1-13.4-85.8-70.6-83.4-112.6l13.2 5.4c16.1-.8 48.7 57 66.1 68.8 19.3 13 60 28.9 88.5 31.4 4.9.4 6.3 7 2 9.4-21.3 11.7-71.9 2.6-86.4-2.4zm49.8 24.6c5.1-10.3 26.1-2.6 34.7-3.7 10.1-1.3 15.6-8.3 23.9-13.7 12.7-.8 23.6 4.7 35.7 6.4 13.7 2 33.1 2.1 46.6-.7 12.9-2.6 24.6-9.6 33.4-19.2 11.4-12.5 19.9-31.5 40.2-31.1 6.2.2 18.6 4.9 14.8 13.4-2.8 6.2-12.2 3.7-17.3 4.2-27.9 2.6-23.8 37.5-44.3 51.8-34.5 24.3-69.2 3.3-105.6 7.3-6.9.6-74.9 11.5-62.1-14.7zm183.9 23.9c12.9-15.5 30.5-56.7 55.7-48.9 8.5 38.8-35.7 78.7-61.6 100.9-39.1 33.5-94.4 26.1-144.5 17.8 0 .7-.1 1.3-.1 0-16.6-1-41 .5-52.5-12.4l-1.1-1.8c-1-1.6-1.1-3.8 0-5.4 13.1-20.1 79.7 2.9 99.3 3.9 45.5 2.1 76.3-19.9 104.8-54.1zm163.1-123.8c18.2-11.6 42.8-17.6 49-41.7 6-23.8-9.3-68.3 29.5-65.2l9.8 1.6c.5 14-7.2 20-12.1 32.4-9.1 23.1-2.6 43.4-23.1 61.6-20 17.8-37.1 26.2-38.9 56.2-1 18.9-.4 74-25.9 76.4-6.1.6-11.3-4.8-10.7-10.9 1.7-16.5 9.9-32 11.5-48.9 2.1-22.9-12.1-46.9 10.9-61.5zm80.5-391.5c19.2-3.3 17.8 21.3 17.8 33.7 0 16 7.5 29 9.9 44.5 3.3 19.7-2.9 39-4.6 58.5-1.8 21.2 3.9 41.9 2.3 63.1-.7 9.1-8.1 52.2-24.6 48.4-14.2-3.3-5.9-46-5.4-55.4.8-18.1-4.6-34.7-4.7-52.2 0-12.4 9-22.8 10.9-35 4.1-25.3-8.3-49.2-14-73.2-2.9-12-3.9-29.8 12.4-32.4zm-10.8-33.1l.8-5.2c.4-2.7 2.9-4.7 5.7-4.2 7.4 1.2 9.5 12.6 6.5 19.2-7.3 15-15.7 2-13-9.8zm87.7 332.3c2.8 25.3 11.4 91.6-35.7 69.8-38.7-18 .3-112.6 5.2-126.6 9.8-27.9 9.6-56.1 10.6-85.2.3-10.6-.8-52.6 17.8-51 18.4 1.6 20.7 42.5 20.8 54.8.2 46.8-24 91.1-18.7 138.2zm10.2 136.9c12.7-16.6 11.2-36.3 12.2-56.4.8-14.2-2.8-35.4 8.2-46.4 16.6-16.8 30.6-1 33.9 16.8 4.7 25.4 3.9 61-9.1 83.9-10.1 17.9-29.5 28.5-43.2 43.7-13.8 15.3-24.4 33.1-37.5 49.1-8 9.9-11.6 11.7-18.1-.2-22.6-41.1 33.4-64.4 53.6-90.5zm38.1-306.4c10.3-5.5 11.9 8.6 8.3 16.6 0 0-.2.2-.2.3-2.3 5.2-4.9 8.5-11.4 5.4-7.9-3.7-2.7-18.8 3.3-22.3zm-57.3-306.5c7.3-4.6 17-1 19.4 7.3l.3 1.4c3.2 15.6-4.7 25.3 7.5 39.8 17.1 20.2 39.9 33.2 50.8 58.7 9.8 22.8 6.3 47.3-3.7 69.4-5.2 11.7-19.4 42-35 43.3-15.8 1.3-8.8-24.1-6.7-32.8 8.8-36.7 6.2-73.5-18.4-104.6-11.2-14.3-34.9-27.4-38.4-46.3-3.2-17 11.8-28.1 24.2-36.2zm4.6 180.7c-.7 16 9.4 57.4-6 68.4-14.5 10.3-23.9-12.7-26.2-23.5-3.1-15-.8-30.6-3.2-45.6-3.6-22.3-15.2-41.7-27.1-60.6 0 0-11.1-14-4.6-23.8 6.7-9.8 22.3-4.4 30.6-.3 34 16.8 38.1 51.7 36.5 85.4zM1081.3 43.4l11.4-17.4c1.5-2.3 3.8-4.2 6.4-5.1 12.4-4.4 24.8-6.4 35.3 4.1 12.5 12.5 18.4 36 12.7 53-5.2 15.5-19.7 19.1-28.5 31.1-7.3 10.3-4.6 25.4-12.7 34.9-6.7 7.7-16.4 7-20.2-3.3-3.4-9.3 3.4-17.8 5.7-26.2 4.1-14.7-.7-27.9-6.5-41.4-4.2-9.8-10.1-19.6-3.6-29.7zM942.2 59.2c5.5-21.7 29.3-4.1 38.3 5.2 13.8 14.3 24.1 33.4 32.7 51.3 8 16.6 17.4 26.7 33.1 36.7 11.7 7.5 46.9 21.8 49.2 38 2.9 20-56.4-8-67.4-10.4-11.2-2.4-21-5.2-25.1-17.3-3.7-11.1.5-21.3-6.7-31.8-13.9-20.2-61.8-42.7-54.1-71.7zm-91.3-21.3c.6-.9 1.8-1.4 2.9-1.3 12.8 1.2 19.8 7.9 30.4 15.4 19.1 13.5 19.7 36.3 30.1 55.7 10.9 20.4 35.2 20.2 53.1 31 9.1 5.4 27 25.9 28.2 39.5a3.1 3.1 0 0 1-4.4 3.1c-6.8-3.1-14.9-13.3-19.4-16.7-10.4-8-20.2-15.6-32.7-20-9.6-3.3-19.9-5.4-29.3-9.3-14-5.7-10.4-16.5-13.2-29.3-5.4-25.2-23-49.8-44.8-63.6-1.5-1.1-1.9-3.1-.9-4.5zm-54.5-12.1c12.5-4.4 22.8 1.3 30.5 10.9 7.2 9.3 15 18.1 22.2 27.2 4.7 6 6.4 8 6.1 12.6-.2 5.1-5.1 8.6-10 7.4-11.1-3-26.2-11.5-33.2-15.9-13.2-8.2-24.6-22.6-38.6-29.5-2.5-1.3-2.3-5 .4-5.8l22.6-6.9zM677.8 57.7c8.6-41.9 78 19.6 92.4 24.6 17.1 6 36.3 4.2 53.1 11.2 11.9 4.9 20 14.7 29.6 22.8 6 4.9 23.6 13.9 23 23.5-1.3 18.6-22.5 1.5-26.7-4.9-9-13.4-18.9-24.4-35.5-26.9-15.3-2.1-29.8 1.3-44.6-4.2-17.4-6.5-33.7-13.7-52-18.7-11.9-3.3-43-9.3-39.3-27.4zm.8 50.1c8 3.4 15.5 8 24.1 9.1 8.1 1.1 16.6-.5 24.8-.5 13.2 0 23.6 2 35 8.6 17.1 10.1 37.1 2.4 54.7 9.9 2 9.5-9.4 15.6-16.3 19.6-15.1 8.6-30.1-7.8-43.5-13.2-23.8-9.6-47.4 5.9-71.5 7.5-4.2.3-21.5.7-23.9-3.3-2.3-3.6 8.8-8.6 7.5-15.6-1-5.9-8.6-8.3-13.2-11.7-4.1-2.9-11.2-9.9-5.2-14.7 6.2-4.9 22.1 2 27.5 4.3zM592.8 48c16.9-1.8 46.2-1.5 57.8 15.2 5.4 7.7-25.4 30-35.5 33.7-27.4 10.1-59.3-1-87.6 0-37.5 1.3-61.6 22.5-91.4 41.9-14.5 9.5-43.5 20.5-42.5-7.8 1.1-32.8 48.7-50.5 74.3-59.5 19.5-6.8 39.6-8.5 59.9-11.2 21.8-3.2 43-9.9 65-12.3zm-208.4-.9c8-16.8 35.5-9.9 49.8-18.4 14.7-8.6 22.2-16.5 40.4-18.6 12.7-1.5 36.7-4.6 30.6 13.2-4.8 14.7-13.7 6.7-25.5 7.7-27.9 2.4-39.3 32.8-63 40.4-15.7 5.2-42.5-2.8-32.3-24.3zm-6.3 46.8c3.1 9-4.7 11.7-7.5 18.7-7.8 19.2-1.3 28.8 2.1 48.9 3.3 19.2-5.4 24.4-18.6 36.2-14.7 13.4-20.2 27.1-29.6 43.7-15.5 27.2-60.8 21.7-47.4-14.3 10.9-29.2 40.2-44.2 52.8-71.5 9.3-20.2-4.2-62.6 22.8-70.6 7.6-2.3 22.3.1 25.4 8.9zm-58.3-49c10-15.1 29.1-20.4 38.2-12.2 17.7 15.8-38.1 32.9-47.9 61.1-7 20.2-11.2 100-39.6 79-16.3-12.1.8-27.5 4.1-45.5 3.4-19.2 2.1-39.8 13-57.2 7.7-12.4 24.7-13.9 32.2-25.2zm-111.6-4.8c3.6-26.2 23.6-31.3 48.5-27.4 20 3.1 33.6 8.5 19.1 24.9-20.2 22.8-42.2 46.6-43 80.8-.3 13.4-24.1-5.5-36.5-6-14.2-.5-49.8 36.8-58.2 18.4-6.8-14.8 27.2-34.4 37.5-38.6 32.4-13.1 27.7-16.9 32.6-52.1zM36.8 187.8c-18.7-12.1.7-42.7 10.9-53.1 17.1-17.1 39.6-27.2 54.6-46.8C113.1 74 113.2 55 123.5 41.1c4.3-5.8 17.8-13.6 24.9-14.8 30.3-5.2 23.5 46.9 3.1 60.1-11.7 7.7-25.7 11.9-35.7 22.3-11.7 12.5-17.6 30.5-27.2 44.5-8.3 12.4-32.9 46.8-51.8 34.6zm5.9 80.5c23.3-32.1 59.3-47.1 74.4-85.2 4.9-12.2 14.8-31.3 31-20.5 9.8 6.5 4.1 9.3.8 17.3-5.7 14-3.9 29.8-11.7 43.5-4.2 7.3-14.7 23-23.9 24.4-4.1.5-7.2-3.6-11.1-3.1-7.3 1-10.8 8.5-14.2 14.3-12.9 22.6-20.7 45.4-37.2 65.8-2.7 3.3-6.8 5.3-11.1 5.4-8.2.1-14.9-6.5-14.7-14.7.4-16.3 12.3-39.8 17.7-47.2zM27.4 671.1c-5.4-5.5-3.9-29.3-2.1-35.7 3.7-12.5 14.8-21.8 20.5-33.4 4.9-9.9 8-24.1 5.5-35.4-1.6-8.3-6.7-15-8-23.6-1.6-9.8-2-37.3 14.8-33.1 10.6 2.8 18.2 33.7 28 11.7 3.6-7.8 2.6-41.7 17.8-35 13.4 5.9 11.7 36.8 11.6 47.9-.3 21.7 3.6 47.4-7.2 67.1-11.2 20.7-36 25.3-48.1 46.4-4.2 7.7-19.5 37-32.8 23.1zm57.2 189.5c-9.4 6.4-22.3 3.7-28.2-6.1-2.9-4.7-5.4-9.6-6.5-13.3-3.4-11.6-8.3-45-.5-54.6C67.8 764 85.1 813 92.5 838.5c2.4 8.3-.8 17.2-7.9 22.1zm9.9-102.3c-15.1 5.5-20.9-32.4-20.5-41.6.5-21.7 16.3-40.6 32.3-53.6 14-11.4 28.5-19.7 33.6-38.3 5.9-22.3-1-52.8 13.8-72 8-10.3 30.1-10.1 29.5 7.2-.2 5.7-4.4 6.4-7 10.6-4.2 6.8-5.2 12.4-5.2 20.7-.2 30 16.3 71.9.7 99.7-11.2 20-35 7-50.7 19.4-12.7 9.8-12.5 42.7-26.5 47.9zM249.1 884c-25.6-11.9-32.9-33.4-49-53.9-15.1-19.2-40.2-27.7-53.8-48.6-8-12.1-15.6-40.4.3-50.5 11.2-7.2 17.4 4.6 22.3 13.5 8.8 16.1 14.2 32.4 31.6 41.4 32.9 17.1 85.1 16.5 92.1 62.3.2 1.6.8 3.1 1.6 4.4l10.4 17.8c4.2 7.2.7 16.4-7.2 18.9-15.6 5-33.2 1.8-48.3-5.3zm85.7-46.6c-14 .2-12.2-20.7-16.1-31.3-3.4-9.3-7-15.6-15.5-20.9-8-4.7-20.7-2.1-25.6-11.1-5.9-10.9 8-47.1 21.3-47.6 13.2-.5 15.3 19.2 18.9 28 9.6 23.3 29.8 24.8 31.1 50.5.5 10.7 3.3 32.2-14.1 32.4zm12.7-83.5c-8.1-10.1-15.1-29-19.9-41.4-10.1-26.7-21.2-65.4-8.5-93.2 6.8-15 10.4-16.8 26.1-11.4 9.7 3.3 15.7 6.3 25.4 7.6 6.1.9 10.1 7.1 8.1 13-5.2 15.5-33 20.3-37.5 36.3-3.9 13.9 8.3 36.7 15.5 47.8 6.2 9.8 23.9 25.9 20.9 39.4-4.1 17.4-23.6 10.1-30.1 1.9zm14.3-66c-3.6-.7.7-38.1 14.7-24.6 8.4 8-4.1 26.9-14.7 24.6zm18.1 159.3c-6.2-.7-10.6-6.4-9.6-12.6 1.5-10.3 6.5-19.7 11.3-28.6 5.9-10.6 7.9-15.5 10.1-25.2 1.1-4.6 6-7.4 10.4-5.8 16.5 6.2 7.4 18.3 10.8 28.6 2.3 6.7 8.8 6.7 11.8 15.3 15.6 37.8-31.6 29.9-44.8 28.3zm77.8-88.5c-7.7 6.1-5.9 21-4 30.1 1 4.9-4.9 8.1-8.4 4.6-7.2-7.1-13.2-22.6-16.6-27.8-22.6-35.2-50.2-97-21.5-136.6 7.5-10.3 18.4-12.2 24.3.5 7.2 15.5-.3 35.7 5.2 52.2 7.8 23.5 30.6 33.2 45.9 50.8 5.5 6.2 17.6 27.4 1.6 28.8-10.7.9-14.6-12.1-26.5-2.6zM641 812.9c-13.7 4.4-26.6 9.3-39.4 15.8-23 11.7-47.6 19.7-73.5 14.8-23.5-4.1-36.5-16.9-47.1-38.5-2.3-4.6-16.9-17.3-11.2-23.8 6.8-8.6 21.5 12.9 27.2 8.3 4.4-3.4 4.9-11.2 9.6-13.9 7-3.7 17.4 5.9 23 9.1 14.8 9 30.8 16.5 48.2 17.8 15.5 1.1 29-3.9 43.8-6.8 8.6-1.6 22.2-2.6 28.7 4.9 6.5 7.4-3 10.4-9.3 12.3zm18.9-52.1c-23 0-40.1-15-31.4-22.8 12.2-10.9 74.8-3.1 83.1-1.3 13.4 2.9 27 1.8 40.6 1.3 7.8-.3 75.4-1.8 57.5 19.9-14.2 17.3-50.3 2.8-67.4-.8-27.5-5.8-59.4 3.7-82.4 3.7zM779.8 846c-17.1 6.7-28.8 19.6-48.1 22.3-20.5 2.9-38.9-3.9-54.6-16.9-22.6-18.9-16.5-39 14.2-36 21.8 2.1 44.6 14 66.3 10.9 14.8-2.1 42.7-17.1 56.4-5.1 20.7 18.3-27.4 22-34.2 24.8zM900 832.8c-7.1 4.2-20.5 9.2-33.5 11.1-10.3 1.5-14.6-12.8-5-17.1 15.3-6.9 33.6-15.7 42.4-21.7 14.8-10.3 22-20.4 32.1-33.9 11.7-15.5 26.1-12.5 42.4-17.4 6.8-2 11.1-6.5 17.9-8.1 7.5-1.6 16.9 0 24.4 0 14.1-.2 24.7-2.6 36.7-5.2 6.9-1.5 11.4 7 6.4 11.9-10.5 10.1-37.5 12.1-48.9 12.7-13.5.5-38.2 8.1-49.1 14.5-6.8 4.1-13.1 8.2-18.3 14-13.3 14.6-30.7 29.3-47.5 39.2zm165.2-7.6c-28.8 4.1-40.6 8.5-59.3 30.3-11.7 13.7-27.4 21.7-45.9 20-13-1.3-11.3-8-12.3-21.5-.1-1 .1-2.1.5-3.1l3.7-9.4c.2-.5.4-1 .7-1.4 22.2-32.8 47.7-37.7 85-40.4 14.3-1.1 97.1-50.4 88.1-6.8-5 23.9-41.6 29.6-60.5 32.3zm116.9-11.6c-17.4 28.7-16.7 60.1-52 65.5-3.5.5-7-1.6-7.9-5.1-.5-1.8-.3-3.8.7-5.4 10.6-18.4 23.7-37.8 28.3-58.5 2.4-11.1-2.4-25.6 8.6-31.6 15.6-8.6 30.5 1.6 43.7-15.8 11.9-15.6 18.7-53.6 44-54.1 33.7-.7 8.3 46.9-2.6 57.5-18.8 18.1-48.7 24.5-62.8 47.5zm125 35.8c-7.7 8.7-52.1 19.9-74.2 24.9a9.98 9.98 0 0 1-12.2-10.3c1.5-24.1 9.7-42.8 30.7-59.1 15.3-11.9 48.5-24 49.2-46.9.3-13.4-16.6-28.5-6.2-40.7 12.9-14.8 44.2-10.1 60.4-22.3 20.2-15.2 13.7-39.6 17.9-61.1 4.2-21.7 20.2-17.9 25.7 1.6 17.4 61-69.9 72-69.6 124 .3 32.6 1.2 63.5-21.7 89.9zm83.1-8.1c-2.4 8.4-7.3 15.7-11.2 23.4-2.5 5-8.6 6.9-13.5 4.4-5.1-2.6-11.2-5.8-15.8-7.9a9.94 9.94 0 0 1-5.7-10.7c4.3-25.3 22.9-92.9 46.6-63.7 7.9 9.5 3 42.9-.4 54.5z"/>
</svg>