<svg xmlns="http://www.w3.org/2000/svg" viewBox="0 0 1440 893">
  <g fill="#3cb3e0">
    <path d="M23.6 0H0v17.8l.7-.7A122 122 0 0 1 23.6 0zM1403.3 0a72.6 72.6 0 0 1 35.9 17.3l.8.8V0h-36.7zM1402.1 71.8c-10.6-6.1-34.5-13.1-40-25.3-5-11.4 7.7-19.6 13.7-28.2 2.6-3.8 5.8-12.6 7.7-16.8l1-1.5h-53.1a50.2 50.2 0 0 1 2.4 21.4c-2.6 18.9-6.3 64.8-31.3 63.7-18.9-1-24.2-19.7-36.3-30.3-18.8-16.5-23.4-35.4-12.7-54.8H1030c4.8 12.4-.7 27.4 3.3 40.2 5 16.6 22.9 24.4 31.8 38.5 3.9 6 13.7 29.2-.5 29.2-15 0-27.4-37.4-33.8-46.3-15-20.5-36.8-37.1-36.1-61.6h-43.3c4.2 5.9 8.8 13.2 4.7 17.2-7.4 8.3-21-14.4-27.1-10.1-4.7 3.2-5.7 11.1-10.6 13.5-7.3 3.3-17.3-7.1-22.8-10.7-5.2-3.6-10.5-7-16-10H730.9c10.9 4.1 24.5 6.4 21.6 13.2-4 9.1-33.9-2-46.4-5.2-23.4-5.8-41.2 10.1-64.1 8.8-6.4-.4-18.5-3.2-16-12.3.6-2 1.8-3.4 3.4-4.4h-54c-.8 7-6.9 10.8-16.7 7.2-4.6-1.7-9.1-4.5-13.5-7.2H262.4c11.7 3.7 16.6 9.9 5.6 22.3-20.6 23.2-42.9 47.4-43.8 82.2-.3 13.6-24.5-5.6-37.1-6.1-14.4-.5-50.7 37.4-59.2 18.7-6.9-15.1 27.7-35 38.2-39.3 33-13.3 28.2-17.2 33.2-53 1.8-12.8 7.4-20.6 15.5-24.9H56.3c2 5.6-.3 17.4 2.1 21.5 5.2 9.1 24.4 13.4 19.3 24.8-5.5 12.3-29.3 19.2-40 25.3-14.9 8.6-28.9 19-36.2 35.1-.6 1.3-1.1 2.6-1.5 4v104.6c7.2-1 14.5-2.3 21.9-2.2 5.4.1 9.3 5.4 7.6 10.6-4.2 14-17.3 22-29.5 30.7V344c14.3 5.9 12.9 27.6 7.8 43.2-3.2 9.8-5.9 18.1-7.8 26.1V574l1.8.4c5.4 1.1 9.3 6.1 8.9 11.6l-.1 2.9c-.1 2.2-1 4.4-2.5 6.2A109 109 0 0 0 0 606.8v87.6c7.9 8.4 17.1 16.2 23.1 24 6.5 8.2 27.1 28.9 14.2 39.8-8.7 7.5-23.8 0-37.4-10.3V893h1440V747.8c-13.6 10.3-28.7 17.9-37.5 10.4-12.8-11 7.8-31.5 14.2-39.8 6-7.8 15.3-15.7 23.2-24.1V607a75.2 75.2 0 0 0-6-8.8 8.2 8.2 0 0 1-1.8-4.6l-.1-2a8 8 0 0 1 6.6-8.5l1.3-.3V470.5c-6.5-26.6-12.1-53.3-.2-79.6l.2-.3V336c-14.3 24.6-48 47.8-47.5 76.1.2 11.8 7.6 22.9 11.6 33.7a219 219 0 0 1 11 54.4c2.1 23.5 3.4 105.3-38.2 63.8a97 97 0 0 1-27.5-59.5c-.8-15.9 6.1-27.9 11.3-42.1a85.8 85.8 0 0 0 2-47.4c-2.1-11-10.2-21.8-3-37.6 8.2-18 48-28.7 41.3-75.3-4.5-30.8-52.7-45.5-18.9-65.6 14.6-8.6 33.2 5.7 43.4 15.1a77.7 77.7 0 0 1 14.4 17.8V209c-18.4-2.8-38.3 4.5-42-19.8-1.5-9.8 2.8-19.4 2.6-29-.3-12.7-6.1-19.9-13.9-29.5-8.2-10.1-17.9-21.8-30.4-26.2-6.1-2.1-9.3-9-6.7-15 1.8-4.4 4.6-8 10.5-10.4 17.9-6.9 32.2 8.4 41.3 21.7 11.8 16.9 13.9 36 21.7 54.5 5.1 12.2 10.3 18 17 21.2v-65.6l-1.5-4c-7.2-16.1-21.2-26.6-36.2-35.1zM.1 194.6v-26.3c6.6 8.6 9.3 20.6 0 26.3zm.1 349.5v-64.8l1.3 3.4c7.4 17.9 17.6 44.4-1.3 61.4zm1111 152.8c-1.8-14.6-19-27.3-15.4-41.1 3.7-15.5 18.9-23.7 30.3-33 9.6-7.9 19-23.1 30.8-27.7 6-2.3 23.7-2.4 25.5 6.3 2 9.5-23.7 29.5-28.3 37.4-13.4 22.7-13.1 46.9-13.9 72.5-.5 12.1-19.1 50.2-34.3 36.5-18.4-16.6 7.5-33.9 5.3-50.9zm-118.5-47.6c-12.1 20.9-1.8 42.4-9.6 64-2.1 6-8.2 16.9-16.3 11.9-7.1-4.5-2.3-17.2-.5-23.2 3-10.1 6.5-18.6 5.1-29.3-.8-7.9-6.8-17.9-4.7-26 2.3-8.6 11.1-11.6 17.9-15.9 10.3-6.6 18.4-30.8 26-24.5 7.7 6.3-11.3 31.9-17.9 43zm15 65.3l-.8 1c-2.1 2.3-5.5 4.2-8.1 1.3-4.2-4.5 2.8-16.1 8.1-16.9 7.2-1 3.8 10.8.8 14.6zm-57.4-93.7c-19.5 6.9-38.8-2.4-17.6-19.7 9.6-7.8 21.4-12.4 31.1-20.2a91.9 91.9 0 0 0 28-39.7c9.1-22.5 11.9-46.8 19.8-69.6 2.1-6.1 9.4-8.8 15-5.4l.8.5c21.4 14.1 16.1 50.4 8.6 70.3a148.9 148.9 0 0 1-85.7 83.8zm-390.6-61.3l13.4 5.5c16.4-.8 49.6 58 67.3 70a234 234 0 0 0 90.1 32c5 .4 6.4 7.1 2 9.6-21.7 11.9-73.2 2.6-87.9-2.4-38.8-13.7-87.4-71.9-84.9-114.7zm-229.6-58.3c.5 8.8 9.7 41.8 11.6 63.9.8 9.4-12.3 12.3-15.7 3.6-6.1-15.9-6.7-35.7-9.2-50.9-3.8-22.7-10.1-46.3-7.9-69.6.8-8.1 2.4-22.6 7.9-29 2-2.4 22.9-15.3 25.5-7.9 4.5 12.1-4.7 25.7-7.8 37.3-4.4 15.9-5.6 35.9-4.4 52.6zm.5-99.3c-28.4 1.8-43.6 17.1-49.4 44.5-2.3 11 .7 76.9-25 59.3-16.9-11.8-6.6-53.5-2.4-68.3 7.3-26.7 18.2-48.7 19.4-77.1.8-16.9-6.9-80.1 17.2-86.2 37.1-9.5 11.1 78.1 28.7 91.9 10.1 7.8 36.1 2 40.8 16.4 5.3 16.8-18.7 18.9-29.3 19.5zm-45 270.5c-2.4 7.3-10.3 23.5-20.2 16.6-7.6-5.3-3.4-43.4-3.4-52.4 0-7.1 5.3-36-4-38.8-11.6-3.6-16.8 19.6-21.5 31.1-.9 2.3-4.3 2.6-5.4.4-15.4-28.5 13.8-79.7 39.4-91.1 28-12.4 26 27.9 21.7 45.6-7.1 28.5 2.7 60.4-6.6 88.6zM126.7 456.7c-1.3-11-12.7-17.4-16.9-27.2-5.3-12.4-13.1-30-4.7-42.7 9.8-14.6 22.7-7.9 29.2 4.3 8.4 15.9 8.4 20.6 26.4 19.2 11.4-.8 19.2 1.6 19.8 13.6.8 13.2-4.3 31.8-9.5 43.8-5.1 11.9-9.3 36.3-19.7 44.3-20.9 15.9-26.9-9.7-27.7-26.4-.4-9.6 4.2-19.7 3.1-28.9zm-65 8.8c-10 7.9-18.1 2.1-21.7-7.6-7.1-19.7-9.2-54-3.2-74 8.4-27.9 39.3-38.2 54-61.6 8.4-13.4 8.4-35.8 20-46.9 13.7-13.1 16.4 6 16.8 17.1.5 16.9 1 36.1-10.6 49.6-9.5 10.8-24.8 13.9-33.8 24.7-11.4 13.6-12.7 38-13.1 54.8-.1 13.9 4.1 34-8.4 43.9zm120.7 149c6.6-12.6 13.2-12.1 18.7.5 4.5 10.5-3.5 21.7 4.2 31.6 7.3 9.7 23.7 6.6 31.1 15.3 9.5 10.8 1.3 33.5 2.8 46.1 1.5 11.6 11.1 25.2 8.6 37.1-5.5 26.2-37.8 6.9-44.5-10.8-6.9-18.6-10-40-15.1-59.2-4.1-16.1-14.4-44.4-5.8-60.6zm40-88c2 26.6-16.3 69.2-27.9 22.2-12.7-51.1-2.4-112.6 17.6-160.6 17.4-41.4 26 11.6 17.6 30.8-6.3 14.2-14.2 24.2-15.3 40.5-1.3 22.6 6.4 45 8 67.1zm168.4-142.7h6.5c15.3 22.2-22.4 77.9-16.1 113.1 5.4 30.2 30.3 58.9 31.3 89.4a8.1 8.1 0 0 1-11.2 7.7c-64.8-25.1-53.6-175.2-10.5-210.2zm495.9-194.4c-6.5 3.8-15.1 4.3-22.2 6.6-9.5 3.2-7.1 4.7-16.9-1.1-13.7-8.4-27.7-15-44-12.6-17.6 2.6-34 11.9-49.8 19.5-8.2 4-17.7 10.6-27.5 7.9-8.1-2.3-16.6-12.4-12.1-20.9 5-9.8 23.4-9.3 32.5-11.8 16.3-4.3 30.6-13.1 47.2-16.6 28.8-6.1 51.9 3.5 78.8 11.1 10.7 3.2 29.6 8.5 14 17.9zM870.8 88.8c.2-.8.6-1.6 1.1-2.2l.5-.7a7.5 7.5 0 0 1 8.3-2.7c12.2 4-17.2 27.7-9.9 5.6zm115.4 136.1c-10.4-4.4-15.9-14.1-25.4-22.7-16.4-15-32.4-19-52-28.4-7.8-3.7-13.4-11-12.6-19.2a9.7 9.7 0 0 1 5-7.5l3.1-1.7a9.6 9.6 0 0 1 5-1.3 63 63 0 0 1 44.2 13.8c12.7 10.3 20.9 24.5 30 38 5.2 7.5 10 14.4 11.2 22.7.5 4.5-4.2 8.2-8.5 6.3zm24.5 126c-1.1-4.8-2-13.6 5.5-12.9 10.3 1 8.2 25.7 6.6 32.2-3 11.6-11.3 20.2-16.4 30.6-3.8 7.9-3 14.1 1 21.9 3.2 6.3 11.6 16.8 7.9 24.5-2.4 5-7.9 3.7-11.6 7.4a14 14 0 0 0-2.8 4.9c-1.8 4.3-8.1 2.6-7.8-1.9.5-6.5 1.3-13 1.4-19.4.3-12.4-5.3-22.9-6.5-34.8-1.5-14.6 13.7-22.4 20.9-33.4 4.8-7.5 3.6-11.2 1.8-19.1zm27.9 92.1c-10.6-8.1-21.4-28.7-16.3-41.9 4.3-11.1 11-17.9 12.9-30.8 2.8-18.4 2.3-38.3 1.6-57.1-.7-16.3-2.6-32.4-6.4-48.2-1.6-6.8-9.7-24.2-5-31 11-15.9 30.6 21.4 33.8 28.9 18.4 43.8-2.3 87.1-5.3 131.5-.6 10.1 8.4 66.6-15.3 48.6zm19.5 23.2c4.7-10.5 18.5-14.6 24.8-24.5 12.4-19.7 7.8-47.6 5.3-69.7-.2-1.7.2-3.6 1.1-5.1a8.3 8.3 0 0 1 14.6.8 81.6 81.6 0 0 1 5.6 51c-3.5 17.9-11.9 32.2-21.6 47.2a75.4 75.4 0 0 0-11.1 41.3c-.5 16.8.8 38.3-8.6 53.2-7.1 11.4-12.6 6-12.9-5.3-.6-16.8 4.5-33.6 4.2-50.5-.3-11.2-6.2-27.6-1.4-38.4zm44.9-145.7c-1.3 7.1-2.6 20-10.1 12.1-6.6-7.3-4.7-27.6-4-36.3.8-11.4 3.2-21.9-1.5-33-6.4-15.8-21.1-28.9-33.8-39.7-6.4-5.5-29.2-16.8-31.4-25.2-.5-1.9.2-3.9 1.6-5.6a13 13 0 0 1 17.9-2.2c13.5 9.7 41.6 30.6 50.2 41.5 19.5 25.2 16.9 58.5 11.1 88.4zm-108.2 18.8c-1.8 5.3-6.9 26-13.4 28-6.3 2-5.5-8.1-5.3-12.6 1-28 12.7-48.2-4.3-74.3-7.1-11.1-32.9-29.7-26.6-45 4-9.8 15.9-5.2 22.4-.7 10.5 7.3 14.8 18.2 21.3 28.7 15.5 25.3 15.4 48.2 5.9 75.9zm-68.2-121.1c-.5.3-1 .7-1.5.8-7.4 3-15.3-8.6-10.6-14.6s13.7-1.8 14.8 4.8c.5 3.1 0 7.3-2.7 9zm-11.9 31c5.1 22.6 31 33.7 40.3 55.4 6.3 14.6 9.3 29.8 10.1 45.6 1.1 19.9-3 41.8 3.5 61.1 4.3 12.9 23 34-3.5 26.4-9.9-2.8-11.8 2.8-18.4 5.3a4 4 0 0 1-5.5-3.7c-.6-13 2.1-27.2 1.4-40.3-1-17.1-1.5-35-6.6-51.6-9.3-29.3-28-50.4-47.1-74.3-10.5-13.1-15.4-41.3-1.5-53.9 18.2-16.3 24.9 19.2 27.3 30zM439.5 490.9c-20.4 13.9-14.4-71-13.4-79.5 1.8-16.4 7.6-28.5 15.4-42.7 9.2-16.9 12.9-33.8 17.6-52.2 4.2-17.4 12.3-33.5 32.7-33.5 15 .2 21.9 10.1 12.6 21.6-8.6 10.8-16.4 16.1-17.1 31-.8 19.5-4.5 33-14.8 50.1-12.1 20.2-25 39.3-27.7 63.4-1 9 3.8 35.6-5.3 41.8zm70.8-114.2c4-3.7 10.4-.7 10.3 4.7-1.2 36.5-12.4 74.8-7.4 111.1 2.8 20.8 20 38 19.8 58.7-35.9-4-44.3-55.4-48.7-84.8-5.1-32.9 1.3-67.3 26-89.7zm232 49l1.4-1.6c1.8-2.2 5-3 7.5-1.5 1.2.7 2.3 1.7 3.1 3.1 1.6 3 2.6 14.4-.5 16.8-3.5 2.4-6-2.3-8.1-4.3-2.8-2.5-7-9-3.4-12.5zm13.2 30.5c11.3 6.9-6.9 19.7-13.7 21.4-15.3 3.7-32.9-24-17.7-32.5 9.5-5.3 9.2.2 12.7 6.3 4.8 8.3 11.9.9 18.7 4.8zm-22.3 37.1a2 2 0 0 1 1.5-.4c19.9 1.8 40.5-5.7 46.3-27 5-18.5-2.1-31.1-7.8-47.4-.5-1.6.3-3.4 1.9-3.9 14.8-4.4 30.3 30.9 30.4 40 0 24.5-9.5 49.5-36.3 52.7-7.9.9-29.5-3-36.4-10.6-.9-1-.7-2.6.4-3.4zM768 375.8c-10-4-17.9-10.8-28.7-13.6a133.5 133.5 0 0 0-42.3-2.4l-1.1-.2c-1.4-.7-1.6-2.6-.3-3.7 22.4-17.9 60.6-30.7 80.2-2.5 8.2 12 10.3 29.7-7.8 22.4zm-69.7-6.3c4.5-.7 16.4.3 16.1 7.3-.2 5-6.6 4.3-10.3 4.5-4.7.3-11.9 4.7-14.8-1-3-6.2 4.3-10.2 9-10.8zm5.1 24.8c7.6-4.3 27.5-8.6 26.7 5-.8 13.4-28.2 23.9-33.2 37.9-4.2 11.6 9.2 38.3.8 45.9-7.4 6.9-19.2-3-21.7-9.7-3.4-9 1.3-19.5 2.8-28.4 3.4-18.8 5.8-40.2 24.6-50.7zm-27.2 98.1l3.7 2.6c18.1 6.1 27.9 26.6 46.2 32.9 27.2 9.3 52.2-9 78.4-7.9a6 6 0 0 1 1.1 2.6c-19.5 43.7-131.7 22.4-129.4-30.2zm95.4 75.1c2.1-18.9 33.3-11.8 45.3-21.6 7.3-6 25.8-23.2 36.3-13.7 7.9 7.3-8.1 20.9-12.9 26-11.3 12.1-24.3 15.1-39.8 19.5-6.1 1.8-26.6 11.8-30 3-.7-1.2 1-11.5 1.1-13.2zm58-52.7a3.2 3.2 0 0 1-3.2-3.2c.6-25.6 9.2-52.2 3.5-77.5-4.5-20-35.1-41.3-17.6-59.3 51.5 8.1 68.7 139.6 17.3 140zm-37.4-190.3c-9-4.2-34.5-14.6-25.3-29.3 10-15.9 43.5 1.3 51.9 10 57.7 58.1 72.6 108.6 62.5 121.8a4 4 0 0 1-6.3.1c-11.7-13.8-29.5-78.5-82.8-102.6zm58-43.1a8.6 8.6 0 0 1 9.6-2.1l4 1.7c16.8 11.1 35.9 46.8 44.1 64.2 8.8 18.7 19.4 54.8 15.2 69.3-1.2 4.2-7.2 3.8-7.9-.5a166.4 166.4 0 0 0-29.6-68c-9.6-13.2-51.3-45.3-35.4-64.6zm10.5-38.3c-1.8 9.5-7.9 10-15.1 4.5-12.1-9.3-18.9-17.1-35.5-18.9-9-.8-29.8 4.2-35.9-5-6.3-9.3 7.1-14.6 14.4-15 8.8-.2 18.9 2.8 27.2 5.3 10.8 3.2 21.1.5 32 .3 7.1-.2 13.6-.2 14.4 7.8.6 5.3-.5 16.1-1.5 21zM833.2 271c3.5 7.9-3.7 12.9-11.3 12.3-7.9-.8-13.4-7.9-20.9-10.1-12.1-3.5-25.3 1.3-37.6 1.3-11.1 0-7.8-2.4-12.6-9.2-6.9-9.7-28.4-8.6-38.8-11.4-9.2-2.4-13.7-6.6-6.3-13.6 7.4-6.8 18.4-7.4 28-7.3 11.3.3 19.7 10.1 28.8 15.6 17.6 10.3 61.3 1.4 70.7 22.4zm-125.9 10.3c10.6-2.4 27.1-7.4 33.3 5.2 2.1 4.2.8 8.1 1.3 12.4.5 4.5 2.3 6 4.2 9.8 4.7 9.8-4.8 10.8-13.9 9.5-10.8-1.5-18.4-5.3-29.7-3.5-13.6 2.1-18.1 8.2-24.3 20-6.3 11.6-15 33.2-30.5 33.5-15.3.5-9.6-9.2-9.2-18.1.7-12.4-19-15.8-17.2-26.6 1-6.5 12.3-12.3 16.9-15.8 6.3-4.8 12.7-10 19.7-13.7 15.3-8.1 32.7-8.9 49.4-12.7zm-39.8-42.6c-24 2.8-46.6-5.6-70.9 1.1-21.6 6-33.8 20.2-48.4 36.1-7.6 8.2-18.9 16.6-22.2.2-3.7-18.4 16.8-33 30.1-40.6 22.4-12.7 56.2-36.5 83-28.7 8.8 2.6 16.3 6.9 25.3 7.9 6.9.8 14-1.5 20.2 3.8 14.6 12.7-6.6 18.8-17.1 20.2zm-99.1 52.1c23.8-19.3 42.5-35.7 72.3-31.1a7 7 0 0 1 2.6 13.1c-3.7 2.2-8 4.7-11.7 8.2-11.6 11.4-38.7 20.6-47.9 39.8-9.5 19.2-15.9 69.2-28.5 62.1-1.3-9 4.2-29.7-1.3-36.6-5.6-7.1-17.7.5-26.9.3-37.3-.8 36.4-52.1 41.4-55.8zm-27.9 89.3c-8.4 7.1-9.8-10.6-4.8-14.4 7.6-6.1 9.5 10.2 4.8 14.4zm-6.6 41.1c10.1-11.9 26.4-16.9 38.7-26 13.9-10.1 20.2-23.4 25.6-38.8 3.8-11.1 15.3-17.7 21.1-2.1 4.2 10.8-3.5 24.4-8.8 33.5a59 59 0 0 1-26.6 25c-19.5 9-27.4 9.8-26 34.2 1.5 27.7 6.1 50.3 26.6 69.8 5.1 5 44.1 44 20.2 41.9-8.2-.7-17.1-10.6-24.5-14.1-7.3-3.5-14.8-3.2-22.1-5.8-19.8-7.1-16.9-28.2-19.8-45.3-4.2-23.6-22.9-50.2-4.4-72.3zm74.8 94.8c-4.2-4.7-6.8-11.2-10.1-16.1-6-8.8-13.1-16.4-18.2-25.5-5.8-10.3-15.1-37.9 5-39.5 18.9-1.8 9 27.6 10.1 38 1.6 16.1 19 25.6 18.5 41.2-.1 2.7-3.4 3.8-5.3 1.9zm1.6-75.8c2.1-16.3 4.3-37.3 17.6-48.7 6.5-5.6 38.8-21.4 41.1-6.9 1.1 7.1-14.4 22.2-17.9 27.7a81.2 81.2 0 0 0-15.3 41.8c-.6 20 15.7 50.7 21.5 60.7 1.1 2-.2 4.6-2.5 4.6-7.5.1-15.5-2.3-19.4-5.6-22.6-18.3-29.1-44.3-25.1-73.6zm22.1 107.6c2.8 1.2 2.1 11.3 1.4 17.5a4 4 0 0 1-6.5 2.7c-7.7-5.9-3-23.4 5.1-20.2zm-3.8 40.3c3.2-5.5 7.4-.3 11.3 2.3a92.6 92.6 0 0 0 31 13.2c12.4 3.2 24.5 5.8 36.3 10.8 9.3 4 25.8 9.8 31.1 19.2 7.6 14.1-17.2 16.8-25 14.1-11.8-4-21.6-13.6-33.3-18.1-13.4-5.2-27.4-10.5-38.8-19.2-4.8-3.6-17.1-14.7-12.6-22.3zm17.5-40.4c-.6-3 3.2-4.9 5.2-2.7 22.5 23.4 74.1 13 96.8 36.7 1.7 1.8.7 4.8-1.7 5.2-47.4 7.5-92.8-3.5-100.3-39.2zm133.5 57.8c90.3-9.8 113.5-79.3 116.3-157 .1-3.4-.2-6.6-.5-9.9-.5-6.6 12.5-8.5 16.6 2.5 24.2 65-48.7 198.3-154 183.1-.1.2-35.4-12.4 21.6-18.7zm34.8 34.2c11.4-.8 26.6-.5 35.8-8.2 5.5-4.7 10.5-12.7 15.4-18.2 5.5-6.1 12.2-25.3 22-27.2 1.7-.3 3.3.9 3.6 2.6 1 8.2 6.2 8.4 14 8.6a3 3 0 0 1 3 3.4c-1.1 10-13.4 14.8-20 20.9-9.2 8.4-14.6 20.2-25 27.4-15.6 10.6-33.5 11.6-51.7 11.4-12-.1-47.8 2.1-46.8-9.1.9-11.3 39.6-11 49.7-11.6zm91.6-78.9c2.3-11.8 22.6-27.2 28.7-38.3 7.3-12.9 10.6-58.7 21.3-66 16.8-11.3 22.1 19.9 20.8 31.5-3 24.4-20.8 53.2-38.7 69.8-11.5 10.6-36.8 26.7-32.1 3zM747.1 163.4c-15.1 5.8-33.3 4-47.6 11.6-9.5 5.2-13.9 14.1-25.5 15.3-20 1.8-40.8-12.1-60.6-14.1a99 99 0 0 0-53.2 11.1c-12.3 6.3-22.2 20.6-35.1 24.8-12.6 4.2-24.7-5-22.1-18.6 2.3-12.4 16.4-21.6 27.4-25.7 50.1-19.4 106.4 1.6 157.5-12.6 18.5-5.2 37.8-12.1 57.5-9.2 17 2.6 17.5 11.4 1.7 17.4zM618.5 135c-27.1-2.4-55.9-6.5-82.5.3-21.1 5.5-34.2 19.4-50.7 32.2-7.4 5.8-22.9 14.6-29.8 3-6.1-10.1 6.9-19 13.7-24.2 28.2-21.4 56.9-41.8 94-36.6 17.7 2.4 35 6.6 52.5 8.8 5.6.7 12.3 2.4 12.7 9.3.7 9-9.9 7.2-9.9 7.2zM497.9 239.7c6.1 11.8-12.6 21.4-20.4 26-14.4 8.4-32.9 15-40.6 30.8-7.1 14.6-3 32.1-8.2 47.1-4.3 11.6-16.4 26.7-30.6 22.5-14.6-4.3-11.4-21.7-8.1-33a227.5 227.5 0 0 1 40.1-75.8c8.4-10.1 17.6-23.9 31.5-26.2 9.2-1.4 31.5-.7 36.3 8.6zm-86.6 263.4c10.6 8.1 6.5 26.9 19.4 27.7 19.5 1.1 17.6-29.7 29-38.8 15.4 20-6 70.3-4.8 96.1.4 8.9 1.4 17.3 4.1 25.3 1.4 4.4-3.4 8.2-7.3 5.7a5 5 0 0 1-1.8-2c-19.2-39-37.3-68.9-38.6-114zm42 158.6a5 5 0 0 1 4-.2l1.7.6c28.7 16.3 47.1 39.8 73.5 60.2 28.9 22.4 64 22.3 93.5 40.5a5 5 0 0 1 .5 8.3c-40.2 30.5-155.3-61-175.5-102.7a5 5 0 0 1 2.3-6.7zm30.3-80.7c9.5-53.7 44.6 44 65.8 66.1 21.3 22.2 55.3 40.1 84.9 55.7 4.9 2.5 2.7 10.1-2.8 9.6-63.2-5.2-159.5-65.9-147.9-131.4zm211.6 118.2c5.2-10.5 26.6-2.6 35.3-3.8 10.3-1.3 15.9-8.4 24.3-13.9 12.9-.8 24 4.8 36.3 6.5 13.9 2 33.7 2.1 47.4-.7a64 64 0 0 0 34-19.5c11.6-12.7 20.2-32.1 40.9-31.6 6.3.2 18.9 5 15.1 13.6-2.8 6.3-12.4 3.8-17.6 4.3-28.4 2.6-24.2 38.2-45.1 52.7-35.1 24.7-70.4 3.4-107.5 7.4-6.9.6-76.1 11.7-63.1-15zm187.2 24.3c13.1-15.8 31-57.7 56.7-49.8 8.6 39.5-36.3 80.1-62.7 102.7-39.8 34.1-96.1 26.6-147 18.1 0 .7-.1 1.3-.1 0-16.9-1-41.7.5-53.4-12.6l-1.1-1.8a5.2 5.2 0 0 1 0-5.5c13.3-20.5 81.1 3 101 4 46.2 2.1 77.6-20.3 106.6-55.1zm143.1-13.6c1.7-16.8 10.1-32.6 11.7-49.8 2.1-23.3-12.3-47.7 11.1-62.6 18.5-11.8 43.6-17.9 49.9-42.4 6.1-24.2-9.5-69.5 30-66.3l10 1.6c.5 14.2-7.3 20.4-12.3 33-9.3 23.5-2.6 44.2-23.5 62.7-20.4 18.1-37.8 26.7-39.6 57.2-1 19.2-.4 75.3-26.4 77.7-6.2.6-11.5-4.9-10.9-11.1zm104.7-510.7c19.5-3.4 18.1 21.7 18.1 34.3 0 16.3 7.6 29.5 10.1 45.3 3.4 20-3 39.7-4.7 59.5-1.8 21.6 4 42.6 2.3 64.2-.7 9.3-8.2 53.1-25 49.3-14.4-3.4-6-46.8-5.5-56.4.8-18.4-4.7-35.3-4.8-53.1 0-12.6 9.2-23.2 11.1-35.6 4.2-25.7-8.4-50.1-14.2-74.5-2.9-12.3-4-30.4 12.6-33zm-11-33.7l.8-5.3a5 5 0 0 1 5.8-4.3c7.5 1.2 9.7 12.8 6.6 19.5-7.4 15.3-15.9 2.1-13.2-9.9zm89.3 338.1c2.8 25.7 11.6 93.2-36.3 71-39.4-18.3.3-114.6 5.3-128.8 10-28.4 9.8-57.1 10.8-86.7.3-10.8-.8-53.5 18.1-51.9 18.7 1.6 21.1 43.2 21.2 55.8.1 47.6-24.5 92.7-19.1 140.6zm10.4 139.4c12.9-16.9 11.4-36.9 12.4-57.4.8-14.4-2.8-36 8.3-47.2 16.9-17.1 31.1-1 34.5 17.1 4.8 25.8 4 62.1-9.3 85.4-10.3 18.2-30 29-44 44.5-14 15.6-24.8 33.7-38.2 50-8.1 10.1-11.8 11.9-18.4-.2-22.9-42 34.1-65.7 54.7-92.2zm51.8-184.9c-1.6 15.1-18.1 60.9-28 23.7-9.2-34-3.4-71.4 20.9-96.5 11.1-11.6 34.8-27.2 32.8-45.8-2.6-24.4-41.9-29.2-46.4-55.8-4.2-24.5 14.4-31.1 28.2-13.2 9.9 12.9 19 26.6 29.5 39.3 9 11 20.9 22.2 26.4 35.3 11 26.2-21.6 33.8-39.1 43.5-28.4 15.5-21.2 41.6-24.3 69.5zm-13.1-126.9c10.5-5.6 12.1 8.8 8.4 16.9l-.2.3c-2.3 5.3-5 8.6-11.6 5.5-8-3.8-2.7-19.2 3.4-22.7zm-58.3-311.9c7.4-4.7 17.3-1 19.7 7.4l.3 1.4c3.3 15.9-4.8 25.7 7.6 40.5 17.4 20.6 40.6 33.8 51.7 59.7 10 23.2 6.4 48.1-3.8 70.6-5.3 11.9-19.7 42.7-35.6 44.1-16.1 1.3-9-24.5-6.8-33.4 9-37.3 6.3-74.8-18.7-106.4-11.4-14.6-35.5-27.9-39.1-47.1-3.2-17.3 12.1-28.6 24.7-36.8zm4.7 183.9c-.7 16.3 9.6 58.4-6.1 69.6-14.8 10.5-24.3-12.9-26.7-23.9-3.2-15.3-.8-31.1-3.3-46.4-3.7-22.7-15.5-42.4-27.6-61.7 0 0-11.3-14.2-4.7-24.2 6.8-10 22.7-4.5 31.1-.3 34.8 17.1 38.9 52.6 37.3 86.9zm-116.4-175l11.6-17.7c1.5-2.3 3.9-4.3 6.5-5.2 12.6-4.5 25.2-6.5 35.9 4.2a57.3 57.3 0 0 1 12.9 53.9c-5.3 15.8-20 19.4-29 31.6-7.4 10.5-4.7 25.8-12.9 35.5-6.8 7.8-16.7 7.1-20.6-3.4-3.5-9.5 3.5-18.1 5.8-26.7 4.2-15-.7-28.4-6.6-42.1-4.2-9.8-10.2-19.8-3.6-30.1zM946.1 44.3c5.6-22.1 29.8-4.2 39 5.3 14 14.6 24.5 34 33.3 52.2a82.8 82.8 0 0 0 33.7 37.3c11.9 7.6 47.7 22.2 50.1 38.7 3 20.4-57.4-8.1-68.6-10.6-11.4-2.4-21.4-5.3-25.5-17.6-3.8-11.3.5-21.7-6.8-32.4-14.3-20.5-63.1-43.4-55.2-72.9zm-93-21.7c.6-.9 1.8-1.4 3-1.3 13 1.2 20.1 8 30.9 15.7 19.4 13.7 20 36.9 30.6 56.7 11.1 20.8 35.8 20.6 54 31.5 9.3 5.5 27.5 26.4 28.7 40.2a3 3 0 0 1-2.8 3.4c-.6.1-1.1 0-1.6-.3-6.9-3.2-15.2-13.5-19.7-17-10.6-8.1-20.6-15.9-33.3-20.4-9.8-3.4-20.2-5.5-29.8-9.5-14.2-5.8-10.6-16.8-13.4-29.8a106.5 106.5 0 0 0-45.6-64.7c-1.6-1-2-3-1-4.5zM765.8 20l22.3-9c12.3-5.6 23.2-.7 31.9 8.3 8.1 8.8 16.8 17 25 25.6 5.3 5.7 7.2 7.5 7.3 12.2a8.2 8.2 0 0 1-9.5 8.4c-11.5-2-27.6-9.3-35.1-13.1-14.1-7.1-27-20.7-41.8-26.4-2.6-1.2-2.8-5-.1-6zM677 42.8c8.8-42.6 79.4 19.9 94 25 17.4 6.1 36.9 4.3 54 11.4 12.1 5 20.4 15 30.1 23.2 6.1 5 24 14.1 23.4 23.9-1.3 18.9-22.9 1.5-27.2-5-9.2-13.6-19.2-24.8-36.1-27.4-15.6-2.1-30.3 1.3-45.4-4.3-17.7-6.6-34.3-13.9-52.9-19-12-3.3-43.7-9.4-39.9-27.8zm.8 51c8.1 3.5 15.8 8.1 24.5 9.3 8.2 1.1 16.9-.5 25.2-.5 13.4 0 24 2 35.6 8.8 17.4 10.3 37.8 2.4 55.7 10.1 2 9.7-9.6 15.9-16.6 19.9-15.4 8.8-30.6-7.9-44.3-13.4-24.2-9.8-48.2 6-72.8 7.6-4.3.3-21.9.7-24.3-3.4-2.3-3.7 9-8.8 7.6-15.9-1-6-8.8-8.4-13.4-11.9-4.2-3-11.4-10.1-5.3-15 6.4-5 22.6 2 28.1 4.4zm-87.3-60.9c17.2-1.8 47-1.5 58.8 15.5 5.5 7.8-25.8 30.5-36.1 34.3-27.9 10.3-60.3-1-89.1 0-38.2 1.3-62.7 22.9-93 42.6-14.8 9.7-44.3 20.9-43.2-7.9C389 84 437.5 66 463.5 56.9c19.8-6.9 40.3-8.6 61-11.4 22.1-3.3 43.6-10.1 66-12.6zm-207.2-8.1c10.9-15.5 37.3-3.9 53.1-10C452.7 8.7 461.5 2 480.1 3c13 .7 37.6 1.6 28.4 18.5-7.3 13.9-14.9 4.4-26.9 3.4-28.4-2.3-45 26.2-70.1 29.8-16.5 2.5-42.1-10.1-28.2-29.9zm35.3 143.8c5.8-.7 10.7 4 10.3 9.8-.2 4.8-1.5 9.5-2.1 14.1a6 6 0 0 0 7.1 6.7c9.1-1.6 22.3-3.7 24.3 3.3 3.5 11.8-42.4 20.4-50.4 26.7-22.9 18.2-22.7 43.8-32 69.2-5 13.7-10.6 26.7-16.4 40.1-4.7 10.5-6.8 24.4-17.4 9-11.4-16.6-18.9-61.3-1.3-70a9.2 9.2 0 0 1 8.9.1 6 6 0 0 0 7.6-1.7c13-17.5 11.4-54.1 21.9-71.9 9.4-16 21.1-33.1 39.5-35.4zm-46.6-89c3.2 9.2-4.8 11.9-7.6 19-7.9 19.5-1.3 29.3 2.1 49.8 3.4 19.5-5.5 24.8-18.9 36.8-15 13.6-20.6 27.6-30.1 44.5-15.8 27.7-61.9 22.1-48.2-14.6 11.1-29.7 40.9-45 53.7-72.8 9.5-20.6-4.3-63.7 23.2-71.8 7.7-2.3 22.7.2 25.8 9.1zm-105.3 34c3.5-19.5 2.1-40.5 13.2-58.2 7.8-12.6 25.1-14.1 32.8-25.6 10.2-15.4 29.6-20.8 38.9-12.4 18 16.1-38.8 33.5-48.7 62.2-7.1 20.6-11.4 101.8-40.3 80.4-16.6-12.4.8-28.1 4.1-46.4zm-22.6 79.2c13.2-.8 11 22.2 7.1 29.8-10.5 21.1-9.2 11.3 3.8 29.7 14.6 20.8-11 94.4-38.2 91.7a8 8 0 0 1-7-8.8 88 88 0 0 1 10.7-33.7c4.8-9.5 21.4-27.6 17.7-38.7-4.3-13.2-16.3-6.8-16.3-25.3.1-8.2 11.9-44 22.2-44.7zm-88.4-5c7.3-22.9 18.4-42.4 45.3-44.6 19.4-1.5 35 13.9 13.9 23.5-15.1 6.9-25.5 3.7-31.1 22.9-8.1 29 13.4 60.3 3.8 89.3-7.4 22.6-27.5 31.3-24 58.4 1.6 12.6 14.4 42.4-4 46.3-3.7.7-7.3-1-9-4.4-14.4-30.5-11.2-61.4-1.6-92.8 9.9-32.2-3.8-65.4 6.7-98.6zm-131-12.6c-19-12.3.7-43.5 11.1-54 17.4-17.4 40.3-27.7 55.6-47.6 11-14.1 11.1-33.5 21.6-47.6a54.7 54.7 0 0 1 25.3-15.1c30.8-5.3 23.9 47.7 3.2 61.2-11.9 7.8-26.2 12.1-36.3 22.7-11.9 12.7-17.9 31-27.7 45.3-8.5 12.5-33.5 47.5-52.8 35.1zm6.1 81.9c23.7-32.7 60.3-47.9 75.7-86.7 5-12.4 15.1-31.8 31.5-20.9 10 6.6 4.2 9.5.8 17.6-5.8 14.2-4 30.3-11.9 44.3-4.3 7.4-15 23.4-24.3 24.8-4.2.5-7.3-3.7-11.3-3.2-7.4 1-11 8.6-14.4 14.6-13.1 23-21.1 46.2-37.9 67a14.7 14.7 0 0 1-26.3-9.5c.4-16.6 12.6-40.5 18.1-48zM15.2 667c-5.5-5.6-4-29.8-2.1-36.3 3.8-12.7 15.1-22.2 20.9-34 5-10.1 8.1-24.5 5.6-36-1.6-8.4-6.8-15.3-8.1-24-1.6-10-2-38 15.1-33.7 10.8 2.8 18.5 34.3 28.5 11.9 3.7-7.9 2.6-42.4 18.1-35.6 13.6 6 11.9 37.4 11.8 48.7-.3 22.1 3.7 48.2-7.3 68.3-11.4 21.1-36.6 25.7-48.9 47.2-4.5 7.8-20.1 37.6-33.6 23.5zm58.2 192.8a20.2 20.2 0 0 1-28.7-6.2c-3-4.8-5.5-9.8-6.6-13.5-3.5-11.8-8.4-45.8-.5-55.6 18.7-23 36.3 26.9 43.9 52.8 2.4 8.5-.9 17.5-8.1 22.5zm10.1-104.1c-15.4 5.6-21.3-33-20.9-42.3.5-22.1 16.6-41.3 32.9-54.5 14.2-11.6 29-20 34.2-39 6-22.7-1-53.7 14-73.3 8.1-10.5 30.6-10.3 30 7.3-.2 5.8-4.5 6.5-7.1 10.8a35.4 35.4 0 0 0-5.3 21.1c-.2 30.5 16.6 73.2.7 101.5-11.4 20.4-35.6 7.1-51.6 19.7-12.9 9.9-12.7 43.4-26.9 48.7zM289.9 889a68.5 68.5 0 0 1-49.1-5.4c-26-12.1-33.5-34-49.9-54.8-15.4-19.5-40.9-28.2-54.7-49.5-8.1-12.3-15.9-41.1.3-51.4 11.4-7.3 17.7 4.7 22.7 13.7 9 16.4 14.4 33 32.2 42.1 33.5 17.4 86.6 16.8 93.7 63.4.2 1.6.8 3.2 1.6 4.5l10.6 18.1c4.2 7.4.7 16.8-7.4 19.3zm38.1-52.8c-14.2.2-12.4-21.1-16.4-31.8-3.5-9.5-7.1-15.9-15.8-21.3-8.1-4.8-21.1-2.1-26-11.3-6-11.1 8.1-47.9 21.7-48.4 13.4-.5 15.6 19.5 19.2 28.5 9.8 23.7 30.3 25.2 31.6 51.4.5 10.8 3.4 32.7-14.3 32.9zm12.9-85c-8.2-10.3-15.4-29.5-20.2-42.1-10.3-27.2-21.6-66.5-8.6-94.8 6.9-15.3 10.6-17.1 26.6-11.6 9.9 3.4 16 6.4 25.8 7.7a10 10 0 0 1 8.2 13.2c-5.3 15.8-33.6 20.7-38.2 36.9-4 14.1 8.4 37.3 15.8 48.6 6.3 10 24.3 26.4 21.3 40.1-4.2 17.8-24.1 10.4-30.7 2zm14.6-67.1c-3.7-.7.7-38.8 15-25 8.5 8.1-4.3 27.3-15 25zm18.4 162.1a11.1 11.1 0 0 1-9.8-12.8c1.5-10.5 6.6-20 11.5-29.1 6-10.8 8-15.8 10.3-25.6a8.2 8.2 0 0 1 10.6-5.9c16.8 6.3 7.5 18.6 11 29.1 2.3 6.8 9 6.8 12 15.6 15.8 38.3-32.2 30.3-45.6 28.7zm79.1-90.1c-7.8 6.2-6 21.4-4.1 30.6 1 5-5 8.2-8.5 4.7-7.3-7.2-13.4-23-16.9-28.3-23-35.8-51.1-98.7-21.9-139 7.6-10.5 18.7-12.4 24.7.5 7.3 15.8-.3 36.3 5.3 53.1 7.9 23.9 31.1 33.8 46.7 51.7 5.6 6.3 17.9 27.9 1.6 29.3-10.8 1-14.7-12.3-26.9-2.6zm186.6 55.2a273 273 0 0 0-40.1 16.1c-23.4 11.9-48.4 20-74.8 15.1-23.9-4.2-37.1-17.2-47.9-39.2-2.3-4.7-17.2-17.6-11.4-24.2 6.9-8.8 21.9 13.1 27.7 8.4 4.5-3.5 5-11.4 9.8-14.1 7.1-3.8 17.7 6 23.4 9.3a111 111 0 0 0 49 18.1c15.8 1.1 29.5-4 44.6-6.9 8.8-1.6 22.6-2.6 29.2 5 6.5 7.4-3.1 10.4-9.5 12.4zM626.8 735c12.4-11.1 76.1-3.2 84.6-1.3 13.6 3 27.5 1.8 41.3 1.3 7.9-.3 76.7-1.8 58.5 20.2-14.4 17.6-51.2 2.8-68.6-.8-28-5.9-60.4 3.8-83.8 3.8S618 743 626.8 735zm154 109.9c-17.4 6.8-29.3 19.9-48.9 22.7-20.9 3-39.6-4-55.6-17.2-23-19.2-16.8-39.7 14.4-36.6 22.2 2.1 45.4 14.2 67.5 11.1 15.1-2.1 43.5-17.4 57.4-5.2 21.1 18.6-27.9 22.4-34.8 25.2zm122.3-13.4a103 103 0 0 1-34.1 11.3c-10.5 1.5-14.9-13-5.1-17.4 15.6-7 34.2-16 43.1-22.1 15.1-10.5 22.4-20.8 32.7-34.5 11.9-15.8 26.6-12.7 43.1-17.7 6.9-2 11.3-6.6 18.2-8.2 7.6-1.6 17.2 0 24.8 0 14.3-.2 25.1-2.6 37.3-5.3 7-1.5 11.6 7.1 6.5 12.1-10.7 10.3-38.2 12.3-49.8 12.9-13.7.5-38.9 8.2-50 14.8a79 79 0 0 0-18.6 14.2 213.9 213.9 0 0 1-48.1 39.9zm168.1-7.7c-29.3 4.2-41.3 8.6-60.3 30.8-11.9 13.9-27.5 27.2-46.7 20.4-12.5-4.4-16.5-22.5-7.5-36 22.3-33.6 48.5-38.4 86.5-41.1 14.6-1.1 98.8-51.3 89.6-6.9-5.1 24.2-42.4 30-61.6 32.8zm119-11.8c-17.7 29.2-18.3 56.8-46.4 66.2-7.5 2.5-13.6-1.2-14.6-4.7-.5-1.8-.3-3.8.7-5.5 11.1-18.5 24.1-38.5 28.8-59.5 2.4-11.3-2.4-26 8.8-32.2 15.9-8.8 31 1.6 44.5-16.1 12.1-15.9 19-54.5 44.8-55.1 34.3-.7 8.4 47.7-2.6 58.5-19.3 18.5-49.7 25-64 48.4zm212.1-27.3c8 9.7 3.1 43.7-.4 55.5-2.4 8.5-7.4 16-11.4 23.8-2.5 5.1-8.8 7-13.7 4.5-5.2-2.6-11.4-5.9-16.1-8a10 10 0 0 1-5.8-10.9c4.4-25.8 23.3-94.6 47.4-64.9zm-18.2-155.6c4.3-22.1 20.6-18.2 26.2 1.6 17.7 62.1-71.5 73.3-70.8 126.2.4 33 1.2 60.1-22.1 91.5-11.9 16-75.1 40.1-87.7 17.7-9.6-17.1 7.5-49.3 31-63 17-9.9 49.4-24.4 50.1-47.7.3-13.6-16.9-29-6.3-41.4 13.1-15.1 45-10.3 61.5-22.7 20.5-15.5 13.8-40.3 18.1-62.2zm-31.3-23.3a94 94 0 0 1-27.5 65.6c-9.3 9.5-23.1 22.4-37.8 14.1-13.2-7.4-2.8-15.5 4.2-23.4 21.2-23.7 35.2-67.7 27.5-99.1-4.5-18.2-19.2-25.5-27.5-40.8-7.4-13.7-2.8-33.8-1-48.4 2-16.9 4.2-56.4 21.4-66.4 19.4-11.3 15.4 24.4 14 34.3-3.7 27.9-10.5 53.4-1 81.1 9.6 28 27.5 52.4 27.7 83zm24.9-431.6c3.2 24.8-25.5 41.6-31.3 63.7-5.3 19.7 21.7 38.2 30.2 54 4.3 8.2 7.6 16.9-.5 23.9-4.7 4-13.2 5.6-18.7 2.6-6.9-3.8-9.8-15.1-13.7-21.4-6.3-10-14.8-17.4-23.1-25.5-12.1-11.8-27.6-29.2-20.8-47.6 5.8-15.9 39.3-22.2 36.1-37.4-1.8-9.2-13.2-18.1-17.7-26.2a51.2 51.2 0 0 1-6.3-30.6c5.5-43.3 63.5 26.5 65.8 44.5z"/>
  </g>
</svg>