<?xml version="1.0" encoding="utf-8"?>
<!-- Generator: Adobe Illustrator 23.0.3, SVG Export Plug-In . SVG Version: 6.00 Build 0)  -->
<svg version="1.1" id="Layer_1" xmlns="http://www.w3.org/2000/svg" xmlns:xlink="http://www.w3.org/1999/xlink" x="0px" y="0px"
	 viewBox="0 0 1440 906" style="enable-background:new 0 0 1440 906;" xml:space="preserve">
<style type="text/css">
	.st0{fill:#009EE2;}
</style>
<path class="st0" d="M1390.8,760.8c-12.6-10.8,7.7-31,14-39.1c9.8-12.8,28.5-25.6,35.2-40.9v-37.9c-3.9-15.8-11.4-31.7-19.9-41.2
	l-0.8-11.4c7.3-2,14.3-3.2,20.7-3v-26c-0.1-0.1-0.2-0.2-0.3-0.3c-9.8-8-4.1-19.4-3.1-30.1c1.8-18.1-3.4-37-6.7-54.8l0,0
	c-3.6-19.1-12.2-38.5-3.6-57.5c3.3-7.2,8.8-13.1,13.7-19.2V225.2c-1.3-0.8-2.7-1.5-4.1-2.1c-20-8-45.4,6-49.7-21.7
	c-1.5-9.6,2.8-19.1,2.6-28.5c-0.3-12.5-6-19.6-13.7-29c-10.4-12.7-23-27.9-40.9-27.5c3.9-9.8,3.6-18.7,14.7-23.1
	c17.6-6.8,31.6,8.3,40.6,21.3c11.6,16.6,13.7,35.4,21.3,53.6c7.8,18.6,15.7,22,29.2,24.5v-32.8c-0.2-0.2-0.3-0.4-0.5-0.6
	c-8.1-11.2-8-26.2-13.5-38.6c-7.2-15.8-21-26.1-35.7-34.5c-10.4-6-33.9-12.9-39.3-24.9c-4.9-11.2,6.2-20.5,13.5-27.7l9.4-20.4
	c19.4,1.8,38,5.7,52.8,19.4c5.5,5,9.6,10.7,13.2,16.7V-0.5h-127.4c8,10.1,12.4,25.3,10.8,37.2c-2.6,18.6-6.2,63.7-30.8,62.6
	c-18.6-1-23.8-19.4-35.7-29.8c-20.2-17.8-16.9-34.9-9.1-59.3l13.6-10.7h-250c4.5,3.7,9.3,8.3,12.1,13.3c7,12.7,0.3,28.8,4.6,42.4
	c4.9,16.3,22.5,24,31.3,37.8c3.8,5.9,13.5,28.7-0.5,28.7c-14.7,0-26.9-36.8-33.2-45.5c-18.1-24.4-45.6-43-32.1-76.7H0v49.7
	c3.6-6,7.7-11.7,13.2-16.7C28,18.8,46.6,14.9,66,13.1l9.4,20.4c7.3,7.2,18.4,16.5,13.5,27.7c-5.4,12.1-28.8,18.9-39.3,24.9
	C35,94.6,21.2,104.8,14,120.6C8.5,133,8.6,148,0.5,159.3c-0.2,0.2-0.3,0.4-0.5,0.6v28.7c6.7-15.1,31.4,24.5,0,19.8v19.8
	c14.2,0.3,28.2-5.3,43-2.2c-0.4,26-26.8,34-43,49.7v133.9c0.1,0,0.2-0.1,0.3-0.1c21.5-6.2,21.3,15.5,17.1,29.8
	c-5.7,19.2-9.3,30.5-4.2,50.4c4.6,17.9,11.1,45.5-4.9,60c-2.5,2.3-5.3,3.8-8.3,4.8v32.8c6.4-0.3,13.4,0.9,20.7,3l-0.8,11.4
	c-8.5,9.6-16,25.4-19.9,41.2v37.9c6.7,15.3,25.4,28.1,35.2,40.9c6.4,8.1,26.6,28.4,14,39.1c-11.4,9.8-34-6.6-49.2-20.7v166.4h1440
	V740.1C1424.8,754.2,1402.2,770.6,1390.8,760.8z M1413.5,262.7c21.8,20.2,29.2,48.7,17.4,76.6c-11.2,26.6-50.5,51-50,81.3
	c0.2,11.6,7.5,22.5,11.4,33.1c6.2,17.1,9.1,35.4,10.8,53.5c2.1,23.1,3.3,103.5-37.5,62.7c-14.7-14.8-25.9-37.5-27-58.5
	c-0.8-15.6,6-27.4,11.1-41.4c5.7-15.6,5-30.3,2-46.6c-2.1-10.8-8.2-26.2-2.9-37c4.6-9.3,17.1-12.5,23.9-19.9
	c10.4-11.4,12.1-27.5,16.9-42.2l-0.2,0v-11.9c4.9-20.5-51.8-44.7-18.6-64.5C1385.1,239.4,1403.4,253.5,1413.5,262.7z M1308.9,569
	L1308.9,569c-4.4-17.9-18.9-25.1-27-40.1c-7.3-13.5-2.8-33.2-1-47.6c2-16.6,4.1-55.4,21-65.3c19.1-11.1,15.1,24,13.8,33.7
	c-3.6,27.4-10.3,52.5-1,79.7c9.4,27.5,27,51.5,27.2,81.6c0.2,24-10.3,47.6-27,64.5c-9.1,9.3-22.7,22-37.1,13.9
	c-13-7.3-2.8-15.2,4.1-23C1302.7,643.1,1316.5,599.9,1308.9,569z M1289.8,235.7c5.7-15.6,38.6-21.8,35.5-36.8
	c-1.8-9-13-17.8-17.4-25.7c-5-9.3-7.5-19.6-6.2-30.1c5.4-42.5,62.4,26.1,64.7,43.7c3.1,24.4-25.1,40.9-30.8,62.6
	c-5.2,19.4,21.3,37.5,29.7,53.1c4.2,8.1,7.5,16.6-0.5,23.5c-4.6,3.9-13,5.5-18.4,2.6c-6.8-3.7-9.6-14.8-13.5-21
	c-6.2-9.8-14.5-17.1-22.7-25.1C1298.3,270.9,1283.1,253.8,1289.8,235.7z M1297.5,320.1c8.8,10.8,20.5,21.8,25.9,34.7
	c10.8,25.7-21.2,33.2-38.4,42.7c-27.8,15.3-20.7,40.9-23.8,68.3c-1.6,14.8-17.8,59.8-27.5,23.3c-9-33.4-3.3-70.2,20.5-94.8
	c10.9-11.4,34.2-26.7,32.2-45c-2.6-24-41.2-28.7-45.6-54.8c-4.1-24.1,14.2-30.6,27.7-13C1278.2,294.2,1287.2,307.6,1297.5,320.1z
	 M1090.4,694.3L1090.4,694.3c-0.8-10.6-3.4-23.8-1-34.2c3.6-15.2,18.6-23.3,29.8-32.4c9.4-7.8,18.7-22.7,30.3-27.2
	c5.9-2.3,23.3-2.4,25.1,6.2c2,9.3-23.3,29-27.8,36.8c-13.2,22.3-12.9,46.1-13.7,71.2c-0.5,11.9-16.6,46.3-33.7,35.9
	c-7.2-4.4-3.1-17.1-3.1-23.8C1096,715.3,1091.2,705.2,1090.4,694.3z M988,653.7c-11.9,20.5-1.8,41.7-9.4,62.9
	c-2.1,5.9-8.1,16.6-16,11.7c-7-4.4-2.3-16.9-0.5-22.8c2.9-9.9,6.4-18.3,5-28.8c-0.8-7.8-6.7-17.6-4.6-25.6
	c2.3-8.5,10.9-11.4,17.6-15.6c10.1-6.5,18.1-30.3,25.6-24.1l0,0l0,0l0,0C1013.2,617.7,994.5,642.8,988,653.7z M1002.8,717.9
	c-0.2,0.3-0.5,0.7-0.8,1c-2.1,2.3-5.4,4.1-8,1.3c-4.1-4.4,2.8-15.8,8-16.6C1009.1,702.6,1005.7,714.2,1002.8,717.9z M946.4,625.8
	c-19.2,6.8-38.1-2.4-17.3-19.4c9.4-7.7,21-12.2,30.6-19.9c12.9-10.1,21.5-23.8,27.5-39c10.4-25.9,12.5-54.4,24.1-79.9l10.9,6.7
	c21,13.9,15.8,49.5,8.5,69.1C1017.5,579.6,982.8,613,946.4,625.8z M336.9,508.3c0.8,13,21,80.8,6.7,83
	c-16.5-15.3-16.3-45.6-19.7-66.7c-3.7-22.3-9.9-45.5-7.8-68.4c0.8-8,2.4-22.2,7.8-28.5c2-2.4,22.5-15,25.1-7.8
	c4.4,11.9-4.6,25.3-7.7,36.7C336.9,472.2,335.7,491.9,336.9,508.3z M337.4,410.7c-27.9,1.8-42.8,16.8-48.5,43.7
	c-2.3,10.8,0.7,75.6-24.6,58.3c-16.6-11.6-6.5-52.6-2.4-67.1c7.2-26.2,17.9-47.9,19.1-75.8c0.8-16.6-6.8-78.7,16.9-84.7
	c36.5-9.3,10.9,76.8,28.2,90.3c9.9,7.7,35.5,2,40.1,16.1C371.4,408.1,347.8,410.1,337.4,410.7z M293.1,676.5
	c-2.4,7.2-10.1,23.1-19.9,16.3c-7.5-5.2-3.3-42.7-3.3-51.5c0-7,5.2-35.4-3.9-38.1c-13.4-4.1-18.2,28.4-23.5,35.4
	c-21.2-26.7,9.3-82.1,35.8-93.9c27.5-12.2,25.6,27.4,21.3,44.8C292.7,617.5,302.3,648.8,293.1,676.5z M137,464.5
	c-1.3-10.8-12.5-17.1-16.6-26.7c-5.2-12.2-12.9-29.5-4.6-42c9.6-14.3,22.3-7.8,28.7,4.2c8.3,15.6,8.3,20.2,25.9,18.9
	c11.2-0.8,18.9,1.6,19.5,13.4c0.8,13-4.2,31.3-9.3,43c-5,11.7-9.1,35.7-19.4,43.5c-20.5,15.6-26.4-9.5-27.2-25.9
	C133.6,483.4,138.1,473.5,137,464.5z M73.1,473.1c-9.8,7.8-17.8,2.1-21.3-7.5c-7-19.4-9-53.1-3.1-72.7c8.3-27.4,38.6-37.5,53.1-60.5
	c8.3-13.2,8.3-35.2,19.7-46.1c13.5-12.9,16.1,5.9,16.5,16.8c0.5,16.6,1,35.5-10.4,48.7c-9.3,10.6-24.4,13.7-33.2,24.3
	c-11.2,13.4-12.5,37.3-12.9,53.9C81.3,443.6,85.4,463.4,73.1,473.1z M165.5,200.2c7.2-22.5,18.1-41.7,44.5-43.8
	c19.1-1.5,34.4,13.7,13.7,23.1c-14.8,6.8-25.1,3.6-30.6,22.5c-8,28.5,13.2,59.3,3.7,87.8v0c-7.3,22.2-27,30.8-23.6,57.4
	c1.8,13.7,16.8,47.8-10.3,45.8c-16.9-31.5-13.8-63.4-3.9-95.8C168.6,265.5,155.2,232.8,165.5,200.2z M263.1,263.6
	c15.6,22.2-15.6,106.3-44.8,87.4c0.3-14.5,4.1-26.1,10.8-39c4.7-9.3,21-27.1,17.4-38c-4.2-13-16-6.7-16-24.9
	c0-8.1,11.6-43.3,21.8-44c13-0.8,10.8,21.8,7,29.3C249.1,255.1,250.4,245.5,263.1,263.6z M231,533.1c2,26.1-16,68-27.4,21.8h0
	c-12.5-50.2-2.4-110.7,17.3-157.8c17.1-40.7,25.6,11.4,17.3,30.3c-6.2,14-14,23.8-15,39.8C221.9,489.3,229.5,511.3,231,533.1z
	 M191.7,619.5c6.5-12.4,13-11.9,18.4,0.5c4.4,10.3-3.4,21.3,4.1,31.1c7.2,9.5,23.3,6.5,30.6,15l0,0c9.3,10.6,1.3,32.9,2.8,45.3
	c1.5,11.4,10.9,24.8,8.5,36.5c-5.4,25.7-37.1,6.8-43.7-10.6c-6.8-18.3-9.8-39.3-14.8-58.2C193.4,663.3,183.3,635.5,191.7,619.5z
	 M431.8,212.5c5.5-0.2,28.3-7,31,2.1c3.4,11.6-41.7,20-49.5,26.2c-22.5,17.9-22.3,43-31.4,68c-4.9,13.5-10.4,26.2-16.1,39.4
	c-4.6,10.3-6.7,24-17.1,8.8c-11.2-16.3-18.9-60.8-1.3-68.8c2.9-1.3,9.8,4.7,12.1,2.8c17.3-14.5,14.3-55.9,25.7-75.1
	c10.6-17.9,24.3-37.5,47.7-34.5C437,191.9,430.2,202.1,431.8,212.5z M883.9,201.8c-6.4,3.7-14.8,4.2-21.8,6.5
	c-9.3,3.1-7,4.6-16.6-1.1c-13.5-8.3-27.2-14.7-43.2-12.4c-17.3,2.6-33.4,11.7-48.9,19.2c-8.1,3.9-17.4,10.4-27,7.8
	c-8-2.3-16.3-12.2-11.9-20.5c4.9-9.6,23-9.1,31.9-11.6c16-4.2,30.1-12.9,46.4-16.3c28.3-6,51,3.4,77.4,10.9
	C880.6,187.3,899.2,192.5,883.9,201.8z M868.6,101.6l3.6-4.9C897.4,95.4,859,128,868.6,101.6z M1005.7,360.5
	c-1.1-4.7-2-13.4,5.4-12.7c10.1,1,8.1,25.3,6.5,31.6c-2.9,11.4-11.1,19.9-16.1,30.1c-3.7,7.8-2.9,13.9,1,21.5
	c3.1,6.2,11.4,16.5,7.8,24.1c-2.4,4.9-7.8,3.6-11.4,7.3c-4.2,4.2-3.4,12.9-11.1,13c0.2-9.8,1.8-19.6,2-29.3
	c0.3-12.2-5.2-22.5-6.4-34.2h0c-1.5-14.3,13.5-22,20.5-32.8C1008.7,371.9,1007.5,368.3,1005.7,360.5z M1033.7,205.2
	c17.4,10.3,40.2,23.6,51.8,38.5c19.2,24.8,16.6,57.5,10.9,86.9c-1.3,7-2.6,19.7-9.9,11.9c-6.5-7.2-4.6-27.1-3.9-35.7
	c0.8-11.2,3.1-21.5-1.5-32.4c-6.3-15.5-20.7-28.4-33.2-39c-6.3-5.4-28.7-16.5-30.9-24.8c-1.8-6.7,6.4-14.7,11.9-12.9h0
	C1031,198.4,1031.9,203.7,1033.7,205.2z M1033.2,451c-10.4-8-21-28.2-16-41.2c4.2-10.9,10.8-17.6,12.7-30.3
	c2.8-18.1,2.3-37.6,1.6-56.1c-0.7-16-2.6-31.8-6.3-47.4c-1.6-6.7-9.5-23.8-4.9-30.5c10.8-15.6,30.1,21,33.2,28.4
	c18.1,43-2.3,85.6-5.2,129.2C1047.6,413.2,1056.4,468.7,1033.2,451z M1053.6,511.6c-0.2-11.1-6-27.2-1.3-37.8
	c4.6-10.3,18.2-14.3,24.4-24.1c12.7-20.2,7.3-49.1,4.9-71.2l8.6-14.5c12.6,20,17.1,39,12.6,63.1c-3.4,17.6-11.7,31.6-21.2,46.4
	c-8.3,13.2-10.4,25.1-10.9,40.6c-0.5,16.5,0.8,37.6-8.5,52.3c-7,11.2-12.4,5.9-12.7-5.2C1048.9,544.7,1053.9,528.2,1053.6,511.6z
	 M990.1,349.1c-1.8,5.2-6.8,25.6-13.2,27.5c-6.2,2-5.4-8-5.2-12.4c1-27.5,12.5-47.4-4.2-73c-7-10.9-32.3-29.2-26.1-44.2
	c3.9-9.6,15.6-5.1,22-0.7c10.3,7.2,14.5,17.9,20.9,28.2C999.5,299.4,999.4,321.9,990.1,349.1z M989.8,238.8
	c-16.1-1.8-21.5-14-33.1-24.4c-16.1-14.7-31.8-18.7-51.1-27.9c-9.4-4.4-15.6-14.2-10.8-24.4l8.5-4.9c17.9-0.7,31.6,2,46.1,13.5
	c12.5,10.1,20.5,24.1,29.5,37.3C985.7,217.9,991.7,226.6,989.8,238.8z M923.1,230.1c-0.5,0.3-1,0.7-1.5,0.8
	c-7.3,2.9-15-8.5-10.4-14.3c4.6-5.9,13.5-1.8,14.5,4.7C926.2,224.3,925.7,228.4,923.1,230.1z M911.4,260.5
	c5,22.2,30.5,33.1,39.6,54.4c6.2,14.3,9.1,29.3,9.9,44.8c1.1,19.6-2.9,41.1,3.4,60c4.2,12.7,22.6,33.4-3.4,25.9
	c-11.9-3.4-12.1,5.7-23.1,6.2c-1.6-14,1.8-29.7,1-44.2c-1-16.8-1.5-34.4-6.5-50.7c-9.1-28.8-27.5-49.5-46.3-73h0
	c-10.3-12.9-15.1-40.6-1.5-53C902.4,215,909,249.9,911.4,260.5z M444.4,498.1c-20,13.7-14.2-69.8-13.2-78.1c1.8-16.1,7.5-28,15.1-42
	c9-16.6,12.7-33.2,17.3-51.3c4.1-17.1,12.1-32.9,32.1-32.9c14.7,0.2,21.5,9.9,12.4,21.2c-8.5,10.6-16.1,15.8-16.8,30.5h0
	c-0.8,19.2-4.4,32.4-14.5,49.2c-11.9,19.9-24.6,38.6-27.2,62.3C448.6,465.8,453.3,492,444.4,498.1z M403.7,375.5
	c-14.3-4.2-11.2-21.3-8-32.4c7.8-25.9,22.2-53.6,39.4-74.5c8.3-9.9,17.3-23.5,31-25.7c9.1-1.5,31-0.8,35.7,8.3l0,0
	c6,11.6-12.4,21-20,25.6c-14.2,8.3-32.3,14.7-39.9,30.3c-7,14.3-2.9,31.5-8.1,46.3C429.6,364.8,417.7,379.6,403.7,375.5z M524,378
	c1.6,39.6-12.7,81.8-7.3,121.6c2.8,20.4,19.7,37.3,19.5,57.7c-35.3-3.9-43.5-54.4-47.9-83.3C482.8,437.6,491.5,399.3,524,378z
	 M754.9,464c11.1,6.8-6.8,19.4-13.5,21c-15,3.6-32.3-23.6-17.4-31.9c9.3-5.2,9,0.2,12.5,6.2C741.3,467.4,748.3,460.1,754.9,464z
	 M742,434l3.4-4.1c3.3-0.5,6.7,1,8.3,3.9c1.6,2.9,2.6,14.2-0.5,16.5c-3.4,2.4-5.9-2.3-8-4.2C742.6,443.8,738.4,437.4,742,434z
	 M733.7,499.9c19.9,2.1,40.6-5.2,46.3-26.4c5.2-19.1-2.9-31.9-8.5-49.1c15.3-10.1,32.6,28.5,32.7,38c0,24.1-9.3,48.6-35.7,51.8
	c-8.5,1-32.9-3.6-37.3-12.5L733.7,499.9z M767.2,385c-9.8-3.9-17.6-10.6-28.2-13.4c-13.7-3.7-28.2-3.1-42.2-2.4l-3.4-1.8
	c21.5-18.6,61.4-33.4,81.3-4.6C782.9,374.7,785,392.1,767.2,385z M698.7,378.8c4.4-0.7,16.1,0.3,15.8,7.2c-0.2,4.9-6.5,4.2-10.1,4.4
	l0,0c-4.6,0.3-11.7,4.6-14.5-1C686.9,383.3,694.1,379.4,698.7,378.8z M703.7,403.1L703.7,403.1c7.5-4.2,27-8.5,26.2,4.9
	c-0.8,13.2-27.7,23.5-32.6,37.2c-4.1,11.4,9,37.6,0.8,45.1c-7.3,6.8-18.9-2.9-21.3-9.5c-3.3-8.8,1.3-19.2,2.8-27.9
	C682.9,434.5,685.3,413.5,703.7,403.1z M677,499.5l3.6,2.6c17.8,6,27.4,26.1,45.4,32.3c26.7,9.1,51.3-8.8,77-7.8
	c0.5,0.8,1,1.6,1.1,2.6C785,572.2,674.7,551.2,677,499.5z M770.8,573.4c2.1-18.6,32.7-11.6,44.5-21.2c7.2-5.9,25.4-22.8,35.7-13.5
	c7.8,7.2-8,20.5-12.7,25.6c-11.1,11.9-23.9,14.8-39.1,19.2c-6,1.8-26.1,11.6-29.5,2.9C769,585.1,770.7,575,770.8,573.4z
	 M824.7,521.5c0-26.1,9.3-53.3,3.4-79.2c-4.4-19.7-34.5-40.6-17.3-58.3C862.4,392.1,879,526.4,824.7,521.5z M791,334.5
	c-8.8-4.1-33.9-14.3-24.9-28.8c9.8-15.6,42.7,1.3,51,9.8c61.6,62.1,73.5,115.2,58.3,122.2C863.8,433.9,848.2,360.4,791,334.5z
	 M852.8,288.2l8.5,3.6c16.5,10.9,35.3,46,43.3,63.1c10.9,23.3,24.9,74.2,8.1,74.2c-3.1-26.6-14.5-51.7-30-73.3
	C872.8,341.8,826,306.4,852.8,288.2z M858.3,254.6c-1.8,9.3-7.8,9.8-14.8,4.4c-11.9-9.1-18.6-16.8-34.9-18.6
	c-8.8-0.8-29.3,4.1-35.3-4.9h0c-6.2-9.1,7-14.3,14.2-14.7c8.6-0.2,18.6,2.8,26.7,5.2c10.6,3.1,20.7,0.5,31.4,0.3
	c7-0.2,13.4-0.2,14.2,7.7C860.4,239.1,859.3,249.7,858.3,254.6z M831.3,282c3.4,7.8-3.6,12.7-11.1,12.1c-7.8-0.8-13.2-7.8-20.5-9.9
	c-11.9-3.4-24.9,1.3-37,1.3c-10.9,0-7.7-2.4-12.4-9c-6.8-9.5-27.9-8.5-38.1-11.2v0c-9-2.4-13.5-6.5-6.2-13.4
	c7.3-6.7,18.1-7.3,27.5-7.2c11.1,0.3,19.4,9.9,28.3,15.3C779.1,270.1,822.1,261.3,831.3,282z M707.6,292.1
	c10.4-2.4,26.6-7.3,32.7,5.1c2.1,4.1,0.8,8,1.3,12.2c0.5,4.4,2.3,5.9,4.1,9.6c4.6,9.6-4.7,10.6-13.7,9.3
	c-10.6-1.5-18.1-5.2-29.2-3.4c-13.4,2.1-17.8,8.1-23.9,19.7c-6.2,11.4-14.7,32.6-30,32.9c-15,0.5-9.4-9-9-17.8
	c0.7-12.2-18.7-15.5-16.9-26.1c1-6.4,12.1-12.1,16.6-15.5c6.2-4.7,12.5-9.8,19.4-13.5v0C674.1,296.6,691.2,295.8,707.6,292.1z
	 M668.5,250.2c-23.6,2.8-45.8-5.5-69.7,1.1c-21.2,5.9-33.2,19.9-47.6,35.5c-7.5,8.1-18.6,16.3-21.8,0.2
	c-3.6-18.1,16.5-32.4,29.6-39.9c22-12.5,55.2-35.9,81.6-28.2c8.6,2.6,16,6.8,24.9,7.8c6.8,0.8,13.8-1.5,19.9,3.7
	C699.6,242.9,678.8,248.9,668.5,250.2z M571.1,301.4c25.9-21,45.6-38.5,80.8-28.4c2.8,8.5-9.9,10.3-18.6,18.9
	c-11.4,11.2-38,20.2-47.1,39.1c-9.3,18.9-15.6,68-28,61c-1.3-8.8,4.1-29.2-1.3-36c-5.5-7-17.4,0.5-26.4,0.3
	C493.7,355.5,566.2,305.1,571.1,301.4z M543.6,389.2c-8.3,7-9.6-10.4-4.7-14.2C546.4,369,548.3,385.1,543.6,389.2z M537.2,429.6
	c9.9-11.7,25.9-16.6,38-25.6h0c13.7-9.9,19.9-23,25.2-38.1c3.7-10.9,15-17.4,20.7-2.1c4.1,10.6-3.4,24-8.6,32.9
	c-6.4,10.9-14.5,19.2-26.1,24.6c-19.2,8.8-26.9,9.6-25.6,33.6c1.5,27.2,6,49.4,26.1,68.6c5,4.9,43.3,43.2,19.9,41.2
	c-8.1-0.7-16.8-10.4-24.1-13.9c-7.2-3.4-14.5-3.1-21.7-5.7c-19.5-7-16.6-27.7-19.5-44.5C537.4,477.4,519,451.3,537.2,429.6z
	 M600.8,506.9c-5.9-8.6-12.9-16.1-17.9-25.1h0c-5.7-10.1-14.8-37.2,4.9-38.8c18.6-1.8,8.8,27.1,9.9,37.3c1.8,17.6,22.8,27.2,17.3,46
	C608.1,522.2,605,513.2,600.8,506.9z M612.2,448.2c2.1-16,4.2-36.7,17.3-47.9c6.4-5.5,38.1-21,40.4-6.8c1.1,7-14.2,21.8-17.6,27.2
	c-8,12.4-14.7,25.9-15,41.1c-0.7,24.1,23.3,63.6,23.1,62.9c-5.4,4.4-23.6-4.2-23.6-4.2h0C619.5,497.9,608.3,477,612.2,448.2z
	 M634,554c4.1,1.8,2.1,21.8,0.8,21.8C619.8,575.3,624.5,550.2,634,554z M630.2,593.6c3.1-5.4,7.3-0.3,11.1,2.3
	c9.4,6.4,19.5,10.3,30.5,13c12.2,3.1,24.1,5.7,35.7,10.6c9.1,3.9,25.4,9.6,30.6,18.9h0c7.5,13.9-16.9,16.5-24.6,13.9
	c-11.6-3.9-21.2-13.4-32.7-17.8c-13.2-5.1-26.9-10.3-38.1-18.9C637.9,612,625.8,601.1,630.2,593.6z M646.4,542.4
	C664,578.6,729,559.8,751,591.5C698,601.4,645.6,588,646.4,542.4z M778.6,610.7L778.6,610.7c91.5-9.9,112.9-82.3,114.5-161.7
	c-4.2-8.3,11.1-11.9,15.6,0.2c23.8,63.9-47.9,194.9-151.3,179.9C757.3,629.3,722.6,616.9,778.6,610.7z M763.8,655.7L763.8,655.7
	c1.1-11.1,39.1-10.8,49-11.4c11.2-0.8,26.1-0.5,35.2-8.1c5.4-4.6,10.3-12.5,15.1-17.9c6-6.7,13.4-29.2,24.9-26.6
	c0.3,11.7,6.8,10.8,16.9,11.1c1.6,12.1-12.5,17.1-19.7,23.8c-9,8.3-14.3,19.9-24.6,26.9c-15.3,10.4-32.9,11.4-50.8,11.2
	C798,664.5,762.8,666.7,763.8,655.7L763.8,655.7L763.8,655.7z M902.8,566.8c2.3-11.6,22.2-26.7,28.2-37.6h0
	c7.2-12.7,10.4-57.7,20.9-64.9c16.5-11.1,21.7,19.6,20.4,31c-2.9,24-20.4,52.3-38,68.6C923.1,574.2,898.2,590.1,902.8,566.8z
	 M746.7,176.2c-14.8,5.7-32.7,3.9-46.8,11.4c-9.3,5.1-13.7,13.9-25.1,15c-19.7,1.8-40.1-11.9-59.6-13.9h0
	c-17.3-1.8-37.1,2.9-52.3,10.9c-12.1,6.2-21.8,20.2-34.5,24.4c-12.4,4.1-24.3-4.9-21.7-18.3c2.3-12.2,16.1-21.2,26.9-25.3
	c49.2-19.1,104.6,1.6,154.8-12.4c18.2-5.1,37.1-11.9,56.5-9C761.7,161.7,762.2,170.3,746.7,176.2z M620.3,148.3L620.3,148.3
	c-26.6-2.4-54.9-6.4-81.1,0.3c-20.7,5.4-33.6,19.1-49.8,31.6c-7.3,5.7-22.5,14.3-29.3,2.9c-6-9.9,6.8-18.7,13.5-23.8
	c27.7-21,55.9-41.1,92.4-36c17.4,2.4,34.4,6.5,51.6,8.6c5.5,0.7,12.1,2.4,12.5,9.1C630.7,150.1,620.3,148.3,620.3,148.3z
	 M396.5,392.8h6.4c15,21.8-22,76.6-15.8,111.1c5.9,33.1,35.7,64.4,30.1,98.3C342.2,590,352,429,396.5,392.8z M416.7,510.1
	c10.4,8,6.4,26.4,19.1,27.2c19.2,1.1,17.3-29.2,28.5-38.1c15.1,19.7-5.9,69.1-4.7,94.4c0.7,14.3,2.9,27.2,11.2,39.6l-15.5-9.8
	C436.1,584.4,418,554.9,416.7,510.1z M463.6,666.3c28.2,16,46.3,39.1,72.2,59.2c30.1,23.3,67.1,21.8,97.1,43.3
	c-37.3,46.6-179.7-72.2-180.3-106.6L463.6,666.3z M487.7,586.6c9.3-52.8,43.8,43.2,64.7,65c25.1,26.2,68.3,46.3,100.3,63.6
	C593.8,724.1,475,658.3,487.7,586.6z M645.9,678.2c-38.1-13.4-85.8-70.6-83.4-112.6l13.2,5.4c16.1-0.8,48.7,57,66.1,68.8
	c21.8,14.7,71,33.1,99,31.6C731.4,695.9,663.1,684.2,645.9,678.2z M695.7,702.8c5.1-10.3,26.1-2.6,34.7-3.7
	c10.1-1.3,15.6-8.3,23.9-13.7c12.7-0.8,23.6,4.7,35.7,6.4c13.7,2,33.1,2.1,46.6-0.7c12.9-2.6,24.6-9.6,33.4-19.2h0
	c11.4-12.5,19.9-31.5,40.2-31.1c6.2,0.2,18.6,4.9,14.8,13.4c-2.8,6.2-12.2,3.7-17.3,4.2c-27.9,2.6-23.8,37.5-44.3,51.8
	c-34.5,24.3-69.2,3.3-105.6,7.3C750.9,718.1,682.9,729,695.7,702.8z M879.6,726.7c12.9-15.5,30.5-56.7,55.7-48.9
	c8.5,38.8-35.7,78.7-61.6,100.9c-39.1,33.5-94.4,26.1-144.5,17.8c0,0.7-0.1,1.3-0.1,0c-16.6-1-41,0.5-52.5-12.4l-2.6-4.1
	c8.3-25.4,80.3-0.2,100.8,0.8C820.3,782.9,851.1,760.9,879.6,726.7z M1042.7,602.9c18.2-11.6,42.8-17.6,49-41.7
	c6-23.8-9.3-68.3,29.5-65.2l9.8,1.6c0.5,14-7.2,20-12.1,32.4c-9.1,23.1-2.6,43.4-23.1,61.6c-20,17.8-37.1,26.2-38.9,56.2
	c-1.1,21.3-0.2,88.3-36.8,74.6c-1.3-20,9.8-38.1,11.7-58C1033.9,641.5,1019.7,617.5,1042.7,602.9z M1123.2,211.4
	c19.2-3.3,17.8,21.3,17.8,33.7c0,16,7.5,29,9.9,44.5c3.3,19.7-2.9,39-4.6,58.5c-1.8,21.2,3.9,41.9,2.3,63.1
	c-0.7,9.1-8.1,52.2-24.6,48.4c-14.2-3.3-5.9-46-5.4-55.4c0.8-18.1-4.6-34.7-4.7-52.2c0-12.4,9-22.8,10.9-35
	c4.1-25.3-8.3-49.2-14-73.2C1107.9,231.8,1106.9,214,1123.2,211.4z M1112.4,178.3l1.3-8.8c11.4-4.2,15.3,10.6,11.6,18.6
	C1118.1,203.1,1109.7,190.1,1112.4,178.3z M1200.1,510.6c2.8,25.3,11.4,91.6-35.7,69.8c-38.7-18-19-54-7.2-84.5
	c1-14.9,7.5-28.1,12.4-42.1c9.8-27.9,9.6-56.1,10.6-85.2c0.3-10.6-0.8-52.6,17.8-51c18.4,1.6,20.7,42.5,20.8,54.8
	C1219,419.2,1194.8,463.5,1200.1,510.6z M1210.3,647.5c12.7-16.6,11.2-36.3,12.2-56.4c0.8-14.2-2.8-35.4,8.2-46.4
	c16.6-16.8,30.6-1,33.9,16.8c4.7,25.4,3.9,61-9.1,83.9c-10.1,17.9-29.5,28.5-43.2,43.7c-13.8,15.3-24.4,33.1-37.5,49.1
	c-8,9.9-11.6,11.7-18.1-0.2C1134.1,696.9,1190.1,673.6,1210.3,647.5z M1248.4,341.1c10.3-5.5,11.9,8.6,8.3,16.6c0,0-0.2,0.2-0.2,0.3
	c-2.3,5.2-4.9,8.5-11.4,5.4C1237.2,359.7,1242.4,344.6,1248.4,341.1z M1191.1,34.6l7.5-4.7c6.3,2.6,10.8,6.5,12.2,13.4
	c3.2,15.6-4.7,25.3,7.5,39.8c17.1,20.2,39.9,33.2,50.8,58.7c9.8,22.8,6.3,47.3-3.7,69.4c-5.2,11.7-19.4,42-35,43.3
	c-15.8,1.3-8.8-24.1-6.7-32.8c8.8-36.7,6.2-73.5-18.4-104.6c-11.2-14.3-34.9-27.4-38.4-46.3C1163.7,53.8,1178.7,42.7,1191.1,34.6z
	 M1195.7,215.3c-0.7,16,9.4,57.4-6,68.4c-14.5,10.3-23.9-12.7-26.2-23.5c-3.1-15-0.8-30.6-3.2-45.6c-3.6-22.3-15.2-41.7-27.1-60.6h0
	c0,0-11.1-14-4.6-23.8c6.7-9.8,22.3-4.4,30.6-0.3C1193.2,146.7,1197.3,181.6,1195.7,215.3z M1081.3,43.4l13.7-21
	c13.8-5.4,27.7-9.1,39.4,2.6c12.5,12.5,18.4,36,12.7,53c-5.2,15.5-19.7,19.1-28.5,31.1c-7.3,10.3-4.6,25.4-12.7,34.9
	c-6.7,7.7-16.4,7-20.2-3.3c-3.4-9.3,3.4-17.8,5.7-26.2c4.1-14.7-0.7-27.9-6.5-41.4C1080.7,63.3,1074.8,53.5,1081.3,43.4z
	 M942.2,59.2c5.5-21.7,29.3-4.1,38.3,5.2c13.8,14.3,24.1,33.4,32.7,51.3c8,16.6,17.4,26.7,33.1,36.7c11.7,7.5,46.9,21.8,49.2,38
	c2.9,20-56.4-8-67.4-10.4c-11.2-2.4-21-5.2-25.1-17.3c-3.7-11.1,0.5-21.3-6.7-31.8h0C982.4,110.7,934.5,88.2,942.2,59.2z
	 M851.9,36.4c14,0.7,21.2,7.7,32.3,15.5c19.1,13.5,19.7,36.3,30.1,55.7c10.9,20.4,35.2,20.2,53.1,31c10.1,6,30.8,30.3,28,43.5
	c-7.2,0.8-18.2-13.4-23.6-17.6c-10.4-8-20.2-15.6-32.7-20c-9.6-3.3-19.9-5.4-29.3-9.3c-14-5.7-10.4-16.5-13.2-29.3
	C891,79.6,872.1,54,849,40.6L851.9,36.4z M796.4,25.8c12.5-4.4,22.8,1.3,30.5,10.9c7.2,9.3,15,18.1,22.2,27.2
	c6.8,8.6,7.2,9,4.9,20.7c-9.8,2-32.9-10.9-42-16.6C796.2,58.2,783,39.6,765,35.4L796.4,25.8z M677.8,57.7
	c8.6-41.9,78,19.6,92.4,24.6c17.1,6,36.3,4.2,53.1,11.2c11.9,4.9,20,14.7,29.6,22.8c6,4.9,23.6,13.9,23,23.5
	c-1.3,18.6-22.5,1.5-26.7-4.9c-9-13.4-18.9-24.4-35.5-26.9c-15.3-2.1-29.8,1.3-44.6-4.2c-17.4-6.5-33.7-13.7-52-18.7
	C705.2,81.8,674.1,75.8,677.8,57.7z M678.6,107.8c8,3.4,15.5,8,24.1,9.1c8.1,1.1,16.6-0.5,24.8-0.5c13.2,0,23.6,2,35,8.6
	c17.1,10.1,37.1,2.4,54.7,9.9c2,9.5-9.4,15.6-16.3,19.6c-15.1,8.6-30.1-7.8-43.5-13.2c-23.8-9.6-47.4,5.9-71.5,7.5
	c-4.2,0.3-21.5,0.7-23.9-3.3l0,0c-2.3-3.6,8.8-8.6,7.5-15.6c-1-5.9-8.6-8.3-13.2-11.7c-4.1-2.9-11.2-9.9-5.2-14.7
	C657.3,98.6,673.2,105.5,678.6,107.8z M592.8,48c16.9-1.8,46.2-1.5,57.8,15.2c5.4,7.7-25.4,30-35.5,33.7c-27.4,10.1-59.3-1-87.6,0
	c-37.5,1.3-61.6,22.5-91.4,41.9c-14.5,9.5-43.5,20.5-42.5-7.8c1.1-32.8,48.7-50.5,74.3-59.5c19.5-6.8,39.6-8.5,59.9-11.2
	C549.6,57.1,570.8,50.4,592.8,48z M384.4,47.1c8-16.8,35.5-9.9,49.8-18.4c14.7-8.6,22.2-16.5,40.4-18.6c12.7-1.5,36.7-4.6,30.6,13.2
	C500.4,38,491.5,30,479.7,31c-27.9,2.4-39.3,32.8-63,40.4C401,76.6,374.2,68.6,384.4,47.1z M378.1,93.9c3.1,9-4.7,11.7-7.5,18.7
	c-7.8,19.2-1.3,28.8,2.1,48.9h0c3.3,19.2-5.4,24.4-18.6,36.2c-14.7,13.4-20.2,27.1-29.6,43.7c-15.5,27.2-60.8,21.7-47.4-14.3
	c10.9-29.2,40.2-44.2,52.8-71.5c9.3-20.2-4.2-62.6,22.8-70.6C360.3,82.7,375,85.1,378.1,93.9z M319.8,44.9c7-6.4,3.4-14.7,17.8-12.2
	H358c4.7,36.2-38.1,32.9-47.9,61.1c-7,20.2-4.6,83.8-39.6,79c-8.5-18.4,0.8-27.5,4.1-45.5c3.4-19.2,2.1-39.8,13-57.2
	C295.3,57.7,309.7,54,319.8,44.9z M208.2,40.1c3.6-26.2,23.6-31.3,48.5-27.4c20,3.1,33.6,8.5,19.1,24.9
	c-20.2,22.8-41.4,47.3-43,80.8c-13.4,0.8-24.1-5.5-36.5-6c-14.2-0.5-49.8,36.8-58.2,18.4c-6.8-14.8,27.2-34.4,37.5-38.6
	C208,79.1,203.3,75.3,208.2,40.1z M36.8,187.8c-18.7-12.1,0.7-42.7,10.9-53.1c17.1-17.1,39.6-27.2,54.6-46.8
	c10.8-13.9,17.1-30,21.2-46.8l24.9-14.8c30.1,6,23.5,46.9,3.1,60.1c-11.7,7.7-25.7,11.9-35.7,22.3c-11.7,12.5-17.6,30.5-27.2,44.5
	C80.3,165.6,55.7,200,36.8,187.8z M42.7,268.3c23.3-32.1,59.3-47.1,74.4-85.2c4.9-12.2,14.8-31.3,31-20.5c9.8,6.5,4.1,9.3,0.8,17.3
	c-5.7,14-3.9,29.8-11.7,43.5c-4.2,7.3-14.7,23-23.9,24.4c-4.1,0.5-7.2-3.6-11.1-3.1c-7.3,1-10.8,8.5-14.2,14.3
	c-14,24.6-22,49.4-41.7,71.1v0.2H31.4C14.7,320.6,35.2,278.7,42.7,268.3z M27.4,671.1c-5.4-5.5-3.9-29.3-2.1-35.7
	c3.7-12.5,14.8-21.8,20.5-33.4c4.9-9.9,8-24.1,5.5-35.4c-1.6-8.3-6.7-15-8-23.6c-1.6-9.8-2-37.3,14.8-33.1
	c10.6,2.8,18.2,33.7,28,11.7c3.6-7.8,2.6-41.7,17.8-35c13.4,5.9,11.7,36.8,11.6,47.9c-0.3,21.7,3.6,47.4-7.2,67.1
	c-11.2,20.7-36,25.3-48.1,46.4C56,655.7,40.7,685,27.4,671.1z M96.9,858.7c-1.5-1.1-4.1-2.3-5.4-3.4L65,874
	c-3.7-11.6-11.7-21-15.1-32.8c-3.4-11.6-8.3-45-0.5-54.6C76.9,752.8,97.4,849.3,96.9,858.7z M94.5,758.3L94.5,758.3
	c-15.1,5.5-20.9-32.4-20.5-41.6c0.5-21.7,16.3-40.6,32.3-53.6c14-11.4,28.5-19.7,33.6-38.3c5.9-22.3-1-52.8,13.8-72
	c8-10.3,30.1-10.1,29.5,7.2c-0.2,5.7-4.4,6.4-7,10.6c-4.2,6.8-5.2,12.4-5.2,20.7c-0.2,30,16.3,71.9,0.7,99.7
	c-11.2,20-35,7-50.7,19.4C108.3,720.2,108.5,753.1,94.5,758.3z M249.1,884c-25.6-11.9-32.9-33.4-49-53.9
	c-15.1-19.2-40.2-27.7-53.8-48.6c-8-12.1-15.6-40.4,0.3-50.5c11.2-7.2,17.4,4.6,22.3,13.5c8.8,16.1,14.2,32.4,31.6,41.4
	c33.4,17.4,86.8,16.5,92.4,64.5l18.4,31.6C293.1,896,268.9,893.3,249.1,884z M334.8,837.4c-14,0.2-12.2-20.7-16.1-31.3
	c-3.4-9.3-7-15.6-15.5-20.9c-8-4.7-20.7-2.1-25.6-11.1c-5.9-10.9,8-47.1,21.3-47.6v0c13.2-0.5,15.3,19.2,18.9,28
	c9.6,23.3,29.8,24.8,31.1,50.5C349.4,815.7,352.2,837.2,334.8,837.4z M347.5,753.9c-8.1-10.1-15.1-29-19.9-41.4
	c-10.1-26.7-21.2-65.4-8.5-93.2c6.8-15,10.4-16.8,26.1-11.4c12.1,4.1,18.4,7.7,33.1,8.3c8.8,26.2-31.6,29-37.1,48.6
	c-3.9,13.9,8.3,36.7,15.5,47.8c6.2,9.8,23.9,25.9,20.9,39.4C373.5,769.4,354,762.1,347.5,753.9z M361.8,687.9
	c-3.6-0.7,0.7-38.1,14.7-24.6C384.9,671.3,372.4,690.2,361.8,687.9z M391.4,848.5l-21.3-2.4c-2-14.8,4.9-28,11.4-40.1
	c7.2-12.9,8.5-17.3,11.6-32.1c14-0.3,15.8,5.9,18.9,15.8c1.3,3.9-1.3,9.3-0.2,12.9c2.3,6.7,9.4,8.5,11.9,14
	C436.4,845,412.9,848.1,391.4,848.5z M457.7,758.7L457.7,758.7c-11.4,9.1-2,37.5-2.1,37.5c-11.6,6-22-23.1-26.9-30.6
	c-22.6-35.2-50.2-97-21.5-136.6c7.5-10.3,18.4-12.2,24.3,0.5c7.2,15.5-0.3,35.7,5.2,52.2c7.8,23.5,30.6,33.2,45.9,50.8
	c5.5,6.2,17.6,27.4,1.6,28.8C473.5,762.2,469.6,749.2,457.7,758.7z M641,812.9c-13.7,4.4-26.6,9.3-39.4,15.8
	c-23,11.7-47.6,19.7-73.5,14.8c-23.5-4.1-36.5-16.9-47.1-38.5l0,0c-2.3-4.6-16.9-17.3-11.2-23.8c6.8-8.6,21.5,12.9,27.2,8.3
	c4.4-3.4,4.9-11.2,9.6-13.9c7-3.7,17.4,5.9,23,9.1c14.8,9,30.8,16.5,48.2,17.8c15.5,1.1,29-3.9,43.8-6.8c8.6-1.6,22.2-2.6,28.7,4.9
	C656.8,808,647.3,811,641,812.9z M659.9,760.8L659.9,760.8c-23,0-40.1-15-31.4-22.8c12.2-10.9,74.8-3.1,83.1-1.3
	c13.4,2.9,27,1.8,40.6,1.3c7.8-0.3,75.4-1.8,57.5,19.9c-14.2,17.3-50.3,2.8-67.4-0.8C714.8,751.3,682.9,760.8,659.9,760.8
	L659.9,760.8L659.9,760.8z M779.8,846c-17.1,6.7-28.8,19.6-48.1,22.3c-20.5,2.9-38.9-3.9-54.6-16.9c-22.6-18.9-16.5-39,14.2-36v0
	c21.8,2.1,44.6,14,66.3,10.9c14.8-2.1,42.7-17.1,56.4-5.1C834.7,839.5,786.6,843.2,779.8,846z M900,832.8
	c-13.7,8.1-51.2,19.4-63.4,4.9l-5.5-4.6c24.6,9.3,54.4-15.5,72.8-28c14.8-10.3,22-20.4,32.1-33.9c11.7-15.5,26.1-12.5,42.4-17.4
	c6.8-2,11.1-6.5,17.9-8.1c7.5-1.6,16.9,0,24.4,0c17.8-0.2,30.1-4.1,46.6-7.3c6.8,22.5-37.1,25.9-52.5,26.6
	c-13.5,0.5-39.6,1.6-50.5,8c-6.8,4.1-11.7,14.7-16.9,20.5C934.2,808.2,916.8,822.9,900,832.8z M1065.2,825.2
	c-28.8,4.1-40.6,8.5-59.3,30.3c-11.7,13.7-27.4,21.7-45.9,20c-13.5-1.3-11.2-8.5-12.4-23l4.6-11.6c22.3-33.4,47.9-38.3,85.4-41.1
	c14.3-1.1,97.1-50.4,88.1-6.8C1120.7,816.8,1084.1,822.5,1065.2,825.2z M1182.1,813.6c-18.4,30.3-16.6,63.7-58.3,66.2l-2.4-8.6
	c10.8-19.2,24.9-39.4,29.8-61.1c2.4-11.1-2.4-25.6,8.6-31.6c15.6-8.6,30.5,1.6,43.7-15.8c11.9-15.6,18.7-53.6,44-54.1
	c33.7-0.7,8.3,46.9-2.6,57.5C1226.1,784.2,1196.2,790.6,1182.1,813.6z M1307.1,849.4c-10.3,11.7-32.1,27.7-41.5,6.7l-45.1,21
	c-0.8-30.6,6.2-53,30.9-72.2c15.3-11.9,48.5-24,49.2-46.9c0.3-13.4-16.6-28.5-6.2-40.7c12.9-14.8,44.2-10.1,60.4-22.3
	c20.2-15.2,13.7-39.6,17.9-61.1c4.2-21.7,20.2-17.9,25.7,1.6c17.4,61-69.9,72-69.6,124C1329.1,792.1,1330,823,1307.1,849.4z
	 M1390.2,841.3c-3.4,11.7-11.4,21.2-15.2,32.8l-26.6-18.7c-1.3,1.1-3.9,2.3-5.4,3.4c-0.5-9.5,20-105.9,47.6-72
	C1398.5,796.3,1393.6,829.7,1390.2,841.3z"/>
</svg>
