<svg fill="none" height="906" viewBox="0 0 1440 906" width="1440" xmlns="http://www.w3.org/2000/svg"><g fill="#000"><path d="m452.525 662.182c.652 34.387 143.023 153.192 180.326 106.582-29.973-21.512-66.95-20.045-97.086-43.35-25.9-20.045-43.982-43.186-72.163-59.157"/><path d="m562.48 565.541c-2.444 42.047 45.285 99.249 83.402 112.612 17.267 6.03 85.521 17.764 94.969-6.844-28.018 1.466-77.213-16.949-99.041-31.616-17.43-11.734-50.009-69.588-66.136-68.774"/><path d="m646.372 542.4c-.815 45.631 51.638 58.995 104.579 49.054-21.991-31.617-86.987-12.875-104.579-49.054z"/><path d="m778.642 610.684c91.548-9.941 112.887-82.3 114.516-161.666-4.235-8.311 11.077-11.896 15.638.163 23.783 63.884-47.891 194.912-151.33 179.919-.163.162-34.86-12.223 21.176-18.416z"/><path d="m810.897 383.994c-17.267 17.763 12.868 38.623 17.267 58.343 5.864 25.912-3.421 53.128-3.421 79.203 54.244 4.889 37.629-129.398-13.846-137.546z"/><path d="m676.996 499.539c-2.281 51.661 108 72.684 127.222 29.66-.163-.978-.652-1.792-1.141-2.607-25.737-.978-50.335 16.949-77.05 7.822-18.081-6.193-27.692-26.238-45.447-32.268"/><path d="m487.71 586.564c9.286-52.802 43.82 43.187 64.67 65.025 25.086 26.238 68.254 46.284 100.344 63.558-58.968 8.964-177.719-56.876-165.014-128.583z"/><path d="m396.489 392.794c-44.47 36.179-54.244 197.193 20.688 209.416 5.538-33.898-24.272-65.188-30.136-98.271-6.19-34.549 30.787-89.307 15.801-111.145z"/><path d="m674.063 780.009c8.308-25.423 80.308-.163 100.833.815 45.448 2.119 76.235-19.882 104.742-54.106 12.869-15.482 30.462-56.713 55.711-48.891 8.47 38.787-35.675 78.715-61.575 100.879-39.095 33.571-94.48 26.075-144.652 17.763.326-3.096 0 2.771 0 0-16.615-.978-41.05.489-52.452-12.385z"/><path d="m636.76 520.399c-17.266-22.49-28.506-43.35-24.597-72.196 2.118-15.971 4.236-36.668 17.267-47.913 6.353-5.54 38.118-21.023 40.398-6.844 1.141 7.007-14.172 21.838-17.592 27.216-7.982 12.385-14.661 25.912-14.987 41.068-.651 24.119 23.294 63.558 23.131 62.906-5.375 4.4-23.62-4.237-23.62-4.237z"/><path d="m733.684 499.865c19.873 2.118 40.561-5.215 46.262-26.401 5.213-19.068-2.932-31.942-8.47-49.054 15.312-10.104 32.579 28.52 32.742 37.972 0 24.119-9.285 48.565-35.675 51.824-8.47.978-32.905-3.585-37.303-12.549z"/><path d="m703.711 403.061c7.494-4.237 27.041-8.474 26.227 4.889-.815 13.201-27.693 23.468-32.579 37.157-4.073 11.408 8.959 37.646.814 45.143-7.33 6.844-18.896-2.934-21.339-9.453-3.258-8.8 1.303-19.23 2.769-27.867 3.258-18.416 5.701-39.439 24.108-49.869z"/><path d="m696.869 369.163c14.009-.652 28.507-1.303 42.19 2.445 10.588 2.77 18.407 9.452 28.181 13.363 17.756 7.171 15.638-10.267 7.493-22.163-19.873-28.846-59.783-14.016-81.285 4.563z"/><path d="m524.037 377.964c1.629 39.601-12.706 81.81-7.331 121.575 2.77 20.371 19.711 37.32 19.548 57.691-35.348-3.911-43.493-54.432-47.891-83.277-5.539-36.343 3.095-74.64 35.674-95.989z"/><path d="m530.552 356.289c8.959.163 20.851-7.334 26.389-.326 5.376 6.844 0 27.216 1.303 36.016 12.38 7.008 18.733-42.046 28.018-60.951 9.123-18.904 35.675-27.867 47.077-39.112 8.634-8.638 21.34-10.43 18.57-18.905-35.185-10.104-54.895 7.334-80.796 28.357-4.887 3.748-77.376 54.106-40.561 54.921z"/><path d="m791.023 334.451c57.177 25.912 72.815 99.411 84.38 103.159 15.15-7.007 3.258-60.135-58.316-122.227-8.308-8.474-41.213-25.423-50.987-9.778-8.959 14.505 16.127 24.772 24.923 28.846z"/><path d="m852.76 288.168c-26.715 18.252 20.036 53.616 29.973 67.469 15.475 21.675 26.878 46.772 29.973 73.336 16.778 0 2.769-50.846-8.145-74.151-7.982-17.112-26.878-52.15-43.33-63.069z"/><path d="m930.951 529.199c-6.027 10.919-25.901 26.075-28.181 37.646-4.561 23.305 20.362 7.334 31.439-2.933 17.593-16.297 35.023-44.654 37.955-68.61 1.303-11.408-3.91-42.046-20.362-30.965-10.426 7.171-13.684 52.151-20.851 64.862z"/><path d="m455.295 623.396c-19.222-38.95-37.303-68.448-38.607-113.264 10.426 7.985 6.353 26.401 19.059 27.216 19.222 1.141 17.267-29.172 28.507-38.135 15.149 19.719-5.864 69.099-4.724 94.359.652 14.341 2.932 27.216 11.24 39.602z"/><path d="m1011.42 467.76c-11.565 25.423-13.682 53.943-24.108 79.855-6.027 15.156-14.66 28.845-27.529 38.95-9.611 7.659-21.177 12.222-30.625 19.882-20.85 16.949-1.954 26.238 17.267 19.393 36.326-12.874 71.025-46.283 84.385-82.299 7.33-19.557 12.54-55.247-8.48-69.099z"/><path d="m1029.99 379.43c-1.95 12.712-8.47 19.394-12.7 30.313-5.05 13.037 5.53 33.245 15.96 41.231 23.13 17.764 14.33-37.809 15.15-47.913 2.93-43.676 23.29-86.211 5.21-129.235-3.09-7.333-22.48-44.002-33.23-28.356-4.56 6.681 3.26 23.793 4.89 30.475 3.74 15.645 5.7 31.453 6.35 47.424.65 18.415 1.14 37.972-1.63 56.061z"/><path d="m894.788 162.029c-4.887 10.267 1.303 20.045 10.751 24.446 19.384 9.126 35.023 13.2 51.149 27.867 11.566 10.43 16.941 22.653 33.068 24.446 1.955-12.223-4.072-20.86-10.914-30.801-8.959-13.201-16.941-27.216-29.484-37.32-14.498-11.571-28.181-14.179-46.1-13.527z"/><path d="m849.014 40.6169c23.131 13.3635 42.027 38.9497 47.565 65.1881 2.77 12.874-.814 23.63 13.195 29.334 9.448 3.911 19.71 6.03 29.321 9.289 12.543 4.401 22.317 12.06 32.742 20.046 5.376 4.237 16.453 18.415 23.62 17.6 2.769-13.2-17.918-37.483-28.018-43.512-17.919-10.756-42.19-10.593-53.104-30.965-10.425-19.393-11.077-42.2087-30.136-55.7352-11.077-7.8225-18.244-14.8302-32.253-15.4821z"/><path d="m1028.85 197.719c-5.54-1.792-13.68 6.193-11.89 12.875 2.28 8.311 24.6 19.393 30.95 24.771 12.54 10.593 26.88 23.468 33.23 38.95 4.56 10.919 2.28 21.186 1.47 32.431-.66 8.637-2.61 28.52 3.91 35.69 7.33 7.823 8.63-4.889 9.93-11.896 5.7-29.335 8.31-62.092-10.91-86.863-11.57-14.83-34.37-28.194-51.8-38.461-1.79-1.467-2.77-6.845-4.89-7.497z"/><path d="m1081.63 378.453c2.44 22.163 7.82 51.009-4.89 71.217-6.19 9.778-19.87 13.853-24.43 24.12-4.73 10.593 1.14 26.727 1.3 37.809.33 16.623-4.72 33.082-4.07 49.542.32 11.082 5.7 16.46 12.7 5.215 9.29-14.667 7.99-35.853 8.48-52.313.48-15.482 2.6-27.379 10.91-40.579 9.45-14.83 17.75-28.846 21.18-46.447 4.56-24.119 0-43.023-12.55-63.069z"/><path d="m741.339 485.035c6.679-1.63 24.598-14.179 13.521-21.023-6.516-3.912-13.521 3.422-18.407-4.727-3.584-6.029-3.258-11.407-12.543-6.192-14.824 8.311 2.443 35.527 17.429 31.942z"/><path d="m996.271 130.902c7.169 10.43 2.932 20.697 6.679 31.779 4.07 12.06 13.85 14.83 25.09 17.275 11.07 2.444 70.37 30.475 67.43 10.43-2.28-16.134-37.46-30.475-49.19-37.972-15.64-9.941-25.09-20.045-33.07-36.668-8.63-17.9268-18.894-36.9942-32.74-51.3355-8.959-9.2893-32.742-26.89-38.28-5.2151-7.656 29.0086 40.235 51.4986 54.081 71.7066z"/><path d="m1110.79 243.84c5.7 23.956 18.08 47.913 14.01 73.173-1.96 12.223-10.92 22.653-10.92 35.038.17 17.438 5.54 34.061 4.73 52.151-.49 9.452-8.8 52.15 5.37 55.409 16.46 3.749 23.95-39.275 24.6-48.402 1.63-21.186-4.07-41.883-2.28-63.069 1.63-19.556 7.82-38.786 4.56-58.506-2.44-15.482-9.94-28.519-9.94-44.49 0-12.386 1.47-36.994-17.75-33.735-16.29 2.607-15.31 20.371-12.38 32.431z"/><path d="m1121.21 495.954c-38.77-3.097-23.45 41.394-29.48 65.187-6.19 24.12-30.79 30.15-49.03 41.72-22.97 14.668-8.8 38.624-10.92 61.603-1.95 19.882-13.03 37.972-11.73 58.017 36.66 13.689 35.68-53.291 36.82-74.64 1.79-29.986 18.89-38.461 38.93-56.224 20.53-18.253 14.01-38.461 23.13-61.603 4.89-12.385 12.55-18.415 12.06-32.431z"/><path d="m763.819 655.664c-.978 11.081 34.208 8.8 46.099 8.963 17.919.163 35.512-.815 50.824-11.245 10.262-7.008 15.638-18.579 24.597-26.89 7.168-6.682 21.34-11.734 19.711-23.794-10.1-.325-16.616.652-16.942-11.081-11.565-2.608-18.896 19.882-24.923 26.564-4.887 5.378-9.773 13.363-15.149 17.926-9.122 7.66-23.946 7.334-35.186 8.149-9.936.652-47.891.326-49.031 11.408z"/><path d="m870.027 671.798c-8.796 9.615-20.525 16.622-33.394 19.23-13.52 2.77-32.905 2.607-46.588.652-12.054-1.63-22.968-7.171-35.674-6.356-8.308 5.378-13.846 12.386-23.946 13.689-8.633 1.141-29.647-6.518-34.697 3.749-12.868 26.238 55.222 15.319 62.227 14.667 36.326-4.074 71.022 16.949 105.556-7.334 20.525-14.341 16.453-49.216 44.308-51.824 5.05-.489 14.498 1.956 17.267-4.237 3.747-8.475-8.634-13.201-14.824-13.364-20.362-.326-28.832 18.579-40.235 31.128z"/><path d="m1005.72 611.336c-7.494-6.193-15.476 17.601-25.575 24.119-6.679 4.238-15.312 7.171-17.593 15.645-2.118 7.986 3.747 17.764 4.561 25.587 1.303 10.593-2.117 18.904-5.05 28.845-1.791 5.867-6.515 18.416.489 22.816 7.819 4.889 13.846-5.867 15.964-11.734 7.656-21.186-2.444-42.372 9.448-62.906 6.516-10.919 25.246-36.016 17.756-42.372z"/><path d="m659.892 760.779c22.968 0 54.896-9.452 82.262-3.748 17.105 3.585 53.267 18.089 67.439.814 17.919-21.675-49.683-20.208-57.502-19.882-13.52.489-27.203 1.63-40.561-1.304-8.308-1.792-70.86-9.615-83.077 1.304-8.633 7.823 8.471 22.816 31.439 22.816z"/><path d="m575.185 404.039c-12.054 8.963-28.018 13.852-37.954 25.586-18.245 21.675.162 47.75 4.235 71.055 2.932 16.785 0 37.483 19.547 44.49 7.168 2.608 14.498 2.282 21.666 5.704 7.33 3.423 15.963 13.201 24.108 13.853 23.457 1.955-14.823-36.343-19.873-41.232-20.036-19.23-24.597-41.394-26.063-68.61-1.304-23.956 6.352-24.771 25.574-33.571 11.566-5.378 19.711-13.69 26.063-24.609 5.213-8.963 12.706-22.327 8.634-32.92-5.701-15.319-16.941-8.8-20.688 2.119-5.375 15.156-11.565 28.194-25.249 38.135z"/><path d="m582.842 481.775c5.05 8.964 12.055 16.46 17.919 25.098 4.235 6.355 7.33 15.319 14.172 19.393 5.538-18.742-15.475-28.357-17.267-45.957-1.14-10.268 8.633-39.113-9.937-37.321-19.71 1.63-10.588 28.683-4.887 38.787z"/><path d="m738.082 638.389c-5.213-9.289-21.502-14.993-30.624-18.905-11.566-4.889-23.458-7.496-35.675-10.593-10.914-2.77-21.013-6.681-30.461-13.037-3.747-2.608-7.982-7.66-11.077-2.282-4.398 7.497 7.656 18.416 12.38 22.001 11.24 8.637 24.923 13.852 38.118 18.905 11.565 4.4 21.176 13.852 32.742 17.763 7.656 2.608 32.09 0 24.597-13.852z"/><path d="m770.824 573.364c-.163 1.63-1.792 11.734-1.141 13.038 3.421 8.637 23.457-1.141 29.485-2.934 15.149-4.4 28.018-7.333 39.094-19.23 4.724-5.052 20.525-18.416 12.706-25.586-10.262-9.29-28.506 7.659-35.674 13.526-11.728 9.615-42.353 2.607-44.47 21.186z"/><path d="m802.263 194.786c-17.267 2.608-33.394 11.734-48.869 19.23-8.145 3.912-17.43 10.431-27.041 7.823-7.982-2.282-16.29-12.223-11.891-20.534 4.887-9.615 22.968-9.126 31.927-11.571 15.964-4.237 30.136-12.875 46.426-16.297 28.343-6.03 50.986 3.422 77.375 10.919 10.426 2.933 28.996 8.148 13.683 17.438-6.352 3.748-14.823 4.237-21.828 6.519-9.285 3.096-7.004 4.563-16.615-1.141-13.52-8.312-27.204-14.668-43.167-12.386z"/><path d="m598.806 251.336c-21.176 5.867-33.231 19.883-47.565 35.528-7.494 8.148-18.571 16.297-21.829.163-3.583-18.09 16.453-32.431 29.648-39.928 21.99-12.548 55.221-35.853 81.61-28.194 8.634 2.608 15.964 6.845 24.924 7.823 6.841.815 13.846-1.467 19.873 3.748 14.172 12.386-6.679 18.416-16.941 19.72-23.62 2.77-45.774-5.541-69.72 1.14z"/><path d="m615.258 188.756c19.548 1.956 39.91 15.645 59.62 13.853 11.403-1.141 15.801-9.942 25.086-14.994 14.009-7.496 31.928-5.704 46.751-11.408 15.475-5.866 14.987-14.504-1.792-16.948-19.384-2.934-38.28 3.911-56.524 8.963-50.172 14.015-105.557-6.682-154.752 12.386-10.751 4.074-24.597 13.037-26.877 25.26-2.607 13.363 9.285 22.327 21.665 18.252 12.706-4.237 22.479-18.252 34.534-24.445 15.149-7.985 35.022-12.712 52.289-10.919z"/><path d="m491.295 345.37c-.815 19.23-4.399 32.431-14.498 49.217-11.892 19.882-24.597 38.623-27.204 62.254-.977 8.963 3.747 35.201-5.212 41.231-20.037 13.69-14.172-69.751-13.195-78.062 1.792-16.134 7.493-28.031 15.149-42.046 8.96-16.623 12.706-33.246 17.267-51.336 4.073-17.112 12.055-32.92 32.091-32.92 14.661.163 21.502 9.942 12.38 21.186-8.471 10.594-16.127 15.809-16.778 30.476z"/><path d="m501.72 251.173c6.027 11.571-12.38 21.023-20.036 25.587-14.172 8.311-32.254 14.667-39.91 30.312-7.004 14.341-2.932 31.453-8.145 46.283-4.072 11.408-15.963 26.238-29.972 22.164-14.335-4.237-11.24-21.349-7.982-32.431 7.819-25.912 22.154-53.617 39.42-74.477 8.308-9.941 17.267-23.467 30.951-25.749 9.122-1.467 30.95-.815 35.674 8.311z"/><path d="m457.737 758.66c11.891-9.452 15.801 3.586 26.552 2.608 15.964-1.467 3.91-22.653-1.629-28.846-15.312-17.601-38.118-27.379-45.937-50.846-5.538-16.46 1.955-36.668-5.212-52.151-5.864-12.711-16.778-10.756-24.272-.488-28.669 39.601-1.14 101.367 21.503 136.568 4.886 7.497 15.312 36.668 26.877 30.638.163 0-9.285-28.356 2.118-37.483z"/><path d="m659.077 304.627c-6.842 3.749-13.195 8.801-19.385 13.527-4.561 3.422-15.638 9.126-16.615 15.482-1.792 10.593 17.593 13.852 16.941 26.075-.488 8.8-6.027 18.253 8.959 17.764 15.313-.326 23.783-21.512 29.973-32.92 6.19-11.571 10.589-17.601 23.946-19.719 11.077-1.793 18.57 1.955 29.158 3.422 8.96 1.304 18.245.326 13.684-9.289-1.792-3.749-3.584-5.215-4.073-9.615-.488-4.238.815-8.149-1.303-12.223-6.19-12.386-22.317-7.497-32.742-5.052-16.452 3.748-33.557 4.563-48.543 12.548z"/><path d="m885.991 283.93c18.733 23.468 37.14 44.165 46.263 73.011 5.049 16.297 5.538 33.897 6.515 50.683.815 14.504-2.606 30.149-.977 44.165 11.077-.489 11.24-9.615 23.131-6.193 26.064 7.497 7.656-13.201 3.421-25.912-6.353-18.905-2.281-40.417-3.421-59.973-.814-15.482-3.746-30.475-9.936-44.817-9.123-21.349-34.534-32.267-39.584-54.431-2.444-10.593-8.959-45.469-26.878-29.498-13.683 12.386-8.796 40.091 1.466 52.965z"/><path d="m620.308 148.34c-26.552-2.445-54.896-6.356-81.122.326-20.688 5.378-33.557 19.067-49.846 31.616-7.331 5.704-22.48 14.341-29.322 2.933-6.027-9.941 6.842-18.741 13.521-23.793 27.692-21.023 55.873-41.069 92.362-36.017 17.43 2.445 34.371 6.519 51.638 8.638 5.538.652 12.054 2.444 12.543 9.126.651 8.963-9.774 7.171-9.774 7.171z"/><path d="m662.009 145.569c2.443 3.912 19.71 3.586 23.946 3.26 24.108-1.63 47.728-17.112 71.511-7.497 13.357 5.378 28.344 21.838 43.493 13.201 6.842-3.912 18.245-10.105 16.29-19.557-17.593-7.496-37.629.163-54.733-9.941-11.403-6.682-21.828-8.637-35.023-8.637-8.145 0-16.615 1.629-24.76.489-8.633-1.141-16.127-5.704-24.109-9.127-5.375-2.281-21.339-9.1259-27.529-4.237-6.027 4.726 1.14 11.734 5.213 14.667 4.561 3.423 12.217 5.867 13.194 11.734 1.303 7.008-9.774 12.06-7.493 15.645z"/><path d="m813.665 108.086c-15.312-2.118-29.81 1.304-44.633-4.237-17.43-6.5187-33.72-13.6894-51.964-18.7414-11.892-3.2594-43.005-9.2893-39.258-27.3789 8.633-41.8831 78.027 19.5563 92.362 24.6084 17.104 6.0299 36.326 4.2372 53.104 11.2449 11.891 4.8891 20.036 14.667 29.647 22.816 6.027 4.889 23.62 13.852 22.968 23.467-1.303 18.579-22.479 1.467-26.715-4.889-8.959-13.363-18.896-24.445-35.511-26.89z"/><path d="m967.439 291.264c16.778 25.586 5.212 45.468 4.235 73.01-.163 4.4-.977 14.342 5.213 12.386 6.353-1.956 11.402-22.327 13.194-27.542 9.285-27.216 9.448-49.706-5.864-74.477-6.353-10.267-10.588-21.023-20.851-28.194-6.353-4.4-18.081-8.963-21.991.652-6.19 14.993 19.059 33.246 26.064 44.165z"/><path d="m983.403 412.024c1.14 11.734 6.679 22.001 6.353 34.224-.163 9.778-1.792 19.556-1.955 29.334 7.656-.163 6.842-8.8 11.077-13.037 3.582-3.749 8.962-2.445 11.402-7.334 3.58-7.659-4.72-17.926-7.82-24.119-3.908-7.66-4.722-13.69-.98-21.512 5.05-10.267 13.2-18.742 16.13-30.15 1.63-6.355 3.58-30.638-6.51-31.616-7.34-.652-6.52 7.986-5.38 12.712 1.79 7.822 2.93 11.408-1.79 18.741-7.007 10.756-21.993 18.416-20.527 32.757z"/><path d="m831.096 833.137c24.597 9.29 54.407-15.482 72.814-28.03 14.824-10.268 21.991-20.372 32.091-33.898 11.728-15.482 26.063-12.549 42.353-17.438 6.841-1.955 11.077-6.519 17.918-8.148 7.498-1.63 16.938 0 24.438 0 17.75-.163 30.13-4.075 46.58-7.334 6.85 22.49-37.14 25.912-52.45 26.564-13.52.489-39.581 1.63-50.495 7.986-6.842 4.074-11.729 14.667-16.942 20.534-13.194 14.83-30.624 29.497-47.402 39.438-13.684 8.149-51.15 19.394-63.367 4.889z"/><path d="m952.126 840.96c22.317-33.409 47.894-38.298 85.354-41.069 14.34-1.14 97.09-50.357 88.13-6.844-4.89 23.793-41.54 29.497-60.43 32.105-28.84 4.074-40.56 8.474-59.3 30.312-11.726 13.69-27.364 21.675-45.934 20.045-13.521-1.303-11.24-8.474-12.381-22.978z"/><path d="m1090.43 694.287c-.82-10.593-3.43-23.793-.98-34.223 3.58-15.156 18.57-23.305 29.81-32.431 9.45-7.823 18.73-22.653 30.3-27.216 5.86-2.282 23.29-2.445 25.08 6.193 1.96 9.289-23.29 29.008-27.85 36.831-13.2 22.327-12.87 46.12-13.69 71.217-.48 11.897-16.61 46.284-33.72 35.854-7.16-4.4-3.09-17.112-3.09-23.794-.33-11.408-5.05-21.512-5.86-32.431z"/><path d="m1210.32 647.515c12.7-16.623 11.24-36.342 12.21-56.387.82-14.179-2.76-35.365 8.15-46.447 16.61-16.785 30.62-.977 33.88 16.786 4.73 25.423 3.91 60.951-9.12 83.929-10.1 17.927-29.48 28.52-43.17 43.676-13.84 15.319-24.43 33.083-37.46 49.054-7.99 9.941-11.57 11.734-18.09-.163-22.64-41.068 33.4-64.373 53.6-90.448z"/><path d="m1121.38 871.109c10.75-19.23 24.92-39.438 29.81-61.113 2.44-11.082-2.45-25.587 8.63-31.616 15.64-8.638 30.46 1.629 43.66-15.808 11.89-15.646 18.73-53.617 43.98-54.106 33.72-.652 8.31 46.935-2.61 57.528-18.73 18.252-48.7 24.608-62.71 47.587-18.41 30.312-16.62 63.721-58.32 66.165z"/><path d="m1308.87 568.964c-4.4-17.927-18.9-25.097-27.04-40.091-7.33-13.526-2.77-33.245-.98-47.587 1.96-16.623 4.07-55.409 21.02-65.35 19.05-11.082 15.14 23.956 13.84 33.734-3.58 27.379-10.26 52.476-.98 79.692 9.45 27.542 27.04 51.499 27.21 81.648.16 23.956-10.26 47.587-27.04 64.536-9.13 9.289-22.65 22.001-37.14 13.852-13.04-7.333-2.77-15.156 4.07-22.978 20.85-23.305 34.7-66.492 27.04-97.456z"/><path d="m1160.8 485.849c-10.27 32.268-39.42 74.477 3.58 94.523 47.08 21.838 38.44-44.491 35.67-69.751-5.21-47.098 18.9-91.426 18.74-138.361-.17-12.223-2.45-53.128-20.85-54.758-18.57-1.63-17.43 40.416-17.76 51.009-.98 29.172-.81 57.366-10.59 85.233-5.37 15.483-12.7 29.987-12.54 46.773z"/><path d="m1261.14 465.804c3.1-27.379-4.07-52.965 23.78-68.284 17.27-9.452 49.2-16.949 38.45-42.698-5.38-12.875-17.11-23.956-25.9-34.712-10.27-12.549-19.23-25.913-29-38.624-13.52-17.601-31.76-11.082-27.69 13.037 4.4 26.075 43 30.802 45.61 54.758 1.95 18.253-21.34 33.572-32.25 44.98-23.79 24.608-29.49 61.439-20.53 94.848 9.78 36.505 25.9-8.475 27.53-23.305z"/><path d="m1245.18 363.459c6.51 3.097 9.12-.163 11.4-5.378 0-.163.16-.326.16-.326 3.59-7.985 1.96-22.163-8.31-16.622-6.02 3.422-11.24 18.578-3.25 22.326z"/><path d="m1133.1 154.044c11.9 18.904 23.46 38.297 27.05 60.624 2.44 14.993.16 30.639 3.25 45.632 2.28 10.756 11.73 33.734 26.23 23.467 15.47-11.082 5.37-52.476 6.03-68.447 1.63-33.735-2.45-68.61-36.49-85.396-8.31-4.074-23.95-9.452-30.63.326-6.51 9.778 4.56 23.794 4.56 23.794z"/><path d="m741.99 434.025c-3.583 3.422.652 9.778 3.258 12.06 2.118 1.956 4.562 6.682 7.982 4.237 3.095-2.281 2.118-13.526.489-16.46-1.629-2.933-5.05-4.4-8.308-3.911z"/><path d="m704.362 390.349c3.584-.163 9.937.489 10.1-4.4.326-6.845-11.403-7.822-15.801-7.17-4.561.651-11.729 4.563-8.796 10.593 2.769 5.54 9.936 1.303 14.497.977z"/><path d="m543.584 389.209c4.724-4.075 2.769-20.209-4.724-14.179-4.887 3.749-3.584 21.186 4.724 14.179z"/><path d="m634.806 575.809c1.303 0 3.258-20.046-.815-21.838-9.448-3.749-14.172 21.349.815 21.838z"/><path d="m921.666 230.965c.489-.163.977-.489 1.466-.815 2.606-1.792 3.095-5.867 2.606-8.8-.977-6.519-9.936-10.593-14.497-4.726-4.562 5.867 3.095 17.275 10.425 14.341z"/><path d="m994.154-1.10325c-14.987 34.71245 13.036 52.47615 31.436 77.24755 6.36 8.6374 18.57 45.4687 33.23 45.4687 14.01 0 4.24-22.816.49-28.6829-8.79-13.8524-26.39-21.5119-31.27-37.8089-4.24-13.5265 2.44-29.6604-4.56-42.372-4.4-7.82257-13.69-12.222751-19.23-19.06747z"/><path d="m640.507 80.2185c-9.285 4.5632-15.312 12.8746-25.411 16.6229-27.367 10.1036-59.294-.9778-87.638 0-37.466 1.3037-61.575 22.4896-91.385 41.8836-14.498 9.452-43.493 20.534-42.516-7.823 1.141-32.7569 48.706-50.5205 74.281-59.4838 19.547-6.8448 39.583-8.4745 59.945-11.2449 21.829-3.0965 43.005-9.7782 64.996-12.2227 16.941-1.7927 47.24-2.1186 57.828 15.1561 9.774 15.808-15.964 17.1118-26.226 18.4156z"/><path d="m359.348 291.101c17.267-14.504 14.335-55.899 25.738-75.129 10.588-17.927 24.271-37.483 47.728-34.549 4.236 10.43-2.606 20.697-.977 31.127 5.539-.163 28.344-7.008 30.95 2.118 3.421 11.571-41.701 20.046-49.52 26.238-22.48 17.927-22.317 43.024-31.439 67.959-4.887 13.526-10.425 26.238-16.127 39.438-4.561 10.267-6.678 23.957-17.104 8.801-11.24-16.297-18.896-60.788-1.303-68.774 2.932-1.303 9.774 4.727 12.054 2.771z"/><path d="m481.032 805.107c-2.28-4.564-16.941-17.275-11.24-23.794 6.842-8.637 21.503 12.875 27.204 8.311 4.398-3.422 4.887-11.245 9.611-13.852 7.004-3.748 17.43 5.867 22.968 9.126 14.824 8.964 30.788 16.46 48.217 17.764 15.476 1.141 28.996-3.911 43.819-6.845 8.634-1.629 22.154-2.607 28.67 4.889 6.516 7.334-2.932 10.267-9.285 12.223-13.683 4.4-26.552 9.289-39.421 15.808-22.968 11.734-47.565 19.719-73.466 14.83-23.457-4.074-36.489-16.948-47.077-38.46z"/><path d="m691.33 815.374c-30.624-2.934-36.815 17.111-14.172 36.016 15.638 13.037 34.045 19.882 54.57 16.949 19.222-2.771 30.95-15.645 48.055-22.327 6.841-2.771 54.895-6.519 34.208-24.772-13.684-12.059-41.539 2.934-56.362 5.053-21.665 3.096-44.471-8.801-66.299-10.919z"/><path d="m323.837 524.636c3.421 21.023 3.258 51.336 19.711 66.655 14.335-2.119-5.865-69.914-6.679-82.952-1.14-16.46 0-36.179 4.398-51.824 3.095-11.408 12.054-24.771 7.656-36.668-2.606-7.171-23.131 5.378-25.086 7.822-5.375 6.356-7.004 20.535-7.819 28.52-2.117 22.979 4.073 46.12 7.819 68.447z"/><path d="m319.113 619.321c6.842-14.993 10.425-16.785 26.063-11.407 12.055 4.074 18.408 7.659 33.068 8.311 8.797 26.238-31.602 29.009-37.14 48.565-3.909 13.852 8.308 36.668 15.475 47.75 6.19 9.778 23.946 25.912 20.851 39.438-3.91 17.438-23.457 10.105-29.973 1.956-8.145-10.104-15.149-29.008-19.873-41.394-10.1-26.727-21.177-65.351-8.471-93.219z"/><path d="m361.792 687.931c10.589 2.282 23.131-16.622 14.661-24.608-14.009-13.526-18.244 23.957-14.661 24.608z"/><path d="m370.1 846.012c-1.954-14.83 4.887-28.031 11.403-40.091 7.167-12.874 8.471-17.274 11.566-32.105 14.009-.326 15.8 5.867 18.896 15.808 1.303 3.912-1.304 9.29-.163 12.875 2.28 6.682 9.448 8.474 11.891 14.015 12.706 28.52-10.751 31.616-32.253 31.942z"/><path d="m337.358 410.721c10.426-.652 34.045-2.608 28.67-19.231-4.561-14.178-30.136-8.474-40.072-16.134-17.267-13.526 8.307-99.574-28.182-90.285-23.782 6.03-16.126 68.121-16.941 84.744-1.14 27.868-11.891 49.543-19.059 75.781-4.072 14.504-14.171 55.573 2.444 67.143 25.249 17.275 22.317-47.587 24.597-58.343 5.702-26.89 20.688-41.883 48.543-43.675z"/><path d="m372.706 161.54c-3.421-20.045-9.936-29.66-2.117-48.891 2.769-7.007 10.588-9.778 7.493-18.7411-3.095-8.8003-17.756-11.2448-25.412-8.9633-27.041 7.9855-13.52 50.3574-22.805 70.5654-12.543 27.379-41.865 42.372-52.779 71.544-13.357 36.016 31.928 41.557 47.403 14.341 9.448-16.623 14.986-30.312 29.647-43.676 13.195-11.733 21.828-16.948 18.57-36.179z"/><path d="m416.688 71.4181c23.783-7.6595 35.186-37.9718 63.041-40.4164 11.728-.9778 20.688 7.0077 25.575-7.6595 6.027-17.7637-17.919-14.66728-30.625-13.2006-18.244 2.1186-25.737 9.9412-40.398 18.5786-14.335 8.4744-41.864 1.6297-49.846 18.4155-10.263 21.512 16.615 29.4975 32.253 24.2824z"/><path d="m358.045 32.6314c4.724 36.1792-38.117 32.9198-47.891 61.1136-7.004 20.208-4.561 83.766-39.584 79.04-8.47-18.415.815-27.542 4.073-45.468 3.421-19.231 2.117-39.7649 13.031-57.2026 7.657-12.3857 21.991-16.134 32.091-25.2603 7.004-6.3558 3.421-14.6672 17.756-12.2227z"/><path d="m230.497 249.055c0 18.252 11.729 11.897 15.964 24.934 3.584 10.919-12.706 28.683-17.43 37.972-6.678 12.875-10.425 24.445-10.751 38.95 29.159 18.904 60.435-65.188 44.797-87.352-12.706-18.09-14.009-8.474-3.747-29.171 3.747-7.497 6.027-30.15-7.004-29.335-10.263.652-21.829 35.853-21.829 44.002z"/><path d="m203.621 554.948c11.402 46.121 29.321 4.238 27.366-21.837-1.466-21.838-9.122-43.839-7.819-65.84.977-15.971 8.796-25.749 14.986-39.765 8.308-18.904-.162-71.054-17.267-30.312-19.71 47.098-29.809 107.56-17.266 157.754z"/><path d="m278.389 544.681c27.53-12.222 25.575 27.379 21.34 44.817-7.005 28.031 2.606 59.321-6.679 87.026-2.443 7.17-10.1 23.141-19.873 16.297-7.494-5.215-3.258-42.698-3.258-51.499 0-7.007 5.212-35.364-3.91-38.135-13.357-4.074-18.244 28.357-23.457 35.365-21.176-26.727 9.285-82.137 35.837-93.871z"/><path d="m298.914 726.555c13.194-.489 15.312 19.231 18.896 28.031 9.611 23.305 29.81 24.771 31.113 50.521.489 10.593 3.258 32.104-14.172 32.267-14.009.163-12.217-20.697-16.127-31.29-3.421-9.289-7.004-15.645-15.475-20.86-7.982-4.726-20.688-2.118-25.575-11.082-5.864-10.919 7.982-47.098 21.34-47.587z"/><path d="m244.833 666.094c-7.33-8.475-23.457-5.541-30.624-14.994-7.493-9.778.326-20.86-4.072-31.127-5.376-12.385-11.892-12.874-18.408-.489-8.47 15.971 1.629 43.839 5.865 59.647 5.049 18.905 7.981 39.928 14.823 58.18 6.516 17.438 38.281 36.342 43.656 10.593 2.444-11.734-7.004-25.097-8.47-36.505-1.466-12.386 6.516-34.712-2.77-45.305z"/><path d="m196.778 289.797c-7.33 22.164-27.041 30.801-23.62 57.365 1.792 13.69 16.778 47.75-10.262 45.795-16.942-31.453-13.847-63.395-3.91-95.826 9.611-31.616-3.746-64.373 6.516-96.967 7.167-22.49 18.081-41.72 44.47-43.839 19.059-1.467 34.372 13.69 13.684 23.142-14.824 6.845-25.086 3.585-30.625 22.49-7.982 28.519 13.195 59.321 3.747 87.84z"/><path d="m196.29 112.486c12.38.489 23.131 6.845 36.489 6.03 1.629-33.5714 22.805-58.0168 43.004-80.8325 14.498-16.4599.978-21.8379-19.059-24.9343-24.923-3.9113-44.959 1.1407-48.543 27.3788-4.886 35.2014-.162 38.9497-32.579 52.1503-10.262 4.2372-44.307 23.7937-37.466 38.6237 8.308 18.416 43.982-18.904 58.154-18.416z"/><path d="m764.96 35.4019c18.081 4.2372 31.276 22.8157 46.914 32.5939 9.122 5.7039 32.253 18.5785 42.027 16.6229 2.281-11.7338 1.955-12.0598-4.887-20.6971-7.167-9.1263-14.986-17.9267-22.154-27.2159-7.656-9.6152-17.918-15.3192-30.461-10.919z"/><path d="m868.562 101.568c-9.611 26.401 28.832-6.1933 3.583-4.8896z"/><path d="m712.181 265.189c10.263 2.77 31.276 1.793 38.118 11.245 4.724 6.519 1.466 8.963 12.38 8.963 12.054 0 25.086-4.726 36.977-1.304 7.331 2.119 12.706 9.127 20.525 9.941 7.493.652 14.498-4.237 11.077-12.059-9.122-20.697-52.126-11.897-69.393-22.001-8.96-5.378-17.267-14.993-28.344-15.319-9.448-.163-20.199.489-27.53 7.17-7.33 6.845-2.769 10.919 6.19 13.364z"/><path d="m773.267 235.528c6.027 8.964 26.552 4.075 35.348 4.889 16.29 1.793 22.969 9.453 34.86 18.579 7.005 5.378 13.032 4.889 14.824-4.4.977-4.889 2.117-15.482 1.466-20.534-.815-7.823-7.168-7.823-14.172-7.66-10.751.163-20.851 2.771-31.439-.326-8.145-2.444-18.082-5.378-26.715-5.215-7.168.326-20.362 5.541-14.172 14.667z"/><path d="m993.991 720.199c2.606 2.771 5.864.978 7.979-1.303.33-.326.65-.652.82-.978 2.93-3.748 6.35-15.319-.82-14.341-5.21.814-12.051 12.222-7.979 16.622z"/><path d="m1081.3 43.3874c-6.51 10.1041-.65 19.8823 3.59 29.6604 5.86 13.5265 10.59 26.727 6.51 41.3942-2.28 8.474-9.12 16.949-5.7 26.238 3.75 10.267 13.52 10.919 20.2 3.26 8.15-9.453 5.38-24.609 12.71-34.876 8.79-12.0597 23.29-15.645 28.5-31.1271 5.71-16.9488-.16-40.4164-12.7-52.965-11.73-11.7338-25.58-7.9855-39.42-2.6076z"/><path d="m1112.42 178.326c-2.77 11.734 5.7 24.771 12.87 9.778 3.74-7.985-.17-22.815-11.57-18.578z"/><path d="m1191.09 34.587c-12.38 8.1485-27.36 19.2304-24.27 36.1793 3.59 18.9044 27.21 31.9417 38.45 46.2837 24.59 31.127 27.2 67.958 18.4 104.626-2.11 8.637-9.12 34.061 6.68 32.757 15.64-1.304 29.81-31.616 35.03-43.35 10.09-22.164 13.52-46.609 3.74-69.425-10.91-25.423-33.72-38.461-50.82-58.669-12.22-14.5043-4.24-24.1195-7.49-39.7646-1.47-6.8447-5.87-10.756-12.22-13.3635z"/><path d="m1289.81 235.691c-6.68 18.09 8.47 35.202 20.36 46.61 8.15 7.985 16.46 15.319 22.65 25.097 3.9 6.193 6.67 17.275 13.52 21.023 5.37 2.933 13.84 1.304 18.4-2.608 7.98-6.844 4.73-15.319.49-23.467-8.31-15.645-34.86-33.735-29.65-53.128 5.71-21.675 33.89-38.135 30.79-62.58-2.28-17.601-59.29-86.211-64.67-43.676-1.3 10.593 1.14 20.86 6.19 30.149 4.4 7.986 15.64 16.786 17.43 25.749 3.1 14.993-29.81 21.186-35.51 36.831z"/><path d="m1389.5 324.347c-4.88 14.667-6.51 30.801-16.94 42.209-6.84 7.333-19.38 10.593-23.94 19.882-5.22 10.756.81 26.238 2.93 36.994 3.09 16.297 3.74 30.964-1.96 46.609-5.05 14.016-11.89 25.75-11.07 41.395 1.14 21.023 12.38 43.675 27.04 58.506 40.72 40.742 39.58-39.602 37.46-62.744-1.63-18.089-4.56-36.342-10.75-53.454-3.91-10.593-11.24-21.512-11.4-33.082-.49-30.313 38.77-54.758 50.01-81.322 11.73-27.868 4.4-56.388-17.43-76.596-10.1-9.289-28.35-23.304-42.68-14.83-33.23 19.882 23.46 44.002 18.57 64.536v11.897z"/><path d="m1220.42 877.139c-.82-30.638 6.19-52.965 30.95-72.195 15.31-11.897 48.54-23.957 49.19-46.936.33-13.363-16.61-28.519-6.19-40.742 12.87-14.83 44.15-10.104 60.44-22.327 20.2-15.156 13.68-39.601 17.91-61.113 4.24-21.675 20.2-17.927 25.74 1.629 17.43 60.951-69.88 72.033-69.55 124.02.16 32.594 1.14 63.558-21.83 89.959-10.26 11.734-32.09 27.705-41.54 6.682z"/><path d="m1420.13 601.558c14.49 16.297 25.9 50.683 21.99 72.358-3.26 18.416-26.07 33.083-37.31 47.75-6.35 8.149-26.55 28.357-14 39.113 15.96 13.689 53.75-23.794 62.71-34.713 22.64-27.216 23.95-83.114 13.68-116.523-7.49-24.282-26.71-25.26-47.89-19.393z"/><path d="m1348.45 855.301c-1.3 1.141-3.91 2.282-5.37 3.423-.49-9.453 20.03-105.931 47.56-72.033 7.82 9.615 2.93 43.024-.49 54.595-3.42 11.734-11.4 21.186-15.15 32.757z"/><path d="m1429.9 476.071c-3.58-19.067-12.22-38.461-3.58-57.528 4.4-9.615 12.7-16.786 18.24-25.586 6.19-10.104 7.49-21.023 11.73-31.779 9.12-22.816 40.56-26.727 29.97 3.585-5.86 16.949-19.54 30.312-26.22 46.935-7.66 19.068-4.89 36.831 2.44 55.41 7.98 20.045 14.82 46.12 30.14 61.765 20.85 21.186 48.7 43.676 37.62 77.085-6.02 18.252-22.48 38.787-35.02 15.319-6.68-12.549-10.1-27.053-18.41-38.624-10.26-14.667-25.08-11.571-37.14-21.675-9.77-7.985-4.07-19.393-3.09-30.149 1.79-18.09-3.42-36.994-6.68-54.758z"/><path d="m1467.69 298.598c-2.11-21.349-8.63-66.329-31.76-75.455-20.04-7.986-45.45 6.03-49.68-21.675-1.47-9.615 2.76-19.068 2.6-28.52-.32-12.549-6.03-19.556-13.68-29.008-10.43-12.712-22.97-27.868-40.89-27.542 3.91-9.778 3.58-18.7418 14.66-23.1419 17.59-6.8448 31.6 8.3119 40.56 21.3489 11.57 16.623 13.69 35.364 21.34 53.617 10.59 25.26 21.34 22.49 45.78 27.379 28.99 5.704 37.95 16.949 38.11 45.142 0 19.557 4.24 38.787 7.01 58.18 2.77 19.72 3.42 32.105-20.04 31.779-12.38-.162-16.61-5.866-14.98-18.252z"/><path d="m1247.78 10.1416c-7.82 24.4455-11.07 41.5573 9.13 59.3209 11.89 10.4301 17.1 28.8456 35.67 29.8234 24.6 1.1411 28.18-44.0017 30.79-62.5802 3.58-25.9122-21.51-62.5803-49.69-44.9796z"/><path d="m1364.58 33.4463c-7.33 7.1706-18.41 16.4599-13.52 27.7048 5.37 12.0597 28.83 18.9044 39.26 24.9343 14.66 8.4744 28.5 18.7416 35.67 34.5496 5.54 12.386 5.38 27.379 13.52 38.624 15.48 21.186 83.57 23.467 83.89-11.245.17-15.645-21.5-24.772-32.74-31.453-14.66-8.801-26.06-17.2751-34.04-32.9201-9.13-17.9267-14.5-36.9941-29.81-51.1724-14.83-13.6895-33.4-17.6007-52.78-19.3934z"/><path d="m1551.1 633.337c-9.29 25.586-29.33 24.934-48.22 39.438-18.08 14.016-20.69 38.298-28.83 58.343-10.76 25.75-26.23 49.38-30.79 77.411-1.63 10.593-5.87 34.549 9.94 35.201 19.22.815 31.6-43.187 35.67-55.083 9.94-30.15 12.22-71.707 33.56-96.641 12.86-14.993 31.92-22.653 44.3-38.624 13.36-16.949 26.39-49.054 20.04-70.729-3.26-11.408-13.52-23.467-24.11-13.689-11.56 10.43-6.19 49.38-11.56 64.373z"/><path d="m19.8733 601.558c-14.49771 16.297-25.90042 50.683-21.99092 72.358 3.25792 18.416 26.06332 33.083 37.30322 47.75 6.3529 8.149 26.5519 28.357 14.009 39.113-15.9638 13.689-53.75566-23.794-62.7149-34.713-22.6426-27.216-23.9458-83.114-13.6833-116.523 7.4932-24.282 26.714933-25.26 47.8914-19.393z"/><path d="m91.5477 855.301c1.3032 1.141 3.9095 2.282 5.3756 3.423.4887-9.453-20.0362-105.931-47.5657-72.033-7.819 9.615-2.9321 43.024.4888 54.595 3.4208 11.734 11.4027 21.186 15.1493 32.757z"/><path d="m75.4211 33.4463c7.3303 7.1706 18.4072 16.4599 13.5204 27.7048-5.3756 12.0597-28.8326 18.9044-39.258 24.9343-14.6606 8.4744-28.5067 18.7416-35.6742 34.5496-5.53842 12.386-5.37553 27.379-13.520324 38.624-15.475076 21.186-83.565576 23.467-83.891376-11.245-.1629-15.645 21.5023-24.772 32.7421-31.453 14.6606-8.801 26.0633-17.2751 34.0452-32.9201 9.12217-17.9267 14.49774-36.9941 29.81-51.1724 14.8235-13.6895 33.3936-17.6007 52.7782-19.3934z"/><path d="m-.162914 208.312c-.651583-1.14-.977366-2.444-1.140266-4.074-3.74661-47.913 38.93208 9.941 1.140266 4.074z"/><path d="m-111.095 633.337c9.285 25.586 29.3213 24.934 48.2172 39.438 18.0815 14.016 20.6878 38.298 28.8326 58.343 10.7511 25.75 26.22626 49.38 30.78734 77.411 1.62897 10.593 5.86424 34.549-9.93664 35.201-19.2217.815-31.6018-43.187-35.6742-55.083-9.9367-30.15-12.2172-71.707-33.5566-96.641-12.8688-14.993-31.9277-22.653-44.3077-38.624-13.357-16.949-26.389-49.054-20.036-70.729 3.258-11.408 13.52-23.467 24.108-13.689 11.729 10.43 6.19 49.38 11.566 64.373z"/><path d="m292.888 850.412c-5.539-48.076-58.969-47.098-92.362-64.536-17.43-8.963-22.806-25.26-31.602-41.394-4.887-8.963-11.077-20.697-22.317-13.527-15.964 10.105-8.308 38.461-.326 50.521 13.521 20.86 38.607 29.334 53.756 48.565 16.127 20.534 23.457 42.046 49.032 53.943 19.873 9.289 43.982 12.059 62.226-1.956z"/><path d="m94.4804 758.334c14.0086-5.215 13.8466-38.135 26.3896-47.913 15.638-12.385 39.42.652 50.66-19.393 15.638-27.868-.814-69.751-.651-99.737 0-8.312.977-13.853 5.212-20.697 2.607-4.238 6.842-4.89 7.005-10.593.651-17.275-21.502-17.438-29.484-7.171-14.824 19.23-7.982 49.706-13.847 72.032-5.049 18.579-19.547 26.89-33.556 38.298-15.9639 13.038-31.7648 31.942-32.2535 53.617-.3258 9.126 5.3756 47.098 20.5249 41.557z"/><path d="m45.7737 602.047c-5.7013 11.57-16.7782 20.86-20.5248 33.408-1.7919 6.356-3.258 30.15 2.1176 35.691 13.3574 13.852 28.6697-15.482 32.905-22.979 12.0543-21.186 36.8144-25.749 48.0545-46.446 10.751-19.72 6.841-45.469 7.167-67.144.163-11.082 1.792-42.046-11.565-47.913-15.1498-6.681-14.1724 27.216-17.7561 35.039-9.7738 22.001-17.4299-8.964-28.0181-11.734-16.7783-4.237-16.4525 23.305-14.8235 33.083 1.3032 8.637 6.3529 15.319 7.9819 23.63 2.4434 11.245-.6516 25.424-5.5385 35.365z"/><path d="m161.267 518.769c10.262-7.822 14.335-31.779 19.385-43.513 5.049-11.733 10.099-29.986 9.285-43.024-.652-11.733-8.308-14.178-19.548-13.363-17.593 1.304-17.593-3.259-25.9-18.904-6.353-12.06-19.059-18.579-28.67-4.238-8.308 12.549-.652 29.824 4.561 42.046 4.073 9.616 15.312 15.971 16.616 26.727 1.14 8.964-3.421 18.905-2.933 28.357.815 16.46 6.679 41.557 27.204 25.912z"/><path d="m73.14 473.138c12.2172-9.778 8.1449-29.498 8.3078-43.024.3257-16.623 1.6289-40.579 12.8687-53.943 8.7965-10.593 23.9455-13.689 33.2305-24.282 11.403-13.201 10.914-32.105 10.426-48.728-.326-10.919-2.932-29.661-16.453-16.786-11.403 10.919-11.403 32.92-19.71 46.12-14.498 22.979-44.7966 33.083-53.1043 60.462-5.8643 19.556-3.9096 53.291 3.095 72.684 3.5837 9.615 11.5656 15.319 21.3393 7.497z"/><path d="m46.2631 330.051c19.7104-21.675 27.6923-46.447 41.7013-71.055 3.4209-5.867 6.8416-13.364 14.1716-14.341 3.91-.489 7.005 3.585 11.077 3.096 9.285-1.467 19.711-17.112 23.946-24.445 7.819-13.69 6.027-29.498 11.728-43.513 3.258-7.986 8.96-10.756-.814-17.275-16.127-10.756-26.063 8.312-30.95 20.534-15.15 38.135-51.1495 53.128-74.4436 85.233-7.4933 10.43-28.0181 52.313-11.2398 61.929h14.8235z"/><path d="m123.475 41.1059c-4.072 16.7858-10.425 32.9198-21.176 46.7722-14.9867 19.5559-37.4664 29.6609-54.5704 46.7719-10.2625 10.43-29.6471 41.069-10.914 53.128 18.8959 12.223 43.4932-22.163 51.8009-34.549 9.6108-14.016 15.4755-31.942 27.2035-44.491 9.937-10.4299 23.946-14.6671 35.674-22.3266 20.362-13.2006 27.041-54.1059-3.095-60.1358z"/><path d="m-31.6017 208.638c10.7512 3.749 14.0091 17.764 27.85525 19.231 15.47515 1.629 30.62445-5.378 46.75115-1.956-.4887 33.572-44.47062 37.157-53.7557 66.166-8.7964 27.868 19.71043 57.528 5.0498 85.722-15.638 30.312-43.9819-23.142-45.6109-38.787-2.9321-28.031-2.2805-58.017-2.2805-86.374 0-13.526-1.7919-52.15 21.9909-44.002z"/><path d="m-77.3747 554.297c-3.2579 8.474-20.8507 47.587-3.7466 50.846 15.4751 2.934 35.5113-33.735 46.4254-41.72 13.1945-9.615 31.27597-3.259 43.00448-13.852 15.96382-14.505 9.44792-42.047 4.88692-59.973-5.04982-19.883-1.4661-31.127 4.2353-50.358 4.2353-14.341 4.3982-36.016-17.104109-29.823-53.266991 15.482.977359 93.544-30.787391 119.782-10.914 8.964-28.3438 3.749-38.7692 13.364-7.0045 6.356-8.1448 11.734-8.1448 11.734z"/></g></svg>