<svg width="864" height="137" viewBox="0 0 864 137" fill="none" xmlns="http://www.w3.org/2000/svg">
<path d="M40.3007 54.3C28.7007 45.9 25.9007 42.5 25.9007 37.2C25.9007 32.6 30.3007 26.8 36.7007 26.8C52.7007 26.8 49.1007 45.3 49.1007 45.3H72.6007C77.2007 14.8 58.1007 0 35.9007 0C14.7007 0 0.400735 17.9 0.400735 38.2C0.400735 54.9 11.5007 68.3 29.5007 78.6C42.3007 86 46.3007 92.9 46.3007 98C46.3007 104.9 43.6007 109.9 37.1007 109.9C20.2007 109.9 24.9007 92.3 24.9007 92.3H0.300735C0.300735 92.3 -5.69926 136.3 35.9007 136.3C60.3007 136.3 72.4007 120.7 72.4007 97.6C72.4007 78.3 58.5007 67.5 40.3007 54.3Z" fill="white"/>
<path d="M105.101 3.6L75.001 134.2H101.601L105.201 116.4L128.901 116.3L132.601 134.2H159.301L129.101 3.6H105.101ZM124.301 91.8H109.901L114.701 69.9C115.501 66 116.301 61.8 117.001 57.7C117.801 62.1 118.601 66.5 119.401 70.2L124.301 91.8Z" fill="white"/>
<path d="M193.3 3.6H167.4V134.2H228.3V106.1H193.3V3.6Z" fill="white"/>
<path d="M271.201 3.6L257.601 66.6L243.901 3.6H217.201L245.601 134.2H269.701L297.801 3.6H271.201Z" fill="white"/>
<path d="M416.501 83.8C416.501 105.9 412.201 107.7 407.401 107.7C392.401 107.7 397.001 67.9 397.001 67.9L372.201 76.2L372.501 96.6C375.101 121.8 387.601 136.2 406.901 136.2C430.701 136.2 442.301 118.8 442.301 83.1V3.6H416.501V83.8Z" fill="white"/>
<path d="M482.601 78.5H507.701V51.1H482.601V31.3H520.001V3.6H456.801V134.2H521.401V106.5H482.601V78.5Z" fill="white"/>
<path d="M580.8 58.3C580.8 60.9 580.9 64.1 580.9 67.5C580 64.9 579.1 62.3 578.2 60.1L557.9 3.6H532.9V134.3H557V78.7C557 76.1 557 73 557 69.8C557.8 72.1 558.7 74.5 559.6 77L581 134.4H605.1V3.6H581V58.3H580.8Z" fill="white"/>
<path d="M733.701 3.6H705.501V134.3H733.201C754.201 134.3 779.301 122.9 779.301 68.8C779.301 25.5 763.901 3.6 733.701 3.6ZM733.701 106.1H731.301V31.7H733.701C747.201 31.7 753.001 42.9 753.001 69.1C753.001 95 747.201 106.1 733.701 106.1Z" fill="white"/>
<path d="M643.201 3.6L613.101 134.3H639.701L643.301 116.5L667.001 116.4L670.701 134.3H697.401L667.201 3.6H643.201ZM662.301 91.8H647.901L652.701 69.9C653.501 66 654.301 61.8 655.001 57.7C655.801 62.1 656.601 66.5 657.401 70.2L662.301 91.8Z" fill="white"/>
<path d="M809.901 3.6L779.801 134.3H806.401L810.001 116.5L833.701 116.4L837.401 134.3H864.001L833.901 3.6H809.901ZM829.101 91.8H814.701L819.501 69.9C820.301 66 821.101 61.8 821.801 57.7C822.601 62.1 823.401 66.5 824.201 70.2L829.101 91.8Z" fill="white"/>
<path d="M316.101 3.6L286.001 134.2H312.601L316.201 116.4L339.901 116.3L343.601 134.2H370.301L340.101 3.6H316.101ZM335.201 91.8H320.801L325.601 69.9C326.401 66 327.201 61.8 327.901 57.7C328.701 62.1 329.501 66.5 330.301 70.2L335.201 91.8Z" fill="white"/>
</svg>
