

<svg xmlns="http://www.w3.org/2000/svg"  viewBox="0 0 864 137" fill="none">
  <path fill="#fff" d="M40.3 54.3c-11.6-8.4-14.4-11.8-14.4-17.1a11 11 0 0 1 10.8-10.4c16 0 12.4 18.5 12.4 18.5h23.5C77.2 14.8 58.1 0 35.9 0 14.7 0 .4 17.9.4 38.2c0 16.7 11.1 30.1 29.1 40.4C42.3 86 46.3 92.9 46.3 98c0 6.9-2.7 11.9-9.2 11.9-16.9 0-12.2-17.6-12.2-17.6H.3s-6 44 35.6 44c24.4 0 36.5-15.6 36.5-38.7 0-19.3-13.9-30.1-32.1-43.3zM105.1 3.6L75 134.2h26.6l3.6-17.8 23.7-.1 3.7 17.9h26.7L129.1 3.6h-24zm19.2 88.2h-14.4l4.8-21.9 2.3-12.2 2.4 12.5 4.9 21.6zM193.3 3.6h-25.9v130.6h60.9v-28.1h-35V3.6zM271.2 3.6l-13.6 63-13.7-63h-26.7l28.4 130.6h24.1L297.8 3.6h-26.6zM416.5 83.8c0 22.1-4.3 23.9-9.1 23.9-15 0-10.4-39.8-10.4-39.8l-24.8 8.3.3 20.4c2.6 25.2 15.1 39.6 34.4 39.6 23.8 0 35.4-17.4 35.4-53.1V3.6h-25.8v80.2zM482.6 78.5h25.1V51.1h-25.1V31.3H520V3.6h-63.2v130.6h64.6v-27.7h-38.8v-28zM580.8 58.3l.1 9.2-2.7-7.4-20.3-56.5h-25v130.7H557V78.7v-8.9l2.6 7.2 21.4 57.4h24.1V3.6H581v54.7h-.2zM733.7 3.6h-28.2v130.7h27.7c21 0 46.1-11.4 46.1-65.5 0-43.3-15.4-65.2-45.6-65.2zm0 102.5h-2.4V31.7h2.4c13.5 0 19.3 11.2 19.3 37.4 0 25.9-5.8 37-19.3 37zM643.2 3.6l-30.1 130.7h26.6l3.6-17.8 23.7-.1 3.7 17.9h26.7L667.2 3.6h-24zm19.1 88.2h-14.4l4.8-21.9 2.3-12.2 2.4 12.5 4.9 21.6zM809.9 3.6l-30.1 130.7h26.6l3.6-17.8 23.7-.1 3.7 17.9H864L833.9 3.6h-24zm19.2 88.2h-14.4l4.8-21.9 2.3-12.2 2.4 12.5 4.9 21.6zM316.1 3.6L286 134.2h26.6l3.6-17.8 23.7-.1 3.7 17.9h26.7L340.1 3.6h-24zm19.1 88.2h-14.4l4.8-21.9 2.3-12.2 2.4 12.5 4.9 21.6z"/>
</svg>
