<?xml version="1.0" encoding="utf-8"?>
<!-- Generator: Adobe Illustrator 23.0.3, SVG Export Plug-In . SVG Version: 6.00 Build 0)  -->
<svg version="1.1" id="Layer_1" xmlns="http://www.w3.org/2000/svg" xmlns:xlink="http://www.w3.org/1999/xlink" x="0px" y="0px"
	 viewBox="0 0 860 180" style="enable-background:new 0 0 860 180;" xml:space="preserve">
<style type="text/css">
	.st0{fill:#FFFFFF;}
</style>
<path class="st0" d="M43.1,76c-11.5-8.3-14.2-11.7-14.2-16.9c0.3-5.7,5-10.2,10.7-10.3c15.8,0,12.2,18.3,12.2,18.3H75
	C79.5,37,60.7,22.3,38.7,22.3C17.8,22.3,3.7,40,3.7,60.1c0,16.5,11,29.7,28.7,39.9C45,107.3,49,114.1,49,119.1
	c0,6.8-2.7,11.8-9.1,11.8c-16.7,0-12.1-17.4-12.1-17.4H3.6c0,0-5.9,43.5,35.2,43.5c24.1,0,36.1-15.4,36.1-38.2
	C74.8,99.7,61.1,89,43.1,76z M107.1,25.9l-29.7,129h26.3l3.6-17.6l23.4-0.1l3.7,17.7h26.4l-29.8-129
	C130.8,25.9,107.1,25.9,107.1,25.9z M126.1,113h-14.2l4.7-21.6l2.3-12.1l2.4,12.3C121.2,91.7,126.1,113,126.1,113z M194.2,25.9
	h-25.6v129h60.2v-27.8h-34.6L194.2,25.9L194.2,25.9z M271.2,25.9l-13.4,62.2l-13.5-62.2h-26.4l28.1,129h23.8l27.8-129H271.2
	L271.2,25.9z M414.7,105.1c0,21.8-4.2,23.6-9,23.6c-14.8,0-10.3-39.3-10.3-39.3l-24.5,8.2l0.3,20.2c2.6,24.9,14.9,39.1,34,39.1
	c23.5,0,35-17.2,35-52.5V25.9h-25.5C414.7,25.9,414.7,105.1,414.7,105.1z M480,99.9h24.8V72.8H480V53.2h36.9V25.9h-62.4v129h63.8
	v-27.4H480L480,99.9L480,99.9z M577,79.9l0.1,9.1l-2.7-7.3l-20.1-55.8h-24.7V155h23.8v-54.9v-8.8l2.6,7.1l21.1,56.7H601V25.9h-23.8
	v54H577z M728,25.9h-27.9V155h27.4c20.7,0,45.5-11.3,45.5-64.7C773.1,47.5,757.9,25.9,728,25.9z M728,127.1h-2.4V53.6h2.4
	c13.3,0,19.1,11.1,19.1,36.9C747.1,116.2,741.4,127.1,728,127.1z M638.6,25.9L608.9,155h26.3l3.6-17.6l23.4-0.1l3.7,17.7h26.4
	L662.3,25.9H638.6z M657.5,113h-14.2l4.7-21.6l2.3-12.1l2.4,12.3L657.5,113z M803.3,25.9L773.6,155h26.3l3.6-17.6l23.4-0.1l3.7,17.7
	h26.3L827,25.9H803.3z M822.3,113H808l4.7-21.6l2.3-12.1l2.4,12.3L822.3,113z M315.5,25.9l-29.7,129h26.3l3.6-17.6l23.4-0.1
	l3.7,17.7h26.4l-29.8-129H315.5z M334.4,113h-14.2l4.7-21.6l2.3-12.1l2.4,12.3L334.4,113L334.4,113z"/>
</svg>
