<svg xmlns="http://www.w3.org/2000/svg" viewBox="0 0 860 180">
  <path fill="#fff" d="M43.1 76c-11.5-8.3-14.2-11.7-14.2-16.9a11 11 0 0 1 10.7-10.3c15.8 0 12.2 18.3 12.2 18.3H75C79.5 37 60.7 22.3 38.7 22.3c-20.9 0-35 17.7-35 37.8 0 16.5 11 29.7 28.7 39.9C45 107.3 49 114.1 49 119.1c0 6.8-2.7 11.8-9.1 11.8-16.7 0-12.1-17.4-12.1-17.4H3.6S-2.3 157 38.8 157c24.1 0 36.1-15.4 36.1-38.2C74.8 99.7 61.1 89 43.1 76zm64-50.1l-29.7 129h26.3l3.6-17.6 23.4-.1 3.7 17.7h26.4L131 25.9h-23.9zm19 87.1h-14.2l4.7-21.6 2.3-12.1 2.4 12.3c-.1.1 4.8 21.4 4.8 21.4zm68.1-87.1h-25.6v129h60.2v-27.8h-34.6V25.9zm77 0l-13.4 62.2-13.5-62.2h-26.4l28.1 129h23.8l27.8-129h-26.4zm143.5 79.2c0 21.8-4.2 23.6-9 23.6-14.8 0-10.3-39.3-10.3-39.3l-24.5 8.2.3 20.2c2.6 24.9 14.9 39.1 34 39.1 23.5 0 35-17.2 35-52.5V25.9h-25.5v79.2zm65.3-5.2h24.8V72.8H480V53.2h36.9V25.9h-62.4v129h63.8v-27.4H480V99.9zm97-20l.1 9.1-2.7-7.3-20.1-55.8h-24.7V155h23.8V91.3l2.6 7.1 21.1 56.7H601V25.9h-23.8v54h-.2zm151-54h-27.9V155h27.4c20.7 0 45.5-11.3 45.5-64.7.1-42.8-15.1-64.4-45-64.4zm0 101.2h-2.4V53.6h2.4c13.3 0 19.1 11.1 19.1 36.9 0 25.7-5.7 36.6-19.1 36.6zM638.6 25.9L608.9 155h26.3l3.6-17.6 23.4-.1 3.7 17.7h26.4l-30-129.1h-23.7zm18.9 87.1h-14.2l4.7-21.6 2.3-12.1 2.4 12.3 4.8 21.4zm145.8-87.1L773.6 155h26.3l3.6-17.6 23.4-.1 3.7 17.7h26.3L827 25.9h-23.7zm19 87.1H808l4.7-21.6 2.3-12.1 2.4 12.3 4.9 21.4zM315.5 25.9l-29.7 129h26.3l3.6-17.6 23.4-.1 3.7 17.7h26.4l-29.8-129h-23.9zm18.9 87.1h-14.2l4.7-21.6 2.3-12.1 2.4 12.3 4.8 21.4z"/>
</svg>