<?xml version="1.0" encoding="utf-8"?>
<!-- Generator: Adobe Illustrator 23.0.3, SVG Export Plug-In . SVG Version: 6.00 Build 0)  -->
<svg version="1.1" id="Layer_1" xmlns="http://www.w3.org/2000/svg" xmlns:xlink="http://www.w3.org/1999/xlink" x="0px" y="0px"
	 viewBox="0 0 1440 713.6" style="enable-background:new 0 0 1440 713.6;" xml:space="preserve">
<style type="text/css">
	.st0{fill:#3CB3E0;}
</style>
<path class="st0" d="M745.7,223.1c6.7,58.4,61.7,154.8,125.7,184.5C827.6,357.2,769.3,279.3,749,224.1L745.7,223.1z"/>
<path class="st0" d="M762.5,488.4c-16.4-97.1-26.1-202.8-29.7-283.6c0-1.1-1.6-1.3-1.9-0.3c-22.2,67.9-13.8,196.3,1.7,257.5
	c7.3,29.1,21,56.7,32.2,84.2L762.5,488.4z"/>
<path class="st0" d="M1048.8,327.9c-76.9-30.9-163.9-94-226.6-150l-14.6-14.5C861.3,224.2,963.6,338.4,1048.8,327.9z"/>
<path class="st0" d="M880.6,341.4c-0.9,26.4,40.4,48.2,55.4,53.7C928.2,383.1,908.3,349.9,880.6,341.4z"/>
<path class="st0" d="M654.2,390.3c15.3,19.8,34.4-24.1,39-49c3.4-18.6,6.7-50.6,7.2-75.2c0-1-1.4-1.4-1.9-0.5
	C685.1,290.4,642.3,374.9,654.2,390.3z"/>
<path class="st0" d="M622.9,284.6c-53.3,49.3-100.1,105-145.7,163.6c84.4-45.5,119.1-114,147.2-162.4
	C625,284.8,623.7,283.8,622.9,284.6z"/>
<path class="st0" d="M626.9,362.6c-45.1,45.7-91.7,89.5-123.8,148.3c18.5-9,36.1-24.6,52.9-37.9c0,0-11.9,25.4-8.1,40.2
	c14.8-11.9,22.5-24.9,22.5-24.9s-0.9,35.2,9,37.2C579.4,525.6,626.9,400.8,626.9,362.6z"/>
<path class="st0" d="M696.9,397.6c-11,4-13.1,6.9-16.8,19.4C687.3,417,698.5,409.3,696.9,397.6z"/>
<path class="st0" d="M469.4,198.6c0,0-19.7,5.2-35.7,13.2c-51.5,25.8-85.9,54.2-125.4,100.3C355.3,294.6,459.8,260.7,469.4,198.6z"
	/>
<path class="st0" d="M1015.5,546.4l-137.7-94.3c-51.6-15.6-78.9-49.9-103.8-97.7c-6.9,43.4,31.6,149.4,72.6,166.8
	c-3.4-19.8-12.3-37.2-15.3-57.7C865,493.1,974.7,542.8,1015.5,546.4z"/>
<path class="st0" d="M699.3,437.2c-25.8,30.2-43.8,113.5-44.5,158.6c5.2-8.7,16.5-18.3,20.8-26.4c-1.9,43.4,5.2,85.1,2.6,127.4
	l47.7-46.1C708.3,612.9,698.7,479.2,699.3,437.2z"/>
<path class="st0" d="M603.3,665.4l8.8-16.8c14.6-71.2,31.4-141.3,43.2-213.2C624.3,505,610.2,587.4,603.3,665.4z"/>
<path class="st0" d="M548.5,609.1c-11.8,20.6-41.9,83-28.8,99.9l25.1-15.4c12.7-37.7,24.5-72.5,28.8-112
	c-6.4,12.8-15.9,23.1-23.2,35.2C548.7,615,550.2,610.8,548.5,609.1z"/>
<path class="st0" d="M454.6,662.4c3.7,3.6,11.4,3,16.1,0.2c17.6-10.4,68.2-130.4,68.2-130.4S441.3,649.4,454.6,662.4z"/>
<path class="st0" d="M489.9,472.2c-12.7-1.8-21.7,3.4-23.2,17.4C480.3,490,491.5,483.1,489.9,472.2z"/>
<path class="st0" d="M256.5,524c15.4,12.6,44.2,8.5,44.2,8.5c-12.7,13.5-27.9,24.9-42.8,35.8c49.2-5.1,159.8-59.4,186-114.6
	l-22.5-5.3C376.6,488,311.8,522.3,256.5,524z"/>
<path class="st0" d="M418.5,317.2c9.9-0.4,19.2-3.8,23.4-13.5c-4.3-2.7-9.9-2.9-14.6,0C422.6,306.6,419.4,311.7,418.5,317.2z"/>
<path class="st0" d="M801.5,634.2l37.6-7c-12.9-23.4-23.7-49.6-38-70.9C796.6,581.7,796.8,608.7,801.5,634.2z"/>
<path class="st0" d="M935.9,584.3c-16.5-1.8-34.6-14.3-49.4-20.4c24.7,50.1,134.3,125.9,184.8,137.5l29.4-73.7
	c-70.9-12.4-147.4-44.3-202.1-97.6C907.9,550.5,920.8,569.1,935.9,584.3z"/>
<path class="st0" d="M857.5,551.5c2.4,0,8.7-2,11.8-3.1c0.8-0.3,0.9-1.3,0.3-1.8c-14.9-10.7-17.6-10.3-13,4.1
	C856.7,551.2,857.1,551.5,857.5,551.5z"/>
<path class="st0" d="M1149.9,396.9c-55.6-7-137.8-24.1-212.4-63.2c96.3,95,193.2,121.4,314,125.5c1.2,0,1.4-1.7,0.3-2
	c-28-6.1-101.5-24.4-130.8-52.5c-0.7-0.6-0.2-1.8,0.8-1.7c8.6,0.6,23-1.8,28.5-4.2C1151.1,398.4,1150.9,397.1,1149.9,396.9z"/>
<path class="st0" d="M1052.8,223.7c207,36.3,324.9-23.5,324.9-23.5C1280.1,266,1151.1,250.5,1052.8,223.7z"/>
<path class="st0" d="M1146.9,204.9c-8.7-6.7-23-14.6-34.5-8.1c-0.5,0.3-0.6,0.9-0.4,1.3c6.3,10.7,22,11.2,34.5,8.5
	C1147.3,206.5,1147.6,205.4,1146.9,204.9z"/>
<path class="st0" d="M1058.9,469.4c-40.6-15-73.9-48-106.8-76.2c-1.7,16.6,20.1,33.3,20.1,33.3s-25.2-3.9-37.4-6.4
	c70.5,69.5,148.1,130.2,239,151.8c-29.8-24.6-59.7-48.6-87.9-75L1058.9,469.4z"/>
<path class="st0" d="M1154.1,496.5c29.4,39.4,92.6,51.8,136,52.4c-18.7-0.2-47.3-28-65.3-36.5C1200.5,501,1181.2,497.2,1154.1,496.5
	z"/>
<path class="st0" d="M1135.6,484.2l5.8-6.3c-6.4-3.6-11.8-6.9-19.3-7.6c-1.1,3.6-1.9,8.9-2.4,12.6
	C1124.7,484.4,1130.3,483.1,1135.6,484.2z"/>
<path class="st0" d="M1205.3,411.7c-4.1-6.2-13.6-13.3-22-9.7C1179.3,409.2,1195,413.9,1205.3,411.7z"/>
<path class="st0" d="M1044.8,266l-12.1,2.7c30.5,13.8,59.2,37.1,59.2,37.1s-11,5.4-16.7,6.5c36.5,16.6,125.7,37.4,149.3,4.2
	c0,0,92.7,17.7,126.1,4.4C1350.6,321,1161.6,306.8,1044.8,266z"/>
<path class="st0" d="M1284.7,594.8c-0.6,21.9,13.1,35.6,32.4,33.9C1320.6,610,1302,592.8,1284.7,594.8z"/>
<path class="st0" d="M342.3,230.9C232.1,282,104.5,306.1,23.9,323.8C139,353.6,293.9,289.3,342.3,230.9z"/>
<path class="st0" d="M449.4,339.8c-95.3,75.7-257.3,111.7-324.4,78.5c-1-0.5-1.9,0.7-1.2,1.5c23.1,28.7,68.3,56.8,124,56.8
	c56.8,0,93.9-15.7,147.3-50.5c0.9-0.6,0.4-1.9-0.6-1.8c-12,1.2-34.8,5.3-41.9,5c12.1-11.2,68.8-60,98.1-88
	C451.7,340.4,450.4,339,449.4,339.8z"/>
<path class="st0" d="M37.9,523.2c14.2,21.9,37.4,33.8,62.1,32.5c-14.4,5.1-37.6,17.3-48.1,20.2c61.7-0.2,119.2-5.1,171.2-44.3
	C160.3,536.6,98.7,544.7,37.9,523.2z"/>
<path class="st0" d="M141.1,502.4c14.4,8.4,27.8-0.8,35.1-11.9C158.2,481.5,146.4,486.7,141.1,502.4z"/>
<path class="st0" d="M519.1,328.1c28.9-51.7,74.3-105.8,94.3-162.7c0.4-1.1-1.1-1.8-1.7-0.9c-40.7,54.1-85.3,93.7-132.5,139.2
	c12.7,0.4,25.8-4.9,37.2-9.4c-6.2,10.1-10.9,21.7-13.5,33.9H519.1z"/>
<path class="st0" d="M504.2,353.6c-38.5-1.7-66.6,34.5-91.7,64h2.8C447.5,405.6,479.5,379.8,504.2,353.6z"/>
<path class="st0" d="M190.3,395.3c52,2.3,127.2,0,194.3-86.2c-68.5,39.3-172.9,52.9-240.7,53.5c35.9,12.9,86,8.2,86,8.2
	S214,387.8,190.3,395.3z"/>
<path class="st0" d="M99.3,684.1c48.1-48.8,118.1-97.7,118.1-97.7c-69,11.4-135.3,42.1-193.8,84L99.3,684.1z"/>
<path class="st0" d="M109.6,390.5l8.6-5.9C118.4,339.1,66.6,383.9,109.6,390.5z"/>
<path class="st0" d="M245,617.2c9.2,0,16.5-6.6,23.6-18.1C255.4,598.8,243.8,609.6,245,617.2z"/>
<path class="st0" d="M138,251.3c-10.4-2.6-19.5,2.4-22.1,9.3C128.7,266.1,136.2,257.2,138,251.3z"/>
<path class="st0" d="M515.8,159c-14.8,1.5-25.4,11-30.9,24.9c0,0,9,0,15-2.9C507.4,177.3,513.8,166.8,515.8,159z"/>
<path class="st0" d="M471.1,534.6c-14.8,5.3-24.9,19.1-24.7,33.8C458.8,564.7,472.2,554.4,471.1,534.6z"/>
<path class="st0" d="M404.2,544c9.6-2,12.5-7.3,12.3-14.7C408.2,530.7,404,535.5,404.2,544z"/>
<path class="st0" d="M1242,487.4c5.6,7.8,11.8,6.9,20,9.4l1.1-4.2C1257,490.7,1250.4,485.9,1242,487.4z"/>
<path class="st0" d="M1098.5,579.8c-21.7-9.4-46-21.9-68.8-19.8c14.8,22.6,44.7,25.1,67.7,28.2L1098.5,579.8z"/>
<path class="st0" d="M1019.8,285c-3.9-10.2-16.7-18.4-32.4-16.1c-0.6,0.1-1,0.8-0.8,1.4c5.4,12.6,20,19.1,32.5,16
	C1019.7,286.2,1020,285.6,1019.8,285z"/>
<path class="st0" d="M0,142.9v30.4c0.6,0,1.3,0.1,1.9,0.1c54.6,2.6,137.1,7.5,184.4-11.5C122.7,160.7,60.8,157.3,0,142.9z"/>
<path class="st0" d="M33.6,214.2c-7.9-2.8-20.3-5.2-33.6-6.2v16.5c12.7-1.5,27.3-4.9,33.6-7.9C33.6,216.7,33.8,214.2,33.6,214.2z"/>
<path class="st0" d="M78.7,271.5c0,0,8-9.7,11.6-12.6c-29.8-2.2-60-2.7-90.3-2.9v32.9c38,1.5,76.2,0.1,109.6-14.2
	C99.3,276.1,88.6,273.5,78.7,271.5z"/>
<path class="st0" d="M41.8,388.1c3.6-3.6,6-8.5,10.5-11.8c-18.9-2.4-36.1-4.6-52.3-7.4v35c23.7,0.3,48-1,72.7-2.6
	C62.2,399.7,51.9,391.5,41.8,388.1z"/>
<path class="st0" d="M77.4,469.2c-28.3,2.9-53-2.3-77.4-9.3v20.4c31.9,5.3,65.9,2.1,87.5-8L77.4,469.2z"/>
<path class="st0" d="M0,558.7V569c4.1,0.1,8.1,0.1,12.1-0.3l1.3-9.9C8.2,558.9,3.8,558.5,0,558.7z"/>
<path class="st0" d="M0,593.3v19.6l5.7-2.8c14.3,0.9,30.6-1.4,38.8-15.3C29.1,594.6,14.4,594.3,0,593.3z"/>
<g>
	<path class="st0" d="M1320.8,166.1c-49.5,0.9-175.6-1.6-204.1-27.4c-0.8-0.7,0-2.1,1-1.7c30.6,10.7,103.2,16.6,139.6,11.9
		c1.1-0.1,1.2-1.8,0-2c-36.4-5.6-57.6-12.5-72.1-20.8c-1-0.6-0.4-2.1,0.7-1.8c72.1,16.4,173.1,19.8,254.1,0V-0.1
		c-0.1,0-0.2,0.1-0.3,0.1H0v128.4c81.8,23.3,272.9,9.3,368.4-7c-46.5,15.6-92.2,27.4-141.7,29.6c-1.1,0-1.3,1.5-0.4,1.9
		c49.4,21.4,162.6-11.6,218.8-31.2c0,0,0,0,0.1,0C394.8,147.9,291,185.9,97.4,203c-1.1,0.1-1.3,1.5-0.3,1.9
		c38.6,15.2,99.7,18.9,99.7,18.9s-12.5,9.7-28.7,14.3c-1,0.3-0.9,1.8,0.1,1.9c65.3,10.4,308.3-65.1,420.7-152.7
		c0.9-0.7,2.1,0.4,1.4,1.4c-35.2,49.5-95.8,131.1-115,150.3c-0.8,0.8,0.1,2,1.1,1.6c56.1-22.2,133.6-92.5,188-153.8
		c0.7-0.8,2.1-0.1,1.7,1c-22.7,67.4-53.5,133.2-86.5,188.7c-0.5,0.9,0.5,1.9,1.4,1.3c54.1-35,93.3-103.9,115.6-177.1
		c0.4-1.2,2.1-0.8,1.9,0.4c-8.7,81.1-38.4,174.7-77.2,225.1c-0.5,0.6-0.1,1.6,0.8,1.6c30.9,1.6,87.4-115.6,113.5-195.5
		c19.9,78,68.2,179.6,113.2,210.6c0.8,0.6,1.9-0.3,1.5-1.2c-7.3-17.4-15.1-35.7-19.5-53.4c22.3,19.3,48.8,46.2,76.8,28.4
		c0.6-0.4,0.6-1.3,0-1.7c-59.8-41-107.6-89-139.4-178c12,16.5,25.2,30.5,32,36.8c0.8,0.7,2-0.1,1.6-1.1c-4.5-11.6-15.5-33.8-20.5-64
		c-0.2-1,1.2-1.6,1.8-0.8c62.5,85.5,186.1,140.7,243.3,134.6c1-0.1,1.2-1.6,0.2-1.9c-74.1-27.9-145.9-76.3-197.6-142.7
		c-0.7-0.9,0.4-2.1,1.4-1.4c70.8,52.4,178.5,95.7,250.9,102.5c1.1,0.1,1.5-1.5,0.5-1.9c-23.8-10.4-47.6-20.7-70.5-33.4
		c-19.4-10.7-48.1-33.7-58.8-57c-0.4-0.9,0.6-1.8,1.4-1.3c98.7,58.5,259.4,91,367,62.6C1322.2,167.8,1322,166.1,1320.8,166.1z"/>
</g>
<path class="st0" d="M1440,152.3c-8.8,0.1-15.2,6.9-16.5,19.6c4.5,3.7,10.6,8.1,16.5,9.9V152.3z"/>
<path class="st0" d="M1440,258.6c-33.3,6.7-68,13.6-105.8,6.9c0,0,57.6-9.3,105.8-34.8v-9.8c-37.8,16.6-94.7,36.6-143.2,32.8
	l-65.1,12.8c96.1,22.2,164.2,17.9,208.3,8V258.6z"/>
<path class="st0" d="M1440,305.9c-12.9,5.7-24.2,12.2-33,19.5c10.7-0.1,21.8-0.6,33-1.2V305.9z"/>
<path class="st0" d="M1440,397.3v-27.8c-80.1-15.5-169,0.8-248.5-14.5l-2.1,11c75.2,23,137.5,55.6,217.2,44.6
	c-8.2-1.8-16.3-6.1-24.7-7.6C1400.9,397.4,1420.5,398.3,1440,397.3z"/>
<path class="st0" d="M1440,439c-8.4,0.5-16.4,0.8-23.6,0.6c7.8,3.7,15.7,7.3,23.6,10.8V439z"/>
<path class="st0" d="M1440,559.2v-14.5c-5.9-7-12-13.5-17.2-16.8c5-0.8,10.9-1.1,17.2-0.9V500c-9.3-4.4-18.5-8.4-27.5-12.1
	c-11.3-4.6-148.8-62.8-149.5-64.6c34.2,38.7,105.5,83.8,105.5,83.8c-8.2-1.7-75.2-23.3-83.4-24.6
	C1342.6,517.3,1408.6,546.2,1440,559.2z"/>
<path class="st0" d="M1440,628.6c-35.4-26.1-73.9-55.8-108.2-65.6c10.3,26.3,34.6,38.7,56.7,59.2c17.3,15.9,33.9,36.9,51.5,55.8
	V628.6z"/>
</svg>
