<svg xmlns="http://www.w3.org/2000/svg" viewBox="0 0 1440 713.6">
  <path fill="#3CB3E0" d="M868.5 413.6c-77.1-53-106.8-113-114.8-172-.2-1.2 1.5-1.6 1.9-.5 19.6 51.3 60.6 117.3 114.1 171 .9.9-.2 2.2-1.2 1.5zM732.8 204.8c0-1.1-1.6-1.3-1.9-.3-22.2 67.9-13.8 196.3 1.7 257.5 6.7 26.7 18.7 52 29.3 77.3.4 1.1 2.1.6 1.9-.5-8.2-65.8-24.7-254.1-31-334zM1045.1 326.4c-73.6-24.5-188.5-120.5-225.5-152.5-.9-.8-2.2.5-1.4 1.4 54.9 61.6 147.6 159.2 226.7 153 1-.1 1.2-1.6.2-1.9zM880.6 341.4c-.8 24.9 35.7 45.6 52.5 52.6a1 1 0 0 0 1.2-1.5c-8.7-13.6-27.8-43.2-53.7-51.1zM654.2 390.3c15.3 19.8 34.4-24.1 39-49 3.4-18.6 6.7-50.6 7.2-75.2 0-1-1.4-1.4-1.9-.5-13.4 24.8-56.2 109.3-44.3 124.7zM622.9 284.6c-53.3 49.3-100.1 105-145.7 163.6 84.4-45.5 119.1-114 147.2-162.4.6-1-.7-2-1.5-1.2zM625.2 365.1c-24.4 34-96.7 90.7-115.8 143.7-.4 1.1 1.2 1.9 1.8.9 20.8-33 50.1-58.1 60-66 .8-.7 2 .2 1.5 1.2-4.9 10.4-18.1 40-21.4 65.3-.1 1 1.2 1.6 1.8.7l27.2-37.7c.6-.8 1.9-.4 1.8.6-.6 9.4-2.2 36.8-3.5 65.5-.1 1.2 1.6 1.5 1.9.4 9.6-28.2 47.2-122.9 46.5-174 0-1-1.3-1.4-1.8-.6zM690 404c-8.8 5.3-10.9 10.4-10.3 20.1 0 .6.7 1.1 1.3.9 6.5-1.9 13-10.4 10.5-20.4-.2-.6-.9-1-1.5-.6zM469.4 198.6s-19.7 5.2-35.7 13.2c-51.5 25.8-85.9 54.2-125.4 100.3 47-17.5 151.5-51.4 161.1-113.5zM1012.1 544.1l-134.3-92c-50.6-15.3-77.8-48.6-102.3-94.9-.5-.9-1.8-.6-1.9.3-4.6 44.5 31.9 143.7 71.2 162.8.7.4 1.6-.3 1.4-1.1-3.5-18.2-11.3-34.4-14.5-53.1-.2-.9.9-1.5 1.6-1 34.7 28.8 135.4 74.6 178.1 80.7 1.1.3 1.6-1.1.7-1.7zM702.5 439.4c-24.2 31.1-41.1 108.2-42.6 152.9a1 1 0 0 0 1.8.6c4.9-6.8 12.5-13.9 17-20.4a1 1 0 0 1 1.8.6c-1.3 41.2 5 80.9 2.9 121.1 0 .9 1 1.4 1.7.8l44.9-43.4a2 2 0 0 0 .5-2.2c-16.9-38.5-26.2-165-26.1-209.4-.1-.9-1.3-1.3-1.9-.6zM599 660.5c30.2-56.1 48.9-143.6 55.8-219 .1-1.1-1.5-1.5-1.9-.5-28.7 66.6-43.7 139.5-55.7 218.9-.2 1.1 1.3 1.6 1.8.6zM547.5 610.9c-12.2 21.9-39.6 79.8-28.4 97.3.3.5.9.6 1.4.3l24-14.7c.2-.1.4-.3.4-.5 12.1-35.9 23.4-69.2 28.1-106.4a1 1 0 0 0-1.9-.6c-5.9 10.2-13.5 19-19.7 29a1 1 0 0 1-1.8-.4c-.2-1.1-.1-2.4-.2-3.5-.2-1.1-1.4-1.3-1.9-.5zM458.4 655.4c19.4 14.1 63.4-57.5 79.1-117.2.3-1.1-1.2-1.7-1.8-.8-43.9 68.2-95.4 104.8-77.3 118zM489.9 472.2c-12.7-1.8-21.7 3.4-23.2 17.4 13.6.4 24.8-6.5 23.2-17.4zM258.8 525.7c15.8 10.5 41.9 6.8 41.9 6.8A282.7 282.7 0 0 1 261 566c-.8.6-.3 1.9.7 1.8 50.5-7.3 155.1-59.6 181.6-113a1 1 0 0 0-.7-1.4l-20.8-4.9c-.3-.1-.6 0-.9.2-44 38.8-107.2 72.4-161.7 75.1-.8.1-1.2 1.4-.4 1.9zM440.9 301.7c-45.4 4.3-11.7 33.7 0 0zM1118 465.1c20.4 33.4 41.5 1.1 0 0zM801.5 634.2l37.6-7c-12.9-23.4-23.7-49.6-38-70.9-4.5 25.4-4.3 52.4.4 77.9zM933 583.9c-14.7-2.7-30.5-12.9-43.9-18.9-.9-.4-1.7.5-1.3 1.4 26.7 49.5 131.4 121.9 181.8 134.6 1 .2 2-.3 2.4-1.2l27.9-69.8a2 2 0 0 0-1.5-2.7c-68.5-12.4-142-43-195.8-93.4-.8-.8-2.1.2-1.6 1.2a188.2 188.2 0 0 0 32.9 47.2c.6.6 0 1.7-.9 1.6zM857.5 551.5c2.4 0 8.7-2 11.8-3.1a1 1 0 0 0 .3-1.8c-14.9-10.7-17.6-10.3-13 4.1.1.5.5.8.9.8zM1149.9 396.9c-54.1-6.8-133.5-23.2-206.5-60.1-1-.5-2 .8-1.1 1.6 94.7 91.2 190.4 116.8 309.2 120.8 1.2 0 1.4-1.7.3-2-28-6.1-101.5-24.4-130.8-52.5-.7-.6-.2-1.8.8-1.7 8.6.6 23-1.8 28.5-4.2.8-.4.6-1.7-.4-1.9zM1089.9 178.9c148.5 56.5 255 46.8 289.9 41.2 1.2-.2 1.6 1.5.5 1.9-98.7 33.3-206.6.1-291.1-41.3-1.3-.6-.5-2.3.7-1.8zM1146.9 242.3c-8.7-6.7-23-14.6-34.5-8.1a1 1 0 0 0-.4 1.3c6.3 10.7 22 11.2 34.5 8.5.8-.1 1.1-1.2.4-1.7zM1058.3 469.2c-37.5-14.1-68.8-43.5-99.4-70.1-.9-.8-2.2.4-1.5 1.3a142 142 0 0 1 13.9 23.9c.4.8-.5 1.6-1.3 1.3-6.7-2.6-26.8-9.9-34.1-6.3-.6.3-.8 1.1-.3 1.6 69.2 68 145.2 127.5 233.9 149.9 1 .3 1.7-1.1.9-1.8-28.7-23.6-57.4-46.8-84.5-72.2l-26.5-27c-.3-.2-.7-.5-1.1-.6zM1224.8 512.4a158.5 158.5 0 0 0-68.6-15.8c-.8 0-1.4 1-.8 1.6 26.8 34 80.2 44.9 121 49.4l4.3.4c1.2.1 1.5-1.5.5-1.9l-2.5-1.1c-16.5-8-39.8-25.9-53.9-32.6zM1183.7 399.7c3 6.8 18.4 18.6 22.1 10.3 2.4-5.3-11.4-8.9-22.1-10.3zM1044.5 266.1l-8.9 2c-.9.2-1.1 1.5-.2 1.9 27.5 12.1 72.4 27 82.2 30.2.8.3.9 1.4.2 1.8-3.7 2.1-14.1 6.7-39.1 9.9-1 .1-1.2 1.5-.3 1.9 38.1 16.2 122.2 34.8 145.6 3.2.2-.3.6-.4.9-.4 6.8 1 70.6 10.2 116 5.5 1.2-.1 1.2-1.9 0-2-39.7-3.4-194.8-18.8-296-54.1l-.4.1zM1284.7 594.8c-.6 21.9 13.1 35.6 32.4 33.9 3.5-18.7-15.1-35.9-32.4-33.9zM338.1 232.8c-107.3 48.9-230.3 72.7-310 90.1-1 .2-1 1.7 0 2 112.3 26.7 260.3-33.7 311.2-90.5.7-.8-.2-2-1.2-1.6zM449.4 339.8c-95.3 75.7-257.3 111.7-324.4 78.5-1-.5-1.9.7-1.2 1.5a162.4 162.4 0 0 0 124 56.8c56.8 0 93.9-15.7 147.3-50.5.9-.6.4-1.9-.6-1.8-12 1.2-34.8 5.3-41.9 5 12.1-11.2 68.8-60 98.1-88 1-.9-.3-2.3-1.3-1.5zM39.6 525.7a69 69 0 0 0 60.4 30c-12.2 4.3-30.6 13.7-42.4 18.2-1 .4-.7 1.9.4 1.9 58.3-.5 112.7-6.1 162.3-42.2.8-.6.3-1.9-.7-1.8-60.6 4.9-120.1 12.2-178.9-7.7-.9-.2-1.7.8-1.1 1.6zM141.1 502.4c14.4 8.4 27.8-.8 35.1-11.9-18-9-29.8-3.8-35.1 11.9zM519.1 328.1c28.9-51.7 74.3-105.8 94.3-162.7.4-1.1-1.1-1.8-1.7-.9-40.7 54.1-85.3 93.7-132.5 139.2 12.7.4 25.8-4.9 37.2-9.4a108.4 108.4 0 0 0-13.5 33.9h16.2v-.1zM504.2 353.6c-38.5-1.7-66.6 34.5-91.7 64h2.8c32.2-12 64.2-37.8 88.9-64z"/>
  <path fill="#3CB3E0" d="M195.5 395.5c50.9 1.8 121.9-2.9 185.9-82.4.7-.9-.3-2-1.2-1.5-66.5 36.3-164 49.7-230.3 51-1.1 0-1.4 1.6-.3 2 35.3 10.5 80.3 6.3 80.3 6.3s-13.7 14.7-34.7 22.8c-1 .3-.8 1.8.3 1.8zM99.7 683.7c41.6-42.1 99.3-84.2 114.1-94.8.9-.6.3-2-.8-1.8C146.4 599 82.3 628.7 25.5 669a1 1 0 0 0 .4 1.8L98.8 684c.3.1.6 0 .9-.3zM120.5 373.2c-30.4-15.8-25.6 20.9-2 1.9 1.1-.9.7-.8 2-1.9zM245 617.2c9.2 0 16.5-6.6 23.6-18.1-13.2-.3-24.8 10.5-23.6 18.1zM138 251.3c-10.4-2.6-19.5 2.4-22.1 9.3a15.5 15.5 0 0 0 22.1-9.3zM514.3 159.2a36.4 36.4 0 0 0-28.8 23.3c-.3.7.2 1.4 1 1.4 2.8-.1 9-.7 13.4-2.9 7-3.5 13.1-12.9 15.5-20.5.2-.7-.4-1.4-1.1-1.3zM471.1 534.6a36.4 36.4 0 0 0-24.7 33.8c12.4-3.7 25.8-14 24.7-33.8zM404.2 544c9.6-2 12.5-7.3 12.3-14.7-8.3 1.4-12.5 6.2-12.3 14.7zM1031.5 559.9c-.8 0-1.2 1-.7 1.6 15.4 21.5 51.1 29.5 73.3 27.7 18.7-1.7-44.8-30.8-72.6-29.3zM1019.8 285c-3.9-10.2-16.7-18.4-32.4-16.1-.6.1-1 .8-.8 1.4a28.6 28.6 0 0 0 32.5 16c.6-.1.9-.7.7-1.3zM0 142.9v30.4l1.9.1c52.8 2.5 131.6 7.2 179.5-9.7a1 1 0 0 0-.3-1.9c-61.8-1.3-122-4.9-181.1-18.9zM33.6 214.2C25.7 211.4 13.3 209 0 208v16.5c12.7-1.5 27.3-4.9 33.6-7.9 0 .1.2-2.4 0-2.4zM79.8 270.2c1.9-2.2 5.9-6.9 8.8-9.8.6-.6.2-1.7-.6-1.7A1350 1350 0 0 0 0 256v32.9c35.8 1.4 71.8.3 103.8-11.9 1-.4.8-1.9-.3-1.9a111 111 0 0 1-23.1-3.3c-.8-.1-1.1-1-.6-1.6zM42.8 387c2.6-2.9 4.7-6.5 7.8-9.3.6-.6.3-1.6-.6-1.7-18-2.3-34.5-4.4-50-7.1v35c21.7.3 43.9-.8 66.5-2.2 1.1-.1 1.3-1.6.3-1.9-8-2.8-15.8-8.2-23.5-11.1-.7-.3-1-1.2-.5-1.7zM77.4 469.2c-28.3 2.9-53-2.3-77.4-9.3v20.4c31.9 5.3 65.9 2.1 87.5-8l-10.1-3.1zM0 615.3v19.6c30-10 47.5-24.1 47.5-24.1s-21.1 3.7-47.5 4.5z"/>
  <path fill="#3CB3E0" d="M1320.8 166.1c-49.5.9-175.6-1.6-204.1-27.4-.8-.7 0-2.1 1-1.7 30.6 10.7 103.2 16.6 139.6 11.9 1.1-.1 1.2-1.8 0-2-36.4-5.6-57.6-12.5-72.1-20.8-1-.6-.4-2.1.7-1.8 72.1 16.4 173.1 19.8 254.1 0V-.1l-.3.1H0v128.4c78.3 22.3 256.9 10.4 355.8-4.9 1.2-.2 1.6 1.6.5 1.9A490.1 490.1 0 0 1 226.7 151c-1.1 0-1.3 1.5-.4 1.9 61 23.1 221.5-33 221.6-33-50.4 26.2-156.9 66-350.5 83.1a1 1 0 0 0-.3 1.9c33.7 13.3 84.6 17.8 96.9 18.7.9.1 1.3 1.3.5 1.8-4.3 3-14.3 9.2-26.4 12.7-1 .3-.9 1.8.1 1.9 65.3 10.4 308.3-65.1 420.7-152.7.9-.7 2.1.4 1.4 1.4-35.2 49.5-95.8 131.1-115 150.3-.8.8.1 2 1.1 1.6 56.1-22.2 133.6-92.5 188-153.8.7-.8 2.1-.1 1.7 1a1005 1005 0 0 1-86.5 188.7c-.5.9.5 1.9 1.4 1.3 54.1-35 93.3-103.9 115.6-177.1.4-1.2 2.1-.8 1.9.4-6.5 74.9-32.6 161.1-71.2 225.1a1 1 0 0 0 .8 1.6 527.9 527.9 0 0 0 107.5-195.5c19.9 78 68.2 179.6 113.2 210.6.8.6 1.9-.3 1.5-1.2-7.3-17.4-15.1-35.7-19.5-53.4 22.3 19.3 48.8 46.2 76.8 28.4a1 1 0 0 0 0-1.7c-59.8-41-107.6-89-139.4-178 12 16.5 25.2 30.5 32 36.8.8.7 2-.1 1.6-1.1-4.5-11.6-15.5-33.8-20.5-64-.2-1 1.2-1.6 1.8-.8 62.5 85.5 186.1 140.7 243.3 134.6 1-.1 1.2-1.6.2-1.9-74.1-27.9-145.9-76.3-197.6-142.7-.7-.9.4-2.1 1.4-1.4 70.8 52.4 178.5 95.7 250.9 102.5 1.1.1 1.5-1.5.5-1.9-23.8-10.4-47.6-20.7-70.5-33.4-19.4-10.7-48.1-33.7-58.8-57-.4-.9.6-1.8 1.4-1.3 98.7 58.5 259.4 91 367 62.6a1 1 0 0 0-.1-1.9zM1440 152.3s-5.9 3-16.9 17.7c-.3.5-.2 1.1.2 1.4a328 328 0 0 0 16.6 10.3v-29.4zM1440 253.9a363.1 363.1 0 0 1-143-.2h-.4l-61 12c-1 .2-1.1 1.6-.1 1.9 120.7 37.6 204.6 6.8 204.6 6.8l-.1-20.5zM1440 305.9a144 144 0 0 0-30.7 17.7c-.8.6-.3 1.8.6 1.8 9.8-.2 19.9-.6 30.1-1.2v-18.3zM1440 397.3v-27.8c-79.4-15.4-167.5.5-246.5-14.1a2 2 0 0 0-2.3 1.6l-1.4 7.3a2 2 0 0 0 1.4 2.3c72.9 22.5 133.8 53.6 210.5 44.7 1.1-.1 1.2-1.6.2-2-5.3-1.7-10.6-4-16-5.4-1-.3-1-1.7 0-1.9 17.7-4.5 35.9-3.8 54.1-4.7zM1440 439c-8.4.5-16.4.8-23.6.6 7.8 3.7 15.7 7.3 23.6 10.8V439zM1440 559.2v-14.5a105.6 105.6 0 0 0-15.1-15.4c-.7-.5-.4-1.7.5-1.8 4.4-.5 9.4-.7 14.7-.5v-27c-9.3-4.4-18.5-8.4-27.5-12.1-10.1-4.1-121.9-52.6-145.2-62.8-1-.4-1.9.8-1.1 1.6 29.2 31.4 80.5 66.1 97.1 76.9 1 .6.3 2.1-.8 1.8-15.9-4.6-54.6-16.9-70.8-21.3-1.1-.3-1.8 1.2-.8 1.8a1231.2 1231.2 0 0 0 149 73.3zM1440 602.8s-55.7-19.2-120.9-49.5c-1-.5-1.9.8-1.2 1.6 51.4 56.9 122.1 97.4 122.1 97.4v-49.5zM1346.4 193.6c33.3 26.4 59.3-27.3 0 0zM1241.3 488.5c3 6.8 18.6 17.1 22.4 8.8 2.4-5.2-11.2-5.3-22.4-8.8zM0 540.3v23s12.1 1.8 28.2-3.4C12.2 555.8 0 540.3 0 540.3z"/>
</svg>