<svg width="1440" height="735" viewBox="0 0 1440 735" fill="none" xmlns="http://www.w3.org/2000/svg">
<path d="M745.7 244.496C752.4 302.892 807.4 399.278 871.4 429.018C827.6 378.655 769.3 300.721 749 245.582L745.7 244.496Z" fill="#009EE2"/>
<path d="M762.5 509.882C745.7 410.675 733.7 320.15 732.6 221.051C703.4 279.012 716.7 420.769 732.6 483.507C739.9 512.596 753.6 540.166 764.8 567.735L762.5 509.882Z" fill="#009EE2"/>
<path d="M1048.8 349.348C971.9 318.414 884.9 255.35 822.2 199.343L807.6 184.798C861.3 245.69 963.6 359.877 1048.8 349.348Z" fill="#009EE2"/>
<path d="M880.6 362.807C879.7 389.183 917.8 405.573 936 416.536C922.1 408.178 903.8 372.142 880.6 362.807Z" fill="#009EE2"/>
<path d="M654.2 411.76C669.5 431.515 692 388.64 690.3 372.793L693.9 360.419C697.6 335.563 700.3 308.645 700.4 283.571C689.9 302.349 641.7 395.479 654.2 411.76Z" fill="#009EE2"/>
<path d="M625.2 309.73L627.8 301.481C572.4 351.844 524.2 409.155 477.2 469.613C546.6 435.531 580.7 372.902 625.2 309.73Z" fill="#009EE2"/>
<path d="M626.9 384.082C581.8 429.778 535.2 473.63 503.1 532.351C521.6 523.342 539.2 507.712 556 494.47C553.2 508.363 546.8 524.21 551.9 535.933C557.9 527.25 565.7 519.977 570.4 509.774C574.3 521.822 577.1 534.413 579.4 547.004L606 473.738C607.8 442.912 627.3 415.125 626.9 384.082Z" fill="#009EE2"/>
<path d="M696.9 419.032C685.9 423.049 683.8 425.979 680.1 438.462C682 438.57 684 438.462 686 438.462C692.9 433.36 698.5 430.755 696.9 419.032Z" fill="#009EE2"/>
<path d="M689.2 438.679C688.1 438.57 687 438.462 685.9 438.462C685.8 438.57 685.7 438.57 685.6 438.679H689.2Z" fill="#009EE2"/>
<path d="M469.4 220.074L458.9 225.501C409.7 255.459 347.8 287.479 308.3 333.609C349.8 307.234 459.8 282.16 469.4 220.074Z" fill="#009EE2"/>
<path d="M1015.5 567.844L877.8 473.521C826.2 457.891 798.9 423.591 774 375.833C767.1 419.25 805.6 525.187 846.6 542.662C843.2 522.908 834.3 505.432 831.3 484.918C865 514.55 974.7 564.262 1015.5 567.844Z" fill="#009EE2"/>
<path d="M699.3 458.65C673.5 488.825 655.5 572.186 654.8 617.231C660 608.548 671.3 598.887 675.6 590.855C673.7 634.272 680.8 675.952 678.2 718.284L725.9 672.153C708.3 634.381 698.7 500.656 699.3 458.65Z" fill="#009EE2"/>
<path d="M603.3 686.807L612.1 669.983C626.7 598.779 643.5 528.661 655.3 456.806C624.3 526.49 610.2 608.874 603.3 686.807Z" fill="#009EE2"/>
<path d="M548.5 630.582C536.7 651.205 506.6 713.617 519.7 730.441L544.8 715.028C557.5 677.364 569.3 642.521 573.6 603.012C567.2 615.82 557.7 626.132 550.4 638.18C548.7 636.443 550.2 632.21 548.5 630.582Z" fill="#009EE2"/>
<path d="M454.6 683.876C459.8 684.093 465.3 684.311 470.7 684.093L481.7 663.036C503.4 631.45 531.1 593.895 538.9 553.734C516.5 573.054 449 648.926 454.6 683.876Z" fill="#009EE2"/>
<path d="M486 513.03V512.813C488.2 506.301 491.4 501.85 489.9 493.601C471.6 491.865 469.9 492.95 465.2 508.797C471.9 513.682 476.4 511.728 483.5 513.03H486Z" fill="#009EE2"/>
<path d="M256.5 545.485C268.1 555.145 284.9 555.579 300.7 553.951C288 567.41 272.8 578.807 257.9 589.77C307.1 584.668 417.7 530.397 443.9 475.149L421.4 469.831C376.6 509.449 311.8 543.748 256.5 545.485Z" fill="#009EE2"/>
<path d="M418.5 338.603C428.4 338.168 435.9 333.718 441.9 325.143C437.6 322.43 432 322.213 427.3 325.143C422.6 328.074 419.4 333.175 418.5 338.603Z" fill="#009EE2"/>
<path d="M745.5 683.225L783.7 681.922C774.5 656.849 767.8 629.279 756.8 606.051C748.5 630.582 744.7 657.283 745.5 683.225Z" fill="#009EE2"/>
<path d="M935.9 605.725C919.4 603.88 901.3 591.398 886.5 585.319C911.2 635.466 1020.8 711.229 1071.3 722.843L1100.7 649.142C1029.8 636.769 953.3 604.857 898.6 551.563C907.9 571.969 920.8 590.529 935.9 605.725Z" fill="#009EE2"/>
<path d="M856.8 558.727C858.7 559.595 864.1 560.789 865.6 562.743L871.2 555.145C862.8 542.988 860.4 537.018 856.8 558.727Z" fill="#009EE2"/>
<path d="M1148.3 412.52C1087.3 376.918 988 405.139 937.5 355.209C1036.8 453.115 1136.7 478.188 1262.8 481.01C1221.3 453.875 1162.9 462.015 1126.8 424.568C1138.7 422.614 1139.9 416.97 1148.3 412.52Z" fill="#009EE2"/>
<path d="M1048.8 252.094C1124.4 283.246 1294.6 248.512 1367.8 212.693L1388.2 189.682C1318 236.464 1129.6 253.071 1048.8 252.094Z" fill="#009EE2"/>
<path d="M1141 225.501C1136.5 225.067 1096.8 199.777 1096.8 224.416C1104 237.115 1128.8 250.141 1141 225.501Z" fill="#009EE2"/>
<path d="M1058.9 490.888C1018.3 475.909 985 442.912 952.1 414.691C958.6 422.506 960.5 433.903 965.4 442.478C957.7 441.609 949.1 445.191 940.9 442.695C1011.4 512.162 1082.9 571.86 1173.8 593.46C1144 568.821 1114.1 544.833 1085.9 518.458L1058.9 490.888Z" fill="#009EE2"/>
<path d="M1154.1 517.915C1183.5 557.316 1246.7 569.69 1290.1 570.341C1271.4 570.124 1242.8 542.337 1224.8 533.871C1200.5 522.474 1181.2 518.675 1154.1 517.915Z" fill="#009EE2"/>
<path d="M1135.6 505.65L1141.4 499.354C1135 495.772 1129.6 492.407 1122.1 491.756C1121 495.338 1120.2 500.657 1119.7 504.347C1124.7 505.867 1130.3 504.564 1135.6 505.65Z" fill="#009EE2"/>
<path d="M1187.2 431.949L1202 435.748C1196.2 427.716 1198.3 417.621 1183.3 423.374C1181.8 429.018 1186.6 428.367 1187.2 431.949Z" fill="#009EE2"/>
<path d="M1340.6 280.098C1373.3 262.84 1481.3 281.943 1482 221.594C1419.5 250.9 1367.9 277.819 1296.8 275.105L1231.7 287.913C1317 313.855 1420.5 303.109 1503.9 270.872C1450.6 272.066 1393.7 297.139 1340.6 280.098Z" fill="#009EE2"/>
<path d="M1044.8 287.479L1034.7 290.193C1055.5 299.419 1071 318.197 1091.9 327.314C1087.6 328.617 1080.9 332.741 1075.2 333.827C1111.7 350.434 1200.9 371.274 1224.5 338.06C1240.4 334.478 1334.9 353.907 1350.6 349.457C1335.6 338.06 1243.8 321.887 1226.2 320.802C1163.6 316.894 1106 304.954 1044.8 287.479Z" fill="#009EE2"/>
<path d="M1263 444.757C1272.3 465.814 1352.2 513.03 1368.5 528.552C1360.3 526.815 1293.3 505.215 1285.1 503.912C1301.8 535.715 1422.2 570.232 1454 575.116C1444.6 565.239 1434 556.556 1422.8 549.392C1450.1 544.724 1477.2 561.44 1505.5 558.618C1477.6 539.189 1443.4 521.931 1412.5 509.34C1401.2 504.781 1263.7 446.494 1263 444.757Z" fill="#009EE2"/>
<path d="M1388.5 643.607C1418.6 671.394 1446.7 714.377 1481.5 735L1482.6 679.426C1437.7 652.508 1380.6 598.345 1331.8 584.452C1342.1 610.719 1366.4 623.201 1388.5 643.607Z" fill="#009EE2"/>
<path d="M1284.7 616.254C1284.1 638.18 1297.8 651.856 1317.1 650.12L1314.9 636.226C1308.1 622.333 1298.3 614.952 1284.7 616.254Z" fill="#009EE2"/>
<path d="M1191.5 376.484L1189.4 387.447C1264.6 410.458 1326.9 443.02 1406.6 432.058C1398.4 430.212 1390.3 425.979 1381.9 424.46C1417.8 413.931 1455.6 426.196 1491 406.333C1399.2 366.824 1288.4 395.045 1191.5 376.484Z" fill="#009EE2"/>
<path d="M1416.4 461.038C1466.4 484.809 1517.4 503.804 1571.7 502.936L1542.3 467.768C1512.2 449.424 1454.2 462.015 1416.4 461.038Z" fill="#009EE2"/>
<path d="M1407 346.852C1461.4 346.201 1523.7 336.974 1576.9 347.069L1615.8 288.347C1557.1 295.186 1451.4 309.947 1407 346.852Z" fill="#009EE2"/>
<path d="M1452.9 177.743C1437.9 168.951 1425.4 175.029 1423.5 193.373C1428.9 197.823 1436.6 203.25 1443.5 204.118L1447.4 196.52C1450.8 190.985 1453.1 184.255 1452.9 177.743Z" fill="#009EE2"/>
<path d="M342.3 252.311C270.8 301.59 104.5 327.531 23.9004 345.224C128.3 372.142 259.3 324.383 329.6 266.639L342.3 252.311Z" fill="#009EE2"/>
<path d="M466.7 346.418C373.2 433.794 189.4 476.777 121 437.593C143.1 467.551 189.8 498.052 247.8 498.052C305.8 498.052 343.2 481.662 398.4 445.408C388.3 445.843 360.6 451.053 352.6 450.727C367.8 436.725 453.3 363.242 466.7 346.418Z" fill="#009EE2"/>
<path d="M37.9004 544.616C52.1004 566.542 75.3004 578.373 100 577.07C85.6004 582.172 62.4004 594.328 51.9004 597.259C113.6 597.042 171.1 592.158 223.1 552.974C160.3 558.075 98.7004 566.107 37.9004 544.616Z" fill="#009EE2"/>
<path d="M87.5 493.818L77.4 490.671C21.6 496.315 -20.3 470.699 -73 462.015C-44.2 506.952 45.4 513.465 87.5 493.818Z" fill="#009EE2"/>
<path d="M139 522.474C148.4 528.769 154.2 524.21 163.1 524.753L176.2 511.945C158.2 502.936 146.4 498.269 139 522.474Z" fill="#009EE2"/>
<path d="M109.6 296.054C99.2996 297.574 88.5996 294.969 78.6996 292.906C82.5996 289.976 86.6996 283.246 90.2996 280.315C2.3996 273.803 -89.1004 282.595 -177.2 267.29C-182.6 266.313 -188.2 265.445 -193.4 264.251L-84.2004 306.365C-22.9004 306.365 50.7996 321.344 109.6 296.054Z" fill="#009EE2"/>
<path d="M186.3 183.387C89.3998 181.541 -3.40021 174.595 -94.5002 131.612L-139.2 164.175C-99.2002 195.109 -45.3002 192.83 1.8998 194.892C56.4998 197.497 139 202.382 186.3 183.387Z" fill="#009EE2"/>
<path d="M-56.4004 239.829C-42.9004 245.473 -28.0004 243.194 -13.2004 243.194H1.79961C12.6996 245.256 23.6996 242.76 33.5996 238.092C33.5996 238.092 33.7996 235.596 33.5996 235.596C13.1996 228.215 -37.6004 223.873 -56.4004 239.829Z" fill="#009EE2"/>
<path d="M519.1 349.565C549 296.054 596.6 240.046 615.4 180.89C573.7 237.549 527.8 278.253 479.2 325.143C491.9 325.577 505 320.259 516.4 315.7C510.2 325.794 505.5 337.408 502.9 349.565H519.1Z" fill="#009EE2"/>
<path d="M504.2 375.073C465.7 373.336 437.6 409.589 412.5 439.113H415.3C447.5 427.065 479.5 401.232 504.2 375.073Z" fill="#009EE2"/>
<path d="M206.9 409.155C268.3 388.966 339.7 411.217 384.6 330.57C327.7 339.579 270.9 364.653 212.7 372.685C191.2 375.615 169.1 383.431 147.4 377.135C167.4 395.479 199.8 391.897 229.9 392.331C223.5 400.58 215.5 406.442 206.9 409.155Z" fill="#009EE2"/>
<path d="M72.6996 422.832C62.1996 421.095 51.8996 412.954 41.7996 409.59C45.3996 406.008 47.7996 401.123 52.2996 397.758C-14.9004 389.292 -59.6004 383.648 -118.5 341.533L-175.9 360.528C-104.2 431.081 -18.2004 428.585 72.6996 422.832Z" fill="#009EE2"/>
<path d="M99.2996 705.584C137.3 669.331 185.2 651.422 217.4 607.896C148.4 619.293 82.0996 650.011 23.5996 691.908L99.2996 705.584Z" fill="#009EE2"/>
<path d="M44.4998 616.255C0.499802 615.603 -38.2002 614.518 -79.7002 596.825C-97.5002 589.227 -115.2 576.636 -133.2 572.403C-128.5 629.714 -48.6002 640.46 -9.5002 638.94L5.6998 631.559C19.9998 632.427 36.2998 630.148 44.4998 616.255Z" fill="#009EE2"/>
<path d="M109.6 411.977L118.2 406.116C118.4 360.528 66.5995 405.356 109.6 411.977Z" fill="#009EE2"/>
<path d="M245 638.614C254.7 633.513 261.7 627.869 268.6 620.488C263.7 620.922 258.1 622.333 254.2 625.155C249.7 628.303 246 633.513 245 638.614Z" fill="#009EE2"/>
<path d="M-14.7998 589.878C-5.9998 590.095 3.30021 590.964 12.1002 590.095L13.4002 580.218C0.000192642 580.652 -8.0998 577.07 -14.7998 589.878Z" fill="#009EE2"/>
<path d="M130.5 279.664L138 272.717C129.2 272.934 121.2 272.283 113.1 274.996C120.1 283.68 123.4 278.578 130.5 279.664Z" fill="#009EE2"/>
<path d="M515.8 180.456C501 181.976 490.4 191.419 484.9 205.312L499.9 202.382C505.7 196.412 511.8 187.837 515.8 180.456Z" fill="#009EE2"/>
<path d="M466.2 586.514C468.8 578.047 470.3 566.108 471.1 556.013C456.3 561.332 459.9 571.86 460.1 586.514H466.2Z" fill="#009EE2"/>
<path d="M401.4 568.821L410 560.355C412.4 556.122 416.9 552.323 419.4 547.33C400.7 554.059 393.2 559.595 401.4 568.821Z" fill="#009EE2"/>
<path d="M1242 508.797C1247.6 516.612 1253.8 515.744 1262 518.24L1263.1 514.007C1257 512.162 1250.4 507.386 1242 508.797Z" fill="#009EE2"/>
<path d="M1098.5 601.275C1076.8 591.832 1052.5 579.35 1029.7 581.52C1044.5 604.097 1074.4 606.594 1097.4 609.741L1098.5 601.275Z" fill="#009EE2"/>
<path d="M1014.3 299.419C1004.6 295.186 993.2 294.317 982.9 295.403C991.7 304.086 1003.5 310.599 1015.8 309.513L1014.3 299.419Z" fill="#009EE2"/>
<path d="M-0.200195 69.4171L-15.7002 66.7036C-16.6002 66.9207 -17.4002 67.0292 -18.2002 67.2463C-43.9002 58.9971 -66.2002 51.182 -82.2002 44.778C-72.3002 60.2996 -58.2002 68.8744 -44.2002 77.0151C-52.1002 82.0081 -55.5002 87.6523 -55.8002 93.6221C-57.6002 93.9477 -59.4002 94.2734 -61.1002 94.7075C-59.4002 95.9015 -57.5002 97.0955 -55.5002 98.2894C-50.9002 122.277 -4.3002 148.545 -4.3002 148.545C74.8998 173.618 271.2 159.399 368.4 142.792C320.6 158.856 273.7 170.796 222.7 172.532C269.9 197.389 387.5 163.198 445.2 143.117C445.2 143.117 445.2 143.117 445.3 143.117C394.4 169.493 289.5 207.917 93.2998 224.85C139.3 240.046 170.4 243.302 196.8 245.364C185.2 248.295 174.3 256.327 163.9 260.778C223 275.865 482 196.086 594.4 104.585C557.2 157.337 484.3 255.459 471.4 264.142C528.9 243.953 611.6 168.734 667.7 104.693C644.4 175.138 612.1 244.171 577.5 301.698C635.9 265.879 677.5 190.768 699.6 112.291C692.4 196.412 661.3 297.031 620.3 349.24C650.7 355.752 709 235.487 735.6 153.972C755.9 233.533 805.8 337.734 851.6 366.389C843.9 348.046 835.5 328.725 830.8 309.947C853.4 329.485 880.4 356.946 908.8 337.517C848.4 296.379 800.2 248.295 768.2 158.639C782.2 177.96 798 193.807 803.1 197.931C799.9 187.294 785.8 162.004 780.7 126.185C843.8 215.624 974.4 273.043 1030.4 263.6C952.8 235.161 877.5 184.255 824.7 113.702C897.2 169.493 1013.1 216.058 1087.4 221.051C1061.8 209.871 1036.1 198.908 1011.4 185.232C991.2 174.052 960.9 149.63 951.4 125.425C1052.2 186.317 1220.2 219.857 1328.7 187.403C1284.9 188.705 1136.2 187.403 1113.7 157.011C1143.2 169.385 1228.7 176.114 1263.7 169.385C1218.4 162.872 1195.2 154.623 1179.9 144.42C1274.5 167.431 1424 167.54 1509.2 119.781L1483.2 2.1208C1492.1 -4.28321 1469.9 8.52481 1439.7 21.4414H-0.300201V69.4171H-0.200195ZM1482.8 2.33788C1478.8 24.5891 1458.2 38.0484 1439.8 49.2282V26.3258C1454.9 19.9218 1469.4 11.8896 1482.8 2.33788Z" fill="#009EE2"/>
</svg>
