<?xml version="1.0" encoding="utf-8"?>
<!-- Generator: Adobe Illustrator 23.0.3, SVG Export Plug-In . SVG Version: 6.00 Build 0)  -->
<svg version="1.1" id="Layer_1" xmlns="http://www.w3.org/2000/svg" xmlns:xlink="http://www.w3.org/1999/xlink" x="0px" y="0px"
	 viewBox="0 0 1440 624.9" style="enable-background:new 0 0 1440 624.9;" xml:space="preserve">
<g>
	<path d="M499.9,142c-33.4,44.3-88.1,91-102.4,146.4c67.6-13.4,136.6-55.8,200.3-81.8c24.1-9.9,54.3-18.5,70.5-36.9
		c-57.5-10.3-100.1,13-152.9,24.8c-1-16.8,1-32.7,6.7-48L499.9,142z"/>
	<path d="M828.8,271.5c41.1,3.4,66.3-15.5,97.5-39.2c42.8-32.5,180.2-66.1,225.7-94.2l19.3-40.7c-32.3,6.3-301.5,113.9-298.9,18
		c-6.9,18.9-5,38.8-4.6,59.8c8.4-1,21.2,5,30.8,2.3C882.1,212.1,835.1,233.7,828.8,271.5z"/>
	<path d="M274.8,193l-1.9-32.7c-70.1,56.4-137.2,132-211.9,182.9c40.7,5,114.3-32.7,150.8-49.7c36.3-17,68.6-41.5,106.4-55.6
		c1.3,21.6-15.7,38.6-14.1,60.4c22.2,8.2,83.5-67.6,100.9-85.4c23.7-24.3,65.5-56,79.3-87.1c-27.7,2.1-57.3,18-79.7,34.2
		c2.1-9.9,5.5-20.6,6.5-31C369.6,133.8,316.7,175.8,274.8,193z"/>
	<path d="M382.6,340.7c-15.7-1.9-33.8-1-49.3,1c5-21.4,39-25.4,42.8-48.5c-15.9,2.1-140.3,75.1-131.7,86.2
		c8.4,10.9,50.1-5.7,55.2,10.9c2.9,9.6-16.6,20.3-16.2,30.6c18-0.8,42.2-28.7,55.8-40.5C350.7,370.5,376.9,355.2,382.6,340.7z"/>
	<path d="M583.8,301.7c28.5-23.7,64-44.1,66.7-83.1l-53.7,34.6c-42.4,21.8-87.7,43.8-134.7,58.5c-23.1,7.3-49.5,10.3-68.2,25.8
		c8,7.8,18.9,14.7,26.9,22.2c-15.9,22-46.2,34-66.9,52C455.4,429.6,603.3,355,671,280.7C640,279.6,613.1,296.4,583.8,301.7z"/>
	<path d="M706.5,277.1c29,2.3,61.9,6.9,82.4,29c3.4-26.9,12.2-63.4,29.4-85l-23.9,5.7C769.2,247.8,735.5,263.3,706.5,277.1z"/>
	<path d="M1060,282.2c2.3,37.6-10.3,72-18.7,106.2c57.7-39.9,98.2-141.2,115.4-206.8c-41.1,1-81.2,17.2-121.9,23.7l-30.6,26.4
		c-73.6,74.3-183.8,37.6-182.9,159C886.9,331.5,969.8,285.7,1060,282.2z"/>
	<path d="M240.6,50.8l-17.2,6.3c-22.7,9.4-45.3,23.7-65.9,37.3C181.6,106.8,253.8,87.3,240.6,50.8z"/>
	<path d="M1171.5,410.1c18.9-79.1,139.8-93.1,172.3-173.2c-58.5-12.4-97.1,9.7-139.9,45.5c-10.3,8.4-119.8,99-118.7,99.2
		c79.9,15.9-14.2,86.5-46.7,120.5c31,0,55-14.3,88-32.1c0,0,6.5,12.4,7.3,17.8c0,0,23.3-1.4,34.7-29.7
		C1176.1,439,1167.7,426.2,1171.5,410.1z"/>
	<path d="M1396.3,296.4l-33.8,3.6c-37.1,27.1-76.4,51.8-115,76.6c-11.8,7.6-24.1,12.6-27.3,25c0.6-2.7,8.2,12.6,7.8,12
		c5,10.5-17,9.9,6.3,13.2c32.7,4.8,93.2-26,124.6-37.3c21.8-8,48-15.1,67.1-29.8c-17.4-3.8-38.2-0.8-56.4-1.5
		C1372.2,340.5,1453.8,296,1396.3,296.4z"/>
	<path d="M1412.2,425.4c3.2-7.6,2.7-19.5,4-28.1l-13.4-3.4c-35,19.5-53.1,54.1-95.5,60.6c-26.6,4.2-52.4-3.4-78.7-0.6
		c-16.4,1.7-15.5-1-27.1,14.9c-9.9,13.4-13.6,26.2-15.1,41.5c2.3-0.6,156.5,83.9,108.2,2.9C1334.4,496.6,1395.2,467.2,1412.2,425.4z
		"/>
	<path d="M251.9,433.8c-38-19.5-44.5-17.6-89.4-3.4c37.1,21.4,21,49.9,24.3,83.5c12.2-12.2,22.7-34.8,38.4-42.8
		c17.2-8.8,40.9-1,60.2-5c14.3-2.9,34.4-10.5,48-17.6C317.6,456.9,267,441.6,251.9,433.8z"/>
	<path d="M28.1,150.2c-3.5,0-15.5,0.3-28.1,0.7v21C11.8,165.4,21.6,158.2,28.1,150.2z"/>
	<path d="M146,154.6l19.7-38c-51.5,17.1-114.5,43.8-165.7,82v64.1C27.4,237,54.2,209,77.6,196.6C101.5,183.8,122.5,166.1,146,154.6z
		"/>
	<path d="M156.4,199.5l-63.4,35C67.4,253.9,34.5,279,0,306.7v49.7C36.3,302.7,134.5,273.3,156.4,199.5z"/>
	<path d="M231.1,360.2C170.5,341.8,69.3,378.3,0,385.8v76.3c64.8-17,131.3-41.9,181.6-66.3C209.5,382.2,212,388.9,231.1,360.2z"/>
	<path d="M121.2,538.9c14.9-14.5,39.2-40.7,34.8-55.2l-30.6-26.2C84.9,483.5,44,503.9,0,518.2v34.2c5.6-0.2,11.3-0.3,16.9-0.2
		C12,559.7,6.2,566.5,0,573v43.9c55.2-8.4,111.1-41.3,164.2-51.1c24.5-4.4,46.4-0.4,66.1-17.2C205.7,526.6,152.9,536.6,121.2,538.9z
		"/>
	<path d="M0,0v119.7C97,106,195.4,10.7,301,22c-25,61.3-104.1,96.5-128.8,162.6c74.9-39.1,223-123.1,294.4-163.8
		c10.2,27.6-84.4,84.7-84.4,84.7c48.5,5.7,152.5-29.6,200.8-35.7c-6.9,29.8-25.6,56-39.4,80.8C589,118.8,683,78.8,703.1,17.6v70.5
		c-21.4,1-40.5,11.5-48.7,30.8c102.6,42.2,60,43.2,9,127.5c60-8.8,169.5-64.4,165.3-141.2c-19.1-2.1-38.8-1-57.9-1.7
		c16-13.8,70-32,119.3-51.8c-16.3,14-29.8,29.9-37.9,48.4c23.4,3.9,50.2,7.8,77.2,9.5c-0.4,4.2-0.3,9.2,0.2,13.2
		c52.2,5.7,99.9-13,149.6-25.8c37.1-9.7,100.5-12.6,126.1-42c-36.7-9.4-77.2-1.5-115-1c11.9-8.7,40.8-20.1,65.3-32.1
		c18.6,0.7,85.1,11.9,120.2,12.7c-28.9,30-53.7,57.8-86.5,86.3c43.6,12.4-10.9,97.8-14.5,132.8c47.6-16.2,99.6-80.3,139.7-112.7
		c25.5-20.6,82-41.9,125.3-62.8V0H0z"/>
	<path d="M1440,175.4v-69.6c-51.9,28.6-107.6,64.9-144.8,100.9C1344.2,204.5,1391.6,185.8,1440,175.4z"/>
	<path d="M1390.4,247.5c14.1-4.8,31.1-10.4,49.6-16.8v-35.3C1425.5,212.9,1401.5,228.6,1390.4,247.5z"/>
	<path d="M1365,541.6c19.7-1.7,50.6-10.6,75-25.2v-32.5C1409.8,494.7,1384.4,512.8,1365,541.6z"/>
</g>
</svg>
