<svg width="82" height="91" viewBox="0 0 82 91" fill="none" xmlns="http://www.w3.org/2000/svg">
<path d="M81.9673 51.4181C81.8139 50.8084 68.6973 15.8775 63.0518 0.896208C62.8524 0.378035 62.3615 0.0122655 61.7938 0.0122655C61.2722 0.0122655 60.72 0.332314 60.4898 0.850486L54.3994 14.9936L50.9937 11.4121C50.7176 11.1225 50.3494 10.9853 49.9659 10.9853C49.567 10.9853 49.1988 11.1682 48.9534 11.4578L45.3789 15.5422L41.8658 11.5797C41.605 11.2901 41.2368 11.1225 40.8533 11.1225C40.4851 11.1073 40.0862 11.2749 39.8254 11.5645L36.6191 14.9936C34.5174 10.6348 32.6611 7.17524 31.6793 5.37688C28.8105 0.149429 28.6111 0.118948 27.8747 0.0122655C27.4145 -0.048696 26.9389 0.118948 26.6321 0.484717C26.4787 0.652362 26.3866 0.850486 26.3253 1.06385L17.7343 37.0159C17.5655 37.7474 18.0104 38.4942 18.7621 38.6619C19.4985 38.8295 20.2502 38.3875 20.419 37.6408L28.2429 4.90443C29.8384 7.7239 32.4003 12.5094 34.9776 17.9807C35.1771 18.3922 35.5606 18.6817 36.0208 18.7579C36.4811 18.8341 36.9413 18.6665 37.2481 18.3312L40.8072 14.5363L44.351 18.5141C44.6118 18.8037 44.9954 18.9713 45.3789 18.9713C45.7778 18.9713 46.1613 18.8037 46.4221 18.4988L50.0272 14.3687L53.8318 18.3769C54.154 18.7122 54.6142 18.8646 55.0744 18.7884C55.5347 18.7122 55.9182 18.4074 56.1023 17.9807L61.6711 5.07207C67.3933 20.3125 76.2911 43.9808 78.6844 50.4427L74.5576 50.5646C74.0974 50.5798 73.6832 50.8237 73.4377 51.2047C73.1922 51.5857 73.1616 52.0734 73.3303 52.4849L75.7849 58.1238H71.5968C71.1672 58.1238 70.7684 58.322 70.5076 58.6572C70.2468 58.9925 70.1547 59.4193 70.2621 59.8308C70.2774 59.8917 71.7962 66.247 67.2246 72.0383C62.3154 78.2716 52.0216 81.6397 37.4322 81.8379C38.276 79.2622 39.1658 76.6561 40.7459 75.254C43.4152 74.2329 46.0539 72.7546 48.171 70.6209C51.1471 67.6186 52.5892 63.778 52.4818 59.2211C52.4818 59.2059 52.4818 59.2059 52.4818 59.1907C52.4818 59.1145 52.4511 59.0535 52.4358 58.9773C52.4204 58.8706 52.4051 58.7639 52.3591 58.6725C52.3591 58.6572 52.3437 58.6572 52.3437 58.642C52.129 58.1848 51.6534 57.8495 51.1011 57.8495C51.0858 57.8495 51.0858 57.8495 51.0704 57.8495C50.8403 57.8495 50.5028 57.9105 49.0607 58.1391C19.5905 62.9246 9.03589 60.2422 5.38472 57.1484C4.09607 56.0664 3.48242 54.7557 3.48242 53.125C3.48242 53.0793 3.49776 53.0488 3.49776 53.0183C4.84778 53.9632 6.48927 54.5423 8.26884 54.5423C12.8405 54.5423 16.553 50.8542 16.553 46.3125C16.553 45.3067 16.3536 44.3465 16.0314 43.4473C27.3685 40.9327 42.2033 42.0605 42.4027 42.0757C43.1544 42.1519 43.8294 41.5728 43.8908 40.826C43.9522 40.064 43.3846 39.4086 42.6328 39.3477C41.7584 39.2715 26.4327 38.1132 14.5894 40.9936C13.0706 39.2258 10.8155 38.0827 8.28418 38.0827C3.71254 38.0827 0 41.7709 0 46.3125C0 47.8061 0.414209 49.2082 1.1199 50.4274C0.874441 51.2809 0.736371 52.1801 0.736371 53.125C0.736371 55.5634 1.70286 57.6209 3.62049 59.2364C4.67903 60.1203 6.05972 60.8671 7.70122 61.4767C7.70122 61.6444 7.7319 61.812 7.79326 61.9644L10.524 68.8378C10.6927 69.2646 11.0763 69.5846 11.5365 69.676C11.6285 69.6913 11.7206 69.7065 11.8126 69.7065C12.1808 69.7065 12.549 69.5541 12.8098 69.295L17.8723 64.0981C17.9184 64.0523 17.9337 64.0066 17.9644 63.9609L20.6031 70.0266C20.8025 70.4838 21.2474 70.8038 21.7383 70.8495C21.7843 70.8495 21.815 70.8495 21.861 70.8495C22.3213 70.8495 22.7508 70.6209 23.0116 70.2399L27.6753 63.336C28.1202 63.3208 28.5804 63.2903 29.0406 63.2598L28.3963 67.0395C24.1622 69.7675 21.0633 74.0653 20.0354 78.1802C18.8388 82.9199 20.4803 87.0043 24.4076 89.0923C26.494 90.2048 28.2889 90.7383 29.8691 90.7383C33.6123 90.7383 35.3305 87.8426 36.5424 84.6116C52.7426 84.5507 63.8189 80.893 69.449 73.7452C73.361 68.7769 73.4991 63.5189 73.2536 60.8823H77.8866C78.3468 60.8823 78.7917 60.6537 79.0372 60.2575C79.298 59.8765 79.3287 59.3888 79.1446 58.9621L76.6593 53.2622L80.648 53.1402C81.0622 53.125 81.4611 52.9269 81.7065 52.5916C81.952 52.2563 82.0594 51.8143 81.9673 51.4181ZM12.2575 65.8202L10.9075 62.4064C12.1348 62.6807 13.5155 62.8788 14.9575 63.0465L12.2575 65.8202ZM22.0758 66.5975L20.6951 63.4275C21.2781 63.4427 21.8303 63.458 22.4286 63.458C23.0116 63.458 23.6252 63.4427 24.2235 63.4275L22.0758 66.5975ZM29.823 87.9797C28.7185 87.9797 27.3224 87.5378 25.6656 86.6538C21.8457 84.6269 22.1525 80.8777 22.6588 78.8355C23.9781 73.5928 29.3782 68.0148 35.714 67.1004C30.8356 71.3525 29.3168 76.8847 29.3014 76.9762C29.1174 77.7077 29.5622 78.4545 30.2986 78.6374C30.4213 78.6679 30.5287 78.6831 30.6515 78.6831C31.2651 78.6831 31.8327 78.2716 31.9861 77.662C32.1089 77.1896 35.1924 66.0183 47.6033 65.1039C47.6647 65.1039 47.7261 65.0734 47.7874 65.0582C47.9102 65.0734 48.0329 65.0734 48.1403 65.0887C46.6829 68.3349 43.6453 70.9715 41.2061 71.8249C40.5311 72.0535 39.9482 72.4193 39.4112 72.8156C39.3038 72.8613 39.1811 72.907 39.0737 72.9527V73.0746C36.7879 74.9797 35.714 78.2259 34.7475 81.1825C33.3668 85.4041 32.3543 87.9797 29.823 87.9797Z" fill="#080B0C"/>
<path d="M43.4151 31.7732C44.3663 35.0956 47.4652 37.5188 51.101 37.4426L51.3465 37.4274C55.6113 37.214 58.8636 33.7087 58.7715 29.4872C58.7255 27.3992 57.8664 25.4637 56.363 24.0311C54.8442 22.5985 52.8652 21.8213 50.7635 21.867L50.518 21.8822C47.097 22.0651 44.3509 24.3512 43.4458 27.445C42.464 24.0464 39.227 21.6231 35.5145 21.8213C31.1883 22.0499 27.8593 25.7228 28.0894 30.0053C28.3195 34.2879 32.0167 37.6103 36.3275 37.3817C39.7486 37.1836 42.51 34.8518 43.4151 31.7732ZM50.8095 24.4578C52.2056 24.4274 53.5249 24.9455 54.5374 25.9057C55.5499 26.8658 56.1175 28.1613 56.1482 29.5481C56.2096 32.3676 54.0311 34.6994 51.193 34.8365H51.0243C50.1805 34.8518 49.3828 34.6537 48.6771 34.3184C52.2823 30.7674 50.5947 26.3324 49.705 24.6102C50.0118 24.534 50.3186 24.4883 50.6408 24.4731L50.8095 24.4578ZM41.1446 29.3195C41.298 32.1847 39.0736 34.6232 36.2048 34.7756C35.361 34.8213 34.5633 34.6384 33.8423 34.3184C37.34 30.6454 35.5145 26.2867 34.5633 24.5798C34.9162 24.4883 35.2843 24.4274 35.6525 24.3969C38.5366 24.2445 40.9912 26.4543 41.1446 29.3195Z" fill="#080B0C"/>
<path d="M21.6938 47.1202C21.4483 47.3793 21.2949 47.7451 21.2949 48.1109C21.2949 48.4614 21.4483 48.8119 21.6938 49.071C21.9392 49.3301 22.3074 49.4825 22.6756 49.4825C23.0438 49.4825 23.3813 49.3301 23.6574 49.071C23.9029 48.8272 24.0563 48.4614 24.0563 48.1109C24.0563 47.7451 23.9029 47.3946 23.6574 47.1355C23.1358 46.6325 22.2 46.6325 21.6938 47.1202Z" fill="#080B0C"/>
<path d="M17.3351 53.7499C17.0743 53.9937 16.9209 54.3595 16.9209 54.7253C16.9209 55.091 17.0743 55.4263 17.3198 55.7006C17.5806 55.9445 17.9334 56.0969 18.3016 56.0969C18.6698 56.0969 19.0073 55.9445 19.2834 55.7006C19.5442 55.4416 19.6823 55.091 19.6823 54.7253C19.6823 54.3747 19.5289 54.009 19.2834 53.7499C18.7618 53.2317 17.826 53.2469 17.3351 53.7499Z" fill="#080B0C"/>
<path d="M25.7426 53.7499C25.4818 54.009 25.3438 54.3595 25.3438 54.71C25.3438 55.0758 25.4818 55.4111 25.7426 55.7006C26.0034 55.9445 26.3716 56.0817 26.7244 56.0817C27.0926 56.0817 27.4301 55.9445 27.7063 55.6854C27.9517 55.4263 28.1051 55.0758 28.1051 54.71C28.1051 54.3595 27.9517 53.9937 27.7063 53.7499C27.1847 53.2469 26.2489 53.2469 25.7426 53.7499Z" fill="#080B0C"/>
</svg>
