<?xml version="1.0" encoding="utf-8"?>
<!-- Generator: Adobe Illustrator 23.0.3, SVG Export Plug-In . SVG Version: 6.00 Build 0)  -->
<svg version="1.1" id="Layer_1" xmlns="http://www.w3.org/2000/svg" xmlns:xlink="http://www.w3.org/1999/xlink" x="0px" y="0px"
	 viewBox="0 0 648 171" style="enable-background:new 0 0 648 171;" xml:space="preserve">
<style type="text/css">
	.st0{fill:#FFFFFF;}
</style>
<path class="st0" d="M2.5,159.8V37.9h65.8v18.3l-45.6-0.5l-0.7,34h40.7v17.1H22l0.9,53L2.5,159.8L2.5,159.8z M112.4,160l0.7-56.2
	l-0.7-65.9h20.5l-0.7,54l0.7,68h-20.5L112.4,160z M186,159.8V37.9h66v17.8l-45.5-0.5l-1,34.1h42v17.3h-42l1,35.8l45.4-0.3v17.8H186
	V159.8z M340.8,35.7c28,0,42,13,42,39.2c0,19.3-8.5,31.3-25.5,36v1l28.4,48h-23.9l-23.7-46l-19.2-0.8V160h-20.5l1-57.2l-0.6-64.5
	c13-1.7,27-2.5,42-2.5L340.8,35.7z M318.8,95.7c9.2,1,17.3,1.5,24.1,1.5c7,0,11.8-1.7,14.5-5.1c2.8-3.5,4.1-9.6,4.1-18.5
	c0-9-1.4-15-4.2-18c-2.4-2.6-7.4-3.9-15-3.9s-15.4,0.5-23.4,1.5v42.5H318.8z M416.4,159.8L451,37.9h24.7l34.6,121.9h-21l-7.7-30
	h-36.3l-7.9,30H416.4L416.4,159.8z M449.1,112.8h28.6l-13.8-56.9h-1L449,112.7L449.1,112.8z M579.7,143.7c10.3,0,15.4-5.6,15.4-16.8
	c0-4.8-2-8.8-5.8-12c-4.9-3.9-10.2-7.1-15.9-9.5c-5.8-2.6-11.4-5.3-17-8.3c-1.9-1-3.7-2.2-5.3-3.5l-4.2-4c-1.8-2-3-3.7-3.7-5.6
	c-2-5-3-9.9-3-14.6c0-10,3.4-18,10.2-24.3c8.1-6.8,18.5-10.2,29-9.5c9.2,0,18.2,1.3,27.2,3.8l4.7,1.3l-3.3,17
	c-9.5-2.1-19.2-3.3-29-3.6c-6.6,0-11.3,1-13.9,3.2c-2.5,2.2-3.9,5.7-3.9,10.4S563,76,566,78.6c3.2,2.7,7,4.9,11.2,7
	c4.2,2,7.6,3.6,10.3,4.7l6,2.7c3.8,1.9,7.4,4.1,10.9,6.6l4.4,4.4c1.8,1.9,3.1,3.7,4,5.6c2.2,4.5,3.2,9.4,3.2,14.6
	c0,11.2-3.7,20.4-11,27.4c-7.8,7.1-18.1,10.8-28.6,10.4c-6,0-12.4-1-19-2.7c-5.1-1.3-10.2-3-15-5.2l-5.5-2.7c1-3.2,2-5.7,2.7-7.6
	l1.7-4.9l1.6-4.3C554.4,140.2,566.9,143.3,579.7,143.7L579.7,143.7z M2.3,24.9V5.5h2.4v17.3H11v2H2.3V24.9z M18.3,7.4L16,17.9h4.5
	L18.3,7.4L18.3,7.4z M22,24.9l-1-5h-5.5l-1,5H12l4.7-19.4h3.1L24.4,25H22V24.9z M42.6,15c0-1.7-0.1-3-0.3-4c0-1-0.3-1.8-0.5-2.4
	c-0.3-0.5-0.6-0.9-1-1c-0.3-0.2-0.7-0.3-1-0.3c-0.6,0-1.2,0-1.8,0h-1V23c0.6,0,1.2,0.1,1.8,0.1h0.9c0.4,0,0.8-0.1,1.1-0.3
	c0.4-0.3,0.7-0.7,1-1.3l0.5-2.5c0.2-1,0.3-2.3,0.3-3.8V15z M45,14.8c0,2-0.1,3.8-0.3,5c-0.1,1.1-0.5,2.2-1,3.2
	c-0.6,0.7-1.1,1.3-1.8,1.5c-0.7,0.3-1.5,0.5-2.5,0.5c-1.6,0-3.2-0.1-4.8-0.2V5.5c1.5,0,3-0.1,4.5-0.1c1,0,1.8,0,2.6,0.3
	c0.7,0.2,1.3,0.7,1.8,1.4s0.9,1.6,1.1,2.9C44.9,11.2,45,12.9,45,14.8L45,14.8z M53.2,7.3l-2.3,10.5h4.5L53.2,7.3L53.2,7.3z
	 M56.9,24.8l-1-5h-5.4l-1,5H47l4.6-19.4h3.2L59.4,25h-2.5V24.8z M68.9,24.8L64.7,7.6v17.3h-2.3V5.5h4l4.2,17.3V5.5h2.2V25h-4
	L68.9,24.8z M78.9,22.8h6.8v2h-9.3v-2.5l7.1-14.8H77v-2h9V8L78.9,22.8z M94,7.3l-2.2,10.5h4.5L94,7.3L94,7.3z M97.7,24.8l-1-5h-5.4
	l-1,5h-2.5l4.6-19.4h3.2l4.6,19.4C100.2,24.8,97.7,24.8,97.7,24.8z M118.3,15c0-1.7,0-3-0.2-4c-0.1-1-0.3-1.8-0.6-2.4
	c-0.2-0.5-0.5-0.9-0.9-1c-0.3-0.2-0.7-0.3-1.1-0.3c-0.6,0-1.1,0-1.7,0h-1V23c0.6,0,1.1,0.1,1.7,0.1h1c0.4,0,0.8-0.1,1.1-0.3
	c0.4-0.3,0.7-0.7,1-1.3l0.5-2.5c0.2-1,0.2-2.3,0.2-3.8V15z M120.8,14.8c0,2-0.1,3.8-0.4,5c-0.1,1.1-0.5,2.2-1,3.2
	c-0.5,0.7-1,1.3-1.8,1.5c-0.7,0.3-1.5,0.5-2.4,0.5c-1.6,0-3.2-0.1-4.8-0.2V5.5c1.5,0,3-0.1,4.5-0.1c1,0,1.8,0,2.5,0.3
	c0.8,0.2,1.4,0.7,1.9,1.4s0.9,1.6,1.1,2.9c0.3,1.2,0.4,2.9,0.4,4.9L120.8,14.8z M124.9,24.8V5.5h9v2h-6.6V14h6v2h-6v7h6.7v2h-9
	L124.9,24.8z M145.2,24.8V5.5h2.4v17.3h6.1v2H145.2z M161,7.4l-2,10.5h4.5L161,7.4z M164.8,24.9l-1-5h-5.5l-1,5h-2.5l4.7-19.4h3.2
	l4.5,19.4H165H164.8z M178.4,19.4c0,1.1,0,2-0.3,2.8c-0.2,0.7-0.6,1.2-1.1,1.7c-0.5,0.5-1.1,0.8-1.8,1c-1.3,0.3-2.5,0.3-3.8,0
	c-0.6,0-1.1-0.1-1.6-0.3v-2c1.1,0.3,2.3,0.4,3.5,0.4c1,0,1.6-0.2,2-0.8c0.5-0.5,0.7-1.4,0.7-2.5c0-0.7,0-1.3-0.2-1.7
	c-0.1-0.4-0.2-0.8-0.4-1.1l-0.7-0.7l-1-0.3l-2-0.6c-0.4-0.3-0.9-0.6-1.2-1c-0.4-0.4-0.6-0.9-0.8-1.5c-0.3-1.5-0.3-3.1,0.2-4.6
	c0.3-0.7,0.7-1.2,1.1-1.7c0.5-0.4,1.1-0.7,1.8-0.9c1.2-0.3,2.5-0.4,3.7-0.1c0.5,0,1,0.2,1.4,0.3v2c-1.1-0.2-2.1-0.4-3.2-0.4l-1,0.1
	l-0.9,0.6c-0.3,0.3-0.5,0.6-0.6,0.9l-0.2,1.4v1.4c0.1,0.4,0.2,0.7,0.4,0.9l0.6,0.6l1.1,0.3c0.7,0.1,1.3,0.3,1.8,0.6
	c0.5,0.2,1,0.5,1.4,1l0.8,1.6C178.3,17.5,178.4,18.4,178.4,19.4z"/>
</svg>
