<svg width="663" height="267" viewBox="0 0 663 267" fill="none" xmlns="http://www.w3.org/2000/svg">
<path d="M149.451 147.368L84.1484 114" stroke="#C8C8C8" stroke-width="5.79094"/>
<path d="M214.148 163L448.648 109" stroke="#C8C8C8" stroke-width="5"/>
<path d="M575.648 151L510.705 118.011" stroke="#C8C8C8" stroke-width="5.79094"/>
<circle cx="178.572" cy="166.224" r="34.7495" transform="rotate(120 178.572 166.224)" stroke="#1A4CE0" stroke-width="5.79094"/>
<circle cx="607.724" cy="166.166" r="34.7495" transform="rotate(120 607.724 166.166)" stroke="#1A4CE0" stroke-width="5.79094"/>
<circle cx="482.424" cy="98.4226" r="34.7495" transform="rotate(120 482.424 98.4226)" stroke="#1A4CE0" stroke-width="5.79094"/>
<path d="M20.4824 182.156C20.0324 183.182 19.2044 183.866 17.7284 183.866C15.7664 183.866 14.6864 182.336 14.6864 180.446C14.6864 178.448 15.8024 177.026 17.7284 177.026C19.4204 177.026 20.1404 177.944 20.4644 178.808H22.1744C21.9764 177.584 20.8244 175.64 17.7464 175.64C14.6864 175.64 12.9224 177.89 12.9224 180.482C12.9224 183.074 14.4884 185.252 17.7284 185.252C20.3204 185.252 21.7424 183.794 22.1924 182.156H20.4824ZM28.6114 175.64C25.5514 175.64 23.7154 177.836 23.7154 180.446C23.7154 182.966 25.4434 185.252 28.5214 185.252C31.7974 185.252 33.4354 182.966 33.4354 180.446C33.4354 178.034 31.7614 175.64 28.6114 175.64ZM28.5394 177.044C30.5734 177.044 31.6714 178.646 31.6714 180.464C31.6714 182.3 30.6634 183.848 28.5754 183.848C26.5774 183.848 25.4794 182.192 25.4794 180.446C25.4794 178.628 26.4694 177.044 28.5394 177.044ZM35.667 185H37.377V180.626C37.377 178.52 38.313 177.08 40.203 177.08C41.913 177.08 42.471 178.268 42.471 179.762V185H44.199V179.456C44.199 176.954 42.813 175.64 40.671 175.64C38.727 175.64 37.773 176.702 37.377 177.584C37.377 176.954 37.341 176.198 37.305 175.892H35.649C35.667 176.576 35.667 177.422 35.667 178.196V185ZM45.5871 175.892L49.6191 185H51.4911L55.4691 175.892H53.7231C51.4911 181.112 50.8791 182.642 50.6271 183.416H50.6091C50.2671 182.444 48.2871 177.98 47.4591 175.892H45.5871ZM65.7184 180.842C65.7364 180.662 65.7364 180.554 65.7364 180.392C65.7364 178.178 64.5124 175.64 61.0564 175.64C58.1764 175.64 56.3404 177.728 56.3404 180.464C56.3404 182.876 57.8344 185.252 61.0924 185.252C63.8284 185.252 65.1064 183.758 65.5924 182.408H63.8824C63.3964 183.29 62.6044 183.866 61.1824 183.866C59.3464 183.866 58.1584 182.588 58.0684 180.842H65.7184ZM58.1044 179.618C58.2664 178.142 59.1664 176.972 61.0384 176.972C63.2884 176.972 63.8644 178.538 63.9544 179.618H58.1044ZM67.9756 185H69.6856V181.202C69.6856 178.52 71.2876 177.26 73.3756 177.278V175.64C71.5936 175.622 70.2796 176.54 69.6856 177.944C69.6856 177.116 69.6496 176.162 69.6316 175.892H67.9576C67.9756 176.72 67.9756 177.548 67.9756 178.376V185ZM74.5124 182.246C74.8184 184.136 76.3664 185.252 79.0304 185.252C81.9644 185.252 83.2064 184.028 83.2064 182.39C83.2064 181.04 82.5764 179.996 79.1564 179.528C77.0684 179.258 76.6364 178.844 76.6364 178.16C76.6364 177.638 76.9964 176.918 78.6884 176.918C80.6864 176.918 81.0644 177.818 81.1904 178.358H82.9184C82.8104 177.26 81.9284 175.64 78.7784 175.64C75.8624 175.64 74.9264 177.134 74.9264 178.322C74.9264 179.456 75.5204 180.572 78.7244 180.968C81.0464 181.238 81.4964 181.76 81.4964 182.516C81.4964 183.344 80.8844 183.956 79.1384 183.956C77.4824 183.956 76.5644 183.326 76.2404 182.246H74.5124ZM85.4482 185H87.1582V175.892H85.4482V185ZM87.1582 173.516V171.464H85.4482V173.516H87.1582ZM94.2833 175.64C91.2233 175.64 89.3873 177.836 89.3873 180.446C89.3873 182.966 91.1153 185.252 94.1933 185.252C97.4693 185.252 99.1073 182.966 99.1073 180.446C99.1073 178.034 97.4333 175.64 94.2833 175.64ZM94.2113 177.044C96.2453 177.044 97.3433 178.646 97.3433 180.464C97.3433 182.3 96.3353 183.848 94.2473 183.848C92.2493 183.848 91.1513 182.192 91.1513 180.446C91.1513 178.628 92.1413 177.044 94.2113 177.044ZM95.5793 171.32L93.0953 174.2H94.6973L97.6493 171.32H95.5793ZM101.339 185H103.049V180.626C103.049 178.52 103.985 177.08 105.875 177.08C107.585 177.08 108.143 178.268 108.143 179.762V185H109.871V179.456C109.871 176.954 108.485 175.64 106.343 175.64C104.399 175.64 103.445 176.702 103.049 177.584C103.049 176.954 103.013 176.198 102.977 175.892H101.321C101.339 176.576 101.339 177.422 101.339 178.196V185Z" fill="#060809"/>
<path d="M154.248 242.842C154.266 242.662 154.266 242.554 154.266 242.392C154.266 240.178 153.042 237.64 149.586 237.64C146.706 237.64 144.87 239.728 144.87 242.464C144.87 244.876 146.364 247.252 149.622 247.252C152.358 247.252 153.636 245.758 154.122 244.408H152.412C151.926 245.29 151.134 245.866 149.712 245.866C147.876 245.866 146.688 244.588 146.598 242.842H154.248ZM146.634 241.618C146.796 240.142 147.696 238.972 149.568 238.972C151.818 238.972 152.394 240.538 152.484 241.618H146.634ZM155.782 244.246C156.088 246.136 157.636 247.252 160.3 247.252C163.234 247.252 164.476 246.028 164.476 244.39C164.476 243.04 163.846 241.996 160.426 241.528C158.338 241.258 157.906 240.844 157.906 240.16C157.906 239.638 158.266 238.918 159.958 238.918C161.956 238.918 162.334 239.818 162.46 240.358H164.188C164.08 239.26 163.198 237.64 160.048 237.64C157.132 237.64 156.196 239.134 156.196 240.322C156.196 241.456 156.79 242.572 159.994 242.968C162.316 243.238 162.766 243.76 162.766 244.516C162.766 245.344 162.154 245.956 160.408 245.956C158.752 245.956 157.834 245.326 157.51 244.246H155.782ZM165.425 239.242H167.243V244.444C167.243 246.244 167.801 247.09 169.691 247.09C170.213 247.09 170.699 247.054 171.113 246.91V245.65C170.843 245.722 170.465 245.74 170.213 245.74C169.223 245.74 168.953 245.272 168.953 244.228V239.242H171.329V237.892H168.953V234.958H167.243V237.892H165.425V239.242ZM173.169 247H174.879V243.202C174.879 240.52 176.481 239.26 178.569 239.278V237.64C176.787 237.622 175.473 238.54 174.879 239.944C174.879 239.116 174.843 238.162 174.825 237.892H173.151C173.169 238.72 173.169 239.548 173.169 240.376V247ZM188.051 240.754C188.051 239.26 187.313 237.64 184.001 237.64C180.869 237.64 180.059 239.332 179.951 240.538H181.661C181.859 239.71 182.255 238.936 184.001 238.936C185.945 238.936 186.377 239.872 186.377 240.862V241.348H184.163C181.553 241.348 179.429 241.996 179.429 244.318C179.429 245.686 180.383 247.252 182.957 247.252C184.883 247.252 185.927 246.604 186.395 245.668C186.413 245.974 186.431 246.676 186.503 247H188.141C188.105 246.784 188.051 245.632 188.051 244.75V240.754ZM186.377 242.95C186.377 244.498 185.729 245.902 183.299 245.902C181.787 245.902 181.121 245.146 181.121 244.246C181.121 243.022 182.111 242.554 184.199 242.554H186.377V242.95ZM189.559 239.242H191.377V244.444C191.377 246.244 191.935 247.09 193.825 247.09C194.347 247.09 194.833 247.054 195.247 246.91V245.65C194.977 245.722 194.599 245.74 194.347 245.74C193.357 245.74 193.087 245.272 193.087 244.228V239.242H195.463V237.892H193.087V234.958H191.377V237.892H189.559V239.242ZM205.945 242.842C205.963 242.662 205.963 242.554 205.963 242.392C205.963 240.178 204.739 237.64 201.283 237.64C198.403 237.64 196.567 239.728 196.567 242.464C196.567 244.876 198.061 247.252 201.319 247.252C204.055 247.252 205.333 245.758 205.819 244.408H204.109C203.623 245.29 202.831 245.866 201.409 245.866C199.573 245.866 198.385 244.588 198.295 242.842H205.945ZM198.331 241.618C198.493 240.142 199.393 238.972 201.265 238.972C203.515 238.972 204.091 240.538 204.181 241.618H198.331ZM217.197 240.538C217.197 239.656 217.197 238.774 217.215 237.892H215.559C215.523 238.144 215.505 238.846 215.505 239.296C215.235 238.576 214.389 237.64 212.301 237.64C209.835 237.64 207.729 239.638 207.729 242.554C207.729 245.146 209.511 247.162 212.085 247.162C213.975 247.162 214.947 246.478 215.505 245.398V245.902C215.505 248.152 215.055 249.862 212.391 249.862C210.501 249.862 209.835 249.034 209.565 248.116H207.819C207.999 249.178 208.719 251.248 212.301 251.248C216.063 251.248 217.197 249.232 217.197 245.812V240.538ZM209.475 242.482C209.475 240.772 210.483 239.08 212.589 239.08C214.461 239.08 215.541 240.268 215.541 242.374C215.541 244.534 214.407 245.722 212.499 245.722C210.717 245.722 209.475 244.354 209.475 242.482ZM220.12 247H221.83V237.892H220.12V247ZM221.83 235.516V233.464H220.12V235.516H221.83ZM232.717 240.754C232.717 239.26 231.979 237.64 228.667 237.64C225.535 237.64 224.725 239.332 224.617 240.538H226.327C226.525 239.71 226.921 238.936 228.667 238.936C230.611 238.936 231.043 239.872 231.043 240.862V241.348H228.829C226.219 241.348 224.095 241.996 224.095 244.318C224.095 245.686 225.049 247.252 227.623 247.252C229.549 247.252 230.593 246.604 231.061 245.668C231.079 245.974 231.097 246.676 231.169 247H232.807C232.771 246.784 232.717 245.632 232.717 244.75V240.754ZM231.043 242.95C231.043 244.498 230.395 245.902 227.965 245.902C226.453 245.902 225.787 245.146 225.787 244.246C225.787 243.022 226.777 242.554 228.865 242.554H231.043V242.95Z" fill="#060809"/>
<path d="M452.996 172.246C453.302 174.136 454.85 175.252 457.514 175.252C460.448 175.252 461.69 174.028 461.69 172.39C461.69 171.04 461.06 169.996 457.64 169.528C455.552 169.258 455.12 168.844 455.12 168.16C455.12 167.638 455.48 166.918 457.172 166.918C459.17 166.918 459.548 167.818 459.674 168.358H461.402C461.294 167.26 460.412 165.64 457.262 165.64C454.346 165.64 453.41 167.134 453.41 168.322C453.41 169.456 454.004 170.572 457.208 170.968C459.53 171.238 459.98 171.76 459.98 172.516C459.98 173.344 459.368 173.956 457.622 173.956C455.966 173.956 455.048 173.326 454.724 172.246H452.996ZM463.932 175H465.642V165.892H463.932V175ZM465.642 163.516V161.464H463.932V163.516H465.642ZM467.578 167.242H469.396V172.444C469.396 174.244 469.954 175.09 471.844 175.09C472.366 175.09 472.852 175.054 473.266 174.91V173.65C472.996 173.722 472.618 173.74 472.366 173.74C471.376 173.74 471.106 173.272 471.106 172.228V167.242H473.482V165.892H471.106V162.958H469.396V165.892H467.578V167.242ZM475.48 175H477.19V165.892H475.48V175ZM477.19 163.516V161.464H475.48V163.516H477.19ZM484.316 165.64C481.256 165.64 479.42 167.836 479.42 170.446C479.42 172.966 481.148 175.252 484.226 175.252C487.502 175.252 489.14 172.966 489.14 170.446C489.14 168.034 487.466 165.64 484.316 165.64ZM484.244 167.044C486.278 167.044 487.376 168.646 487.376 170.464C487.376 172.3 486.368 173.848 484.28 173.848C482.282 173.848 481.184 172.192 481.184 170.446C481.184 168.628 482.174 167.044 484.244 167.044Z" fill="#060809"/>
<path d="M576.368 237.892L580.4 247H582.272L586.25 237.892H584.504C582.272 243.112 581.66 244.642 581.408 245.416H581.39C581.048 244.444 579.068 239.98 578.24 237.892H576.368ZM596.5 242.842C596.518 242.662 596.518 242.554 596.518 242.392C596.518 240.178 595.294 237.64 591.838 237.64C588.958 237.64 587.122 239.728 587.122 242.464C587.122 244.876 588.616 247.252 591.874 247.252C594.61 247.252 595.888 245.758 596.374 244.408H594.664C594.178 245.29 593.386 245.866 591.964 245.866C590.128 245.866 588.94 244.588 588.85 242.842H596.5ZM588.886 241.618C589.048 240.142 589.948 238.972 591.82 238.972C594.07 238.972 594.646 240.538 594.736 241.618H588.886ZM598.757 247H600.467V242.626C600.467 240.52 601.403 239.08 603.293 239.08C605.003 239.08 605.561 240.268 605.561 241.762V247H607.289V241.456C607.289 238.954 605.903 237.64 603.761 237.64C601.817 237.64 600.863 238.702 600.467 239.584C600.467 238.954 600.431 238.198 600.395 237.892H598.739C598.757 238.576 598.757 239.422 598.757 240.196V247ZM608.837 239.242H610.655V244.444C610.655 246.244 611.213 247.09 613.103 247.09C613.625 247.09 614.111 247.054 614.525 246.91V245.65C614.255 245.722 613.877 245.74 613.625 245.74C612.635 245.74 612.365 245.272 612.365 244.228V239.242H614.741V237.892H612.365V234.958H610.655V237.892H608.837V239.242ZM624.661 240.754C624.661 239.26 623.923 237.64 620.611 237.64C617.479 237.64 616.669 239.332 616.561 240.538H618.271C618.469 239.71 618.865 238.936 620.611 238.936C622.555 238.936 622.987 239.872 622.987 240.862V241.348H620.773C618.163 241.348 616.039 241.996 616.039 244.318C616.039 245.686 616.993 247.252 619.567 247.252C621.493 247.252 622.537 246.604 623.005 245.668C623.023 245.974 623.041 246.676 623.113 247H624.751C624.715 246.784 624.661 245.632 624.661 244.75V240.754ZM622.987 242.95C622.987 244.498 622.339 245.902 619.909 245.902C618.397 245.902 617.731 245.146 617.731 244.246C617.731 243.022 618.721 242.554 620.809 242.554H622.987V242.95Z" fill="#060809"/>
<path d="M444.83 51.4053C446.158 51.0289 446.93 49.6468 446.554 48.3184L440.419 26.6708C440.043 25.3424 438.661 24.5707 437.332 24.9471C436.004 25.3235 435.232 26.7056 435.609 28.034L441.062 47.2763L421.819 52.7291C420.491 53.1055 419.719 54.4876 420.096 55.816C420.472 57.1444 421.854 57.9161 423.182 57.5397L444.83 51.4053ZM70.6484 69C72.1498 70.999 72.1495 70.9992 72.1497 70.9991C72.1502 70.9987 72.1506 70.9984 72.1516 70.9976C72.1535 70.9962 72.1568 70.9937 72.1614 70.9903C72.1707 70.9834 72.1852 70.9725 72.2051 70.9577C72.2447 70.9282 72.3055 70.8831 72.3872 70.8229C72.5505 70.7025 72.7973 70.5217 73.1251 70.2846C73.7809 69.8104 74.7612 69.1108 76.048 68.2182C78.6216 66.4328 82.4204 63.8753 87.2995 60.803C97.0595 54.6574 111.134 46.4576 128.365 38.2574C162.858 21.8428 209.851 5.5 260.148 5.5V0.5C208.826 0.5 161.068 17.1572 126.217 33.7426C108.776 42.0424 94.5284 50.3426 84.6353 56.572C79.688 59.6872 75.8272 62.286 73.198 64.1099C71.8833 65.022 70.8763 65.7404 70.1952 66.233C69.8546 66.4793 69.5955 66.6691 69.4201 66.7984C69.3324 66.8631 69.2656 66.9127 69.22 66.9466C69.1972 66.9636 69.1797 66.9766 69.1675 66.9857C69.1615 66.9902 69.1567 66.9938 69.1533 66.9963C69.1516 66.9976 69.1501 66.9988 69.1492 66.9994C69.148 67.0003 69.1471 67.001 70.6484 69ZM260.148 5.5C310.596 5.5 356.311 16.9213 389.44 28.363C405.997 34.0814 419.392 39.7983 428.638 44.081C433.261 46.2221 436.846 48.0041 439.269 49.2477C440.48 49.8694 441.402 50.3565 442.017 50.6865C442.324 50.8515 442.556 50.9773 442.708 51.0609C442.785 51.1027 442.842 51.134 442.879 51.1544C442.897 51.1647 442.911 51.1722 442.919 51.1769C442.923 51.1793 442.926 51.1809 442.928 51.1819C442.929 51.1824 442.929 51.1826 442.93 51.1829C442.93 51.1829 442.93 51.1828 444.148 49C445.367 46.8172 445.366 46.8167 445.365 46.8161C445.364 46.8156 445.363 46.8148 445.361 46.8139C445.358 46.8121 445.353 46.8096 445.348 46.8064C445.336 46.7999 445.32 46.7908 445.298 46.7789C445.255 46.7551 445.192 46.7204 445.11 46.6752C444.944 46.5848 444.701 46.4522 444.38 46.2803C443.739 45.9365 442.791 45.4353 441.552 44.7992C439.073 43.5272 435.428 41.7154 430.74 39.544C421.364 35.2017 407.812 29.4186 391.072 23.637C357.606 12.0787 311.321 0.5 260.148 0.5V5.5Z" fill="#CC2E44"/>
<circle cx="51.4236" cy="98.4812" r="34.7495" transform="rotate(120 51.4236 98.4812)" stroke="#1A4CE0" stroke-width="5.79094"/>
</svg>
