<svg width="551" height="502" viewBox="0 0 551 502" fill="none" xmlns="http://www.w3.org/2000/svg">
<g style="mix-blend-mode:darken">
<rect x="2" y="38" width="274" height="205" fill="url(#paint0_radial)"/>
</g>
<path d="M224.95 482H226.642V477.14C226.642 475.394 227.326 474.062 229.036 474.062C230.638 474.062 231.016 475.268 231.016 476.366V482H232.708V477.014C232.708 475.034 233.662 474.062 235.102 474.062C236.722 474.062 237.064 475.376 237.064 476.438V482H238.774V476.366C238.774 473.684 237.298 472.64 235.516 472.64C233.716 472.64 232.87 473.594 232.384 474.386C231.97 473.36 231.088 472.64 229.576 472.64C227.974 472.64 227.092 473.468 226.642 474.26C226.642 473.774 226.624 473.27 226.588 472.892H224.932C224.95 473.684 224.95 474.458 224.95 475.25V482ZM250.379 477.842C250.397 477.662 250.397 477.554 250.397 477.392C250.397 475.178 249.173 472.64 245.717 472.64C242.837 472.64 241.001 474.728 241.001 477.464C241.001 479.876 242.495 482.252 245.753 482.252C248.489 482.252 249.767 480.758 250.253 479.408H248.543C248.057 480.29 247.265 480.866 245.843 480.866C244.007 480.866 242.819 479.588 242.729 477.842H250.379ZM242.765 476.618C242.927 475.142 243.827 473.972 245.699 473.972C247.949 473.972 248.525 475.538 248.615 476.618H242.765ZM252.636 482H254.346V477.626C254.346 475.52 255.282 474.08 257.172 474.08C258.882 474.08 259.44 475.268 259.44 476.762V482H261.168V476.456C261.168 473.954 259.782 472.64 257.64 472.64C255.696 472.64 254.742 473.702 254.346 474.584C254.346 473.954 254.31 473.198 254.274 472.892H252.618C252.636 473.576 252.636 474.422 252.636 475.196V482ZM268.291 472.64C265.231 472.64 263.395 474.836 263.395 477.446C263.395 479.966 265.123 482.252 268.201 482.252C271.477 482.252 273.115 479.966 273.115 477.446C273.115 475.034 271.441 472.64 268.291 472.64ZM268.219 474.044C270.253 474.044 271.351 475.646 271.351 477.464C271.351 479.3 270.343 480.848 268.255 480.848C266.257 480.848 265.159 479.192 265.159 477.446C265.159 475.628 266.149 474.044 268.219 474.044ZM275.347 482H277.057V478.202C277.057 475.52 278.659 474.26 280.747 474.278V472.64C278.965 472.622 277.651 473.54 277.057 474.944C277.057 474.116 277.021 473.162 277.003 472.892H275.329C275.347 473.72 275.347 474.548 275.347 475.376V482ZM286.62 472.892L290.652 482H292.524L296.502 472.892H294.756C292.524 478.112 291.912 479.642 291.66 480.416H291.642C291.3 479.444 289.32 474.98 288.492 472.892H286.62ZM305.944 475.754C305.944 474.26 305.206 472.64 301.894 472.64C298.762 472.64 297.952 474.332 297.844 475.538H299.554C299.752 474.71 300.148 473.936 301.894 473.936C303.838 473.936 304.27 474.872 304.27 475.862V476.348H302.056C299.446 476.348 297.322 476.996 297.322 479.318C297.322 480.686 298.276 482.252 300.85 482.252C302.776 482.252 303.82 481.604 304.288 480.668C304.306 480.974 304.324 481.676 304.396 482H306.034C305.998 481.784 305.944 480.632 305.944 479.75V475.754ZM304.27 477.95C304.27 479.498 303.622 480.902 301.192 480.902C299.68 480.902 299.014 480.146 299.014 479.246C299.014 478.022 300.004 477.554 302.092 477.554H304.27V477.95ZM310.596 482V468.464H308.886V482H310.596ZM317.721 472.64C314.661 472.64 312.825 474.836 312.825 477.446C312.825 479.966 314.553 482.252 317.631 482.252C320.907 482.252 322.545 479.966 322.545 477.446C322.545 475.034 320.871 472.64 317.721 472.64ZM317.649 474.044C319.683 474.044 320.781 475.646 320.781 477.464C320.781 479.3 319.773 480.848 317.685 480.848C315.687 480.848 314.589 479.192 314.589 477.446C314.589 475.628 315.579 474.044 317.649 474.044ZM324.776 482H326.486V478.202C326.486 475.52 328.088 474.26 330.176 474.278V472.64C328.394 472.622 327.08 473.54 326.486 474.944C326.486 474.116 326.45 473.162 326.432 472.892H324.758C324.776 473.72 324.776 474.548 324.776 475.376V482Z" fill="#060809"/>
<path d="M225.662 16H227.354V11.14C227.354 9.394 228.038 8.062 229.748 8.062C231.35 8.062 231.728 9.268 231.728 10.366V16H233.42V11.014C233.42 9.034 234.374 8.062 235.814 8.062C237.434 8.062 237.776 9.376 237.776 10.438V16H239.486V10.366C239.486 7.684 238.01 6.64 236.228 6.64C234.428 6.64 233.582 7.594 233.096 8.386C232.682 7.36 231.8 6.64 230.288 6.64C228.686 6.64 227.804 7.468 227.354 8.26C227.354 7.774 227.336 7.27 227.3 6.892H225.644C225.662 7.684 225.662 8.458 225.662 9.25V16ZM250.283 9.754C250.283 8.26 249.545 6.64 246.233 6.64C243.101 6.64 242.291 8.332 242.183 9.538H243.893C244.091 8.71 244.487 7.936 246.233 7.936C248.177 7.936 248.609 8.872 248.609 9.862V10.348H246.395C243.785 10.348 241.661 10.996 241.661 13.318C241.661 14.686 242.615 16.252 245.189 16.252C247.115 16.252 248.159 15.604 248.627 14.668C248.645 14.974 248.663 15.676 248.735 16H250.373C250.337 15.784 250.283 14.632 250.283 13.75V9.754ZM248.609 11.95C248.609 13.498 247.961 14.902 245.531 14.902C244.019 14.902 243.353 14.146 243.353 13.246C243.353 12.022 244.343 11.554 246.431 11.554H248.609V11.95ZM251.755 6.892L255.967 16.414C255.139 18.196 254.671 18.718 253.429 18.718C253.195 18.718 252.781 18.7 252.439 18.646V20.14C252.745 20.212 253.285 20.248 253.627 20.248C255.913 20.248 256.507 19.456 258.109 15.532L261.691 6.892H259.909C258.163 11.176 257.245 13.786 256.921 14.686H256.885C256.615 13.912 255.571 11.356 253.627 6.892H251.755ZM267.579 6.64C264.519 6.64 262.683 8.836 262.683 11.446C262.683 13.966 264.411 16.252 267.489 16.252C270.765 16.252 272.403 13.966 272.403 11.446C272.403 9.034 270.729 6.64 267.579 6.64ZM267.507 8.044C269.541 8.044 270.639 9.646 270.639 11.464C270.639 13.3 269.631 14.848 267.543 14.848C265.545 14.848 264.447 13.192 264.447 11.446C264.447 9.628 265.437 8.044 267.507 8.044ZM274.635 16H276.345V12.202C276.345 9.52 277.947 8.26 280.035 8.278V6.64C278.253 6.622 276.939 7.54 276.345 8.944C276.345 8.116 276.309 7.162 276.291 6.892H274.617C274.635 7.72 274.635 8.548 274.635 9.376V16ZM285.908 6.892L289.94 16H291.812L295.79 6.892H294.044C291.812 12.112 291.2 13.642 290.948 14.416H290.93C290.588 13.444 288.608 8.98 287.78 6.892H285.908ZM305.232 9.754C305.232 8.26 304.494 6.64 301.182 6.64C298.05 6.64 297.24 8.332 297.132 9.538H298.842C299.04 8.71 299.436 7.936 301.182 7.936C303.126 7.936 303.558 8.872 303.558 9.862V10.348H301.344C298.734 10.348 296.61 10.996 296.61 13.318C296.61 14.686 297.564 16.252 300.138 16.252C302.064 16.252 303.108 15.604 303.576 14.668C303.594 14.974 303.612 15.676 303.684 16H305.322C305.286 15.784 305.232 14.632 305.232 13.75V9.754ZM303.558 11.95C303.558 13.498 302.91 14.902 300.48 14.902C298.968 14.902 298.302 14.146 298.302 13.246C298.302 12.022 299.292 11.554 301.38 11.554H303.558V11.95ZM309.884 16V2.464H308.174V16H309.884ZM317.009 6.64C313.949 6.64 312.113 8.836 312.113 11.446C312.113 13.966 313.841 16.252 316.919 16.252C320.195 16.252 321.833 13.966 321.833 11.446C321.833 9.034 320.159 6.64 317.009 6.64ZM316.937 8.044C318.971 8.044 320.069 9.646 320.069 11.464C320.069 13.3 319.061 14.848 316.973 14.848C314.975 14.848 313.877 13.192 313.877 11.446C313.877 9.628 314.867 8.044 316.937 8.044ZM324.064 16H325.774V12.202C325.774 9.52 327.376 8.26 329.464 8.278V6.64C327.682 6.622 326.368 7.54 325.774 8.944C325.774 8.116 325.738 7.162 325.72 6.892H324.046C324.064 7.72 324.064 8.548 324.064 9.376V16Z" fill="#060809"/>
<path d="M3.458 284H5.15V279.14C5.15 277.394 5.834 276.062 7.544 276.062C9.146 276.062 9.524 277.268 9.524 278.366V284H11.216V279.014C11.216 277.034 12.17 276.062 13.61 276.062C15.23 276.062 15.572 277.376 15.572 278.438V284H17.282V278.366C17.282 275.684 15.806 274.64 14.024 274.64C12.224 274.64 11.378 275.594 10.892 276.386C10.478 275.36 9.596 274.64 8.084 274.64C6.482 274.64 5.6 275.468 5.15 276.26C5.15 275.774 5.132 275.27 5.096 274.892H3.44C3.458 275.684 3.458 276.458 3.458 277.25V284ZM28.8864 279.842C28.9044 279.662 28.9044 279.554 28.9044 279.392C28.9044 277.178 27.6804 274.64 24.2244 274.64C21.3444 274.64 19.5084 276.728 19.5084 279.464C19.5084 281.876 21.0024 284.252 24.2604 284.252C26.9964 284.252 28.2744 282.758 28.7604 281.408H27.0504C26.5644 282.29 25.7724 282.866 24.3504 282.866C22.5144 282.866 21.3264 281.588 21.2364 279.842H28.8864ZM21.2724 278.618C21.4344 277.142 22.3344 275.972 24.2064 275.972C26.4564 275.972 27.0324 277.538 27.1224 278.618H21.2724ZM31.1435 284H32.8535V279.626C32.8535 277.52 33.7895 276.08 35.6795 276.08C37.3895 276.08 37.9475 277.268 37.9475 278.762V284H39.6755V278.456C39.6755 275.954 38.2895 274.64 36.1475 274.64C34.2035 274.64 33.2495 275.702 32.8535 276.584C32.8535 275.954 32.8175 275.198 32.7815 274.892H31.1255C31.1435 275.576 31.1435 276.422 31.1435 277.196V284ZM46.7989 274.64C43.7389 274.64 41.9029 276.836 41.9029 279.446C41.9029 281.966 43.6309 284.252 46.7089 284.252C49.9849 284.252 51.6229 281.966 51.6229 279.446C51.6229 277.034 49.9489 274.64 46.7989 274.64ZM46.7269 276.044C48.7609 276.044 49.8589 277.646 49.8589 279.464C49.8589 281.3 48.8509 282.848 46.7629 282.848C44.7649 282.848 43.6669 281.192 43.6669 279.446C43.6669 277.628 44.6569 276.044 46.7269 276.044ZM53.8545 284H55.5645V280.202C55.5645 277.52 57.1665 276.26 59.2545 276.278V274.64C57.4725 274.622 56.1585 275.54 55.5645 276.944C55.5645 276.116 55.5285 275.162 55.5105 274.892H53.8365C53.8545 275.72 53.8545 276.548 53.8545 277.376V284ZM73.2461 281.156C72.7961 282.182 71.9681 282.866 70.4921 282.866C68.5301 282.866 67.4501 281.336 67.4501 279.446C67.4501 277.448 68.5661 276.026 70.4921 276.026C72.1841 276.026 72.9041 276.944 73.2281 277.808H74.9381C74.7401 276.584 73.5881 274.64 70.5101 274.64C67.4501 274.64 65.6861 276.89 65.6861 279.482C65.6861 282.074 67.2521 284.252 70.4921 284.252C73.0841 284.252 74.5061 282.794 74.9561 281.156H73.2461ZM81.3751 274.64C78.3151 274.64 76.4791 276.836 76.4791 279.446C76.4791 281.966 78.2071 284.252 81.2851 284.252C84.5611 284.252 86.1991 281.966 86.1991 279.446C86.1991 277.034 84.5251 274.64 81.3751 274.64ZM81.3031 276.044C83.3371 276.044 84.4351 277.646 84.4351 279.464C84.4351 281.3 83.4271 282.848 81.3391 282.848C79.3411 282.848 78.2431 281.192 78.2431 279.446C78.2431 277.628 79.2331 276.044 81.3031 276.044ZM88.4307 284H90.1227V279.14C90.1227 277.394 90.8067 276.062 92.5167 276.062C94.1187 276.062 94.4967 277.268 94.4967 278.366V284H96.1887V279.014C96.1887 277.034 97.1427 276.062 98.5827 276.062C100.203 276.062 100.545 277.376 100.545 278.438V284H102.255V278.366C102.255 275.684 100.779 274.64 98.9967 274.64C97.1967 274.64 96.3507 275.594 95.8647 276.386C95.4507 275.36 94.5687 274.64 93.0567 274.64C91.4547 274.64 90.5727 275.468 90.1227 276.26C90.1227 275.774 90.1047 275.27 90.0687 274.892H88.4127C88.4307 275.684 88.4307 276.458 88.4307 277.25V284ZM106.945 287.996V282.65C107.449 283.424 108.277 284.252 110.167 284.252C112.651 284.252 114.703 282.254 114.703 279.284C114.703 276.656 112.903 274.64 110.455 274.64C108.547 274.64 107.485 275.504 106.945 276.458C106.945 275.774 106.927 275.144 106.891 274.892H105.217C105.235 275.648 105.235 276.404 105.235 277.16V287.996H106.945ZM112.939 279.356C112.939 281.174 111.931 282.794 109.915 282.794C107.899 282.794 106.909 281.39 106.909 279.482C106.909 277.574 107.827 276.08 109.951 276.08C112.003 276.08 112.939 277.736 112.939 279.356ZM118.705 284V270.464H116.995V284H118.705ZM130.312 279.842C130.33 279.662 130.33 279.554 130.33 279.392C130.33 277.178 129.106 274.64 125.65 274.64C122.77 274.64 120.934 276.728 120.934 279.464C120.934 281.876 122.428 284.252 125.686 284.252C128.422 284.252 129.7 282.758 130.186 281.408H128.476C127.99 282.29 127.198 282.866 125.776 282.866C123.94 282.866 122.752 281.588 122.662 279.842H130.312ZM122.698 278.618C122.86 277.142 123.76 275.972 125.632 275.972C127.882 275.972 128.458 277.538 128.548 278.618H122.698ZM132.783 274.892V284.684C132.783 286.106 132.387 286.844 131.109 286.844H130.929V288.23C130.983 288.23 131.073 288.248 131.181 288.248C134.025 288.248 134.493 286.538 134.493 284.306V274.892H132.783ZM134.475 272.516V270.464H132.783V272.516H134.475ZM137.456 284H139.166V274.892H137.456V284ZM139.166 272.516V270.464H137.456V272.516H139.166ZM149.171 270.464V276.044C148.901 275.612 148.163 274.64 146.039 274.64C143.663 274.64 141.395 276.53 141.395 279.518C141.395 282.29 143.177 284.252 145.823 284.252C147.929 284.252 148.703 283.388 149.171 282.614C149.171 283.064 149.189 283.622 149.243 284H150.899C150.881 283.118 150.881 282.236 150.881 281.354V270.464H149.171ZM143.159 279.482C143.159 277.754 144.167 276.062 146.237 276.062C148.523 276.062 149.243 277.412 149.243 279.41C149.243 281.426 148.343 282.812 146.183 282.812C144.185 282.812 143.159 281.156 143.159 279.482ZM161.778 277.754C161.778 276.26 161.04 274.64 157.728 274.64C154.596 274.64 153.786 276.332 153.678 277.538H155.388C155.586 276.71 155.982 275.936 157.728 275.936C159.672 275.936 160.104 276.872 160.104 277.862V278.348H157.89C155.28 278.348 153.156 278.996 153.156 281.318C153.156 282.686 154.11 284.252 156.684 284.252C158.61 284.252 159.654 283.604 160.122 282.668C160.14 282.974 160.158 283.676 160.23 284H161.868C161.832 283.784 161.778 282.632 161.778 281.75V277.754ZM160.104 279.95C160.104 281.498 159.456 282.902 157.026 282.902C155.514 282.902 154.848 282.146 154.848 281.246C154.848 280.022 155.838 279.554 157.926 279.554H160.104V279.95ZM171.812 270.464V276.044C171.542 275.612 170.804 274.64 168.68 274.64C166.304 274.64 164.036 276.53 164.036 279.518C164.036 282.29 165.818 284.252 168.464 284.252C170.57 284.252 171.344 283.388 171.812 282.614C171.812 283.064 171.83 283.622 171.884 284H173.54C173.522 283.118 173.522 282.236 173.522 281.354V270.464H171.812ZM165.8 279.482C165.8 277.754 166.808 276.062 168.878 276.062C171.164 276.062 171.884 277.412 171.884 279.41C171.884 281.426 170.984 282.812 168.824 282.812C166.826 282.812 165.8 281.156 165.8 279.482Z" fill="#060809"/>
<path d="M378.896 284H380.588V279.14C380.588 277.394 381.272 276.062 382.982 276.062C384.584 276.062 384.962 277.268 384.962 278.366V284H386.654V279.014C386.654 277.034 387.607 276.062 389.048 276.062C390.668 276.062 391.01 277.376 391.01 278.438V284H392.72V278.366C392.72 275.684 391.244 274.64 389.462 274.64C387.662 274.64 386.816 275.594 386.33 276.386C385.916 275.36 385.034 274.64 383.522 274.64C381.92 274.64 381.038 275.468 380.588 276.26C380.588 275.774 380.57 275.27 380.534 274.892H378.878C378.896 275.684 378.896 276.458 378.896 277.25V284ZM403.516 277.754C403.516 276.26 402.778 274.64 399.466 274.64C396.334 274.64 395.524 276.332 395.416 277.538H397.126C397.324 276.71 397.72 275.936 399.466 275.936C401.41 275.936 401.842 276.872 401.842 277.862V278.348H399.628C397.018 278.348 394.894 278.996 394.894 281.318C394.894 282.686 395.848 284.252 398.422 284.252C400.348 284.252 401.392 283.604 401.86 282.668C401.878 282.974 401.896 283.676 401.968 284H403.606C403.57 283.784 403.516 282.632 403.516 281.75V277.754ZM401.842 279.95C401.842 281.498 401.194 282.902 398.764 282.902C397.252 282.902 396.586 282.146 396.586 281.246C396.586 280.022 397.576 279.554 399.664 279.554H401.842V279.95ZM404.989 274.892L409.201 284.414C408.373 286.196 407.905 286.718 406.663 286.718C406.429 286.718 406.015 286.7 405.673 286.646V288.14C405.979 288.212 406.519 288.248 406.861 288.248C409.147 288.248 409.741 287.456 411.343 283.532L414.925 274.892H413.143C411.397 279.176 410.479 281.786 410.155 282.686H410.119C409.849 281.912 408.805 279.356 406.861 274.892H404.989ZM420.813 274.64C417.753 274.64 415.917 276.836 415.917 279.446C415.917 281.966 417.645 284.252 420.723 284.252C423.999 284.252 425.637 281.966 425.637 279.446C425.637 277.034 423.963 274.64 420.813 274.64ZM420.741 276.044C422.775 276.044 423.873 277.646 423.873 279.464C423.873 281.3 422.865 282.848 420.777 282.848C418.779 282.848 417.681 281.192 417.681 279.446C417.681 277.628 418.671 276.044 420.741 276.044ZM427.868 284H429.578V280.202C429.578 277.52 431.18 276.26 433.268 276.278V274.64C431.486 274.622 430.172 275.54 429.578 276.944C429.578 276.116 429.542 275.162 429.524 274.892H427.85C427.868 275.72 427.868 276.548 427.868 277.376V284ZM447.26 281.156C446.81 282.182 445.982 282.866 444.506 282.866C442.544 282.866 441.464 281.336 441.464 279.446C441.464 277.448 442.58 276.026 444.506 276.026C446.198 276.026 446.918 276.944 447.242 277.808H448.952C448.754 276.584 447.602 274.64 444.524 274.64C441.464 274.64 439.7 276.89 439.7 279.482C439.7 282.074 441.266 284.252 444.506 284.252C447.098 284.252 448.52 282.794 448.97 281.156H447.26ZM455.389 274.64C452.329 274.64 450.493 276.836 450.493 279.446C450.493 281.966 452.221 284.252 455.299 284.252C458.575 284.252 460.213 281.966 460.213 279.446C460.213 277.034 458.539 274.64 455.389 274.64ZM455.317 276.044C457.351 276.044 458.449 277.646 458.449 279.464C458.449 281.3 457.441 282.848 455.353 282.848C453.355 282.848 452.257 281.192 452.257 279.446C452.257 277.628 453.247 276.044 455.317 276.044ZM462.444 284H464.136V279.14C464.136 277.394 464.82 276.062 466.53 276.062C468.132 276.062 468.51 277.268 468.51 278.366V284H470.202V279.014C470.202 277.034 471.156 276.062 472.596 276.062C474.216 276.062 474.558 277.376 474.558 278.438V284H476.268V278.366C476.268 275.684 474.792 274.64 473.01 274.64C471.21 274.64 470.364 275.594 469.878 276.386C469.464 275.36 468.582 274.64 467.07 274.64C465.468 274.64 464.586 275.468 464.136 276.26C464.136 275.774 464.118 275.27 464.082 274.892H462.426C462.444 275.684 462.444 276.458 462.444 277.25V284ZM480.959 287.996V282.65C481.463 283.424 482.291 284.252 484.181 284.252C486.665 284.252 488.717 282.254 488.717 279.284C488.717 276.656 486.917 274.64 484.469 274.64C482.561 274.64 481.499 275.504 480.959 276.458C480.959 275.774 480.941 275.144 480.905 274.892H479.231C479.249 275.648 479.249 276.404 479.249 277.16V287.996H480.959ZM486.953 279.356C486.953 281.174 485.945 282.794 483.929 282.794C481.913 282.794 480.923 281.39 480.923 279.482C480.923 277.574 481.841 276.08 483.965 276.08C486.017 276.08 486.953 277.736 486.953 279.356ZM492.719 284V270.464H491.009V284H492.719ZM504.326 279.842C504.344 279.662 504.344 279.554 504.344 279.392C504.344 277.178 503.12 274.64 499.664 274.64C496.784 274.64 494.948 276.728 494.948 279.464C494.948 281.876 496.442 284.252 499.7 284.252C502.436 284.252 503.714 282.758 504.2 281.408H502.49C502.004 282.29 501.212 282.866 499.79 282.866C497.954 282.866 496.766 281.588 496.676 279.842H504.326ZM496.712 278.618C496.874 277.142 497.774 275.972 499.646 275.972C501.896 275.972 502.472 277.538 502.562 278.618H496.712ZM506.796 274.892V284.684C506.796 286.106 506.4 286.844 505.122 286.844H504.942V288.23C504.996 288.23 505.086 288.248 505.194 288.248C508.038 288.248 508.506 286.538 508.506 284.306V274.892H506.796ZM508.488 272.516V270.464H506.796V272.516H508.488ZM511.47 284H513.18V274.892H511.47V284ZM513.18 272.516V270.464H511.47V272.516H513.18ZM523.185 270.464V276.044C522.915 275.612 522.177 274.64 520.053 274.64C517.677 274.64 515.409 276.53 515.409 279.518C515.409 282.29 517.191 284.252 519.837 284.252C521.943 284.252 522.717 283.388 523.185 282.614C523.185 283.064 523.203 283.622 523.257 284H524.913C524.895 283.118 524.895 282.236 524.895 281.354V270.464H523.185ZM517.173 279.482C517.173 277.754 518.181 276.062 520.251 276.062C522.537 276.062 523.257 277.412 523.257 279.41C523.257 281.426 522.357 282.812 520.197 282.812C518.199 282.812 517.173 281.156 517.173 279.482ZM535.791 277.754C535.791 276.26 535.053 274.64 531.741 274.64C528.609 274.64 527.799 276.332 527.691 277.538H529.401C529.599 276.71 529.995 275.936 531.741 275.936C533.685 275.936 534.117 276.872 534.117 277.862V278.348H531.903C529.293 278.348 527.169 278.996 527.169 281.318C527.169 282.686 528.123 284.252 530.697 284.252C532.623 284.252 533.667 283.604 534.135 282.668C534.153 282.974 534.171 283.676 534.243 284H535.881C535.845 283.784 535.791 282.632 535.791 281.75V277.754ZM534.117 279.95C534.117 281.498 533.469 282.902 531.039 282.902C529.527 282.902 528.861 282.146 528.861 281.246C528.861 280.022 529.851 279.554 531.939 279.554H534.117V279.95ZM545.825 270.464V276.044C545.555 275.612 544.817 274.64 542.693 274.64C540.317 274.64 538.049 276.53 538.049 279.518C538.049 282.29 539.831 284.252 542.477 284.252C544.583 284.252 545.357 283.388 545.825 282.614C545.825 283.064 545.843 283.622 545.897 284H547.553C547.535 283.118 547.535 282.236 547.535 281.354V270.464H545.825ZM539.813 279.482C539.813 277.754 540.821 276.062 542.891 276.062C545.177 276.062 545.897 277.412 545.897 279.41C545.897 281.426 544.997 282.812 542.837 282.812C540.839 282.812 539.813 281.156 539.813 279.482Z" fill="#060809"/>
<path d="M274.939 451.061C275.525 451.646 276.475 451.646 277.061 451.061L286.607 441.515C287.192 440.929 287.192 439.979 286.607 439.393C286.021 438.808 285.071 438.808 284.485 439.393L276 447.879L267.515 439.393C266.929 438.808 265.979 438.808 265.393 439.393C264.808 439.979 264.808 440.929 265.393 441.515L274.939 451.061ZM277.061 34.9393C276.475 34.3536 275.525 34.3536 274.939 34.9393L265.393 44.4853C264.808 45.0711 264.808 46.0208 265.393 46.6066C265.979 47.1924 266.929 47.1924 267.515 46.6066L276 38.1213L284.485 46.6066C285.071 47.1924 286.021 47.1924 286.607 46.6066C287.192 46.0208 287.192 45.0711 286.607 44.4853L277.061 34.9393ZM277.5 450V36H274.5V450H277.5Z" fill="#1A4CE0"/>
<path d="M0.93934 241.939C0.353553 242.525 0.353553 243.475 0.93934 244.061L10.4853 253.607C11.0711 254.192 12.0208 254.192 12.6066 253.607C13.1924 253.021 13.1924 252.071 12.6066 251.485L4.12132 243L12.6066 234.515C13.1924 233.929 13.1924 232.979 12.6066 232.393C12.0208 231.808 11.0711 231.808 10.4853 232.393L0.93934 241.939ZM550.061 244.061C550.646 243.475 550.646 242.525 550.061 241.939L540.515 232.393C539.929 231.808 538.979 231.808 538.393 232.393C537.808 232.979 537.808 233.929 538.393 234.515L546.879 243L538.393 251.485C537.808 252.071 537.808 253.021 538.393 253.607C538.979 254.192 539.929 254.192 540.515 253.607L550.061 244.061ZM2 244.5H549V241.5H2V244.5Z" fill="#1A4CE0"/>
<path d="M110.988 148H115.278V126.82H108.828C106.548 133.18 104.088 139.69 103.158 142.78H103.128C102.498 140.2 100.008 133.48 97.6082 126.82H91.2182V148H95.2382V139.99C95.2382 136.39 95.0582 132.16 94.9082 129.7H94.9382C96.0782 133.51 98.8682 141.46 100.938 148H104.838C107.508 140.38 110.028 133.39 111.078 129.7H111.108C110.988 132.01 110.988 135.79 110.988 139.54V148ZM132.09 148L141.09 126.82H136.32L132.24 137.2C130.44 142.03 129.93 143.38 129.6 144.55H129.54C129.15 143.23 128.52 141.22 126.99 137.29L122.91 126.82H117.99L126.84 148H132.09ZM143.894 148H148.334V140.11H154.484C159.524 140.11 162.554 137.62 162.554 133.33C162.554 129.37 159.554 126.82 154.514 126.82H143.894V148ZM148.334 130.3H154.094C156.854 130.3 158.084 131.47 158.084 133.39C158.084 135.82 156.494 136.6 154.094 136.6H148.334V130.3Z" fill="#060809"/>
<defs>
<radialGradient id="paint0_radial" cx="0" cy="0" r="1" gradientUnits="userSpaceOnUse" gradientTransform="translate(276 243) rotate(180) scale(274 205)">
<stop stop-color="#310058"/>
<stop offset="0.927083" stop-color="#F4F4F4" stop-opacity="0"/>
</radialGradient>
</defs>
</svg>
