<svg xmlns="http://www.w3.org/2000/svg" viewBox="0 0 800 800">
    <path d="M547.18,682.73l-23.06,60h-66L564.59,478.44h82.24L758.71,742.7H689.35l-24.56-60Zm99.69-51.4C622.28,570.77,610.3,539.9,604,519.71h-.38c-5.91,19.77-19.94,60-39.81,111.62Z" class="a"/>
    <path d="M304.71,123a319.14,319.14,0,0,0,40.07-3.17v55.9c-12.65-.35-27.07-.7-36.91-.7h-39c1,50.27,2.46,103,3.16,152.22.35,25-13.71,39.72-43.59,39.72-23.2,0-42.18-.7-63.63-2.11l-4.92-55.19a328.69,328.69,0,0,0,45.35,3.87c8.08,0,11.6-4.58,11.6-14.77,0-20.74,0-47.46-.35-77C184.83,261.89,130,306.53,78.66,333.6l-39-44.29c66.44-31.29,122-75.58,150.11-114.25h-84c-13.36,0-30.93.7-43.94,1.4V120.22A382.18,382.18,0,0,0,104.33,123H214L213,102.64c-.7-11.25-1.76-25.66-3.86-39.37H269.2a246.31,246.31,0,0,0-2.11,39.37l.35,20.39Z" class="a"/>
    <path d="M425,128c89.3,0,194,59,194,199v58" vector-effect="non-scaling-stroke"/>
    <polyline points="699.5 303.5 618.5 385.5 538.5 303.5" vector-effect="non-scaling-stroke"/>
    <path d="M370,684c-89.3,0-194-59-194-199V427" vector-effect="non-scaling-stroke"/>
    <polyline points="95.5 508.5 176.5 426.5 256.5 508.5" vector-effect="non-scaling-stroke"/>
</svg>
