<svg xmlns="http://www.w3.org/2000/svg" viewBox="0 0 648.1 283.5">
  <g fill="#f4f4f4">
    <path d="M270.4 195.7a14.7 14.7 0 0 0-11.3-.1c-3.1 1.2-4.8 3.7-5.6 6.9h21.9l-.1-1a7.6 7.6 0 0 0-4.9-5.8zM333.2 197.1c-2.2-.9-4.5-1.1-6.9-1-7 .3-11.2 4.6-11.2 11.3 0 6.1 2.9 10.3 8.1 11.8 3.2.9 6.4.8 9.5-.3a10 10 0 0 0 6.3-6.1c1.1-2.9 1.1-5.9.3-8.9a10 10 0 0 0-6.1-6.8zM83.5 210.8c-2.6 1-5.5 1-8.2 1.5a33 33 0 0 0-6.2 1.5c-1.8.7-2.4 2.2-2.1 4 .3 1.6 1.2 2.5 3.2 2.8 3.8.6 7.5 0 10.9-1.8 3.6-1.9 4.9-4.6 4.3-8.8l-1.9.8zM573.1 197.1c-2.1-.6-4.3-.7-6.5-.5-5.7.6-9.3 3.8-10 9.5-.5 4.2.4 8 3.9 10.8 2.4 1.9 5.2 2.4 8.2 2.5 1-.1 2-.1 2.9-.3 4.3-.8 7.5-3 8.7-7.3.4-1.6.6-3.4.5-5-.2-4.8-3.1-8.4-7.7-9.7z"/>
    <path d="M634.1 65.3L450.6 3.8 448 3H2.5v277.6h287.2l4.8-4.2a44 44 0 0 1 58.6 0l4.8 4.2h287.7V69.1l-11.5-3.8zM107.6 233.1c-3.8-.2-7.6.4-11.3-.5-4-.9-7-3.3-9-6.9l-.3.1a17.3 17.3 0 0 1-12.4 6.9 33 33 0 0 1-15.6-1.4c-4.6-1.7-8-4.6-8.9-9.7l-.3-1.7v-2.2l.5-2.8c1-4.2 3.8-6.6 7.7-8 3.6-1.3 7.3-1.7 11-2.1 4.3-.4 8.6-.3 12.9-1.4l1.4-.4c2.3-.9 2.8-2.3 1.7-4.5a6.1 6.1 0 0 0-4-3c-2.5-.7-5.1-.8-7.7-.2-2.9.7-4.8 2.4-5.4 5.4l-.2.7H51.3c.4-5.9 2.5-10.8 7.4-14.2 3.1-2.2 6.7-3.3 10.4-3.9 6.2-.9 12.5-.9 18.7.5 4.1.9 7.7 2.6 10.6 5.8 2.7 3 3.8 6.6 3.9 10.6v14.7c.2 2.1 1.2 3.2 3.3 3.5l1.9.2.1 14.5zm21.2-20.9a8.5 8.5 0 0 0 5.5 6c3.3 1.3 6.6 1.4 10 .5a8 8 0 0 0 6.2-6.2c.1-.5.2-.9.9-.9h15.9l.4.1c-.2 4.5-1.8 8.5-4.6 11.9a25.3 25.3 0 0 1-13.6 8.2 38.8 38.8 0 0 1-22.4-.8 23.1 23.1 0 0 1-16.1-23.4c.2-6.5 2-12.4 6.7-17.1 3.8-3.8 8.5-6 13.7-7 7.5-1.5 15-1.3 22.2 1.6a20.6 20.6 0 0 1 13.3 13.8c.5 1.6.6 3.2 1 5l-1.1.1h-15.1c-.5 0-.9 0-1-.6-.9-3.7-3.5-5.7-7.1-6.5-2.6-.5-5.1-.5-7.7.1-4.7 1.1-7.5 4.7-7.7 9.9 0 1.7.2 3.6.6 5.3zm99.8 20h-16.7v-8.4l-.6.6c-4 5.6-9.6 8.3-16.4 8.6-4.3.2-8.4-.3-12.3-2.2-5.4-2.6-8.4-7-9.5-12.8-.4-2-.6-4-.6-6v-27.7-.9h16.7v25.7c0 1 0 2 .2 2.9a6.6 6.6 0 0 0 5.1 5.5c3.5 1 7 1 10.5-.2a9.3 9.3 0 0 0 6.8-9.4v-23.3-1.2h16.7l.1 48.8zm64.3-20.7h-39.8c-.2 4.5 2.8 8.1 7.4 9.1 3.2.7 6.4.6 9.6-.2 2.4-.5 4.3-1.8 5-4.4h17.4c-.3 1.2-.5 2.3-.9 3.4a17 17 0 0 1-7.5 8.6 34.6 34.6 0 0 1-15 4.6c-6.5.6-12.9.2-19.1-2.3a22.6 22.6 0 0 1-14.8-20.7c-.4-5.8.7-11.3 4-16.1a24 24 0 0 1 14-9.5 37.6 37.6 0 0 1 26 1.5 22 22 0 0 1 13.5 20.6c.3 1.9.2 3.6.2 5.4zm63.7 20.5h-16.7v-5.3h-.3a21.1 21.1 0 0 1-13.2 6.1 30 30 0 0 1-14.5-1.6 21 21 0 0 1-12.2-12.2 32.4 32.4 0 0 1-1.1-20.4c2-7.3 6.7-12.2 13.9-14.4a29.6 29.6 0 0 1 21.7.9c2 .9 3.7 2.4 5.5 3.6V162h16.7c.2 23.3.2 46.6.2 70zm64.6.2h-16.7v-8.4l-.5.6c-4 5.6-9.5 8.3-16.2 8.7-4.3.2-8.6-.2-12.5-2.2-5.4-2.6-8.4-7-9.5-12.8-.4-2-.6-4-.6-6v-27.7l.1-.9H382v25.7c0 1 0 2 .2 2.9a6.6 6.6 0 0 0 5.1 5.5c3.5 1 7 1 10.5-.2a9.3 9.3 0 0 0 6.8-9.4v-23.3-1.2h16.7l-.1 48.7zm63.6-28.3l-.9.1h-15.2c-.5 0-.8 0-1-.6-1-3.8-3.6-5.8-7.3-6.5-3-.6-6-.6-8.9.5-4.3 1.6-6.1 5.1-6.4 9.5a12 12 0 0 0 1.9 8.2c1.8 2.5 4.4 3.7 7.4 4.1 2.4.4 4.9.3 7.3-.4 3.1-1 5.1-3 5.9-6.2.1-.6.3-.8.9-.8h15.6l.7.1a19 19 0 0 1-2.3 8.5c-2.7 5-6.8 8.4-12.1 10.3a36.5 36.5 0 0 1-30-1.3 21.9 21.9 0 0 1-12.2-19 26 26 0 0 1 3.1-15.2c3.3-5.7 8.4-9.3 14.6-11a37.6 37.6 0 0 1 27 1.9 20 20 0 0 1 11.8 15.7l.1.9v1.2zm50.8 28.3l-.5.1-17.4-.1c-3.5 0-6.9-.6-10.2-1.8a17.1 17.1 0 0 1-12.1-15.4c-.5-5.1-.3-10.3-.4-15.5V198h-8.2v-14.5h8.2v-17.4h17.1v17.4h20.6v14.4h-20.5l-.1.2c0 4.1-.2 8.1.1 12.1.4 5 2.7 7 7.8 7.2l14.3.1h1.3v14.7zm59.8-12.6c-3 6.2-8.1 9.8-14.6 11.8a47 47 0 0 1-5.4 1.2l-6.8.6a36 36 0 0 1-16.8-3.7 22 22 0 0 1-12.3-19.1c-.3-4.1 0-8.2 1.5-12.1a21.2 21.2 0 0 1 12.6-12.9c10.2-4 20.6-4 30.7.3 8.5 3.6 12.7 10.5 13.5 19.6.4 5-.2 9.8-2.4 14.3z"/>
  </g>
</svg>