<svg xmlns="http://www.w3.org/2000/svg" viewBox="0 0 388 32">
  <g fill="#f4f4f4">
    <path d="M6.1.1v11.1c.6-1.2 2.1-3.5 6.2-3.5 3.8 0 6.3 2.3 6.3 7.1v10.1h-3.2v-9.6c0-2.8-1-4.9-4.1-4.9-3.5 0-5.2 2.8-5.2 6.3v8.2H2.9V.1h3.2zM40.4 16.5c0 4.6-3 8.8-9 8.8a8.5 8.5 0 0 1-8.8-8.8c0-4.8 3.3-8.8 8.9-8.8 5.9 0 8.9 4.4 8.9 8.8zm-14.6.1c0 3.2 2 6.2 5.7 6.2 3.8 0 5.6-2.8 5.6-6.2 0-3.3-2-6.3-5.7-6.3s-5.6 2.9-5.6 6.3zM44.6 24.9V.1h3.1v24.8h-3.1zM67.7 20.7l.2 4.1h-3l-.2-2.4c-.9 1.7-2.8 2.9-6.3 2.9-4.7 0-6.4-2.9-6.4-5.4 0-4.3 3.9-5.4 8.6-5.4h4.1v-.9c0-1.8-.8-3.5-4.3-3.5-3.2 0-3.9 1.4-4.3 2.9H53c.2-2.2 1.7-5.3 7.4-5.3 6.1 0 7.4 3 7.4 5.7v7.3zm-3.1-4h-4c-3.8 0-5.6.8-5.6 3.1 0 1.7 1.2 3.1 4 3.1 4.4 0 5.6-2.6 5.6-5.4v-.8zM97.4 29.6a17.5 17.5 0 0 1-10.1 2.6c-8.4 0-14.8-5.9-14.8-15C72.5 8.5 78.4.9 88.7.9c8.1 0 14.2 5.2 14.2 12.8 0 6.8-3.8 10.7-8.6 10.7-2.2 0-3.6-1.1-3.6-3.1-1.1 1.7-2.6 3.1-5.4 3.1-3.1 0-5.2-2.3-5.2-6.2 0-5.6 3.4-10 7.7-10 3 0 4.1 1.7 4.4 2.9l.6-2.6h2.6l-2.1 10c-.4 2.9.5 3.5 1.7 3.5 3.1 0 5.2-3.4 5.2-8.2 0-6-4.5-10.5-11.7-10.5-8.3 0-13.1 6.2-13.1 13.9 0 7.3 5 12.4 12.2 12.4 4.7 0 7-1.1 9.1-2.2l.7 2.2zM83.1 18c0 2.8 1.1 4 3.1 4 2.4 0 4.3-2.3 4.9-5.6.6-3.5-.1-5.8-3-5.8-3.3-.1-5 3.9-5 7.4zM122.1 20.7l.2 4.1h-3l-.2-2.4c-.9 1.7-2.8 2.9-6.3 2.9-4.7 0-6.4-2.9-6.4-5.4 0-4.3 3.9-5.4 8.6-5.4h4.1v-.9c0-1.8-.8-3.5-4.3-3.5-3.2 0-3.9 1.4-4.3 2.9h-3.1c.2-2.2 1.7-5.3 7.4-5.3 6.1 0 7.4 3 7.4 5.7v7.3zm-3-4h-4c-3.8 0-5.6.8-5.6 3.1 0 1.7 1.2 3.1 4 3.1 4.4 0 5.6-2.6 5.6-5.4v-.8zM143.2 19.7c-.8 3-3.4 5.7-8.2 5.7-5.9 0-8.8-4-8.8-8.7 0-4.7 3.2-8.8 8.8-8.8 5.6 0 7.7 3.6 8.1 5.8H140c-.6-1.6-1.9-3.2-5-3.2-3.5 0-5.6 2.6-5.6 6.3 0 3.5 2 6.3 5.6 6.3 2.7 0 4.2-1.2 5-3.1h3.2zM162.4 20v4.9h-3l-.1-2.8c-.8 1.9-2.3 3.3-6 3.3-3.5 0-6.3-1.9-6.3-6.8V8.2h3.1V18c0 2.5 1 4.7 4 4.7 3.6 0 5.1-2.1 5.1-6.9V8.2h3.1V20zM169.6 17.3c.2 3.2 2.3 5.5 5.7 5.5 2.6 0 4-1.1 4.9-2.7h3.1c-.9 2.5-3.3 5.2-8.2 5.2-6 0-8.7-4.4-8.7-8.7 0-5 3.4-8.8 8.6-8.8 6.3 0 8.6 4.6 8.6 8.7v.8h-14zm10.7-2.3c-.1-2-1.2-4.9-5.3-4.9-3.4 0-5.1 2.1-5.4 4.9h10.7zM204 .1v24.7h-3l-.1-2.5c-.8 1.4-2.3 3-6.1 3-4.8 0-8.1-3.6-8.1-8.7 0-5.5 4.1-8.9 8.5-8.9 3.9 0 5.3 1.8 5.7 2.6V.1h3.1zm-14.1 16.5c0 3.1 1.9 6.1 5.5 6.1 4 0 5.6-2.6 5.6-6.2 0-3.7-1.3-6.1-5.5-6.1-3.7 0-5.6 3.1-5.6 6.2zM224.6 20v4.9h-3l-.1-2.8c-.8 1.9-2.3 3.3-6 3.3-3.5 0-6.3-1.9-6.3-6.8V8.2h3.1V18c0 2.5 1 4.7 4 4.7 3.6 0 5.1-2.1 5.1-6.9V8.2h3.1V20zM245.7 19.7c-.8 3-3.4 5.7-8.2 5.7-5.9 0-8.8-4-8.8-8.7 0-4.7 3.2-8.8 8.8-8.8 5.6 0 7.7 3.6 8.1 5.8h-3.1c-.6-1.6-1.9-3.2-5-3.2-3.5 0-5.6 2.6-5.6 6.3 0 3.5 2 6.3 5.6 6.3 2.7 0 4.2-1.2 5-3.1h3.2zM247.7 8.2h3.3V2.8h3.1v5.4h4.3v2.5h-4.3v9.1c0 1.9.5 2.8 2.3 2.8l1.6-.1v2.3c-.8.3-1.6.3-2.6.3-3.5 0-4.5-1.5-4.5-4.8v-9.5h-3.3V8.2zM278.3 16.5c0 4.6-3 8.8-9 8.8a8.5 8.5 0 0 1-8.8-8.8c0-4.8 3.3-8.8 8.9-8.8 5.8 0 8.9 4.4 8.9 8.8zm-14.6.1c0 3.2 2 6.2 5.7 6.2 3.8 0 5.6-2.8 5.6-6.2 0-3.3-2-6.3-5.7-6.3-3.8 0-5.6 2.9-5.6 6.3zM281.6 24.9v-5.4h3.5v5.4h-3.5zM292 19.8c.6 2 2.3 3.1 5.3 3.1 3.2 0 4.3-1.1 4.3-2.6 0-1.4-.8-2.3-5.1-2.8-5.9-.7-7-2.8-7-4.9 0-2.2 1.7-4.9 7.1-4.9 5.8 0 7.4 3 7.6 5h-3.1c-.3-1-.9-2.6-4.6-2.6-3.1 0-3.7 1.3-3.7 2.3 0 1.2.8 2 4.6 2.5 6.3.8 7.4 2.8 7.4 5.2 0 3-2.3 5.2-7.7 5.2-4.9 0-7.7-2.1-8.3-5.5h3.2zM306.5 8.2h3.3V2.8h3.1v5.4h4.3v2.5h-4.3v9.1c0 1.9.5 2.8 2.3 2.8l1.6-.1v2.3c-.8.3-1.6.3-2.6.3-3.5 0-4.5-1.5-4.5-4.8v-9.5h-3.3V8.2zM335.7 20v4.9h-3l-.1-2.8c-.8 1.9-2.3 3.3-6 3.3-3.5 0-6.3-1.9-6.3-6.8V8.2h3.1V18c0 2.5 1 4.7 4 4.7 3.6 0 5.1-2.1 5.1-6.9V8.2h3.1V20zM357.2.1v24.7h-3l-.1-2.5c-.8 1.4-2.3 3-6.1 3-4.8 0-8.1-3.6-8.1-8.7 0-5.5 4.1-8.9 8.5-8.9 3.9 0 5.3 1.8 5.7 2.6V.1h3.1zm-14.1 16.5c0 3.1 1.9 6.1 5.5 6.1 4 0 5.6-2.6 5.6-6.2 0-3.7-1.3-6.1-5.5-6.1-3.8 0-5.6 3.1-5.6 6.2zM362.6.1h3.1v3.8h-3.1V.1zm0 8.1h3.1v16.7h-3.1V8.2zM387.6 16.5c0 4.6-3 8.8-9 8.8a8.5 8.5 0 0 1-8.8-8.8c0-4.8 3.3-8.8 8.9-8.8 5.8 0 8.9 4.4 8.9 8.8zm-14.6.1c0 3.2 2 6.2 5.7 6.2 3.8 0 5.6-2.8 5.6-6.2 0-3.3-2-6.3-5.7-6.3s-5.6 2.9-5.6 6.3z"/>
  </g>
</svg>