<svg xmlns="http://www.w3.org/2000/svg" viewBox="0 0 98.8 81.1">
  <path d="M77.5 42.5c1.4.3 2.8.5 4.1.9 3 .9 5.3 2.9 7.3 5.2 3.3 3.9 5 8.3 4.9 13.4-.1 5.2-2.4 9.4-6 13a18.7 18.7 0 0 1-8.6 5c-4.6 1.1-9.2.7-13.3-1.7a20 20 0 0 1-9.8-12.9c-.7-2.5-.9-5.1-.9-7.7A60.2 60.2 0 0 1 61.7 32a82.2 82.2 0 0 1 11.4-17.1A59.1 59.1 0 0 1 90.9.4l7.3 12.9-5.6 4.3a52.2 52.2 0 0 0-10.4 11.1c-2 3.1-3.4 6.5-4.1 10.2l-.6 3.6zM36 .5l7.4 12.9-1.2.9c-4.1 3-7.9 6.2-11.2 9.9a33.6 33.6 0 0 0-8.4 17.2l-.2 1c1.6.4 3.2.7 4.7 1.3 2.8 1 5 3 6.9 5.3a19.3 19.3 0 0 1 1.6 22.6 19.8 19.8 0 0 1-7.1 6.7 17.9 17.9 0 0 1-23.2-5c-2.6-3.2-4-7-4.4-11.1-.9-7.3.2-14.4 2.4-21.4A76.5 76.5 0 0 1 23.6 9.1 57.7 57.7 0 0 1 36 .5z"/>
</svg>