<svg width="643" height="93" viewBox="0 0 643 93" fill="none" xmlns="http://www.w3.org/2000/svg">
    <path
        d="M1.90039 71.7204C2.0845 70.6027 2.20725 69.4198 2.45273 68.3021C3.61879 63.1096 6.87149 60.0858 11.3516 58.3767C15.4635 56.7994 19.8209 56.2731 24.1168 55.813C29.0879 55.3529 34.1817 55.4186 39.0915 54.0382C39.6438 53.9069 40.1348 53.7099 40.6871 53.5125C43.3875 52.3296 43.9398 50.6861 42.651 47.9253C41.6691 45.8876 40.0121 44.8359 38.0482 44.2443C35.1023 43.3898 32.0951 43.3241 29.1493 44.0471C25.8352 44.8359 23.6259 47.0051 22.9508 50.6861C22.8894 50.949 22.828 51.2119 22.7666 51.5406C16.3841 51.5406 10.0628 51.5406 3.68016 51.5406C4.10976 44.2443 6.56462 38.197 12.2722 33.9244C15.9544 31.2294 20.0663 29.849 24.4237 29.1259C31.6655 27.9428 38.9073 28.0085 46.1492 29.7833C50.8748 30.9664 55.1707 32.9384 58.4234 36.8824C61.5535 40.6291 62.9034 45.0989 62.9652 49.963C63.0877 55.5504 63.0264 61.0717 63.0264 66.6592C63.0264 67.1849 63.0264 67.645 63.0877 68.1708C63.2719 70.7345 64.5606 72.1148 66.9543 72.4436C67.629 72.5749 68.3655 72.5749 69.1637 72.6406C69.1637 78.622 69.1637 84.5383 69.1637 90.651C64.7448 90.3884 60.326 91.1768 56.0302 90.0596C51.3659 88.8763 47.9289 85.9843 45.5968 81.5145C45.4741 81.5802 45.3513 81.5802 45.29 81.7115C41.7304 86.9045 36.698 89.4682 30.8677 90.2566C24.7306 91.1111 18.5934 90.7828 12.7018 88.548C7.30107 86.51 3.43467 82.8292 2.32999 76.5189C2.20725 75.7957 2.0845 75.1386 1.96176 74.4154C1.90039 73.6265 1.90039 72.6406 1.90039 71.7204ZM43.2647 62.1232C42.4669 62.452 41.7918 62.8465 41.1167 63.1096C38.0482 64.4243 34.7955 64.4243 31.6041 64.95C29.1493 65.3445 26.6944 65.9359 24.4237 66.8561C22.3985 67.7107 21.662 69.6168 22.0302 71.786C22.3371 73.7578 23.4418 74.9411 25.7125 75.2699C30.1312 75.9927 34.3659 75.2699 38.355 73.035C42.5282 70.6027 43.9398 67.3819 43.2647 62.1232Z"
        fill="#0C1112" />
    <path
        d="M358.41 89.4035C351.905 89.4035 345.522 89.4035 339.017 89.4035C339.017 87.1686 339.017 84.9999 339.017 82.8307C338.832 82.8307 338.71 82.765 338.71 82.8307C334.475 87.3661 329.259 89.601 323.428 90.3899C317.721 91.1126 312.013 90.6525 306.612 88.4833C299.8 85.7226 295.075 80.5958 292.436 73.431C289.429 65.1485 289.06 56.6691 291.208 48.124C293.479 39.1187 298.941 33.0714 307.288 30.3106C315.757 27.4842 324.288 27.4842 332.511 31.4938C334.782 32.6112 336.807 34.386 338.955 35.8979C338.955 25.0521 338.955 14.0091 338.955 2.90039C345.522 2.90039 351.905 2.90039 358.41 2.90039C358.41 31.6253 358.41 60.4818 358.41 89.4035ZM310.172 58.9696C310.233 66.5288 313.547 71.7219 319.623 73.5623C323.367 74.68 327.049 74.5482 330.732 73.1679C334.23 71.8532 336.746 69.3557 338.035 65.6086C339.262 61.9934 339.385 58.2469 338.341 54.566C337.237 50.5561 334.843 47.7954 331.161 46.2178C328.583 45.1004 325.883 44.8374 323.121 44.9689C315.02 45.3633 310.11 50.6876 310.172 58.9696Z"
        fill="#0C1112" />
    <path
        d="M284.395 64.0958C268.868 64.0958 253.525 64.0958 238.182 64.0958C237.998 69.6828 241.374 74.1526 246.775 75.4016C250.518 76.2561 254.262 76.1248 257.944 75.2046C260.767 74.547 262.976 72.9697 263.774 69.8146C270.464 69.8146 277.092 69.8146 284.027 69.8146C283.659 71.2606 283.475 72.7066 282.984 73.9556C281.388 78.688 278.258 82.0406 274.33 84.6699C268.991 88.1538 263.099 89.7968 256.9 90.3887C249.352 91.1115 241.865 90.6513 234.746 87.4962C224.006 82.8295 218.421 74.1526 217.562 61.9266C217.071 54.7618 218.359 47.9914 222.226 42.0097C226.215 35.8966 231.8 32.1499 238.489 30.2437C248.738 27.2857 258.926 27.4172 268.623 32.1499C278.749 37.0798 283.843 45.8222 284.272 57.5881C284.456 59.6917 284.395 61.7952 284.395 64.0958ZM264.02 52.8557C263.958 52.3956 263.958 51.9355 263.897 51.5409C263.222 48.0571 261.258 45.7565 258.251 44.3761C253.955 42.4698 249.536 42.4698 245.179 44.1789C241.496 45.625 239.594 48.7801 238.612 52.7895C247.143 52.8557 255.489 52.8557 264.02 52.8557Z"
        fill="#0C1112" />
    <path
        d="M604.875 90.9134C598.064 90.7159 591.435 89.7301 585.359 86.378C576.338 81.4481 571.859 73.2969 570.997 62.7144C570.629 57.587 571.06 52.5915 572.717 47.7931C575.358 40.1681 580.326 34.7781 587.382 31.8859C599.289 26.956 611.319 26.8903 623.103 32.2146C632.982 36.6844 637.891 45.2295 638.754 56.4698C639.244 62.6487 638.568 68.5645 635.99 74.2171C632.492 81.842 626.538 86.378 619.051 88.8098C617.027 89.4669 614.94 89.9932 612.794 90.2558C610.153 90.519 607.516 90.6503 604.875 90.9134ZM604.875 73.8888C606.041 73.757 607.144 73.757 608.31 73.4944C613.284 72.5742 616.964 69.8135 618.375 64.423C618.87 62.4513 619.051 60.282 618.992 58.179C618.806 52.2627 615.43 47.7931 610.094 46.2155C607.639 45.4924 605.12 45.361 602.543 45.6239C595.913 46.347 591.743 50.3566 590.881 57.3901C590.268 62.5826 591.312 67.3155 595.423 70.7337C598.123 73.1 601.377 73.757 604.875 73.8888Z"
        fill="#0C1112" />
    <path
        d="M144.525 29.458C150.969 29.458 157.413 29.458 163.98 29.458C163.98 30.0496 163.98 30.5097 163.98 31.0356C163.98 41.0926 163.98 51.1496 163.98 61.2724C163.98 62.5214 164.041 63.7043 164.225 64.8877C164.839 68.5029 166.926 70.7378 170.178 71.7236C174.229 72.907 178.341 72.907 182.33 71.5267C187.485 69.6862 190.247 65.6104 190.247 59.8264C190.247 50.2293 190.247 40.6325 190.247 31.0356C190.247 30.5097 190.247 30.0496 190.247 29.5237C196.814 29.5237 203.258 29.5237 209.702 29.5237C209.702 49.6377 209.702 69.6201 209.702 89.6684C203.258 89.6684 196.814 89.6684 190.308 89.6684C190.308 86.2507 190.308 82.8981 190.308 79.2829C189.94 79.6773 189.756 79.8743 189.633 80.0718C184.969 87.0391 178.464 90.326 170.608 90.7205C165.637 90.9831 160.788 90.3917 156.247 88.0255C150.048 84.8042 146.489 79.3485 145.2 72.2494C144.771 69.8175 144.525 67.3195 144.525 64.822C144.463 53.3844 144.463 42.0128 144.525 30.5755C144.463 30.1811 144.463 29.8524 144.525 29.458Z"
        fill="#0C1112" />
    <path
        d="M368.351 29.458C374.795 29.458 381.239 29.458 387.806 29.458C387.806 30.0496 387.806 30.5097 387.806 31.0356C387.806 41.0926 387.806 51.1496 387.806 61.2724C387.806 62.5214 387.868 63.7043 388.052 64.8877C388.665 68.5029 390.752 70.7378 394.005 71.7236C398.055 72.907 402.167 72.907 406.156 71.5267C411.312 69.6862 414.073 65.6104 414.073 59.826C414.073 50.2293 414.073 40.6325 414.073 31.0356C414.073 30.5097 414.073 30.0496 414.073 29.458C420.579 29.458 427.023 29.458 433.467 29.458C433.467 49.5063 433.467 69.5544 433.467 89.6684C427.023 89.6684 420.579 89.6684 414.073 89.6684C414.073 86.2507 414.073 82.8981 414.073 79.2829C413.767 79.6773 413.582 79.8086 413.46 80.0061C408.857 86.9078 402.413 90.2603 394.619 90.7205C389.586 91.0488 384.676 90.3917 380.074 88.0255C373.875 84.8042 370.315 79.3485 369.027 72.2494C368.597 69.8175 368.351 67.3195 368.351 64.822C368.29 53.3844 368.29 41.9471 368.29 30.5097C368.29 30.1811 368.351 29.8524 368.351 29.458Z"
        fill="#0C1112" />
    <path
        d="M563.017 47.2719C554.976 47.2719 547.063 47.2719 539.203 47.2719C539.08 47.4033 539.022 47.4691 539.022 47.5348C539.022 52.5305 538.835 57.5917 539.203 62.5872C539.698 68.7661 542.334 71.2642 548.229 71.4611C553.751 71.6586 559.337 71.5929 564.859 71.5929C565.349 71.5929 565.781 71.5929 566.393 71.5929C566.393 77.64 566.393 83.6215 566.393 89.6034C566.207 89.6034 566.026 89.669 565.839 89.669C559.087 89.669 552.399 89.669 545.651 89.6034C541.599 89.5377 537.61 88.8801 533.803 87.4342C525.336 84.2134 520.607 77.64 519.691 68.306C519.074 61.9301 519.382 55.4886 519.26 49.1124C519.26 48.5208 519.26 47.9292 519.26 47.2061C516.07 47.2061 512.939 47.2061 509.749 47.2061C509.749 41.2245 509.749 35.3086 509.749 29.327C512.875 29.327 516.006 29.327 519.26 29.327C519.26 22.0965 519.26 14.9974 519.26 7.76689C525.948 7.76689 532.456 7.76689 539.144 7.76689C539.144 14.9317 539.144 22.0308 539.144 29.327C547.185 29.327 555.162 29.327 563.139 29.327C563.017 35.3744 563.017 41.2245 563.017 47.2719Z"
        fill="#0C1112" />
    <path
        d="M139.007 64.4246C138.7 70.0116 136.982 74.9414 133.668 79.1486C129.495 84.4729 124.094 87.628 117.895 89.271C109.119 91.572 100.405 91.3746 91.8125 88.2195C79.7223 83.7497 72.7873 72.8384 73.1558 59.2316C73.3395 51.1466 75.4877 43.9161 80.9497 38.0659C85.3685 33.3332 90.8306 30.7039 96.8448 29.3893C105.621 27.5488 114.275 27.8117 122.621 31.2955C130.17 34.4506 135.754 39.8407 138.148 48.3201C138.7 50.2921 138.884 52.3299 139.314 54.4991C138.7 54.5648 138.393 54.6305 138.025 54.6305C132.195 54.6305 126.303 54.6305 120.473 54.6305C119.92 54.6305 119.43 54.6961 119.246 53.8416C118.141 49.2404 115.195 46.8083 110.96 45.8223C107.953 45.165 105.007 45.165 102 45.888C96.5993 47.2684 93.2242 51.7382 93.04 58.18C92.9787 60.4149 93.2242 62.7155 93.7152 64.8847C94.5742 68.4999 96.8448 70.9979 100.097 72.3121C103.903 73.8899 107.831 74.0869 111.758 72.9697C115.563 71.9181 118.018 69.3545 119 65.2791C119.123 64.6872 119.246 64.2271 120.043 64.2271C126.242 64.2933 132.379 64.2271 138.578 64.2933C138.639 64.2933 138.762 64.3589 139.007 64.4246Z"
        fill="#0C1112" />
    <path
        d="M507.354 54.5637C506.987 54.5637 506.678 54.6299 506.374 54.6299C500.479 54.6299 494.59 54.6299 488.697 54.6299C488.145 54.6299 487.777 54.6299 487.593 53.841C486.488 49.1739 483.419 46.6103 479.124 45.7558C475.625 45.0328 472.189 45.0328 468.813 46.4132C463.781 48.4509 461.755 52.7233 461.326 58.1133C461.08 61.7285 461.51 65.2124 463.474 68.2362C465.56 71.3913 468.568 72.7716 472.004 73.3635C474.827 73.8237 477.712 73.8237 480.474 72.903C484.095 71.7201 486.427 69.1564 487.286 65.2124C487.47 64.4897 487.654 64.2265 488.391 64.2265C494.467 64.2265 500.479 64.2265 506.555 64.2265C506.8 64.2265 506.987 64.2922 507.295 64.3578C507.109 68.1705 506.252 71.6544 504.59 74.8752C501.464 81.0541 496.677 85.2608 490.539 87.627C478.755 92.1629 466.972 92.0967 455.68 86.0497C446.781 81.2511 442.301 73.0348 441.503 62.5174C441.012 55.8784 441.932 49.5683 445.062 43.7182C448.867 36.6191 454.759 32.2808 462.062 30.1773C472.741 27.0879 483.296 27.3508 493.423 32.5437C501.033 36.4876 505.879 42.8636 507.168 52.0005C507.232 52.395 507.295 52.7233 507.295 53.1177C507.354 53.5778 507.354 53.9723 507.354 54.5637Z"
        fill="#0C1112" />
    <path
        d="M1.90039 71.7204C2.0845 70.6027 2.20725 69.4198 2.45273 68.3021C3.61879 63.1096 6.87149 60.0858 11.3516 58.3767C15.4635 56.7994 19.8209 56.2731 24.1168 55.813C29.0879 55.3529 34.1817 55.4186 39.0915 54.0382C39.6438 53.9069 40.1348 53.7099 40.6871 53.5125C43.3875 52.3296 43.9398 50.6861 42.651 47.9253C41.6691 45.8876 40.0121 44.8359 38.0482 44.2443C35.1023 43.3898 32.0951 43.3241 29.1493 44.0471C25.8352 44.8359 23.6259 47.0051 22.9508 50.6861C22.8894 50.949 22.828 51.2119 22.7666 51.5406C16.3841 51.5406 10.0628 51.5406 3.68016 51.5406C4.10976 44.2443 6.56462 38.197 12.2722 33.9244C15.9544 31.2294 20.0663 29.849 24.4237 29.1259C31.6655 27.9428 38.9073 28.0085 46.1492 29.7833C50.8748 30.9664 55.1707 32.9384 58.4234 36.8824C61.5535 40.6291 62.9034 45.0989 62.9652 49.963C63.0877 55.5504 63.0264 61.0717 63.0264 66.6592C63.0264 67.1849 63.0264 67.645 63.0877 68.1708C63.2719 70.7345 64.5606 72.1148 66.9543 72.4436C67.629 72.5749 68.3655 72.5749 69.1637 72.6406C69.1637 78.622 69.1637 84.5383 69.1637 90.651C64.7448 90.3884 60.326 91.1768 56.0302 90.0596C51.3659 88.8763 47.9289 85.9843 45.5968 81.5145C45.4741 81.5802 45.3513 81.5802 45.29 81.7115C41.7304 86.9045 36.698 89.4682 30.8677 90.2566C24.7306 91.1111 18.5934 90.7828 12.7018 88.548C7.30107 86.51 3.43467 82.8292 2.32999 76.5189C2.20725 75.7957 2.0845 75.1386 1.96176 74.4154C1.90039 73.6265 1.90039 72.6406 1.90039 71.7204ZM43.2647 62.1232C42.4669 62.452 41.7918 62.8465 41.1167 63.1096C38.0482 64.4243 34.7955 64.4243 31.6041 64.95C29.1493 65.3445 26.6944 65.9359 24.4237 66.8561C22.3985 67.7107 21.662 69.6168 22.0302 71.786C22.3371 73.7578 23.4418 74.9411 25.7125 75.2699C30.1312 75.9927 34.3659 75.2699 38.355 73.035C42.5282 70.6027 43.9398 67.3819 43.2647 62.1232Z"
        stroke="#F4F4F4" stroke-width="3" />
    <path
        d="M358.41 89.4035C351.905 89.4035 345.522 89.4035 339.017 89.4035C339.017 87.1686 339.017 84.9999 339.017 82.8307C338.832 82.8307 338.71 82.765 338.71 82.8307C334.475 87.3661 329.259 89.601 323.428 90.3899C317.721 91.1126 312.013 90.6525 306.612 88.4833C299.8 85.7226 295.075 80.5958 292.436 73.431C289.429 65.1485 289.06 56.6691 291.208 48.124C293.479 39.1187 298.941 33.0714 307.288 30.3106C315.757 27.4842 324.288 27.4842 332.511 31.4938C334.782 32.6112 336.807 34.386 338.955 35.8979C338.955 25.0521 338.955 14.0091 338.955 2.90039C345.522 2.90039 351.905 2.90039 358.41 2.90039C358.41 31.6253 358.41 60.4818 358.41 89.4035ZM310.172 58.9696C310.233 66.5288 313.547 71.7219 319.623 73.5623C323.367 74.68 327.049 74.5482 330.732 73.1679C334.23 71.8532 336.746 69.3557 338.035 65.6086C339.262 61.9934 339.385 58.2469 338.341 54.566C337.237 50.5561 334.843 47.7954 331.161 46.2178C328.583 45.1004 325.883 44.8374 323.121 44.9689C315.02 45.3633 310.11 50.6876 310.172 58.9696Z"
        stroke="#F4F4F4" stroke-width="3" />
    <path
        d="M284.395 64.0958C268.868 64.0958 253.525 64.0958 238.182 64.0958C237.998 69.6828 241.374 74.1526 246.775 75.4016C250.518 76.2561 254.262 76.1248 257.944 75.2046C260.767 74.547 262.976 72.9697 263.774 69.8146C270.464 69.8146 277.092 69.8146 284.027 69.8146C283.659 71.2606 283.475 72.7066 282.984 73.9556C281.388 78.688 278.258 82.0406 274.33 84.6699C268.991 88.1538 263.099 89.7968 256.9 90.3887C249.352 91.1115 241.865 90.6513 234.746 87.4962C224.006 82.8295 218.421 74.1526 217.562 61.9266C217.071 54.7618 218.359 47.9914 222.226 42.0097C226.215 35.8966 231.8 32.1499 238.489 30.2437C248.738 27.2857 258.926 27.4172 268.623 32.1499C278.749 37.0798 283.843 45.8222 284.272 57.5881C284.456 59.6917 284.395 61.7952 284.395 64.0958ZM264.02 52.8557C263.958 52.3956 263.958 51.9355 263.897 51.5409C263.222 48.0571 261.258 45.7565 258.251 44.3761C253.955 42.4698 249.536 42.4698 245.179 44.1789C241.496 45.625 239.594 48.7801 238.612 52.7895C247.143 52.8557 255.489 52.8557 264.02 52.8557Z"
        stroke="#F4F4F4" stroke-width="3" />
    <path
        d="M604.875 90.9134C598.064 90.7159 591.435 89.7301 585.359 86.378C576.338 81.4481 571.859 73.2969 570.997 62.7144C570.629 57.587 571.06 52.5915 572.717 47.7931C575.358 40.1681 580.326 34.7781 587.382 31.8859C599.289 26.956 611.319 26.8903 623.103 32.2146C632.982 36.6844 637.891 45.2295 638.754 56.4698C639.244 62.6487 638.568 68.5645 635.99 74.2171C632.492 81.842 626.538 86.378 619.051 88.8098C617.027 89.4669 614.94 89.9932 612.794 90.2558C610.153 90.519 607.516 90.6503 604.875 90.9134ZM604.875 73.8888C606.041 73.757 607.144 73.757 608.31 73.4944C613.284 72.5742 616.964 69.8135 618.375 64.423C618.87 62.4513 619.051 60.282 618.992 58.179C618.806 52.2627 615.43 47.7931 610.094 46.2155C607.639 45.4924 605.12 45.361 602.543 45.6239C595.913 46.347 591.743 50.3566 590.881 57.3901C590.268 62.5826 591.312 67.3155 595.423 70.7337C598.123 73.1 601.377 73.757 604.875 73.8888Z"
        stroke="#F4F4F4" stroke-width="3" />
    <path
        d="M144.525 29.458C150.969 29.458 157.413 29.458 163.98 29.458C163.98 30.0496 163.98 30.5097 163.98 31.0356C163.98 41.0926 163.98 51.1496 163.98 61.2724C163.98 62.5214 164.041 63.7043 164.225 64.8877C164.839 68.5029 166.926 70.7378 170.178 71.7236C174.229 72.907 178.341 72.907 182.33 71.5267C187.485 69.6862 190.247 65.6104 190.247 59.8264C190.247 50.2293 190.247 40.6325 190.247 31.0356C190.247 30.5097 190.247 30.0496 190.247 29.5237C196.814 29.5237 203.258 29.5237 209.702 29.5237C209.702 49.6377 209.702 69.6201 209.702 89.6684C203.258 89.6684 196.814 89.6684 190.308 89.6684C190.308 86.2507 190.308 82.8981 190.308 79.2829C189.94 79.6773 189.756 79.8743 189.633 80.0718C184.969 87.0391 178.464 90.326 170.608 90.7205C165.637 90.9831 160.788 90.3917 156.247 88.0255C150.048 84.8042 146.489 79.3485 145.2 72.2494C144.771 69.8175 144.525 67.3195 144.525 64.822C144.463 53.3844 144.463 42.0128 144.525 30.5755C144.463 30.1811 144.463 29.8524 144.525 29.458Z"
        stroke="#F4F4F4" stroke-width="3" />
    <path
        d="M368.351 29.458C374.795 29.458 381.239 29.458 387.806 29.458C387.806 30.0496 387.806 30.5097 387.806 31.0356C387.806 41.0926 387.806 51.1496 387.806 61.2724C387.806 62.5214 387.868 63.7043 388.052 64.8877C388.665 68.5029 390.752 70.7378 394.005 71.7236C398.055 72.907 402.167 72.907 406.156 71.5267C411.312 69.6862 414.073 65.6104 414.073 59.826C414.073 50.2293 414.073 40.6325 414.073 31.0356C414.073 30.5097 414.073 30.0496 414.073 29.458C420.579 29.458 427.023 29.458 433.467 29.458C433.467 49.5063 433.467 69.5544 433.467 89.6684C427.023 89.6684 420.579 89.6684 414.073 89.6684C414.073 86.2507 414.073 82.8981 414.073 79.2829C413.767 79.6773 413.582 79.8086 413.46 80.0061C408.857 86.9078 402.413 90.2603 394.619 90.7205C389.586 91.0488 384.676 90.3917 380.074 88.0255C373.875 84.8042 370.315 79.3485 369.027 72.2494C368.597 69.8175 368.351 67.3195 368.351 64.822C368.29 53.3844 368.29 41.9471 368.29 30.5097C368.29 30.1811 368.351 29.8524 368.351 29.458Z"
        stroke="#F4F4F4" stroke-width="3" />
    <path
        d="M563.017 47.2719C554.976 47.2719 547.063 47.2719 539.203 47.2719C539.08 47.4033 539.022 47.4691 539.022 47.5348C539.022 52.5305 538.835 57.5917 539.203 62.5872C539.698 68.7661 542.334 71.2642 548.229 71.4611C553.751 71.6586 559.337 71.5929 564.859 71.5929C565.349 71.5929 565.781 71.5929 566.393 71.5929C566.393 77.64 566.393 83.6215 566.393 89.6034C566.207 89.6034 566.026 89.669 565.839 89.669C559.087 89.669 552.399 89.669 545.651 89.6034C541.599 89.5377 537.61 88.8801 533.803 87.4342C525.336 84.2134 520.607 77.64 519.691 68.306C519.074 61.9301 519.382 55.4886 519.26 49.1124C519.26 48.5208 519.26 47.9292 519.26 47.2061C516.07 47.2061 512.939 47.2061 509.749 47.2061C509.749 41.2245 509.749 35.3086 509.749 29.327C512.875 29.327 516.006 29.327 519.26 29.327C519.26 22.0965 519.26 14.9974 519.26 7.76689C525.948 7.76689 532.456 7.76689 539.144 7.76689C539.144 14.9317 539.144 22.0308 539.144 29.327C547.185 29.327 555.162 29.327 563.139 29.327C563.017 35.3744 563.017 41.2245 563.017 47.2719Z"
        stroke="#F4F4F4" stroke-width="3" />
    <path
        d="M139.007 64.4246C138.7 70.0116 136.982 74.9414 133.668 79.1486C129.495 84.4729 124.094 87.628 117.895 89.271C109.119 91.572 100.405 91.3746 91.8125 88.2195C79.7223 83.7497 72.7873 72.8384 73.1558 59.2316C73.3395 51.1466 75.4877 43.9161 80.9497 38.0659C85.3685 33.3332 90.8306 30.7039 96.8448 29.3893C105.621 27.5488 114.275 27.8117 122.621 31.2955C130.17 34.4506 135.754 39.8407 138.148 48.3201C138.7 50.2921 138.884 52.3299 139.314 54.4991C138.7 54.5648 138.393 54.6305 138.025 54.6305C132.195 54.6305 126.303 54.6305 120.473 54.6305C119.92 54.6305 119.43 54.6961 119.246 53.8416C118.141 49.2404 115.195 46.8083 110.96 45.8223C107.953 45.165 105.007 45.165 102 45.888C96.5993 47.2684 93.2242 51.7382 93.04 58.18C92.9787 60.4149 93.2242 62.7155 93.7152 64.8847C94.5742 68.4999 96.8448 70.9979 100.097 72.3121C103.903 73.8899 107.831 74.0869 111.758 72.9697C115.563 71.9181 118.018 69.3545 119 65.2791C119.123 64.6872 119.246 64.2271 120.043 64.2271C126.242 64.2933 132.379 64.2271 138.578 64.2933C138.639 64.2933 138.762 64.3589 139.007 64.4246Z"
        stroke="#F4F4F4" stroke-width="3" />
    <path
        d="M507.354 54.5637C506.987 54.5637 506.678 54.6299 506.374 54.6299C500.479 54.6299 494.59 54.6299 488.697 54.6299C488.145 54.6299 487.777 54.6299 487.593 53.841C486.488 49.1739 483.419 46.6103 479.124 45.7558C475.625 45.0328 472.189 45.0328 468.813 46.4132C463.781 48.4509 461.755 52.7233 461.326 58.1133C461.08 61.7285 461.51 65.2124 463.474 68.2362C465.56 71.3913 468.568 72.7716 472.004 73.3635C474.827 73.8237 477.712 73.8237 480.474 72.903C484.095 71.7201 486.427 69.1564 487.286 65.2124C487.47 64.4897 487.654 64.2265 488.391 64.2265C494.467 64.2265 500.479 64.2265 506.555 64.2265C506.8 64.2265 506.987 64.2922 507.295 64.3578C507.109 68.1705 506.252 71.6544 504.59 74.8752C501.464 81.0541 496.677 85.2608 490.539 87.627C478.755 92.1629 466.972 92.0967 455.68 86.0497C446.781 81.2511 442.301 73.0348 441.503 62.5174C441.012 55.8784 441.932 49.5683 445.062 43.7182C448.867 36.6191 454.759 32.2808 462.062 30.1773C472.741 27.0879 483.296 27.3508 493.423 32.5437C501.033 36.4876 505.879 42.8636 507.168 52.0005C507.232 52.395 507.295 52.7233 507.295 53.1177C507.354 53.5778 507.354 53.9723 507.354 54.5637Z"
        stroke="#F4F4F4" stroke-width="3" />
    <path
        d="M1.90039 71.7204C2.0845 70.6027 2.20725 69.4198 2.45273 68.3021C3.61879 63.1096 6.87149 60.0858 11.3516 58.3767C15.4635 56.7994 19.8209 56.2731 24.1168 55.813C29.0879 55.3529 34.1817 55.4186 39.0915 54.0382C39.6438 53.9069 40.1348 53.7099 40.6871 53.5125C43.3875 52.3296 43.9398 50.6861 42.651 47.9253C41.6691 45.8876 40.0121 44.8359 38.0482 44.2443C35.1023 43.3898 32.0951 43.3241 29.1493 44.0471C25.8352 44.8359 23.6259 47.0051 22.9508 50.6861C22.8894 50.949 22.828 51.2119 22.7666 51.5406C16.3841 51.5406 10.0628 51.5406 3.68016 51.5406C4.10976 44.2443 6.56462 38.197 12.2722 33.9244C15.9544 31.2294 20.0663 29.849 24.4237 29.1259C31.6655 27.9428 38.9073 28.0085 46.1492 29.7833C50.8748 30.9664 55.1707 32.9384 58.4234 36.8824C61.5535 40.6291 62.9034 45.0989 62.9652 49.963C63.0877 55.5504 63.0264 61.0717 63.0264 66.6592C63.0264 67.1849 63.0264 67.645 63.0877 68.1708C63.2719 70.7345 64.5606 72.1148 66.9543 72.4436C67.629 72.5749 68.3655 72.5749 69.1637 72.6406C69.1637 78.622 69.1637 84.5383 69.1637 90.651C64.7448 90.3884 60.326 91.1768 56.0302 90.0596C51.3659 88.8763 47.9289 85.9843 45.5968 81.5145C45.4741 81.5802 45.3513 81.5802 45.29 81.7115C41.7304 86.9045 36.698 89.4682 30.8677 90.2566C24.7306 91.1111 18.5934 90.7828 12.7018 88.548C7.30107 86.51 3.43467 82.8292 2.32999 76.5189C2.20725 75.7957 2.0845 75.1386 1.96176 74.4154C1.90039 73.6265 1.90039 72.6406 1.90039 71.7204ZM43.2647 62.1232C42.4669 62.452 41.7918 62.8465 41.1167 63.1096C38.0482 64.4243 34.7955 64.4243 31.6041 64.95C29.1493 65.3445 26.6944 65.9359 24.4237 66.8561C22.3985 67.7107 21.662 69.6168 22.0302 71.786C22.3371 73.7578 23.4418 74.9411 25.7125 75.2699C30.1312 75.9927 34.3659 75.2699 38.355 73.035C42.5282 70.6027 43.9398 67.3819 43.2647 62.1232Z"
        fill="#0C1112" />
    <path
        d="M358.41 89.4035C351.905 89.4035 345.522 89.4035 339.017 89.4035C339.017 87.1686 339.017 84.9999 339.017 82.8307C338.832 82.8307 338.71 82.765 338.71 82.8307C334.475 87.3661 329.259 89.601 323.428 90.3899C317.721 91.1126 312.013 90.6525 306.612 88.4833C299.8 85.7226 295.075 80.5958 292.436 73.431C289.429 65.1485 289.06 56.6691 291.208 48.124C293.479 39.1187 298.941 33.0714 307.288 30.3106C315.757 27.4842 324.288 27.4842 332.511 31.4938C334.782 32.6112 336.807 34.386 338.955 35.8979C338.955 25.0521 338.955 14.0091 338.955 2.90039C345.522 2.90039 351.905 2.90039 358.41 2.90039C358.41 31.6253 358.41 60.4818 358.41 89.4035ZM310.172 58.9696C310.233 66.5288 313.547 71.7219 319.623 73.5623C323.367 74.68 327.049 74.5482 330.732 73.1679C334.23 71.8532 336.746 69.3557 338.035 65.6086C339.262 61.9934 339.385 58.2469 338.341 54.566C337.237 50.5561 334.843 47.7954 331.161 46.2178C328.583 45.1004 325.883 44.8374 323.121 44.9689C315.02 45.3633 310.11 50.6876 310.172 58.9696Z"
        fill="#0C1112" />
    <path
        d="M284.395 64.0958C268.868 64.0958 253.525 64.0958 238.182 64.0958C237.998 69.6828 241.374 74.1526 246.775 75.4016C250.518 76.2561 254.262 76.1248 257.944 75.2046C260.767 74.547 262.976 72.9697 263.774 69.8146C270.464 69.8146 277.092 69.8146 284.027 69.8146C283.659 71.2606 283.475 72.7066 282.984 73.9556C281.388 78.688 278.258 82.0406 274.33 84.6699C268.991 88.1538 263.099 89.7968 256.9 90.3887C249.352 91.1115 241.865 90.6513 234.746 87.4962C224.006 82.8295 218.421 74.1526 217.562 61.9266C217.071 54.7618 218.359 47.9914 222.226 42.0097C226.215 35.8966 231.8 32.1499 238.489 30.2437C248.738 27.2857 258.926 27.4172 268.623 32.1499C278.749 37.0798 283.843 45.8222 284.272 57.5881C284.456 59.6917 284.395 61.7952 284.395 64.0958ZM264.02 52.8557C263.958 52.3956 263.958 51.9355 263.897 51.5409C263.222 48.0571 261.258 45.7565 258.251 44.3761C253.955 42.4698 249.536 42.4698 245.179 44.1789C241.496 45.625 239.594 48.7801 238.612 52.7895C247.143 52.8557 255.489 52.8557 264.02 52.8557Z"
        fill="#0C1112" />
    <path
        d="M604.875 90.9134C598.064 90.7159 591.435 89.7301 585.359 86.378C576.338 81.4481 571.859 73.2969 570.997 62.7144C570.629 57.587 571.06 52.5915 572.717 47.7931C575.358 40.1681 580.326 34.7781 587.382 31.8859C599.289 26.956 611.319 26.8903 623.103 32.2146C632.982 36.6844 637.891 45.2295 638.754 56.4698C639.244 62.6487 638.568 68.5645 635.99 74.2171C632.492 81.842 626.538 86.378 619.051 88.8098C617.027 89.4669 614.94 89.9932 612.794 90.2558C610.153 90.519 607.516 90.6503 604.875 90.9134ZM604.875 73.8888C606.041 73.757 607.144 73.757 608.31 73.4944C613.284 72.5742 616.964 69.8135 618.375 64.423C618.87 62.4513 619.051 60.282 618.992 58.179C618.806 52.2627 615.43 47.7931 610.094 46.2155C607.639 45.4924 605.12 45.361 602.543 45.6239C595.913 46.347 591.743 50.3566 590.881 57.3901C590.268 62.5826 591.312 67.3155 595.423 70.7337C598.123 73.1 601.377 73.757 604.875 73.8888Z"
        fill="#0C1112" />
    <path
        d="M144.525 29.458C150.969 29.458 157.413 29.458 163.98 29.458C163.98 30.0496 163.98 30.5097 163.98 31.0356C163.98 41.0926 163.98 51.1496 163.98 61.2724C163.98 62.5214 164.041 63.7043 164.225 64.8877C164.839 68.5029 166.926 70.7378 170.178 71.7236C174.229 72.907 178.341 72.907 182.33 71.5267C187.485 69.6862 190.247 65.6104 190.247 59.8264C190.247 50.2293 190.247 40.6325 190.247 31.0356C190.247 30.5097 190.247 30.0496 190.247 29.5237C196.814 29.5237 203.258 29.5237 209.702 29.5237C209.702 49.6377 209.702 69.6201 209.702 89.6684C203.258 89.6684 196.814 89.6684 190.308 89.6684C190.308 86.2507 190.308 82.8981 190.308 79.2829C189.94 79.6773 189.756 79.8743 189.633 80.0718C184.969 87.0391 178.464 90.326 170.608 90.7205C165.637 90.9831 160.788 90.3917 156.247 88.0255C150.048 84.8042 146.489 79.3485 145.2 72.2494C144.771 69.8175 144.525 67.3195 144.525 64.822C144.463 53.3844 144.463 42.0128 144.525 30.5755C144.463 30.1811 144.463 29.8524 144.525 29.458Z"
        fill="#0C1112" />
    <path
        d="M368.351 29.458C374.795 29.458 381.239 29.458 387.806 29.458C387.806 30.0496 387.806 30.5097 387.806 31.0356C387.806 41.0926 387.806 51.1496 387.806 61.2724C387.806 62.5214 387.868 63.7043 388.052 64.8877C388.665 68.5029 390.752 70.7378 394.005 71.7236C398.055 72.907 402.167 72.907 406.156 71.5267C411.312 69.6862 414.073 65.6104 414.073 59.826C414.073 50.2293 414.073 40.6325 414.073 31.0356C414.073 30.5097 414.073 30.0496 414.073 29.458C420.579 29.458 427.023 29.458 433.467 29.458C433.467 49.5063 433.467 69.5544 433.467 89.6684C427.023 89.6684 420.579 89.6684 414.073 89.6684C414.073 86.2507 414.073 82.8981 414.073 79.2829C413.767 79.6773 413.582 79.8086 413.46 80.0061C408.857 86.9078 402.413 90.2603 394.619 90.7205C389.586 91.0488 384.676 90.3917 380.074 88.0255C373.875 84.8042 370.315 79.3485 369.027 72.2494C368.597 69.8175 368.351 67.3195 368.351 64.822C368.29 53.3844 368.29 41.9471 368.29 30.5097C368.29 30.1811 368.351 29.8524 368.351 29.458Z"
        fill="#0C1112" />
    <path
        d="M563.017 47.2719C554.976 47.2719 547.063 47.2719 539.203 47.2719C539.08 47.4033 539.022 47.4691 539.022 47.5348C539.022 52.5305 538.835 57.5917 539.203 62.5872C539.698 68.7661 542.334 71.2642 548.229 71.4611C553.751 71.6586 559.337 71.5929 564.859 71.5929C565.349 71.5929 565.781 71.5929 566.393 71.5929C566.393 77.64 566.393 83.6215 566.393 89.6034C566.207 89.6034 566.026 89.669 565.839 89.669C559.087 89.669 552.399 89.669 545.651 89.6034C541.599 89.5377 537.61 88.8801 533.803 87.4342C525.336 84.2134 520.607 77.64 519.691 68.306C519.074 61.9301 519.382 55.4886 519.26 49.1124C519.26 48.5208 519.26 47.9292 519.26 47.2061C516.07 47.2061 512.939 47.2061 509.749 47.2061C509.749 41.2245 509.749 35.3086 509.749 29.327C512.875 29.327 516.006 29.327 519.26 29.327C519.26 22.0965 519.26 14.9974 519.26 7.76689C525.948 7.76689 532.456 7.76689 539.144 7.76689C539.144 14.9317 539.144 22.0308 539.144 29.327C547.185 29.327 555.162 29.327 563.139 29.327C563.017 35.3744 563.017 41.2245 563.017 47.2719Z"
        fill="#0C1112" />
    <path
        d="M139.007 64.4246C138.7 70.0116 136.982 74.9414 133.668 79.1486C129.495 84.4729 124.094 87.628 117.895 89.271C109.119 91.572 100.405 91.3746 91.8125 88.2195C79.7223 83.7497 72.7873 72.8384 73.1558 59.2316C73.3395 51.1466 75.4877 43.9161 80.9497 38.0659C85.3685 33.3332 90.8306 30.7039 96.8448 29.3893C105.621 27.5488 114.275 27.8117 122.621 31.2955C130.17 34.4506 135.754 39.8407 138.148 48.3201C138.7 50.2921 138.884 52.3299 139.314 54.4991C138.7 54.5648 138.393 54.6305 138.025 54.6305C132.195 54.6305 126.303 54.6305 120.473 54.6305C119.92 54.6305 119.43 54.6961 119.246 53.8416C118.141 49.2404 115.195 46.8083 110.96 45.8223C107.953 45.165 105.007 45.165 102 45.888C96.5993 47.2684 93.2242 51.7382 93.04 58.18C92.9787 60.4149 93.2242 62.7155 93.7152 64.8847C94.5742 68.4999 96.8448 70.9979 100.097 72.3121C103.903 73.8899 107.831 74.0869 111.758 72.9697C115.563 71.9181 118.018 69.3545 119 65.2791C119.123 64.6872 119.246 64.2271 120.043 64.2271C126.242 64.2933 132.379 64.2271 138.578 64.2933C138.639 64.2933 138.762 64.3589 139.007 64.4246Z"
        fill="#0C1112" />
    <path
        d="M507.354 54.5637C506.987 54.5637 506.678 54.6299 506.374 54.6299C500.479 54.6299 494.59 54.6299 488.697 54.6299C488.145 54.6299 487.777 54.6299 487.593 53.841C486.488 49.1739 483.419 46.6103 479.124 45.7558C475.625 45.0328 472.189 45.0328 468.813 46.4132C463.781 48.4509 461.755 52.7233 461.326 58.1133C461.08 61.7285 461.51 65.2124 463.474 68.2362C465.56 71.3913 468.568 72.7716 472.004 73.3635C474.827 73.8237 477.712 73.8237 480.474 72.903C484.095 71.7201 486.427 69.1564 487.286 65.2124C487.47 64.4897 487.654 64.2265 488.391 64.2265C494.467 64.2265 500.479 64.2265 506.555 64.2265C506.8 64.2265 506.987 64.2922 507.295 64.3578C507.109 68.1705 506.252 71.6544 504.59 74.8752C501.464 81.0541 496.677 85.2608 490.539 87.627C478.755 92.1629 466.972 92.0967 455.68 86.0497C446.781 81.2511 442.301 73.0348 441.503 62.5174C441.012 55.8784 441.932 49.5683 445.062 43.7182C448.867 36.6191 454.759 32.2808 462.062 30.1773C472.741 27.0879 483.296 27.3508 493.423 32.5437C501.033 36.4876 505.879 42.8636 507.168 52.0005C507.232 52.395 507.295 52.7233 507.295 53.1177C507.354 53.5778 507.354 53.9723 507.354 54.5637Z"
        fill="#0C1112" />
</svg>