<svg viewBox="0 0 130 18" fill="none" xmlns="http://www.w3.org/2000/svg">
    <path d="M0 14.0452C0.0375743 13.8171 0.0626239 13.5757 0.112723
                    13.3476C0.350694 12.2879 1.01451 11.6708 1.92882
                    11.322C2.76798
                    11.0001 3.65724 10.8927 4.53397 10.7988C5.54848 10.7049
                    6.58803
                    10.7183 7.59002 10.4366C7.70274 10.4098 7.80294 10.3696
                    7.91566
                    10.3293C8.46675 10.0879 8.57947 9.75249 8.31645
                    9.18907C8.11606
                    8.77321 7.77789 8.55858 7.3771 8.43784C6.77591 8.26345
                    6.16219
                    8.25004 5.561 8.3976C4.88466 8.55858 4.43377 9.00126 4.296
                    9.75249C4.28347 9.80615 4.27095 9.8598 4.25842
                    9.92688C2.95585
                    9.92688 1.6658 9.92688 0.363219 9.92688C0.450892 8.43784
                    0.951883
                    7.20369 2.11669 6.33174C2.86817 5.78173 3.70733 5.50002
                    4.59659
                    5.35246C6.07452 5.111 7.55244 5.12441 9.03037
                    5.48661C9.99477
                    5.72807 10.8715 6.13051 11.5353 6.9354C12.1741 7.70004
                    12.4496
                    8.61224 12.4622 9.60493C12.4872 10.7452 12.4747 11.872
                    12.4747
                    13.0123C12.4747 13.1196 12.4747 13.2135 12.4872
                    13.3208C12.5248
                    13.844 12.7878 14.1257 13.2763 14.1928C13.414 14.2196
                    13.5643
                    14.2196 13.7272 14.233C13.7272 15.4537 13.7272 16.6611
                    13.7272
                    17.9086C12.8254 17.855 11.9236 18.0159 11.0469
                    17.7879C10.095
                    17.5464 9.39358 16.9562 8.91764 16.044C8.89259 16.0574
                    8.86754
                    16.0574 8.85502 16.0842C8.12858 17.144 7.10155 17.6672
                    5.9117
                    17.8281C4.65922 18.0025 3.40674 17.9355 2.20436
                    17.4794C1.10218
                    17.0635 0.313119 16.3123 0.0876735 15.0245C0.0626239 14.8769
                    0.0375743 14.7428 0.0125248 14.5952C0 14.4342 0 14.233 0
                    14.0452ZM8.4417 12.0866C8.27888 12.1537 8.14111 12.2342
                    8.00333
                    12.2879C7.3771 12.5562 6.71328 12.5562 6.06199 12.6635C5.561
                    12.744
                    5.06001 12.8647 4.59659 13.0525C4.18328 13.2269 4.03298
                    13.6159
                    4.10813 14.0586C4.17075 14.461 4.3962 14.7025 4.85961
                    14.7696C5.7614
                    14.9171 6.62561 14.7696 7.43972 14.3135C8.2914 13.8171
                    8.57947
                    13.1598 8.4417 12.0866Z" fill="#0C1112" />
    <path d="M72.7564 17.6537C71.4288 17.6537 70.1262 17.6537
                        68.7986
                        17.6537C68.7986 17.1976 68.7986 16.755 68.7986
                        16.3123C68.761
                        16.3123 68.736 16.2989 68.736 16.3123C67.8718 17.2379
                        66.8072
                        17.694 65.6173 17.855C64.4525 18.0025 63.2877 17.9086
                        62.1855
                        17.4659C60.7953 16.9025 59.8309 15.8562 59.2923
                        14.394C58.6786
                        12.7037 58.6034 10.9732 59.0418 9.22931C59.5052 7.3915
                        60.6199
                        6.15735 62.3233 5.59393C64.0517 5.0171 65.7927 5.0171
                        67.471
                        5.83539C67.9344 6.06344 68.3477 6.42564 68.7861
                        6.73418C68.7861
                        4.52075 68.7861 2.26708 68.7861 0C70.1262 0 71.4288 0
                        72.7564
                        0C72.7564 5.86222 72.7564 11.7513 72.7564
                        17.6537ZM62.912
                        11.4427C62.9245 12.9854 63.6008 14.0452 64.8408
                        14.4208C65.6048
                        14.6489 66.3563 14.622 67.1078 14.3403C67.8217 14.072
                        68.3352
                        13.5623 68.5982 12.7976C68.8487 12.0598 68.8738 11.2952
                        68.6608
                        10.544C68.4354 9.72566 67.9469 9.16224 67.1954
                        8.84029C66.6694
                        8.61224 66.1183 8.55858 65.5547 8.58541C63.9014 8.66589
                        62.8994
                        9.75249 62.912 11.4427Z" fill="#0C1112" />
    <path d="M57.6515 12.4891C54.4828 12.4891 51.3516
                            12.4891
                            48.2204 12.4891C48.1828 13.6293 48.8717 14.5415
                            49.9739
                            14.7964C50.7379 14.9708 51.5019 14.944 52.2534
                            14.7562C52.8295 14.622 53.2804 14.3001 53.4432
                            13.6562C54.8084 13.6562 56.1611 13.6562 57.5764
                            13.6562C57.5013 13.9513 57.4637 14.2464 57.3635
                            14.5013C57.0378 15.4671 56.3991 16.1513 55.5975
                            16.6879C54.5078 17.3989 53.3054 17.7342 52.0404
                            17.855C50.4999 18.0025 48.9719 17.9086 47.519
                            17.2647C45.3272 16.3123 44.1874 14.5415 44.0121
                            12.0464C43.9119 10.5842 44.1749 9.20248 44.9639
                            7.98174C45.778 6.73417 46.9178 5.96953 48.283
                            5.5805C50.3746
                            4.97684 52.4538 5.00367 54.4327 5.96953C56.4993
                            6.97563
                            57.5388 8.75979 57.6265 11.161C57.6641 11.5903
                            57.6515
                            12.0196 57.6515 12.4891ZM53.4933 10.1952C53.4808
                            10.1013
                            53.4808 10.0074 53.4683 9.92687C53.3305 9.21589
                            52.9297
                            8.74638 52.316 8.46467C51.4393 8.07564 50.5375
                            8.07564
                            49.6482 8.42442C48.8967 8.71955 48.5085 9.36345
                            48.3081
                            10.1817C50.049 10.1952 51.7524 10.1952 53.4933
                            10.1952Z" fill="#0C1112" />
    <path d="M123.056 17.9623C121.666 17.922 120.313
                                17.7208
                                119.073 17.0367C117.232 16.0306 116.318 14.3671
                                116.142
                                12.2074C116.067 11.161 116.155 10.1415 116.493
                                9.16223C117.032 7.60612 118.046 6.50612 119.486
                                5.91587C121.916 4.90977 124.371 4.89636 126.776
                                5.98295C128.792 6.89515 129.794 8.63906 129.97
                                10.933C130.07 12.194 129.932 13.4013 129.406
                                14.5549C128.692 16.111 127.477 17.0367 125.949
                                17.533C125.536 17.6671 125.11 17.7745 124.672
                                17.8281C124.133 17.8818 123.595 17.9086 123.056
                                17.9623ZM123.056 14.4879C123.294 14.461 123.519
                                14.461
                                123.757 14.4074C124.772 14.2196 125.523 13.6562
                                125.811
                                12.5561C125.912 12.1537 125.949 11.711 125.937
                                11.2818C125.899 10.0744 125.21 9.16223 124.121
                                8.84028C123.62 8.69271 123.106 8.66589 122.58
                                8.71954C121.227 8.86711 120.376 9.6854 120.2
                                11.1208C120.075 12.1805 120.288 13.1464 121.127
                                13.844C121.678 14.3269 122.342 14.461 123.056
                                14.4879Z" fill="#0C1112" />
    <path d="M29.1076 5.41956C30.4227 5.41956
                                    31.7378
                                    5.41956 33.0779 5.41956C33.0779 5.54029
                                    33.0779
                                    5.63419 33.0779 5.74151C33.0779 7.79396
                                    33.0779
                                    9.84641 33.0779 11.9123C33.0779 12.1672
                                    33.0904
                                    12.4086 33.128 12.6501C33.2533 13.3879
                                    33.6791
                                    13.844 34.3429 14.0452C35.1696 14.2867
                                    36.0087
                                    14.2867 36.8228 14.005C37.8749 13.6294
                                    38.4385
                                    12.7976 38.4385 11.6172C38.4385 9.6586
                                    38.4385
                                    7.70006 38.4385 5.74151C38.4385 5.63419
                                    38.4385
                                    5.54029 38.4385 5.43297C39.7787 5.43297
                                    41.0938
                                    5.43297 42.4089 5.43297C42.4089 9.53787
                                    42.4089
                                    13.6159 42.4089 17.7074C41.0938 17.7074
                                    39.7787
                                    17.7074 38.4511 17.7074C38.4511 17.0099
                                    38.4511
                                    16.3257 38.4511 15.5879C38.3759 15.6684
                                    38.3383
                                    15.7086 38.3133 15.7489C37.3614 17.1708
                                    36.0338
                                    17.8416 34.4306 17.9221C33.4161 17.9757
                                    32.4266
                                    17.855 31.4998 17.3721C30.2348 16.7147
                                    29.5084
                                    15.6013 29.2453 14.1525C29.1577 13.6562
                                    29.1076
                                    13.1464 29.1076 12.6367C29.095 10.3025
                                    29.095
                                    7.98177 29.1076 5.64761C29.095 5.56712
                                    29.095
                                    5.50004 29.1076 5.41956Z" fill="#0C1112" />
    <path d="M74.7854 5.41956C76.1005 5.41956
                                        77.4156
                                        5.41956 78.7558 5.41956C78.7558 5.54029
                                        78.7558
                                        5.63419 78.7558 5.74151C78.7558 7.79396
                                        78.7558
                                        9.84641 78.7558 11.9123C78.7558 12.1672
                                        78.7683
                                        12.4086 78.8059 12.6501C78.9311 13.3879
                                        79.357
                                        13.844 80.0208 14.0452C80.8474 14.2867
                                        81.6866
                                        14.2867 82.5007 14.005C83.5528 13.6294
                                        84.1164
                                        12.7976 84.1164 11.6171C84.1164 9.6586
                                        84.1164
                                        7.70006 84.1164 5.74151C84.1164 5.63419
                                        84.1164
                                        5.54029 84.1164 5.41956C85.444 5.41956
                                        86.7591
                                        5.41956 88.0742 5.41956C88.0742 9.51104
                                        88.0742
                                        13.6025 88.0742 17.7074C86.7591 17.7074
                                        85.444
                                        17.7074 84.1164 17.7074C84.1164 17.0099
                                        84.1164
                                        16.3257 84.1164 15.5879C84.0538 15.6684
                                        84.0162
                                        15.6952 83.9912 15.7355C83.0518 17.144
                                        81.7367
                                        17.8282 80.1461 17.9221C79.119 17.9891
                                        78.117
                                        17.855 77.1777 17.3721C75.9127 16.7147
                                        75.1862
                                        15.6013 74.9232 14.1525C74.8355 13.6562
                                        74.7854
                                        13.1464 74.7854 12.6367C74.7729 10.3025
                                        74.7729
                                        7.96835 74.7729 5.63419C74.7729 5.56712
                                        74.7854
                                        5.50004 74.7854 5.41956Z" fill="#0C1112" />
    <path d="M114.514 9.05492C112.873
                                            9.05492
                                            111.258 9.05492 109.654
                                            9.05492C109.629
                                            9.08174 109.617 9.09516 109.617
                                            9.10857C109.617 10.1281 109.579
                                            11.161
                                            109.654 12.1805C109.755 13.4415
                                            110.293
                                            13.9513 111.496 13.9915C112.623
                                            14.0318
                                            113.763 14.0184 114.89
                                            14.0184C114.99
                                            14.0184 115.078 14.0184 115.203
                                            14.0184C115.203 15.2525 115.203
                                            16.4732
                                            115.203 17.694C115.165 17.694
                                            115.128
                                            17.7074 115.09 17.7074C113.712
                                            17.7074
                                            112.347 17.7074 110.97
                                            17.694C110.143
                                            17.6806 109.329 17.5464 108.552
                                            17.2513C106.824 16.594 105.859
                                            15.2525
                                            105.672 13.3476C105.546 12.0464
                                            105.609
                                            10.7318 105.584 9.43053C105.584
                                            9.30979
                                            105.584 9.18906 105.584
                                            9.0415C104.933
                                            9.0415 104.294 9.0415 103.643
                                            9.0415C103.643
                                            7.82076 103.643 6.61344 103.643
                                            5.3927C104.281 5.3927 104.92 5.3927
                                            105.584
                                            5.3927C105.584 3.91708 105.584
                                            2.46829
                                            105.584 0.992676C106.949 0.992676
                                            108.277
                                            0.992676 109.642 0.992676C109.642
                                            2.45488
                                            109.642 3.90367 109.642
                                            5.3927C111.283
                                            5.3927 112.911 5.3927 114.539
                                            5.3927C114.514
                                            6.62685 114.514 7.82076 114.514
                                            9.05492Z" fill="#0C1112" />
    <path d="M27.9804 12.5562C27.9177
                                                13.6964
                                                27.567 14.7025 26.8907
                                                15.5611C26.039
                                                16.6477 24.9368 17.2916 23.6718
                                                17.6269C21.8808 18.0965 20.1023
                                                18.0562
                                                18.3488 17.4123C15.8814 16.5001
                                                14.4661
                                                14.2733 14.5413 11.4964C14.5788
                                                9.84641
                                                15.0172 8.37079 16.1319
                                                7.17688C17.0337
                                                6.21102 18.1484 5.67444 19.3758
                                                5.40614C21.1669 5.03053 22.9329
                                                5.08419
                                                24.6362 5.79517C26.1768 6.43907
                                                27.3165
                                                7.53908 27.805 9.26958C27.9177
                                                9.67202
                                                27.9553 10.0879 28.043
                                                10.5306C27.9177
                                                10.544 27.8551 10.5574 27.78
                                                10.5574C26.5901 10.5574 25.3877
                                                10.5574
                                                24.1979 10.5574C24.0851 10.5574
                                                23.985
                                                10.5708 23.9474 10.3964C23.7219
                                                9.45738
                                                23.1207 8.96104 22.2565
                                                8.75982C21.6428
                                                8.62567 21.0416 8.62567 20.4279
                                                8.77323C19.3257 9.05494 18.6369
                                                9.96714
                                                18.5993 11.2818C18.5868 11.7379
                                                18.6369
                                                12.2074 18.7371 12.6501C18.9124
                                                13.3879
                                                19.3758 13.8977 20.0396
                                                14.1659C20.8162
                                                14.4879 21.6178 14.5281 22.4194
                                                14.3001C23.1959 14.0855 23.6969
                                                13.5623
                                                23.8973 12.7306C23.9223 12.6098
                                                23.9474
                                                12.5159 24.1102 12.5159C25.3752
                                                12.5294
                                                26.6277 12.5159 27.8927
                                                12.5294C27.9052
                                                12.5294 27.9303 12.5428 27.9804
                                                12.5562Z" fill="#0C1112" />
    <path d="M103.154
                                                    10.5439C103.079
                                                    10.5439 103.016 10.5574
                                                    102.954
                                                    10.5574C101.751 10.5574
                                                    100.549
                                                    10.5574 99.3465
                                                    10.5574C99.2338
                                                    10.5574 99.1587 10.5574
                                                    99.1211
                                                    10.3964C98.8956 9.44394
                                                    98.2694
                                                    8.92076 97.3927
                                                    8.74637C96.6787
                                                    8.59881 95.9774 8.59881
                                                    95.2885
                                                    8.88052C94.2615 9.29638
                                                    93.8481
                                                    10.1683 93.7605
                                                    11.2683C93.7104
                                                    12.0061 93.798 12.7171
                                                    94.1988
                                                    13.3342C94.6247 13.9781
                                                    95.2384
                                                    14.2598 95.9398
                                                    14.3806C96.5159
                                                    14.4745 97.1046 14.4745
                                                    97.6682
                                                    14.2866C98.4072 14.0452
                                                    98.8831
                                                    13.522 99.0585
                                                    12.7171C99.096
                                                    12.5696 99.1336 12.5159
                                                    99.2839
                                                    12.5159C100.524 12.5159
                                                    101.751
                                                    12.5159 102.991
                                                    12.5159C103.041
                                                    12.5159 103.079 12.5293
                                                    103.142
                                                    12.5427C103.104 13.3208
                                                    102.929
                                                    14.0318 102.59
                                                    14.6891C101.952
                                                    15.9501 100.975 16.8086
                                                    99.7223
                                                    17.2915C97.3175 18.2172
                                                    94.9128
                                                    18.2037 92.6082
                                                    16.9696C90.7921
                                                    15.9903 89.8778 14.3135
                                                    89.715
                                                    12.1671C89.6148 10.8122
                                                    89.8026
                                                    9.52443 90.4414
                                                    8.33052C91.2179
                                                    6.88173 92.4203 5.99636
                                                    93.9108
                                                    5.56708C96.0901 4.93659
                                                    98.2443
                                                    4.99025 100.311
                                                    6.05001C101.864
                                                    6.8549 102.853 8.15612
                                                    103.116
                                                    10.0208C103.129 10.1013
                                                    103.142
                                                    10.1683 103.142
                                                    10.2488C103.154
                                                    10.3427 103.154 10.4232
                                                    103.154
                                                    10.5439Z" fill="#0C1112" />
</svg>