<?xml version="1.0" encoding="utf-8"?>
<!--Generator: Adobe Illustrator 22.0.1, SVG Export Plug-In . SVG Version: 6.00 Build 0)-->
<svg xmlns="http://www.w3.org/2000/svg" xmlns:xlink="http://www.w3.org/1999/xlink" id="Layer_1" x="0px" y="0px" style="enable-background:new 0 0 415.2 500" version="1.1" viewBox="0 0 415.2 500" xml:space="preserve">
    <style type="text/css">
        .st0{fill:#F4F4F4;} .st1{fill:none;}
    </style>
    <g>
        <g id="Texto">
            <path d="M20.9,456.5L2.1,494.2h14.7l2.9-6.2h21.7l2.9,6.2H60l-19.9-37.8H20.9z M24.2,478.8l6.2-13l6.4,13H24.2z" class="st0"/>
            <polygon points="100.9,478 79,456.5 62.9,456.5 62.9,494.2 77.1,494.2 77.1,471.4 100.9,494.2 115.4,494.2 
			115.4,456.5 100.9,456.5 		" class="st0"/>
            <polygon points="119.9,466.8 136.2,466.8 136.2,494.2 150.7,494.2 150.7,466.8 167,466.8 167,456.5 119.9,456.5 		" class="st0"/>
            <rect width="14.5" height="37.8" x="171.8" y="456.5" class="st0"/>
            <polygon points="172.6,454.2 185.8,454.2 190.8,446.4 176.7,446.4 		" class="st0"/>
            <polygon points="191,466.8 207.3,466.8 207.3,494.2 221.8,494.2 221.8,466.8 238.1,466.8 238.1,456.5 191,456.5 		" class="st0"/>
            <polygon points="257.1,479.6 284,479.6 284,470.6 257.1,470.6 257.1,465.8 284.6,465.8 284.6,456.5 242.9,456.5 
			242.9,494.2 285,494.2 285,484.8 257.1,484.8 		" class="st0"/>
            <path d="M319.7,470.1l-6.8-0.2c-7-0.2-8.3-1.4-8.3-2.9l0,0c0-1.4,0.8-2.9,8.3-2.9h0.4c8.3,0,9.1,2.7,9.1,3.9h15.7
			v-0.4c0-6-4.3-12-22.9-12h-4.6c-17.6,0-21.7,5.4-21.7,11.6v0.4c0,5.8,3.9,11,18.6,11.4l7,0.2c7.9,0.2,8.9,1.4,8.9,3.3l0,0
			c0,1.9-1.2,3.5-9.3,3.5h-0.4c-8.3,0-9.3-3.3-9.5-5.4h-15.9v0.4c0,5,2.3,13.4,23.1,13.4h4.5c19.8,0,23.4-6.4,23.4-12.8V481
			C339.6,473.9,334,470.6,319.7,470.1z" class="st0"/>
            <rect width="14.5" height="37.8" x="343.9" y="456.5" class="st0"/>
            <path d="M393.5,470.1l-6.8-0.2c-7-0.2-8.3-1.4-8.3-2.9l0,0c0-1.4,0.8-2.9,8.3-2.9h0.4c8.3,0,9.1,2.7,9.1,3.9h15.7
			v-0.4c0-6-4.3-12-22.9-12h-4.5c-17.6,0-21.7,5.4-21.7,11.6v0.4c0,5.8,3.9,11,18.6,11.4l7,0.2c7.9,0.2,8.9,1.4,8.9,3.3l0,0
			c0,1.9-1.2,3.5-9.3,3.5h-0.4c-8.3,0-9.3-3.3-9.5-5.4h-15.9v0.4c0,5,2.3,13.4,23.1,13.4h4.5c19.8,0,23.4-6.4,23.4-12.8V481
			C413.5,473.9,408,470.6,393.5,470.1z" class="st0"/>
        </g>
        <g id="Spin">
            <path d="M63.2,224.8c4.9,30.2,19,58.1,41,80.2c1.6,1.7,3.5,3.5,5.6,5.4v59.9l0.4,0.2c15.3,8.9,31.8,15.5,48.7,20
			l1.2,0.4v-50.6c15.1,5.2,30.7,7.9,46.6,7.9l0,0h1l0,0h1l0,0c15.9-0.2,31.6-2.7,46.6-7.9v50.6l1.2-0.4c17.1-4.3,33.4-11.2,48.7-20
			l0.4-0.2v-59.9c2.1-1.9,3.9-3.5,5.6-5.4c21.9-21.9,36.1-49.8,41-79.8v107l1.6-1.9c31.5-35.4,48.8-81.3,48.8-128.8v-0.6
			c0-47.5-17.3-93.4-48.7-128.9l-1.6-1.9v107.2c-4.9-30.2-19-57.9-41-79.8c-1.6-1.7-3.5-3.5-5.6-5.4V32.2l-0.4-0.2
			c-15.3-8.9-31.8-15.7-48.7-20l-1.2-0.5v50.6c-15.1-5.2-30.7-7.9-46.6-7.9l0,0h-1l0,0h-1l0,0c-15.9,0.2-31.6,2.7-46.6,7.9V11.3
			l-1.2,0.4c-17.1,4.3-33.4,11.2-48.7,20l-0.4,0.2v59.9c-2.1,1.9-3.9,3.5-5.6,5.4c-22.1,21.9-36.3,49.8-41,80V69.8l-1.9,2.1
			C30,107.6,12.6,153.4,12.6,201.1s17.3,93.6,48.7,129.4l1.6,1.9V224.8H63.2z M257.2,64.9c17.1,6.2,32.8,15.7,46.6,27.9v88.9
			c-3.7-18.8-13-36.2-26.8-50c-6-6-12.6-11.2-19.8-15.3L257.2,64.9L257.2,64.9z M257.2,285.8c7.2-4.1,13.8-9.3,19.8-15.3
			c13.8-13.8,23.1-31.2,26.8-50v88.9c-13.8,12.2-29.5,21.7-46.6,27.9L257.2,285.8L257.2,285.8z M160.1,117.3
			c14.4-8.3,30.9-12.6,47.6-12.6l0,0l0,0c16.7,0,33.2,4.3,47.4,12.6v54.2c-2.3-3.7-4.9-7-8-10.1c-10.3-10.3-23.9-16.1-38.6-16.3l0,0
			h-1l0,0l0,0h-1l0,0c-14.6,0.2-28.3,6-38.6,16.3c-3.1,3.1-5.8,6.4-8,10.1v-54.1L160.1,117.3L160.1,117.3z M160.1,230.3
			c2.3,3.7,4.9,7,8,10.1c10.3,10.3,23.9,16.1,38.6,16.3l0,0h1l0,0l0,0h1l0,0c14.6-0.2,28.3-6,38.6-16.3c3.1-3.1,5.8-6.4,8-10.1v54.3
			c-14.4,8.3-30.9,12.6-47.4,12.6l0,0l0,0c-16.7,0-33.2-4.3-47.6-12.6v-54.3L160.1,230.3L160.1,230.3z M111.6,92.8
			c13.8-12.2,29.5-21.7,46.6-27.9v51.5c-7.2,4.3-13.8,9.3-19.8,15.3c-13.8,13.8-23.1,31.2-26.8,50V92.8z M111.6,220.4
			c3.7,18.8,13,36.2,26.8,50c6,6,12.6,11.2,19.8,15.3v51.5c-17.1-6.2-32.8-15.7-46.6-27.9V220.4z" class="st0"/>
            <path d="M402.6,201.1c0-108-87-195.5-195-195.5s-195,87.5-195,195.5s87,195.5,195,195.5S402.6,309.2,402.6,201.1z" class="st1"/>
        </g>
    </g>
</svg>
