<svg xmlns="http://www.w3.org/2000/svg" viewBox="0 0 50 50" role="img" aria-label="[title]"><title>Apple Podcasts</title><path d="M45.9 47.5c1.6-1.2 2.8-3 3.2-4.2 1-2.4 1-5.4.8-7.2V13.7c0-1.8 0-4.6-1-7.2-.4-1.2-1.6-3-3.2-4.2-.2-.1-.4-.3-.6-.4-.8-.5-1.7-1.1-3-1.4-1.6-.4-3.6-.6-6-.6H13.7c-2.4 0-4.4.2-6 .8-1.6.4-2.6 1-3.6 1.8C2.6 3.8 1.4 5.6 1 6.8c-1 2.4-1 5.2-1 7v22.5C0 38 0 41 1 43.4c.4 1.2 1.6 3 3.2 4.2.2.1.4.3.6.4.8.5 1.7 1.1 3 1.4 1.6.4 3.6.6 6 .6h22.7c2.4 0 4.4-.2 6-.6 1.4-.5 2.4-1.1 3.4-1.9zM25 27.5c1.6 0 2.8.6 3.6 1.4.3.3.5.6.7 1 .1.1.2.3.3.4.2 1.2.2 2.2 0 3.8-.1.4-.1.9-.2 1.5-.2 1.2-.3 2.7-.6 4.1-.2 1.4-.4 2.2-.6 2.8-.4 1-1.4 1.8-3 1.8s-2.8-.8-3-1.8c-.2-.6-.4-1.4-.6-2.8-.3-1.7-.4-3.3-.6-4.7 0-.3-.1-.7-.1-1v-1.5c0-.8-.1-1.5 0-2.3 0-.6.2-1 .6-1.4.8-.7 2-1.3 3.5-1.3zm0-1.6c-2.4 0-4.2-2-4.2-4.2s1.8-4 4.2-4.2c2.4 0 4.2 2 4.2 4.2 0 2.4-2 4.2-4.2 4.2zm-17.4-3c0-9.5 8-17.3 17.5-17.3 9.7 0 17.5 7.8 18.1 17.5 0 7.8-5 14.3-11.7 16.7-.2.2-.4 0-.4-.2 0-.3 0-.6.1-.9 0-.3.1-.6.1-.9 0-.2.2-.4.4-.4A15.36 15.36 0 0025.3 8C16.9 8 9.9 14.7 9.9 23.1 9.7 29.5 13.7 35 19 37.4c.2 0 .4.2.4.4 0 .3 0 .6.1.9 0 .3.1.6.1.9 0 .2-.2.2-.4.2-6.9-2.6-11.6-9.2-11.6-16.9zm27 .2c0-5.4-4.6-9.7-9.9-9.5-5 .2-8.9 4.4-8.9 9.3-.2 2.8 1 5.4 3 7.2.2.2.2.4.2.6v2c0 .2-.2.4-.4.2-3.2-2.2-5.2-5.8-5.2-9.9 0-6.2 5.2-11.3 11.3-11.5 6.7-.5 12.3 5 12.3 11.6 0 4-2 7.6-5.2 9.7-.2.2-.4 0-.4-.2v-2c0-.2 0-.4.2-.6 1.8-1.7 3-4.1 3-6.9z" fill-rule="evenodd" clip-rule="evenodd" fill="#f4f4f4"/></svg>