<svg width="1440" height="1347" viewBox="0 0 1440 1347" fill="none" xmlns="http://www.w3.org/2000/svg">
<g clip-path="url(#clip0)">
<path fill-rule="evenodd" clip-rule="evenodd" d="M1783.81 466.5L1867 466.5V539.5H1784.4C1743.53 539.5 1685.45 539.623 1617.94 561.775C1550.9 583.776 1472.78 628.166 1394.49 719.509C1339.01 784.249 1283.64 870.396 1226.51 959.269C1200.4 999.89 1173.93 1041.08 1146.91 1081.06C1104.75 1143.43 1061.43 1202.4 1017.39 1247.81C974.101 1292.43 925.66 1328.72 872.561 1337.56L872.483 1337.58L872.405 1337.59C817.021 1346.57 765.431 1325.74 720.191 1296.51C674.93 1267.26 630.839 1226.16 589.567 1186.88C585.788 1183.28 582.031 1179.7 578.296 1176.13C540.158 1139.76 504.239 1105.51 468.641 1079.22C429.224 1050.12 395.789 1035.16 366.343 1035.16C335.5 1035.16 301.096 1050.36 261.269 1079.37C224.164 1106.39 186.887 1141.9 147.512 1179.41C144.909 1181.89 142.297 1184.38 139.676 1186.88C98.4861 1226.08 54.7033 1267.16 10.1044 1296.38C-34.4008 1325.54 -85.3126 1346.66 -139.879 1337.56L-127.876 1265.56C-99.8368 1270.23 -68.1436 1260.37 -29.9003 1235.32C8.24923 1210.33 47.3583 1173.96 89.3475 1134C92.2522 1131.23 95.171 1128.45 98.1033 1125.66C136.457 1089.1 177.106 1050.35 218.295 1020.35C262.363 988.262 312.285 962.159 366.343 962.159C419.501 962.159 468.671 988.503 512.002 1020.5C551.536 1049.69 590.87 1087.22 628.246 1122.89C632.151 1126.62 636.035 1130.32 639.895 1134C681.802 1173.88 721.175 1210.23 759.811 1235.19C798.431 1260.15 831.144 1270.3 860.639 1265.54C890.128 1260.6 924.839 1238.37 964.985 1196.98C1004.41 1156.34 1044.84 1101.72 1086.43 1040.18C1111.03 1003.78 1136.14 964.727 1161.53 925.237C1220.12 834.123 1280.21 740.669 1339.07 672.003C1425.99 570.59 1515.38 518.602 1595.18 492.414C1674.16 466.498 1742.02 466.499 1783.81 466.5Z" stroke="#1A4CE0" stroke-width="9"/>
<path fill-rule="evenodd" clip-rule="evenodd" d="M1753.81 208.5L1837 208.5V281.5H1754.4C1713.53 281.5 1655.45 281.623 1587.94 303.775C1520.9 325.776 1442.78 370.166 1364.49 461.509C1309.01 526.249 1253.64 612.396 1196.51 701.269C1170.4 741.89 1143.93 783.081 1116.91 823.057C1074.75 885.433 1031.43 944.402 987.385 989.808C944.101 1034.43 895.66 1070.72 842.561 1079.56L842.483 1079.58L842.405 1079.59C787.021 1088.57 735.431 1067.74 690.191 1038.51C644.93 1009.26 600.839 968.158 559.567 928.876C555.788 925.279 552.031 921.697 548.296 918.135C510.158 881.762 474.239 847.507 438.641 821.224C399.224 792.12 365.789 777.159 336.343 777.159C305.5 777.159 271.096 792.361 231.269 821.365C194.164 848.387 156.887 883.901 117.512 921.412C114.909 923.892 112.297 926.381 109.676 928.876C68.4861 968.079 24.7033 1009.16 -19.8956 1038.38C-64.4008 1067.54 -115.313 1088.66 -169.879 1079.56L-157.876 1007.56C-129.837 1012.23 -98.1436 1002.37 -59.9003 977.319C-21.7508 952.326 17.3583 915.963 59.3475 875.998C62.2522 873.233 65.1711 870.451 68.1035 867.656C106.457 831.097 147.106 792.351 188.295 762.355C232.363 730.262 282.285 704.159 336.343 704.159C389.501 704.159 438.671 730.503 482.002 762.497C521.536 791.687 560.87 829.223 598.246 864.891C602.151 868.618 606.035 872.324 609.895 875.998C651.802 915.884 691.175 952.228 729.811 977.194C768.431 1002.15 801.144 1012.3 830.639 1007.54C860.128 1002.6 894.839 980.372 934.985 938.983C974.409 898.338 1014.84 843.718 1056.43 782.179C1081.03 745.777 1106.14 706.727 1131.53 667.237C1190.12 576.123 1250.21 482.669 1309.07 414.003C1395.99 312.59 1485.38 260.602 1565.18 234.414C1644.16 208.498 1712.02 208.499 1753.81 208.5Z" stroke="#1A4CE0" stroke-width="9"/>
<path d="M1827 -49.5V23.5H1744.4C1703.53 23.5 1645.45 23.6234 1577.94 45.7751C1510.9 67.7756 1432.78 112.166 1354.49 203.509C1299 268.25 1243.63 354.397 1186.51 443.27C1160.4 483.891 1133.93 525.08 1106.91 565.056C1064.75 627.432 1021.43 686.401 977.386 731.807C934.101 776.433 885.66 812.715 832.562 821.565L832.483 821.578L832.404 821.591C777.02 830.573 725.43 809.741 680.19 780.507C634.93 751.26 590.838 710.157 549.566 670.876C545.792 667.284 542.041 663.706 538.311 660.149L538.295 660.134C500.157 623.762 464.238 589.506 428.641 563.223C389.224 534.12 355.789 519.159 326.342 519.159C295.499 519.159 261.096 534.361 221.268 563.365C184.162 590.387 146.884 625.902 107.509 663.415L107.489 663.434C104.894 665.906 102.289 668.388 99.675 670.876C58.4855 710.079 14.7027 751.163 -29.8961 780.382C-74.4011 809.539 -125.313 830.66 -179.879 821.565L-167.877 749.559C-139.838 754.232 -108.145 744.375 -69.9011 719.319C-31.7515 694.326 7.35759 657.962 49.3468 617.998C52.2316 615.252 55.1304 612.489 58.0424 609.713L58.102 609.657C96.4557 573.098 137.105 534.351 178.294 504.355C222.362 472.262 272.285 446.159 326.342 446.159C379.5 446.159 428.67 472.503 472.002 504.497C511.536 533.687 550.87 571.223 588.246 606.891L588.246 606.892L588.316 606.958C592.198 610.662 596.057 614.346 599.894 617.998C641.801 657.884 681.175 694.228 719.81 719.194C758.43 744.15 791.142 754.301 820.637 749.546C850.127 744.602 884.839 722.372 924.985 680.982C964.409 640.336 1004.84 585.717 1046.43 524.178C1071.03 487.776 1096.14 448.726 1121.53 409.237C1180.12 318.123 1240.21 224.669 1299.07 156.003C1385.99 54.5902 1475.37 2.60247 1555.18 -23.5861C1634.16 -49.5015 1702.02 -49.5006 1743.81 -49.5L1827 -49.5Z" stroke="#1A4CE0" stroke-width="9"/>
</g>
<defs>
<clipPath id="clip0">
<rect width="1440" height="1347" fill="white"/>
</clipPath>
</defs>
</svg>
