<svg width="384" height="325" viewBox="0 0 384 325" fill="none" xmlns="http://www.w3.org/2000/svg">
<g clip-path="url(#clip0_268_2005)">
<path d="M1608.86 55.8138H1578.05C1547.24 55.8138 1483.91 55.8138 1422.3 -16.0754C1360.68 -87.9646 1297.35 -231.743 1235.74 -242.013C1172.41 -252.283 1110.8 -129.044 1049.18 -129.044C985.853 -129.044 924.237 -252.283 862.621 -242.013C799.294 -231.743 737.678 -87.9646 676.063 -67.4248C612.735 -46.885 551.12 -149.584 487.793 -159.854C426.177 -170.124 364.561 -87.9646 301.234 -77.6947C239.618 -67.4248 178.003 -129.044 114.675 -170.124C53.0597 -211.203 -8.5559 -231.743 -71.8831 -252.283C-133.499 -272.823 -196.826 -293.362 -258.442 -252.283C-320.057 -211.203 -383.385 -108.504 -414.192 -57.1549L-445 -5.80549" stroke="#1A4CE0" stroke-width="4.66"/>
<path d="M495.252 -63.6318C433.636 -73.9017 372.021 8.25746 308.693 18.5274C247.078 28.7972 185.462 -32.8221 122.135 -73.9016" stroke="#1A4CE0" stroke-width="4.66"/>
<path d="M502.711 32.5898C441.095 22.3199 379.48 104.479 316.152 114.749C254.537 125.019 192.921 63.3995 129.594 22.3199C67.9781 -18.7597 6.3625 -39.2994 -56.9647 -59.8392" stroke="#1A4CE0" stroke-width="4.66"/>
<path d="M517.628 128.812C456.013 118.543 394.397 200.702 331.07 210.972C269.454 221.241 207.838 159.622 144.511 118.543C82.8956 77.463 21.28 56.9232 -42.0472 36.3835" stroke="#1A4CE0" stroke-width="4.66"/>
</g>
<defs>
<clipPath id="clip0_268_2005">
<rect width="384" height="325" fill="white"/>
</clipPath>
</defs>
</svg>
