<svg xmlns="http://www.w3.org/2000/svg" fill="none" viewBox="0 0 419 245"><path stroke="#F4F4F4" stroke-linecap="round" stroke-linejoin="round" stroke-width="2" d="M2 204h27.6l13.6-20.2 23 16.5 33.6-19.8 42.3 13.6 19.3 49.4 41.5-25.9 18.8 13 35.5-21.5 42.6 3.7 40.7-34.7 75-18.4"/><path stroke="#1A4CE0" stroke-linecap="round" stroke-linejoin="round" stroke-width="3" d="M2 190.8h19l20.3 5.3 28-11.3 30-18.8h31.1l30.8 14.4 23.2-14.4 17.6-29.4 16-1.3 23.3-27.2 38.1-11.9L297 74.3l16.7-6.6 24 4.7 16.7-25.3 23.5-1.9L395 14.5 416.6 2"/><path fill="#1A4CE0" d="M326.6 100.1v5.5H321v2.6h5.6v5.8h2.6v-5.8h5.6v-2.6h-5.6v-5.5h-2.6zm29.3 13.9l.6-3.7H344c.6-1.5 2.5-3 5.4-4.7 4.4-2.5 6-4 6-7.5 0-3.9-3-6.8-8.2-6.8-5.2 0-8.4 3-8.7 7.4h4.5c.4-2.3 1.6-3.8 4-3.8 2.8 0 3.8 1.6 3.8 3.2 0 2-1 2.6-4.9 5-5.5 3.5-7.5 6.6-7.5 10.7v.2h17.4zm12.4 0V91.8h-3.5c-1 1-3 2.6-5.7 3.3v3.5c1-.1 3.4-.7 4.6-1.4V114h4.6zm13.3 0V91.8H378c-1 1-3 2.6-5.7 3.3v3.5c1-.1 3.4-.7 4.6-1.4V114h4.6zm10.2-22.7c-4 0-6.1 3-6.1 6.4 0 3.8 2.2 6.4 6 6.4 4.2 0 6.3-2.8 6.3-6.4 0-4.1-2.4-6.4-6.2-6.4zm0 2.9c1.9 0 2.8 1.1 2.8 3.5 0 2-1 3.5-2.7 3.5-1.8 0-2.7-1.4-2.7-3.6 0-2.1 1-3.4 2.6-3.4zm2.7 19.8l14.7-22.2h-3.4L391.1 114h3.4zm14.2-12.3c-4 0-6.2 2.9-6.2 6.3 0 3.8 2.2 6.4 6.1 6.4 4.2 0 6.3-2.7 6.3-6.4 0-4-2.4-6.3-6.2-6.3zm0 2.8c1.9 0 2.8 1.2 2.8 3.5 0 2.1-1 3.6-2.8 3.6-1.7 0-2.6-1.4-2.6-3.6s1-3.5 2.6-3.5z"/><path fill="#C8C8C8" d="M380 123.7v.6h2.4v-.6h-2.5zm5.9 2.3h2.2c1.6 0 2.8-1 2.8-2.8 0-1.5-1-2.7-2.8-2.7H386v5.5zm.8-4.8h1.3c1.3 0 2.1.7 2.1 2 0 1.2-.7 2.2-2.1 2.2h-1.3v-4.2zm10.7 4.8h.8v-5.5H397l-1.9 4.6-1.8-4.6h-1.1v5.5h.7v-2.2l-.1-2.7 2 4.9h.6c.8-1.9 1.8-4.1 2-5v5zm2.3-5.5v5.5h.8v-5.5h-.8zm2.8 5.5v-1.3h-.8v1.3h.8zm3-4a2 2 0 00-2 2c0 1.1.7 2.1 2 2.1 1.4 0 2.1-1 2.1-2s-.7-2.1-2-2.1zm0 .6c.9 0 1.3.7 1.3 1.5 0 .7-.4 1.4-1.3 1.4-.8 0-1.3-.7-1.3-1.5 0-.7.4-1.4 1.3-1.4zm3 3.4h.8v-1.6c0-1.2.7-1.7 1.6-1.7v-.7c-.8 0-1.4.4-1.6 1v-1h-.7v4zm6.9-2.8v-1.1h-.7v.6c-.2-.3-.5-.7-1.4-.7-1 0-2 .8-2 2s.8 2 1.9 2c.8 0 1.2-.2 1.4-.7v.2c0 1-.1 1.7-1.3 1.7-.8 0-1-.3-1.2-.7h-.8c.1.4.4 1.3 2 1.3s2-.8 2-2.3v-2.3zm-3.3.9c0-.8.4-1.5 1.3-1.5.8 0 1.3.5 1.3 1.4 0 1-.5 1.5-1.3 1.5s-1.3-.6-1.3-1.4z"/></svg>