<svg viewBox="0 0 50 50" fill="none" 
    xmlns="http://www.w3.org/2000/svg" aria-label="[title]">
    <path d="M3.18 20.23C1.36 20.23 0 21.59 0 23.18v3.41a3.1 3.1 0 003.18 3.18 3.1 3.1 0 003.18-3.18v-3.4c0-1.6-1.59-2.96-3.18-2.96zM46.82 20.23a3.1 3.1 0 00-3.18 3.18v3.4A3.1 3.1 0 0046.82 30c1.82 0 3.18-1.6 3.18-3.18v-3.64c0-1.59-1.36-2.95-3.18-2.95zM13.86 30.45a3.1 3.1 0 00-3.18 3.19v3.4a3.1 3.1 0 003.18 3.19 3.1 3.1 0 003.18-3.18v-3.41a3.1 3.1 0 00-3.18-3.19zM13.86 10a3.1 3.1 0 00-3.18 3.18v11.14c.23 1.59 1.6 2.95 3.18 2.95 1.6 0 3.18-1.36 3.18-2.95V13.18A3.1 3.1 0 0013.86 10zM36.14 10a3.1 3.1 0 00-3.19 3.18v3.41a3.1 3.1 0 003.19 3.18 3.1 3.1 0 003.18-3.18v-3.4c-.23-1.83-1.6-3.2-3.18-3.2zM36.14 22.73a3.1 3.1 0 00-3.19 3.18v11.14a3.1 3.1 0 003.19 3.18 3.1 3.1 0 003.18-3.18V25.9c-.23-1.82-1.6-3.18-3.18-3.18zM25 0a3.1 3.1 0 00-3.19 3.18V6.6A3.1 3.1 0 0025 9.77a3.1 3.1 0 003.18-3.18v-3.4A3.1 3.1 0 0025-.02zM25 40.46a3.1 3.1 0 00-3.19 3.18v3.4c0 1.6 1.37 2.96 3.19 2.96a3.1 3.1 0 003.18-3.18V43.4c0-1.6-1.37-2.95-3.18-2.95zM25 12.73a3.1 3.1 0 00-3.19 3.18v18.18A3.1 3.1 0 0025 37.27a3.1 3.1 0 003.18-3.18V15.91A3.1 3.1 0 0025 12.73z" fill="#F4F4F4"/>
</svg>