<svg fill="none" xmlns="http://www.w3.org/2000/svg" viewBox="0 0 1400 619">
    <path
        d="m0 0 .5 619h1399V0H0Zm1292 563c0 27.614-22.39 50-50 50H57c-27.614 0-50-22.386-50-50V56C7 28.386 29.386 6 57 6h1185c27.61 0 50 22.386 50 50v507Z"
        fill="#0D1111" />
    <path
        d="M1290.5 56v507c0 26.786-21.71 48.5-48.5 48.5H57c-26.786 0-48.5-21.714-48.5-48.5V56C8.5 29.214 30.214 7.5 57 7.5h1185c26.79 0 48.5 21.714 48.5 48.5Z"
        fill="none" stroke="#c8c8c8" stroke-width="2" vector-effect="non-scaling-stroke" />
</svg>