<svg xmlns="http://www.w3.org/2000/svg" viewBox="0 0 777 552.4"><g class="stroke"><path vector-effect="non-scaling-stroke" d="M417 25c89.3 0 194 59 194 199v58"/><path vector-effect="non-scaling-stroke" d="M691.5 200.5l-81 82-80-82M357 521c-89.3 0-194-59-194-199v-58"/><path vector-effect="non-scaling-stroke" d="M82.5 345.5l81-82 80 82"/></g><g class="fill"><path d="M574.5 473.4h-88.2V501h98.6l-6.2 38.1H433.4V374h145.8v38.2h-92.9v23h88.2v38.2zM653.9 489.4c3.5 10.9 12 19.1 33.5 19.1 19.1 0 25-5.7 25-14 0-8.8-5.3-13.9-36.2-19.3-61-10.7-69.7-31.5-69.7-53.2 0-32.6 30.7-51.7 75.8-51.7 54.9 0 76.9 25.4 79.1 49.8h-52.1c-1.9-7.3-6.5-15.8-27-15.8-14.5 0-21.4 4.7-21.4 12.5 0 7.6 6.9 11.2 32.5 15.8 62.4 11.2 74.5 30.8 74.5 55.6 0 31.5-26.5 54.4-82.5 54.4-55.4 0-80-23.5-84.9-53.3h53.4zM150.1 106.8H61.9v27.6h98.6l-6.2 38.1H9.1V7.4h145.8v38.2h-93v23h88.2v38.2zM186.2 172.5V7.4h62.5c36.6 59.1 48.9 80.6 59.6 101.8h.9c-1.5-15.5-1.4-45.4-1.4-72.7V7.4h48.3v165.1H297c-12.9-22.9-53.5-93.2-63.3-113.3h-.7c1.6 18.9 1.7 40.8 1.7 73.2v40.1h-48.5z"/></g></svg>