<svg fill="none"
    xmlns="http://www.w3.org/2000/svg" viewBox="0 0 584 545">
    <path d="M412.2 496.9L393.4 545h-53.6l86.5-212H493l91 212h-56.4l-20-48.1h-95.4zm81-41.3c-20-48.6-29.8-73.3-35-89.5h-.2a1415 1415 0 01-32.3 89.5h67.4zM215.3 47.9c10.9-.2 21.7-1 32.5-2.6v44.9c-10.2-.4-22-.6-30-.6h-31.6c.8 40.3 2 82.6 2.6 122 .3 20.1-11.1 32-35.4 32-18.8 0-34.3-.7-51.7-1.8l-4-44.3c12.3 1.9 24.6 3 36.9 3.2 6.5 0 9.4-3.7 9.4-11.9 0-16.6 0-38-.3-61.8-25.7 32.3-70.3 68.1-112 89.8L.2 181.3C54 156.2 99 120.6 122 89.7H53.8c-11 0-25.1.5-35.7 1v-45c11.5 1.4 23 2.1 34.5 2.3h89.1l-.8-16.4c-.6-9-1.5-20.6-3.2-31.6h48.8c-1.4 10.4-2 21-1.7 31.6l.3 16.4 30.2-.1z" fill="#fff"/>
    <path d="M313 51.9c72.5 0 157.5 47.3 157.5 159.6V258" stroke="#F4F4F4" stroke-width="2" stroke-miterlimit="10" vector-effect="non-scaling-stroke"/>
    <path d="M535.9 192.6L470 258.4l-65-65.8M268.3 497.8c-72.5 0-157.5-47.3-157.5-159.6v-46.5" stroke="#F4F4F4" stroke-width="2" stroke-miterlimit="10" vector-effect="non-scaling-stroke"/>
    <path d="M45.4 357l65.7-65.7 65 65.8" stroke="#F4F4F4" stroke-width="2" stroke-miterlimit="10" vector-effect="non-scaling-stroke" />
</svg>