<svg xmlns="http://www.w3.org/2000/svg" fill="none" viewBox="0 0 130 18" role="img">
    <path fill="#0D1111"
        d="M0 14.05c.04-.23.06-.47.11-.7a2.7 2.7 0 011.82-2.03c.84-.32 1.73-.43 2.6-.52 1.02-.1 2.06-.08 3.06-.36l.33-.11c.55-.24.66-.58.4-1.14-.2-.42-.54-.63-.94-.75a3.48 3.48 0 00-1.82-.04c-.68.16-1.13.6-1.26 1.35l-.04.18H.36a4.54 4.54 0 011.76-3.6c.75-.55 1.59-.83 2.48-.98 1.47-.24 2.95-.23 4.43.14a4.5 4.5 0 012.5 1.45c.64.76.92 1.67.93 2.66.03 1.15.01 2.27.01 3.41 0 .11 0 .2.02.31.03.52.3.8.79.87.13.03.28.03.45.04v3.68c-.9-.05-1.8.1-2.68-.12a3.23 3.23 0 01-2.13-1.75c-.03.02-.05.02-.06.04a4.05 4.05 0 01-2.95 1.75c-1.25.17-2.5.1-3.7-.35a3.07 3.07 0 01-2.12-2.46L0 14.6 0 14.05zm8.44-1.96c-.16.06-.3.14-.44.2-.62.27-1.29.27-1.94.37-.5.08-1 .2-1.46.4-.42.17-.57.56-.5 1 .07.4.3.64.76.71.9.15 1.77 0 2.58-.46.85-.5 1.14-1.15 1-2.22zM72.76 17.65H68.8v-1.34h-.06a5.02 5.02 0 01-3.12 1.55 6.81 6.81 0 01-3.43-.4 5.03 5.03 0 01-2.9-3.07 8.66 8.66 0 01-.25-5.16 4.84 4.84 0 013.28-3.64 6.6 6.6 0 015.15.25c.46.22.88.59 1.32.9V0h3.97v17.65zm-9.85-6.2c.01 1.54.7 2.6 1.93 2.97.76.23 1.52.2 2.27-.08a2.42 2.42 0 001.49-1.54c.25-.74.27-1.5.06-2.26a2.46 2.46 0 00-1.46-1.7 3.62 3.62 0 00-1.65-.25c-1.65.08-2.65 1.16-2.64 2.85zM57.65 12.49h-9.43a2.21 2.21 0 001.75 2.3c.77.18 1.53.15 2.28-.03.58-.14 1.03-.46 1.2-1.1h4.13c-.08.3-.12.59-.22.84a4.23 4.23 0 01-1.76 2.19 7.7 7.7 0 01-3.56 1.16 8.85 8.85 0 01-4.52-.59c-2.2-.95-3.33-2.72-3.5-5.21-.1-1.47.15-2.85.94-4.07a5.68 5.68 0 013.32-2.4c2.1-.6 4.17-.58 6.15.39 2.07 1 3.1 2.79 3.2 5.2.03.42.02.85.02 1.32zm-4.16-2.3c0-.09 0-.18-.02-.26a1.93 1.93 0 00-1.15-1.47 3.35 3.35 0 00-2.67-.04c-.75.3-1.14.94-1.34 1.76 1.74.02 3.44.02 5.18.02zM123.06 17.96a8.56 8.56 0 01-3.99-.92c-1.84-1-2.75-2.67-2.93-4.83a7.57 7.57 0 01.35-3.05 5.18 5.18 0 013-3.24 8.86 8.86 0 017.29.06c2.01.92 3.01 2.66 3.19 4.95a7.17 7.17 0 01-.56 3.62 5.45 5.45 0 01-3.46 2.98c-.41.14-.84.24-1.28.3l-1.61.13zm0-3.47c.23-.03.46-.03.7-.08 1.01-.19 1.76-.75 2.05-1.85.1-.4.14-.85.13-1.28a2.5 2.5 0 00-1.82-2.44 3.97 3.97 0 00-1.54-.12c-1.35.15-2.2.97-2.38 2.4-.13 1.06.09 2.03.93 2.72.55.49 1.21.62 1.93.65zM29.1 5.42h3.98v6.49c0 .26.01.5.05.74.12.74.55 1.2 1.21 1.4.83.24 1.67.24 2.48-.04 1.05-.38 1.62-1.21 1.62-2.4V5.75v-.3h3.97V17.7h-3.96v-2.12l-.14.16a4.71 4.71 0 01-3.88 2.17c-1.01.06-2-.07-2.93-.55a4.28 4.28 0 01-2.25-3.22c-.1-.5-.14-1-.14-1.51a646.13 646.13 0 010-7.22zM74.79 5.42h3.97v6.49c0 .26 0 .5.05.74.12.74.55 1.2 1.21 1.4.83.24 1.67.24 2.48-.04 1.05-.38 1.62-1.21 1.62-2.4V5.75v-.32h3.95v12.29h-3.95v-2.12c-.07.08-.1.1-.13.15a4.73 4.73 0 01-3.84 2.18 5.56 5.56 0 01-2.97-.55 4.28 4.28 0 01-2.26-3.22c-.08-.5-.13-1-.13-1.51-.02-2.34-.02-4.67-.02-7l.02-.22zM114.51 9.05h-4.86l-.03.06c0 1.02-.04 2.05.03 3.07.1 1.26.64 1.77 1.85 1.81 1.12.04 2.26.03 3.39.03h.31v3.67l-.11.02c-1.38 0-2.74 0-4.12-.02a7.1 7.1 0 01-2.42-.44c-1.73-.66-2.7-2-2.88-3.9-.12-1.3-.06-2.62-.09-3.92v-.39h-1.94V5.4h1.94V1h4.06v4.4h4.9c-.03 1.24-.03 2.43-.03 3.66zM27.98 12.56a5.19 5.19 0 01-1.09 3 5.86 5.86 0 01-3.22 2.07 8.7 8.7 0 01-5.32-.22c-2.47-.91-3.88-3.14-3.8-5.91a6.26 6.26 0 011.58-4.32c.9-.97 2.02-1.5 3.25-1.77a8.71 8.71 0 015.26.39 5.16 5.16 0 013.16 3.47c.12.4.16.82.24 1.26l-.26.03H24.2c-.11 0-.21.01-.25-.16a2.08 2.08 0 00-1.7-1.64 4.01 4.01 0 00-1.82.01c-1.1.28-1.8 1.2-1.83 2.51-.01.46.04.93.14 1.37a2.1 2.1 0 001.3 1.52c.78.32 1.58.36 2.38.13a2 2 0 001.48-1.57c.02-.12.05-.21.21-.21h3.78l.09.04zM103.15 10.54l-.2.02h-3.6c-.12 0-.2 0-.23-.16a2.07 2.07 0 00-1.73-1.65 3.53 3.53 0 00-2.1.13c-1.03.42-1.44 1.29-1.53 2.39-.05.74.04 1.45.44 2.06.42.65 1.04.93 1.74 1.05.58.1 1.16.1 1.73-.1a2 2 0 001.39-1.56c.04-.15.07-.2.22-.2H103c.05 0 .09 0 .15.02a5.24 5.24 0 01-3.42 4.75c-2.4.93-4.8.91-7.11-.32-1.82-.98-2.73-2.66-2.9-4.8-.1-1.36.1-2.65.73-3.84a5.51 5.51 0 013.47-2.76 8.42 8.42 0 016.4.48c1.55.8 2.54 2.1 2.8 3.97.02.08.03.15.03.23l.01.3z" />
</svg>