<svg xmlns="http://www.w3.org/2000/svg" viewBox="0 0 1440 886"><path d="M1440 31c-50 33-97 74-141 125-59 69-118 161-176 251-53 82-108 168-161 233-55 66-102 103-141 110-71 11-153-67-233-143-39-38-81-77-122-107-51-36-96-54-140-54-96 0-184 83-268 164L0 664v95c37-28 73-62 108-96 74-71 151-144 218-144 65 0 140 72 212 141 85 80 172 164 268 164 9 0 17-1 26-3h1c124-20 234-193 352-375 56-88 114-178 170-243 27-31 55-59 85-82V31z" fill="#1a4ce0"/><g fill="#1a4ce0"><path d="M1440 296c-46 31-90 71-131 118-59 69-118 161-176 251-50 78-101 158-152 221h92c40-55 81-118 122-182 56-87 114-178 170-242 24-29 49-53 75-75v-91zM598 865c-39-38-81-77-122-107-51-36-97-54-140-54-96 0-184 84-268 164l-19 18h106c62-58 125-109 181-109 55 0 117 51 178 109h106l-22-21z"/></g><path d="M1440 575a600 600 0 00-101 97 1906 1906 0 00-152 214h87c39-59 80-119 120-166 15-18 30-34 46-49v-96z" fill="#1a4ce0"/></svg>