<svg width="378" height="378" viewBox="0 0 378 378" fill="none" xmlns="http://www.w3.org/2000/svg">
<g clip-path="url(#clip0_221_6200)">
<rect width="378" height="378" rx="50.8065" fill="#101213"/>
<path d="M-485.856 122.472H-465.039C-444.223 122.472 -401.434 122.472 -359.801 171.047C-318.168 219.621 -275.378 316.77 -233.745 323.71C-190.956 330.649 -149.323 247.378 -107.69 247.378C-64.9009 247.378 -23.2679 330.649 18.365 323.71C61.1544 316.77 102.787 219.621 144.42 205.743C187.21 191.864 228.842 261.257 271.632 268.196C313.265 275.135 354.898 219.621 397.687 212.682C439.32 205.743 480.953 247.378 523.742 275.135C565.375 302.892 607.008 316.77 649.798 330.649C691.43 344.527 734.22 358.406 775.853 330.649C817.486 302.892 860.275 233.5 881.092 198.804L901.908 164.107" stroke="#1A4CE0" stroke-width="18.396"/>
<path d="M-490.896 57.456H-470.08C-449.263 57.456 -406.474 57.456 -364.841 106.031C-323.208 154.605 -280.419 251.754 -238.786 258.694C-195.996 265.633 -154.363 182.362 -112.731 182.362C-69.9411 182.362 -28.3082 265.633 13.3247 258.694C56.1141 251.754 97.747 154.605 139.38 140.727C182.169 126.848 223.802 196.241 266.592 203.18C308.225 210.119 349.857 154.605 392.647 147.666C434.28 140.727 475.913 182.362 518.702 210.119C560.335 237.876 601.968 251.754 644.757 265.633C686.39 279.511 729.18 293.39 770.813 265.633C812.446 237.876 855.235 168.484 876.051 133.788L896.868 99.0914" stroke="#1A4CE0" stroke-width="18.396"/>
<path d="M-495.936 -7.56H-475.12C-454.303 -7.56 -411.514 -7.56 -369.881 41.0146C-328.248 89.5893 -285.459 186.739 -243.826 193.678C-201.036 200.617 -159.403 117.346 -117.771 117.346C-74.9812 117.346 -33.3483 200.617 8.28467 193.678C51.0741 186.739 92.707 89.5893 134.34 75.7108C177.129 61.8323 218.762 131.225 261.552 138.164C303.185 145.103 344.817 89.5893 387.607 82.65C429.24 75.7108 470.873 117.346 513.662 145.103C555.295 172.86 596.928 186.739 639.717 200.617C681.35 214.495 724.14 228.374 765.773 200.617C807.405 172.86 850.195 103.468 871.011 68.7716L891.828 34.0754" stroke="#1A4CE0" stroke-width="18.396"/>
<path d="M-506.016 -72.576H-485.2C-464.383 -72.576 -421.594 -72.576 -379.961 -24.0014C-338.328 24.5732 -295.539 121.723 -253.906 128.662C-211.116 135.601 -169.483 52.3302 -127.85 52.3302C-85.061 52.3302 -43.4281 135.601 -1.79517 128.662C40.9942 121.723 82.6271 24.5732 124.26 10.6948C167.049 -3.18368 208.682 66.2086 251.472 73.1479C293.105 80.0871 334.738 24.5732 377.527 17.634C419.16 10.6948 460.793 52.3302 503.582 80.0871C545.215 107.844 586.848 121.723 629.637 135.601C671.27 149.479 714.06 163.358 755.693 135.601C797.326 107.844 840.115 38.4517 860.931 3.75555L881.748 -30.9406" stroke="#1A4CE0" stroke-width="18.396"/>
<path d="M39.0799 314.145C38.3714 315.691 37.2442 316.561 35.0864 316.561C32.0913 316.561 30.7065 314.21 30.7065 311.279C30.7065 308.252 32.1557 306.062 35.1186 306.062C37.6307 306.062 38.5968 307.479 38.9833 308.606H43.5565C43.2989 306.641 41.3343 302.616 35.0864 302.616C29.2572 302.616 26.0367 306.77 26.0367 311.311C26.0367 316.045 28.8707 320.039 35.0864 320.039C40.2715 320.039 42.9124 317.205 43.6531 314.145H39.0799ZM63.3368 303.067H58.7636V310.635C58.7636 314.757 57.6364 316.432 54.7701 316.432C52.3547 316.432 51.4851 314.725 51.4851 312.438V303.067H46.9441V313.211C46.9441 318.042 49.6494 320.039 53.1276 320.039C56.638 320.039 57.9584 318.847 58.7958 317.366C58.828 318.235 58.828 319.137 58.8924 319.588H63.3368C63.3046 317.978 63.3368 316.367 63.3368 314.757V303.067ZM83.7654 308.606C83.7654 305.836 82.6382 302.616 75.8429 302.616C69.5628 302.616 68.1135 305.836 67.9525 307.93H72.5257C72.7833 306.802 73.363 305.772 75.9073 305.772C78.677 305.772 79.3211 307.06 79.3211 308.541V309.153H75.6818C70.851 309.153 67.0185 310.377 67.0185 314.661C67.0185 317.269 68.822 320.039 73.3952 320.039C76.6158 320.039 78.5159 319.073 79.4177 317.559C79.4177 318.042 79.4821 319.137 79.6109 319.588H83.8943C83.8621 319.234 83.7654 317.108 83.7654 315.111V308.606ZM79.3211 312.535C79.3211 315.015 77.9684 316.722 74.6191 316.722C72.4291 316.722 71.4629 315.691 71.4629 314.435C71.4629 312.857 72.7511 312.116 75.7462 312.116H79.3211V312.535ZM88.5857 319.588H93.1589V311.44C93.1589 308.187 94.4471 306.19 97.2168 306.19C99.7933 306.19 100.631 308.026 100.631 310.184V319.588H105.236V309.443C105.236 305.095 102.788 302.616 98.7627 302.616C95.4455 302.616 93.8674 304.194 93.1267 305.482C93.0945 304.677 93.0623 303.55 92.9979 303.067H88.5535C88.5857 304.258 88.5857 305.836 88.5857 307.221V319.588ZM122.566 295.53V304.58C122.083 303.904 120.763 302.616 117.349 302.616C113.194 302.616 108.847 305.933 108.847 311.472C108.847 316.561 112.228 320.039 116.866 320.039C120.441 320.039 121.664 318.783 122.566 317.495C122.598 318.171 122.631 319.041 122.695 319.588H127.172C127.139 318.042 127.139 316.432 127.139 314.886V295.53H122.566ZM113.549 311.376C113.549 308.703 115.062 306.19 118.186 306.19C121.536 306.19 122.695 308.219 122.695 311.311C122.695 314.403 121.246 316.432 118.122 316.432C115.159 316.432 113.549 314.113 113.549 311.376ZM140.107 302.616C134.053 302.616 130.768 306.706 130.768 311.311C130.768 315.884 133.924 320.039 139.914 320.039C145.969 320.039 149.318 316.239 149.318 311.311C149.318 307.124 146.323 302.616 140.107 302.616ZM140.011 306.094C143.135 306.094 144.616 308.638 144.616 311.376C144.616 314.145 143.167 316.528 140.043 316.528C137.048 316.528 135.438 314.081 135.438 311.311C135.438 308.541 136.887 306.094 140.011 306.094ZM178.896 312.406C178.928 311.955 178.928 311.665 178.928 311.311C178.928 307.092 176.448 302.616 170.072 302.616C164.307 302.616 161.086 306.577 161.086 311.343C161.086 315.595 163.631 320.039 170.136 320.039C175.321 320.039 177.737 317.43 178.703 314.628H174.162C173.453 315.852 172.39 316.593 170.2 316.593C167.463 316.593 165.788 314.789 165.627 312.406H178.896ZM165.692 309.54C165.917 307.575 167.109 305.868 170.072 305.868C173.357 305.868 174.162 308.058 174.291 309.54H165.692ZM187.007 319.588V295.53H182.466V319.588H187.007ZM200.896 319.588H205.47V313.276C205.47 308.509 208.175 306.77 211.943 306.802V302.616C208.561 302.551 206.436 304.194 205.47 306.48C205.47 305.418 205.405 303.614 205.309 303.067H200.864C200.896 304.548 200.896 306.062 200.896 307.543V319.588ZM214.892 319.588H219.465V303.067H214.892V319.588ZM219.433 295.176L214.989 300.2H219.047L224.683 295.176H219.433ZM232.415 302.616C226.361 302.616 223.076 306.706 223.076 311.311C223.076 315.884 226.232 320.039 232.222 320.039C238.277 320.039 241.626 316.239 241.626 311.311C241.626 307.124 238.631 302.616 232.415 302.616ZM232.319 306.094C235.443 306.094 236.924 308.638 236.924 311.376C236.924 314.145 235.475 316.528 232.351 316.528C229.356 316.528 227.746 314.081 227.746 311.311C227.746 308.541 229.195 306.094 232.319 306.094ZM253.104 314.532C253.652 318.074 256.969 320.039 261.575 320.039C267.372 320.039 269.658 317.623 269.658 314.628C269.658 312.277 268.692 310.152 262.122 309.186C258.837 308.703 258.225 308.187 258.225 307.35C258.225 306.641 258.676 305.707 260.995 305.707C263.732 305.707 264.376 306.835 264.602 307.672H269.111C268.885 305.418 266.985 302.616 261.188 302.616C255.584 302.616 253.749 305.385 253.749 307.769C253.749 309.798 254.683 312.052 260.834 312.889C264.409 313.34 265.182 313.952 265.182 315.015C265.182 316.013 264.409 316.851 261.864 316.851C259.385 316.851 258.096 315.949 257.645 314.532H253.104ZM289.216 303.067H284.643V310.635C284.643 314.757 283.516 316.432 280.65 316.432C278.234 316.432 277.365 314.725 277.365 312.438V303.067H272.824V313.211C272.824 318.042 275.529 320.039 279.007 320.039C282.518 320.039 283.838 318.847 284.675 317.366C284.708 318.235 284.708 319.137 284.772 319.588H289.216C289.184 317.978 289.216 316.367 289.216 314.757V303.067ZM310.643 312.406C310.676 311.955 310.676 311.665 310.676 311.311C310.676 307.092 308.196 302.616 301.819 302.616C296.054 302.616 292.834 306.577 292.834 311.343C292.834 315.595 295.378 320.039 301.883 320.039C307.069 320.039 309.484 317.43 310.45 314.628H305.909C305.201 315.852 304.138 316.593 301.948 316.593C299.21 316.593 297.536 314.789 297.375 312.406H310.643ZM297.439 309.54C297.664 307.575 298.856 305.868 301.819 305.868C305.104 305.868 305.909 308.058 306.038 309.54H297.439ZM314.214 319.588H318.787V311.44C318.787 308.187 320.075 306.19 322.845 306.19C325.421 306.19 326.259 308.026 326.259 310.184V319.588H330.864V309.443C330.864 305.095 328.416 302.616 324.391 302.616C321.073 302.616 319.495 304.194 318.755 305.482C318.722 304.677 318.69 303.55 318.626 303.067H314.181C314.214 304.258 314.214 305.836 314.214 307.221V319.588ZM351.16 308.606C351.16 305.836 350.033 302.616 343.237 302.616C336.957 302.616 335.508 305.836 335.347 307.93H339.92C340.178 306.802 340.758 305.772 343.302 305.772C346.071 305.772 346.716 307.06 346.716 308.541V309.153H343.076C338.246 309.153 334.413 310.377 334.413 314.661C334.413 317.269 336.217 320.039 340.79 320.039C344.01 320.039 345.91 319.073 346.812 317.559C346.812 318.042 346.877 319.137 347.005 319.588H351.289C351.257 319.234 351.16 317.108 351.16 315.111V308.606ZM346.716 312.535C346.716 315.015 345.363 316.722 342.014 316.722C339.824 316.722 338.857 315.691 338.857 314.435C338.857 312.857 340.146 312.116 343.141 312.116H346.716V312.535Z" fill="#F4F4F4"/>
<path d="M146.664 343.18C146.698 342.972 146.721 342.752 146.767 342.544C146.984 341.578 147.589 341.015 148.423 340.697C149.188 340.403 149.999 340.305 150.798 340.22C151.724 340.134 152.672 340.146 153.585 339.889C153.688 339.865 153.779 339.828 153.882 339.792C154.385 339.571 154.488 339.266 154.248 338.752C154.065 338.373 153.757 338.177 153.391 338.067C152.843 337.908 152.283 337.895 151.735 338.03C151.118 338.177 150.707 338.581 150.581 339.266C150.57 339.315 150.559 339.363 150.547 339.425C149.359 339.425 148.183 339.425 146.995 339.425C147.075 338.067 147.532 336.941 148.594 336.146C149.279 335.645 150.045 335.388 150.855 335.253C152.203 335.033 153.551 335.045 154.899 335.375C155.778 335.596 156.578 335.963 157.183 336.697C157.765 337.394 158.017 338.226 158.028 339.131C158.051 340.171 158.04 341.198 158.04 342.238C158.04 342.336 158.04 342.422 158.051 342.52C158.085 342.997 158.325 343.254 158.771 343.315C158.896 343.339 159.033 343.339 159.182 343.351C159.182 344.465 159.182 345.566 159.182 346.703C158.359 346.654 157.537 346.801 156.738 346.593C155.87 346.373 155.23 345.835 154.796 345.003C154.773 345.015 154.75 345.015 154.739 345.04C154.076 346.006 153.14 346.483 152.055 346.63C150.913 346.789 149.77 346.728 148.674 346.312C147.669 345.933 146.949 345.248 146.744 344.073C146.721 343.939 146.698 343.816 146.675 343.682C146.664 343.535 146.664 343.351 146.664 343.18ZM154.362 341.394C154.213 341.455 154.088 341.529 153.962 341.578C153.391 341.822 152.786 341.822 152.192 341.92C151.735 341.994 151.278 342.104 150.855 342.275C150.479 342.434 150.342 342.789 150.41 343.192C150.467 343.559 150.673 343.78 151.095 343.841C151.918 343.975 152.706 343.841 153.448 343.425C154.225 342.972 154.488 342.373 154.362 341.394Z" fill="#F4F4F4"/>
<path d="M213.011 346.471C211.801 346.471 210.613 346.471 209.402 346.471C209.402 346.055 209.402 345.651 209.402 345.247C209.368 345.247 209.345 345.235 209.345 345.247C208.557 346.091 207.586 346.507 206.501 346.654C205.439 346.789 204.377 346.703 203.371 346.299C202.104 345.786 201.224 344.831 200.733 343.498C200.173 341.957 200.105 340.379 200.505 338.788C200.927 337.112 201.944 335.987 203.497 335.473C205.073 334.947 206.661 334.947 208.191 335.693C208.614 335.901 208.991 336.232 209.391 336.513C209.391 334.495 209.391 332.439 209.391 330.372C210.613 330.372 211.801 330.372 213.011 330.372C213.011 335.718 213.011 341.088 213.011 346.471ZM204.034 340.807C204.045 342.214 204.662 343.18 205.793 343.522C206.49 343.73 207.175 343.706 207.86 343.449C208.511 343.204 208.979 342.74 209.219 342.042C209.448 341.369 209.471 340.672 209.276 339.987C209.071 339.241 208.625 338.727 207.94 338.434C207.46 338.226 206.958 338.177 206.444 338.201C204.936 338.275 204.022 339.265 204.034 340.807Z" fill="#F4F4F4"/>
<path d="M199.237 341.761C196.347 341.761 193.492 341.761 190.636 341.761C190.602 342.801 191.23 343.633 192.235 343.865C192.932 344.024 193.629 344 194.314 343.829C194.839 343.706 195.25 343.413 195.399 342.825C196.644 342.825 197.877 342.825 199.168 342.825C199.099 343.095 199.065 343.364 198.974 343.596C198.677 344.477 198.094 345.101 197.363 345.59C196.37 346.238 195.273 346.544 194.12 346.654C192.715 346.789 191.321 346.703 189.997 346.116C187.998 345.248 186.958 343.633 186.799 341.357C186.707 340.024 186.947 338.764 187.667 337.651C188.409 336.513 189.448 335.816 190.693 335.461C192.601 334.911 194.497 334.935 196.301 335.816C198.186 336.733 199.134 338.36 199.214 340.55C199.248 340.942 199.237 341.333 199.237 341.761ZM195.445 339.669C195.433 339.584 195.433 339.498 195.422 339.425C195.296 338.776 194.931 338.348 194.371 338.091C193.571 337.736 192.749 337.736 191.938 338.055C191.253 338.324 190.899 338.911 190.716 339.657C192.304 339.669 193.857 339.669 195.445 339.669Z" fill="#F4F4F4"/>
<path d="M258.879 346.752C257.611 346.715 256.378 346.532 255.247 345.908C253.568 344.99 252.734 343.473 252.575 341.504C252.506 340.55 252.586 339.62 252.894 338.727C253.386 337.308 254.311 336.305 255.624 335.767C257.84 334.849 260.078 334.837 262.271 335.828C264.11 336.66 265.024 338.25 265.184 340.342C265.275 341.492 265.15 342.593 264.67 343.645C264.019 345.064 262.911 345.908 261.518 346.36C261.141 346.483 260.752 346.581 260.353 346.63C259.861 346.679 259.37 346.703 258.879 346.752ZM258.879 343.584C259.096 343.559 259.302 343.559 259.519 343.51C260.444 343.339 261.129 342.825 261.392 341.822C261.483 341.455 261.518 341.051 261.506 340.66C261.472 339.559 260.844 338.727 259.85 338.434C259.393 338.299 258.925 338.274 258.445 338.323C257.212 338.458 256.435 339.204 256.275 340.513C256.161 341.48 256.355 342.36 257.12 342.996C257.623 343.437 258.228 343.559 258.879 343.584Z" fill="#F4F4F4"/>
<path d="M173.208 335.314C174.407 335.314 175.606 335.314 176.828 335.314C176.828 335.424 176.828 335.51 176.828 335.608C176.828 337.479 176.828 339.351 176.828 341.235C176.828 341.467 176.84 341.687 176.874 341.908C176.988 342.58 177.377 342.996 177.982 343.18C178.736 343.4 179.501 343.4 180.243 343.143C181.203 342.801 181.717 342.042 181.717 340.966C181.717 339.18 181.717 337.394 181.717 335.608C181.717 335.51 181.717 335.424 181.717 335.326C182.939 335.326 184.138 335.326 185.337 335.326C185.337 339.07 185.337 342.788 185.337 346.519C184.138 346.519 182.939 346.519 181.728 346.519C181.728 345.883 181.728 345.259 181.728 344.587C181.66 344.66 181.625 344.697 181.603 344.733C180.735 346.03 179.524 346.642 178.062 346.715C177.137 346.764 176.234 346.654 175.389 346.214C174.236 345.614 173.573 344.599 173.333 343.278C173.253 342.825 173.208 342.36 173.208 341.895C173.196 339.767 173.196 337.651 173.208 335.522C173.196 335.449 173.196 335.387 173.208 335.314Z" fill="#F4F4F4"/>
<path d="M214.862 335.314C216.061 335.314 217.261 335.314 218.483 335.314C218.483 335.424 218.483 335.51 218.483 335.608C218.483 337.479 218.483 339.351 218.483 341.235C218.483 341.467 218.494 341.687 218.528 341.908C218.643 342.58 219.031 342.996 219.636 343.18C220.39 343.4 221.155 343.4 221.898 343.143C222.857 342.801 223.371 342.042 223.371 340.966C223.371 339.18 223.371 337.394 223.371 335.608C223.371 335.51 223.371 335.424 223.371 335.314C224.582 335.314 225.781 335.314 226.98 335.314C226.98 339.045 226.98 342.776 226.98 346.519C225.781 346.519 224.582 346.519 223.371 346.519C223.371 345.883 223.371 345.259 223.371 344.587C223.314 344.66 223.28 344.685 223.257 344.721C222.4 346.006 221.201 346.63 219.75 346.715C218.814 346.776 217.9 346.654 217.044 346.214C215.89 345.614 215.227 344.599 214.988 343.278C214.908 342.825 214.862 342.36 214.862 341.895C214.851 339.767 214.851 337.638 214.851 335.51C214.851 335.449 214.862 335.387 214.862 335.314Z" fill="#F4F4F4"/>
<path d="M251.09 338.629C249.593 338.629 248.12 338.629 246.658 338.629C246.635 338.654 246.624 338.666 246.624 338.678C246.624 339.608 246.59 340.55 246.658 341.48C246.749 342.629 247.241 343.094 248.337 343.131C249.365 343.168 250.404 343.155 251.432 343.155C251.524 343.155 251.604 343.155 251.718 343.155C251.718 344.281 251.718 345.394 251.718 346.507C251.684 346.507 251.649 346.52 251.615 346.52C250.359 346.52 249.114 346.52 247.857 346.507C247.104 346.495 246.361 346.373 245.653 346.104C244.077 345.504 243.197 344.281 243.026 342.544C242.912 341.357 242.969 340.158 242.946 338.972C242.946 338.862 242.946 338.752 242.946 338.617C242.352 338.617 241.77 338.617 241.176 338.617C241.176 337.504 241.176 336.403 241.176 335.29C241.758 335.29 242.341 335.29 242.946 335.29C242.946 333.944 242.946 332.623 242.946 331.277C244.191 331.277 245.402 331.277 246.647 331.277C246.647 332.611 246.647 333.932 246.647 335.29C248.143 335.29 249.628 335.29 251.112 335.29C251.09 336.415 251.09 337.504 251.09 338.629Z" fill="#F4F4F4"/>
<path d="M172.179 341.822C172.122 342.862 171.802 343.779 171.185 344.562C170.409 345.553 169.404 346.14 168.25 346.446C166.617 346.874 164.995 346.837 163.396 346.25C161.146 345.418 159.855 343.388 159.924 340.855C159.958 339.351 160.358 338.005 161.374 336.916C162.197 336.036 163.213 335.546 164.332 335.302C165.966 334.959 167.576 335.008 169.129 335.656C170.534 336.244 171.574 337.247 172.019 338.825C172.122 339.192 172.156 339.571 172.236 339.975C172.122 339.987 172.065 339.999 171.996 339.999C170.911 339.999 169.815 339.999 168.73 339.999C168.627 339.999 168.536 340.011 168.501 339.852C168.296 338.996 167.747 338.543 166.959 338.36C166.4 338.238 165.851 338.238 165.292 338.372C164.287 338.629 163.659 339.461 163.624 340.66C163.613 341.076 163.659 341.504 163.75 341.907C163.91 342.58 164.332 343.045 164.938 343.29C165.646 343.583 166.377 343.62 167.108 343.412C167.816 343.216 168.273 342.739 168.456 341.981C168.478 341.871 168.501 341.785 168.65 341.785C169.803 341.797 170.945 341.785 172.099 341.797C172.11 341.797 172.133 341.81 172.179 341.822Z" fill="#F4F4F4"/>
<path d="M240.732 339.987C240.663 339.987 240.606 339.999 240.549 339.999C239.452 339.999 238.356 339.999 237.26 339.999C237.157 339.999 237.088 339.999 237.054 339.853C236.848 338.984 236.277 338.507 235.478 338.348C234.827 338.213 234.187 338.213 233.559 338.47C232.622 338.85 232.246 339.645 232.166 340.648C232.12 341.321 232.2 341.969 232.565 342.532C232.954 343.119 233.513 343.376 234.153 343.486C234.678 343.571 235.215 343.571 235.729 343.4C236.403 343.18 236.837 342.703 236.997 341.969C237.031 341.834 237.065 341.785 237.202 341.785C238.333 341.785 239.452 341.785 240.583 341.785C240.629 341.785 240.663 341.798 240.72 341.81C240.686 342.519 240.526 343.168 240.218 343.767C239.635 344.917 238.744 345.7 237.602 346.14C235.409 346.984 233.216 346.972 231.115 345.847C229.459 344.954 228.625 343.425 228.476 341.467C228.385 340.232 228.556 339.057 229.139 337.969C229.847 336.648 230.944 335.84 232.303 335.449C234.29 334.874 236.254 334.923 238.139 335.889C239.555 336.623 240.458 337.81 240.697 339.51C240.709 339.584 240.72 339.645 240.72 339.718C240.732 339.804 240.732 339.877 240.732 339.987Z" fill="#F4F4F4"/>
<path d="M115.637 350.113V345.488C116.073 346.158 116.789 346.874 118.425 346.874C120.574 346.874 122.349 345.145 122.349 342.576C122.349 340.302 120.792 338.558 118.674 338.558C117.023 338.558 116.104 339.305 115.637 340.131C115.637 339.539 115.621 338.994 115.59 338.776H114.142C114.157 339.43 114.157 340.084 114.157 340.738V350.113H115.637ZM120.823 342.638C120.823 344.211 119.951 345.613 118.207 345.613C116.462 345.613 115.606 344.398 115.606 342.747C115.606 341.096 116.4 339.804 118.238 339.804C120.013 339.804 120.823 341.236 120.823 342.638ZM127.931 338.558C125.283 338.558 123.695 340.458 123.695 342.716C123.695 344.896 125.19 346.874 127.853 346.874C130.687 346.874 132.104 344.896 132.104 342.716C132.104 340.629 130.656 338.558 127.931 338.558ZM127.868 339.772C129.628 339.772 130.578 341.159 130.578 342.731C130.578 344.32 129.706 345.659 127.899 345.659C126.171 345.659 125.221 344.227 125.221 342.716C125.221 341.143 126.077 339.772 127.868 339.772ZM134.035 346.656H135.515V343.37C135.515 341.05 136.901 339.959 138.707 339.975V338.558C137.165 338.542 136.029 339.336 135.515 340.551C135.515 339.835 135.483 339.009 135.468 338.776H134.02C134.035 339.492 134.035 340.209 134.035 340.925V346.656Z" fill="#F4F4F4"/>
</g>
<defs>
<clipPath id="clip0_221_6200">
<rect width="378" height="378" rx="50.8065" fill="white"/>
</clipPath>
</defs>
</svg>
