<svg width="378" height="378" viewBox="0 0 378 378" fill="none" xmlns="http://www.w3.org/2000/svg">
<g clip-path="url(#clip0_221_6200)">
<rect width="378" height="378" rx="50.8065" fill="#101213"/>
<path d="M-485.856 122.472H-465.039C-444.223 122.472 -401.434 122.472 -359.801 171.047C-318.168 219.621 -275.378 316.77 -233.745 323.71C-190.956 330.649 -149.323 247.378 -107.69 247.378C-64.9009 247.378 -23.2679 330.649 18.365 323.71C61.1544 316.77 102.787 219.621 144.42 205.743C187.21 191.864 228.842 261.257 271.632 268.196C313.265 275.135 354.898 219.621 397.687 212.682C439.32 205.743 480.953 247.378 523.742 275.135C565.375 302.892 607.008 316.77 649.798 330.649C691.43 344.527 734.22 358.406 775.853 330.649C817.486 302.892 860.275 233.5 881.092 198.804L901.908 164.107" stroke="#1A4CE0" stroke-width="18.396"/>
<path d="M-490.896 57.456H-470.08C-449.263 57.456 -406.474 57.456 -364.841 106.031C-323.208 154.605 -280.419 251.754 -238.786 258.694C-195.996 265.633 -154.363 182.362 -112.731 182.362C-69.9411 182.362 -28.3082 265.633 13.3247 258.694C56.1141 251.754 97.747 154.605 139.38 140.727C182.169 126.848 223.802 196.241 266.592 203.18C308.225 210.119 349.857 154.605 392.647 147.666C434.28 140.727 475.913 182.362 518.702 210.119C560.335 237.876 601.968 251.754 644.757 265.633C686.39 279.511 729.18 293.39 770.813 265.633C812.446 237.876 855.235 168.484 876.051 133.788L896.868 99.0914" stroke="#1A4CE0" stroke-width="18.396"/>
<path d="M-495.936 -7.56H-475.12C-454.303 -7.56 -411.514 -7.56 -369.881 41.0146C-328.248 89.5893 -285.459 186.739 -243.826 193.678C-201.036 200.617 -159.403 117.346 -117.771 117.346C-74.9812 117.346 -33.3483 200.617 8.28467 193.678C51.0741 186.739 92.707 89.5893 134.34 75.7108C177.129 61.8323 218.762 131.225 261.552 138.164C303.185 145.103 344.817 89.5893 387.607 82.65C429.24 75.7108 470.873 117.346 513.662 145.103C555.295 172.86 596.928 186.739 639.717 200.617C681.35 214.495 724.14 228.374 765.773 200.617C807.405 172.86 850.195 103.468 871.011 68.7716L891.828 34.0754" stroke="#1A4CE0" stroke-width="18.396"/>
<path d="M-506.016 -72.576H-485.2C-464.383 -72.576 -421.594 -72.576 -379.961 -24.0014C-338.328 24.5732 -295.539 121.723 -253.906 128.662C-211.116 135.601 -169.483 52.3302 -127.85 52.3302C-85.061 52.3302 -43.4281 135.601 -1.79517 128.662C40.9942 121.723 82.6271 24.5732 124.26 10.6948C167.049 -3.18368 208.682 66.2086 251.472 73.1479C293.105 80.0871 334.738 24.5732 377.527 17.634C419.16 10.6948 460.793 52.3302 503.582 80.0871C545.215 107.844 586.848 121.723 629.637 135.601C671.27 149.479 714.06 163.358 755.693 135.601C797.326 107.844 840.115 38.4517 860.931 3.75555L881.748 -30.9406" stroke="#1A4CE0" stroke-width="18.396"/>
<path d="M39.0799 314.145C38.3714 315.691 37.2442 316.561 35.0864 316.561C32.0913 316.561 30.7065 314.21 30.7065 311.279C30.7065 308.252 32.1557 306.062 35.1186 306.062C37.6307 306.062 38.5968 307.479 38.9833 308.606H43.5565C43.2989 306.641 41.3343 302.616 35.0864 302.616C29.2572 302.616 26.0367 306.77 26.0367 311.311C26.0367 316.045 28.8707 320.039 35.0864 320.039C40.2715 320.039 42.9124 317.205 43.6531 314.145H39.0799ZM63.3368 303.067H58.7636V310.635C58.7636 314.757 57.6364 316.432 54.7701 316.432C52.3547 316.432 51.4851 314.725 51.4851 312.438V303.067H46.9441V313.211C46.9441 318.042 49.6494 320.039 53.1276 320.039C56.638 320.039 57.9584 318.847 58.7958 317.366C58.828 318.235 58.828 319.137 58.8924 319.588H63.3368C63.3046 317.978 63.3368 316.367 63.3368 314.757V303.067ZM83.7654 308.606C83.7654 305.836 82.6382 302.616 75.8429 302.616C69.5628 302.616 68.1135 305.836 67.9525 307.93H72.5257C72.7833 306.802 73.363 305.772 75.9073 305.772C78.677 305.772 79.3211 307.06 79.3211 308.541V309.153H75.6818C70.851 309.153 67.0185 310.377 67.0185 314.661C67.0185 317.269 68.822 320.039 73.3952 320.039C76.6158 320.039 78.5159 319.073 79.4177 317.559C79.4177 318.042 79.4821 319.137 79.6109 319.588H83.8943C83.8621 319.234 83.7654 317.108 83.7654 315.111V308.606ZM79.3211 312.535C79.3211 315.015 77.9684 316.722 74.6191 316.722C72.4291 316.722 71.4629 315.691 71.4629 314.435C71.4629 312.857 72.7511 312.116 75.7462 312.116H79.3211V312.535ZM88.5857 319.588H93.1589V311.44C93.1589 308.187 94.4471 306.19 97.2168 306.19C99.7933 306.19 100.631 308.026 100.631 310.184V319.588H105.236V309.443C105.236 305.095 102.788 302.616 98.7627 302.616C95.4455 302.616 93.8674 304.194 93.1267 305.482C93.0945 304.677 93.0623 303.55 92.9979 303.067H88.5535C88.5857 304.258 88.5857 305.836 88.5857 307.221V319.588ZM122.566 295.53V304.58C122.083 303.904 120.763 302.616 117.349 302.616C113.194 302.616 108.847 305.933 108.847 311.472C108.847 316.561 112.228 320.039 116.866 320.039C120.441 320.039 121.664 318.783 122.566 317.495C122.598 318.171 122.631 319.041 122.695 319.588H127.172C127.139 318.042 127.139 316.432 127.139 314.886V295.53H122.566ZM113.549 311.376C113.549 308.703 115.062 306.19 118.186 306.19C121.536 306.19 122.695 308.219 122.695 311.311C122.695 314.403 121.246 316.432 118.122 316.432C115.159 316.432 113.549 314.113 113.549 311.376ZM140.107 302.616C134.053 302.616 130.768 306.706 130.768 311.311C130.768 315.884 133.924 320.039 139.914 320.039C145.969 320.039 149.318 316.239 149.318 311.311C149.318 307.124 146.323 302.616 140.107 302.616ZM140.011 306.094C143.135 306.094 144.616 308.638 144.616 311.376C144.616 314.145 143.167 316.528 140.043 316.528C137.048 316.528 135.438 314.081 135.438 311.311C135.438 308.541 136.887 306.094 140.011 306.094ZM178.896 312.406C178.928 311.955 178.928 311.665 178.928 311.311C178.928 307.092 176.448 302.616 170.072 302.616C164.307 302.616 161.086 306.577 161.086 311.343C161.086 315.595 163.631 320.039 170.136 320.039C175.321 320.039 177.737 317.43 178.703 314.628H174.162C173.453 315.852 172.39 316.593 170.2 316.593C167.463 316.593 165.788 314.789 165.627 312.406H178.896ZM165.692 309.54C165.917 307.575 167.109 305.868 170.072 305.868C173.357 305.868 174.162 308.058 174.291 309.54H165.692ZM187.007 319.588V295.53H182.466V319.588H187.007ZM200.896 319.588H205.47V313.276C205.47 308.509 208.175 306.77 211.943 306.802V302.616C208.561 302.551 206.436 304.194 205.47 306.48C205.47 305.418 205.405 303.614 205.309 303.067H200.864C200.896 304.548 200.896 306.062 200.896 307.543V319.588ZM214.892 319.588H219.465V303.067H214.892V319.588ZM219.433 295.176L214.989 300.2H219.047L224.683 295.176H219.433ZM232.415 302.616C226.361 302.616 223.076 306.706 223.076 311.311C223.076 315.884 226.232 320.039 232.222 320.039C238.277 320.039 241.626 316.239 241.626 311.311C241.626 307.124 238.631 302.616 232.415 302.616ZM232.319 306.094C235.443 306.094 236.924 308.638 236.924 311.376C236.924 314.145 235.475 316.528 232.351 316.528C229.356 316.528 227.746 314.081 227.746 311.311C227.746 308.541 229.195 306.094 232.319 306.094ZM253.104 314.532C253.652 318.074 256.969 320.039 261.575 320.039C267.372 320.039 269.658 317.623 269.658 314.628C269.658 312.277 268.692 310.152 262.122 309.186C258.837 308.703 258.225 308.187 258.225 307.35C258.225 306.641 258.676 305.707 260.995 305.707C263.732 305.707 264.376 306.835 264.602 307.672H269.111C268.885 305.418 266.985 302.616 261.188 302.616C255.584 302.616 253.749 305.385 253.749 307.769C253.749 309.798 254.683 312.052 260.834 312.889C264.409 313.34 265.182 313.952 265.182 315.015C265.182 316.013 264.409 316.851 261.864 316.851C259.385 316.851 258.096 315.949 257.645 314.532H253.104ZM289.216 303.067H284.643V310.635C284.643 314.757 283.516 316.432 280.65 316.432C278.234 316.432 277.365 314.725 277.365 312.438V303.067H272.824V313.211C272.824 318.042 275.529 320.039 279.007 320.039C282.518 320.039 283.838 318.847 284.675 317.366C284.708 318.235 284.708 319.137 284.772 319.588H289.216C289.184 317.978 289.216 316.367 289.216 314.757V303.067ZM310.643 312.406C310.676 311.955 310.676 311.665 310.676 311.311C310.676 307.092 308.196 302.616 301.819 302.616C296.054 302.616 292.834 306.577 292.834 311.343C292.834 315.595 295.378 320.039 301.883 320.039C307.069 320.039 309.484 317.43 310.45 314.628H305.909C305.201 315.852 304.138 316.593 301.948 316.593C299.21 316.593 297.536 314.789 297.375 312.406H310.643ZM297.439 309.54C297.664 307.575 298.856 305.868 301.819 305.868C305.104 305.868 305.909 308.058 306.038 309.54H297.439ZM314.214 319.588H318.787V311.44C318.787 308.187 320.075 306.19 322.845 306.19C325.421 306.19 326.259 308.026 326.259 310.184V319.588H330.864V309.443C330.864 305.095 328.416 302.616 324.391 302.616C321.073 302.616 319.495 304.194 318.755 305.482C318.722 304.677 318.69 303.55 318.626 303.067H314.181C314.214 304.258 314.214 305.836 314.214 307.221V319.588ZM351.16 308.606C351.16 305.836 350.033 302.616 343.237 302.616C336.957 302.616 335.508 305.836 335.347 307.93H339.92C340.178 306.802 340.758 305.772 343.302 305.772C346.071 305.772 346.716 307.06 346.716 308.541V309.153H343.076C338.246 309.153 334.413 310.377 334.413 314.661C334.413 317.269 336.217 320.039 340.79 320.039C344.01 320.039 345.91 319.073 346.812 317.559C346.812 318.042 346.877 319.137 347.005 319.588H351.289C351.257 319.234 351.16 317.108 351.16 315.111V308.606ZM346.716 312.535C346.716 315.015 345.363 316.722 342.014 316.722C339.824 316.722 338.857 315.691 338.857 314.435C338.857 312.857 340.146 312.116 343.141 312.116H346.716V312.535Z" fill="#F4F4F4"/>
<path d="M146.768 343.18C146.802 342.972 146.825 342.752 146.871 342.544C147.088 341.578 147.693 341.015 148.527 340.697C149.292 340.403 150.103 340.305 150.902 340.22C151.828 340.134 152.776 340.146 153.689 339.889C153.792 339.865 153.883 339.828 153.986 339.792C154.489 339.571 154.592 339.266 154.352 338.752C154.169 338.373 153.861 338.177 153.495 338.067C152.947 337.908 152.387 337.895 151.839 338.03C151.222 338.177 150.811 338.581 150.685 339.266C150.674 339.315 150.663 339.363 150.651 339.425C149.463 339.425 148.287 339.425 147.099 339.425C147.179 338.067 147.636 336.941 148.698 336.146C149.383 335.645 150.149 335.388 150.96 335.253C152.307 335.033 153.655 335.045 155.003 335.375C155.882 335.596 156.682 335.963 157.287 336.697C157.869 337.394 158.121 338.226 158.132 339.131C158.155 340.171 158.144 341.198 158.144 342.238C158.144 342.336 158.144 342.422 158.155 342.52C158.189 342.997 158.429 343.254 158.875 343.315C159 343.339 159.137 343.339 159.286 343.351C159.286 344.465 159.286 345.566 159.286 346.703C158.463 346.654 157.641 346.801 156.842 346.593C155.974 346.373 155.334 345.835 154.9 345.003C154.877 345.015 154.854 345.015 154.843 345.04C154.18 346.006 153.244 346.483 152.159 346.63C151.017 346.789 149.874 346.728 148.778 346.312C147.773 345.933 147.053 345.248 146.848 344.073C146.825 343.939 146.802 343.816 146.779 343.682C146.768 343.535 146.768 343.351 146.768 343.18ZM154.466 341.394C154.317 341.455 154.192 341.529 154.066 341.578C153.495 341.822 152.89 341.822 152.296 341.92C151.839 341.994 151.382 342.104 150.96 342.275C150.583 342.434 150.446 342.789 150.514 343.192C150.571 343.559 150.777 343.78 151.199 343.841C152.022 343.975 152.81 343.841 153.552 343.425C154.329 342.972 154.592 342.373 154.466 341.394Z" fill="#F4F4F4"/>
<path d="M213.115 346.471C211.905 346.471 210.717 346.471 209.506 346.471C209.506 346.055 209.506 345.651 209.506 345.247C209.472 345.247 209.449 345.235 209.449 345.247C208.661 346.091 207.69 346.507 206.605 346.654C205.543 346.789 204.481 346.703 203.475 346.299C202.208 345.786 201.328 344.831 200.837 343.498C200.277 341.957 200.209 340.379 200.609 338.788C201.031 337.112 202.048 335.987 203.601 335.473C205.177 334.947 206.765 334.947 208.295 335.693C208.718 335.901 209.095 336.232 209.495 336.513C209.495 334.495 209.495 332.439 209.495 330.372C210.717 330.372 211.905 330.372 213.115 330.372C213.115 335.718 213.115 341.088 213.115 346.471ZM204.138 340.807C204.149 342.214 204.766 343.18 205.897 343.522C206.594 343.73 207.279 343.706 207.964 343.449C208.615 343.204 209.083 342.74 209.323 342.042C209.552 341.369 209.575 340.672 209.38 339.987C209.175 339.241 208.729 338.727 208.044 338.434C207.564 338.226 207.062 338.177 206.548 338.201C205.04 338.275 204.126 339.265 204.138 340.807Z" fill="#F4F4F4"/>
<path d="M199.341 341.761C196.451 341.761 193.596 341.761 190.74 341.761C190.706 342.801 191.334 343.633 192.339 343.865C193.036 344.024 193.733 344 194.418 343.829C194.943 343.706 195.354 343.413 195.503 342.825C196.748 342.825 197.981 342.825 199.272 342.825C199.203 343.095 199.169 343.364 199.078 343.596C198.781 344.477 198.198 345.101 197.467 345.59C196.474 346.238 195.377 346.544 194.224 346.654C192.819 346.789 191.425 346.703 190.101 346.116C188.102 345.248 187.062 343.633 186.903 341.357C186.811 340.024 187.051 338.764 187.771 337.651C188.513 336.513 189.552 335.816 190.797 335.461C192.705 334.911 194.601 334.935 196.405 335.816C198.29 336.733 199.238 338.36 199.318 340.55C199.352 340.942 199.341 341.333 199.341 341.761ZM195.549 339.669C195.537 339.584 195.537 339.498 195.526 339.425C195.4 338.776 195.035 338.348 194.475 338.091C193.676 337.736 192.853 337.736 192.042 338.055C191.357 338.324 191.003 338.911 190.82 339.657C192.408 339.669 193.961 339.669 195.549 339.669Z" fill="#F4F4F4"/>
<path d="M258.983 346.752C257.715 346.715 256.482 346.532 255.351 345.908C253.672 344.99 252.838 343.473 252.679 341.504C252.61 340.55 252.69 339.62 252.998 338.727C253.49 337.308 254.415 336.305 255.728 335.767C257.944 334.849 260.182 334.837 262.375 335.828C264.214 336.66 265.128 338.25 265.288 340.342C265.379 341.492 265.254 342.593 264.774 343.645C264.123 345.064 263.015 345.908 261.622 346.36C261.245 346.483 260.856 346.581 260.457 346.63C259.965 346.679 259.474 346.703 258.983 346.752ZM258.983 343.584C259.2 343.559 259.406 343.559 259.623 343.51C260.548 343.339 261.233 342.825 261.496 341.822C261.587 341.455 261.622 341.051 261.61 340.66C261.576 339.559 260.948 338.727 259.954 338.433C259.497 338.299 259.029 338.274 258.549 338.323C257.316 338.458 256.539 339.204 256.379 340.513C256.265 341.48 256.459 342.36 257.224 342.996C257.727 343.437 258.332 343.559 258.983 343.584Z" fill="#F4F4F4"/>
<path d="M173.312 335.314C174.511 335.314 175.71 335.314 176.932 335.314C176.932 335.424 176.932 335.51 176.932 335.608C176.932 337.479 176.932 339.351 176.932 341.235C176.932 341.467 176.944 341.687 176.978 341.908C177.092 342.58 177.481 342.996 178.086 343.18C178.84 343.4 179.605 343.4 180.347 343.143C181.307 342.801 181.821 342.042 181.821 340.966C181.821 339.18 181.821 337.394 181.821 335.608C181.821 335.51 181.821 335.424 181.821 335.326C183.043 335.326 184.242 335.326 185.441 335.326C185.441 339.07 185.441 342.788 185.441 346.519C184.242 346.519 183.043 346.519 181.832 346.519C181.832 345.883 181.832 345.259 181.832 344.587C181.764 344.66 181.729 344.697 181.707 344.733C180.839 346.03 179.628 346.642 178.166 346.715C177.241 346.764 176.338 346.654 175.493 346.214C174.34 345.614 173.677 344.599 173.437 343.278C173.357 342.825 173.312 342.36 173.312 341.895C173.3 339.767 173.3 337.651 173.312 335.522C173.3 335.449 173.3 335.387 173.312 335.314Z" fill="#F4F4F4"/>
<path d="M214.966 335.314C216.165 335.314 217.365 335.314 218.587 335.314C218.587 335.424 218.587 335.51 218.587 335.608C218.587 337.479 218.587 339.351 218.587 341.235C218.587 341.467 218.598 341.687 218.632 341.908C218.747 342.58 219.135 342.996 219.74 343.18C220.494 343.4 221.259 343.4 222.002 343.143C222.961 342.801 223.475 342.042 223.475 340.966C223.475 339.18 223.475 337.394 223.475 335.608C223.475 335.51 223.475 335.424 223.475 335.314C224.686 335.314 225.885 335.314 227.084 335.314C227.084 339.045 227.084 342.776 227.084 346.519C225.885 346.519 224.686 346.519 223.475 346.519C223.475 345.883 223.475 345.259 223.475 344.587C223.418 344.66 223.384 344.685 223.361 344.721C222.504 346.006 221.305 346.63 219.854 346.715C218.918 346.776 218.004 346.654 217.148 346.214C215.994 345.614 215.331 344.599 215.092 343.278C215.012 342.825 214.966 342.36 214.966 341.895C214.955 339.767 214.955 337.638 214.955 335.51C214.955 335.449 214.966 335.387 214.966 335.314Z" fill="#F4F4F4"/>
<path d="M251.194 338.629C249.697 338.629 248.224 338.629 246.762 338.629C246.739 338.654 246.728 338.666 246.728 338.678C246.728 339.608 246.694 340.55 246.762 341.48C246.853 342.629 247.345 343.094 248.441 343.131C249.469 343.168 250.508 343.155 251.536 343.155C251.628 343.155 251.708 343.155 251.822 343.155C251.822 344.281 251.822 345.394 251.822 346.507C251.788 346.507 251.753 346.52 251.719 346.52C250.463 346.52 249.218 346.52 247.961 346.507C247.208 346.495 246.465 346.373 245.757 346.104C244.181 345.504 243.301 344.281 243.13 342.544C243.016 341.357 243.073 340.158 243.05 338.972C243.05 338.862 243.05 338.752 243.05 338.617C242.456 338.617 241.874 338.617 241.28 338.617C241.28 337.504 241.28 336.403 241.28 335.29C241.862 335.29 242.445 335.29 243.05 335.29C243.05 333.944 243.05 332.623 243.05 331.277C244.295 331.277 245.506 331.277 246.751 331.277C246.751 332.611 246.751 333.932 246.751 335.29C248.247 335.29 249.732 335.29 251.216 335.29C251.194 336.415 251.194 337.504 251.194 338.629Z" fill="#F4F4F4"/>
<path d="M172.283 341.822C172.226 342.862 171.906 343.779 171.289 344.562C170.513 345.553 169.508 346.14 168.354 346.446C166.721 346.874 165.099 346.837 163.5 346.25C161.25 345.418 159.959 343.388 160.028 340.855C160.062 339.351 160.462 338.005 161.478 336.916C162.301 336.036 163.317 335.546 164.436 335.302C166.07 334.959 167.68 335.008 169.233 335.656C170.638 336.244 171.678 337.247 172.123 338.825C172.226 339.192 172.26 339.571 172.34 339.975C172.226 339.987 172.169 339.999 172.1 339.999C171.015 339.999 169.919 339.999 168.834 339.999C168.731 339.999 168.64 340.011 168.605 339.852C168.4 338.996 167.851 338.543 167.063 338.36C166.504 338.238 165.955 338.238 165.396 338.372C164.391 338.629 163.763 339.461 163.728 340.66C163.717 341.076 163.763 341.504 163.854 341.907C164.014 342.58 164.436 343.045 165.042 343.29C165.75 343.583 166.481 343.62 167.212 343.412C167.92 343.216 168.377 342.739 168.56 341.981C168.582 341.871 168.605 341.785 168.754 341.785C169.907 341.797 171.049 341.785 172.203 341.797C172.214 341.797 172.237 341.81 172.283 341.822Z" fill="#F4F4F4"/>
<path d="M240.836 339.987C240.767 339.987 240.71 339.999 240.653 339.999C239.557 339.999 238.46 339.999 237.364 339.999C237.261 339.999 237.192 339.999 237.158 339.853C236.952 338.984 236.381 338.507 235.582 338.348C234.931 338.213 234.291 338.213 233.663 338.47C232.726 338.85 232.35 339.645 232.27 340.648C232.224 341.321 232.304 341.969 232.669 342.532C233.058 343.119 233.617 343.376 234.257 343.486C234.782 343.571 235.319 343.571 235.833 343.4C236.507 343.18 236.941 342.703 237.101 341.969C237.135 341.834 237.169 341.785 237.306 341.785C238.437 341.785 239.556 341.785 240.687 341.785C240.733 341.785 240.767 341.798 240.824 341.81C240.79 342.519 240.63 343.168 240.322 343.767C239.739 344.917 238.848 345.7 237.706 346.14C235.513 346.984 233.32 346.972 231.219 345.847C229.563 344.954 228.729 343.425 228.58 341.467C228.489 340.232 228.66 339.057 229.243 337.969C229.951 336.648 231.048 335.84 232.407 335.449C234.394 334.874 236.358 334.923 238.243 335.889C239.659 336.623 240.562 337.81 240.801 339.51C240.813 339.584 240.824 339.645 240.824 339.718C240.836 339.804 240.836 339.877 240.836 339.987Z" fill="#F4F4F4"/>
<path d="M115.741 349.113V344.488C116.177 345.158 116.893 345.874 118.529 345.874C120.678 345.874 122.453 344.145 122.453 341.576C122.453 339.302 120.896 337.558 118.778 337.558C117.127 337.558 116.208 338.305 115.741 339.131C115.741 338.539 115.725 337.994 115.694 337.776H114.246C114.261 338.43 114.261 339.084 114.261 339.738V349.113H115.741ZM120.927 341.638C120.927 343.211 120.055 344.613 118.311 344.613C116.566 344.613 115.71 343.398 115.71 341.747C115.71 340.096 116.504 338.804 118.342 338.804C120.117 338.804 120.927 340.236 120.927 341.638ZM128.035 337.558C125.387 337.558 123.799 339.458 123.799 341.716C123.799 343.896 125.294 345.874 127.957 345.874C130.791 345.874 132.208 343.896 132.208 341.716C132.208 339.629 130.76 337.558 128.035 337.558ZM127.972 338.772C129.732 338.772 130.682 340.159 130.682 341.731C130.682 343.32 129.81 344.659 128.003 344.659C126.275 344.659 125.325 343.227 125.325 341.716C125.325 340.143 126.181 338.772 127.972 338.772ZM134.139 345.656H135.619V342.37C135.619 340.05 137.005 338.959 138.811 338.975V337.558C137.269 337.542 136.133 338.336 135.619 339.551C135.619 338.835 135.587 338.009 135.572 337.776H134.124C134.139 338.492 134.139 339.209 134.139 339.925V345.656Z" fill="#F4F4F4"/>
</g>
<defs>
<clipPath id="clip0_221_6200">
<rect width="378" height="378" rx="50.8065" fill="white"/>
</clipPath>
</defs>
</svg>
