<?xml version="1.0" standalone="no"?>
<!DOCTYPE svg PUBLIC "-//W3C//DTD SVG 20010904//EN"
 "http://www.w3.org/TR/2001/REC-SVG-20010904/DTD/svg10.dtd">
<svg version="1.0" xmlns="http://www.w3.org/2000/svg"
 width="3334.000000pt" height="3334.000000pt" viewBox="0 0 3334.000000 3334.000000"
 preserveAspectRatio="xMidYMid meet">
<metadata>
Created by potrace 1.11, written by Peter Selinger 2001-2013
</metadata>
<g transform="translate(0.000000,3334.000000) scale(0.100000,-0.100000)"
fill="#000000" stroke="none">
<path d="M1510 16665 l0 -15175 6080 0 6080 0 104 79 c664 505 1467 833 2286
935 399 50 829 50 1215 0 386 -49 793 -154 1160 -299 148 -58 463 -210 610
-294 146 -84 396 -250 519 -345 l99 -76 6059 0 6058 0 -2 12412 -3 12411
-5081 2746 c-2795 1511 -5106 2754 -5136 2764 -52 16 -624 17 -10051 17
l-9997 0 0 -15175z m15390 7955 c927 -42 1804 -161 2668 -361 1547 -358 2676
-1009 3477 -2004 600 -747 946 -1624 1050 -2665 32 -319 37 -688 45 -2940 7
-2008 9 -2275 23 -2350 95 -505 353 -787 835 -909 107 -28 266 -49 552 -74
l245 -22 3 -2295 2 -2295 -532 0 c-293 0 -834 -2 -1203 -5 -683 -5 -797 -2
-1150 36 -1357 143 -2434 741 -3178 1764 -98 135 -218 319 -288 442 -25 44
-51 78 -59 77 -36 0 -83 -41 -155 -134 -300 -386 -662 -745 -1020 -1010 -830
-615 -1782 -961 -3025 -1099 -1712 -190 -3200 -54 -4590 419 -648 221 -1196
508 -1625 852 -608 487 -1023 1110 -1240 1858 -57 199 -85 326 -145 665 l-50
282 0 339 0 339 51 307 c77 468 129 704 208 933 297 870 873 1505 1778 1958
578 290 1414 534 2355 687 744 121 1546 198 2978 285 812 50 1264 91 1741 160
496 71 1027 190 1332 296 146 52 371 162 476 234 397 271 455 651 186 1205
-184 379 -436 628 -830 820 -184 90 -330 141 -568 200 -431 106 -756 145
-1207 145 -346 0 -569 -19 -880 -76 -321 -58 -564 -133 -797 -244 -400 -192
-693 -468 -892 -841 -103 -194 -169 -387 -236 -696 l-38 -173 -2595 0 -2594 0
7 83 c15 196 47 484 71 637 232 1522 874 2676 1969 3541 792 627 1792 1076
2945 1323 691 148 1660 265 2515 305 261 12 1134 13 1385 1z"/>
<path d="M18595 15924 c-431 -192 -625 -263 -929 -339 -326 -82 -597 -124
-1311 -205 -517 -58 -659 -77 -950 -126 -668 -113 -1351 -291 -1787 -467 -239
-96 -425 -261 -528 -467 -80 -159 -113 -311 -113 -520 0 -632 279 -998 865
-1134 295 -68 910 -109 1308 -87 761 43 1440 217 2100 539 963 471 1427 1023
1556 1852 34 220 30 671 -9 952 l-12 87 -190 -85z"/>
</g>
</svg>
