<svg viewBox="0 0 100 100">
  <path class="border" d="M50 99.5A49 49 0 0 1 15 85 49 49 0 0 1 .5 50 49 49 0 0 1 15 15 49 49 0 0 1 50 .5a49.3 49.3 0 1 1 0 99zm0-94.3a44.8 44.8 0 1 0 31.7 13.1A44.8 44.8 0 0 0 50 5.2z"/>
  <path class="plasta" d="M50 99.5A49 49 0 0 1 15 85 49 49 0 0 1 .5 50 49 49 0 0 1 15 15 49 49 0 0 1 50 .5a49.3 49.3 0 1 1 0 99z"/>
  <path d="M49.5 75.9c-1.7 0-3.3-.1-4.9-.4-1.1-.2-2-1.2-2-2.3V55.1h-5.1a2.4 2.4 0 0 1-2.4-2.4v-8.5c0-1.3 1.1-2.4 2.4-2.4h5.1v-4.1c0-8.4 5.3-13.8 13.4-13.8 3.4 0 6.8.6 7 .6 1.1.2 2 1.2 2 2.3V34c0 1.3-1.1 2.4-2.4 2.4h-3.7c-1.8 0-2.4.6-2.4 2.2v3.1h5.8c.7 0 1.3.3 1.8.8.4.5.6 1.2.5 1.9l-1.3 8.5c-.2 1.2-1.2 2-2.3 2h-4.5V73c0 1.2-.8 2.1-2 2.3-1.7.5-3.4.6-5 .6zm-2.2-4.8h4.4V52.7c0-1.3 1.1-2.4 2.4-2.4h4.8l.6-3.8h-5.4a2.4 2.4 0 0 1-2.4-2.4v-5.5c0-4.2 2.8-6.9 7.1-6.9h1.3v-2.8c-1.2-.1-2.7-.3-4.2-.3-5.6 0-8.7 3.2-8.7 9v6.5c0 1.3-1.1 2.4-2.4 2.4h-5.1v3.8h5.1c1.3 0 2.4 1.1 2.4 2.4v18.4z"/>
</svg>