<svg viewBox="0 0 100 100">
  <path class="border" d="M50 99.5A49 49 0 0 1 15 85 49 49 0 0 1 .5 50 49 49 0 0 1 15 15 49 49 0 0 1 50 .5a49.3 49.3 0 1 1 0 99zm0-94.3a44.8 44.8 0 1 0 31.7 13.1A44.8 44.8 0 0 0 50 5.2z"/>
  <path class="plasta" d="M50 99.5A49 49 0 0 1 15 85 49 49 0 0 1 .5 50 49 49 0 0 1 15 15 49 49 0 0 1 50 .5a49.3 49.3 0 1 1 0 99z"/>
  <path d="M50 75.9c-7.7 0-8.6 0-11.7-.2-3.1-.1-4.9-.7-6.1-1.1-1.6-.6-2.9-1.4-4.1-2.7-1.2-1.2-2-2.5-2.7-4.1-.5-1.2-1-2.9-1.1-6.1-.1-3.1-.2-4-.2-11.7s0-8.6.2-11.7c.1-3.1.7-4.9 1.1-6.1.6-1.6 1.4-2.9 2.7-4.1 1.2-1.2 2.5-2 4.1-2.7 1.2-.5 2.9-1 6.1-1.1 3.1-.1 4-.2 11.7-.2 7.7 0 8.7 0 11.7.2 3.1.1 4.9.7 6.1 1.1 1.6.6 2.9 1.4 4.1 2.7 1.2 1.2 2 2.5 2.7 4.1.5 1.2 1 2.9 1.1 6.1.1 3.1.2 4 .2 11.7s0 8.7-.2 11.7c-.1 3.1-.7 4.9-1.1 6.1-.6 1.6-1.4 2.9-2.7 4.1-1.2 1.2-2.5 2-4.1 2.7-1.2.5-2.9 1-6.1 1.1-3.1.2-4 .2-11.7.2zm0-47.1c-7.6 0-8.5 0-11.5.2-2.5.1-3.7.5-4.6.8-1 .4-1.7.8-2.5 1.6s-1.2 1.5-1.6 2.5a14 14 0 0 0-.8 4.6c-.1 3-.2 3.9-.2 11.5s0 8.5.2 11.5c.1 2.5.5 3.7.8 4.6.4 1 .8 1.7 1.6 2.5s1.5 1.2 2.5 1.6c.8.3 2.1.7 4.6.8 3 .1 3.9.2 11.5.2s8.5 0 11.5-.2c2.5-.1 3.7-.5 4.6-.8 1-.4 1.7-.8 2.5-1.6s1.2-1.5 1.6-2.5c.3-.8.7-2.1.8-4.6.1-3 .2-3.9.2-11.5s0-8.5-.2-11.5c-.1-2.5-.5-3.7-.8-4.6-.4-1-.8-1.7-1.6-2.5a6.7 6.7 0 0 0-2.5-1.6 14 14 0 0 0-4.6-.8c-3-.2-3.9-.2-11.5-.2z"/>
  <path d="M50 61.9A12 12 0 1 1 50 38 12 12 0 0 1 50 62zm0-19.1c-4 0-7.2 3.2-7.2 7.2s3.2 7.2 7.2 7.2 7.2-3.2 7.2-7.2-3.2-7.2-7.2-7.2z"/>
 <circle cx="62.9" cy="37.1" r="2.8"/>
</svg>