<svg viewBox="0 0 100 100">
  <path class="border" d="M50 99.5A49 49 0 0 1 15 85 49 49 0 0 1 .5 50 49 49 0 0 1 15 15 49 49 0 0 1 50 .5a49.3 49.3 0 1 1 0 99zm0-94.3a44.8 44.8 0 1 0 31.7 13.1A44.8 44.8 0 0 0 50 5.2z"/>
  <path class="plasta" d="M50 99.5A49 49 0 0 1 15 85 49 49 0 0 1 .5 50 49 49 0 0 1 15 15 49 49 0 0 1 50 .5a49.3 49.3 0 1 1 0 99z"/>
  <path d="M39.1 75.9c-7 0-13.8-2-19.7-5.7a2.5 2.5 0 0 1-1-2.8c.4-1 1.4-1.7 2.5-1.6l2.6.1c3.1 0 6.1-.6 8.8-1.8a14.6 14.6 0 0 1-7.4-8.4c-.2-.7-.1-1.5.3-2.1a14.1 14.1 0 0 1-4.7-10.5v-.3c0-.8.5-1.5 1.2-1.9l.3-.1a14.4 14.4 0 0 1 .6-13.4c.4-.7 1.1-1.1 1.8-1.2.8-.1 1.5.3 2 .9a32 32 0 0 0 20.3 11.3v-.1c0-7.9 6.5-14.3 14.4-14.3 3.5 0 6.9 1.3 9.5 3.5 2-.5 3.9-1.3 5.7-2.3.8-.5 1.9-.4 2.7.2.8.6 1.1 1.6.8 2.6l-.6 1.6a2.3 2.3 0 0 1 1.9 3.6 24.5 24.5 0 0 1-5.6 6v.4A37 37 0 0 1 66.1 64a34 34 0 0 1-27 11.9zm-8.9-6a31.5 31.5 0 0 0 40.9-30.2v-1.4c0-.8.3-1.6 1-2h.1c-.8-.1-1.6-.7-1.8-1.6-.3-.7-.1-1.5.3-2.1-.8.1-1.6-.1-2.1-.7a9.8 9.8 0 0 0-7.1-3A9.7 9.7 0 0 0 52 40.6c.2.7 0 1.5-.5 2.1a2 2 0 0 1-1.9.8 37.5 37.5 0 0 1-24-10.5l-.1 1.6c0 3.2 1.6 6.2 4.3 7.9.9.6 1.3 1.7.9 2.7-.3 1-1.3 1.7-2.3 1.6l-2.4-.3c1.2 3 3.8 5.3 7.1 5.9 1.1.2 1.9 1.1 1.9 2.2s-.7 2.1-1.7 2.4l-2 .4a9.6 9.6 0 0 0 7.3 3.4c1 0 1.9.7 2.2 1.6s0 2-.8 2.6c-3 2.4-6.3 4.1-9.8 4.9z"/>
</svg>