<svg viewBox="0 0 100 100">
  <path class="border" d="M50 99.5A49 49 0 0 1 15 85 49 49 0 0 1 .5 50 49 49 0 0 1 15 15 49 49 0 0 1 50 .5a49.3 49.3 0 1 1 0 99zm0-94.3a44.8 44.8 0 1 0 31.7 13.1A44.8 44.8 0 0 0 50 5.2z"/>
  <path class="plasta" d="M50 99.5A49 49 0 0 1 15 85 49 49 0 0 1 .5 50 49 49 0 0 1 15 15 49 49 0 0 1 50 .5a49.3 49.3 0 1 1 0 99z"/>
  <path d="M47.3 75.9c-4.3 0-7.8-3.5-10.4-10.3l-.1-.2-4.5-16.1c-1.4-4.9-2.5-6.4-3-6.9l-3.1 2c-1 .7-2.4.5-3.2-.5l-2.6-3.3c-.8-1-.6-2.4.3-3.2l8-7.1c4.1-3.5 7.1-5.2 9.5-5.4 7.5-.7 9.8 6.4 10.5 10.7 1.1 6.6 1.8 10.7 2.2 12.3v.1a22 22 0 0 0 2 6.1c.5-.5 1.5-1.6 3-4a20 20 0 0 0 3.4-7.2c.1-1.1 0-1.7-.2-1.8-.1-.1-.5-.3-1.2-.3-1 0-2.1.2-3.2.7-.8.4-1.8.2-2.5-.4-.7-.6-.9-1.6-.7-2.4 2.1-6.8 6.9-14.8 17.9-14.4 3.2.1 5.7 1.1 7.4 3 2.1 2.3 3.1 5.8 2.9 10.3-.3 5.9-4.1 13.4-11.8 23.1-7.8 10.2-14.6 15.2-20.6 15.2zm-6-11.9c1.3 3.3 3.3 7.2 5.9 7.2 3 0 8.5-2.3 17.2-13.5 7-8.8 10.6-15.7 10.8-20.5.2-3.3-.4-5.6-1.6-6.9-.9-1-2.2-1.5-4.1-1.5-5.4-.2-9.2 2.1-11.7 7.2h.3c2 0 3.6.6 4.7 1.8 1.2 1.3 1.6 3.1 1.4 5.4-.2 2.2-1.5 5.3-4.1 9.3-3 4.6-5 6.5-7.2 6.5-3.6 0-5.2-4.9-6.4-10.1-.4-1.7-1.2-5.9-2.3-12.7-1.1-7.1-4.1-6.8-5.4-6.7-.6.1-2.5.6-6.9 4.3l-5.3 4.7c1.5-.9 2-1 2.6-1 4.1 0 6.2 5.6 7.6 10.5l4.5 16zm36.3-26.7z"/>
</svg>