<svg xmlns="http://www.w3.org/2000/svg" enable-background="new 0 0 415 135" viewBox="0 0 415 135"><defs/><defs><filter id="a" filterUnits="userSpaceOnUse"><feColorMatrix values="1 0 0 0 0 0 1 0 0 0 0 0 1 0 0 0 0 0 1 0"/></filter></defs><mask id="b" maskUnits="userSpaceOnUse"><path fill="#c4c4c4" d="M0 0h415v135H0z" filter="url(#a)"/></mask><g fill="#1a4ce0"><path d="M115.2 79.2l-8.3 2.8c-.9.3-1.4 1.3-1.1 2.2.3.9 1.3 1.4 2.2 1.1l8.3-2.8c.9-.3 1.4-1.3 1.1-2.2a1.8 1.8 0 00-2.2-1.1zM148.4 67.9l-16.6 5.6c-.9.3-1.4 1.3-1.1 2.2.3.9 1.3 1.4 2.2 1.1l16.6-5.6c.9-.3 1.4-1.3 1.1-2.2a1.8 1.8 0 00-2.2-1.1zM181.6 56.6L165 62.2c-.9.3-1.4 1.3-1.1 2.2.3.9 1.3 1.4 2.2 1.1l16.6-5.6c.9-.3 1.4-1.3 1.1-2.2a1.8 1.8 0 00-2.2-1.1zM406.6 72.9l-8.2 4.3c-.9.4-1.2 1.5-.8 2.4.4.9 1.5 1.2 2.4.8l8.2-4.3c.9-.4 1.2-1.5.8-2.4-.4-.9-1.5-1.2-2.4-.8zM272.9 25.5l-8.3 2.8c-.9.3-1.4 1.3-1.1 2.2.3.9 1.3 1.4 2.2 1.1l8.3-2.8c.9-.3 1.4-1.3 1.1-2.2a1.8 1.8 0 00-2.2-1.1zM248 34l-16.6 5.6c-.9.3-1.4 1.3-1.1 2.2.3.9 1.3 1.4 2.2 1.1l16.6-5.6c.9-.3 1.4-1.3 1.1-2.2A1.8 1.8 0 00248 34zM214.8 45.3l-16.6 5.6c-.9.3-1.4 1.3-1.1 2.2.3.9 1.3 1.4 2.2 1.1l16.6-5.6c.9-.3 1.4-1.3 1.1-2.2a1.8 1.8 0 00-2.2-1.1zM229.2 113.5l-17.8 2.6c-1 .1-1.6 1-1.5 2 .1 1 1 1.6 2 1.5l17.8-2.6c1-.1 1.6-1 1.5-2-.1-1-1-1.6-2-1.5zM140.8 130.1l17.8-2.6c1-.1 1.6-1 1.5-2-.1-1-1-1.6-2-1.5l-17.8 2.6c-1 .1-1.6 1-1.5 2 .2 1 1 1.6 2 1.5zM264.8 108.3l-17.8 2.6c-1 .1-1.6 1-1.5 2 .1 1 1 1.6 2 1.5l17.8-2.6c1-.1 1.6-1 1.5-2-.1-1-1-1.7-2-1.5zM193.7 118.8l-17.8 2.6c-1 .1-1.6 1-1.5 2 .1 1 1 1.6 2 1.5l17.8-2.6c1-.1 1.6-1 1.5-2-.2-1-1.1-1.7-2-1.5zM114.1 134l8.9-1.3c1-.1 1.6-1 1.5-2-.1-1-1-1.6-2-1.5l-8.9 1.3c-1 .1-1.6 1-1.5 2 .2 1 1.1 1.6 2 1.5zM291.5 104.3l-8.9 1.3c-1 .1-1.6 1-1.5 2 .1 1 1 1.6 2 1.5l8.9-1.3c1-.1 1.6-1 1.5-2-.2-.9-1-1.6-2-1.5z"/></g><g fill="#efefef" opacity=".3"><path d="M298.5 81.7a20 20 0 0023.9 15.5l46.3-9.9a20 20 0 0015.5-23.9l-9.9-46.3c-.8-3.6-2.4-6.8-4.8-9.3A481 481 0 01292 51l6.5 30.7zM350.5 1.6l-46.3 9.9a20 20 0 00-15.5 23.9l2.6 12.1A487.3 487.3 0 00367 5.4a20 20 0 00-16.5-3.8zM97.4 98.5a8.8 8.8 0 00-9.6-7.8l-24.4 2.4a8.8 8.8 0 00-7.8 9.6l1.4 14c13.8-2.6 27.6-5.4 41.3-8.4l-.9-9.8zM58.1 127a8.8 8.8 0 009.6 7.8l24.4-2.4a8.8 8.8 0 007.8-9.6l-1.1-11.1c-13.7 3-27.5 5.8-41.3 8.4l.6 6.9z"/></g><g fill="#efefef" opacity=".3"><path d="M369.7 7.8l2.9-2 8-5.8h-5.9l-4.6 3.3-3 2.1 2.6 2.4z" opacity=".5"/><path d="M166.3 0h-5.9c-5.7 4.1-11.6 8.2-17.6 12.1C102.2 38.3 53.3 59.7 0 77.2v3.7C54 63.2 103.5 41.6 144.6 15c7.5-4.8 14.7-9.8 21.7-15z" opacity=".6"/><path d="M200.7 135h27c49.5-6.8 100-15.5 149-26.7 12.9-2.9 25.7-6.1 38.3-9.4v-3.6c-12.9 3.4-25.9 6.6-39.1 9.6A1777.3 1777.3 0 01200.7 135zM102.2 111a1016 1016 0 00171.9-52.2c4.9-2.1 9.8-4.1 14.6-6.3L292 51l-.7-3.5L288 49l-15.2 6.6c-52 21.7-110.5 38.6-170.9 51.9l-3.4.8.3 3.5 3.4-.8zM57.4 120.1l-.3-3.5-3.4.6c-17.8 3.3-35.7 6.4-53.6 9.1v3.5c18-2.8 36-5.8 53.9-9.2l3.4-.5z" opacity=".5"/></g></svg>