<svg width="415" height="135" fill="none" xmlns="http://www.w3.org/2000/svg"><g clip-path="url(#a)"><path d="m132.924 31.908 99.434 9a3.283 3.283 0 0 1 2.987 3.27v44.073a3.283 3.283 0 0 1-3.565 3.27l-99.434-8.571a3.283 3.283 0 0 1-3.001-3.271v-44.5a3.283 3.283 0 0 1 3.579-3.27ZM131.989 92.417l108.814 9.931a3.283 3.283 0 0 1 2.984 3.27v44.069a3.283 3.283 0 0 1-3.568 3.271l-108.814-9.5a3.283 3.283 0 0 1-2.998-3.27V95.686a3.284 3.284 0 0 1 3.582-3.27ZM259.574 103.69l40.336 3.805a3.284 3.284 0 0 1 2.975 3.269v44.01a3.283 3.283 0 0 1-3.615 3.266l-40.336-4.091a3.284 3.284 0 0 1-2.952-3.267v-43.724a3.283 3.283 0 0 1 3.592-3.268Z" stroke="#1C2327" stroke-width="2.814"/><path d="m372.77 49.274 21.575-8.442" stroke="#1C2327" stroke-width="2.814" stroke-linecap="round"/><path d="M397.536 86.161a1.107 1.107 0 1 0 .184 2.208l-.184-2.208Zm37.614 9.547-1.1-.13 1.1.13Zm-33.77 6.097-1.046-.364 1.046.364Zm-35.117.301a1.107 1.107 0 1 0-.12 2.212l.12-2.212Zm31.457-13.737c6.457-.538 15.926-.03 23.673 1.404 3.881.719 7.252 1.656 9.579 2.77 1.167.558 1.999 1.128 2.506 1.677.491.532.617.971.572 1.358l2.2.26c.142-1.209-.353-2.263-1.144-3.12-.776-.84-1.888-1.556-3.177-2.174-2.586-1.237-6.18-2.217-10.132-2.95-7.918-1.465-17.586-1.989-24.261-1.433l.184 2.208Zm36.33 7.21c-.067.567-.358.982-1.008 1.326-.707.374-1.775.618-3.204.73-2.854.223-6.639-.108-10.649-.419-3.942-.305-8.086-.588-11.453-.197-3.285.382-6.377 1.472-7.402 4.422l2.092.728c.563-1.618 2.368-2.577 5.566-2.95 3.116-.361 7.04-.103 11.026.206 3.919.304 7.922.659 10.992.419 1.533-.12 2.961-.395 4.068-.98 1.163-.616 2.004-1.6 2.172-3.027l-2.2-.259Zm-33.716 5.862c-.507 1.458-1.867 2.428-4.227 2.946-2.357.517-5.449.515-8.925.235-3.46-.279-7.199-.823-10.833-1.344-3.612-.517-7.136-1.012-10.086-1.172l-.12 2.212c2.834.153 6.255.633 9.892 1.153 3.613.518 7.427 1.074 10.969 1.359 3.528.284 6.888.311 9.578-.279 2.687-.59 4.969-1.863 5.844-4.382l-2.092-.728Z" fill="#1A4CE0"/><path d="m366.203 102.274 36.53-18.034a.938.938 0 0 0 .523-.841v-47.33a.938.938 0 0 0-.862-.936l-33.846-2.744" stroke="#1C2327" stroke-width="2.814" stroke-linecap="round"/><path d="M333.031 20.57a1.107 1.107 0 1 0 .184 2.209l-.184-2.208Zm37.614 9.547-1.1-.13 1.1.13Zm-33.77 6.098-1.046-.364 1.046.364Zm-35.117.3a1.108 1.108 0 0 0-.12 2.213l.12-2.212Zm31.457-13.736c6.457-.539 15.926-.03 23.673 1.404 3.881.718 7.252 1.655 9.579 2.77 1.167.558 1.999 1.127 2.506 1.676.491.532.617.972.572 1.359l2.2.259c.142-1.208-.353-2.263-1.145-3.12-.775-.84-1.887-1.556-3.176-2.173-2.587-1.238-6.18-2.218-10.132-2.95-7.918-1.466-17.586-1.99-24.261-1.433l.184 2.207Zm36.33 7.209c-.067.567-.358.983-1.008 1.327-.707.373-1.775.618-3.204.73-2.854.223-6.639-.109-10.649-.42-3.942-.305-8.086-.588-11.453-.196-3.285.382-6.377 1.472-7.402 4.422l2.092.727c.562-1.618 2.368-2.577 5.566-2.949 3.116-.362 7.04-.103 11.026.205 3.919.304 7.922.66 10.992.42 1.533-.12 2.961-.395 4.068-.981 1.163-.616 2.004-1.6 2.172-3.026l-2.2-.26Zm-33.716 5.863c-.507 1.458-1.867 2.427-4.227 2.945-2.358.517-5.449.516-8.925.235-3.46-.279-7.199-.823-10.834-1.343-3.612-.518-7.135-1.013-10.085-1.172l-.12 2.212c2.834.153 6.255.632 9.891 1.153 3.614.517 7.428 1.073 10.97 1.359 3.527.284 6.888.31 9.578-.28 2.686-.59 4.969-1.863 5.844-4.382l-2.092-.727Z" fill="#1A4CE0"/><path d="m132.935-28.578 35.646 3.341a3.283 3.283 0 0 1 2.976 3.27v43.63a3.283 3.283 0 0 1-3.555 3.272l-35.646-2.97a3.283 3.283 0 0 1-3.011-3.272V-25.31a3.283 3.283 0 0 1 3.59-3.268Z" stroke="#1C2327" stroke-width="2.814"/><path d="M130.752 21.602c.782 1.876 1.407 7.88-.469 11.256M130.283 82.106c.782 1.876 1.407 7.41-.469 10.788" stroke="#1C2327" stroke-width="2.814" stroke-linecap="round"/><path d="m254.873 42.7 108.814 9.931a3.283 3.283 0 0 1 2.985 3.27v44.07a3.282 3.282 0 0 1-3.569 3.27l-108.814-9.5a3.283 3.283 0 0 1-2.997-3.27V45.969a3.283 3.283 0 0 1 3.581-3.27Z" stroke="#1C2327" stroke-width="2.814"/><path d="M187.035-22.956c.746-.373 28.889-12.05 39.671-16.337a.896.896 0 0 1 .416-.06l110.08 9.29c.486.04.86.447.86.934v47.33a.938.938 0 0 1-.528.843L301.478 36.61" stroke="#1C2327" stroke-width="2.814" stroke-linecap="round"/><path d="m189.154-23.524 110.69 8.215a3.283 3.283 0 0 1 3.041 3.275v45.799a3.284 3.284 0 0 1-3.615 3.266L188.58 25.79a3.284 3.284 0 0 1-2.952-3.266V-20.25a3.283 3.283 0 0 1 3.526-3.274ZM318.661 108.832l108.814 9.932a3.283 3.283 0 0 1 2.984 3.269v44.07a3.283 3.283 0 0 1-3.568 3.271l-108.814-9.5a3.283 3.283 0 0 1-2.998-3.27v-44.502a3.284 3.284 0 0 1 3.582-3.27Z" stroke="#1C2327" stroke-width="2.814"/><path d="M232.062 10.902c0 6.07 5.535 10.99 12.364 10.99 5.834 0 10.724-3.59 12.025-8.421" stroke="#1A4CE0" stroke-width="1.876" stroke-linecap="round"/><circle cx="239.097" cy="7.531" r="1.407" fill="#1A4CE0"/><circle cx="250.354" cy="8.469" r="1.407" fill="#1A4CE0"/><path d="M296.787 77.504c0 6.07 5.536 10.99 12.365 10.99 5.833 0 10.723-3.59 12.025-8.422" stroke="#1A4CE0" stroke-width="1.876" stroke-linecap="round"/><circle cx="303.823" cy="74.132" r="1.407" fill="#1A4CE0"/><circle cx="315.079" cy="75.071" r="1.407" fill="#1A4CE0"/><path d="M173.903 127.221c0 6.07 5.535 10.99 12.364 10.99 5.834 0 10.724-3.591 12.025-8.422" stroke="#1A4CE0" stroke-width="1.876" stroke-linecap="round"/><circle cx="180.938" cy="123.849" r="1.407" fill="#1A4CE0"/><circle cx="192.195" cy="124.787" r="1.407" fill="#1A4CE0"/><path d="M172.027 66.247c0 6.07 5.535 10.99 12.364 10.99 5.834 0 10.724-3.59 12.025-8.421" stroke="#1A4CE0" stroke-width="1.876" stroke-linecap="round"/><circle cx="179.062" cy="62.876" r="1.407" fill="#1A4CE0"/><circle cx="190.319" cy="63.814" r="1.407" fill="#1A4CE0"/></g></svg>