<svg fill="none" xmlns="http://www.w3.org/2000/svg" viewBox="0 0 415 135"><path d="M415 107a410 410 0 01-40.8-13.8c-20-8-41.7-19-54.9-32.4-19 5.6-40.1 6.2-61 2.5-11.4 28.2-34.1 51.5-61.6 67.8l-7 3.9h-6.5c4-2 8-4.2 12-6.5 26.8-16 49-38.6 60.1-65.8a167.7 167.7 0 01-52.4-20A138 138 0 01157 0h3.6c10.8 16 26 29.7 43.7 40.1 16 9.5 34 16.3 52 19.8A104.6 104.6 0 00261 0h3a110.7 110.7 0 01-4.5 60.4c20.5 3.6 41.3 3 59.8-2.8l1-.2.6.6c12.6 13.3 34.2 24.3 54.5 32.4A406.4 406.4 0 00415 104v3zM404.5 0c-6 12.2-14 23-23.9 29.9.6 4.7 2.8 10.7 6 17.6 3.4 7.1 8 15 12.7 22.6 5.4 8.7 11 17 15.7 23.5v5.2a508 508 0 01-18.3-27.1 240 240 0 01-12.8-23c-3.5-7.3-6-14-6.4-19.4v-.9l.7-.5c9.2-6.3 17-16.3 23-27.9h3.3z" fill="#1A4CE0"/></svg>