<svg width="415" height="135" viewBox="0 0 415 135" fill="none" xmlns="http://www.w3.org/2000/svg">
<g clip-path="url(#clip0_448_3277)">
<mask id="mask0_448_3277" style="mask-type:alpha" maskUnits="userSpaceOnUse" x="271" y="-16" width="183" height="124">
<path d="M454 -2.56327C454 -9.98417 447.984 -16 440.563 -16H284.437C277.016 -16 271 -9.98416 271 -2.56326V77.5577C271 83.1354 274.151 88.2343 279.14 90.7286L313.687 108H411.313L445.86 90.7286C450.849 88.2343 454 83.1354 454 77.5577V-2.56327Z" fill="url(#paint0_linear_448_3277)"/>
</mask>
<g mask="url(#mask0_448_3277)">
<path d="M454.022 13.3743C454.022 5.9879 448.034 0 440.647 0H271.178V77.1591C271.178 82.7179 274.323 87.7983 279.298 90.2775L313.828 107.484H411.372L445.902 90.2775C450.877 87.7983 454.022 82.7179 454.022 77.1591V13.3743Z" fill="url(#paint1_linear_448_3277)"/>
<path d="M454.022 13.3743C454.022 5.9879 448.034 0 440.647 0H271.178V77.1591C271.178 82.7179 274.323 87.7983 279.298 90.2775L313.828 107.484H411.372L445.902 90.2775C450.877 87.7983 454.022 82.7179 454.022 77.1591V13.3743Z" fill="url(#paint2_radial_448_3277)"/>
<path d="M454.022 13.3743C454.022 5.9879 448.034 0 440.647 0H271.178V77.1591C271.178 82.7179 274.323 87.7983 279.298 90.2775L313.828 107.484H411.372L445.902 90.2775C450.877 87.7983 454.022 82.7179 454.022 77.1591V13.3743Z" fill="url(#paint3_radial_448_3277)" fill-opacity="0.6"/>
<path d="M454.022 13.3743C454.022 5.9879 448.034 0 440.647 0H271.178V77.1591C271.178 82.7179 274.323 87.7983 279.298 90.2775L313.828 107.484H411.372L445.902 90.2775C450.877 87.7983 454.022 82.7179 454.022 77.1591V13.3743Z" fill="url(#paint4_radial_448_3277)"/>
<path d="M454.022 13.3743C454.022 5.9879 448.034 0 440.647 0H271.178V77.1591C271.178 82.7179 274.323 87.7983 279.298 90.2775L313.828 107.484H411.372L445.902 90.2775C450.877 87.7983 454.022 82.7179 454.022 77.1591V13.3743Z" fill="url(#paint5_radial_448_3277)" fill-opacity="0.3"/>
</g>
<g filter="url(#filter0_f_448_3277)">
<rect x="271" width="183" height="90" rx="15.237" fill="url(#paint6_radial_448_3277)" fill-opacity="0.5"/>
<rect x="271" width="183" height="90" rx="15.237" fill="url(#paint7_radial_448_3277)" fill-opacity="0.7"/>
<rect x="271" width="183" height="90" rx="15.237" fill="url(#paint8_radial_448_3277)" fill-opacity="0.4"/>
</g>
</g>
<defs>
<filter id="filter0_f_448_3277" x="267.614" y="-3.386" width="189.772" height="96.772" filterUnits="userSpaceOnUse" color-interpolation-filters="sRGB">
<feFlood flood-opacity="0" result="BackgroundImageFix"/>
<feBlend mode="normal" in="SourceGraphic" in2="BackgroundImageFix" result="shape"/>
<feGaussianBlur stdDeviation="1.693" result="effect1_foregroundBlur_448_3277"/>
</filter>
<linearGradient id="paint0_linear_448_3277" x1="362.683" y1="86.2908" x2="362.683" y2="108" gradientUnits="userSpaceOnUse">
<stop stop-color="#2356F6"/>
<stop offset="1" stop-color="#2356F6" stop-opacity="0"/>
</linearGradient>
<linearGradient id="paint1_linear_448_3277" x1="362.783" y1="85.8649" x2="362.783" y2="107.484" gradientUnits="userSpaceOnUse">
<stop stop-color="#2356F6"/>
<stop offset="0.0700708" stop-color="#2356F6"/>
<stop offset="1" stop-color="#2356F6" stop-opacity="0"/>
</linearGradient>
<radialGradient id="paint2_radial_448_3277" cx="0" cy="0" r="1" gradientUnits="userSpaceOnUse" gradientTransform="translate(368.735 112.336) rotate(180) scale(152.672 106.472)">
<stop stop-color="white"/>
<stop offset="1" stop-color="#7E9AFB" stop-opacity="0"/>
</radialGradient>
<radialGradient id="paint3_radial_448_3277" cx="0" cy="0" r="1" gradientUnits="userSpaceOnUse" gradientTransform="translate(437.226 127.55) rotate(-137.366) scale(131.598 122.56)">
<stop stop-color="#75FBFB"/>
<stop offset="1" stop-color="#75FBFB" stop-opacity="0"/>
</radialGradient>
<radialGradient id="paint4_radial_448_3277" cx="0" cy="0" r="1" gradientUnits="userSpaceOnUse" gradientTransform="translate(285.379 93.8796) rotate(-41.3582) scale(177.378 181.779)">
<stop stop-color="#9C1FB9"/>
<stop offset="0.0001" stop-color="#9C1FB9" stop-opacity="0.4"/>
<stop offset="0.822917" stop-color="#9C1FB9" stop-opacity="0"/>
</radialGradient>
<radialGradient id="paint5_radial_448_3277" cx="0" cy="0" r="1" gradientUnits="userSpaceOnUse" gradientTransform="translate(370.588 5.97595) rotate(41.0844) scale(49.4467 55.422)">
<stop stop-color="white" stop-opacity="0.6"/>
<stop offset="1" stop-color="white" stop-opacity="0"/>
</radialGradient>
<radialGradient id="paint6_radial_448_3277" cx="0" cy="0" r="1" gradientUnits="userSpaceOnUse" gradientTransform="translate(368.431 102.187) rotate(-90) scale(76.875 160.742)">
<stop stop-color="white" stop-opacity="0.6"/>
<stop offset="1" stop-color="white" stop-opacity="0"/>
</radialGradient>
<radialGradient id="paint7_radial_448_3277" cx="0" cy="0" r="1" gradientUnits="userSpaceOnUse" gradientTransform="translate(367.583 90) rotate(-90) scale(9.37499 52.5698)">
<stop stop-color="white" stop-opacity="0.6"/>
<stop offset="1" stop-color="white" stop-opacity="0"/>
</radialGradient>
<radialGradient id="paint8_radial_448_3277" cx="0" cy="0" r="1" gradientUnits="userSpaceOnUse" gradientTransform="translate(367.583 88.125) rotate(-89.9999) scale(7.5 51.738)">
<stop stop-color="white" stop-opacity="0.6"/>
<stop offset="1" stop-color="white" stop-opacity="0"/>
</radialGradient>
<clipPath id="clip0_448_3277">
<rect width="415" height="135" fill="white"/>
</clipPath>
</defs>
</svg>
