<svg fill="none" xmlns="http://www.w3.org/2000/svg" viewBox="0 0 415 135"><path d="M366.3 135H324c10.6-10 21.4-20 32-28.6 17.6-13.9 37.5-26.1 59-27.7v28.7c-12 1.6-25.4 9-41.1 21.4l-7.6 6.2zM355.4 0H415v6.3l-3.1-.2c-11.6 0-24.6 5.9-40 17.3-14 10.3-28 23.7-43 38l-4.4 4.1a370.7 370.7 0 01-51 43c-17.8 11.3-38 19.5-59.7 16a92.6 92.6 0 01-44-23A287 287 0 01130.6 58 977.6 977.6 0 0190.5 0h34.2a786 786 0 0028.6 40.7c12.2 16 23.9 29.3 35.2 39a65 65 0 0030 16.6c11.5 1.9 24.3-2.1 39.4-11.9a345 345 0 0047-39.6l4.5-4.3c14.6-14 30-28.7 45.5-40l.5-.5z" fill="#1A4CE0"/><path d="M161.5 0h114.7c-3.5 2.6-7 5.1-10.5 7.4-17.8 11.5-38 19.6-59.7 16.1A92.3 92.3 0 01161.5 0zM66 0C80 19.7 94 41.3 107.5 62.5l1.2 1.8c16 25 31.9 49.6 47.4 70.7h-35a1914.8 1914.8 0 01-36.4-55.2l-.5-.7A1242.8 1242.8 0 0030.6 0H66z" fill="#1A4CE0"/></svg>