<?xml version="1.0" encoding="utf-8"?>
<!-- Generator: Adobe Illustrator 23.0.3, SVG Export Plug-In . SVG Version: 6.00 Build 0)  -->
<svg version="1.1" id="Layer_1" xmlns="http://www.w3.org/2000/svg" xmlns:xlink="http://www.w3.org/1999/xlink" x="0px" y="0px"
	 viewBox="0 0 89 58.2" style="enable-background:new 0 0 89 58.2;" xml:space="preserve">
<g>
	<path style="fill:#969696;" d="M43.9,12.1c-2.3,0-4.3,1.2-5.4,3c0,0-12.6,21.5-12.6,21.5c-0.6,0.9-0.9,2-0.9,3.2
		c0,3.4,2.8,6.2,6.3,6.2c2.3,0,4.3-1.2,5.4-3c0,0,12.6-21.5,12.6-21.5c0.6-0.9,0.9-2,0.9-3.2C50.1,14.9,47.3,12.1,43.9,12.1z"/>
	<path style="fill:#AFAFAF;" d="M57.7,22.9c-2.3,0-4.3,1.2-5.4,3c0,0-6.3,10.7-6.3,10.7c-0.6,0.9-0.9,2-0.9,3.2
		c0,3.4,2.8,6.2,6.3,6.2c2.3,0,4.3-1.2,5.4-3c0,0,6.3-10.7,6.3-10.7c0.6-0.9,0.9-2,0.9-3.2C64,25.7,61.2,22.9,57.7,22.9z"/>
	<path style="fill:#C7C7C7;" d="M31.3,46.1c3.5,0,6.3-2.8,6.3-6.2c0-3.4-2.8-6.2-6.3-6.2S25,36.4,25,39.9
		C25,43.3,27.8,46.1,31.3,46.1z"/>
</g>
</svg>
