<?xml version="1.0" encoding="utf-8"?>
<!-- Generator: Adobe Illustrator 23.0.3, SVG Export Plug-In . SVG Version: 6.00 Build 0)  -->
<svg version="1.1" id="Layer_1" xmlns="http://www.w3.org/2000/svg" xmlns:xlink="http://www.w3.org/1999/xlink" x="0px" y="0px"
	 viewBox="0 0 89 58.2" style="enable-background:new 0 0 89 58.2;" xml:space="preserve">
<g>
	<path style="fill:#969696;" d="M30.8,23.9c0,0.8,0.1,1.4,0.2,1.9c0.2,0.5,0.4,1,0.7,1.5c0.1,0.2,0.1,0.3,0.1,0.5
		c0,0.2-0.1,0.4-0.4,0.6l-1.3,0.9c-0.2,0.1-0.4,0.2-0.5,0.2c-0.2,0-0.4-0.1-0.6-0.3c-0.3-0.3-0.5-0.7-0.8-1
		c-0.2-0.4-0.4-0.8-0.6-1.2c-1.6,1.9-3.7,2.9-6.2,2.9c-1.8,0-3.2-0.5-4.2-1.5c-1-1-1.6-2.4-1.6-4.1c0-1.8,0.6-3.3,1.9-4.4
		c1.3-1.1,3-1.6,5.1-1.6c0.7,0,1.4,0.1,2.2,0.2c0.8,0.1,1.6,0.3,2.4,0.5v-1.5c0-1.6-0.3-2.7-1-3.4c-0.7-0.7-1.8-1-3.4-1
		c-0.7,0-1.5,0.1-2.3,0.3c-0.8,0.2-1.5,0.4-2.3,0.7c-0.3,0.1-0.6,0.2-0.7,0.3s-0.3,0.1-0.3,0.1c-0.3,0-0.4-0.2-0.4-0.7v-1
		c0-0.3,0-0.6,0.1-0.7c0.1-0.1,0.3-0.3,0.6-0.4c0.7-0.4,1.6-0.7,2.6-1c1-0.3,2.1-0.4,3.3-0.4c2.5,0,4.3,0.6,5.5,1.7
		c1.2,1.1,1.7,2.9,1.7,5.2L30.8,23.9L30.8,23.9z M22.2,27.1c0.7,0,1.4-0.1,2.2-0.4c0.8-0.3,1.4-0.7,2-1.4c0.3-0.4,0.6-0.8,0.7-1.4
		s0.2-1.1,0.2-1.8v-0.9c-0.6-0.1-1.3-0.3-1.9-0.4c-0.7-0.1-1.3-0.1-2-0.1c-1.4,0-2.4,0.3-3.1,0.8c-0.7,0.6-1,1.4-1,2.4
		c0,1,0.3,1.7,0.8,2.2C20.6,26.9,21.3,27.1,22.2,27.1z M39.1,29.4c-0.4,0-0.6-0.1-0.8-0.2c-0.2-0.1-0.3-0.4-0.4-0.8L32.9,12
		c-0.1-0.4-0.2-0.7-0.2-0.8c0-0.3,0.2-0.5,0.5-0.5h2.1c0.4,0,0.7,0.1,0.8,0.2c0.2,0.1,0.3,0.4,0.4,0.8l3.5,14l3.3-14
		c0.1-0.4,0.2-0.7,0.4-0.8c0.2-0.1,0.5-0.2,0.8-0.2h1.7c0.4,0,0.7,0.1,0.8,0.2c0.2,0.1,0.3,0.4,0.4,0.8l3.3,14.2l3.6-14.2
		c0.1-0.4,0.3-0.7,0.4-0.8c0.2-0.1,0.4-0.2,0.8-0.2h1.9c0.3,0,0.5,0.2,0.5,0.5c0,0.1,0,0.2,0,0.3c0,0.1-0.1,0.3-0.1,0.5l-5,16.3
		c-0.1,0.4-0.3,0.7-0.4,0.8c-0.2,0.1-0.4,0.2-0.8,0.2h-1.8c-0.4,0-0.7-0.1-0.8-0.2c-0.2-0.1-0.3-0.4-0.4-0.8l-3.2-13.6l-3.2,13.6
		c-0.1,0.4-0.2,0.7-0.4,0.8c-0.2,0.1-0.5,0.2-0.8,0.2H39.1z M66,30c-1.1,0-2.2-0.1-3.2-0.4c-1-0.3-1.9-0.5-2.4-0.8
		c-0.3-0.2-0.6-0.4-0.6-0.6c-0.1-0.2-0.1-0.4-0.1-0.6v-1.1c0-0.4,0.2-0.7,0.5-0.7c0.1,0,0.3,0,0.4,0.1c0.1,0,0.3,0.1,0.5,0.2
		c0.7,0.3,1.5,0.6,2.3,0.7c0.8,0.2,1.7,0.3,2.5,0.3c1.3,0,2.3-0.2,3.1-0.7c0.7-0.5,1.1-1.1,1.1-2c0-0.6-0.2-1.1-0.6-1.5
		c-0.4-0.4-1.1-0.8-2.1-1.1l-3-1c-1.5-0.5-2.7-1.2-3.4-2.2c-0.7-0.9-1-2-1-3.1c0-0.9,0.2-1.7,0.6-2.3c0.4-0.7,0.9-1.3,1.5-1.7
		c0.6-0.5,1.3-0.8,2.2-1.1c0.8-0.3,1.7-0.4,2.6-0.4c0.5,0,0.9,0,1.4,0.1c0.5,0.1,0.9,0.1,1.4,0.2c0.4,0.1,0.8,0.2,1.2,0.3
		s0.7,0.3,0.9,0.4c0.3,0.2,0.5,0.3,0.6,0.5c0.1,0.2,0.2,0.4,0.2,0.7v1c0,0.4-0.2,0.7-0.5,0.7c-0.2,0-0.4-0.1-0.8-0.3
		c-1.2-0.5-2.5-0.8-4-0.8c-1.2,0-2.1,0.2-2.8,0.6c-0.6,0.4-1,1-1,1.9c0,0.6,0.2,1.1,0.6,1.5s1.2,0.8,2.3,1.2l3,1
		c1.5,0.5,2.6,1.2,3.2,2c0.6,0.9,1,1.9,1,3c0,0.9-0.2,1.7-0.5,2.5c-0.4,0.7-0.9,1.4-1.5,1.9c-0.6,0.5-1.4,0.9-2.3,1.2
		C68,29.8,67.1,30,66,30z"/>
	<path style="fill:#C8C8C8;" d="M70,40.2c-6.9,5.1-16.9,7.9-25.5,7.9c-12.1,0-22.9-4.5-31.2-12c-0.6-0.6-0.1-1.4,0.7-0.9
		c8.9,5.2,19.8,8.3,31.2,8.3c7.6,0,16-1.6,23.8-4.9C70.1,38.1,71.1,39.4,70,40.2z M72.8,36.9c-0.9-1.1-5.8-0.5-8.1-0.3
		c-0.7,0.1-0.8-0.5-0.2-1c3.9-2.8,10.4-2,11.2-1.1c0.8,1-0.2,7.5-3.9,10.6c-0.6,0.5-1.1,0.2-0.9-0.4C71.8,42.8,73.7,38.1,72.8,36.9z
		"/>
</g>
</svg>
