<?xml version="1.0" encoding="utf-8"?>
<!-- Generator: Adobe Illustrator 23.0.3, SVG Export Plug-In . SVG Version: 6.00 Build 0)  -->
<svg version="1.1" id="Layer_1" xmlns="http://www.w3.org/2000/svg" xmlns:xlink="http://www.w3.org/1999/xlink" x="0px" y="0px"
	 viewBox="0 0 151.5 67" style="enable-background:new 0 0 151.5 67;" xml:space="preserve">
<g>
	<path style="fill-rule:evenodd;clip-rule:evenodd;fill:#C8C8C8;" d="M105.8,41.3l-3.8-6.7c1.7-0.8,2.8-2.5,2.8-4.4
		c0-2.7-2.2-4.9-4.9-4.9h-8.1v15.9h3.6v-6.2h2.9l3.5,6.2H105.8z M95.3,32v-3.6h3.9c1.2,0.1,1.9,0.8,1.9,1.8c0,1-0.8,1.8-2,1.8
		L95.3,32z M77,41.3V25.3h11.9v3.1h-8.2v3.2h7.2v3.1h-7.2v3.4h8.6v3.1H77z M60,41.3l-3.8-6.7c1.7-0.8,2.8-2.5,2.8-4.4
		c0-2.7-2.2-4.9-4.9-4.9h-8.1v15.9h3.6v-6.2h2.9l3.5,6.2H60z M49.4,32v-3.6h3.9c1.2,0.1,1.9,0.8,1.9,1.8c0,1-0.8,1.8-2,1.8L49.4,32z
		 M36.2,41.7c4.4,0,7-2.5,7-6.7v-9.6h-3.7v9.4c0,2.2-1.2,3.6-3.2,3.6S33,37,33,34.7v-9.4h-3.7v9.6C29.2,39.2,31.8,41.7,36.2,41.7z
		 M24.3,32.5c2.1,0.7,3.2,2.5,3.2,4.3c0,2.5-2,4.5-4.5,4.5h-8.8V25.3h8.1c2.1,0,3.8,1.7,3.8,3.8C26.2,30.5,25.5,31.8,24.3,32.5z
		 M17.9,38.3H22c1.3,0,1.9-0.9,1.9-1.9c0-0.8-0.6-1.8-1.9-1.8h-4.1V38.3z M20.9,31.6c0.9,0,1.7-0.7,1.7-1.7c0-0.9-0.8-1.7-1.7-1.7
		h-3v3.3H20.9z"/>
	<path style="fill-rule:evenodd;clip-rule:evenodd;fill:#C8C8C8;" d="M71.8,32.5c2.1,0.7,3.2,2.5,3.2,4.3c0,2.5-2,4.5-4.5,4.5h-8.8
		V25.3h8.1c2.1,0,3.8,1.7,3.8,3.8C73.6,30.5,72.9,31.8,71.8,32.5z M65.3,38.3h4.1c1.3,0,1.9-0.9,1.9-1.9c0-0.8-0.6-1.8-1.9-1.8h-4.1
		V38.3z M68.3,31.6c0.9,0,1.7-0.7,1.7-1.7c0-0.9-0.8-1.7-1.7-1.7h-3v3.3H68.3z"/>
	<path style="fill-rule:evenodd;clip-rule:evenodd;fill:#C8C8C8;" d="M121.7,41.3l-3.8-6.7c1.7-0.8,2.8-2.5,2.8-4.4
		c0-2.7-2.2-4.9-4.9-4.9h-8.1v15.9h3.6v-6.2h2.9l3.5,6.2H121.7z M111.2,32v-3.6h3.9c1.2,0.1,1.9,0.8,1.9,1.8c0,1-0.8,1.8-2,1.8
		L111.2,32z M126.9,41.3v-6.5l-6.3-9.4h4.7l3.7,5.5l3.7-5.5h4.7l-6.3,9.4v6.5H126.9z"/>
</g>
</svg>
