<svg xmlns="http://www.w3.org/2000/svg" viewBox="0 0 151.5 67" role="img" aria-label="[title]">
  <title>Burberry Group PLC</title>
  <path fill="#c8c8c8" d="M60 4.9v-.1h-.1zm45.8 0v-.1h-.1zm15.9 0v-.1h-.1zM39.5 34.7c0 2.3-1.2 3.6-3.2 3.6-2.1 0-3.2-1.3-3.2-3.6v-9.4h-3.7V35c0 4.2 2.6 6.7 7 6.7s7-2.5 7-6.7v-9.6h-3.7v9.3zM59 30.2a5 5 0 00-4.9-4.9h-8.2v16h3.6v-6.2h2.9l3.5 6.2h4l-3.8-6.7a4.8 4.8 0 002.9-4.4zM53.3 32h-3.8v-3.6h3.9c1.2.1 2 .8 2 1.8-.1 1-.9 1.8-2.1 1.8zm-28.9.4a3.9 3.9 0 001.8-3.3 4 4 0 00-3.8-3.9h-8.1v16h8.8c2.5 0 4.5-2 4.5-4.5 0-1.7-1.1-3.5-3.2-4.3zm-6.5-4.1h3c.9 0 1.7.8 1.7 1.7 0 .9-.7 1.7-1.7 1.7h-3v-3.4zm4.1 10h-4.1v-3.7H22a2 2 0 012 1.8c-.1 1-.7 1.9-2 1.9zm58.8-3.6H88v-3.1h-7.2v-3.2H89v-3.1H77.1v16h12.3v-3.2h-8.6zm24.1-4.5a5 5 0 00-4.9-4.9h-8.2v16h3.6v-6.2h2.9l3.5 6.2h4l-3.8-6.7a4.6 4.6 0 002.9-4.4zM99.3 32h-3.8v-3.6h3.9c1.2.1 2 .8 2 1.8-.1 1-.9 1.8-2.1 1.8zm-27.4.4a3.9 3.9 0 001.8-3.3 4 4 0 00-3.8-3.9h-8.1v16h8.8c2.5 0 4.5-2 4.5-4.5 0-1.7-1.1-3.5-3.2-4.3zm-6.5-4.1h3c.9 0 1.7.8 1.7 1.7 0 .9-.7 1.7-1.7 1.7h-3v-3.4zm4.1 10h-4.1v-3.7h4.1a2 2 0 012 1.8c-.1 1-.8 1.9-2 1.9zm63.2-13l-3.6 5.5-3.7-5.5h-4.6l6.3 9.5v6.5h3.9v-6.5l6.4-9.5zm-11.9 4.9a5 5 0 00-4.9-4.9h-8.2v16h3.6v-6.2h2.9l3.5 6.2h4l-3.8-6.7a4.8 4.8 0 002.9-4.4zm-5.7 1.8h-3.8v-3.6h3.9c1.2.1 2 .8 2 1.8-.1 1-.9 1.8-2.1 1.8z"/>
</svg>