<?xml version="1.0" encoding="utf-8"?>
<!-- Generator: Adobe Illustrator 23.0.3, SVG Export Plug-In . SVG Version: 6.00 Build 0)  -->
<svg version="1.1" id="Layer_1" xmlns="http://www.w3.org/2000/svg" xmlns:xlink="http://www.w3.org/1999/xlink" x="0px" y="0px"
	 viewBox="0 0 151.5 67" style="enable-background:new 0 0 151.5 67;" xml:space="preserve">
<g>
	<path style="fill-rule:evenodd;clip-rule:evenodd;fill:#C8C8C8;" d="M71.1,27.6H60.9c0,0-3.5,0-3.5,3.3c0,0.1,0,6.1,0,6.1
		s-0.1,3.4,3.5,3.4h10.2V37H62c0,0-1,0.1-1-1.2c0-1.2,0-4,0-4s-0.1-1,1.1-1c1.2,0,9.1,0,9.1,0L71.1,27.6L71.1,27.6z"/>
	<path style="fill-rule:evenodd;clip-rule:evenodd;fill:#C8C8C8;" d="M86.4,27.6H75.5c0,0-3.5,0-3.5,3.3c0,0.1,0,6.1,0,6.1
		s-0.2,3.4,3.5,3.4h10.9V37h-9.9c0,0-1,0.1-1-1.2c0-1.2,0-4,0-4s-0.1-1,1.1-1s9.8,0,9.8,0V27.6z"/>
	<path style="fill-rule:evenodd;clip-rule:evenodd;fill:#C8C8C8;" d="M77.8,35.5h8.5v-2.8h-8.5V35.5z"/>
	<path style="fill-rule:evenodd;clip-rule:evenodd;fill:#C8C8C8;" d="M119.6,27.6h-10.9c0,0-3.5,0-3.5,3.3c0,0.1,0,6.1,0,6.1
		s-0.2,3.4,3.5,3.4h10.9V37h-9.8c0,0-1.1,0.1-1.1-1.2c0-1.2,0-4,0-4s0-1,1.1-1c1.2,0,9.8,0,9.8,0V27.6z"/>
	<path style="fill-rule:evenodd;clip-rule:evenodd;fill:#C8C8C8;" d="M111,35.5h8.5v-2.8H111V35.5z"/>
	<path style="fill-rule:evenodd;clip-rule:evenodd;fill:#C8C8C8;" d="M100.6,27.6c-3.6,0-13.1,0-13.1,0v12.9H91V31h3.1v9.5h3.4V31
		h3.1v9.5h3.4v-9.6C104,30.9,104.2,27.6,100.6,27.6z"/>
	<path style="fill-rule:evenodd;clip-rule:evenodd;fill:#C8C8C8;" d="M137.1,27.6h-3.6v1.8l-4.7,2.6l-4.6-2.6v-1.8h-3.7v3.3l4.9,3.1
		l-4.9,3.1v3.3h3.7v-1.8l4.6-2.6l4.7,2.6v1.8h3.6v-3.3l-4.9-3.1l4.9-3.1V27.6z"/>
	<path style="fill-rule:evenodd;clip-rule:evenodd;fill:#C8C8C8;" d="M43.8,40.4L70.9,8.5H59.1L32,40.4H43.8z"/>
	<path style="fill-rule:evenodd;clip-rule:evenodd;fill:#F4F4F4;" d="M26.2,40.4L53.3,8.5H41.5L14.4,40.4H26.2z"/>
</g>
</svg>
