<svg xmlns="http://www.w3.org/2000/svg" viewBox="0 0 151.5 67" role="img" aria-label="[title]">
  <title>CEMEX, S.A.B. de C.V.</title>
  <path fill="#aaa" fill-rule="evenodd" d="M57.1 27.6H46.9s-3.5 0-3.5 3.3V37s-.1 3.4 3.5 3.4h10.2V37H48s-1 .1-1-1.2v-4s-.1-1 1.1-1h9.1l-.1-3.2zM72.4 27.6H61.5s-3.5 0-3.5 3.3V37s-.2 3.4 3.5 3.4h10.9V37h-9.9s-1 .1-1-1.2v-4s-.1-1 1.1-1h9.8v-3.2z" clip-rule="evenodd"/>
  <path fill="#aaa" fill-rule="evenodd" d="M63.8 35.5h8.5v-2.8h-8.5v2.8zM105.6 27.6H94.7s-3.5 0-3.5 3.3V37s-.2 3.4 3.5 3.4h10.9V37h-9.8s-1.1.1-1.1-1.2v-4s0-1 1.1-1h9.8v-3.2z" clip-rule="evenodd"/>
  <path fill="#aaa" fill-rule="evenodd" d="M97 35.5h8.5v-2.8H97v2.8zM86.6 27.6H73.5v12.9H77V31h3.1v9.5h3.4V31h3.1v9.5H90v-9.6s.2-3.3-3.4-3.3zM123.1 27.6h-3.6v1.8l-4.7 2.6-4.6-2.6v-1.8h-3.7v3.3l4.9 3.1-4.9 3.1v3.3h3.7v-1.8l4.6-2.6 4.7 2.6v1.8h3.6v-3.3l-4.9-3.1 4.9-3.1v-3.3zM29.8 40.4L56.9 8.5H45.1L18 40.4h11.8z" clip-rule="evenodd"/>
  <path fill="#c8c8c8" fill-rule="evenodd" d="M12.2 40.4L39.3 8.5H27.5L.4 40.4h11.8z" clip-rule="evenodd"/>
</svg>