<?xml version="1.0" encoding="utf-8"?>
<!-- Generator: Adobe Illustrator 23.0.3, SVG Export Plug-In . SVG Version: 6.00 Build 0)  -->
<svg version="1.1" id="Layer_1" xmlns="http://www.w3.org/2000/svg" xmlns:xlink="http://www.w3.org/1999/xlink" x="0px" y="0px"
	 viewBox="0 0 89 58.2" style="enable-background:new 0 0 89 58.2;" xml:space="preserve">
<g>
	<path style="fill:#C7C7C7;" d="M39.1,36.6c-2-1.9-3.2-4.5-3.2-7.5s1.2-5.6,3.1-7.5c1.7-1.7,1.7-4.3,0-5.9c-1.7-1.7-4.3-1.7-6,0
		c-3.4,3.4-5.5,8.2-5.5,13.4s2.2,10,5.6,13.4c1.7,1.7,4.3,1.7,6,0C40.7,40.9,40.7,38.2,39.1,36.6z"/>
	<path style="fill:#AFAFAF;" d="M39.1,21.6c1.9-2,4.6-3.2,7.6-3.2c3,0,5.6,1.2,7.6,3.1c1.7,1.7,4.3,1.7,6,0c1.7-1.7,1.7-4.3,0-5.9
		c-3.5-3.3-8.3-5.5-13.5-5.5s-10.1,2.1-13.6,5.6c-1.7,1.7-1.7,4.3,0,5.9C34.8,23.2,37.4,23.2,39.1,21.6z"/>
	<path style="fill:#828282;" d="M54.2,36.6c-1.9,2-4.6,3.2-7.6,3.2c-3,0-5.6-1.2-7.6-3.1c-1.7-1.7-4.3-1.7-6,0
		c-1.7,1.7-1.7,4.3,0,5.9c3.5,3.3,8.3,5.5,13.5,5.5c5.3,0,10.1-2.1,13.5-5.6c1.7-1.7,1.7-4.3,0-5.9C58.6,35,55.9,35,54.2,36.6z"/>
	<path style="fill:#060809;fill-opacity:0.15;" d="M36.1,22.8c2.3,0,4.2-1.9,4.2-4.2c0-2.3-1.9-4.2-4.2-4.2c-2.3,0-4.2,1.9-4.2,4.2
		C31.9,20.9,33.8,22.8,36.1,22.8z"/>
	<path style="opacity:0.15;fill:#060809;enable-background:new    ;" d="M36.1,43.7c2.3,0,4.2-1.9,4.2-4.2c0-2.3-1.9-4.2-4.2-4.2
		c-2.3,0-4.2,1.9-4.2,4.2C31.9,41.8,33.8,43.7,36.1,43.7z"/>
</g>
</svg>
