<?xml version="1.0" encoding="utf-8"?>
<!-- Generator: Adobe Illustrator 23.0.3, SVG Export Plug-In . SVG Version: 6.00 Build 0)  -->
<svg version="1.1" id="Layer_1" xmlns="http://www.w3.org/2000/svg" xmlns:xlink="http://www.w3.org/1999/xlink" x="0px" y="0px"
	 viewBox="0 0 89 58.2" style="enable-background:new 0 0 89 58.2;" xml:space="preserve">
<style type="text/css">
	.st0{fill-rule:evenodd;clip-rule:evenodd;fill:#C8C8C8;}
</style>
<path class="st0" d="M33.8,32.7l-0.4,1.7c-0.1,0.4-0.1,0.7-0.3,1l0.1,0.3l4.6,1.7l3.7,1.4h0.4l9.6-3.1c0.1,0,0.3-0.1,0.3-0.3l1-5
	c0.1-0.5,0.3-1,0.3-1.6L53,28.5H28.3l0.1-0.8c0.5-1.6,0.9-3.3,1.2-5l0.3-0.1h24.2c0.3,0,0.3,0,0.4-0.3l0.7-3.5v-0.1H30.4l0.1-0.8
	l1-5c0.1-0.4,0.1-0.4,0.4-0.4h30.7l-0.1,0.8L61.2,20L60,26l-1.3,6.7l-1.3,6.4v0.3c0,0.5-0.3,0.7-0.7,0.8L41,45.5h-0.4
	c-4.6-1.7-9.3-3.5-13.9-5.4c-0.4-0.1-0.4-0.3-0.4-0.4l1.3-6.8l0.3-0.1h5.6C33.5,32.8,33.8,32.7,33.8,32.7z"/>
</svg>
