<svg xmlns="http://www.w3.org/2000/svg" viewBox="0 0 89 58.2">
  <path fill="none" stroke="#c8c8c8" stroke-linecap="round" stroke-miterlimit="10" d="M38.3 16.8c-5.5-1-10 0-11.8 3-1.3 2.2-.8 5.2 1 8.3M30.4 32.1c2.3 2.5 5.3 4.9 8.8 7 8.5 4.9 17.3 6 21.4 3.2M62.6 43.2c1.3 0 2.3-1 2.3-2.3s-1-2.3-2.3-2.3-2.3 1-2.3 2.3 1 2.3 2.3 2.3zM59.2 31.4c3.6-4.2 5-8.6 3.3-11.6-1.3-2.2-4-3.3-7.5-3.3"/>
  <path fill="none" stroke="#c8c8c8" stroke-linecap="round" stroke-miterlimit="10" d="M49.9 17c-3.3.7-7 2.1-10.6 4.2-8.7 5-14.2 12.3-13.5 17.4M26.4 43.2c1.3 0 2.3-1 2.3-2.3s-1-2.3-2.3-2.3c-1.3 0-2.3 1-2.3 2.3s1.1 2.3 2.3 2.3zM36.1 42.2c1.9 5.2 5 8.7 8.4 8.7 2.5 0 4.8-1.8 6.6-4.8"/>
  <path fill="none" stroke="#c8c8c8" stroke-linecap="round" stroke-miterlimit="10" d="M53.3 41.1a37 37 0 001.6-11c0-9.9-3.5-18.1-8.1-20.2M44.5 11.9c1.3 0 2.3-1 2.3-2.3 0-1.3-1-2.3-2.3-2.3-1.3 0-2.3 1-2.3 2.3 0 1.3 1 2.3 2.3 2.3z"/>
  <path fill="#c8c8c8" d="M44.5 32.4c1.1 0 2.1-.9 2.1-2.1s-.9-2.1-2.1-2.1c-1.1 0-2.1.9-2.1 2.1s1 2.1 2.1 2.1z"/>
</svg>