<?xml version="1.0" encoding="utf-8"?>
<!-- Generator: Adobe Illustrator 23.0.3, SVG Export Plug-In . SVG Version: 6.00 Build 0)  -->
<svg version="1.1" id="Layer_1" xmlns="http://www.w3.org/2000/svg" xmlns:xlink="http://www.w3.org/1999/xlink" x="0px" y="0px"
	 viewBox="0 0 89 58.2" style="enable-background:new 0 0 89 58.2;" xml:space="preserve">
<g>
	<path style="fill:#C8C8C8;" d="M35.5,26.7l6.9,6.2c0.1,0,0.1,0,0.2,0l3.2-2.5c0.1,0,0.1,0,0.2,0l7.3,6.2c0.1,0.1,0,0.3-0.1,0.3
		H35.4c-0.1,0-0.1-0.1-0.1-0.1v-9.8C35.3,26.6,35.4,26.6,35.5,26.7z"/>
	<path style="fill:#C8C8C8;" d="M47.8,24h-7.1c-0.1,0-0.1-0.1-0.1-0.1v-2.7c0-0.1,0.1-0.1,0.1-0.1h7.1c0.1,0,0.1,0.1,0.1,0.1v2.7
		C47.9,24,47.8,24,47.8,24z"/>
	<path style="fill:#C8C8C8;" d="M30.7,12.1h27.6c1.8,0,3.2,1.4,3.2,3.2v27.7c0,1.7-1.4,3.2-3.2,3.2H30.7c-1.8,0-3.2-1.4-3.2-3.2
		V15.3C27.5,13.5,28.9,12.1,30.7,12.1z M33,38.3c0,0.6,0.4,1,1,1h21.2c0.6,0,1-0.4,1-1V25c0-0.6-0.4-1-1-1h-5v-4.2
		c0-0.5-0.4-0.9-0.9-0.9h-9.9c-0.5,0-0.9,0.4-0.9,0.9V24H34c-0.6,0-1,0.4-1,1V38.3z"/>
</g>
</svg>
