<?xml version="1.0" encoding="utf-8"?>
<!-- Generator: Adobe Illustrator 23.0.3, SVG Export Plug-In . SVG Version: 6.00 Build 0)  -->
<svg version="1.1" id="Layer_1" xmlns="http://www.w3.org/2000/svg" xmlns:xlink="http://www.w3.org/1999/xlink" x="0px" y="0px"
	 viewBox="0 0 151.5 67" style="enable-background:new 0 0 151.5 67;" xml:space="preserve">
<g>
	<defs>
		<rect id="SVGID_1_" x="44.8" width="62" height="67"/>
	</defs>
	<clipPath id="SVGID_2_">
		<use xlink:href="#SVGID_1_"  style="overflow:visible;"/>
	</clipPath>
	<g style="clip-path:url(#SVGID_2_);">
		<path style="fill-rule:evenodd;clip-rule:evenodd;fill:#C8C8C8;" d="M106.7,48.4c0-0.1-0.1-0.1-0.1-0.2c0-0.1-3.2-6.4-6.4-17.8
			l-0.2-0.5c0.6-1,0.8-1.7,0.9-2.1c0.1-0.3,0.1-0.6,0.1-0.9c0-1.2-0.4-2.1-0.8-2.6c-0.4-0.4-0.8-0.7-1.3-0.9l-0.3-1.5
			c-1.4-11.5-1.9-16-2-16.7c-0.1-0.7-0.1-1.8-0.2-2.5c-0.1-0.5-0.2-1.2-0.2-1.2c-0.1-0.5-0.4-0.9-0.9-1.1c-0.4-0.2-1-0.3-1.4-0.1
			c-0.1,0-0.1,0-0.2,0.1c-0.1,0-7.8,4.2-19.9,8.6c-5.4,2.1-8.7,3.5-15.5,4.9c-5.7,1.1-9.7,1.8-9.8,1.8l-2.2,0.4c0,0-0.2,0.1-0.3,0.1
			c-0.6,0.2-1,0.7-1.2,1.2c-0.1,0.2-0.1,0.4-0.1,0.6c0,0.3,0.1,0.6,0.3,0.9c0,0,0.1,0.1,0.1,0.1c0,0,1.8,2.3,4.9,11
			c-0.8,0.6-1.2,1.4-1.2,2.3c0,0.2,0,0.5,0.1,0.7c0.4,1.6,2.2,2,3.1,2c0,0,0.1,0,0.1,0c0.1,0,0.2,0,0.3,0l0.5,1
			c0.3,1.6,0.5,3.2,0.8,4.8c1.6,10.6,2,15.9,2,18.5c0,1.7-0.3,5.9-0.3,6c0,0.2,0,0.4,0,0.6c0.1,0.5,0.5,0.9,0.9,1.1
			c0.5,0.2,1,0.3,1.5,0.1c0.1,0,0.1-0.1,0.2-0.1c0.1,0,7.5-4.2,20.6-9.2c0.1,0,7.9-3.3,11.2-4.2c7.6-2,11-2,12.5-2.2
			c0.3,0,1.9-0.1,2.3-0.2c0.4-0.1,0.8-0.2,0.8-0.2c0.1,0,0.1,0,0.2-0.1C106.5,50.4,107,49.4,106.7,48.4z M74.8,10.9
			c12-3.7,19.7-7.3,19.7-7.3c0.3-0.1,0.6,0.1,0.6,0.3c0,0,0.1,0.3,0.2,1.1c-2.4,0.9-9.5,3.4-19.2,5.7c-1.1,0.3-2.1,0.5-3.2,0.7
			C73.5,11.2,74.1,11.1,74.8,10.9z M78,54.7c-13.1,4.2-20.4,7.8-20.4,7.8c-0.3,0.1-0.6-0.1-0.6-0.3c0,0,0.1-0.3,0-1.1
			c2.6-1,9.4-3.5,19.7-6.1c0.8-0.2,1.7-0.4,2.5-0.6C78.8,54.5,78.4,54.6,78,54.7z M101.1,49.7c0,0-8.8,0.7-22.2,3.6
			c-13.4,3-21,5.9-21,5.9c-0.3,0.1-0.6-0.1-0.6-0.4c0,0,0.9-2.5-1.4-20c-0.3-2.2-0.5-4.1-0.8-5.9c-0.5,0.1-0.8,0.2-0.8,0.2
			c0,0,0,0-0.1,0l-0.1,0c-0.7,0.2-1.3,0.3-1.9,0.3h0c-0.4,0-1.7-0.2-1.9-1c-0.2-0.8,0.2-1.6,1.3-2.1c0.4-0.2,1-0.5,1.5-0.7
			c-3.2-9.9-5.1-12.2-5.1-12.2c-0.2-0.3,0.1-0.6,0.4-0.7c0,0,0.3-0.1,0.9-0.2c0.4,0.8,2.1,4.2,4.2,12.9c0.4-0.1,0.7-0.3,1.1-0.4
			C52.6,19.5,51.1,17,51.1,17c0-0.3,0.2-0.6,0.4-0.6c0,0,10.8-1.2,23-3.9c12.3-2.7,20.3-5.6,20.3-5.6c0.3-0.1,0.6,0.1,0.6,0.4
			c0,0,0.5,5.1,1.7,17h0c1.2-0.1,1.8,0.2,2.2,0.7c0.3,0.4,0.7,1.4,0.5,2.5c-0.1,0.6-0.5,1.7-1.8,3c0,0,0,0,0,0
			c-0.1,0.1-0.1,0.1-0.2,0.2c1.5,11.8,3.7,18.4,3.7,18.4C101.6,49.4,101.4,49.7,101.1,49.7z M103.9,49.7c0,0-0.3,0.1-0.8,0.2
			c-0.8-2.1-2.9-8.5-4.7-18.2c2.9,11.2,5.9,17.4,5.9,17.4C104.4,49.3,104.2,49.6,103.9,49.7z"/>
		<path style="fill:#C8C8C8;" d="M56.7,28.9c0,0-3.5,1-5.2,1.8c-0.6,0.3-2,1.7,0.3,1.7c0.5,0,1.1-0.1,2-0.3c0.3-0.1,3.2-0.8,3.2-0.8
			l0.5,3.5c0,0,0.1,0.6,0.2,0.8c0,0,0.1,1,0.9,0.9c0.2,0,1,0,1.7-0.3c0.1-0.1,0.5-0.1,0.3-0.6c0-0.2-0.8-4.9-0.8-4.9l2.8-0.7
			l0.8,4.7c0,0,0.1,1.1,1,0.9c0.3,0,0.9-0.1,1.3-0.3c0.1-0.1,0.3-0.1,0.1-0.6c-0.1-0.3-0.9-3.2-1.1-5c0.2,0,3.3-0.6,3.2-0.4
			c-0.1,0.1-1,1-1.5,2.4c-0.4,0.7,0,3,2.3,2.4c0.4-0.1,1.3-0.4,2.3-1.7c0.1,0.1,0.7,1.8,2.6,1.3c0.2-0.1,0.5-0.1,0.2-0.3
			c-0.1-0.1-0.8-0.4-0.8-1.8c0-0.4,0.1-1.5,0.4-2.7c0-0.1,0.1-0.6-0.5-0.5c-0.3,0.1-0.9,0.3-1.4,0.7c-0.1,0.1-0.3,0.2-0.4,0.6
			c-0.1,0.2-0.9,2.6-2.1,3.5c-0.2,0.1-0.6,0.4-0.7-0.2c0-0.3,0.2-2.1,2.5-4c0.3-0.2,0.9-0.7,1.2-0.8c0.2,0,0.5-0.3,0-0.4
			c0,0-0.7-0.2-3.1,0.1c-0.2,0-2.2,0.3-4.2,0.7c0-0.3-0.3-3.3-0.1-4.9c0-0.3,0.4-1.4-0.7-1.2c-0.2,0-1.3,0.2-1.8,0.5
			c-0.1,0.1-0.4,0.1-0.1,0.3c0.1,0.1,0.3,0.3,0.3,0.8c0,0.2,0.4,4.9,0.4,4.9l-2.8,0.7c0,0-0.5-3.9-0.6-5.5c0-0.3,0.1-1.4-1.1-1
			c-0.3,0.1-1.6,0.4-2.5,1.1c0,0-0.5,0.3,0,0.4c0.1,0.1,0.4,0.2,0.4,0.6C56.1,25.4,56.7,28.9,56.7,28.9z M53,31.1
			c-0.3,0-0.2-0.2-0.1-0.3c1.3-0.8,3.8-1.4,3.8-1.4l0.1,0.9C55.1,30.8,53.5,31.1,53,31.1z M79.3,27c0,0,0.1,0.1,0.1-0.2
			c0-0.2-0.1-1-0.7-1.3c-0.1-0.1-0.4-0.2-1.1,0c-0.2,0.1-2.6,0.9-3.7,3c-0.1,0.2-0.8,1.8,0.6,2.2c0,0,1.1,0.3,1.7,0.4
			c0,0,2,0.2,0.8,1.8c-0.2,0.2-0.9,1.2-2,2c-0.2,0.1-1,0.7-2,0.2c-0.2-0.1-0.5-0.2-0.4,0.2c0.1,0.2,0.6,1,1.3,1.4
			c0.2,0.1,0.7,0.5,2.5-0.5c0.4-0.2,2.3-1.7,3.1-3.3c0.1-0.3,0.7-1.7-0.6-2.2c-0.4-0.2-1.5-0.4-1.8-0.5c-0.5-0.1-2.1-0.4-1.1-1.8
			C76.4,28.2,77.4,27.2,79.3,27z M78.3,22c0,0-0.3,0.1,0.1,0.2c0.1,0.1,0.5,0.3,0.7,1c0.1,0.3,0.8,2.3,1.2,5.2
			c0,0.3,0.4,2.9,0.3,3.6c0,0.2,0,1,1.3,0.7c0.9-0.2,2.9-1.6,4.3-3.6c0.2-0.2,1.9-3.1-1.4-3c-0.5,0.1-1.1,0.1-2.4,1
			c0-0.2-0.3-3.6-0.8-4.9c-0.2-0.3-0.3-0.8-1.3-0.7C80,21.5,78.9,21.7,78.3,22z M83.3,27.5c1.4-0.5,1.1,1.6,0.8,2.1
			c-0.4,1.1-1.3,1.7-1.3,1.7l-0.3-3.3C82.7,27.8,83.1,27.6,83.3,27.5z M89.7,26.6c0,0-0.5-1-1.7-0.8c-0.2,0-0.7,0.1-1,0.5
			c-0.1,0.1-0.3,0.3,0.1,0.3c0.2,0,1.1,0.1,1.1,0.9c0,0.2,0.1,1-0.6,3.7c-0.1,0.2-0.2,0.7,0.4,0.7c0.2,0,1.3-0.1,1.9-0.3
			c0.2-0.1,0.4-0.1,0.4-0.6c0-0.2,0-2.5-0.2-3.1c0.1-0.2,0.5-1.1,1.5-1.6c0.2-0.1,0.8-0.5,1.3,0.1c0.1,0.1,0.2,0.2,0.4,0
			c0.1-0.1,0.7-0.7,0.6-1.4c-0.1-0.2-0.1-0.6-1-0.5C92.6,24.5,91.3,24.5,89.7,26.6z M91.9,29.6c0,0-0.2,1.8,1.9,1.6
			c0.2,0,2.1-0.1,3.7-1.7c0.2-0.2,1.4-1.4,1.6-2.6c0-0.3,0.5-2.5-2-2.3c-0.3,0.1-1.9,0.2-3.4,1.7C93.5,26.5,92,28,91.9,29.6z
			 M94.2,28.8c0.5-2.1,1.6-2.8,1.7-2.9c0.7-0.5,0.8-0.1,0.9,0.1c0.2,0.4-0.1,1.3-0.2,1.6c-0.5,1.5-1.5,2.3-1.6,2.4
			c-0.8,0.5-0.9-0.1-0.9-0.3C94.1,29.5,94.2,29,94.2,28.8z"/>
		<path style="fill:#C8C8C8;" d="M86.1,32.7C86.1,32.7,86,32.8,86.1,32.7c-1.2,2.6-4.2,4.8-4.5,4.9c-2.8,2.1-5.8,2.7-6.2,2.8
			c-3.5,0.9-6.6,0.6-6.8,0.6c0.8,2.4,4.7,3.9,4.8,4c4.2,1.7,7.6,0.3,8,0.2c3.2-1.1,4.2-3.7,4.4-4.2c1.1-2.7,0.7-5.6,0.6-6.1
			c0-0.6-0.2-1.2-0.2-1.4c-0.1-0.3,0.3-0.3,0.3-0.1c0.6,2.1,0.6,4,0.6,4.4c0,3.1-0.9,4.4-1,4.7c-1.2,2.2-2.7,3-3,3.2
			c-2.6,1.7-5.7,1.5-6.2,1.5c-4.5-0.2-7.4-2.4-7.9-2.8c-2.9-2.3-3.2-5.1-3.2-5.3c0-0.2,0-0.1,0.4,0c5,1.4,9.4,0,9.7-0.1
			c6.6-1.6,9.9-6.4,9.9-6.4C86,32.3,86.1,32.6,86.1,32.7z"/>
	</g>
</g>
</svg>
