<svg xmlns="http://www.w3.org/2000/svg" viewBox="0 0 151.5 67" role="img" aria-label="[title]">
  <title>Hasbro, Inc.</title>
  <g fill="#c8c8c8">
    <path d="M106.7 48.4l-.1-.2c0-.1-3.2-6.4-6.4-17.8l-.2-.5c.6-1 .8-1.7.9-2.1l.1-.9c0-1.2-.4-2.1-.8-2.6-.4-.4-.8-.7-1.3-.9l-.3-1.5-2-16.7-.2-2.5-.2-1.2c-.1-.5-.4-.9-.9-1.1-.4-.2-1-.3-1.4-.1l-.2.1c-.1 0-7.8 4.2-19.9 8.6-5.4 2.1-8.7 3.5-15.5 4.9l-9.8 1.8-2.2.4-.3.1a2 2 0 00-1.2 1.2l-.1.6.3.9.1.1s1.8 2.3 4.9 11a2.8 2.8 0 00-1.1 3c.4 1.6 2.2 2 3.1 2h.4l.5 1 .8 4.8c1.6 10.6 2 15.9 2 18.5l-.3 6v.6c.1.5.5.9.9 1.1.5.2 1 .3 1.5.1l.2-.1c.1 0 7.5-4.2 20.6-9.2.1 0 7.9-3.3 11.2-4.2 7.6-2 11-2 12.5-2.2l2.3-.2.8-.2.2-.1c.9-.5 1.4-1.5 1.1-2.5zM74.8 10.9c12-3.7 19.7-7.3 19.7-7.3.3-.1.6.1.6.3l.2 1.1a168 168 0 01-22.4 6.4l1.9-.5zM78 54.7c-13.1 4.2-20.4 7.8-20.4 7.8-.3.1-.6-.1-.6-.3v-1.1c2.6-1 9.4-3.5 19.7-6.1l2.5-.6-1.2.3zm23.1-5s-8.8.7-22.2 3.6c-13.4 3-21 5.9-21 5.9-.3.1-.6-.1-.6-.4 0 0 .9-2.5-1.4-20l-.8-5.9-.8.2h-.2l-1.9.3c-.4 0-1.7-.2-1.9-1-.2-.8.2-1.6 1.3-2.1l1.5-.7A44.4 44.4 0 0048 17.4c-.2-.3.1-.6.4-.7l.9-.2c.4.8 2.1 4.2 4.2 12.9l1.1-.4c-2-9.5-3.5-12-3.5-12 0-.3.2-.6.4-.6 0 0 10.8-1.2 23-3.9 12.3-2.7 20.3-5.6 20.3-5.6.3-.1.6.1.6.4l1.7 17c1.2-.1 1.8.2 2.2.7.3.4.7 1.4.5 2.5-.1.6-.5 1.7-1.8 3l-.2.2c1.5 11.8 3.7 18.4 3.7 18.4.1.3-.1.6-.4.6zm2.8 0l-.8.2a115 115 0 01-4.7-18.2c2.9 11.2 5.9 17.4 5.9 17.4.1.2-.1.5-.4.6z"/>
    <path d="M97.1 24.6c-.3.1-1.9.2-3.4 1.7-.2.2-1.7 1.7-1.8 3.3 0 0-.2 1.8 1.9 1.6.2 0 2.1-.1 3.7-1.7.2-.2 1.4-1.4 1.6-2.6 0-.3.5-2.5-2-2.3zm-.5 3c-.5 1.5-1.5 2.3-1.6 2.4-.8.5-.9-.1-.9-.3l.1-.9c.5-2.1 1.6-2.8 1.7-2.9.7-.5.8-.1.9.1.2.4-.1 1.3-.2 1.6zM65.8 34.7c-.1-.3-.9-3.2-1.1-5 .2 0 3.3-.6 3.2-.4-.1.1-1 1-1.5 2.4-.4.7 0 3 2.3 2.4.4-.1 1.3-.4 2.3-1.7.1.1.7 1.8 2.6 1.3.2-.1.5-.1.2-.3-.1-.1-.8-.4-.8-1.8 0-.4.1-1.5.4-2.7 0-.1.1-.6-.5-.5-.3.1-.9.3-1.4.7-.1.1-.3.2-.4.6-.1.2-.9 2.6-2.1 3.5-.2.1-.6.4-.7-.2 0-.3.2-2.1 2.5-4l1.2-.8c.2 0 .5-.3 0-.4 0 0-.7-.2-3.1.1l-4.2.7c0-.3-.3-3.3-.1-4.9 0-.3.4-1.4-.7-1.2-.2 0-1.3.2-1.8.5-.1.1-.4.1-.1.3a494.7 494.7 0 00.7 5.7l-2.8.7-.6-5.5c0-.3.1-1.4-1.1-1-.3.1-1.6.4-2.5 1.1 0 0-.5.3 0 .4.1.1.4.2.4.6l.6 3.6s-3.5 1-5.2 1.8c-.6.3-2 1.7.3 1.7l2-.3 3.2-.8.5 3.5.2.8s.1 1 .9.9c.2 0 1 0 1.7-.3.1-.1.5-.1.3-.6l-.8-4.9 2.8-.7.8 4.7s.1 1.1 1 .9c.3 0 .9-.1 1.3-.3.1-.1.3-.1.1-.6zM53 31.1c-.3 0-.2-.2-.1-.3 1.3-.8 3.8-1.4 3.8-1.4l.1.9c-1.7.5-3.3.8-3.8.8z"/>
    <path d="M92.9 26.4c.1.1.2.2.4 0 .1-.1.7-.7.6-1.4-.1-.2-.1-.6-1-.5-.3 0-1.6 0-3.2 2.1 0 0-.5-1-1.7-.8-.2 0-.7.1-1 .5-.1.1-.3.3.1.3.2 0 1.1.1 1.1.9 0 .2.1 1-.6 3.7-.1.2-.2.7.4.7.2 0 1.3-.1 1.9-.3.2-.1.4-.1.4-.6 0-.2 0-2.5-.2-3.1.1-.2.5-1.1 1.5-1.6.2-.1.8-.5 1.3.1z"/>
    <path d="M78.4 22.2c.1.1.5.3.7 1 .1.3.8 2.3 1.2 5.2 0 .3.4 2.9.3 3.6 0 .2 0 1 1.3.7.9-.2 2.9-1.6 4.3-3.6.2-.2 1.9-3.1-1.4-3-.5.1-1.1.1-2.4 1 0-.2-.3-3.6-.8-4.9-.2-.3-.3-.8-1.3-.7-.3 0-1.4.2-2 .5 0 0-.3.1.1.2zm4.9 5.3c1.4-.5 1.1 1.6.8 2.1a3.8 3.8 0 01-1.3 1.7l-.3-3.3.8-.5z"/>
    <path d="M74.5 30.7l1.7.4s2 .2.8 1.8c-.2.2-.9 1.2-2 2-.2.1-1 .7-2 .2-.2-.1-.5-.2-.4.2.1.2.6 1 1.3 1.4.2.1.7.5 2.5-.5a10 10 0 003.1-3.3c.1-.3.7-1.7-.6-2.2l-1.8-.5c-.5-.1-2.1-.4-1.1-1.8.4-.2 1.4-1.2 3.3-1.4 0 0 .1.1.1-.2 0-.2-.1-1-.7-1.3-.1-.1-.4-.2-1.1 0-.2.1-2.6.9-3.7 3-.1.2-.8 1.8.6 2.2z"/>
    <path d="M86.2 33.5l.2 1.4c.1.5.5 3.4-.6 6.1-.2.5-1.2 3.1-4.4 4.2-.4.1-3.8 1.5-8-.2-.1-.1-4-1.6-4.8-4 .2 0 3.3.3 6.8-.6.4-.1 3.4-.7 6.2-2.8.3-.1 3.3-2.3 4.5-4.9 0-.1-.1-.4-.3-.1 0 0-3.3 4.8-9.9 6.4a18 18 0 01-9.7.1c-.4-.1-.4-.2-.4 0s.3 3 3.2 5.3a14 14 0 007.9 2.8c.5 0 3.6.2 6.2-1.5.3-.2 1.8-1 3-3.2.1-.3 1-1.6 1-4.7 0-.4 0-2.3-.6-4.4 0-.2-.4-.2-.3.1z"/>
  </g>
</svg>