<?xml version="1.0" encoding="utf-8"?>
<!-- Generator: Adobe Illustrator 23.0.3, SVG Export Plug-In . SVG Version: 6.00 Build 0)  -->
<svg version="1.1" id="Layer_1" xmlns="http://www.w3.org/2000/svg" xmlns:xlink="http://www.w3.org/1999/xlink" x="0px" y="0px"
	 viewBox="0 0 89 58.2" style="enable-background:new 0 0 89 58.2;" xml:space="preserve">
<g>
	<path style="fill:#C8C8C8;" d="M41.3,21c-0.9,0-1.6-0.7-1.6-1.6c0-0.7,0.4-1.2,1-1.5c-0.3-0.1-0.6-0.1-1-0.1
		c-1.8,0-3.3,1.5-3.3,3.3s1.5,3.3,3.3,3.3s3.3-1.5,3.3-3.3c0-0.3,0-0.6-0.1-1C42.5,20.6,42,21,41.3,21z"/>
	<path style="fill:#C8C8C8;" d="M49.5,17.7c-0.3,0-0.6,0-1,0.1c0.6,0.2,1,0.8,1,1.5c0,0.9-0.7,1.6-1.6,1.6c-0.7,0-1.2-0.4-1.5-1
		c-0.1,0.3-0.1,0.6-0.1,1c0,1.8,1.5,3.3,3.3,3.3s3.3-1.5,3.3-3.3C52.8,19.2,51.2,17.7,49.5,17.7z"/>
	<path style="fill:#C8C8C8;" d="M50.2,13.5c-1.7-1-3.6-1.6-5.7-1.6c-2.2,0-4.1,0.6-5.8,1.6c-1.7-1-3.6-1.6-5.7-1.6v11.5
		C33,36.1,43.3,46.3,56,46.3V23.4V11.9C53.8,11.9,52,12.5,50.2,13.5z M49.3,26c-1,0-1.9-0.3-2.6-0.8l-2.3,2.3l-2.3-2.3
		c-0.7,0.4-1.7,0.7-2.6,0.7c-2.7,0-4.9-2.2-4.9-4.9s2.2-4.9,4.9-4.9c2.6,0,4.7,2,4.9,4.5c0.2-2.5,2.4-4.5,4.9-4.5
		c2.7,0,4.9,2.2,4.9,4.9C54.2,23.8,52.2,26,49.3,26z"/>
</g>
</svg>
