<svg xmlns="http://www.w3.org/2000/svg" viewBox="0 0 89 58.2" role="img" aria-label="[title]">
  <title>Hootsuite</title>
  <path fill="#c8c8c8" d="M41.3 21c-.9 0-1.6-.7-1.6-1.6 0-.7.4-1.2 1-1.5l-1-.1c-1.8 0-3.3 1.5-3.3 3.3s1.5 3.3 3.3 3.3 3.3-1.5 3.3-3.3l-.1-1c-.4.5-.9.9-1.6.9zM49.5 17.7l-1 .1c.6.2 1 .8 1 1.5 0 .9-.7 1.6-1.6 1.6-.7 0-1.2-.4-1.5-1l-.1 1c0 1.8 1.5 3.3 3.3 3.3s3.3-1.5 3.3-3.3a3.6 3.6 0 00-3.4-3.2z"/>
  <path fill="#c8c8c8" d="M50.2 13.5a11.1 11.1 0 00-11.5 0c-1.7-1-3.6-1.6-5.7-1.6v11.5a23 23 0 0023 22.9V11.9c-2.2 0-4 .6-5.8 1.6zM49.3 26c-1 0-1.9-.3-2.6-.8l-2.3 2.3-2.3-2.3c-.7.4-1.7.7-2.6.7a5 5 0 114.9-5.3 5 5 0 014.9-4.5 5 5 0 014.9 4.9c0 2.8-2 5-4.9 5z"/>
</svg>