<svg xmlns="http://www.w3.org/2000/svg" viewBox="0 0 89 58.2" role="img" aria-label="[title]">
  <title>Instagram</title>
  <path fill="#c8c8c8" d="M44.5 14.8l7.1.1c1.7.1 2.6.4 3.3.6.8.3 1.5.7 2 1.3.6.6 1 1.3 1.3 2 .4 1 .6 2.1.6 3.3l.1 7.1-.1 7.1c-.1 1.7-.4 2.6-.6 3.3-.3.8-.7 1.5-1.3 2-.6.6-1.3 1-2 1.3-1 .4-2.1.6-3.3.6l-7.1.1-7.1-.1c-1.7-.1-2.6-.4-3.3-.6-.8-.3-1.5-.7-2-1.3-.6-.6-1-1.3-1.3-2-.4-1-.6-2.1-.6-3.3l-.1-7.1.1-7.1c.1-1.7.4-2.6.6-3.3.3-.8.7-1.5 1.3-2 .6-.6 1.3-1 2-1.3 1-.4 2.1-.6 3.3-.6l7.1-.1zm0-3.2l-7.2.1a15 15 0 00-4.3.8c-1.1.4-2.1 1.1-3.1 2s-1.6 2-2 3.1c-.5 1.4-.8 2.8-.8 4.3l-.1 7.2.1 7.2c.1 1.5.3 2.9.8 4.3a9.6 9.6 0 002 3.1c1 1 1.9 1.6 3.1 2 1.4.5 2.8.8 4.3.8l7.2.1 7.2-.1c1.5-.1 2.9-.3 4.3-.8a9.6 9.6 0 003.1-2c1-1 1.6-1.9 2-3.1.5-1.4.8-2.8.8-4.3l.1-7.2-.1-7.2c-.1-1.5-.3-2.9-.8-4.3a9.6 9.6 0 00-2-3.1 7.9 7.9 0 00-3.1-2c-1.4-.5-2.8-.8-4.3-.8l-7.2-.1z"/>
  <path fill="#c8c8c8" d="M44.5 20.1a9 9 0 00-6.4 2.6 9 9 0 00-2.6 6.4 9 9 0 002.6 6.4 9 9 0 006.4 2.6 9 9 0 006.4-2.6 9 9 0 002.6-6.4 9 9 0 00-2.6-6.4 9.4 9.4 0 00-6.4-2.6zm0 14.9a5.8 5.8 0 01-4.1-9.9 5.8 5.8 0 018.2 0 5.8 5.8 0 010 8.2 5.7 5.7 0 01-4.1 1.7zM53.9 21.9a2 2 0 002.1-2.1 2 2 0 00-2.1-2.1 2 2 0 00-2.1 2.1c-.1 1.2.9 2.1 2.1 2.1z"/>
</svg>