<?xml version="1.0" encoding="utf-8"?>
<!-- Generator: Adobe Illustrator 23.0.3, SVG Export Plug-In . SVG Version: 6.00 Build 0)  -->
<svg version="1.1" id="Layer_1" xmlns="http://www.w3.org/2000/svg" xmlns:xlink="http://www.w3.org/1999/xlink" x="0px" y="0px"
	 viewBox="0 0 89 58.2" style="enable-background:new 0 0 89 58.2;" xml:space="preserve">
<g>
	<path style="fill:#C8C8C8;" d="M44.5,14.8c4.7,0,5.2,0,7.1,0.1c1.7,0.1,2.6,0.4,3.3,0.6c0.8,0.3,1.5,0.7,2,1.3c0.6,0.6,1,1.3,1.3,2
		c0.4,1,0.6,2.1,0.6,3.3c0.1,1.9,0.1,2.4,0.1,7.1s0,5.2-0.1,7.1c-0.1,1.7-0.4,2.6-0.6,3.3c-0.3,0.8-0.7,1.5-1.3,2
		c-0.6,0.6-1.3,1-2,1.3c-1,0.4-2.1,0.6-3.3,0.6c-1.9,0.1-2.4,0.1-7.1,0.1s-5.2,0-7.1-0.1c-1.7-0.1-2.6-0.4-3.3-0.6
		c-0.8-0.3-1.5-0.7-2-1.3c-0.6-0.6-1-1.3-1.3-2c-0.4-1-0.6-2.1-0.6-3.3c-0.1-1.9-0.1-2.4-0.1-7.1s0-5.2,0.1-7.1
		c0.1-1.7,0.4-2.6,0.6-3.3c0.3-0.8,0.7-1.5,1.3-2c0.6-0.6,1.3-1,2-1.3c1-0.4,2.1-0.6,3.3-0.6C39.3,14.8,39.8,14.8,44.5,14.8z
		 M44.5,11.6c-4.8,0-5.4,0-7.2,0.1c-1.9,0.1-3.1,0.4-4.3,0.8c-1.1,0.4-2.1,1.1-3.1,2s-1.6,2-2,3.1c-0.5,1.4-0.8,2.8-0.8,4.3
		C27,23.7,27,24.3,27,29.1s0,5.4,0.1,7.2c0.1,1.5,0.3,2.9,0.8,4.3c0.4,1.1,1.1,2.1,2,3.1c1,1,1.9,1.6,3.1,2c1.4,0.5,2.8,0.8,4.3,0.8
		c1.9,0.1,2.5,0.1,7.2,0.1s5.4,0,7.2-0.1c1.5-0.1,2.9-0.3,4.3-0.8c1.1-0.4,2.1-1.1,3.1-2c1-1,1.6-1.9,2-3.1c0.5-1.4,0.8-2.8,0.8-4.3
		c0.1-1.9,0.1-2.5,0.1-7.2s0-5.4-0.1-7.2c-0.1-1.5-0.3-2.9-0.8-4.3c-0.4-1.1-1.1-2.1-2-3.1c-0.9-0.9-1.9-1.6-3.1-2
		c-1.4-0.5-2.8-0.8-4.3-0.8C49.9,11.6,49.3,11.6,44.5,11.6z"/>
	<path style="fill:#C8C8C8;" d="M44.5,20.1c-2.4,0-4.7,0.9-6.4,2.6c-1.7,1.7-2.6,4-2.6,6.4c0,2.4,0.9,4.7,2.6,6.4
		c1.7,1.7,4,2.6,6.4,2.6c2.4,0,4.7-0.9,6.4-2.6c1.7-1.7,2.6-4,2.6-6.4c0-2.4-0.9-4.7-2.6-6.4C49.2,21.1,46.9,20.1,44.5,20.1z
		 M44.5,35c-1.6,0-3-0.6-4.1-1.7c-1.1-1.1-1.7-2.6-1.7-4.1c0-1.6,0.6-3,1.7-4.1c1.1-1.1,2.6-1.7,4.1-1.7c1.6,0,3,0.6,4.1,1.7
		c1.1,1.1,1.7,2.6,1.7,4.1c0,1.6-0.6,3-1.7,4.1C47.5,34.4,46.1,35,44.5,35z"/>
	<path style="fill:#C8C8C8;" d="M53.9,21.9c1.2,0,2.1-0.9,2.1-2.1c0-1.2-0.9-2.1-2.1-2.1c-1.2,0-2.1,0.9-2.1,2.1
		C51.7,21,52.7,21.9,53.9,21.9z"/>
</g>
</svg>
