<svg xmlns="http://www.w3.org/2000/svg" viewBox="0 0 89 58.2" role="img">
  <path fill="#C8C8C8" d="M22.2 16.1c0 .5-.3.9-.9.9-.5 0-.8-.4-.8-.9s.4-.9.9-.9.8.4.8.9zm-1.3 28.1V22.7h.9v21.4h-.9zm29.7-15.3c0 10.8-5.9 15.7-12.4 15.7-6.6 0-12-5.3-12-15.3 0-10.2 5.5-15.7 12.4-15.7 6.8 0 12 5.4 12 15.3zm-23.5.2c0 8.2 3.9 14.6 11.1 14.6 7.3 0 11.4-6.6 11.4-14.7 0-7.5-3.3-14.4-11-14.4s-11.5 6.5-11.5 14.5zm26.7 12.7c1.5 1 4 1.9 6.1 1.9 4.1 0 7.7-2.9 7.7-7.2 0-4-2.4-6-6.5-7.8-3.7-1.6-7-3.3-7-7.6 0-4.4 3.4-7.5 8.1-7.5 2.5 0 4.4.7 5.3 1.3l-.3.8c-.7-.5-2.8-1.2-5-1.2a6.8 6.8 0 00-7.1 6.6c0 3.8 2.9 5.1 6.7 7 4.4 2.2 6.7 4.1 6.7 8.3 0 4.5-3.2 8.2-8.8 8.2-2.3 0-5-.8-6.3-1.8l.4-1z"/>
</svg>