<?xml version="1.0" encoding="utf-8"?>
<!-- Generator: Adobe Illustrator 23.0.3, SVG Export Plug-In . SVG Version: 6.00 Build 0)  -->
<svg version="1.1" id="Layer_1" xmlns="http://www.w3.org/2000/svg" xmlns:xlink="http://www.w3.org/1999/xlink" x="0px" y="0px"
	 viewBox="0 0 89 58.2" style="enable-background:new 0 0 89 58.2;" xml:space="preserve">
<path style="fill:#C8C8C8;" d="M59.4,11.6H29.6c-0.7,0-1.3,0.3-1.8,0.7c-0.5,0.5-0.8,1.1-0.8,1.8v30c0,1.4,1.1,2.5,2.6,2.5h29.8
	c0.7,0,1.3-0.3,1.8-0.7s0.8-1.1,0.8-1.8v-30c0-0.7-0.3-1.3-0.8-1.8C60.7,11.8,60,11.6,59.4,11.6z M37.4,41.4h-5.2V24.7h5.2
	L37.4,41.4L37.4,41.4z M34.8,22.4c-0.4,0-0.8-0.1-1.1-0.2c-0.4-0.2-0.7-0.4-1-0.7c-0.3-0.3-0.5-0.6-0.6-1c-0.2-0.4-0.2-0.8-0.2-1.1
	c0-0.4,0.1-0.8,0.2-1.1c0.2-0.4,0.4-0.7,0.6-1c0.3-0.3,0.6-0.5,1-0.7c0.4-0.2,0.8-0.2,1.1-0.2c0.8,0,1.6,0.3,2.1,0.9
	c0.6,0.6,0.9,1.3,0.9,2.1s-0.3,1.6-0.9,2.1C36.3,22.1,35.6,22.4,34.8,22.4z M56.8,41.4h-5.1v-8.1c0-1.9,0-4.5-2.7-4.5
	c-2.7,0-3.1,2.1-3.1,4.3v8.3h-5.2V24.7h5V27h0.1c0.5-0.9,1.2-1.6,2.1-2c0.9-0.5,1.8-0.7,2.8-0.7c5.2,0,6.2,3.5,6.2,8L56.8,41.4
	L56.8,41.4L56.8,41.4z"/>
</svg>
