<svg xmlns="http://www.w3.org/2000/svg" viewBox="0 0 89 58.2" role="img" aria-label="[title]">
  <title>MacOS</title>
  <path fill="#C8C8C8" d="M22.3 40.3h-2.5v-9.2c0-3.4-1.2-5.1-3.6-5.1-.6 0-1.1.1-1.5.3-.5.2-.9.5-1.2.9-.3.4-.6.8-.8 1.4-.2.5-.3 1-.3 1.6v10H10v-9.8c0-1.3-.3-2.4-.9-3.2-.5-.8-1.4-1.2-2.5-1.2a3 3 0 00-1.6.4l-1.3 1c-.4.4-.6.9-.8 1.5-.2.5-.3 1.1-.3 1.6v9.7H.1V28.4v-2L0 24.3h2.2v2.6h.2c1.1-2 2.8-2.9 5-2.9 1.1 0 2 .3 2.8.9.8.6 1.3 1.4 1.7 2.3h.1a5.7 5.7 0 012.2-2.4c.9-.5 1.9-.8 3.1-.8 1.6 0 2.8.6 3.8 1.8a8.2 8.2 0 011.4 5l-.2 9.5zm12.9 0l-.2-2.1h-.1a5.5 5.5 0 01-4.8 2.4c-.7 0-1.3-.1-1.9-.3-.6-.2-1.1-.5-1.5-.9l-1-1.4c-.2-.6-.4-1.2-.4-1.8a5 5 0 012.4-4.4c1.6-1 3.9-1.5 7-1.5v-.4c0-2.6-1.2-3.9-3.7-3.9-1.5 0-2.9.4-4 1.2l-.6-1.7a9.2 9.2 0 015-1.4c3.9 0 5.8 2.1 5.8 6.4v6.1l.1 2.1.2 1.7-2.3-.1zm-.4-8.3h-.5c-4.3 0-6.4 1.3-6.4 3.8 0 1 .3 1.7.8 2.2.5.5 1.2.7 2 .7l1.5-.3 1.3-.7c.4-.3.7-.7.9-1.2.2-.5.4-1 .4-1.6V32zm17.3-5.2c-1-.5-2.1-.8-3.4-.8a6 6 0 00-2.4.5 6 6 0 00-1.8 1.3c-.5.6-.9 1.2-1.1 2-.3.8-.4 1.6-.4 2.5a6.6 6.6 0 001.6 4.5 6 6 0 001.8 1.3c.7.3 1.4.4 2.3.4 1.2 0 2.4-.3 3.5-.8l.5 1.9a10 10 0 01-7.7.3c-.9-.4-1.8-.9-2.4-1.7a7.6 7.6 0 01-1.6-2.6c-.4-1-.5-2.1-.5-3.3a9 9 0 01.6-3.4c.4-1 1-1.9 1.7-2.7a10 10 0 012.6-1.8c1-.4 2.2-.6 3.4-.6 1.6 0 2.9.3 4 .9l-.7 2.1zM74 28.9a15 15 0 01-.7 4.8 11 11 0 01-2 3.7 9.1 9.1 0 01-7.2 3.3 10 10 0 01-3.9-.8 10 10 0 01-3.1-2.3c-.9-1-1.5-2.2-2-3.6s-.7-2.9-.7-4.6c0-1.7.2-3.3.7-4.7.5-1.4 1.2-2.7 2.1-3.7a9.6 9.6 0 017.2-3.3c1.5 0 2.8.3 4 .8a10 10 0 013.1 2.3c.8 1 1.5 2.2 2 3.6.2 1.3.5 2.8.5 4.5zm-2.7.1a10.5 10.5 0 00-2-6.7 7.4 7.4 0 00-2.3-2c-.9-.5-1.8-.7-2.9-.7a6.3 6.3 0 00-5.3 2.7 12 12 0 00-1.5 3 15 15 0 000 7.6c.4 1.1.8 2.1 1.5 3 .6.8 1.4 1.5 2.3 2a6 6 0 002.9.7 6 6 0 003-.7c.9-.5 1.7-1.2 2.3-2a14 14 0 001.5-3c.3-1.3.5-2.5.5-3.9zM89 34.3c0 .9-.2 1.8-.5 2.6a6.2 6.2 0 01-3.9 3.3c-.9.3-2 .4-3.1.4a10 10 0 01-5.5-1.4l.7-2.1c1.5.9 3.1 1.4 4.9 1.4 1.5 0 2.7-.4 3.5-1.1.8-.7 1.3-1.7 1.3-2.9 0-1.1-.3-2-1-2.7a9.3 9.3 0 00-3.2-1.9c-3.8-1.4-5.7-3.5-5.7-6.3 0-.9.2-1.7.5-2.4s.8-1.4 1.4-1.9c.6-.5 1.4-.9 2.2-1.2.8-.3 1.8-.4 2.8-.4 1.9 0 3.5.4 4.7 1.1l-.8 2.1c-1.1-.7-2.4-1-4-1-1.3 0-2.3.3-3.1 1a3 3 0 00-1.2 2.5l.2 1.4c.1.4.4.8.7 1.1.3.4.8.7 1.3 1l2.1 1c1 .4 1.8.8 2.5 1.3s1.3.9 1.7 1.5c.5.5.8 1.1 1 1.7.4.4.5 1.1.5 1.9z"/>
</svg>