<svg xmlns="http://www.w3.org/2000/svg" viewBox="0 0 89 58.2" role="img" aria-label="[title]">
  <title>Next JS</title>
  <path fill="#C8C8C8" d="M21 16.2h16.8v1.3H22.5v10h14.3V29H22.5v11H38v1.3H21V16.2zm18.3 0h1.8l7.9 11 8.1-11 11-14L50 28.4l9.3 12.9h-1.9L49 29.6l-8.5 11.7h-1.8L48 28.4l-8.7-12.2zM60 17.6v-1.3h19.1v1.3h-8.8v23.7h-1.5V17.6H60zM0 16.2h1.9l26.5 39.7-11-14.6L1.6 18.1l-.1 23.2H0V16.2zm78.9 23.4c-.3 0-.6-.2-.6-.6s.2-.6.6-.6c.3 0 .6.2.6.6s-.2.6-.6.6zm1.5-1.5h.8c0 .4.3.7.8.7s.8-.3.8-.9v-3.8h.8v3.8c0 1.1-.6 1.7-1.7 1.7-.8 0-1.5-.6-1.5-1.5zm4.5 0h.8c.1.5.6.8 1.3.8.7 0 1.2-.3 1.2-.8 0-.4-.3-.7-1-.8l-.7-.2c-1-.2-1.4-.7-1.4-1.5 0-1 .8-1.6 2-1.6 1.1 0 1.9.6 1.9 1.6h-.8c-.2-.6-.6-.9-1.2-.9-.7 0-1.1.3-1.1.8 0 .4.3.6 1 .8l.6.1c1.1.3 1.6.7 1.6 1.5 0 1-.8 1.7-2.1 1.7s-2.1-.6-2.1-1.5z"/>
</svg>