<?xml version="1.0" encoding="utf-8"?>
<!-- Generator: Adobe Illustrator 23.0.3, SVG Export Plug-In . SVG Version: 6.00 Build 0)  -->
<svg version="1.1" id="Layer_1" xmlns="http://www.w3.org/2000/svg" xmlns:xlink="http://www.w3.org/1999/xlink" x="0px" y="0px"
	 viewBox="0 0 151.5 67" style="enable-background:new 0 0 151.5 67;" xml:space="preserve">
<g>
	<path style="fill:#C8C8C8;" d="M58.2,34.4H52l0.7-10.8l-4,10.8h-5.8L52.1,10h6.1l-0.7,11l4.1-11h5.8L58.2,34.4z"/>
	<path style="fill:#C8C8C8;" d="M59,34.4L68.1,10h5.8l-9.2,24.4H59z"/>
	<path style="fill:#C8C8C8;" d="M42.2,26c-8.1,9.5-15.7,22.1-8.9,27.9c6.5,5.6,14.7,2.3,20.2,0.1c5.6-2.2,66.9-28.9,66.9-28.9
		c0.3-0.1,0.4-0.3,0.4-0.4c0-0.1-0.2-0.2-0.6-0.1c-0.3,0.1-66.8,18.1-66.8,18.1C44.9,45.1,35.3,39.9,42.2,26z"/>
	<path style="fill:#C8C8C8;" d="M100,14.1l1.6-4.1H90H90h-6l-6.1,7.3l2.8-7.3h-5.8l-9.1,24.4h5.8l3.9-10.2l0.3,10.2l17.7,0l1.7-4.7
		h-6.7l2.2-5.9h5.6l1.7-4.6h-5.6l1.9-5.1H100z M81.4,32.8l-0.4-12.7l8.7-9.6L81.4,32.8z"/>
</g>
</svg>
