<?xml version="1.0" encoding="utf-8"?>
<!-- Generator: Adobe Illustrator 23.0.3, SVG Export Plug-In . SVG Version: 6.00 Build 0)  -->
<svg version="1.1" id="Layer_1" xmlns="http://www.w3.org/2000/svg" xmlns:xlink="http://www.w3.org/1999/xlink" x="0px" y="0px"
	 viewBox="0 0 89 58.2" style="enable-background:new 0 0 89 58.2;" xml:space="preserve">
<path style="fill:#FFFFFF;" d="M44,56.6c-0.3,0-0.6-0.1-0.8-0.2l-2.7-1.6c-0.4-0.2-0.2-0.3-0.1-0.3c0.5-0.2,0.6-0.2,1.2-0.5
	c0.1,0,0.1,0,0.2,0l2.1,1.2c0.1,0,0.2,0,0.2,0l8-4.7c0.1,0,0.1-0.1,0.1-0.2v-9.4c0-0.1,0-0.2-0.1-0.2l-8-4.7c-0.1,0-0.2,0-0.2,0
	l-8,4.7c-0.1,0-0.1,0.1-0.1,0.2v9.4c0,0.1,0,0.2,0.1,0.2l2.2,1.3c1.2,0.6,1.9-0.1,1.9-0.8v-9.2c0-0.1,0.1-0.2,0.2-0.2h1
	c0.1,0,0.2,0.1,0.2,0.2V51c0,1.6-0.9,2.5-2.4,2.5c-0.5,0-0.8,0-1.9-0.5L35,51.8c-0.5-0.3-0.8-0.9-0.8-1.5v-9.4
	c0-0.6,0.3-1.2,0.8-1.5l8-4.7c0.5-0.3,1.2-0.3,1.7,0l8,4.7c0.5,0.3,0.8,0.9,0.8,1.5v9.4c0,0.6-0.3,1.2-0.8,1.5l-8,4.7
	C44.6,56.5,44.3,56.6,44,56.6z"/>
<path style="fill:#FFFFFF;" d="M46.5,50.2c-3.5,0-4.2-1.6-4.2-3c0-0.1,0.1-0.2,0.2-0.2h1c0.1,0,0.2,0.1,0.2,0.2
	c0.2,1.1,0.6,1.6,2.8,1.6c1.7,0,2.4-0.4,2.4-1.3c0-0.5-0.2-0.9-2.8-1.2c-2.2-0.2-3.6-0.7-3.6-2.5c0-1.6,1.4-2.6,3.7-2.6
	c2.6,0,3.8,0.9,4,2.8c0,0.1,0,0.1-0.1,0.2c0,0-0.1,0.1-0.2,0.1h-1.1c-0.1,0-0.2-0.1-0.2-0.2c-0.2-1.1-0.9-1.5-2.5-1.5
	c-1.9,0-2.1,0.6-2.1,1.1c0,0.6,0.3,0.8,2.8,1.1s3.6,0.8,3.6,2.5C50.5,49.1,49,50.2,46.5,50.2z"/>
<path style="fill-rule:evenodd;clip-rule:evenodd;fill:#FFFFFF;" d="M19.1,20c0-0.4-0.2-0.7-0.5-0.9l-8.5-5C9.9,14,9.8,14,9.6,14
	H9.5c-0.2,0-0.3,0.1-0.5,0.1l-8.5,5C0.2,19.3,0,19.6,0,20v13.3c0,0.2,0.1,0.4,0.3,0.4c0.2,0.1,0.4,0.1,0.5,0l5.1-2.9
	c0.3-0.2,0.5-0.5,0.5-0.9v-6.2c0-0.4,0.2-0.7,0.5-0.9l2.2-1.3c0.2-0.1,0.3-0.1,0.5-0.1s0.4,0,0.5,0.1l2.2,1.3
	c0.3,0.2,0.5,0.5,0.5,0.9v6.2c0,0.4,0.2,0.7,0.5,0.9l5,2.9c0.2,0.1,0.4,0.1,0.5,0c0.2-0.1,0.3-0.3,0.3-0.4
	C19.1,33.3,19.1,20,19.1,20z"/>
<path style="fill-rule:evenodd;clip-rule:evenodd;fill:#FFFFFF;" d="M60.1,1.7c-0.2-0.1-0.4-0.1-0.5,0c-0.2,0.1-0.3,0.3-0.3,0.4
	v13.2c0,0.1-0.1,0.2-0.2,0.3c-0.1,0.1-0.2,0.1-0.4,0l-2.1-1.2c-0.3-0.2-0.7-0.2-1,0l-8.5,5c-0.3,0.2-0.5,0.5-0.5,0.9v9.9
	c0,0.4,0.2,0.7,0.5,0.9l8.5,5c0.3,0.2,0.7,0.2,1,0l8.5-5c0.3-0.2,0.5-0.5,0.5-0.9V5.4c0-0.4-0.2-0.7-0.5-0.9L60.1,1.7z M59.3,26.9
	c0,0.1,0,0.2-0.1,0.2l-2.9,1.7c-0.1,0-0.2,0-0.3,0l-2.9-1.7C53,27.1,53,27,53,26.9v-3.4c0-0.1,0-0.2,0.1-0.2l2.9-1.7
	c0.1,0,0.2,0,0.3,0l2.9,1.7c0.1,0,0.1,0.1,0.1,0.2V26.9z"/>
<path style="fill-rule:evenodd;clip-rule:evenodd;fill:#FFFFFF;" d="M88.5,23.4c0.3-0.2,0.5-0.5,0.5-0.9v-2.4c0-0.4-0.2-0.7-0.5-0.9
	l-8.5-5c-0.3-0.2-0.7-0.2-1,0l-8.5,5c-0.3,0.2-0.5,0.5-0.5,0.9V30c0,0.4,0.2,0.7,0.5,0.9l8.5,4.9c0.3,0.2,0.7,0.2,1,0l5.1-2.9
	c0.2-0.1,0.3-0.3,0.3-0.4s-0.1-0.4-0.3-0.4l-8.6-5c-0.2-0.1-0.3-0.3-0.3-0.4v-3.1c0-0.2,0.1-0.4,0.3-0.4l2.7-1.5
	c0.2-0.1,0.4-0.1,0.5,0l2.7,1.5c0.2,0.1,0.3,0.3,0.3,0.4V26c0,0.2,0.1,0.4,0.3,0.4c0.2,0.1,0.4,0.1,0.5,0L88.5,23.4z"/>
<path style="fill-rule:evenodd;clip-rule:evenodd;fill:#FFFFFF;" d="M79.4,22.9c0.1,0,0.1,0,0.2,0l1.6,1c0.1,0,0.1,0.1,0.1,0.2V26
	c0,0.1,0,0.1-0.1,0.2l-1.6,1c-0.1,0-0.1,0-0.2,0l-1.6-1c-0.1,0-0.1-0.1-0.1-0.2v-1.9c0-0.1,0-0.1,0.1-0.2L79.4,22.9z"/>
<path style="fill-rule:evenodd;clip-rule:evenodd;fill:#FFFFFF;" d="M32.3,14.4c0.3-0.2,0.7-0.2,1,0l8.4,4.9
	c0.3,0.2,0.5,0.5,0.5,0.9V30c0,0.4-0.2,0.7-0.5,0.9l-8.4,4.9c-0.3,0.2-0.7,0.2-1,0l-8.4-4.9c-0.3-0.2-0.5-0.5-0.5-0.9v-9.8
	c0-0.4,0.2-0.7,0.5-0.9L32.3,14.4z"/>
<path style="fill-rule:evenodd;clip-rule:evenodd;fill:#A3A3A3;" d="M33.3,14.4l8.4,4.9c0.3,0.2,0.5,0.5,0.5,0.9V30
	c0,0.4-0.2,0.7-0.5,0.9l-8.4,4.9C33,36,33,14.2,33.3,14.4z"/>
<path style="opacity:0.66;fill:#4B4B4B;enable-background:new    ;" d="M41.7,19.3l-8.4-4.9c-0.1-0.1-0.2-0.1-0.3-0.1l-9.5,16.4
	c0.1,0.1,0.2,0.2,0.3,0.2l8.5,4.9c0.3,0.1,0.5,0.2,0.8,0.1L42,19.5C41.9,19.5,41.8,19.4,41.7,19.3z"/>
<path style="fill:#D3D3D3;" d="M33.3,35.8l8.4-4.9c0.3-0.2,0.5-0.5,0.5-0.9l0,0L33,14.3c-0.3-0.1-0.5,0-0.8,0.1l-8.4,5L33,35.9
	C33.1,35.9,33.2,35.9,33.3,35.8z"/>
</svg>
