<svg xmlns="http://www.w3.org/2000/svg" viewBox="0 0 89 58.2" role="img">
  <path fill="#afafaf" fill-rule="evenodd" d="M19.1 26.2a1 1 0 00-.5-.9l-8.5-5-.5-.1h-.1l-.5.1-8.5 5a1 1 0 00-.5.9v13.3c0 .2.1.4.3.4h.5L5.9 37c.3-.2.5-.5.5-.9v-6.2c0-.4.2-.7.5-.9l2.2-1.3.5-.1.5.1 2.2 1.3c.3.2.5.5.5.9v6.2c0 .4.2.7.5.9l5 2.9h.5c.2-.1.3-.3.3-.4V26.2zM60.1 7.9h-.5c-.2.1-.3.3-.3.4v13.2l-.2.3c-.1.1-.2.1-.4 0l-2.1-1.2a1 1 0 00-1 0l-8.5 5a1 1 0 00-.5.9v9.9c0 .4.2.7.5.9l8.5 5c.3.2.7.2 1 0l8.5-5c.3-.2.5-.5.5-.9V11.6a1 1 0 00-.5-.9l-5-2.8zm-.8 25.2l-.1.2-2.9 1.7H56l-2.9-1.7-.1-.2v-3.4l.1-.2 2.9-1.7h.3l2.9 1.7.1.2v3.4zM88.5 29.6c.3-.2.5-.5.5-.9v-2.4a1 1 0 00-.5-.9l-8.5-5a1 1 0 00-1 0l-8.5 5a1 1 0 00-.5.9v9.9c0 .4.2.7.5.9L79 42c.3.2.7.2 1 0l5.1-2.9c.2-.1.3-.3.3-.4s-.1-.4-.3-.4l-8.6-5c-.2-.1-.3-.3-.3-.4v-3.1c0-.2.1-.4.3-.4l2.7-1.5h.5l2.7 1.5c.2.1.3.3.3.4v2.4c0 .2.1.4.3.4h.5l5-3z" clip-rule="evenodd"/>
  <path fill="#c8c8c8" fill-rule="evenodd" d="M79.4 29.1h.2l1.6 1 .1.2v1.9l-.1.2-1.6 1h-.2l-1.6-1-.1-.2v-1.9l.1-.2 1.6-1zM32.3 20.6a1 1 0 011 0l8.4 4.9c.3.2.5.5.5.9v9.8c0 .4-.2.7-.5.9L33.3 42a1 1 0 01-1 0l-8.4-4.9a1 1 0 01-.5-.9v-9.8c0-.4.2-.7.5-.9l8.4-4.9z" clip-rule="evenodd"/>
</svg>