<?xml version="1.0" encoding="utf-8"?>
<!-- Generator: Adobe Illustrator 23.0.3, SVG Export Plug-In . SVG Version: 6.00 Build 0)  -->
<svg version="1.1" id="Layer_1" xmlns="http://www.w3.org/2000/svg" xmlns:xlink="http://www.w3.org/1999/xlink" x="0px" y="0px"
	 viewBox="0 0 151.5 67" style="enable-background:new 0 0 151.5 67;" xml:space="preserve">
<g>
	<defs>
		<rect id="SVGID_1_" x="27" y="6" width="89" height="55"/>
	</defs>
	<clipPath id="SVGID_2_">
		<use xlink:href="#SVGID_1_"  style="overflow:visible;"/>
	</clipPath>
	<g style="clip-path:url(#SVGID_2_);">
		<path style="fill:#FFFFFF;" d="M71,61c-0.3,0-0.6-0.1-0.8-0.2l-2.7-1.6c-0.4-0.2-0.2-0.3-0.1-0.3c0.5-0.2,0.6-0.2,1.2-0.5
			c0.1,0,0.1,0,0.2,0l2.1,1.2c0.1,0,0.2,0,0.2,0l8-4.7c0.1,0,0.1-0.1,0.1-0.2v-9.4c0-0.1,0-0.2-0.1-0.2l-8-4.7c-0.1,0-0.2,0-0.2,0
			l-8,4.7c-0.1,0-0.1,0.1-0.1,0.2v9.4c0,0.1,0,0.2,0.1,0.2l2.2,1.3c1.2,0.6,1.9-0.1,1.9-0.8v-9.2c0-0.1,0.1-0.2,0.2-0.2h1
			c0.1,0,0.2,0.1,0.2,0.2v9.2c0,1.6-0.9,2.5-2.4,2.5c-0.5,0-0.8,0-1.9-0.5l-2.1-1.2c-0.5-0.3-0.8-0.9-0.8-1.5v-9.4
			c0-0.6,0.3-1.2,0.8-1.5l8-4.7c0.5-0.3,1.2-0.3,1.7,0l8,4.7c0.5,0.3,0.8,0.9,0.8,1.5v9.4c0,0.6-0.3,1.2-0.8,1.5l-8,4.7
			C71.6,60.9,71.3,61,71,61z"/>
		<path style="fill:#FFFFFF;" d="M73.5,54.6c-3.5,0-4.2-1.6-4.2-3c0-0.1,0.1-0.2,0.2-0.2h1c0.1,0,0.2,0.1,0.2,0.2
			c0.2,1.1,0.6,1.6,2.8,1.6c1.7,0,2.4-0.4,2.4-1.3c0-0.5-0.2-0.9-2.8-1.2c-2.2-0.2-3.6-0.7-3.6-2.5c0-1.6,1.4-2.6,3.7-2.6
			c2.6,0,3.8,0.9,4,2.8c0,0.1,0,0.1-0.1,0.2c0,0-0.1,0.1-0.2,0.1h-1.1c-0.1,0-0.2-0.1-0.2-0.2c-0.2-1.1-0.9-1.5-2.5-1.5
			c-1.9,0-2.1,0.6-2.1,1.1c0,0.6,0.3,0.8,2.8,1.1c2.5,0.3,3.6,0.8,3.6,2.5C77.5,53.5,76,54.6,73.5,54.6z"/>
		<path style="fill-rule:evenodd;clip-rule:evenodd;fill:#FFFFFF;" d="M46.1,24.4c0-0.4-0.2-0.7-0.5-0.9l-8.5-5
			c-0.1-0.1-0.3-0.1-0.5-0.1c0,0-0.1,0-0.1,0c-0.2,0-0.3,0.1-0.5,0.1l-8.5,5C27.2,23.7,27,24,27,24.4l0,13.3c0,0.2,0.1,0.4,0.3,0.4
			c0.2,0.1,0.4,0.1,0.5,0l5.1-2.9c0.3-0.2,0.5-0.5,0.5-0.9v-6.2c0-0.4,0.2-0.7,0.5-0.9l2.2-1.3c0.2-0.1,0.3-0.1,0.5-0.1
			s0.4,0,0.5,0.1l2.2,1.3c0.3,0.2,0.5,0.5,0.5,0.9v6.2c0,0.4,0.2,0.7,0.5,0.9l5,2.9c0.2,0.1,0.4,0.1,0.5,0c0.2-0.1,0.3-0.3,0.3-0.4
			V24.4z"/>
		<path style="fill-rule:evenodd;clip-rule:evenodd;fill:#FFFFFF;" d="M87.1,6.1c-0.2-0.1-0.4-0.1-0.5,0c-0.2,0.1-0.3,0.3-0.3,0.4
			v13.2c0,0.1-0.1,0.2-0.2,0.3c-0.1,0.1-0.2,0.1-0.4,0l-2.1-1.2c-0.3-0.2-0.7-0.2-1,0l-8.5,5c-0.3,0.2-0.5,0.5-0.5,0.9v9.9
			c0,0.4,0.2,0.7,0.5,0.9l8.5,5c0.3,0.2,0.7,0.2,1,0l8.5-5c0.3-0.2,0.5-0.5,0.5-0.9V9.8c0-0.4-0.2-0.7-0.5-0.9L87.1,6.1z M86.3,31.3
			c0,0.1,0,0.2-0.1,0.2l-2.9,1.7c-0.1,0-0.2,0-0.3,0l-2.9-1.7c-0.1,0-0.1-0.1-0.1-0.2v-3.4c0-0.1,0-0.2,0.1-0.2L83,26
			c0.1,0,0.2,0,0.3,0l2.9,1.7c0.1,0,0.1,0.1,0.1,0.2V31.3z"/>
		<path style="fill-rule:evenodd;clip-rule:evenodd;fill:#FFFFFF;" d="M115.5,27.8c0.3-0.2,0.5-0.5,0.5-0.9v-2.4
			c0-0.4-0.2-0.7-0.5-0.9l-8.5-5c-0.3-0.2-0.7-0.2-1,0l-8.5,5c-0.3,0.2-0.5,0.5-0.5,0.9v9.9c0,0.4,0.2,0.7,0.5,0.9l8.5,4.9
			c0.3,0.2,0.7,0.2,1,0l5.1-2.9c0.2-0.1,0.3-0.3,0.3-0.4c0-0.2-0.1-0.4-0.3-0.4l-8.6-5c-0.2-0.1-0.3-0.3-0.3-0.4v-3.1
			c0-0.2,0.1-0.4,0.3-0.4l2.7-1.5c0.2-0.1,0.4-0.1,0.5,0l2.7,1.5c0.2,0.1,0.3,0.3,0.3,0.4v2.4c0,0.2,0.1,0.4,0.3,0.4
			c0.2,0.1,0.4,0.1,0.5,0L115.5,27.8z"/>
		<path style="fill-rule:evenodd;clip-rule:evenodd;fill:#FFFFFF;" d="M106.4,27.4c0.1,0,0.1,0,0.2,0l1.6,1c0.1,0,0.1,0.1,0.1,0.2
			v1.9c0,0.1,0,0.1-0.1,0.2l-1.6,1c-0.1,0-0.1,0-0.2,0l-1.6-1c-0.1,0-0.1-0.1-0.1-0.2v-1.9c0-0.1,0-0.1,0.1-0.2L106.4,27.4z"/>
		
			<linearGradient id="SVGID_3_" gradientUnits="userSpaceOnUse" x1="50.317" y1="38.4893" x2="69.2685" y2="38.4893" gradientTransform="matrix(1 0 0 -1 0 68)">
			<stop  offset="5.301340e-03" style="stop-color:#FFFFFF"/>
			<stop  offset="0.1938" style="stop-color:#E8E8E8"/>
			<stop  offset="0.5423" style="stop-color:#C2C2C2"/>
			<stop  offset="0.8235" style="stop-color:#ABABAB"/>
			<stop  offset="1" style="stop-color:#A3A3A3"/>
		</linearGradient>
		<path style="fill-rule:evenodd;clip-rule:evenodd;fill:url(#SVGID_3_);" d="M59.3,18.8c0.3-0.2,0.7-0.2,1,0l8.4,4.9
			c0.3,0.2,0.5,0.5,0.5,0.9v9.8c0,0.4-0.2,0.7-0.5,0.9l-8.4,4.9c-0.3,0.2-0.7,0.2-1,0l-8.4-4.9c-0.3-0.2-0.5-0.5-0.5-0.9v-9.8
			c0-0.4,0.2-0.7,0.5-0.9L59.3,18.8z"/>
		<path style="opacity:0.66;fill:#4B4B4B;enable-background:new    ;" d="M68.7,23.7l-8.4-4.9c-0.1,0-0.2-0.1-0.3-0.1l-9.5,16.4
			c0.1,0.1,0.2,0.2,0.3,0.2l8.5,4.9c0.3,0.1,0.5,0.2,0.8,0.1L69,23.9C68.9,23.8,68.8,23.7,68.7,23.7z"/>
		
			<linearGradient id="SVGID_4_" gradientUnits="userSpaceOnUse" x1="50.1833" y1="38.5203" x2="69.7331" y2="38.5203" gradientTransform="matrix(1 0 0 -1 0 68)">
			<stop  offset="0" style="stop-color:#A3A3A3"/>
			<stop  offset="0.1765" style="stop-color:#ABABAB"/>
			<stop  offset="0.4577" style="stop-color:#C2C2C2"/>
			<stop  offset="0.8062" style="stop-color:#E8E8E8"/>
			<stop  offset="0.9947" style="stop-color:#FFFFFF"/>
		</linearGradient>
		<path style="fill:url(#SVGID_4_);" d="M60.3,40.3l8.4-4.9c0.3-0.2,0.5-0.5,0.5-0.9v0L60,18.6c-0.3-0.1-0.5,0-0.8,0.1l-8.4,4.9
			L60,40.4C60.1,40.3,60.2,40.3,60.3,40.3z"/>
	</g>
</g>
</svg>
