<svg xmlns="http://www.w3.org/2000/svg" viewBox="0 0 89 58.2" role="img">
  <path fill="#c8c8c8" d="M62.9 31v13.1c0 1.5-.8 2.4-2.3 2.5l-5.2.3-10.7.6-9.4.5c-1 .1-1.9 0-2.6-.8l-1.4-1.8-3.9-5a6.3 6.3 0 01-1.4-4V14.1l.1-.8c.2-1.1.9-1.8 2-1.9l4.2-.3 9.9-.7 8.4-.6c1.4-.1 2.7.3 3.9 1.1l7.5 5.3c.6.4.9 1 .9 1.7V31zm-2.5.2V20.3v-.5c-.1-.8-.4-1.1-1.3-1.1l-3.3.2-11 .7-9.6.6c-1.1.1-1.5.4-1.5 1.6v22l.1.6c.1.5.4.9.9 1l1.2.1 9.4-.5 13.6-.8c.9-.1 1.4-.5 1.4-1.4v-.5l.1-11.1zm-2.8-15.1l.1-.1-.4-.4-3.7-2.7c-.8-.6-1.7-.9-2.7-.8l-7 .5-12.5.9-1.6.2c-.2 0-.4.2-.4.3l.2.4 1.2 1 2.1 1.6c.8.6 1.7.4 2.6.4l7.6-.5 13.5-.8h1z"/>
  <path fill="#c8c8c8" d="M42.5 28.7v10.5c0 .4.1.5.5.6l1.8.4c-.1.7-.4 1.1-1.2 1.3l-1.6.1-3.9.2c-.3 0-.4-.1-.4-.4.1-.4.3-.7.7-.8l1.2-.3V25.7l-1.8-.2c-.3-.8.3-1.6 1.1-1.7l3.4-.2 1.9-.1c.3 0 .4.1.6.3l6.8 10.4.5.8V24.8l-1.5-.2c-.4 0-.4-.2-.4-.5.1-.5.5-1 1.1-1l5.2-.3c.3.8 0 1.3-.8 1.4-1 .2-1 .2-1 1.2v14.9c0 .4-.1.6-.4.7-.9.4-1.7.7-2.7.5a2 2 0 01-1.4-.9l-2.3-3.5-5.2-8.1-.2-.3z"/>
</svg>