<?xml version="1.0" encoding="utf-8"?>
<!-- Generator: Adobe Illustrator 23.0.3, SVG Export Plug-In . SVG Version: 6.00 Build 0)  -->
<svg version="1.1" id="Layer_1" xmlns="http://www.w3.org/2000/svg" xmlns:xlink="http://www.w3.org/1999/xlink" x="0px" y="0px"
	 viewBox="0 0 89 58.2" style="enable-background:new 0 0 89 58.2;" xml:space="preserve">
<g>
	<path style="fill-rule:evenodd;clip-rule:evenodd;fill:#C7C7C7;" d="M48.2,30.1c-1.3,0-2.4,1-2.4,2.2v9.7c0,1.2,1.1,2.2,2.4,2.2
		c1.3,0,2.4-1,2.4-2.2v-9.7C50.6,31.1,49.5,30.1,48.2,30.1z M55.7,21.3c-1.3,0-2.4,1-2.4,2.2v18.4c0,1.2,1.1,2.2,2.4,2.2
		c1.3,0,2.4-1,2.4-2.2V23.5C58.1,22.2,57,21.3,55.7,21.3z M40.8,26.7c-1.3,0-2.4,1-2.4,2.2v13c0,1.2,1.1,2.2,2.4,2.2
		c1.3,0,2.4-1,2.4-2.2v-13C43.1,27.7,42.1,26.7,40.8,26.7z M33.3,34.7c-1.3,0-2.4,1-2.4,2.2v5.1c0,1.2,1.1,2.2,2.4,2.2
		c1.3,0,2.4-1,2.4-2.2v-5.1C35.7,35.6,34.6,34.7,33.3,34.7z M66.2,18.8v16.5c0,2.6-2.3,4.7-5.1,4.7h-0.8v-1.6H61
		c1.9,0,3.4-1.4,3.4-3.1V18.8c0-1.7-1.5-3.1-3.4-3.1H28c-1.9,0.1-3.4,1.4-3.4,3.1v16.5c0,1.7,1.5,3.1,3.4,3.1h0.8v1.6H28
		c-2.8,0-5.1-2.1-5.1-4.7V18.8c0-2.6,2.3-4.7,5.1-4.7h33.1C63.9,14.1,66.2,16.2,66.2,18.8z"/>
</g>
</svg>
