<svg xmlns="http://www.w3.org/2000/svg" viewBox="0 0 89 58.2" role="img" aria-label="[title]">
  <title>Power BI</title>
  <path fill="#c7c7c7" d="M33.3 34.7c-1.3 0-2.4 1-2.4 2.2V42c0 1.2 1.1 2.2 2.4 2.2s2.4-1 2.4-2.2v-5.1c0-1.3-1.1-2.2-2.4-2.2zM40.8 26.7c-1.3 0-2.4 1-2.4 2.2v13c0 1.2 1.1 2.2 2.4 2.2s2.4-1 2.4-2.2v-13a2.4 2.4 0 00-2.4-2.2zM55.7 21.3c-1.3 0-2.4 1-2.4 2.2v18.4c0 1.2 1.1 2.2 2.4 2.2s2.4-1 2.4-2.2V23.5c0-1.3-1.1-2.2-2.4-2.2zM48.2 30.1c-1.3 0-2.4 1-2.4 2.2V42c0 1.2 1.1 2.2 2.4 2.2s2.4-1 2.4-2.2v-9.7c0-1.2-1.1-2.2-2.4-2.2z"/>
  <path fill="#c7c7c7" d="M61.1 14.1H28c-2.8 0-5.1 2.1-5.1 4.7v16.5c0 2.6 2.3 4.7 5.1 4.7h.8v-1.6H28c-1.9 0-3.4-1.4-3.4-3.1V18.8c0-1.7 1.5-3 3.4-3.1h33c1.9 0 3.4 1.4 3.4 3.1v16.5c0 1.7-1.5 3.1-3.4 3.1h-.7V40h.8c2.8 0 5.1-2.1 5.1-4.7V18.8c0-2.6-2.3-4.7-5.1-4.7z"/>
</svg>