<svg xmlns="http://www.w3.org/2000/svg" viewBox="0 0 89 58.2" role="img" aria-label="[title]">
  <title>Progressive Web Apps</title>
  <path fill="#8E8E8E" d="M60.3 37.3l1.9-5h5.6l-2.7-7.5 3.3-8.5L78 41.9h-7l-1.6-4.6h-9.1z"/>
  <path fill="#C8C8C8" d="M54.3 41.9l10.2-25.6h-6.7l-7 16.5-4.9-16.5h-5.2l-5.3 16.5-3.7-7.5-3.4 10.6 3.4 6h6.6l4.8-14.8 4.6 14.8h6.6z"/>
  <path fill="#8E8E8E" d="M17.4 33.1h4.2c1.3 0 2.4-.1 3.4-.4l1.1-3.4 3-9.4-.8-1c-1.5-1.7-3.8-2.6-6.8-2.6H11v25.6h6.4v-8.8zm5.5-10.9c.6.6.9 1.4.9 2.5a4 4 0 01-.8 2.5c-.6.7-1.6 1-3.2 1h-2.4v-6.9h2.4c1.5 0 2.5.3 3.1.9z"/>
</svg>