<?xml version="1.0" encoding="utf-8"?>
<!-- Generator: Adobe Illustrator 23.0.3, SVG Export Plug-In . SVG Version: 6.00 Build 0)  -->
<svg version="1.1" id="Layer_1" xmlns="http://www.w3.org/2000/svg" xmlns:xlink="http://www.w3.org/1999/xlink" x="0px" y="0px"
	 viewBox="0 0 151.5 67" style="enable-background:new 0 0 151.5 67;" xml:space="preserve">
<path style="fill:#F4F4F4;" d="M60.3,25.9c0.5-0.2,1-0.3,1.5-0.5c-0.1-0.4-0.2-0.7-0.2-1.1c-1.2-5.7-0.4-10.3,2.2-11.8
	c2.5-1.5,6.6,0.1,10.7,3.7c0.4,0.4,0.8,0.7,1.2,1.1c0.3-0.3,0.5-0.5,0.8-0.7c4.3-3.9,8.7-5.5,11.3-4c2.5,1.5,3.2,5.8,2.2,11.2
	c-0.1,0.5-0.2,1.1-0.4,1.6c0.6,0.2,1.2,0.4,1.8,0.6c5.1,1.8,8.3,4.6,8.3,7.5c0,3-3.5,6-8.8,7.8c-0.4,0.1-0.9,0.3-1.3,0.4
	c0.1,0.6,0.3,1.1,0.4,1.7c1,5.3,0.2,9.5-2.3,11c-2.6,1.5-6.9,0-11.1-3.7c-0.3-0.3-0.7-0.6-1-0.9c-0.4,0.4-0.9,0.8-1.3,1.2
	c-4.1,3.5-8.1,5-10.6,3.5c-2.6-1.5-3.4-6-2.3-11.6c0.1-0.4,0.2-0.9,0.3-1.3c-0.3-0.1-0.6-0.2-0.9-0.3c-5.5-1.8-9.1-4.8-9.1-7.8
	C51.7,30.5,55.1,27.7,60.3,25.9z M73.2,17.8c-3.5-3.1-6.9-4.3-8.4-3.5c-1.6,0.9-2.2,4.7-1.2,9.6c0.1,0.3,0.1,0.6,0.2,1
	c2-0.5,4.2-0.8,6.4-1c1.3-1.9,2.7-3.6,4.1-5.1C73.9,18.5,73.6,18.1,73.2,17.8z M85.6,35.9c-0.4,0.8-0.9,1.7-1.4,2.5
	c-0.5,0.8-1,1.7-1.5,2.5c1.6-0.2,3.1-0.4,4.4-0.7C86.7,38.8,86.2,37.4,85.6,35.9z M85.6,31.1c0.6-1.4,1.1-2.8,1.5-4.2
	c-1.4-0.3-2.8-0.6-4.4-0.8c0.5,0.8,1,1.6,1.5,2.4C84.7,29.4,85.2,30.2,85.6,31.1z M84.5,33.5c-0.6-1.3-1.3-2.6-2-3.9
	c-0.7-1.3-1.5-2.5-2.3-3.7c-1.4-0.1-2.9-0.2-4.4-0.2c-1.5,0-3,0.1-4.4,0.2c-0.8,1.2-1.6,2.5-2.3,3.7c-0.7,1.3-1.4,2.6-2.1,3.9
	c0.6,1.3,1.3,2.6,2.1,3.9c0.7,1.3,1.5,2.5,2.3,3.7c1.4,0.1,2.9,0.2,4.4,0.2c1.5,0,2.9,0,4.3-0.1c0.8-1.2,1.6-2.5,2.3-3.7
	C83.2,36.1,83.9,34.8,84.5,33.5z M67.3,38.4c-0.5-0.8-0.9-1.7-1.4-2.6c-0.6,1.5-1.2,2.9-1.6,4.3c1.4,0.3,2.9,0.6,4.5,0.8
	C68.2,40.1,67.7,39.3,67.3,38.4z M65.9,31.1c0.4-0.8,0.9-1.7,1.4-2.5c0.5-0.8,1-1.6,1.5-2.4c-1.5,0.2-3,0.5-4.4,0.8
	C64.8,28.3,65.3,29.7,65.9,31.1z M75.7,20.3c-0.9,1-1.9,2.2-2.8,3.4c1.9-0.1,3.8-0.1,5.7,0C77.6,22.5,76.7,21.3,75.7,20.3z
	 M86.8,14.4c-1.6-0.9-5.2,0.4-8.9,3.7c-0.2,0.2-0.5,0.4-0.7,0.7c1.4,1.5,2.8,3.2,4.1,5.1c2.3,0.2,4.4,0.5,6.4,1
	c0.1-0.5,0.2-1,0.3-1.5C88.9,18.8,88.3,15.3,86.8,14.4z M89.1,39.7c0.4-0.1,0.8-0.2,1.2-0.4c2.3-0.8,4.3-1.9,5.6-3
	c1.2-1,1.8-2,1.8-2.9c0-1.8-2.6-4-7-5.5c-0.5-0.2-1.1-0.4-1.7-0.5c-0.6,2-1.4,4-2.3,6.1C87.7,35.6,88.5,37.7,89.1,39.7z M78,49.1
	c1.9,1.6,3.7,2.8,5.4,3.4c1.5,0.5,2.7,0.5,3.4,0.1c1.5-0.9,2.1-4.3,1.3-8.8c-0.1-0.5-0.2-1.1-0.4-1.6c-2,0.4-4.1,0.8-6.5,0.9
	c-1.3,1.9-2.7,3.6-4.1,5.1C77.4,48.6,77.7,48.8,78,49.1z M75.7,46.8c1-1.1,1.9-2.2,2.9-3.5c-0.9,0-1.9,0.1-2.8,0.1
	c-1,0-1.9,0-2.9-0.1C73.8,44.6,74.7,45.7,75.7,46.8z M63.2,49.6c0.3,1.6,0.9,2.6,1.6,3c1.5,0.9,4.8-0.3,8.2-3.3
	c0.4-0.3,0.8-0.7,1.2-1.1c-1.4-1.5-2.7-3.2-4-5.1c-2.3-0.2-4.5-0.5-6.5-1c-0.1,0.4-0.2,0.8-0.3,1.2C63,45.7,62.9,47.9,63.2,49.6z
	 M61.5,39.3c0.3,0.1,0.5,0.2,0.8,0.3c0.6-1.9,1.4-4,2.4-6.1c-1-2.1-1.7-4.1-2.3-6c-0.5,0.1-1,0.3-1.4,0.5c-4.4,1.5-7.2,3.8-7.2,5.6
	C53.8,35.3,56.7,37.8,61.5,39.3z"/>
<path style="fill:#F4F4F4;" d="M75.8,29.2c-2.4,0-4.3,1.9-4.3,4.3s1.9,4.3,4.3,4.3s4.3-1.9,4.3-4.3C80,31.1,78.1,29.2,75.8,29.2z"/>
</svg>
