<svg xmlns="http://www.w3.org/2000/svg" viewBox="0 0 89 58.2" role="img">
  <path fill="#c8c8c8" d="M29 21.5l1.5-.5-.2-1.1c-1.2-5.7-.4-10.3 2.2-11.8 2.5-1.5 6.6.1 10.7 3.7l1.2 1.1.8-.7c4.3-3.9 8.7-5.5 11.3-4 2.5 1.5 3.2 5.8 2.2 11.2l-.4 1.6 1.8.6c5.1 1.8 8.3 4.6 8.3 7.5 0 3-3.5 6-8.8 7.8l-1.3.4.4 1.7c1 5.3.2 9.5-2.3 11-2.6 1.5-6.9 0-11.1-3.7l-1-.9-1.3 1.2c-4.1 3.5-8.1 5-10.6 3.5-2.6-1.5-3.4-6-2.3-11.6l.3-1.3-.9-.3c-5.5-1.8-9.1-4.8-9.1-7.8.1-3 3.4-5.8 8.6-7.6zm12.9-8.1c-3.5-3.1-6.9-4.3-8.4-3.5-1.6.9-2.2 4.7-1.2 9.6l.2 1c2-.5 4.2-.8 6.4-1 1.3-1.9 2.7-3.6 4.1-5.1a11 11 0 00-1.1-1zm12.4 18.1L52.9 34l-1.5 2.5 4.4-.7c-.3-1.4-.9-2.8-1.5-4.3zm0-4.8l1.5-4.2-4.4-.8 1.5 2.4c.6.9 1 1.7 1.4 2.6zm-1.1 2.4l-2-3.9-2.3-3.7a62 62 0 00-8.8 0l-2.3 3.7-2.1 3.9 2.1 3.9 2.3 3.7 4.4.2 4.3-.1a74.5 74.5 0 004.4-7.7zM36 34l-1.4-2.6c-.6 1.5-1.2 2.9-1.6 4.3l4.5.8L36 34zm-1.4-7.3l1.4-2.5 1.5-2.4-4.4.8 1.5 4.1zm9.9-10.8l-2.8 3.4h5.7l-2.9-3.4zm11-5.9c-1.6-.9-5.2.4-8.9 3.7l-.7.7c1.4 1.5 2.8 3.2 4.1 5.1 2.3.2 4.4.5 6.4 1l.3-1.5c.9-4.6.3-8.1-1.2-9zm2.4 25.3l1.2-.4c2.3-.8 4.3-1.9 5.6-3 1.2-1 1.8-2 1.8-2.9 0-1.8-2.6-4-7-5.5l-1.7-.5c-.6 2-1.4 4-2.3 6.1 1 2.1 1.8 4.2 2.4 6.2zm-11.1 9.4c1.9 1.6 3.7 2.8 5.4 3.4 1.5.5 2.7.5 3.4.1 1.5-.9 2.1-4.3 1.3-8.8l-.4-1.6c-2 .4-4.1.8-6.5.9a43.5 43.5 0 01-4.1 5.1l.9.9zm-2.4-2.3a54 54 0 002.9-3.5l-2.8.1-2.9-.1c.9 1.3 1.9 2.4 2.8 3.5zM32 45.2c.3 1.6.9 2.6 1.6 3 1.5.9 4.8-.3 8.2-3.3l1.2-1.1a43 43 0 01-4-5.1c-2.3-.2-4.5-.5-6.5-1l-.3 1.2c-.5 2.4-.6 4.6-.2 6.3zm-1.8-10.3l.8.3c.6-1.9 1.4-4 2.4-6.1-1-2.1-1.7-4.1-2.3-6l-1.4.5c-4.4 1.5-7.2 3.8-7.2 5.6 0 1.7 3 4.1 7.7 5.7z"/>
  <path fill="#c8c8c8" d="M44.5 24.8c-2.4 0-4.3 1.9-4.3 4.3s1.9 4.3 4.3 4.3 4.3-1.9 4.3-4.3-1.9-4.3-4.3-4.3z"/>
</svg>