<svg xmlns="http://www.w3.org/2000/svg" viewBox="0 0 89 58.2" role="img">
    <path fill="#c8c8c8" d="M51.5 12.4l-1.3.4-.6-1.5c-.9-1.8-2.3-2.7-3.9-2.7h-.4l-.1-.2a3.3 3.3 0 00-2.7-1.1c-2.1.1-4.2 1.6-5.9 4.3a17.7 17.7 0 00-2.4 6.2l-4.1 1.3c-1.2.4-1.3.4-1.4 1.6l-3.3 25.6L52 50.9V12.4h-.5zm-6.2 1.9l-4.5 1.4c.4-1.7 1.3-3.3 2.3-4.4.4-.4.9-.8 1.5-1.1.6 1.2.8 2.9.7 4.1zm-2.9-5.6c.5 0 .9.1 1.3.3-.6.3-1.1.7-1.7 1.3a12.6 12.6 0 00-2.8 5.8l-3.7 1.1c.9-3.3 3.7-8.4 6.9-8.5zm-4 19.4c.1 2.3 6.1 2.7 6.4 8.1.2 4.2-2.2 7-5.8 7.2-4.3.3-6.6-2.3-6.6-2.3l.9-3.9s2.4 1.8 4.3 1.7a1.8 1.8 0 001.7-1.8c-.2-3-5-2.8-5.3-7.6-.3-4.1 2.4-8.2 8.3-8.6 2.3-.1 3.4.4 3.4.4l-1.3 5.1s-1.5-.7-3.3-.6c-2.7.2-2.8 1.9-2.7 2.3zm8.3-14.2c0-1.1-.1-2.6-.6-3.8 1.6.3 2.4 2.1 2.7 3.2l-2.1.6zM52.7 50.8l11-2.7-4.8-32.3c0-.2-.2-.4-.4-.4l-3.3-.1-2.6-2.5v38z"/>
</svg>