<?xml version="1.0" encoding="utf-8"?>
<!-- Generator: Adobe Illustrator 23.0.3, SVG Export Plug-In . SVG Version: 6.00 Build 0)  -->
<svg version="1.1" id="Layer_1" xmlns="http://www.w3.org/2000/svg" xmlns:xlink="http://www.w3.org/1999/xlink" x="0px" y="0px"
	 viewBox="0 0 89 58.2" style="enable-background:new 0 0 89 58.2;" xml:space="preserve">
<path style="fill:#C7C7C7;" d="M63.8,38c-0.3-0.7-0.8-1.1-1.4-1.5c-0.1-0.1-0.2-0.1-0.3-0.2c-0.2-0.1-0.4-0.2-0.5-0.3
	c-1.8-1-3.3-2.2-4.2-3.6c-0.3-0.5-0.6-0.9-0.7-1.3c-0.1-0.2-0.1-0.4,0-0.5c0-0.1,0.2-0.2,0.2-0.2c0.3-0.2,0.6-0.4,0.9-0.6
	c0.4-0.3,0.7-0.5,0.9-0.6c0.8-0.5,1.3-1.1,1.6-1.7c0.5-0.9,0.5-1.9,0.2-2.8c-0.5-1.3-1.7-2.1-3.2-2.1c-0.3,0-0.6,0-0.9,0.1
	c-0.1,0-0.2,0-0.2,0.1c0-0.9,0-1.8-0.1-2.8c-0.3-3.3-1.4-5-2.6-6.3c-0.5-0.6-1.4-1.4-2.7-2.1c-1.8-1-3.9-1.6-6.1-1.6
	c-2.2,0-4.3,0.5-6.1,1.6c-1.3,0.7-2.2,1.6-2.7,2.1c-1.2,1.4-2.3,3.1-2.6,6.3C33,20.9,33,21.9,33,22.8c-0.1,0-0.2,0-0.2-0.1
	c-0.3-0.1-0.6-0.1-0.9-0.1c-1.5,0-2.7,0.8-3.2,2.1c-0.4,0.9-0.3,1.9,0.2,2.8c0.3,0.6,0.9,1.2,1.6,1.7c0.2,0.1,0.5,0.3,0.9,0.6
	c0.2,0.1,0.5,0.3,0.8,0.5c0,0,0.2,0.2,0.3,0.3c0.1,0.1,0.1,0.3,0,0.5c-0.2,0.4-0.4,0.8-0.7,1.3c-1,1.4-2.4,2.6-4.1,3.6
	c-0.9,0.5-1.9,0.8-2.3,1.9c-0.3,0.8-0.1,1.8,0.7,2.6c0.3,0.3,0.6,0.5,1,0.8c1,0.5,1.8,0.8,2.4,1c0.1,0,0.4,0.1,0.5,0.2
	c0.3,0.3,0.2,0.6,0.6,1.2c0.2,0.3,0.5,0.6,0.7,0.7c0.8,0.6,1.7,0.6,2.7,0.6c0.9,0,1.8,0.1,3,0.4c0.5,0.2,0.9,0.4,1.5,0.8
	c1.3,0.8,3.2,2,6.2,2c3.1,0,4.9-1.1,6.3-2c0.6-0.3,1-0.6,1.5-0.8c1.1-0.4,2.1-0.4,3-0.4c1,0,1.9-0.1,2.7-0.6
	c0.3-0.2,0.6-0.5,0.8-0.9c0.3-0.5,0.3-0.8,0.5-1c0.1-0.1,0.3-0.2,0.5-0.2c0.7-0.2,1.5-0.4,2.5-1c0.4-0.2,0.8-0.5,1-0.8c0,0,0,0,0,0
	C63.9,39.7,64.1,38.8,63.8,38z M61.1,39.4c-1.7,0.9-2.8,0.8-3.6,1.4c-0.7,0.5-0.3,1.5-0.8,1.9c-0.7,0.5-2.6,0-5.1,0.8
	c-2.1,0.7-3.4,2.6-7.1,2.6c-3.7,0-5-1.9-7.1-2.6c-2.5-0.8-4.4-0.3-5.1-0.8c-0.5-0.4-0.1-1.4-0.8-1.9c-0.9-0.6-2-0.5-3.6-1.4
	c-1.1-0.6-0.5-0.9-0.1-1.1c6-2.9,7-7.4,7-7.8c0.1-0.4,0.1-0.7-0.3-1.1c-0.4-0.4-2.3-1.6-2.9-2c-0.9-0.6-1.3-1.2-1-2
	c0.2-0.5,0.7-0.7,1.2-0.7c0.2,0,0.3,0,0.5,0.1c1,0.2,1.9,0.7,2.4,0.8c0.1,0,0.1,0,0.2,0c0.3,0,0.4-0.1,0.4-0.5c-0.1-1.1-0.2-3.1,0-5
	c0.2-2.6,1.1-3.9,2.1-5.1c0.5-0.6,2.8-3,7.1-3c4.4,0,6.6,2.4,7.1,3c1,1.2,1.9,2.5,2.1,5.1c0.2,1.9,0,4,0,5c0,0.3,0.1,0.5,0.4,0.5
	c0.1,0,0.1,0,0.2,0c0.5-0.1,1.5-0.6,2.4-0.8c0.2,0,0.3-0.1,0.5-0.1c0.5,0,1,0.2,1.2,0.7c0.3,0.8-0.1,1.4-1,2c-0.5,0.4-2.4,1.6-2.9,2
	c-0.4,0.4-0.4,0.7-0.3,1.1c0,0.3,1,4.8,7,7.8C61.6,38.5,62.2,38.9,61.1,39.4z"/>
</svg>
