<?xml version="1.0" encoding="utf-8"?>
<!-- Generator: Adobe Illustrator 23.0.3, SVG Export Plug-In . SVG Version: 6.00 Build 0)  -->
<svg version="1.1" id="Layer_1" xmlns="http://www.w3.org/2000/svg" xmlns:xlink="http://www.w3.org/1999/xlink" x="0px" y="0px"
	 viewBox="0 0 151.5 67" style="enable-background:new 0 0 151.5 67;" xml:space="preserve">
<g>
	<path style="fill:#C8C8C8;" d="M100.3,34.2c0,4.4-2.5,6.8-7.1,6.8c-4.5,0-7.1-2.4-7.1-6.8v-7.9h5.1v7.6c0,2.1,0.6,3.1,1.9,3.1
		c1.4,0,2.1-0.9,2.1-3.3v-7.4h5.1V34.2z"/>
	<path style="fill:#C8C8C8;" d="M27,30v10.7h-5.2V30h-4.4v-3.7h13.9V30H27z"/>
	<path style="fill:#C8C8C8;" d="M40,29.6l-1.3,4.9h2.6L40,29.6z M43.3,40.7l-0.9-2.6h-4.9l-0.9,2.6h-5.2l5.2-14.4h6.5l5.2,14.4H43.3
		z"/>
	<path style="fill:#C8C8C8;" d="M116.9,39.6l-1.6-3.7c-0.9,0.7-1.8,1.3-3.4,1.3c-2,0-3.4-1.7-3.4-3.7c0-2.1,1.2-3.8,3.3-3.8
		c1.3,0,2.5,0.7,3.4,1.4l1.5-3.6c-1.7-0.9-3.4-1.4-5.8-1.4c-4.4,0-7.6,3-7.6,7.4c0,4.6,3.2,7.6,7.8,7.6
		C113.8,41,115.6,40.4,116.9,39.6z"/>
	<path style="fill:#C8C8C8;" d="M128.5,40.7l-3.2-5.2v5.2h-5V26.3h5v5.3l3.1-5.3h5.6l-4.7,7.1l5.3,7.3H128.5z"/>
	<path style="fill:#C8C8C8;" d="M8.9,41c3.3,0,6.6-1.1,6.6-4.8c0-3.3-2.8-4.2-5-4.7C8.8,31.1,8,30.9,8,30.3c0-0.9,1.1-0.9,1.7-0.9
		c1.5,0,2.9,0.6,4.1,1.3l1.3-3.3c-1.8-0.8-3.9-1.3-5.9-1.3c-3.3,0-6,1.6-6,4.9c0,2.7,2.1,3.7,4.3,4.3c1.5,0.4,2.6,0.5,2.6,1.3
		c0,0.8-0.8,1-1.5,1c-1.7,0-3.2-0.7-4.2-1.5l-1.7,3.1C4.6,40.3,6.7,41,8.9,41z"/>
	<path style="fill:#C8C8C8;" d="M142.2,41c3.3,0,6.6-1.1,6.6-4.8c0-3.3-2.8-4.2-5-4.7c-1.7-0.4-2.5-0.5-2.5-1.2
		c0-0.9,1.1-0.9,1.7-0.9c1.5,0,2.9,0.6,4.1,1.3l1.3-3.3c-1.7-0.8-3.9-1.3-5.8-1.3c-3.4,0-6.1,1.6-6.1,4.9c0,2.7,2.1,3.7,4.3,4.3
		c1.6,0.4,2.6,0.5,2.6,1.3c0,0.8-0.7,1-1.5,1c-1.7,0-3.2-0.7-4.2-1.5l-1.6,3.1C137.9,40.3,140,41,142.2,41z"/>
	<path style="fill:#C8C8C8;" d="M62.1,35.3c1.8-0.6,2.7-2.4,2.7-4.1c0-3.4-2.3-4.9-5.6-4.9h-7.8v14.4h5v-4.3h1.3l2.6,4.3h5.4
		L62.1,35.3z M59.8,31.3c0,0.9-0.6,1.5-1.6,1.5h-1.7v-3.1h1.8C59.2,29.7,59.8,30.3,59.8,31.3z"/>
	<path style="fill:#C8C8C8;" d="M79.5,33.4c1.8-0.4,2.8-1.4,2.8-3.2c0-2.5-1.8-3.8-5.1-3.8H69v14.4h7.8c3.8,0,5.7-1.3,5.7-4.1
		C82.6,34.8,81.4,33.5,79.5,33.4z M74,29.5h1.8c0.9,0,1.5,0.4,1.5,1.3v0c0,0.8-0.6,1.3-1.6,1.3H74L74,29.5L74,29.5z M77.5,36.2
		c0,0.9-0.6,1.3-1.7,1.3H74v-2.7h1.8C76.8,34.9,77.5,35.3,77.5,36.2z"/>
</g>
</svg>
