<svg xmlns="http://www.w3.org/2000/svg" viewBox="0 0 89 58.2" role="img">
  <path fill="#c8c8c8" fill-rule="evenodd" d="M32.5 41.1v1.4l6.9.1 11-10.1s1.4-1.4.3-3.2c-.8-1.3-5.2.3-5.2.3l-13 11.5z" clip-rule="evenodd"/>
  <path fill="#c8c8c8" fill-rule="evenodd" d="M45.5 29.6s.2-1.2-.2-1.5c-.6-.6-3.9-.6-4.6-.6-.6 0-8.3 6.7-8.3 6.7v6.9l13.1-11.5zm4.9 2.9s1.9.7 2.6 2.3c.8 1.5-.3 3.8-1.4 5l-2.4 2.8h-9.9l11.1-10.1z" clip-rule="evenodd"/>
  <path fill="#c8c8c8" d="M56.2 20.4l-1.8 7.3.5.3c.3.2.7.1.7.1s2-6 2.2-7.4c.2-1.5-1.6-.3-1.6-.3z"/>
  <path fill="#c8c8c8" d="M59.5 15.6v5s-1.9.2-3-.1c-1.1-.4-2.3-1-2.3-1.7s.6-3.1.6-3.1l4.7-.1z"/>
  <path fill="#aaa" d="M47 32.6c1.4 0 5.2-3.8 5.2-5.7 0-.9-.4-1.2-1-1.2-1 0-2.2 1-3 1.7l-3 2.7s-.4 1.2.2 1.9c.6.6 1.1.6 1.6.6zm2 4.8c1.4 0 5.4-3.7 5.4-5.4s-.6-1.1-1.2-1.1-2.1.9-2.9 1.6l-3 2.7s-.3 1 .3 1.6c.7.6 1.1.6 1.4.6zm-7.4-6.7c1.4 0 5.2-3.8 5.2-5.7 0-.8-.3-1.2-.9-1.2-1 0-2.6 1.2-3.4 1.9l-2.7 2.4s-.4 1.2.2 1.9c.6.7 1 .7 1.6.7z"/>
  <path fill="#858585" d="M51.1 33c2.4 0 4.7-2.1 4.7-3.9l-.1-1.1s-.5.1-.7-.1l-.5-.3s-.9.8-1.2 1.7c-.3.9-.2 1.5-.7 2.4-.4.7-1.5 1.3-1.5 1.3z"/>
  <path fill="#aaa" d="M10.4 35.9l13.9 6.7v-2.2l-11.5-5.5 11.5-5.2v-2.2L10.4 34v1.9zm68.2-1.8l-13.9-6.7v2.2l11.5 5.5-11.5 5.2v2.2L78.6 36v-1.9z"/>
</svg>