<?xml version="1.0" encoding="utf-8"?>
<!-- Generator: Adobe Illustrator 23.0.3, SVG Export Plug-In . SVG Version: 6.00 Build 0)  -->
<svg version="1.1" id="Layer_1" xmlns="http://www.w3.org/2000/svg" xmlns:xlink="http://www.w3.org/1999/xlink" x="0px" y="0px"
	 viewBox="0 0 89 58.2" style="enable-background:new 0 0 89 58.2;" xml:space="preserve">
<g>
	<path style="fill:#C7C7C7;" d="M43.4,36.3h2.3v-6.2h5.8v-2.2h-5.8v-6.2h-2.3v6.2h-5.7v2.2h5.7V36.3z"/>
	<path style="fill:#404141;" d="M32.7,45.3h2v-5.5h5.2V38h-5.2v-5.6h-1.9V38h-5.2v1.7h5.2V45.3z"/>
	<path style="fill:#9C9C9C;" d="M54.4,25.3h2v-5.5h5.2v-1.7h-5.2v-5.6h-2v5.6h-5.2v1.7h5.2V25.3z"/>
	<path style="fill:#9C9C9C;" d="M43.7,49.6h1.7v-3.9h3.6v-1.4h-3.6v-3.9h-1.7v3.9h-3.5v1.4h3.5V49.6z"/>
	<path style="fill:#9C9C9C;" d="M32.8,25.3h1.8v-5.6h5.2v-1.6h-5.2v-5.6h-1.8v5.6h-5.2v1.6h5.2V25.3z"/>
	<path style="fill:#7E7E7F;" d="M60.3,33.6h1.7v-3.9h3.6v-1.5h-3.6v-3.9h-1.7v3.9h-3.5v1.5h3.5V33.6z"/>
	<path style="fill-rule:evenodd;clip-rule:evenodd;fill:#4F4F4F;" d="M54.4,45.3h2v-5.5h5.2V38h-5.2v-5.6h-2V38h-5.2v1.7h5.2V45.3z"
		/>
	<path style="fill:#7E7E7F;" d="M48.6,13.6v-1.2h-3.5V8.6h-1.3v3.8h-3.5v1.2h3.5v3.8h1.3v-3.8H48.6z M27,33.3h1.3v-3.8h3.5v-1.2
		h-3.5v-3.7H27v3.7h-3.5v1.2l3.5-0.1V33.3z"/>
</g>
</svg>
