<?xml version="1.0" encoding="utf-8"?>
<!-- Generator: Adobe Illustrator 23.0.3, SVG Export Plug-In . SVG Version: 6.00 Build 0)  -->
<svg version="1.1" id="Layer_1" xmlns="http://www.w3.org/2000/svg" xmlns:xlink="http://www.w3.org/1999/xlink" x="0px" y="0px"
	 viewBox="0 0 151.5 67" style="enable-background:new 0 0 151.5 67;" xml:space="preserve">
<g>
	<path style="fill:#C8C8C8;" d="M49.2,29.3h10.3c1.4-0.3,2.5-1.5,2.8-2.8H46.4C46.7,27.8,47.8,29,49.2,29.3z"/>
	<path style="fill:#C8C8C8;" d="M49.2,34.8h10.3c1.4-0.3,2.5-1.5,2.8-2.8H46.4C46.7,33.3,47.8,34.6,49.2,34.8z"/>
	<path style="fill:#C8C8C8;" d="M49.2,40.5h10.3c1.4-0.3,2.5-1.5,2.8-2.8H46.4C46.7,38.9,47.8,40.2,49.2,40.5z"/>
	<path style="fill:#C8C8C8;" d="M116.1,29.3h10.4c1.4-0.3,2.5-1.5,2.8-2.8h-16C113.6,27.8,114.6,29,116.1,29.3z"/>
	<path style="fill:#C8C8C8;" d="M22.3,26.6c0.3,1.2,1.4,2.4,2.8,2.8h4.3l0.2,0.1v11h2.7v-11l0.2-0.1H37c1.5-0.4,2.5-1.5,2.8-2.8
		H22.3z"/>
	<path style="fill:#C8C8C8;" d="M105.5,40.5c1.4-0.6,2.1-1.6,2.4-2.7H95.7V26.5H93v13.9H105.5z"/>
	<path style="fill:#C8C8C8;" d="M72.9,29.3h9.6c1.4-0.4,2.7-1.5,3-2.7H70.2v8.2h12.5v2.9H73c-1.5,0.4-2.9,1.4-3.4,2.8h0.8h15.2v-8.4
		H72.9V29.3z"/>
	<path style="fill:#C8C8C8;" d="M113.7,32.1v8.4h2.7v-5.6h9.8v5.6h2.7v-8.4H113.7z"/>
</g>
</svg>
