<svg xmlns="http://www.w3.org/2000/svg" viewBox="0 0 151.5 67" role="img" aria-label="[title]">
  <title>Tesla, Inc.</title>
  <path fill="#c8c8c8" d="M35.2 29.3h10.3a3.8 3.8 0 002.8-2.8H32.4a3.8 3.8 0 002.8 2.8zM35.2 34.8h10.3a3.8 3.8 0 002.8-2.8H32.4c.3 1.3 1.4 2.6 2.8 2.8zM35.2 40.5h10.3a3.8 3.8 0 002.8-2.8H32.4a4 4 0 002.8 2.8zM102.1 29.3h10.4a3.8 3.8 0 002.8-2.8h-16a3.6 3.6 0 002.8 2.8zM8.3 26.6a4.1 4.1 0 002.8 2.8h4.3l.2.1v11h2.7v-11l.2-.1H23a3.8 3.8 0 002.8-2.8H8.3zM91.5 40.5a4 4 0 002.4-2.7H81.7V26.5H79v13.9h12.5zM58.9 29.3h9.6c1.4-.4 2.7-1.5 3-2.7H56.2v8.2h12.5v2.9H59c-1.5.4-2.9 1.4-3.4 2.8h16v-8.4H58.9v-2.8zM99.7 32.1v8.4h2.7v-5.6h9.8v5.6h2.7v-8.4H99.7z"/>
</svg>
