<svg xmlns="http://www.w3.org/2000/svg" viewBox="0 0 89 58.2" role="img" aria-label="[title]">
  <title>TikTok</title>
  <path fill="#4f4f4f" d="M28.8 42.6l.1.4-.1-.4zm5-7.9c.2-1.9 1-2.9 2.4-4 2-1.5 4.6-.6 4.6-.6V25l1.8.1v6.3s-2.5-.8-4.6.6c-1.4 1.1-2.2 2.1-2.4 4a6 6 0 001 3.5l-.7-.4c-1.8-1.1-2.1-3.1-2.1-4.4zm19.3-18.8a8.8 8.8 0 01-2.1-4.3h1.8s-.3 2.9 2.2 5.8c-.8-.4-1.4-.9-1.9-1.5zm8.4 4.5v6.2s-2.2-.1-3.9-.5c-2.3-.6-3.8-1.5-3.8-1.5l-1.1-.7v12.8c0 .7-.2 2.5-.8 4-.8 1.9-1.9 3.2-2.1 3.5 0 0-1.4 1.7-3.9 2.9-2.3 1-4.2 1-4.8 1 0 0-3.4.1-6.5-1.9l-1.9-1.5c3.1 2.1 6.5 1.9 6.5 1.9.6 0 2.6 0 4.8-1 2.5-1.2 3.9-2.9 3.9-2.9.2-.3 1.4-1.5 2.1-3.5.6-1.5.8-3.3.8-4V22.3l1.1.7a15.9 15.9 0 007.7 2v-4.9c.8.3 1.5.3 1.9.3z"/>
  <path fill="#c7c7c7" d="M59.7 20.2v4.9s-2.2-.1-3.9-.5C53.4 23.9 52 23 52 23l-1.1-.7v12.8c0 .7-.2 2.5-.8 4-.8 1.9-1.9 3.2-2.1 3.5 0 0-1.4 1.7-3.9 2.9-2.3 1-4.2 1-4.8 1 0 0-3.4.1-6.5-1.9l-.9-1a9.8 9.8 0 01-1.7-3.1c-.2-.7-.8-2.5-.7-4.2a11 11 0 011.4-5.3 11.8 11.8 0 019.9-6v5s-2.5-.8-4.6.6c-1.4 1.1-2.2 2.1-2.4 4 0 1.4.3 3.4 2.2 4.7l.7.4c.3.4.7.8 1.2 1.1a5.3 5.3 0 005.4.5 5.2 5.2 0 002.8-3c.3-.8.3-1.6.3-2.5V11.6H51a8.8 8.8 0 004 5.9c.2.2 1.2 1.3 2.6 1.9.6.4 1.3.6 2.1.8z"/>
  <path fill="#9c9c9c" d="M28.2 39l.1.3-.1-.3zM36.7 25.9a9.4 9.4 0 00-3.2 1.9c-1.1.9-2 2.1-2.7 3.3a11 11 0 00-1.4 5.3 11 11 0 00.7 4.2c.2.4.8 1.9 1.7 3.1l.9 1c-1-.7-2-1.6-2.8-2.6a9.8 9.8 0 01-1.7-3.1c-.2-.7-.8-2.5-.7-4.2a11 11 0 011.4-5.3 11.8 11.8 0 015.9-5.2l2.3-.7c1.2-.2 2.4-.2 3.6-.1V25c-1.3.1-2.7.3-4 .9z"/>
  <path fill="#9c9c9c" d="M50.9 11.6h-4.6v24.2c0 .9 0 1.7-.3 2.5a5.2 5.2 0 01-2.8 3c-2 .8-3.5.7-5.4-.5-.5-.3-.9-.7-1.2-1.1 1.6.8 3 .8 4.7.1a5.2 5.2 0 002.8-3c.3-.8.3-1.6.3-2.5V10.1h6.4l.1 1.5zm8.8 7.3v1.3c-.7-.2-1.5-.4-2.2-.8a13 13 0 01-2.6-1.9l.7.4c1.7.8 3.3 1 4.1 1z"/>
</svg>