<?xml version="1.0" encoding="utf-8"?>
<!-- Generator: Adobe Illustrator 23.0.3, SVG Export Plug-In . SVG Version: 6.00 Build 0)  -->
<svg version="1.1" id="Layer_1" xmlns="http://www.w3.org/2000/svg" xmlns:xlink="http://www.w3.org/1999/xlink" x="0px" y="0px"
	 viewBox="0 0 89 58.2" style="enable-background:new 0 0 89 58.2;" xml:space="preserve">
<g>
	<path style="fill:#4F4F4F;" d="M28.8,42.6l0.1,0.4C28.9,42.9,28.9,42.8,28.8,42.6z M33.8,34.7c0.2-1.9,1-2.9,2.4-4
		c2-1.5,4.6-0.6,4.6-0.6V25c0.6,0,1.2,0,1.8,0.1v6.3c0,0-2.5-0.8-4.6,0.6c-1.4,1.1-2.2,2.1-2.4,4c0,1,0.2,2.4,1,3.5
		c-0.2-0.1-0.4-0.2-0.7-0.4C34.1,38,33.8,36,33.8,34.7z M53.1,15.9c-1.4-1.6-1.9-3.2-2.1-4.3h1.8c0,0-0.3,2.9,2.2,5.8l0,0
		C54.2,17,53.6,16.5,53.1,15.9z M61.5,20.4v6.2c0,0-2.2-0.1-3.9-0.5c-2.3-0.6-3.8-1.5-3.8-1.5s-1-0.7-1.1-0.7v12.8
		c0,0.7-0.2,2.5-0.8,4c-0.8,1.9-1.9,3.2-2.1,3.5c0,0-1.4,1.7-3.9,2.9c-2.3,1-4.2,1-4.8,1c0,0-3.4,0.1-6.5-1.9
		c-0.7-0.5-1.3-1-1.9-1.5l0,0c3.1,2.1,6.5,1.9,6.5,1.9c0.6,0,2.6,0,4.8-1c2.5-1.2,3.9-2.9,3.9-2.9c0.2-0.3,1.4-1.5,2.1-3.5
		c0.6-1.5,0.8-3.3,0.8-4V22.3c0.1,0,1.1,0.7,1.1,0.7s1.5,0.9,3.8,1.5c1.7,0.4,3.9,0.5,3.9,0.5v-4.9C60.4,20.4,61.1,20.4,61.5,20.4z"
		/>
	<path style="fill:#C7C7C7;" d="M59.7,20.2v4.9c0,0-2.2-0.1-3.9-0.5C53.4,23.9,52,23,52,23s-1-0.7-1.1-0.7v12.8c0,0.7-0.2,2.5-0.8,4
		c-0.8,1.9-1.9,3.2-2.1,3.5c0,0-1.4,1.7-3.9,2.9c-2.3,1-4.2,1-4.8,1c0,0-3.4,0.1-6.5-1.9l0,0c-0.3-0.3-0.6-0.7-0.9-1
		c-1-1.2-1.6-2.7-1.7-3.1v0c-0.2-0.7-0.8-2.5-0.7-4.2c0.1-3,1.1-4.8,1.4-5.3c0.7-1.2,1.6-2.4,2.7-3.3c1-0.8,2.1-1.5,3.2-1.9
		c1.3-0.5,2.6-0.8,4-0.8V30c0,0-2.5-0.8-4.6,0.6c-1.4,1.1-2.2,2.1-2.4,4c0,1.4,0.3,3.4,2.2,4.7c0.2,0.1,0.4,0.3,0.7,0.4
		c0.3,0.4,0.7,0.8,1.2,1.1c1.9,1.2,3.4,1.3,5.4,0.5c1.3-0.5,2.3-1.7,2.8-3c0.3-0.8,0.3-1.6,0.3-2.5V11.6h4.6
		c0.2,1.1,0.7,2.7,2.1,4.3c0.6,0.6,1.2,1.1,1.9,1.6c0.2,0.2,1.2,1.3,2.6,1.9C58.2,19.8,58.9,20,59.7,20.2z"/>
	<path style="fill:#9C9C9C;" d="M28.2,39l0.1,0.3C28.3,39.3,28.2,39.2,28.2,39z"/>
	<path style="fill:#9C9C9C;" d="M36.7,25.9c-1.2,0.4-2.3,1.1-3.2,1.9c-1.1,0.9-2,2.1-2.7,3.3c-0.3,0.5-1.3,2.3-1.4,5.3
		c-0.1,1.7,0.4,3.4,0.7,4.2v0c0.2,0.4,0.8,1.9,1.7,3.1c0.3,0.4,0.6,0.7,0.9,1c-1-0.7-2-1.6-2.8-2.6c-1-1.2-1.6-2.7-1.7-3.1v0
		c-0.2-0.7-0.8-2.5-0.7-4.2c0.1-3,1.1-4.8,1.4-5.3c0.7-1.2,1.6-2.4,2.7-3.3c1-0.8,2.1-1.5,3.2-1.9c0.7-0.3,1.5-0.5,2.3-0.7
		c1.2-0.2,2.4-0.2,3.6-0.1V25C39.4,25.1,38,25.3,36.7,25.9z"/>
	<path style="fill:#9C9C9C;" d="M50.9,11.6h-4.6v24.2c0,0.9,0,1.7-0.3,2.5c-0.5,1.3-1.5,2.5-2.8,3c-2,0.8-3.5,0.7-5.4-0.5
		c-0.5-0.3-0.9-0.7-1.2-1.1c1.6,0.8,3,0.8,4.7,0.1c1.3-0.5,2.3-1.7,2.8-3c0.3-0.8,0.3-1.6,0.3-2.5V10.1h6.4
		C50.8,10.1,50.8,10.7,50.9,11.6z M59.7,18.9v1.3c-0.7-0.2-1.5-0.4-2.2-0.8c-1.3-0.7-2.4-1.7-2.6-1.9c0.2,0.2,0.5,0.3,0.7,0.4
		C57.3,18.7,58.9,18.9,59.7,18.9z"/>
</g>
</svg>
