<?xml version="1.0" encoding="utf-8"?>
<!-- Generator: Adobe Illustrator 23.0.3, SVG Export Plug-In . SVG Version: 6.00 Build 0)  -->
<svg version="1.1" id="Layer_1" xmlns="http://www.w3.org/2000/svg" xmlns:xlink="http://www.w3.org/1999/xlink" x="0px" y="0px"
	 viewBox="0 0 89 58.2" style="enable-background:new 0 0 89 58.2;" xml:space="preserve">
<path style="fill:#C8C8C8;" d="M55.8,14.1H33.3c-2.1,0-3.8,1.7-3.8,3.8v4.8c1.3,0.8,5,2.9,5.2,3c0.3,0.2,0.8,0.2,1.2,0
	c0.3-0.2,10.1-5.8,10.2-5.9c0.3-0.2,0.8-0.1,1,0c0.2,0.1,0.8,0.5,1,0.6c0.3,0.1,0.3,0.6,0,0.8c-0.3,0.1-11.6,6.7-12.2,6.9
	c-0.4,0.3-0.8,0.3-1.2,0c-0.7-0.4-3.7-2.1-5.2-3v2.6c1.3,0.8,4.9,2.8,5.2,3c0.3,0.2,0.8,0.2,1.2,0c0.3-0.2,10.1-5.8,10.2-5.9
	c0.3-0.2,0.8-0.1,1,0c0.2,0.1,0.8,0.5,1,0.6c0.3,0.1,0.3,0.6,0,0.8c-0.3,0.1-11.6,6.7-12.2,6.9c-0.4,0.3-0.8,0.3-1.3,0
	c-0.8-0.4-3.9-2.2-5.1-2.9v2.5c1.3,0.8,5,2.9,5.2,3c0.3,0.2,0.8,0.2,1.2,0c0.3-0.2,10.1-5.8,10.2-5.9c0.3-0.2,0.8-0.1,1,0
	c0.2,0.1,0.8,0.5,1,0.6c0.3,0.1,0.3,0.6,0,0.8c-0.3,0.1-11.6,6.7-12.2,6.9c-0.4,0.3-0.8,0.3-1.2,0c-0.7-0.4-3.7-2.1-5.2-3v5.1
	c0,2.1,1.7,3.8,3.8,3.8h22.5c2.1,0,3.8-1.7,3.8-3.8V17.8C59.6,15.8,57.9,14.1,55.8,14.1z"/>
</svg>
