<?xml version="1.0" encoding="utf-8"?>
<!-- Generator: Adobe Illustrator 23.0.3, SVG Export Plug-In . SVG Version: 6.00 Build 0)  -->
<svg version="1.1" id="Layer_1" xmlns="http://www.w3.org/2000/svg" xmlns:xlink="http://www.w3.org/1999/xlink" x="0px" y="0px"
	 viewBox="0 0 89 58.2" style="enable-background:new 0 0 89 58.2;" xml:space="preserve">
<g>
	<path style="fill:#C8C8C8;" d="M59.8,44.6c0.2,0,0.2,0,0.2-0.2c0-10.2,0-20.4,0-30.6c0-0.1,0-0.1,0-0.2c-10.3,0-20.7,0-31,0
		c0,10.3,0,20.7,0,31c0.1,0,0.1,0,0.2,0C39.4,44.6,49.6,44.6,59.8,44.6z M47.7,39c0.7-0.4,1.4-0.8,2.1-1.2c0.1,0,0.1,0,0.2,0
		c0.2,0.4,0.5,0.7,0.8,1c0.4,0.4,0.9,0.6,1.5,0.7c0.5,0.1,0.9,0,1.4-0.1c0.3-0.1,0.6-0.3,0.9-0.6c0.3-0.4,0.3-1.3-0.3-1.7
		c-0.3-0.2-0.6-0.4-0.9-0.5c-0.6-0.3-1.3-0.6-1.9-0.9c-0.7-0.3-1.4-0.7-1.9-1.3c-0.5-0.5-0.8-1.1-0.9-1.7c-0.1-0.5-0.1-1-0.1-1.5
		c0.1-0.9,0.4-1.7,1.1-2.3c0.6-0.6,1.3-0.9,2.1-1c0.5-0.1,1-0.1,1.6-0.1c0.4,0,0.7,0.1,1.1,0.2c0.9,0.2,1.6,0.7,2.1,1.5
		c0.1,0.2,0.2,0.3,0.3,0.5c0.1,0.1,0.1,0.2,0,0.2c-0.6,0.4-1.2,0.8-1.8,1.2c0,0,0,0-0.1,0c-0.2,0.2-0.2,0.2-0.4-0.1
		c-0.2-0.3-0.4-0.5-0.6-0.7c-0.3-0.2-0.5-0.3-0.9-0.3c-0.3,0-0.5,0-0.8,0.1c-0.5,0.2-0.7,0.6-0.8,1c0,0.6,0.3,1,0.8,1.3
		c0.5,0.3,1,0.5,1.5,0.7c0.8,0.4,1.7,0.8,2.4,1.3c0.9,0.7,1.4,1.6,1.6,2.7c0.1,0.7,0,1.4-0.2,2.1c-0.3,0.9-1,1.6-1.9,2
		c-0.6,0.3-1.1,0.4-1.8,0.5c-0.3,0-0.6,0-0.9,0c-1,0-1.9-0.2-2.8-0.6c-1.1-0.5-1.9-1.2-2.4-2.2C47.5,39.1,47.5,39.1,47.7,39z
		 M35.8,28.2c0-0.3,0-0.3,0.3-0.3c2.1,0,4.1,0,6.2,0c1.4,0,2.9,0,4.3,0c0.1,0,0.2,0,0.2,0.2c0,0.7,0,1.5,0,2.2c0,0.2,0,0.2-0.2,0.2
		c-1.2,0-2.5,0-3.7,0c-0.2,0-0.2,0-0.2,0.2c0,1.9,0,3.7,0,5.6c0,1.8,0,3.7,0,5.5c0,0.2,0,0.2-0.2,0.2c-0.8,0-1.7,0-2.5,0
		c-0.2,0-0.2,0-0.2-0.2c0-3.7,0-7.4,0-11.1c0-0.2,0-0.2-0.2-0.2c-1.2,0-2.4,0-3.6,0c-0.2,0-0.2,0-0.2-0.2
		C35.8,29.6,35.8,28.9,35.8,28.2z"/>
</g>
</svg>
