<?xml version="1.0" encoding="utf-8"?>
<!-- Generator: Adobe Illustrator 23.0.3, SVG Export Plug-In . SVG Version: 6.00 Build 0)  -->
<svg version="1.1" id="Layer_1" xmlns="http://www.w3.org/2000/svg" xmlns:xlink="http://www.w3.org/1999/xlink" x="0px" y="0px"
	 viewBox="0 0 89 58.2" style="enable-background:new 0 0 89 58.2;" xml:space="preserve">
<path style="fill:#C7C7C7;" d="M63.9,17.1c-1.4,0.6-3,1.1-4.6,1.3c1.6-1,2.9-2.5,3.5-4.4c-1.5,0.9-3.2,1.6-5.1,1.9
	c-1.4-1.5-3.5-2.5-5.8-2.5c-4.4,0-8,3.6-8,8c0,0.6,0.1,1.2,0.2,1.8c-6.6-0.3-12.5-3.5-16.4-8.3c-0.7,1.2-1.1,2.5-1.1,4
	c0,2.8,1.4,5.2,3.5,6.6c-1.3,0-2.5-0.4-3.6-1c0,0,0,0.1,0,0.1c0,3.9,2.7,7.1,6.4,7.8c-0.7,0.2-1.4,0.3-2.1,0.3c-0.5,0-1-0.1-1.5-0.1
	c1,3.2,4,5.5,7.5,5.5c-2.7,2.1-6.2,3.4-9.9,3.4c-0.6,0-1.3,0-1.9-0.1c3.5,2.3,7.7,3.6,12.2,3.6c14.6,0,22.6-12.1,22.6-22.6
	c0-0.3,0-0.7,0-1C61.5,20.1,62.8,18.7,63.9,17.1z"/>
</svg>
