<svg xmlns="http://www.w3.org/2000/svg" viewBox="0 0 89 58.2" role="img" aria-label="[title]">
  <title>Web</title>
  <path fill="#c8c8c8" d="M44.5 8.6a20.5 20.5 0 100 41 20.5 20.5 0 000-41zm1 12.6c2.4 0 4.8-.2 7.1-.4a33 33 0 011 7.4h-8.1v-7zm0-2v-8.5c2.7.6 5.1 3.7 6.6 8.1a73 73 0 01-6.6.4zm-2-8.5v8.5a73 73 0 01-6.6-.4c1.5-4.4 3.9-7.5 6.6-8.1zm0 10.5v6.9h-8.1c.1-2.6.4-5.1 1-7.4 2.3.3 4.7.5 7.1.5zm-10.1 6.9h-7.3c.2-3.2 1.1-6.1 2.7-8.7l5.6 1.1c-.6 2.3-1 4.9-1 7.6zm0 2c.1 2.7.4 5.3 1 7.6-1.9.3-3.8.6-5.6 1.1a18.2 18.2 0 01-2.7-8.7h7.3zm2 0h8.1V37c-2.4 0-4.8.2-7.1.4a28 28 0 01-1-7.3zm8.1 8.9v8.5c-2.7-.6-5.1-3.7-6.6-8.1 2.2-.2 4.4-.4 6.6-.4zm2 8.5V39c2.2 0 4.4.2 6.6.4-1.5 4.4-3.9 7.5-6.6 8.1zm0-10.5v-6.9h8.1a33 33 0 01-1 7.3c-2.3-.2-4.7-.4-7.1-.4zm10.1-6.9h7.3c-.2 3.2-1.1 6.1-2.7 8.7l-5.6-1.1c.6-2.3 1-4.9 1-7.6zm0-2c-.1-2.7-.4-5.3-1-7.6 1.9-.3 3.8-.6 5.6-1.1 1.6 2.6 2.5 5.5 2.7 8.7h-7.3zM59 17.7c-1.6.4-3.2.7-4.9.9a18 18 0 00-3.8-7 18 18 0 018.7 6.1zm-20.3-6.1a19.3 19.3 0 00-3.8 7c-1.7-.2-3.3-.5-4.9-.9a18 18 0 018.7-6.1zM30 40.5c1.6-.4 3.2-.7 4.9-.9a18 18 0 003.8 7 18 18 0 01-8.7-6.1zm20.3 6.1c1.6-1.7 2.8-4.1 3.8-7 1.7.2 3.3.5 4.9.9a18 18 0 01-8.7 6.1z"/>
</svg>