<?xml version="1.0" encoding="utf-8"?>
<!-- Generator: Adobe Illustrator 23.0.3, SVG Export Plug-In . SVG Version: 6.00 Build 0)  -->
<svg version="1.1" id="Layer_1" xmlns="http://www.w3.org/2000/svg" xmlns:xlink="http://www.w3.org/1999/xlink" x="0px" y="0px"
	 viewBox="0 0 89 58.2" style="enable-background:new 0 0 89 58.2;" xml:space="preserve">
<path style="fill:#C8C8C8;" d="M44.5,8.6C33.2,8.6,24,17.8,24,29.1c0,11.3,9.2,20.5,20.5,20.5S65,40.4,65,29.1
	C65,17.8,55.8,8.6,44.5,8.6z M45.5,21.2c2.4,0,4.8-0.2,7.1-0.4c0.6,2.2,0.9,4.7,1,7.4h-8.1V21.2z M45.5,19.2v-8.5
	c2.7,0.6,5.1,3.7,6.6,8.1C49.9,19,47.7,19.2,45.5,19.2z M43.5,10.7v8.5c-2.2,0-4.4-0.2-6.6-0.4C38.4,14.4,40.8,11.3,43.5,10.7z
	 M43.5,21.2v6.9h-8.1c0.1-2.6,0.4-5.1,1-7.4C38.7,21,41.1,21.2,43.5,21.2z M33.4,28.1h-7.3c0.2-3.2,1.1-6.1,2.7-8.7
	c1.8,0.4,3.7,0.8,5.6,1.1C33.8,22.8,33.4,25.4,33.4,28.1z M33.4,30.1c0.1,2.7,0.4,5.3,1,7.6c-1.9,0.3-3.8,0.6-5.6,1.1
	c-1.6-2.5-2.5-5.5-2.7-8.7H33.4z M35.4,30.1h8.1V37c-2.4,0-4.8,0.2-7.1,0.4C35.8,35.2,35.4,32.7,35.4,30.1z M43.5,39v8.5
	c-2.7-0.6-5.1-3.7-6.6-8.1C39.1,39.2,41.3,39,43.5,39z M45.5,47.5V39c2.2,0,4.4,0.2,6.6,0.4C50.6,43.8,48.2,46.9,45.5,47.5z
	 M45.5,37v-6.9h8.1c-0.1,2.6-0.4,5.1-1,7.3C50.3,37.2,47.9,37,45.5,37z M55.6,30.1h7.3c-0.2,3.2-1.1,6.1-2.7,8.7
	c-1.8-0.4-3.7-0.8-5.6-1.1C55.2,35.4,55.6,32.8,55.6,30.1z M55.6,28.1c-0.1-2.7-0.4-5.3-1-7.6c1.9-0.3,3.8-0.6,5.6-1.1
	c1.6,2.6,2.5,5.5,2.7,8.7H55.6z M59,17.7c-1.6,0.4-3.2,0.7-4.9,0.9c-0.9-2.9-2.2-5.3-3.8-7C53.8,12.7,56.8,14.9,59,17.7z M38.7,11.6
	c-1.6,1.7-2.8,4.1-3.8,7c-1.7-0.2-3.3-0.5-4.9-0.9C32.2,14.9,35.2,12.7,38.7,11.6z M30,40.5c1.6-0.4,3.2-0.7,4.9-0.9
	c0.9,2.9,2.2,5.3,3.8,7C35.2,45.5,32.2,43.3,30,40.5z M50.3,46.6c1.6-1.7,2.8-4.1,3.8-7c1.7,0.2,3.3,0.5,4.9,0.9
	C56.8,43.3,53.8,45.5,50.3,46.6z"/>
</svg>
