<?xml version="1.0" encoding="utf-8"?>
<!-- Generator: Adobe Illustrator 23.0.3, SVG Export Plug-In . SVG Version: 6.00 Build 0)  -->
<svg version="1.1" id="Layer_1" xmlns="http://www.w3.org/2000/svg" xmlns:xlink="http://www.w3.org/1999/xlink" x="0px" y="0px"
	 viewBox="0 0 89 58.2" style="enable-background:new 0 0 89 58.2;" xml:space="preserve">
<g>
	<path style="fill:#C7C7C7;" d="M57.6,16c-3.5-3.5-8.1-5.4-13-5.4c-10.1,0-18.4,8.2-18.4,18.3c0,3.2,0.8,6.4,2.5,9.2L26,47.6
		l9.8-2.5c2.7,1.5,5.7,2.2,8.8,2.2h0c10.1,0,18.4-8.2,18.4-18.3C63,24.1,61.1,19.4,57.6,16z M44.6,44.2c-2.8,0-5.4-0.7-7.8-2.1
		l-0.6-0.3l-5.8,1.5l1.5-5.6L31.6,37c-1.5-2.4-2.3-5.2-2.3-8.1c0-8.4,6.9-15.2,15.3-15.2c4.1,0,7.9,1.6,10.8,4.5
		c2.9,2.9,4.5,6.7,4.5,10.8C59.9,37.3,53,44.2,44.6,44.2z"/>
	<path style="fill:#C7C7C7;" d="M48.3,28.5c1.6-0.8,2.5-1.9,2.5-3.6c0-0.5-0.1-0.9-0.2-1.3c-0.2-0.4-0.4-0.8-0.7-1.2
		c-0.3-0.4-0.6-0.6-1-0.9c-0.5-0.3-1-0.5-1.5-0.6c-0.6-0.1-1.3-0.1-2-0.1H41c-0.7,0-1.2,0.2-1.5,0.5c-0.3,0.3-0.5,0.8-0.5,1.5v12.2
		c0,0.7,0.2,1.2,0.5,1.5c0.3,0.3,0.8,0.5,1.5,0.5h3.9c0.9,0,1.6,0,2.3-0.1c0.6-0.1,1.2-0.2,1.7-0.4c0.8-0.3,1.4-0.9,1.9-1.6
		c0.5-0.7,0.7-1.5,0.7-2.5C51.5,30.5,50.4,29.2,48.3,28.5z M42.3,23.3h1.6c1.2,0,2.1,0.1,2.7,0.4c0.6,0.3,0.9,0.8,0.9,1.6
		c0,0.4-0.1,0.7-0.3,1c-0.2,0.4-0.6,0.7-1,0.9c-0.5,0.2-1.1,0.2-1.9,0.2h-1.9L42.3,23.3L42.3,23.3z M44.8,34.7h-2.5v-4.8h2.4
		c1.2,0,2,0.2,2.6,0.6c0.6,0.4,0.9,1,0.9,1.8C48.1,33.8,47,34.7,44.8,34.7z"/>
</g>
</svg>
